0
SECTION
2
HEADER
9
$INSUNITS
70
4
9
$ACADVER
1
AC1014
9
$HANDSEED
5
FFFF
0
ENDSEC
0
SECTION
2
TABLES
0
TABLE
2
VPORT
5
8
100
AcDbSymbolTable
0
ENDTAB
0
TABLE
2
LTYPE
5
5
100
AcDbSymbolTable
0
LTYPE
5
14
100
AcDbSymbolTableRecord
100
AcDbLinetypeTableRecord
2
BYBLOCK
70
0
0
LTYPE
5
15
100
AcDbSymbolTableRecord
100
AcDbLinetypeTableRecord
2
BYLAYER
70
0
0
ENDTAB
0
TABLE
2
LAYER
5
2
100
AcDbSymbolTable
70
2
0
LAYER
5
50
100
AcDbSymbolTableRecord
100
AcDbLayerTableRecord
2
0
70
0
6
CONTINUOUS
0
ENDTAB
0
TABLE
2
STYLE
5
3
100
AcDbSymbolTable
70
1
0
STYLE
5
11
100
AcDbSymbolTableRecord
100
AcDbTextStyleTableRecord
2
STANDARD
70
0
0
ENDTAB
0
TABLE
2
VIEW
5
6
100
AcDbSymbolTable
70
0
0
ENDTAB
0
TABLE
2
UCS
5
7
100
AcDbSymbolTable
70
0
0
ENDTAB
0
TABLE
2
APPID
5
9
100
AcDbSymbolTable
70
2
0
APPID
5
12
100
AcDbSymbolTableRecord
100
AcDbRegAppTableRecord
2
ACAD
70
0
0
ENDTAB
0
TABLE
2
DIMSTYLE
5
A
100
AcDbSymbolTable
70
1
0
ENDTAB
0
TABLE
2
BLOCK_RECORD
5
1
100
AcDbSymbolTable
70
1
0
BLOCK_RECORD
5
1F
100
AcDbSymbolTableRecord
100
AcDbBlockTableRecord
2
*MODEL_SPACE
0
BLOCK_RECORD
5
1B
100
AcDbSymbolTableRecord
100
AcDbBlockTableRecord
2
*PAPER_SPACE
0
ENDTAB
0
ENDSEC
0
SECTION
2
BLOCKS
0
BLOCK
5
20
100
AcDbEntity
100
AcDbBlockBegin
2
*MODEL_SPACE
0
ENDBLK
5
21
100
AcDbEntity
100
AcDbBlockEnd
0
BLOCK
5
1C
100
AcDbEntity
100
AcDbBlockBegin
2
*PAPER_SPACE
0
ENDBLK
5
1D
100
AcDbEntity
100
AcDbBlockEnd
0
ENDSEC
0
SECTION
2
ENTITIES
0
SPLINE
5
100
100
AcDbEntity
8
0
100
AcDbSpline
70
4
71
5
72
21
73
15
74
0
42
0.000000001
43
0.0000000001
44
0.0000000001
40
0
40
0
40
0
40
0
40
0
40
0
40
0.10000000000000001
40
0.20000000000000001
40
0.30000000000000004
40
0.40000000000000002
40
0.5
40
0.59999999999999998
40
0.69999999999999996
40
0.79999999999999993
40
0.89999999999999991
40
0.99623988434554056
40
0.99623988434554056
40
0.99623988434554056
40
0.99623988434554056
40
0.99623988434554056
40
0.99623988434554056
41
1
41
1
41
1
41
1
41
1
41
1
41
1
41
1
41
1
41
1
41
1
41
1
41
1
41
1
41
1
10
-1.5000000000000002
20
-69.146022877308411
30
-2.2204460492503131e-15
10
-1.5172457511247306
20
-69.423081161537866
30
0
10
-1.5580002075953767
20
-69.972609382225045
30
-2.2204460492503131e-15
10
-1.63791904215841
20
-70.783137669520613
30
0
10
-1.7826851286474623
20
-71.835852331438119
30
-2.2204460492503131e-15
10
-2.0296677708557982
20
-73.102421931427713
30
-2.2204460492503131e-15
10
-2.3429176107294589
20
-74.316619761818984
30
0
10
-2.7162360629854043
20
-75.477049495709338
30
-2.2204460492503131e-15
10
-3.1327102202006571
20
-76.58611781748624
30
0
10
-3.5561898200831217
20
-77.65455985240358
30
0
10
-3.9350095208618834
20
-78.690735594031707
30
-2.2204460492503131e-15
10
-4.165637513586729
20
-79.51202113986561
30
-2.2204460492503131e-15
10
-4.2803747934646479
20
-80.128442236488269
30
-2.2204460492503131e-15
10
-4.3286916961043369
20
-80.53860175501228
30
-2.2204460492503131e-15
10
-4.3457065224319367
20
-80.740196587062485
30
-2.2204460492503131e-15
0
LINE
5
101
100
AcDbEntity
8
0
100
AcDbLine
10
-4.345708776426271
20
-80.740196403021756
30
0
11
-4.3489283995601662
21
-80.779585171636498
31
1.3552527156068805e-19
0
SPLINE
5
102
100
AcDbEntity
8
0
100
AcDbSpline
70
0
71
3
72
35
73
31
74
0
42
0.000000001
43
0.0000000001
44
0.0000000001
40
0.053726218018326104
40
0.053726218018326104
40
0.053726218018326104
40
0.053726218018326104
40
0.13302992433136618
40
0.13302992433136618
40
0.13302992433136618
40
0.26701176385960568
40
0.26701176385960568
40
0.26701176385960568
40
0.37439372584976616
40
0.37439372584976616
40
0.37439372584976616
40
0.46727869752967677
40
0.46727869752967677
40
0.46727869752967677
40
0.57120748466516702
40
0.57120748466516702
40
0.57120748466516702
40
0.67840561349887529
40
0.67840561349887529
40
0.67840561349887529
40
0.75880421012415644
40
0.75880421012415644
40
0.75880421012415644
40
0.83101482758790557
40
0.83101482758790557
40
0.83101482758790557
40
0.88969868296127452
40
0.88969868296127452
40
0.88969868296127452
40
0.91971000523479041
40
0.91971000523479041
40
0.91971000523479041
40
0.91971000523479041
10
-4.3489283995601689
20
-80.779585171636512
30
0
10
-4.5551205293204315
20
-83.299400396696356
30
-2.2204460492503131e-15
10
-4.8085613663577673
20
-85.872939481525805
30
-2.2204460492503131e-15
10
-5.1060438292692689
20
-88.523602059928038
30
-2.2204460492503131e-15
10
-5.6086338021886109
20
-93.00183724885008
30
-2.2204460492503131e-15
10
-6.2477444135556919
20
-97.683340581490626
30
-2.2204460492503131e-15
10
-6.8602510196219857
20
-103.23514300608889
30
-2.2204460492503131e-15
10
-7.3511545728417493
20
-107.68472691264087
30
-2.2204460492503131e-15
10
-7.8123012362174187
20
-112.73578869606082
30
0
10
-8.1297485418587385
20
-118.68633537588833
30
-2.2204460492503131e-15
10
-8.4043392035292701
20
-123.83353467819208
30
0
10
-8.5685408301151114
20
-129.66823891914345
30
-2.2204460492503131e-15
10
-8.606291306141129
20
-136.0392573863177
30
-2.2204460492503131e-15
10
-8.648530229362116
20
-143.16777570457691
30
0
10
-8.5330269998446422
20
-150.96768761862245
30
-2.2204460492503131e-15
10
-8.3629213853773354
20
-158.48708048142717
30
-2.2204460492503131e-15
10
-8.1874646704708969
20
-166.24301478101015
30
-2.2204460492503131e-15
10
-7.9678802799068373
20
-173.62901795691116
30
0
10
-7.8036227655846355
20
-179.54265987134832
30
-2.2204460492503131e-15
10
-7.6804296298429851
20
-183.97789130717615
30
-2.2204460492503131e-15
10
-7.5897492913436118
20
-187.57067656051478
30
-2.2204460492503131e-15
10
-7.4926184643880243
20
-190.25355439395327
30
0
10
-7.4053796656572768
20
-192.66320173935836
30
-2.2204460492503131e-15
10
-7.3236177632867596
20
-194.33888594388583
30
-2.2204460492503131e-15
10
-7.0750176003564587
20
-195.77263260573974
30
0
10
-6.8729861468167979
20
-196.93780449737358
30
-2.2204460492503131e-15
10
-6.4998810374053679
20
-197.97769340202058
30
-2.2204460492503131e-15
10
-6.0674845972650973
20
-198.83618307632969
30
-2.2204460492503131e-15
10
-5.8463541205367466
20
-199.27522052743535
30
-2.2204460492503131e-15
10
-5.6270857664803584
20
-199.67067522848146
30
-2.2204460492503131e-15
10
-5.4141380666603478
20
-200.05844991189292
30
-2.2204460492503131e-15
0
LINE
5
103
100
AcDbEntity
8
0
100
AcDbLine
10
-5.4141380666603478
20
-200.05844991189289
30
-2.2204460492503131e-15
11
-5.3816783421754604
21
-200.11759415489473
31
-2.2205815745218738e-15
0
SPLINE
5
104
100
AcDbEntity
8
0
100
AcDbSpline
70
4
71
5
72
21
73
15
74
0
42
0.000000001
43
0.0000000001
44
0.0000000001
40
-0.99212901592802794
40
-0.99212901592802794
40
-0.99212901592802794
40
-0.99212901592802794
40
-0.99212901592802794
40
-0.99212901592802794
40
-0.89999999999999991
40
-0.79999999999999993
40
-0.69999999999999996
40
-0.59999999999999998
40
-0.5
40
-0.40000000000000002
40
-0.30000000000000004
40
-0.20000000000000001
40
-0.10000000000000001
40
0
40
0
40
0
40
0
40
0
40
0
41
1
41
1
41
1
41
1
41
1
41
1
41
1
41
1
41
1
41
1
41
1
41
1
41
1
41
1
41
1
10
-5.381675206529323
20
-200.1175924351858
30
-2.2204460492503131e-15
10
-5.3051606580290471
20
-200.25559182174317
30
-2.2204460492503131e-15
10
-5.1392553194720634
20
-200.5378669042787
30
0
10
-4.8670733069875602
20
-200.94971510722894
30
-2.2204460492503131e-15
10
-4.4660503181110496
20
-201.47102862586141
30
-2.2204460492503131e-15
10
-3.9299029259270242
20
-202.09330525538971
30
-2.2204460492503131e-15
10
-3.3875479166876303
20
-202.7205679627393
30
0
10
-2.8837521957277135
20
-203.37087071185067
30
-2.2204460492503131e-15
10
-2.4465594928736785
20
-204.06605940088633
30
-2.2204460492503131e-15
10
-2.0876498517053421
20
-204.815675235958
30
-2.2204460492503131e-15
10
-1.8091384524288681
20
-205.62195002766805
30
-2.2204460492503131e-15
10
-1.6485479721575063
20
-206.31108953241539
30
-2.2204460492503131e-15
10
-1.561499581432819
20
-206.8516746981459
30
-2.2204460492503131e-15
10
-1.5180665585049522
20
-207.22243919211076
30
0
10
-1.5000000000000002
20
-207.41041513788062
30
-2.2204460492503131e-15
0
LINE
5
105
100
AcDbEntity
8
0
100
AcDbLine
10
-1.5000000000000002
20
-207.41041513788062
30
-2.2204460492503151e-15
11
-1.5000000000000002
21
-139.61682436461484
31
-2.2204460492503131e-15
0
LINE
5
106
100
AcDbEntity
8
0
100
AcDbLine
10
-1.5000000000000002
20
-139.61682436461484
30
-2.2204460492503131e-15
11
-5.7861716026191363
21
-139.61682436461481
31
-2.2204460492503131e-15
0
SPLINE
5
107
100
AcDbEntity
8
0
100
AcDbSpline
70
0
71
3
72
10
73
6
74
0
42
0.000000001
43
0.0000000001
44
0.0000000001
40
0
40
0
40
0
40
0
40
0.15081546566010381
40
0.15081546566010381
40
0.30158376192326108
40
0.30158376192326108
40
0.30158376192326108
40
0.30158376192326108
10
-5.7861716026191363
20
-139.61682436461479
30
0
10
-5.8425041486630089
20
-139.11727231343593
30
-2.2204460492503131e-15
10
-5.8975911981554887
20
-138.61641937767686
30
-2.2204460492503131e-15
10
-6.005129119284276
20
-137.61691947418407
30
0
10
-6.0578067552587154
20
-137.11617172224859
30
0
10
-6.1093503354834517
20
-136.61627047945478
30
-2.2204460492503131e-15
0
LINE
5
108
100
AcDbEntity
8
0
100
AcDbLine
10
-6.1093503354834509
20
-136.61627047945478
30
-2.2204460492503131e-15
11
-1.5000000000000002
21
-136.61627047945478
31
-2.2204460492503131e-15
0
LINE
5
109
100
AcDbEntity
8
0
100
AcDbLine
10
-1.5000000000000002
20
-136.61627047945478
30
-2.2204460492503131e-15
11
-1.5000000000000002
21
-97.616263889368611
31
-2.2204460492503131e-15
0
LINE
5
110
100
AcDbEntity
8
0
100
AcDbLine
10
-1.5000000000000002
20
-97.616263889368611
30
-2.2204460492503131e-15
11
-2.9810960594964637
21
-97.616263889368625
31
-2.2204460492503131e-15
0
SPLINE
5
111
100
AcDbEntity
8
0
100
AcDbSpline
70
0
71
3
72
10
73
6
74
0
42
0.000000001
43
0.0000000001
44
0.0000000001
40
0
40
0
40
0
40
0
40
0.15092093306029497
40
0.15092093306029497
40
0.30181758034429229
40
0.30181758034429229
40
0.30181758034429229
40
0.30181758034429229
10
-2.9810960594964637
20
-97.616263889368611
30
-2.2204460492503131e-15
10
-3.037619832736854
20
-97.116379639310338
30
0
10
-3.093499652646023
20
-96.616088379875649
30
-2.2204460492503131e-15
10
-3.2039166620087833
20
-95.616107584026508
30
-2.2204460492503131e-15
10
-3.2585230981780766
20
-95.115792780138392
30
0
10
-3.3125120152318708
20
-94.615710004208694
30
0
0
LINE
5
112
100
AcDbEntity
8
0
100
AcDbLine
10
-3.3125120152318717
20
-94.615710004208694
30
1.7249655906480832e-31
11
-1.5000000000000002
21
-94.615710004208637
31
-2.2204460492503127e-15
0
LINE
5
113
100
AcDbEntity
8
0
100
AcDbLine
10
-1.5000000000000002
20
-94.615710004208637
30
-2.2204460492503127e-15
11
-1.5000000000000002
21
-69.146022877308411
31
-2.2204460492503131e-15
0
ENDSEC
0
SECTION
2
OBJECTS
0
DICTIONARY
5
C
100
AcDbDictionary
3
ACAD_GROUP
350
D
3
ACAD_MLINESTYLE
350
17
0
DICTIONARY
5
D
100
AcDbDictionary
0
DICTIONARY
5
1A
330
C
100
AcDbDictionary
0
DICTIONARY
5
17
100
AcDbDictionary
0
ENDSEC
0
EOF
