0
SECTION
2
HEADER
9
$INSUNITS
70
4
9
$ACADVER
1
AC1014
9
$HANDSEED
5
FFFF
0
ENDSEC
0
SECTION
2
TABLES
0
TABLE
2
VPORT
5
8
100
AcDbSymbolTable
0
ENDTAB
0
TABLE
2
LTYPE
5
5
100
AcDbSymbolTable
0
LTYPE
5
14
100
AcDbSymbolTableRecord
100
AcDbLinetypeTableRecord
2
BYBLOCK
70
0
0
LTYPE
5
15
100
AcDbSymbolTableRecord
100
AcDbLinetypeTableRecord
2
BYLAYER
70
0
0
ENDTAB
0
TABLE
2
LAYER
5
2
100
AcDbSymbolTable
70
2
0
LAYER
5
50
100
AcDbSymbolTableRecord
100
AcDbLayerTableRecord
2
0
70
0
6
CONTINUOUS
0
ENDTAB
0
TABLE
2
STYLE
5
3
100
AcDbSymbolTable
70
1
0
STYLE
5
11
100
AcDbSymbolTableRecord
100
AcDbTextStyleTableRecord
2
STANDARD
70
0
0
ENDTAB
0
TABLE
2
VIEW
5
6
100
AcDbSymbolTable
70
0
0
ENDTAB
0
TABLE
2
UCS
5
7
100
AcDbSymbolTable
70
0
0
ENDTAB
0
TABLE
2
APPID
5
9
100
AcDbSymbolTable
70
2
0
APPID
5
12
100
AcDbSymbolTableRecord
100
AcDbRegAppTableRecord
2
ACAD
70
0
0
ENDTAB
0
TABLE
2
DIMSTYLE
5
A
100
AcDbSymbolTable
70
1
0
ENDTAB
0
TABLE
2
BLOCK_RECORD
5
1
100
AcDbSymbolTable
70
1
0
BLOCK_RECORD
5
1F
100
AcDbSymbolTableRecord
100
AcDbBlockTableRecord
2
*MODEL_SPACE
0
BLOCK_RECORD
5
1B
100
AcDbSymbolTableRecord
100
AcDbBlockTableRecord
2
*PAPER_SPACE
0
ENDTAB
0
ENDSEC
0
SECTION
2
BLOCKS
0
BLOCK
5
20
100
AcDbEntity
100
AcDbBlockBegin
2
*MODEL_SPACE
0
ENDBLK
5
21
100
AcDbEntity
100
AcDbBlockEnd
0
BLOCK
5
1C
100
AcDbEntity
100
AcDbBlockBegin
2
*PAPER_SPACE
0
ENDBLK
5
1D
100
AcDbEntity
100
AcDbBlockEnd
0
ENDSEC
0
SECTION
2
ENTITIES
0
LINE
5
100
100
AcDbEntity
8
0
100
AcDbLine
10
-1.4999853004239672
20
-94.558059409261958
30
2.2204460492503131e-15
11
-1.4999899199056619
21
-64.763143655872724
31
2.2898349882893854e-15
0
SPLINE
5
101
100
AcDbEntity
8
0
100
AcDbSpline
70
4
71
5
72
41
73
35
74
0
42
0.000000001
43
0.0000000001
44
0.0000000001
40
0
40
0
40
0
40
0
40
0
40
0
40
0.033333333333333333
40
0.066666666666666666
40
0.10000000000000001
40
0.13333333333333333
40
0.16666666666666666
40
0.19999999999999998
40
0.23333333333333331
40
0.26666666666666666
40
0.29999999999999999
40
0.33333333333333331
40
0.36666666666666664
40
0.39999999999999997
40
0.43333333333333329
40
0.46666666666666662
40
0.49999999999999994
40
0.53333333333333333
40
0.56666666666666665
40
0.59999999999999998
40
0.6333333333333333
40
0.66666666666666663
40
0.69999999999999996
40
0.73333333333333328
40
0.76666666666666661
40
0.79999999999999993
40
0.83333333333333326
40
0.86666666666666659
40
0.89999999999999991
40
0.93333333333333324
40
0.96666666666666656
40
1
40
1
40
1
40
1
40
1
40
1
41
1
41
1
41
1
41
1
41
1
41
1
41
1
41
1
41
1
41
1
41
1
41
1
41
1
41
1
41
1
41
1
41
1
41
1
41
1
41
1
41
1
41
1
41
1
41
1
41
1
41
1
41
1
41
1
41
1
41
1
41
1
41
1
41
1
41
1
41
1
10
-1.4999899199056619
20
-64.76314365587271
30
-2.2204460492503131e-15
10
-1.9987744457696335
20
-65.446115829519087
30
0
10
-2.9775096372966674
20
-66.808021819656517
30
0
10
-4.3891112451488592
20
-68.838763557927322
30
0
10
-6.1580362974382474
20
-71.522159527571191
30
-2.2204460492503131e-15
10
-8.1781400807891096
20
-74.8455072730994
30
0
10
-10.002090933015577
20
-78.167414774651448
30
0
10
-11.621367670439394
20
-81.54666468580514
30
0
10
-13.022897132621523
20
-85.083514141547369
30
-2.2204460492503131e-15
10
-14.193556571860629
20
-88.901385525053513
30
0
10
-15.125639373268729
20
-93.124367289069468
30
2.2204460492503131e-15
10
-15.821505811967549
20
-97.85771941386642
30
0
10
-16.300054854513206
20
-103.16317552506392
30
0
10
-16.59464204066866
20
-109.05804554808753
30
0
10
-16.747812652730271
20
-115.52309146987074
30
0
10
-16.807169510342941
20
-122.5071455579052
30
2.2204460492503131e-15
10
-16.820881150724912
20
-129.93274407187425
30
2.2204460492503131e-15
10
-16.833309540418696
20
-137.70090240569058
30
2.2204460492503131e-15
10
-16.880755118026435
20
-145.69619072949928
30
0
10
-16.986596754887042
20
-153.79085032254284
30
2.2204460492503131e-15
10
-17.153246637758606
20
-161.84517218871875
30
0
10
-17.354057352581354
20
-169.70782225243397
30
-2.2204460492503131e-15
10
-17.525623052236924
20
-177.21687473657752
30
0
10
-17.558298046658809
20
-184.19873197198385
30
0
10
-17.290236030454253
20
-190.47199653827147
30
0
10
-16.492796011693798
20
-195.84015245091643
30
2.2204460492503131e-15
10
-14.865285712988035
20
-200.10234740536785
30
0
10
-12.503546546510913
20
-203.44163309168707
30
0
10
-9.688042224510454
20
-206.1814961257376
30
0
10
-6.8174118249501543
20
-208.68629848948157
30
0
10
-4.2784760413025449
20
-211.18466193297098
30
0
10
-2.7494826534873535
20
-213.18972543786577
30
0
10
-1.9726288153586031
20
-214.66595491049335
30
-2.2204460492503131e-15
10
-1.6285480346575218
20
-215.62984690610438
30
-2.2204460492503131e-15
10
-1.499966455198569
20
-216.10673958950147
30
-2.2204460492503131e-15
0
LINE
5
102
100
AcDbEntity
8
0
100
AcDbLine
10
-1.4999664551985694
20
-216.10673958950147
30
-2.2204460492503135e-15
11
-1.4999696408310714
21
-195.55992106999526
31
0
0
LINE
5
103
100
AcDbEntity
8
0
100
AcDbLine
10
-1.4999696408310714
20
-195.55992106999526
30
0
11
-14.246979583741858
21
-195.55992304632508
31
0
0
SPLINE
5
104
100
AcDbEntity
8
0
100
AcDbSpline
70
0
71
3
72
10
73
6
74
0
42
0.000000001
43
0.0000000001
44
0.0000000001
40
0
40
0
40
0
40
0
40
0.15017324785961367
40
0.15017324785961367
40
0.30034609803255458
40
0.30034609803255458
40
0.30034609803255458
40
0.30034609803255458
10
-14.246979583741854
20
-195.559923046325
30
-2.2204460492503131e-15
10
-14.269181049691275
20
-195.05983813226234
30
-2.2204460492503131e-15
10
-14.291317479392852
20
-194.5597433139589
30
-2.2204460492503131e-15
10
-14.335460263042057
20
-193.55956327465333
30
-2.2204460492503131e-15
10
-14.357467228028494
20
-193.0594642166555
30
0
10
-14.379409826216811
20
-192.55936918169738
30
-2.2204460492503131e-15
0
LINE
5
105
100
AcDbEntity
8
0
100
AcDbLine
10
-14.379409826216811
20
-192.55936918169738
30
-2.2204460492503135e-15
11
-1.4999701060447967
21
-192.55936718483531
31
0
0
LINE
5
106
100
AcDbEntity
8
0
100
AcDbLine
10
-1.4999701060447967
20
-192.55936718483531
30
0
11
-1.4999783233334547
21
-139.55917376966767
31
2.2204460492503131e-15
0
LINE
5
107
100
AcDbEntity
8
0
100
AcDbLine
10
-1.4999783233334547
20
-139.55917376966767
30
2.2204460492503131e-15
11
-14.228218193409248
21
-139.55917574308722
31
-2.2204460492503131e-15
0
SPLINE
5
108
100
AcDbEntity
8
0
100
AcDbSpline
70
0
71
3
72
10
73
6
74
0
42
0.000000001
43
0.0000000001
44
0.0000000001
40
0
40
0
40
0
40
0
40
0.15012619669002739
40
0.15012619669002739
40
0.30025237909225627
40
0.30025237909225627
40
0.30025237909225627
40
0.30025237909225627
10
-14.228218193409244
20
-139.55917574308722
30
0
10
-14.246486388235864
20
-139.05908864503093
30
-2.2204460492503131e-15
10
-14.264716539056652
20
-138.55899269092248
30
2.2204460492503131e-15
10
-14.301100492249754
20
-137.5588129746755
30
0
10
-14.319254831597643
20
-137.05871445151516
30
0
10
-14.337371409140436
20
-136.55862187485059
30
0
0
LINE
5
109
100
AcDbEntity
8
0
100
AcDbLine
10
-14.337371409140436
20
-136.55862187485059
30
-2.1904188886289387e-31
11
-1.4999787885471805
21
-136.55861988450764
31
0
0
LINE
5
110
100
AcDbEntity
8
0
100
AcDbLine
10
-1.4999787885471805
20
-136.55861988450764
30
0
11
-1.4999848352102421
21
-97.558613294421903
31
2.0816681711721685e-15
0
LINE
5
111
100
AcDbEntity
8
0
100
AcDbLine
10
-1.4999848352102421
20
-97.558613294421903
30
2.0816681711721685e-15
11
-12.67931825848188
21
-97.558615027694998
31
4.1359030627651384e-24
0
SPLINE
5
112
100
AcDbEntity
8
0
100
AcDbSpline
70
0
71
3
72
10
73
6
74
0
42
0.000000001
43
0.0000000001
44
0.0000000001
40
0
40
0
40
0
40
0
40
0.15013044847180185
40
0.15013044847180185
40
0.3002605652640003
40
0.3002605652640003
40
0.3002605652640003
40
0.3002605652640003
10
-12.679318258481878
20
-97.558615027694998
30
0
10
-12.698010715262367
20
-97.05852942564826
30
0
10
-12.716640836489475
20
-96.558433486822423
30
0
10
-12.753776774661624
20
-95.558254134110967
30
0
10
-12.772283182193968
20
-95.058154821308136
30
2.2204460492503131e-15
10
-12.790728248472977
20
-94.558061159808361
30
0
0
LINE
5
113
100
AcDbEntity
8
0
100
AcDbLine
10
-12.790728248472977
20
-94.558061159808361
30
-2.6271752136004993e-31
11
-1.4999853004239672
21
-94.558059409261958
31
2.2204460492503131e-15
0
ENDSEC
0
SECTION
2
OBJECTS
0
DICTIONARY
5
C
100
AcDbDictionary
3
ACAD_GROUP
350
D
3
ACAD_MLINESTYLE
350
17
0
DICTIONARY
5
D
100
AcDbDictionary
0
DICTIONARY
5
1A
330
C
100
AcDbDictionary
0
DICTIONARY
5
17
100
AcDbDictionary
0
ENDSEC
0
EOF
