0
SECTION
2
HEADER
9
$INSUNITS
70
4
9
$ACADVER
1
AC1014
9
$HANDSEED
5
FFFF
0
ENDSEC
0
SECTION
2
TABLES
0
TABLE
2
VPORT
5
8
100
AcDbSymbolTable
0
ENDTAB
0
TABLE
2
LTYPE
5
5
100
AcDbSymbolTable
0
LTYPE
5
14
100
AcDbSymbolTableRecord
100
AcDbLinetypeTableRecord
2
BYBLOCK
70
0
0
LTYPE
5
15
100
AcDbSymbolTableRecord
100
AcDbLinetypeTableRecord
2
BYLAYER
70
0
0
ENDTAB
0
TABLE
2
LAYER
5
2
100
AcDbSymbolTable
70
2
0
LAYER
5
50
100
AcDbSymbolTableRecord
100
AcDbLayerTableRecord
2
0
70
0
6
CONTINUOUS
0
ENDTAB
0
TABLE
2
STYLE
5
3
100
AcDbSymbolTable
70
1
0
STYLE
5
11
100
AcDbSymbolTableRecord
100
AcDbTextStyleTableRecord
2
STANDARD
70
0
0
ENDTAB
0
TABLE
2
VIEW
5
6
100
AcDbSymbolTable
70
0
0
ENDTAB
0
TABLE
2
UCS
5
7
100
AcDbSymbolTable
70
0
0
ENDTAB
0
TABLE
2
APPID
5
9
100
AcDbSymbolTable
70
2
0
APPID
5
12
100
AcDbSymbolTableRecord
100
AcDbRegAppTableRecord
2
ACAD
70
0
0
ENDTAB
0
TABLE
2
DIMSTYLE
5
A
100
AcDbSymbolTable
70
1
0
ENDTAB
0
TABLE
2
BLOCK_RECORD
5
1
100
AcDbSymbolTable
70
1
0
BLOCK_RECORD
5
1F
100
AcDbSymbolTableRecord
100
AcDbBlockTableRecord
2
*MODEL_SPACE
0
BLOCK_RECORD
5
1B
100
AcDbSymbolTableRecord
100
AcDbBlockTableRecord
2
*PAPER_SPACE
0
ENDTAB
0
ENDSEC
0
SECTION
2
BLOCKS
0
BLOCK
5
20
100
AcDbEntity
100
AcDbBlockBegin
2
*MODEL_SPACE
0
ENDBLK
5
21
100
AcDbEntity
100
AcDbBlockEnd
0
BLOCK
5
1C
100
AcDbEntity
100
AcDbBlockBegin
2
*PAPER_SPACE
0
ENDBLK
5
1D
100
AcDbEntity
100
AcDbBlockEnd
0
ENDSEC
0
SECTION
2
ENTITIES
0
SPLINE
5
100
100
AcDbEntity
8
0
100
AcDbSpline
70
4
71
5
72
41
73
35
74
0
42
0.000000001
43
0.0000000001
44
0.0000000001
40
0
40
0
40
0
40
0
40
0
40
0
40
0.033333333333333333
40
0.066666666666666666
40
0.10000000000000001
40
0.13333333333333333
40
0.16666666666666666
40
0.19999999999999998
40
0.23333333333333331
40
0.26666666666666666
40
0.29999999999999999
40
0.33333333333333331
40
0.36666666666666664
40
0.39999999999999997
40
0.43333333333333329
40
0.46666666666666662
40
0.49999999999999994
40
0.53333333333333333
40
0.56666666666666665
40
0.59999999999999998
40
0.6333333333333333
40
0.66666666666666663
40
0.69999999999999996
40
0.73333333333333328
40
0.76666666666666661
40
0.79999999999999993
40
0.83333333333333326
40
0.86666666666666659
40
0.89999999999999991
40
0.93333333333333324
40
0.96666666666666656
40
1
40
1
40
1
40
1
40
1
40
1
41
1
41
1
41
1
41
1
41
1
41
1
41
1
41
1
41
1
41
1
41
1
41
1
41
1
41
1
41
1
41
1
41
1
41
1
41
1
41
1
41
1
41
1
41
1
41
1
41
1
41
1
41
1
41
1
41
1
41
1
41
1
41
1
41
1
41
1
41
1
10
-1.4999637032636777
20
-60.345024150310032
30
-2.2204460492503131e-15
10
-2.1299225063648271
20
-61.001590769264766
30
0
10
-3.3685535640427089
20
-62.333439080515205
30
-2.2204460492503131e-15
10
-5.1626417022268125
20
-64.38735887024751
30
0
10
-7.4268007339121738
20
-67.238398356771938
30
-2.2204460492503131e-15
10
-10.039876549563161
20
-70.989016123589607
30
0
10
-12.426392342162991
20
-74.922095133056445
30
2.2204460492503131e-15
10
-14.569567245735575
20
-79.027926241784726
30
-2.2204460492503131e-15
10
-16.442135066334
20
-83.287239557954251
30
0
10
-18.014200589962041
20
-87.688145761626529
30
0
10
-19.264004128533543
20
-92.249750787214637
30
0
10
-20.186562218618263
20
-97.039241265596161
30
-2.2204460492503131e-15
10
-20.806292744327614
20
-102.20247733294522
30
0
10
-21.17612712270812
20
-107.94569163978392
30
0
10
-21.365275024102996
20
-114.47462444666178
30
0
10
-21.450401843049839
20
-121.94735030666936
30
-2.2204460492503131e-15
10
-21.505450368967015
20
-130.41735001608041
30
0
10
-21.592249466433287
20
-139.78848345013284
30
0
10
-21.750287326612895
20
-149.74275600327812
30
2.2204460492503131e-15
10
-21.988423862508274
20
-159.74787525993693
30
-2.2204460492503131e-15
10
-22.282564593377625
20
-169.19731289558655
30
2.2204460492503131e-15
10
-22.568726966761702
20
-177.53619784820552
30
2.2204460492503131e-15
10
-22.744169748576233
20
-184.3595379598201
30
-2.2204460492503131e-15
10
-22.649840353744885
20
-189.60030610972936
30
0
10
-22.09529759288089
20
-193.50204355993264
30
-2.2204460492503131e-15
10
-20.779807006723942
20
-197.12638609970799
30
0
10
-18.563418581588337
20
-201.05818849957782
30
0
10
-15.516127433907908
20
-205.29332990513055
30
-2.2204460492503131e-15
10
-11.877898903009223
20
-209.59624945403843
30
0
10
-8.0558436820669481
20
-213.64951800738885
30
0
10
-4.6133616790894347
20
-217.30541595424498
30
-2.2204460492503131e-15
10
-2.6327205168952568
20
-219.88627451613149
30
0
10
-1.7918542617292625
20
-221.64009464725041
30
-2.2204460492503131e-15
10
-1.5449222301047367
20
-222.73215317846166
30
2.2204460492503131e-15
10
-1.499866212729442
20
-223.25889378556181
30
-2.2204460492503131e-15
0
LINE
5
101
100
AcDbEntity
8
0
100
AcDbLine
10
-1.4998662127294429
20
-223.25889378556181
30
-2.2204460492503123e-15
11
-1.4998752976616148
21
-208.07730237105204
31
-2.2204460492503131e-15
0
SPLINE
5
102
100
AcDbEntity
8
0
100
AcDbSpline
70
4
71
5
72
21
73
15
74
0
42
0.000000001
43
0.0000000001
44
0.0000000001
40
-1
40
-1
40
-1
40
-1
40
-1
40
-1
40
-0.89999999999999991
40
-0.79999999999999993
40
-0.69999999999999996
40
-0.59999999999999998
40
-0.5
40
-0.40000000000000002
40
-0.30000000000000004
40
-0.20000000000000001
40
-0.10000000000000001
40
0
40
0
40
0
40
0
40
0
40
0
41
1
41
1
41
1
41
1
41
1
41
1
41
1
41
1
41
1
41
1
41
1
41
1
41
1
41
1
41
1
10
-1.4998752976616145
20
-208.07730237105201
30
0
10
-1.6530578309082093
20
-207.74655931558391
30
0
10
-1.968395716201468
20
-207.13304644559852
30
-2.2204460492503131e-15
10
-2.468313574125522
20
-206.35667271276819
30
-2.2204460492503131e-15
10
-3.179823884560939
20
-205.58007004956079
30
0
10
-4.0948684655579335
20
-204.87972471511932
30
-2.2204460492503131e-15
10
-4.9753667761565454
20
-204.25408834224845
30
-2.2204460492503131e-15
10
-5.7634609659422731
20
-203.51394808677981
30
0
10
-6.4221101490092849
20
-202.53026278708975
30
-2.2204460492503131e-15
10
-6.9400339777336475
20
-201.24945731931251
30
0
10
-7.3180437645590457
20
-199.65693598928772
30
-2.2204460492503131e-15
10
-7.5140153371427223
20
-198.13985359519035
30
-2.2204460492503131e-15
10
-7.6041648856112074
20
-196.87113001479432
30
0
10
-7.6394252321499803
20
-195.96809688354591
30
-2.2204460492503131e-15
10
-7.6508450318104648
20
-195.50227458718712
30
0
0
LINE
5
103
100
AcDbEntity
8
0
100
AcDbLine
10
-7.6508450318104648
20
-195.50227458718712
30
1.057759422731499e-30
11
-19.536944088873117
21
-195.50228170003857
31
-3.3087224502121107e-23
0
SPLINE
5
104
100
AcDbEntity
8
0
100
AcDbSpline
70
0
71
3
72
10
73
6
74
0
42
0.000000001
43
0.0000000001
44
0.0000000001
40
0
40
0
40
0
40
0
40
0.1500763980960062
40
0.1500763980960062
40
0.30015297711787969
40
0.30015297711787969
40
0.30015297711787969
40
0.30015297711787969
10
-19.536944088873124
20
-195.50228170003851
30
0
10
-19.549786110908784
20
-195.00219190046056
30
0
10
-19.562597863454613
20
-194.50209933260592
30
-2.2204460492503131e-15
10
-19.588161038168892
20
-193.50191603678979
30
0
10
-19.600912561709315
20
-193.00182133970571
30
0
10
-19.613634109499277
20
-192.5017278607707
30
0
0
LINE
5
105
100
AcDbEntity
8
0
100
AcDbLine
10
-19.613634109499273
20
-192.50172786077073
30
1.3397835416634868e-32
11
-7.8634045237393568
21
-192.50172082922597
31
0
0
SPLINE
5
106
100
AcDbEntity
8
0
100
AcDbSpline
70
4
71
5
72
21
73
15
74
0
42
0.000000001
43
0.0000000001
44
0.0000000001
40
-1
40
-1
40
-1
40
-1
40
-1
40
-1
40
-0.89999999999999991
40
-0.79999999999999993
40
-0.69999999999999996
40
-0.59999999999999998
40
-0.5
40
-0.40000000000000002
40
-0.30000000000000004
40
-0.20000000000000001
40
-0.10000000000000001
40
0
40
0
40
0
40
0
40
0
40
0
41
1
41
1
41
1
41
1
41
1
41
1
41
1
41
1
41
1
41
1
41
1
41
1
41
1
41
1
41
1
10
-7.8634045237393613
20
-192.50172082922597
30
-2.2204460492503131e-15
10
-7.9303725488753489
20
-191.62874810191059
30
0
10
-8.0598313293118355
20
-189.86581351995801
30
0
10
-8.2405872454817022
20
-187.17044257658105
30
-2.2204460492503131e-15
10
-8.4542925099511699
20
-183.47301407220147
30
-2.2204460492503131e-15
10
-8.6729936386501798
20
-178.66745771903425
30
2.2204460492503131e-15
10
-8.8395561065520738
20
-173.66405973934249
30
0
10
-8.9507114779682571
20
-168.45041796124829
30
-2.2204460492503131e-15
10
-9.0064552603430101
20
-163.02651533762386
30
-2.2204460492503131e-15
10
-9.0105988985642576
20
-157.40681450415309
30
2.2204460492503131e-15
10
-8.9677958310596608
20
-151.60897306487672
30
0
10
-8.8994248683333517
20
-146.84119831957386
30
0
10
-8.8302270966809822
20
-143.19737102159718
30
-2.2204460492503131e-15
10
-8.7762621222662389
20
-140.73842980181954
30
0
10
-8.7473212233021442
20
-139.5015279429995
30
0
0
LINE
5
107
100
AcDbEntity
8
0
100
AcDbLine
10
-8.747321223302146
20
-139.5015279429995
30
9.407032330359244e-31
11
-18.9919421129261
21
-139.50153407356143
31
-2.2204460657939253e-15
0
SPLINE
5
108
100
AcDbEntity
8
0
100
AcDbSpline
70
0
71
3
72
10
73
6
74
0
42
0.000000001
43
0.0000000001
44
0.0000000001
40
0
40
0
40
0
40
0
40
0.15007695794342732
40
0.15007695794342732
40
0.30015409166459439
40
0.30015409166459439
40
0.30015409166459439
40
0.30015409166459439
10
-18.991942112926104
20
-139.5015340735614
30
-2.2204460492503131e-15
10
-19.004828419027142
20
-139.00144354635759
30
-2.2204460492503131e-15
10
-19.017696172728936
20
-138.5013509362575
30
2.2204460492503131e-15
10
-19.043394587058128
20
-137.50116738375812
30
-2.2204460492503131e-15
10
-19.056225329554149
20
-137.00107325334238
30
0
10
-19.069037598428281
20
-136.50098023453614
30
0
0
LINE
5
109
100
AcDbEntity
8
0
100
AcDbLine
10
-19.069037598428281
20
-136.50098023453614
30
2.1164941664002985e-31
11
-8.8970759736949567
21
-136.50097414745483
31
1.6543612251060553e-23
0
LINE
5
110
100
AcDbEntity
8
0
100
AcDbLine
10
-8.8970759736949567
20
-136.50097414745483
30
1.6543612251060553e-23
11
-6.7562395765612422
21
-97.500966276247368
31
2.3592239273284576e-15
0
LINE
5
111
100
AcDbEntity
8
0
100
AcDbLine
10
-6.7562395765612422
20
-97.500966276247368
30
2.3592239273284576e-15
11
-17.085653642653568
21
-97.500972457551029
31
-1.6543612251060553e-23
0
SPLINE
5
112
100
AcDbEntity
8
0
100
AcDbSpline
70
0
71
3
72
10
73
6
74
0
42
0.000000001
43
0.0000000001
44
0.0000000001
40
0
40
0
40
0
40
0
40
0.15006241430486542
40
0.15006241430486542
40
0.30012495560167951
40
0.30012495560167951
40
0.30012495560167951
40
0.30012495560167951
10
-17.085653642653575
20
-97.500972457551001
30
0
10
-17.096533806123514
20
-97.00088275258841
30
-2.2204460492503131e-15
10
-17.107392713739308
20
-96.500788143423677
30
0
10
-17.129068022128084
20
-95.500606464382628
30
0
10
-17.139884614021437
20
-95.000510573827626
30
0
10
-17.150680137191884
20
-94.50041861130353
30
-2.2204460492503131e-15
0
LINE
5
113
100
AcDbEntity
8
0
100
AcDbLine
10
-17.150680137191884
20
-94.50041861130353
30
-2.2204460492503127e-15
11
-6.9435506170189143
21
-94.500412503177046
31
-2.2204460161630886e-15
0
SPLINE
5
114
100
AcDbEntity
8
0
100
AcDbSpline
70
4
71
5
72
21
73
15
74
0
42
0.000000001
43
0.0000000001
44
0.0000000001
40
-1
40
-1
40
-1
40
-1
40
-1
40
-1
40
-0.89999999999999991
40
-0.79999999999999993
40
-0.69999999999999996
40
-0.59999999999999998
40
-0.5
40
-0.40000000000000002
40
-0.30000000000000004
40
-0.20000000000000001
40
-0.10000000000000001
40
0
40
0
40
0
40
0
40
0
40
0
41
1
41
1
41
1
41
1
41
1
41
1
41
1
41
1
41
1
41
1
41
1
41
1
41
1
41
1
41
1
10
-6.9435506170189134
20
-94.500412503177074
30
-2.2204460492503131e-15
10
-6.910747969073487
20
-93.951001728350846
30
0
10
-6.8386040667385659
20
-92.857011409965153
30
0
10
-6.7107734327412167
20
-91.23051885861328
30
0
10
-6.5004486415907872
20
-89.091331486366826
30
0
10
-6.1664670372276218
20
-86.469863466744528
30
-2.2204460492503131e-15
10
-5.7547171160010908
20
-83.905856731444203
30
0
10
-5.2582998954107252
20
-81.404408785602385
30
-2.2204460492503131e-15
10
-4.6724960284963393
20
-78.969006650001944
30
-2.2204460492503131e-15
10
-3.9994961343401703
20
-76.598031724789578
30
-2.2204460492503131e-15
10
-3.2453329634053203
20
-74.287026544458485
30
-2.2204460492503131e-15
10
-2.5821180960036223
20
-72.482469603779194
30
0
10
-2.0531221257569845
20
-71.15238922093674
30
-2.2204460492503131e-15
10
-1.6866477876377091
20
-70.27587313286331
30
0
10
-1.4999580212031696
20
-69.840166136442264
30
0
0
LINE
5
115
100
AcDbEntity
8
0
100
AcDbLine
10
-1.4999580212031698
20
-69.840166136442264
30
-2.6584751962291232e-30
11
-1.4999637032636777
21
-60.345024150310032
31
-2.2204460492503131e-15
0
ENDSEC
0
SECTION
2
OBJECTS
0
DICTIONARY
5
C
100
AcDbDictionary
3
ACAD_GROUP
350
D
3
ACAD_MLINESTYLE
350
17
0
DICTIONARY
5
D
100
AcDbDictionary
0
DICTIONARY
5
1A
330
C
100
AcDbDictionary
0
DICTIONARY
5
17
100
AcDbDictionary
0
ENDSEC
0
EOF
