0
SECTION
2
HEADER
9
$INSUNITS
70
4
9
$ACADVER
1
AC1014
9
$HANDSEED
5
FFFF
0
ENDSEC
0
SECTION
2
TABLES
0
TABLE
2
VPORT
5
8
100
AcDbSymbolTable
0
ENDTAB
0
TABLE
2
LTYPE
5
5
100
AcDbSymbolTable
0
LTYPE
5
14
100
AcDbSymbolTableRecord
100
AcDbLinetypeTableRecord
2
BYBLOCK
70
0
0
LTYPE
5
15
100
AcDbSymbolTableRecord
100
AcDbLinetypeTableRecord
2
BYLAYER
70
0
0
ENDTAB
0
TABLE
2
LAYER
5
2
100
AcDbSymbolTable
70
2
0
LAYER
5
50
100
AcDbSymbolTableRecord
100
AcDbLayerTableRecord
2
0
70
0
6
CONTINUOUS
0
ENDTAB
0
TABLE
2
STYLE
5
3
100
AcDbSymbolTable
70
1
0
STYLE
5
11
100
AcDbSymbolTableRecord
100
AcDbTextStyleTableRecord
2
STANDARD
70
0
0
ENDTAB
0
TABLE
2
VIEW
5
6
100
AcDbSymbolTable
70
0
0
ENDTAB
0
TABLE
2
UCS
5
7
100
AcDbSymbolTable
70
0
0
ENDTAB
0
TABLE
2
APPID
5
9
100
AcDbSymbolTable
70
2
0
APPID
5
12
100
AcDbSymbolTableRecord
100
AcDbRegAppTableRecord
2
ACAD
70
0
0
ENDTAB
0
TABLE
2
DIMSTYLE
5
A
100
AcDbSymbolTable
70
1
0
ENDTAB
0
TABLE
2
BLOCK_RECORD
5
1
100
AcDbSymbolTable
70
1
0
BLOCK_RECORD
5
1F
100
AcDbSymbolTableRecord
100
AcDbBlockTableRecord
2
*MODEL_SPACE
0
BLOCK_RECORD
5
1B
100
AcDbSymbolTableRecord
100
AcDbBlockTableRecord
2
*PAPER_SPACE
0
ENDTAB
0
ENDSEC
0
SECTION
2
BLOCKS
0
BLOCK
5
20
100
AcDbEntity
100
AcDbBlockBegin
2
*MODEL_SPACE
0
ENDBLK
5
21
100
AcDbEntity
100
AcDbBlockEnd
0
BLOCK
5
1C
100
AcDbEntity
100
AcDbBlockBegin
2
*PAPER_SPACE
0
ENDBLK
5
1D
100
AcDbEntity
100
AcDbBlockEnd
0
ENDSEC
0
SECTION
2
ENTITIES
0
SPLINE
5
100
100
AcDbEntity
8
0
100
AcDbSpline
70
4
71
5
72
41
73
35
74
0
42
0.000000001
43
0.0000000001
44
0.0000000001
40
0
40
0
40
0
40
0
40
0
40
0
40
0.033333333333333333
40
0.066666666666666666
40
0.10000000000000001
40
0.13333333333333333
40
0.16666666666666666
40
0.19999999999999998
40
0.23333333333333331
40
0.26666666666666666
40
0.29999999999999999
40
0.33333333333333331
40
0.36666666666666664
40
0.39999999999999997
40
0.43333333333333329
40
0.46666666666666662
40
0.49999999999999994
40
0.53333333333333333
40
0.56666666666666665
40
0.59999999999999998
40
0.6333333333333333
40
0.66666666666666663
40
0.69999999999999996
40
0.73333333333333328
40
0.76666666666666661
40
0.79999999999999993
40
0.83333333333333326
40
0.86666666666666659
40
0.89999999999999991
40
0.93333333333333324
40
0.96666666666666656
40
1
40
1
40
1
40
1
40
1
40
1
41
1
41
1
41
1
41
1
41
1
41
1
41
1
41
1
41
1
41
1
41
1
41
1
41
1
41
1
41
1
41
1
41
1
41
1
41
1
41
1
41
1
41
1
41
1
41
1
41
1
41
1
41
1
41
1
41
1
41
1
41
1
41
1
41
1
41
1
41
1
10
-1.5000378922165596
20
-57.178087772410642
30
0
10
-1.5734108395044253
20
-57.554069000408887
30
0
10
-1.888507628418409
20
-58.432759621347074
30
0
10
-2.8661937295441033
20
-60.130972019400218
30
0
10
-5.0714485078418345
20
-63.086838274630082
30
4.4408920985006262e-15
10
-8.7331744579440436
20
-67.562090266742857
30
0
10
-12.591468091485801
20
-72.389080610395069
30
4.4408920985006262e-15
10
-16.03751897214083
20
-77.223172330407039
30
0
10
-18.784139263781551
20
-81.952046698108461
30
0
10
-20.789334234108111
20
-86.636612733218612
30
0
10
-22.166755039505269
20
-91.442769092298278
30
0
10
-23.107298354849132
20
-96.580788175892422
30
0
10
-23.785333839676056
20
-102.233968722375
30
-4.4408920985006262e-15
10
-24.313371373176103
20
-108.52042221149637
30
4.4408920985006262e-15
10
-24.763330160889822
20
-115.50004137517895
30
0
10
-25.171199520507479
20
-123.17036276103659
30
0
10
-25.548500336613387
20
-131.46548130808858
30
0
10
-25.889834898752028
20
-140.25493026149934
30
0
10
-26.183933253696562
20
-149.33726050961079
30
0
10
-26.41597910479036
20
-158.45242109580795
30
0
10
-26.559915036085336
20
-167.31889130672485
30
0
10
-26.572716344323947
20
-175.66491329418602
30
0
10
-26.388740647551764
20
-183.26097638291375
30
0
10
-25.911679925779758
20
-189.95483533834232
30
4.4408920985006262e-15
10
-25.012575471202034
20
-195.69974429837845
30
0
10
-23.512028475129483
20
-200.60239629630789
30
4.4408920985006262e-15
10
-21.224805053857043
20
-204.89634132590891
30
0
10
-18.060753320170015
20
-208.85175752001513
30
0
10
-14.103039591013264
20
-212.70749077629063
30
0
10
-9.7133774142947598
20
-216.58586739630266
30
0
10
-5.5792801718176879
20
-220.43820533520631
30
4.4408920985006262e-15
10
-3.0902350520421971
20
-223.39528302838343
30
0
10
-1.9711028399044803
20
-225.47986329106425
30
0
10
-1.5953995440838895
20
-226.80081125985879
30
0
10
-1.5001500084660366
20
-227.44408946239565
30
0
0
LINE
5
101
100
AcDbEntity
8
0
100
AcDbLine
10
-1.500150008466036
20
-227.44408946239565
30
2.0726594337050304e-30
11
-1.5001403532266564
21
-212.78110340041508
31
4.4408920985006262e-15
0
SPLINE
5
102
100
AcDbEntity
8
0
100
AcDbSpline
70
4
71
5
72
26
73
20
74
0
42
0.000000001
43
0.0000000001
44
0.0000000001
40
-1
40
-1
40
-1
40
-1
40
-1
40
-1
40
-0.93333333333333324
40
-0.86666666666666659
40
-0.79999999999999993
40
-0.73333333333333328
40
-0.66666666666666663
40
-0.59999999999999998
40
-0.53333333333333333
40
-0.46666666666666662
40
-0.39999999999999997
40
-0.33333333333333331
40
-0.26666666666666666
40
-0.20000000000000001
40
-0.13333333333333333
40
-0.066666666666666666
40
0
40
0
40
0
40
0
40
0
40
0
41
1
41
1
41
1
41
1
41
1
41
1
41
1
41
1
41
1
41
1
41
1
41
1
41
1
41
1
41
1
41
1
41
1
41
1
41
1
41
1
10
-1.500140353226656
20
-212.78110340041511
30
4.4408920985006262e-15
10
-1.5801437885041194
20
-212.60707092863126
30
0
10
-1.7597437259362079
20
-212.24525781580002
30
0
10
-2.0879235721913747
20
-211.66129042027723
30
0
10
-2.64390482323833
20
-210.79959972399843
30
0
10
-3.5395875592625736
20
-209.58501745113017
30
0
10
-4.6368472659306557
20
-208.24286602048244
30
0
10
-5.9303002100285287
20
-206.79738804130281
30
0
10
-7.4027169731076885
20
-205.29699067842614
30
0
10
-9.0228749988010772
20
-203.8115120920655
30
0
10
-10.747455540350927
20
-202.41422441852094
30
0
10
-12.521193926831382
20
-201.16844484687647
30
0
10
-14.276719339035893
20
-200.11086619138982
30
0
10
-15.934514784103321
20
-199.23744420284606
30
0
10
-17.401035292598007
20
-198.48095866553325
30
0
10
-18.571982329170492
20
-197.70730506957193
30
0
10
-19.19465707847711
20
-196.95445145543491
30
0
10
-19.451890227364668
20
-196.2576116979385
30
0
10
-19.525977811183584
20
-195.72667268090106
30
0
10
-19.538670509713917
20
-195.44460632558008
30
0
0
LINE
5
103
100
AcDbEntity
8
0
100
AcDbLine
10
-19.538670509713914
20
-195.44460632558008
30
0
11
-22.741571363315572
21
-195.44460421654347
31
0
0
SPLINE
5
104
100
AcDbEntity
8
0
100
AcDbSpline
70
0
71
3
72
10
73
6
74
0
42
0.000000001
43
0.0000000001
44
0.0000000001
40
0
40
0
40
0
40
0
40
0.15004693420265994
40
0.15004693420265994
40
0.30009461477028643
40
0.30009461477028643
40
0.30009461477028643
40
0.30009461477028643
10
-22.741571363315568
20
-195.44460421654347
30
0
10
-22.749714360239857
20
-194.94451406125236
30
4.4408920985006262e-15
10
-22.757840605213993
20
-194.44442249587013
30
0
10
-22.774059722550497
20
-193.44423861162176
30
0
10
-22.782152631545024
20
-192.94414402351887
30
0
10
-22.790228915896833
20
-192.44405029934296
30
0
0
LINE
5
105
100
AcDbEntity
8
0
100
AcDbLine
10
-22.790228915896833
20
-192.44405029934296
30
0
11
-22.125270352393969
21
-192.4440507372029
31
-1.0339757656912846e-24
0
LINE
5
106
100
AcDbEntity
8
0
100
AcDbLine
10
-22.125270352393969
20
-192.4440507372029
30
-1.0339757656912846e-24
11
-19.617978716841961
21
-192.44405238820553
31
-4.1359030627651384e-24
0
SPLINE
5
107
100
AcDbEntity
8
0
100
AcDbSpline
70
4
71
5
72
21
73
15
74
0
42
0.000000001
43
0.0000000001
44
0.0000000001
40
-0.99768982011287433
40
-0.99768982011287433
40
-0.99768982011287433
40
-0.99768982011287433
40
-0.99768982011287433
40
-0.99768982011287433
40
-0.89999999999999991
40
-0.79999999999999993
40
-0.69999999999999996
40
-0.59999999999999998
40
-0.5
40
-0.40000000000000002
40
-0.30000000000000004
40
-0.20000000000000001
40
-0.10000000000000001
40
0
40
0
40
0
40
0
40
0
40
0
41
1
41
1
41
1
41
1
41
1
41
1
41
1
41
1
41
1
41
1
41
1
41
1
41
1
41
1
41
1
10
-19.617978716841943
20
-192.44405238820553
30
0
10
-19.652565335812881
20
-191.95522517915549
30
0
10
-19.71797886250808
20
-190.91231940478053
30
0
10
-19.802528327086357
20
-189.17821010656888
30
0
10
-19.886932916474429
20
-186.52675003337805
30
0
10
-19.942360048389155
20
-182.61975794761759
30
0
10
-19.94477819165197
20
-178.06986310341921
30
0
10
-19.893975837092906
20
-172.8957378783478
30
0
10
-19.79403275667568
20
-167.14523446672192
30
0
10
-19.650203769981449
20
-160.8799873544794
30
0
10
-19.467693116909235
20
-154.16103777165509
30
0
10
-19.29401538401191
20
-148.46134221245163
30
0
10
-19.149329111234938
20
-144.01734290477458
30
0
10
-19.046563301720283
20
-140.98068586647653
30
0
10
-18.993603301650044
20
-139.44385938415388
30
0
0
LINE
5
108
100
AcDbEntity
8
0
100
AcDbLine
10
-18.993603301650047
20
-139.44385938415388
30
0
11
-22.478033388465434
21
-139.44385708973672
31
8.2718061255302767e-24
0
SPLINE
5
109
100
AcDbEntity
8
0
100
AcDbSpline
70
0
71
3
72
10
73
6
74
0
42
0.000000001
43
0.0000000001
44
0.0000000001
40
0
40
0
40
0
40
0
40
0.15005484956816559
40
0.15005484956816559
40
0.30011026476138841
40
0.30011026476138841
40
0.30011026476138841
40
0.30011026476138841
10
-22.47803338846543
20
-139.44385708973675
30
0
10
-22.487631648383474
20
-138.94376635924078
30
0
10
-22.497216373039791
20
-138.44367498009333
30
0
10
-22.516358842160976
20
-137.44349059673178
30
4.4408920985006262e-15
10
-22.525916601389913
20
-136.94339681578163
30
0
10
-22.5354608942494
20
-136.44330316676135
30
0
0
LINE
5
110
100
AcDbEntity
8
0
100
AcDbLine
10
-22.535460894249397
20
-136.44330316676135
30
-1.1315589538598776e-30
11
-21.568582709239791
21
-136.44330380342842
31
-2.0679515313825692e-24
0
LINE
5
111
100
AcDbEntity
8
0
100
AcDbLine
10
-21.568582709239791
20
-136.44330380342842
30
-2.0679515313825692e-24
11
-19.069763293183755
21
-136.44330544871653
31
4.1359030627651384e-24
0
SPLINE
5
112
100
AcDbEntity
8
0
100
AcDbSpline
70
4
71
5
72
21
73
15
74
0
42
0.000000001
43
0.0000000001
44
0.0000000001
40
-0.99753787932634053
40
-0.99753787932634053
40
-0.99753787932634053
40
-0.99753787932634053
40
-0.99753787932634053
40
-0.99753787932634053
40
-0.89999999999999991
40
-0.79999999999999993
40
-0.69999999999999996
40
-0.59999999999999998
40
-0.5
40
-0.40000000000000002
40
-0.30000000000000004
40
-0.20000000000000001
40
-0.10000000000000001
40
0
40
0
40
0
40
0
40
0
40
0
41
1
41
1
41
1
41
1
41
1
41
1
41
1
41
1
41
1
41
1
41
1
41
1
41
1
41
1
41
1
10
-19.069763293183748
20
-136.44330544871647
30
0
10
-19.074048630611376
20
-135.98581472105425
30
0
10
-19.078659690265582
20
-135.03045439288479
30
0
10
-19.073191509071659
20
-133.50347899914846
30
0
10
-19.040489906755987
20
-131.28330781024974
30
0
10
-18.954654490579443
20
-128.18637107257393
30
0
10
-18.820220908678142
20
-124.73267849418184
30
0
10
-18.636187066748001
20
-120.9274426938547
30
0
10
-18.405042595177129
20
-116.78830899619879
30
0
10
-18.131177593269079
20
-112.34639235210706
30
0
10
-17.819203031359624
20
-107.63437314206018
30
0
10
-17.542195277010421
20
-103.67036031862875
30
4.4408920985006262e-15
10
-17.320098855088844
20
-100.5957112562588
30
0
10
-17.165765079269548
20
-98.501509997860808
30
-4.4408920985006262e-15
10
-17.087030761270622
20
-97.44330016433274
30
0
0
LINE
5
113
100
AcDbEntity
8
0
100
AcDbLine
10
-17.087030761270622
20
-97.44330016433274
30
-4.2939919961808941e-30
11
-19.944291606591499
21
-97.443298283523561
31
1.2407709188295415e-23
0
LINE
5
114
100
AcDbEntity
8
0
100
AcDbLine
10
-19.944291606591499
20
-97.443298283523561
30
1.2407709188295415e-23
11
-19.963331554665395
21
-96.219256301050692
31
0
0
LINE
5
115
100
AcDbEntity
8
0
100
AcDbLine
10
-19.963331554665395
20
-96.219256301050692
30
0
11
-19.990890336325496
21
-94.442744367047368
31
-4.3368086899420177e-18
0
LINE
5
116
100
AcDbEntity
8
0
100
AcDbLine
10
-19.990890336325496
20
-94.442744367047368
30
-4.3368086899420177e-18
11
-19.639508328365505
21
-94.442744598424241
31
-5.169878828456423e-25
0
LINE
5
117
100
AcDbEntity
8
0
100
AcDbLine
10
-19.639508328365505
20
-94.442744598424241
30
-5.169878828456423e-25
11
-17.144690025923182
21
-94.442746240858284
31
-4.1359030627651384e-24
0
SPLINE
5
118
100
AcDbEntity
8
0
100
AcDbSpline
70
4
71
5
72
26
73
20
74
0
42
0.000000001
43
0.0000000001
44
0.0000000001
40
-0.99781979425693845
40
-0.99781979425693845
40
-0.99781979425693845
40
-0.99781979425693845
40
-0.99781979425693845
40
-0.99781979425693845
40
-0.93333333333333324
40
-0.86666666666666659
40
-0.79999999999999993
40
-0.73333333333333328
40
-0.66666666666666663
40
-0.59999999999999998
40
-0.53333333333333333
40
-0.46666666666666662
40
-0.39999999999999997
40
-0.33333333333333331
40
-0.26666666666666666
40
-0.20000000000000001
40
-0.13333333333333333
40
-0.066666666666666666
40
0
40
0
40
0
40
0
40
0
40
0
41
1
41
1
41
1
41
1
41
1
41
1
41
1
41
1
41
1
41
1
41
1
41
1
41
1
41
1
41
1
41
1
41
1
41
1
41
1
41
1
10
-17.144690025923172
20
-94.442746240858241
30
4.4408920985006262e-15
10
-17.107918179070921
20
-94.101280395938574
30
0
10
-17.01414615797357
20
-93.394025056033726
30
0
10
-16.814456239330138
20
-92.288053027232593
30
0
10
-16.42915423977335
20
-90.729729207415403
30
0
10
-15.745916540046128
20
-88.644529850628174
30
4.4408920985006262e-15
10
-14.855205369761098
20
-86.413439862614496
30
0
10
-13.770610277182341
20
-84.063048912394734
30
4.4408920985006262e-15
10
-12.515430514793549
20
-81.620516073369188
30
4.4408920985006262e-15
10
-11.132040434426516
20
-79.131548348002966
30
0
10
-9.6739186822606591
20
-76.652742790038317
30
0
10
-8.1996743150600864
20
-74.245616957052405
30
-4.4408920985006262e-15
10
-6.766673178872499
20
-71.970039121287883
30
0
10
-5.4252911424815329
20
-69.878110786978397
30
0
10
-4.2118931843597851
20
-68.006376446216578
30
0
10
-3.1440131796093991
20
-66.370453010782157
30
0
10
-2.4109748556482611
20
-65.25320527742268
30
0
10
-1.9292364822407877
20
-64.521842876365625
30
0
10
-1.6381029356128407
20
-64.081295845298897
30
0
10
-1.5000423005169461
20
-63.872779082187563
30
0
0
LINE
5
119
100
AcDbEntity
8
0
100
AcDbLine
10
-1.5000423005169463
20
-63.872779082187563
30
0
11
-1.5000378922165596
21
-57.178087772410642
31
0
0
ENDSEC
0
SECTION
2
OBJECTS
0
DICTIONARY
5
C
100
AcDbDictionary
3
ACAD_GROUP
350
D
3
ACAD_MLINESTYLE
350
17
0
DICTIONARY
5
D
100
AcDbDictionary
0
DICTIONARY
5
1A
330
C
100
AcDbDictionary
0
DICTIONARY
5
17
100
AcDbDictionary
0
ENDSEC
0
EOF
