0
SECTION
2
HEADER
9
$INSUNITS
70
4
9
$ACADVER
1
AC1014
9
$HANDSEED
5
FFFF
0
ENDSEC
0
SECTION
2
TABLES
0
TABLE
2
VPORT
5
8
100
AcDbSymbolTable
0
ENDTAB
0
TABLE
2
LTYPE
5
5
100
AcDbSymbolTable
0
LTYPE
5
14
100
AcDbSymbolTableRecord
100
AcDbLinetypeTableRecord
2
BYBLOCK
70
0
0
LTYPE
5
15
100
AcDbSymbolTableRecord
100
AcDbLinetypeTableRecord
2
BYLAYER
70
0
0
ENDTAB
0
TABLE
2
LAYER
5
2
100
AcDbSymbolTable
70
2
0
LAYER
5
50
100
AcDbSymbolTableRecord
100
AcDbLayerTableRecord
2
0
70
0
6
CONTINUOUS
0
ENDTAB
0
TABLE
2
STYLE
5
3
100
AcDbSymbolTable
70
1
0
STYLE
5
11
100
AcDbSymbolTableRecord
100
AcDbTextStyleTableRecord
2
STANDARD
70
0
0
ENDTAB
0
TABLE
2
VIEW
5
6
100
AcDbSymbolTable
70
0
0
ENDTAB
0
TABLE
2
UCS
5
7
100
AcDbSymbolTable
70
0
0
ENDTAB
0
TABLE
2
APPID
5
9
100
AcDbSymbolTable
70
2
0
APPID
5
12
100
AcDbSymbolTableRecord
100
AcDbRegAppTableRecord
2
ACAD
70
0
0
ENDTAB
0
TABLE
2
DIMSTYLE
5
A
100
AcDbSymbolTable
70
1
0
ENDTAB
0
TABLE
2
BLOCK_RECORD
5
1
100
AcDbSymbolTable
70
1
0
BLOCK_RECORD
5
1F
100
AcDbSymbolTableRecord
100
AcDbBlockTableRecord
2
*MODEL_SPACE
0
BLOCK_RECORD
5
1B
100
AcDbSymbolTableRecord
100
AcDbBlockTableRecord
2
*PAPER_SPACE
0
ENDTAB
0
ENDSEC
0
SECTION
2
BLOCKS
0
BLOCK
5
20
100
AcDbEntity
100
AcDbBlockBegin
2
*MODEL_SPACE
0
ENDBLK
5
21
100
AcDbEntity
100
AcDbBlockEnd
0
BLOCK
5
1C
100
AcDbEntity
100
AcDbBlockBegin
2
*PAPER_SPACE
0
ENDBLK
5
1D
100
AcDbEntity
100
AcDbBlockEnd
0
ENDSEC
0
SECTION
2
ENTITIES
0
SPLINE
5
100
100
AcDbEntity
8
0
100
AcDbSpline
70
4
71
5
72
13
73
7
74
0
42
0.000000001
43
0.0000000001
44
0.0000000001
40
-0.50710444964441181
40
-0.50710444964441181
40
-0.50710444964441181
40
-0.50710444964441181
40
-0.50710444964441181
40
-0.50710444964441181
40
-0.49999999999999994
40
-0.46786537376039639
40
-0.46786537376039639
40
-0.46786537376039639
40
-0.46786537376039639
40
-0.46786537376039639
40
-0.46786537376039639
41
1
41
1
41
1
41
1
41
1
41
1
41
1
10
-24.047979718920722
20
-195.38696836006716
30
0
10
-24.070209814721963
20
-195.28535657901813
30
4.4408920985006262e-15
10
-24.190980388006857
20
-194.72054811978234
30
0
10
-24.300741375221328
20
-194.13596563708026
30
0
10
-24.400017002563903
20
-193.531928960051
30
0
10
-24.489412081024806
20
-192.90895376460017
30
0
10
-24.556348995621565
20
-192.38641447464772
30
4.4408920985006262e-15
0
SPLINE
5
101
100
AcDbEntity
8
0
100
AcDbSpline
70
4
71
5
72
21
73
15
74
0
42
0.000000001
43
0.0000000001
44
0.0000000001
40
-0.46786537376039622
40
-0.46786537376039622
40
-0.46786537376039622
40
-0.46786537376039622
40
-0.46786537376039622
40
-0.46786537376039622
40
-0.44999999999999996
40
-0.39999999999999997
40
-0.34999999999999998
40
-0.29999999999999999
40
-0.25
40
-0.20000000000000001
40
-0.15000000000000002
40
-0.10000000000000001
40
-0.050000000000000003
40
0
40
0
40
0
40
0
40
0
40
0
41
1
41
1
41
1
41
1
41
1
41
1
41
1
41
1
41
1
41
1
41
1
41
1
41
1
41
1
41
1
10
-24.556348995621565
20
-192.38641447464772
30
4.4408920985006262e-15
10
-24.593562840547669
20
-192.09590667007933
30
0
10
-24.727562525054068
20
-190.97784292939303
30
-4.4408920985006262e-15
10
-24.91322142621474
20
-188.94180461895724
30
0
10
-25.07603114980434
20
-185.82426233247861
30
0
10
-25.150796448598918
20
-181.43735479148117
30
4.4408920985006262e-15
10
-25.131718487823839
20
-176.04593072602199
30
4.4408920985006262e-15
10
-25.067124548285435
20
-170.3786952437718
30
4.4408920985006262e-15
10
-24.998471586945691
20
-164.49551702970962
30
0
10
-24.952471157397035
20
-158.43747591905054
30
0
10
-24.944523713448081
20
-152.23053889473175
30
0
10
-24.974348055479432
20
-147.15720654081582
30
4.4408920985006262e-15
10
-25.017964449113176
20
-143.29418609017173
30
0
10
-25.056446939992057
20
-140.69315650055614
30
4.4408920985006262e-15
10
-25.078039427210609
20
-139.38622105962625
30
0
0
SPLINE
5
102
100
AcDbEntity
8
0
100
AcDbSpline
70
0
71
3
72
10
73
6
74
0
42
0.000000001
43
0.0000000001
44
0.0000000001
40
0
40
0
40
0
40
0
40
0.1502273623547582
40
0.1502273623547582
40
0.30082757842108693
40
0.30082757842108693
40
0.30082757842108693
40
0.30082757842108693
10
-25.078039427210609
20
-139.38622105962625
30
0
10
-25.085226244402072
20
-138.88551475993725
30
4.4408920985006262e-15
10
-25.092403120166949
20
-138.38480261468538
30
0
10
-25.106701681486449
20
-137.38585433677014
30
0
10
-25.113849906150968
20
-136.88576065888537
30
0
10
-25.120988232027219
20
-136.38566717509821
30
4.4408920985006262e-15
0
SPLINE
5
103
100
AcDbEntity
8
0
100
AcDbSpline
70
4
71
5
72
21
73
15
74
0
42
0.000000001
43
0.0000000001
44
0.0000000001
40
-1
40
-1
40
-1
40
-1
40
-1
40
-1
40
-0.89999999999999991
40
-0.79999999999999993
40
-0.69999999999999996
40
-0.59999999999999998
40
-0.5
40
-0.40000000000000002
40
-0.30000000000000004
40
-0.20000000000000001
40
-0.10000000000000001
40
0
40
0
40
0
40
0
40
0
40
0
41
1
41
1
41
1
41
1
41
1
41
1
41
1
41
1
41
1
41
1
41
1
41
1
41
1
41
1
41
1
10
-25.120988232027219
20
-136.38566717509821
30
4.4408920985006262e-15
10
-25.07827222503629
20
-135.80514228315718
30
0
10
-24.991172168488628
20
-134.62567049036568
30
0
10
-24.855517751821786
20
-132.80119451982347
30
0
10
-24.664473636587843
20
-130.25622429209832
30
0
10
-24.407656443275322
20
-126.87608484994556
30
0
10
-24.131545423605164
20
-123.28286269128836
30
0
10
-23.835115306125516
20
-119.46523462792709
30
0
10
-23.518726327415855
20
-115.42717914430307
30
0
10
-23.18393617687676
20
-111.18589949920602
30
0
10
-22.83251666444999
20
-106.76096371752628
30
-4.4408920985006262e-15
10
-22.539335739025429
20
-103.08798556756616
30
0
10
-22.313134466388675
20
-100.26350214936093
30
0
10
-22.159572856064933
20
-98.350023106413488
30
-4.4408920985006262e-15
10
-22.082101817394673
20
-97.385660585304109
30
0
0
SPLINE
5
104
100
AcDbEntity
8
0
100
AcDbSpline
70
0
71
3
72
10
73
6
74
0
42
0.000000001
43
0.0000000001
44
0.0000000001
40
0
40
0
40
0
40
0
40
0.14993313899400001
40
0.14993313899400001
40
0.29965625576416133
40
0.29965625576416133
40
0.29965625576416133
40
0.29965625576416133
10
-22.082101817394669
20
-97.385660585304109
30
0
10
-22.088130891067955
20
-96.885919822586416
30
0
10
-22.094153189222723
20
-96.386179994996382
30
0
10
-22.106201149213053
20
-95.385293084352355
30
4.4408920985006262e-15
10
-22.112214147968121
20
-94.885199568187332
30
0
10
-22.118220393792747
20
-94.385106699852173
30
0
0
SPLINE
5
105
100
AcDbEntity
8
0
100
AcDbSpline
70
4
71
5
72
21
73
15
74
0
42
0.000000001
43
0.0000000001
44
0.0000000001
40
-1
40
-1
40
-1
40
-1
40
-1
40
-1
40
-0.89999999999999991
40
-0.79999999999999993
40
-0.69999999999999996
40
-0.59999999999999998
40
-0.5
40
-0.40000000000000002
40
-0.30000000000000004
40
-0.20000000000000001
40
-0.10000000000000001
40
0
40
0
40
0
40
0
40
0
40
0
41
1
41
1
41
1
41
1
41
1
41
1
41
1
41
1
41
1
41
1
41
1
41
1
41
1
41
1
41
1
10
-22.118220384123823
20
-94.385106700149279
30
-4.4408920985006262e-15
10
-22.004884952684623
20
-94.028478595195409
30
0
10
-21.748745122557537
20
-93.283360326907285
30
0
10
-21.276139262162687
20
-92.070108411820712
30
0
10
-20.466202978819563
20
-90.258043403206017
30
0
10
-19.138370779180828
20
-87.651936596836123
30
0
10
-17.479168226138878
20
-84.687549791812302
30
0
10
-15.48837834341416
20
-81.364648391841143
30
4.4408920985006262e-15
10
-13.191069401918586
20
-77.710336390955135
30
0
10
-10.619826754118941
20
-73.759845305598716
30
0
10
-7.8070096787485346
20
-69.548162219684187
30
4.4408920985006262e-15
10
-5.3839075657240434
20
-65.991930766472478
30
4.4408920985006262e-15
10
-3.4764394967535845
20
-63.227295558564776
30
0
10
-2.1653819537157375
20
-61.341592706411099
30
0
10
-1.5000000000010991
20
-60.388087949210522
30
4.4408920985006262e-15
0
LINE
5
106
100
AcDbEntity
8
0
100
AcDbLine
10
-1.5000000000010985
20
-60.388087949210515
30
4.4408920985006277e-15
11
-1.5000000000009375
21
-51.992776984254796
31
4.4408920985006262e-15
0
SPLINE
5
107
100
AcDbEntity
8
0
100
AcDbSpline
70
4
71
5
72
41
73
35
74
0
42
0.000000001
43
0.0000000001
44
0.0000000001
40
0
40
0
40
0
40
0
40
0
40
0
40
0.033333333333333333
40
0.066666666666666666
40
0.10000000000000001
40
0.13333333333333333
40
0.16666666666666666
40
0.19999999999999998
40
0.23333333333333331
40
0.26666666666666666
40
0.29999999999999999
40
0.33333333333333331
40
0.36666666666666664
40
0.39999999999999997
40
0.43333333333333329
40
0.46666666666666662
40
0.49999999999999994
40
0.53333333333333333
40
0.56666666666666665
40
0.59999999999999998
40
0.6333333333333333
40
0.66666666666666663
40
0.69999999999999996
40
0.73333333333333328
40
0.76666666666666661
40
0.79999999999999993
40
0.83333333333333326
40
0.86666666666666659
40
0.89999999999999991
40
0.93333333333333324
40
0.96666666666666656
40
1
40
1
40
1
40
1
40
1
40
1
41
1
41
1
41
1
41
1
41
1
41
1
41
1
41
1
41
1
41
1
41
1
41
1
41
1
41
1
41
1
41
1
41
1
41
1
41
1
41
1
41
1
41
1
41
1
41
1
41
1
41
1
41
1
41
1
41
1
41
1
41
1
41
1
41
1
41
1
41
1
10
-1.5000000000009475
20
-51.992776984254803
30
-4.4408920985006262e-15
10
-2.4976482387529364
20
-53.363502922549813
30
0
10
-4.4425606627419425
20
-56.040541536685637
30
-4.4408920985006262e-15
10
-7.2087772297386543
20
-59.862863893440704
30
0
10
-10.594213656278699
20
-64.572085874156429
30
4.4408920985006262e-15
10
-14.319770060631958
20
-69.826672521699336
30
0
10
-17.540180646590795
20
-74.496048164188949
30
0
10
-20.261919354038753
20
-78.6805633173948
30
0
10
-22.499713796018671
20
-82.550531127762554
30
0
10
-24.279639910162921
20
-86.374012794966276
30
0
10
-25.641205230872323
20
-90.466860342424212
30
0
10
-26.638841551157647
20
-95.128895536268828
30
0
10
-27.344704863822969
20
-100.57977088469464
30
0
10
-27.848479343611601
20
-106.90908341081551
30
0
10
-28.242591018066573
20
-114.10583028704222
30
0
10
-28.609806990301948
20
-122.07585500597617
30
0
10
-29.00921582291793
20
-130.66324084673499
30
0
10
-29.464300404178914
20
-139.66908394423075
30
4.4408920985006262e-15
10
-29.946118590849849
20
-148.87144576620722
30
0
10
-30.371059015264418
20
-158.04247481039971
30
0
10
-30.624150167271168
20
-166.96139461765742
30
-4.4408920985006262e-15
10
-30.57662537350636
20
-175.42863745615892
30
4.4408920985006262e-15
10
-30.105223883586838
20
-183.27922401895489
30
-4.4408920985006262e-15
10
-29.111856855179077
20
-190.39785710769277
30
0
10
-27.540889538661265
20
-196.73124858155467
30
0
10
-25.404090673284468
20
-202.30859415757936
30
4.4408920985006262e-15
10
-22.770555024597691
20
-207.22640544125315
30
0
10
-19.738950087895041
20
-211.61539803597924
30
0
10
-16.416179005928637
20
-215.61407214596468
30
0
10
-12.892443209695399
20
-219.33834451886707
30
-4.4408920985006262e-15
10
-9.2211484309420957
20
-222.85695297211151
30
0
10
-6.188013765537324
20
-225.53560237536743
30
0
10
-3.8633412289663149
20
-227.47344130371283
30
0
10
-2.2914633655102934
20
-228.73377812512319
30
0
10
-1.5000000000041496
20
-229.35605709520505
30
0
0
LINE
5
108
100
AcDbEntity
8
0
100
AcDbLine
10
-1.5000000000041493
20
-229.35605709520507
30
3.0839592506803225e-31
11
-1.5000000000039584
21
-219.32344368084389
31
0
0
SPLINE
5
109
100
AcDbEntity
8
0
100
AcDbSpline
70
4
71
5
72
21
73
15
74
0
42
0.000000001
43
0.0000000001
44
0.0000000001
40
-1
40
-1
40
-1
40
-1
40
-1
40
-1
40
-0.95000000000000029
40
-0.90000000000000024
40
-0.8500000000000002
40
-0.80000000000000016
40
-0.75000000000000011
40
-0.70000000000000007
40
-0.65000000000000002
40
-0.59999999999999998
40
-0.54999999999999993
40
-0.50710444964441181
40
-0.50710444964441181
40
-0.50710444964441181
40
-0.50710444964441181
40
-0.50710444964441181
40
-0.50710444964441181
41
1
41
1
41
1
41
1
41
1
41
1
41
1
41
1
41
1
41
1
41
1
41
1
41
1
41
1
41
1
10
-1.5000000000039688
20
-219.32344368084392
30
-4.4408920985006262e-15
10
-2.1197166754887089
20
-218.59559259662649
30
0
10
-3.3504705324066721
20
-217.18624873296596
30
0
10
-5.1705663186927495
20
-215.21131727029098
30
0
10
-7.5450482651264377
20
-212.8572979336646
30
0
10
-10.418981655001884
20
-210.36984527606123
30
0
10
-13.179363758894503
20
-208.29311013459503
30
0
10
-15.789919465508067
20
-206.53133186606402
30
0
10
-18.18918182818831
20
-204.90863621523172
30
-4.4408920985006262e-15
10
-20.293720660943126
20
-203.17209407597056
30
-4.4408920985006262e-15
10
-21.977534325567198
20
-201.1246204301757
30
0
10
-23.002532118069418
20
-199.06909701510472
30
0
10
-23.594352901841308
20
-197.27782033755815
30
0
10
-23.913757894348898
20
-196.00048432384585
30
4.4408920985006262e-15
10
-24.047979718920722
20
-195.38696836006716
30
0
0
ENDSEC
0
SECTION
2
OBJECTS
0
DICTIONARY
5
C
100
AcDbDictionary
3
ACAD_GROUP
350
D
3
ACAD_MLINESTYLE
350
17
0
DICTIONARY
5
D
100
AcDbDictionary
0
DICTIONARY
5
1A
330
C
100
AcDbDictionary
0
DICTIONARY
5
17
100
AcDbDictionary
0
ENDSEC
0
EOF
