0
SECTION
2
HEADER
9
$INSUNITS
70
4
9
$ACADVER
1
AC1014
9
$HANDSEED
5
FFFF
0
ENDSEC
0
SECTION
2
TABLES
0
TABLE
2
VPORT
5
8
100
AcDbSymbolTable
0
ENDTAB
0
TABLE
2
LTYPE
5
5
100
AcDbSymbolTable
0
LTYPE
5
14
100
AcDbSymbolTableRecord
100
AcDbLinetypeTableRecord
2
BYBLOCK
70
0
0
LTYPE
5
15
100
AcDbSymbolTableRecord
100
AcDbLinetypeTableRecord
2
BYLAYER
70
0
0
ENDTAB
0
TABLE
2
LAYER
5
2
100
AcDbSymbolTable
70
2
0
LAYER
5
50
100
AcDbSymbolTableRecord
100
AcDbLayerTableRecord
2
0
70
0
6
CONTINUOUS
0
ENDTAB
0
TABLE
2
STYLE
5
3
100
AcDbSymbolTable
70
1
0
STYLE
5
11
100
AcDbSymbolTableRecord
100
AcDbTextStyleTableRecord
2
STANDARD
70
0
0
ENDTAB
0
TABLE
2
VIEW
5
6
100
AcDbSymbolTable
70
0
0
ENDTAB
0
TABLE
2
UCS
5
7
100
AcDbSymbolTable
70
0
0
ENDTAB
0
TABLE
2
APPID
5
9
100
AcDbSymbolTable
70
2
0
APPID
5
12
100
AcDbSymbolTableRecord
100
AcDbRegAppTableRecord
2
ACAD
70
0
0
ENDTAB
0
TABLE
2
DIMSTYLE
5
A
100
AcDbSymbolTable
70
1
0
ENDTAB
0
TABLE
2
BLOCK_RECORD
5
1
100
AcDbSymbolTable
70
1
0
BLOCK_RECORD
5
1F
100
AcDbSymbolTableRecord
100
AcDbBlockTableRecord
2
*MODEL_SPACE
0
BLOCK_RECORD
5
1B
100
AcDbSymbolTableRecord
100
AcDbBlockTableRecord
2
*PAPER_SPACE
0
ENDTAB
0
ENDSEC
0
SECTION
2
BLOCKS
0
BLOCK
5
20
100
AcDbEntity
100
AcDbBlockBegin
2
*MODEL_SPACE
0
ENDBLK
5
21
100
AcDbEntity
100
AcDbBlockEnd
0
BLOCK
5
1C
100
AcDbEntity
100
AcDbBlockBegin
2
*PAPER_SPACE
0
ENDBLK
5
1D
100
AcDbEntity
100
AcDbBlockEnd
0
ENDSEC
0
SECTION
2
ENTITIES
0
SPLINE
5
100
100
AcDbEntity
8
0
100
AcDbSpline
70
0
71
3
72
38
73
34
74
0
42
0.000000001
43
0.0000000001
44
0.0000000001
40
-0.99934019925366846
40
-0.99934019925366846
40
-0.99934019925366846
40
-0.99934019925366846
40
-0.91536848031584039
40
-0.91536848031584039
40
-0.91536848031584039
40
-0.74940282676455783
40
-0.74940282676455783
40
-0.74940282676455783
40
-0.62883240061143697
40
-0.62883240061143697
40
-0.62883240061143697
40
-0.52875941291989315
40
-0.52875941291989315
40
-0.52875941291989315
40
-0.43482167614095718
40
-0.43482167614095718
40
-0.43482167614095718
40
-0.34524704328286482
40
-0.34524704328286482
40
-0.34524704328286482
40
-0.27603237501645617
40
-0.27603237501645617
40
-0.27603237501645617
40
-0.19933079451384
40
-0.19933079451384
40
-0.19933079451384
40
-0.11058115991326026
40
-0.11058115991326026
40
-0.11058115991326026
40
-0.051069535731151722
40
-0.051069535731151722
40
-0.051069535731151722
40
-0.042606505737431709
40
-0.042606505737431709
40
-0.042606505737431709
40
-0.042606505737431709
10
-24.855023263860559
20
74.980434816631401
30
0
10
-24.779371682732666
20
72.901970961395349
30
0
10
-24.661761830426848
20
70.902208603702249
30
0
10
-24.500560576416625
20
68.978295610627242
30
0
10
-24.181954838514542
20
65.175783511191668
30
0
10
-23.701912663519419
20
61.721745020083034
30
0
10
-22.931696490075609
20
58.079809476969125
30
0
10
-22.372151245170752
20
55.43402276713185
30
0
10
-21.648441313030183
20
52.641026476611152
30
0
10
-20.863827266291114
20
49.92752080244432
30
0
10
-20.212600640101584
20
47.675321580829447
30
0
10
-19.541973091579536
20
45.533811530845753
30
0
10
-18.789967876989259
20
43.439790315531795
30
0
10
-18.084066419122244
20
41.474148854521516
30
0
10
-17.27796522068736
20
39.480803348491619
30
0
10
-16.275102782059378
20
37.387710609892707
30
0
10
-15.318820058762853
20
35.391835256421579
30
0
10
-14.182604420143775
20
33.326000229964507
30
0
10
-13.031522011090349
20
31.672510445140208
30
0
10
-12.142076142904088
20
30.394852437657015
30
0
10
-11.267673592741732
20
29.40401757013975
30
0
10
-10.454028481453832
20
28.717165971826375
30
0
10
-9.5523718302393839
20
27.956018017485146
30
0
10
-8.6737403858481095
20
27.488912876635361
30
0
10
-7.5826069194088177
20
27.043603092031326
30
0
10
-6.3200814823528226
20
26.52834538275475
30
0
10
-4.8213612205872414
20
26.058850019029261
30
0
10
-3.6851458625425715
20
25.824110452457823
30
0
10
-2.9232495270566723
20
25.6667043636402
30
0
10
-2.3623681129961391
20
25.621332432852078
30
0
10
-1.7631422788393598
20
25.623119837072164
30
0
10
-1.677927561930233
20
25.623374020279787
30
0
10
-1.590119692554925
20
25.624575963775115
30
0
10
-1.5000000000000004
20
25.626403514842728
30
0
0
LINE
5
101
100
AcDbEntity
8
0
100
AcDbLine
10
-1.5000000000000004
20
25.626403514842728
30
0
11
-1.5000000000000002
21
27.125560730618311
31
0
0
LINE
5
102
100
AcDbEntity
8
0
100
AcDbLine
10
-1.5000000000000002
20
27.125560730618311
30
0
11
1.5000000000000002
21
27.125560730618311
31
0
0
LINE
5
103
100
AcDbEntity
8
0
100
AcDbLine
10
1.5000000000000002
20
27.125560730618311
30
0
11
1.5000000000000002
21
25.626403514941209
31
0
0
SPLINE
5
104
100
AcDbEntity
8
0
100
AcDbSpline
70
0
71
3
72
38
73
34
74
0
42
0.000000001
43
0.0000000001
44
0.0000000001
40
0.042606505715773374
40
0.042606505715773374
40
0.042606505715773374
40
0.042606505715773374
40
0.051069535731151722
40
0.051069535731151722
40
0.051069535731151722
40
0.11058115991326026
40
0.11058115991326026
40
0.11058115991326026
40
0.19933079451384
40
0.19933079451384
40
0.19933079451384
40
0.27603237501645617
40
0.27603237501645617
40
0.27603237501645617
40
0.34524704328286482
40
0.34524704328286482
40
0.34524704328286482
40
0.43482167614095718
40
0.43482167614095718
40
0.43482167614095718
40
0.52875941291989315
40
0.52875941291989315
40
0.52875941291989315
40
0.62883240061143697
40
0.62883240061143697
40
0.62883240061143697
40
0.74940282676455783
40
0.74940282676455783
40
0.74940282676455783
40
0.91536848031584039
40
0.91536848031584039
40
0.91536848031584039
40
0.99934019925366846
40
0.99934019925366846
40
0.99934019925366846
40
0.99934019925366846
10
1.5000000000000002
20
25.626403514941209
30
0
10
1.5901196921054941
20
25.624575963781272
30
0
10
1.6779275617121541
20
25.623374020280437
30
0
10
1.7631422788393598
20
25.623119837072164
30
0
10
2.3623681129961391
20
25.621332432852078
30
0
10
2.9232495270566723
20
25.6667043636402
30
0
10
3.6851458625425715
20
25.824110452457823
30
0
10
4.8213612205872414
20
26.058850019029261
30
0
10
6.3200814823528226
20
26.52834538275475
30
0
10
7.5826069194088177
20
27.043603092031326
30
0
10
8.6737403858481095
20
27.488912876635361
30
0
10
9.5523718302393839
20
27.956018017485146
30
0
10
10.454028481453832
20
28.717165971826375
30
0
10
11.267673592741732
20
29.40401757013975
30
0
10
12.142076142904088
20
30.394852437657015
30
0
10
13.031522011090349
20
31.672510445140208
30
0
10
14.182604420143775
20
33.326000229964507
30
0
10
15.318820058762853
20
35.391835256421579
30
0
10
16.275102782059378
20
37.387710609892707
30
0
10
17.27796522068736
20
39.480803348491619
30
0
10
18.084066419122244
20
41.474148854521516
30
0
10
18.789967876989259
20
43.439790315531795
30
0
10
19.541973091579536
20
45.533811530845753
30
0
10
20.212600640101584
20
47.675321580829447
30
0
10
20.863827266291114
20
49.92752080244432
30
0
10
21.648441313030183
20
52.641026476611152
30
0
10
22.372151245170752
20
55.43402276713185
30
0
10
22.931696490075609
20
58.079809476969125
30
0
10
23.701912663519419
20
61.721745020083034
30
0
10
24.181954838514542
20
65.175783511191668
30
0
10
24.500560576416625
20
68.978295610627242
30
0
10
24.661761830426848
20
70.902208603702249
30
0
10
24.779371682732666
20
72.901970961395349
30
0
10
24.855023263860559
20
74.980434816631401
30
0
0
LINE
5
105
100
AcDbEntity
8
0
100
AcDbLine
10
24.855023263860559
20
74.980434816631401
30
0
11
24.855023230414453
21
75.538797968457757
31
0
0
LINE
5
106
100
AcDbEntity
8
0
100
AcDbLine
10
24.855023230414453
20
75.538797968457757
30
0
11
19.855023200318005
21
75.538797968658656
31
0
0
LINE
5
107
100
AcDbEntity
8
0
100
AcDbLine
10
19.855023200318005
20
75.538797968658656
30
0
11
19.855023263862492
21
75.072206067820574
31
0
0
SPLINE
5
108
100
AcDbEntity
8
0
100
AcDbSpline
70
0
71
3
72
41
73
37
74
0
42
0.000000001
43
0.0000000001
44
0.0000000001
40
-0.99808233867309837
40
-0.99808233867309837
40
-0.99808233867309837
40
-0.99808233867309837
40
-0.89296618826907337
40
-0.89296618826907337
40
-0.89296618826907337
40
-0.72141956441575639
40
-0.72141956441575639
40
-0.72141956441575639
40
-0.60238249888976725
40
-0.60238249888976725
40
-0.60238249888976725
40
-0.50327729080882511
40
-0.50327729080882511
40
-0.50327729080882511
40
-0.4222281637980872
40
-0.4222281637980872
40
-0.4222281637980872
40
-0.33618320420058173
40
-0.33618320420058173
40
-0.33618320420058173
40
-0.27850795127144745
40
-0.27850795127144745
40
-0.27850795127144745
40
-0.21482406511542421
40
-0.21482406511542421
40
-0.21482406511542421
40
-0.15903548323721595
40
-0.15903548323721595
40
-0.15903548323721595
40
-0.099921638565776835
40
-0.099921638565776835
40
-0.099921638565776835
40
-0.039916414470161955
40
-0.039916414470161955
40
-0.039916414470161955
40
-0.00011904664255285715
40
-0.00011904664255285715
40
-0.00011904664255285715
40
-0.00011904664255285715
10
19.855023263862488
20
75.072206067820574
30
0
10
19.762098883367653
20
72.564129262114847
30
0
10
19.606530971874211
20
70.188514779459666
30
0
10
19.385934628004144
20
67.942647974498072
30
0
10
19.025927551262434
20
64.277456026975571
30
0
10
18.496976621821346
20
60.99519950822809
30
0
10
17.648654273498039
20
57.356048291637109
30
0
10
17.059999127181268
20
54.830822949990441
30
0
10
16.322038862840561
20
52.136387244946377
30
0
10
15.555473978277
20
49.611361176642674
30
0
10
14.917264593187369
20
47.509131650038576
30
0
10
14.276079712462607
20
45.57181063980444
30
0
10
13.52931618089695
20
43.639999953980663
30
0
10
12.918606274840148
20
42.060147868829333
30
0
10
12.212644549275698
20
40.425894087124014
30
0
10
11.389773729188493
20
38.77936180633457
30
0
10
10.516181513210778
20
37.031337999023897
30
0
10
9.5077419973809132
20
35.308353922919586
30
0
10
8.6522033850349729
20
34.143292448508866
30
0
10
8.0787426490603433
20
33.362360996754468
30
0
10
7.60512375301031
20
32.862839949476722
30
0
10
7.2711820258124895
20
32.574099003421857
30
0
10
6.9024501025430371
20
32.255276898562883
30
0
10
6.6652531343971102
20
32.108468990562415
30
0
10
6.1300623550796747
20
31.861727988581457
30
0
10
5.6612226467229494
20
31.645577068425595
30
0
10
4.946411497262357
20
31.377233729294606
30
0
10
4.2404241388433173
20
31.150182762185651
30
0
10
3.4923566017137446
20
30.909598485792319
30
0
10
2.816863417051418
20
30.740918685358665
30
0
10
2.4486815956064891
20
30.678051371913561
30
0
10
2.0749479495117562
20
30.614236080376863
30
0
10
2.0452907774679385
20
30.614481957519857
30
0
10
1.5384209378057914
20
30.626757911744168
30
0
10
1.2022487835678095
20
30.634899713946613
30
0
10
0.62544303524214351
20
30.660539740327938
30
0
10
0.0027950556992230062
20
30.660468897793418
30
0
0
SPLINE
5
109
100
AcDbEntity
8
0
100
AcDbSpline
70
0
71
3
72
41
73
37
74
0
42
0.000000001
43
0.0000000001
44
0.0000000001
40
0
40
0
40
0
40
0
40
0.039916414470161955
40
0.039916414470161955
40
0.039916414470161955
40
0.099921638565776835
40
0.099921638565776835
40
0.099921638565776835
40
0.15903548323721595
40
0.15903548323721595
40
0.15903548323721595
40
0.21482406511542421
40
0.21482406511542421
40
0.21482406511542421
40
0.27850795127144745
40
0.27850795127144745
40
0.27850795127144745
40
0.33618320420058173
40
0.33618320420058173
40
0.33618320420058173
40
0.4222281637980872
40
0.4222281637980872
40
0.4222281637980872
40
0.50327729080882511
40
0.50327729080882511
40
0.50327729080882511
40
0.60238249888976725
40
0.60238249888976725
40
0.60238249888976725
40
0.72141956441575639
40
0.72141956441575639
40
0.72141956441575639
40
0.89296618826907337
40
0.89296618826907337
40
0.89296618826907337
40
0.99808233867309837
40
0.99808233867309837
40
0.99808233867309837
40
0.99808233867309837
10
0.002795055896671127
20
30.660467495513132
30
0
10
-0.62199006148570168
20
30.660693291923856
30
0
10
-1.2012431852464545
20
30.63492406867833
30
0
10
-1.5384209378057914
20
30.626757911744168
30
0
10
-2.0452907774679385
20
30.614481957519857
30
0
10
-2.0749479495117562
20
30.614236080376863
30
0
10
-2.4486815956064891
20
30.678051371913561
30
0
10
-2.816863417051418
20
30.740918685358665
30
0
10
-3.4923566017137446
20
30.909598485792319
30
0
10
-4.2404241388433173
20
31.150182762185651
30
0
10
-4.946411497262357
20
31.377233729294606
30
0
10
-5.6612226467229494
20
31.645577068425595
30
0
10
-6.1300623550796747
20
31.861727988581457
30
0
10
-6.6652531343971102
20
32.108468990562415
30
0
10
-6.9024501025430371
20
32.255276898562883
30
0
10
-7.2711820258124895
20
32.574099003421857
30
0
10
-7.60512375301031
20
32.862839949476722
30
0
10
-8.0787426490603433
20
33.362360996754468
30
0
10
-8.6522033850349729
20
34.143292448508866
30
0
10
-9.5077419973809132
20
35.308353922919586
30
0
10
-10.516181513210778
20
37.031337999023897
30
0
10
-11.389773729188493
20
38.77936180633457
30
0
10
-12.212644549275698
20
40.425894087124014
30
0
10
-12.918606274840148
20
42.060147868829333
30
0
10
-13.52931618089695
20
43.639999953980663
30
0
10
-14.276079712462607
20
45.57181063980444
30
0
10
-14.917264593187369
20
47.509131650038576
30
0
10
-15.555473978277
20
49.611361176642674
30
0
10
-16.322038862840561
20
52.136387244946377
30
0
10
-17.059999127181268
20
54.830822949990441
30
0
10
-17.648654273498039
20
57.356048291637109
30
0
10
-18.496976621821346
20
60.99519950822809
30
0
10
-19.025927551262434
20
64.277456026975571
30
0
10
-19.385934628004144
20
67.942647974498072
30
0
10
-19.606530971874211
20
70.188514779459666
30
0
10
-19.762098883367653
20
72.564129262114847
30
0
10
-19.855023263862488
20
75.072206067820574
30
0
0
LINE
5
110
100
AcDbEntity
8
0
100
AcDbLine
10
-19.855023373674015
20
75.072206840527883
30
0
11
-19.855023374341339
21
75.538797968658656
31
0
0
LINE
5
111
100
AcDbEntity
8
0
100
AcDbLine
10
-19.855023374341339
20
75.538797968658656
30
0
11
-24.8550233223623
21
75.538797968457757
31
0
0
LINE
5
112
100
AcDbEntity
8
0
100
AcDbLine
10
-24.8550233223623
20
75.538797968457757
30
0
11
-24.855023321937718
21
74.980435143347762
31
0
0
ENDSEC
0
SECTION
2
OBJECTS
0
DICTIONARY
5
C
100
AcDbDictionary
3
ACAD_GROUP
350
D
3
ACAD_MLINESTYLE
350
17
0
DICTIONARY
5
D
100
AcDbDictionary
0
DICTIONARY
5
1A
330
C
100
AcDbDictionary
0
DICTIONARY
5
17
100
AcDbDictionary
0
ENDSEC
0
EOF
