0
SECTION
2
HEADER
9
$INSUNITS
70
4
9
$ACADVER
1
AC1014
9
$HANDSEED
5
FFFF
0
ENDSEC
0
SECTION
2
TABLES
0
TABLE
2
VPORT
5
8
100
AcDbSymbolTable
0
ENDTAB
0
TABLE
2
LTYPE
5
5
100
AcDbSymbolTable
0
LTYPE
5
14
100
AcDbSymbolTableRecord
100
AcDbLinetypeTableRecord
2
BYBLOCK
70
0
0
LTYPE
5
15
100
AcDbSymbolTableRecord
100
AcDbLinetypeTableRecord
2
BYLAYER
70
0
0
ENDTAB
0
TABLE
2
LAYER
5
2
100
AcDbSymbolTable
70
2
0
LAYER
5
50
100
AcDbSymbolTableRecord
100
AcDbLayerTableRecord
2
0
70
0
6
CONTINUOUS
0
ENDTAB
0
TABLE
2
STYLE
5
3
100
AcDbSymbolTable
70
1
0
STYLE
5
11
100
AcDbSymbolTableRecord
100
AcDbTextStyleTableRecord
2
STANDARD
70
0
0
ENDTAB
0
TABLE
2
VIEW
5
6
100
AcDbSymbolTable
70
0
0
ENDTAB
0
TABLE
2
UCS
5
7
100
AcDbSymbolTable
70
0
0
ENDTAB
0
TABLE
2
APPID
5
9
100
AcDbSymbolTable
70
2
0
APPID
5
12
100
AcDbSymbolTableRecord
100
AcDbRegAppTableRecord
2
ACAD
70
0
0
ENDTAB
0
TABLE
2
DIMSTYLE
5
A
100
AcDbSymbolTable
70
1
0
ENDTAB
0
TABLE
2
BLOCK_RECORD
5
1
100
AcDbSymbolTable
70
1
0
BLOCK_RECORD
5
1F
100
AcDbSymbolTableRecord
100
AcDbBlockTableRecord
2
*MODEL_SPACE
0
BLOCK_RECORD
5
1B
100
AcDbSymbolTableRecord
100
AcDbBlockTableRecord
2
*PAPER_SPACE
0
ENDTAB
0
ENDSEC
0
SECTION
2
BLOCKS
0
BLOCK
5
20
100
AcDbEntity
100
AcDbBlockBegin
2
*MODEL_SPACE
0
ENDBLK
5
21
100
AcDbEntity
100
AcDbBlockEnd
0
BLOCK
5
1C
100
AcDbEntity
100
AcDbBlockBegin
2
*PAPER_SPACE
0
ENDBLK
5
1D
100
AcDbEntity
100
AcDbBlockEnd
0
ENDSEC
0
SECTION
2
ENTITIES
0
SPLINE
5
100
100
AcDbEntity
8
0
100
AcDbSpline
70
0
71
3
72
29
73
25
74
0
42
0.000000001
43
0.0000000001
44
0.0000000001
40
-0.88709140643755069
40
-0.88709140643755069
40
-0.88709140643755069
40
-0.88709140643755069
40
-0.81348134842752828
40
-0.81348134842752828
40
-0.81348134842752828
40
-0.67899856846977935
40
-0.67899856846977935
40
-0.67899856846977935
40
-0.58313777299309943
40
-0.58313777299309943
40
-0.58313777299309943
40
-0.47754958528000468
40
-0.47754958528000468
40
-0.47754958528000468
40
-0.3550333649398783
40
-0.3550333649398783
40
-0.3550333649398783
40
-0.24731843259437652
40
-0.24731843259437652
40
-0.24731843259437652
40
-0.11640920692503698
40
-0.11640920692503698
40
-0.11640920692503698
40
-0.032932151729326703
40
-0.032932151729326703
40
-0.032932151729326703
40
-0.032932151729326703
10
-33.251917697235072
20
76.471504285462501
30
0
10
-33.175627436416434
20
73.786658671828221
30
0
10
-33.096710485078034
20
71.315759271300692
30
0
10
-33.003017403661858
20
68.988225471416797
30
0
10
-32.831843702780652
20
64.735909628772134
30
0
10
-32.618235503249181
20
60.966939466755093
30
0
10
-32.178325486535805
20
56.688995158893711
30
0
10
-31.864752818320945
20
53.639629697491394
30
0
10
-31.431558638742317
20
50.299262776503546
30
0
10
-30.802190400915173
20
46.648930801155579
30
0
10
-30.108957559419313
20
42.628184510541729
30
0
10
-29.175130198087601
20
38.254348975023753
30
0
10
-27.931308031200981
20
34.010753091076232
30
0
10
-26.488074711615219
20
29.086818514560235
30
0
10
-24.618600534494281
20
24.39951546962606
30
0
10
-22.348002206180805
20
20.660892074788293
30
0
10
-20.351716778511669
20
17.373934928034345
30
0
10
-18.050272546756659
20
14.827570223465472
30
0
10
-15.594505761769371
20
13.025805390543388
30
0
10
-12.609937872741728
20
10.836065918215464
30
0
10
-9.3768849461861663
20
9.6950491178045723
30
0
10
-6.4834758334959508
20
8.9676815894993549
30
0
10
-4.6384319034837516
20
8.5038601972525676
30
0
10
-2.9545364641490761
20
8.1961523978122379
30
0
10
-1.4999999999999996
20
8.0039919696755177
30
0
0
LINE
5
101
100
AcDbEntity
8
0
100
AcDbLine
10
-1.4999999999999993
20
8.003991969675516
30
0
11
-1.5000000000000002
21
9.4955130292640622
31
0
0
LINE
5
102
100
AcDbEntity
8
0
100
AcDbLine
10
-1.5000000000000002
20
9.4955130292640622
30
0
11
1.5000000000000002
21
9.4955130292640622
31
0
0
LINE
5
103
100
AcDbEntity
8
0
100
AcDbLine
10
1.5000000000000002
20
9.4955130292640622
30
0
11
1.5000000000000002
21
8.0039919696755195
31
0
0
SPLINE
5
104
100
AcDbEntity
8
0
100
AcDbSpline
70
0
71
3
72
29
73
25
74
0
42
0.000000001
43
0.0000000001
44
0.0000000001
40
0.032932151729326758
40
0.032932151729326758
40
0.032932151729326758
40
0.032932151729326758
40
0.11640920692503698
40
0.11640920692503698
40
0.11640920692503698
40
0.24731843259437652
40
0.24731843259437652
40
0.24731843259437652
40
0.3550333649398783
40
0.3550333649398783
40
0.3550333649398783
40
0.47754958528000468
40
0.47754958528000468
40
0.47754958528000468
40
0.58313777299309943
40
0.58313777299309943
40
0.58313777299309943
40
0.67899856846977935
40
0.67899856846977935
40
0.67899856846977935
40
0.81348134842752828
40
0.81348134842752828
40
0.81348134842752828
40
0.88709140643755069
40
0.88709140643755069
40
0.88709140643755069
40
0.88709140643755069
10
1.5000000000000002
20
8.0039919696755195
30
0
10
2.9545364641490766
20
8.1961523978122397
30
0
10
4.6384319034837524
20
8.5038601972525676
30
0
10
6.4834758334959508
20
8.9676815894993549
30
0
10
9.3768849461861663
20
9.6950491178045723
30
0
10
12.609937872741728
20
10.836065918215464
30
0
10
15.594505761769371
20
13.025805390543388
30
0
10
18.050272546756659
20
14.827570223465472
30
0
10
20.351716778511669
20
17.373934928034345
30
0
10
22.348002206180805
20
20.660892074788293
30
0
10
24.618600534494281
20
24.39951546962606
30
0
10
26.488074711615219
20
29.086818514560235
30
0
10
27.931308031200981
20
34.010753091076232
30
0
10
29.175130198087601
20
38.254348975023753
30
0
10
30.108957559419313
20
42.628184510541729
30
0
10
30.802190400915173
20
46.648930801155579
30
0
10
31.431558638742317
20
50.299262776503546
30
0
10
31.864752818320945
20
53.639629697491394
30
0
10
32.178325486535805
20
56.688995158893711
30
0
10
32.618235503249181
20
60.966939466755093
30
0
10
32.831843702780652
20
64.735909628772134
30
0
10
33.003017403661858
20
68.988225471416797
30
0
10
33.096710485078034
20
71.315759271300692
30
0
10
33.175627436416434
20
73.786658671828221
30
0
10
33.251917697235072
20
76.471504285462501
30
0
0
LINE
5
105
100
AcDbEntity
8
0
100
AcDbLine
10
33.251917697235072
20
76.471504285462501
30
0
11
28.249890359510061
21
76.47150428546253
31
0
0
SPLINE
5
106
100
AcDbEntity
8
0
100
AcDbSpline
70
0
71
3
72
32
73
28
74
0
42
0.000000001
43
0.0000000001
44
0.0000000001
40
-0.88578586364107481
40
-0.88578586364107481
40
-0.88578586364107481
40
-0.88578586364107481
40
-0.85684544300470433
40
-0.85684544300470433
40
-0.85684544300470433
40
-0.74268299708866514
40
-0.74268299708866514
40
-0.74268299708866514
40
-0.6348118463651452
40
-0.6348118463651452
40
-0.6348118463651452
40
-0.53658617677435694
40
-0.53658617677435694
40
-0.53658617677435694
40
-0.41750233993171476
40
-0.41750233993171476
40
-0.41750233993171476
40
-0.31419927107884016
40
-0.31419927107884016
40
-0.31419927107884016
40
-0.2120295232452529
40
-0.2120295232452529
40
-0.2120295232452529
40
-0.11471527958414748
40
-0.11471527958414748
40
-0.11471527958414748
40
-0.013694256392265517
40
-0.013694256392265517
40
-0.013694256392265517
40
-0.013694256392265517
10
28.249890359510061
20
76.471504285462515
30
0
10
28.219978260516601
20
75.423509553836197
30
0
10
28.189543864067712
20
74.408505444864232
30
0
10
28.158077925854315
20
73.42398189026315
30
0
10
28.033952968770247
20
69.540292068769645
30
0
10
27.899868112505946
20
66.175884409787216
30
0
10
27.679864764670128
20
62.859872205501006
30
0
10
27.47198542130419
20
59.726599705780202
30
0
10
27.183229587116458
20
56.561761694275305
30
0
10
26.704493833366424
20
52.949896077634016
30
0
10
26.268565045606728
20
49.660991525425686
30
0
10
25.672275669023072
20
46.007759604600061
30
0
10
24.853340405899033
20
42.230045437735413
30
0
10
23.860504687243932
20
37.650135732266357
30
0
10
22.528594215561061
20
32.928863841847004
30
0
10
20.882089262576308
20
28.914386648280864
30
0
10
19.453776075543722
20
25.431900486172616
30
0
10
17.795288792553958
20
22.517365274873363
30
0
10
16.066021996289326
20
20.376470177592591
30
0
10
14.355726702322983
20
18.259062489164052
30
0
10
12.611264317671838
20
16.873778052818654
30
0
10
10.752114429829476
20
15.862371928951777
30
0
10
8.9813185824844144
20
14.899031761580243
30
0
10
7.0509769039398567
20
14.260432591691458
30
0
10
5.1659560367701465
20
13.792190044751321
30
0
10
3.2091331753328274
20
13.306111754315289
30
0
10
1.3727481919048046
20
13.007861668738345
30
0
10
3.6318170693050433e-13
20
12.861270671337014
30
0
0
SPLINE
5
107
100
AcDbEntity
8
0
100
AcDbSpline
70
0
71
3
72
32
73
28
74
0
42
0.000000001
43
0.0000000001
44
0.0000000001
40
0.013694256392244555
40
0.013694256392244555
40
0.013694256392244555
40
0.013694256392244555
40
0.11471527958414748
40
0.11471527958414748
40
0.11471527958414748
40
0.2120295232452529
40
0.2120295232452529
40
0.2120295232452529
40
0.31419927107884016
40
0.31419927107884016
40
0.31419927107884016
40
0.41750233993171476
40
0.41750233993171476
40
0.41750233993171476
40
0.53658617677435694
40
0.53658617677435694
40
0.53658617677435694
40
0.6348118463651452
40
0.6348118463651452
40
0.6348118463651452
40
0.74268299708866514
40
0.74268299708866514
40
0.74268299708866514
40
0.85684544300470433
40
0.85684544300470433
40
0.85684544300470433
40
0.88578586364107481
40
0.88578586364107481
40
0.88578586364107481
40
0.88578586364107481
10
4.1952552543023103e-13
20
12.861270671336928
30
0
10
-1.3727481919041162
20
13.007861668738212
30
0
10
-3.2091331753324215
20
13.306111754315186
30
0
10
-5.1659560367701465
20
13.792190044751321
30
0
10
-7.0509769039398567
20
14.260432591691458
30
0
10
-8.9813185824844144
20
14.899031761580243
30
0
10
-10.752114429829476
20
15.862371928951777
30
0
10
-12.611264317671838
20
16.873778052818654
30
0
10
-14.355726702322983
20
18.259062489164052
30
0
10
-16.066021996289326
20
20.376470177592591
30
0
10
-17.795288792553958
20
22.517365274873363
30
0
10
-19.453776075543722
20
25.431900486172616
30
0
10
-20.882089262576308
20
28.914386648280864
30
0
10
-22.528594215561061
20
32.928863841847004
30
0
10
-23.860504687243932
20
37.650135732266357
30
0
10
-24.853340405899033
20
42.230045437735413
30
0
10
-25.672275669023072
20
46.007759604600061
30
0
10
-26.268565045606728
20
49.660991525425686
30
0
10
-26.704493833366424
20
52.949896077634016
30
0
10
-27.183229587116458
20
56.561761694275305
30
0
10
-27.47198542130419
20
59.726599705780202
30
0
10
-27.679864764670128
20
62.859872205501006
30
0
10
-27.899868112505946
20
66.175884409787216
30
0
10
-28.033952968770247
20
69.540292068769645
30
0
10
-28.158077925854315
20
73.42398189026315
30
0
10
-28.189543864067712
20
74.408505444864232
30
0
10
-28.219978260516601
20
75.423509553836197
30
0
10
-28.249890359510061
20
76.471504285462515
30
0
0
LINE
5
108
100
AcDbEntity
8
0
100
AcDbLine
10
-28.249890359510061
20
76.471504285462515
30
0
11
-33.251917697235072
21
76.471504285462501
31
0
0
ENDSEC
0
SECTION
2
OBJECTS
0
DICTIONARY
5
C
100
AcDbDictionary
3
ACAD_GROUP
350
D
3
ACAD_MLINESTYLE
350
17
0
DICTIONARY
5
D
100
AcDbDictionary
0
DICTIONARY
5
1A
330
C
100
AcDbDictionary
0
DICTIONARY
5
17
100
AcDbDictionary
0
ENDSEC
0
EOF
