0
SECTION
2
HEADER
9
$INSUNITS
70
4
9
$ACADVER
1
AC1014
9
$HANDSEED
5
FFFF
0
ENDSEC
0
SECTION
2
TABLES
0
TABLE
2
VPORT
5
8
100
AcDbSymbolTable
0
ENDTAB
0
TABLE
2
LTYPE
5
5
100
AcDbSymbolTable
0
LTYPE
5
14
100
AcDbSymbolTableRecord
100
AcDbLinetypeTableRecord
2
BYBLOCK
70
0
0
LTYPE
5
15
100
AcDbSymbolTableRecord
100
AcDbLinetypeTableRecord
2
BYLAYER
70
0
0
ENDTAB
0
TABLE
2
LAYER
5
2
100
AcDbSymbolTable
70
2
0
LAYER
5
50
100
AcDbSymbolTableRecord
100
AcDbLayerTableRecord
2
0
70
0
6
CONTINUOUS
0
ENDTAB
0
TABLE
2
STYLE
5
3
100
AcDbSymbolTable
70
1
0
STYLE
5
11
100
AcDbSymbolTableRecord
100
AcDbTextStyleTableRecord
2
STANDARD
70
0
0
ENDTAB
0
TABLE
2
VIEW
5
6
100
AcDbSymbolTable
70
0
0
ENDTAB
0
TABLE
2
UCS
5
7
100
AcDbSymbolTable
70
0
0
ENDTAB
0
TABLE
2
APPID
5
9
100
AcDbSymbolTable
70
2
0
APPID
5
12
100
AcDbSymbolTableRecord
100
AcDbRegAppTableRecord
2
ACAD
70
0
0
ENDTAB
0
TABLE
2
DIMSTYLE
5
A
100
AcDbSymbolTable
70
1
0
ENDTAB
0
TABLE
2
BLOCK_RECORD
5
1
100
AcDbSymbolTable
70
1
0
BLOCK_RECORD
5
1F
100
AcDbSymbolTableRecord
100
AcDbBlockTableRecord
2
*MODEL_SPACE
0
BLOCK_RECORD
5
1B
100
AcDbSymbolTableRecord
100
AcDbBlockTableRecord
2
*PAPER_SPACE
0
ENDTAB
0
ENDSEC
0
SECTION
2
BLOCKS
0
BLOCK
5
20
100
AcDbEntity
100
AcDbBlockBegin
2
*MODEL_SPACE
0
ENDBLK
5
21
100
AcDbEntity
100
AcDbBlockEnd
0
BLOCK
5
1C
100
AcDbEntity
100
AcDbBlockBegin
2
*PAPER_SPACE
0
ENDBLK
5
1D
100
AcDbEntity
100
AcDbBlockEnd
0
ENDSEC
0
SECTION
2
ENTITIES
0
LINE
5
100
100
AcDbEntity
8
0
100
AcDbLine
10
36.531790076800498
20
77.248759550077878
30
0
11
31.527271779665853
21
77.248759550029504
31
0
0
SPLINE
5
101
100
AcDbEntity
8
0
100
AcDbSpline
70
0
71
3
72
32
73
28
74
0
42
0.000000001
43
0.0000000001
44
0.0000000001
40
-0.84517933713209736
40
-0.84517933713209736
40
-0.84517933713209736
40
-0.84517933713209736
40
-0.83184799716270297
40
-0.83184799716270297
40
-0.83184799716270297
40
-0.75516595487329541
40
-0.75516595487329541
40
-0.75516595487329541
40
-0.66339143530084155
40
-0.66339143530084155
40
-0.66339143530084155
40
-0.56982033972819934
40
-0.56982033972819934
40
-0.56982033972819934
40
-0.43903291399084871
40
-0.43903291399084871
40
-0.43903291399084871
40
-0.30306372717254848
40
-0.30306372717254848
40
-0.30306372717254848
40
-0.20921335707730562
40
-0.20921335707730562
40
-0.20921335707730562
40
-0.10027080322284866
40
-0.10027080322284866
40
-0.10027080322284866
40
-0.035539921679381865
40
-0.035539921679381865
40
-0.035539921679381865
40
-0.035539921679381865
10
31.527271779665853
20
77.248759550029504
30
0
10
31.500211324332703
20
76.618648044332502
30
0
10
31.470764334054074
20
75.988564342551669
30
0
10
31.438824555894485
20
75.36089367614025
30
0
10
31.255106533162316
20
71.750523773633972
30
0
10
30.98380477457717
20
68.263973640340197
30
0
10
30.643873459805178
20
65.039730760601557
30
0
10
30.23703722840839
20
61.180895856907398
30
0
10
29.737941923783122
20
57.657570384013177
30
0
10
29.224346030604611
20
54.165384568569678
30
0
10
28.700695995385605
20
50.604835799514952
30
0
10
28.1764721004383
20
47.027404115297493
30
0
10
27.633644429685308
20
43.466828423300186
30
0
10
26.874916178804988
20
38.49009360952649
30
0
10
26.032246841653141
20
33.628200180646488
30
0
10
24.765708431431154
20
29.770881301141209
30
0
10
23.448990125056184
20
25.760736530813887
30
0
10
21.734320681946635
20
22.86356411319257
30
0
10
19.32356647613938
20
20.345075912122837
30
0
10
17.659585248348268
20
18.606733164903545
30
0
10
15.6282691044469
20
17.033288152443497
30
0
10
13.466071483499844
20
15.732715484880613
30
0
10
10.956168426911432
20
14.222996261250334
30
0
10
8.3288048319842467
20
13.129843893356188
30
0
10
6.1156647073148509
20
12.592060622645025
30
0
10
4.8006734006078684
20
12.272523545893833
30
0
10
3.6359306869651475
20
12.137811124441814
30
0
10
2.5973961992753414
20
12.146626756294578
30
0
0
LINE
5
102
100
AcDbEntity
8
0
100
AcDbLine
10
2.59739619927534
20
12.146626756294578
30
0
11
-2.4217350125968951
21
12.149508394719408
31
0
0
SPLINE
5
103
100
AcDbEntity
8
0
100
AcDbSpline
70
0
71
3
72
8
73
4
74
0
42
0.000000001
43
0.0000000001
44
0.0000000001
40
0.031865060559660027
40
0.031865060559660027
40
0.031865060559660027
40
0.031865060559660027
40
0.043393032998485744
40
0.043393032998485744
40
0.043393032998485744
40
0.043393032998485744
10
-2.4217350125968946
20
12.149508394719406
30
0
10
-2.6041501705441212
20
12.145059847052337
30
0
10
-2.7905249026173613
20
12.145089123512101
30
0
10
-2.9809949980445989
20
12.149829483169876
30
0
0
SPLINE
5
104
100
AcDbEntity
8
0
100
AcDbSpline
70
0
71
3
72
32
73
28
74
0
42
0.000000001
43
0.0000000001
44
0.0000000001
40
0.043393032998485771
40
0.043393032998485771
40
0.043393032998485771
40
0.043393032998485771
40
0.10027080322284866
40
0.10027080322284866
40
0.10027080322284866
40
0.20921335707730562
40
0.20921335707730562
40
0.20921335707730562
40
0.30306372717254848
40
0.30306372717254848
40
0.30306372717254848
40
0.43903291399084871
40
0.43903291399084871
40
0.43903291399084871
40
0.56982033972819934
40
0.56982033972819934
40
0.56982033972819934
40
0.66339143530084155
40
0.66339143530084155
40
0.66339143530084155
40
0.75516595487329541
40
0.75516595487329541
40
0.75516595487329541
40
0.83184799716270297
40
0.83184799716270297
40
0.83184799716270297
40
0.84517933713209736
40
0.84517933713209736
40
0.84517933713209736
40
0.84517933713209736
10
-2.9809949980445998
20
12.149829483169876
30
0
10
-3.9207538654267005
20
12.173217905446778
30
0
10
-4.9602073489952305
20
12.311289590391823
30
0
10
-6.1156647073148509
20
12.592060622645025
30
0
10
-8.3288048319842467
20
13.129843893356188
30
0
10
-10.956168426911432
20
14.222996261250334
30
0
10
-13.466071483499844
20
15.732715484880613
30
0
10
-15.6282691044469
20
17.033288152443497
30
0
10
-17.659585248348268
20
18.606733164903545
30
0
10
-19.32356647613938
20
20.345075912122837
30
0
10
-21.734320681946635
20
22.86356411319257
30
0
10
-23.448990125056184
20
25.760736530813887
30
0
10
-24.765708431431154
20
29.770881301141209
30
0
10
-26.032246841653141
20
33.628200180646488
30
0
10
-26.874916178804988
20
38.49009360952649
30
0
10
-27.633644429685308
20
43.466828423300186
30
0
10
-28.1764721004383
20
47.027404115297493
30
0
10
-28.700695995385605
20
50.604835799514952
30
0
10
-29.224346030604611
20
54.165384568569678
30
0
10
-29.737941923783122
20
57.657570384013177
30
0
10
-30.23703722840839
20
61.180895856907398
30
0
10
-30.643873459805178
20
65.039730760601557
30
0
10
-30.98380477457717
20
68.263973640340197
30
0
10
-31.255106533162316
20
71.750523773633972
30
0
10
-31.438824555894485
20
75.36089367614025
30
0
10
-31.470764334054074
20
75.988564342551669
30
0
10
-31.500211324332703
20
76.618648044332502
30
0
10
-31.527271779665853
20
77.248759550029504
30
0
0
LINE
5
105
100
AcDbEntity
8
0
100
AcDbLine
10
-31.527271779665853
20
77.248759550029519
30
0
11
-36.53179007680049
21
77.248759550077878
31
0
0
SPLINE
5
106
100
AcDbEntity
8
0
100
AcDbSpline
70
0
71
3
72
29
73
25
74
0
42
0.000000001
43
0.0000000001
44
0.0000000001
40
-0.84666275938242663
40
-0.84666275938242663
40
-0.84666275938242663
40
-0.84666275938242663
40
-0.78250894798845883
40
-0.78250894798845883
40
-0.78250894798845883
40
-0.70014765227040887
40
-0.70014765227040887
40
-0.70014765227040887
40
-0.59706160783553286
40
-0.59706160783553286
40
-0.59706160783553286
40
-0.50000623936691557
40
-0.50000623936691557
40
-0.50000623936691557
40
-0.39342627090726767
40
-0.39342627090726767
40
-0.39342627090726767
40
-0.27213650903274378
40
-0.27213650903274378
40
-0.27213650903274378
40
-0.11927516539640137
40
-0.11927516539640137
40
-0.11927516539640137
40
-0.020201984749001204
40
-0.020201984749001204
40
-0.020201984749001204
40
-0.020201984749001204
10
-36.531790076800498
20
77.248759550077878
30
0
10
-36.401572175962073
20
74.156904783891321
30
0
10
-36.21183941650483
20
71.063247651633688
30
0
10
-35.963108260031127
20
68.15040001769222
30
0
10
-35.643784748496948
20
64.410857500297311
30
0
10
-35.229596284965908
20
60.967348918571346
30
0
10
-34.782836351607088
20
57.71450770511224
30
0
10
-34.223657262200703
20
53.643147110954516
30
0
10
-33.632625973295369
20
49.800518435798736
30
0
10
-33.047028215347346
20
45.852493114784608
30
0
10
-32.495688734978138
20
42.135432727463929
30
0
10
-31.940610918122015
20
38.340280242465909
30
0
10
-31.197710625410629
20
34.720084894715328
30
0
10
-30.381905265901384
20
30.744619013033766
30
0
10
-29.316142195541197
20
27.046426933967403
30
0
10
-27.791843901729933
20
23.896703523288217
30
0
10
-26.05716730392151
20
20.312266335201311
30
0
10
-23.710575374582476
20
17.374771819622158
30
0
10
-20.835274385325434
20
14.898745730964771
30
0
10
-17.211535944553916
20
11.778212975839422
30
0
10
-12.806236563845063
20
9.3855873781326693
30
0
10
-8.780783581495335
20
8.1434261631684208
30
0
10
-6.171788913381393
20
7.3383510570898132
30
0
10
-3.7326357392920109
20
7.0238084062721127
30
0
10
-1.5000000000000002
20
7.1917534162254535
30
0
0
LINE
5
107
100
AcDbEntity
8
0
100
AcDbLine
10
-1.5000000000000002
20
7.1917534162254535
30
0
11
-1.4999999999999991
21
8.6885396835843043
31
0
0
LINE
5
108
100
AcDbEntity
8
0
100
AcDbLine
10
-1.4999999999999991
20
8.6885396835843043
30
0
11
1.4999999999999991
21
8.6885396835843043
31
0
0
LINE
5
109
100
AcDbEntity
8
0
100
AcDbLine
10
1.4999999999999991
20
8.6885396835843043
30
0
11
1.4999999999999991
21
7.1917534162254526
31
0
0
SPLINE
5
110
100
AcDbEntity
8
0
100
AcDbSpline
70
0
71
3
72
29
73
25
74
0
42
0.000000001
43
0.0000000001
44
0.0000000001
40
0.020201984749001204
40
0.020201984749001204
40
0.020201984749001204
40
0.020201984749001204
40
0.11927516539640137
40
0.11927516539640137
40
0.11927516539640137
40
0.27213650903274378
40
0.27213650903274378
40
0.27213650903274378
40
0.39342627090726767
40
0.39342627090726767
40
0.39342627090726767
40
0.50000623936691557
40
0.50000623936691557
40
0.50000623936691557
40
0.59706160783553286
40
0.59706160783553286
40
0.59706160783553286
40
0.70014765227040887
40
0.70014765227040887
40
0.70014765227040887
40
0.78250894798845883
40
0.78250894798845883
40
0.78250894798845883
40
0.84666275938242663
40
0.84666275938242663
40
0.84666275938242663
40
0.84666275938242663
10
1.5000000000000002
20
7.1917534162254535
30
0
10
3.7326357392920109
20
7.0238084062721127
30
0
10
6.171788913381393
20
7.3383510570898132
30
0
10
8.780783581495335
20
8.1434261631684208
30
0
10
12.806236563845063
20
9.3855873781326693
30
0
10
17.211535944553916
20
11.778212975839422
30
0
10
20.835274385325434
20
14.898745730964771
30
0
10
23.710575374582476
20
17.374771819622158
30
0
10
26.05716730392151
20
20.312266335201311
30
0
10
27.791843901729933
20
23.896703523288217
30
0
10
29.316142195541197
20
27.046426933967403
30
0
10
30.381905265901384
20
30.744619013033766
30
0
10
31.197710625410629
20
34.720084894715328
30
0
10
31.940610918122015
20
38.340280242465909
30
0
10
32.495688734978138
20
42.135432727463929
30
0
10
33.047028215347346
20
45.852493114784608
30
0
10
33.632625973295369
20
49.800518435798736
30
0
10
34.223657262200703
20
53.643147110954516
30
0
10
34.782836351607088
20
57.71450770511224
30
0
10
35.229596284965908
20
60.967348918571346
30
0
10
35.643784748496948
20
64.410857500297311
30
0
10
35.963108260031127
20
68.15040001769222
30
0
10
36.21183941650483
20
71.063247651633688
30
0
10
36.401572175962073
20
74.156904783891321
30
0
10
36.531790076800498
20
77.248759550077878
30
0
0
ENDSEC
0
SECTION
2
OBJECTS
0
DICTIONARY
5
C
100
AcDbDictionary
3
ACAD_GROUP
350
D
3
ACAD_MLINESTYLE
350
17
0
DICTIONARY
5
D
100
AcDbDictionary
0
DICTIONARY
5
1A
330
C
100
AcDbDictionary
0
DICTIONARY
5
17
100
AcDbDictionary
0
ENDSEC
0
EOF
