0
SECTION
2
HEADER
9
$INSUNITS
70
4
9
$ACADVER
1
AC1014
9
$HANDSEED
5
FFFF
0
ENDSEC
0
SECTION
2
TABLES
0
TABLE
2
VPORT
5
8
100
AcDbSymbolTable
0
ENDTAB
0
TABLE
2
LTYPE
5
5
100
AcDbSymbolTable
0
LTYPE
5
14
100
AcDbSymbolTableRecord
100
AcDbLinetypeTableRecord
2
BYBLOCK
70
0
0
LTYPE
5
15
100
AcDbSymbolTableRecord
100
AcDbLinetypeTableRecord
2
BYLAYER
70
0
0
ENDTAB
0
TABLE
2
LAYER
5
2
100
AcDbSymbolTable
70
2
0
LAYER
5
50
100
AcDbSymbolTableRecord
100
AcDbLayerTableRecord
2
0
70
0
6
CONTINUOUS
0
ENDTAB
0
TABLE
2
STYLE
5
3
100
AcDbSymbolTable
70
1
0
STYLE
5
11
100
AcDbSymbolTableRecord
100
AcDbTextStyleTableRecord
2
STANDARD
70
0
0
ENDTAB
0
TABLE
2
VIEW
5
6
100
AcDbSymbolTable
70
0
0
ENDTAB
0
TABLE
2
UCS
5
7
100
AcDbSymbolTable
70
0
0
ENDTAB
0
TABLE
2
APPID
5
9
100
AcDbSymbolTable
70
2
0
APPID
5
12
100
AcDbSymbolTableRecord
100
AcDbRegAppTableRecord
2
ACAD
70
0
0
ENDTAB
0
TABLE
2
DIMSTYLE
5
A
100
AcDbSymbolTable
70
1
0
ENDTAB
0
TABLE
2
BLOCK_RECORD
5
1
100
AcDbSymbolTable
70
1
0
BLOCK_RECORD
5
1F
100
AcDbSymbolTableRecord
100
AcDbBlockTableRecord
2
*MODEL_SPACE
0
BLOCK_RECORD
5
1B
100
AcDbSymbolTableRecord
100
AcDbBlockTableRecord
2
*PAPER_SPACE
0
ENDTAB
0
ENDSEC
0
SECTION
2
BLOCKS
0
BLOCK
5
20
100
AcDbEntity
100
AcDbBlockBegin
2
*MODEL_SPACE
0
ENDBLK
5
21
100
AcDbEntity
100
AcDbBlockEnd
0
BLOCK
5
1C
100
AcDbEntity
100
AcDbBlockBegin
2
*PAPER_SPACE
0
ENDBLK
5
1D
100
AcDbEntity
100
AcDbBlockEnd
0
ENDSEC
0
SECTION
2
ENTITIES
0
LINE
5
100
100
AcDbEntity
8
0
100
AcDbLine
10
-26.343152632949693
20
21.347926260220028
30
0
11
-24.060527338003624
21
21.347926259632853
31
0
0
LINE
5
101
100
AcDbEntity
8
0
100
AcDbLine
10
-24.060527338003624
20
21.347926259632853
30
0
11
-24.047979718917183
21
18.347372374488483
31
0
0
LINE
5
102
100
AcDbEntity
8
0
100
AcDbLine
10
-24.047979718917183
20
18.347372374488483
30
0
11
-22.742381083198289
21
18.34737237506004
31
0
0
LINE
5
103
100
AcDbEntity
8
0
100
AcDbLine
10
-22.742381083198289
20
18.34737237506004
30
0
11
-22.741442425770622
21
15.346818489900036
31
0
0
SPLINE
5
104
100
AcDbEntity
8
0
100
AcDbSpline
70
0
71
3
72
8
73
4
74
0
42
0.000000001
43
0.0000000001
44
0.0000000001
40
-0.31598355911158771
40
-0.31598355911158771
40
-0.31598355911158771
40
-0.31598355911158771
40
-0.29038778858898928
40
-0.29038778858898928
40
-0.29038778858898928
40
-0.29038778858898928
10
-22.741442425770625
20
15.346818489900038
30
0
10
-22.280816199897838
20
14.803318884816379
30
0
10
-21.792088654504084
20
14.289991388141573
30
0
10
-21.276291669489492
20
13.80464890164442
30
0
0
LINE
5
105
100
AcDbEntity
8
0
100
AcDbLine
10
-21.276291669489492
20
13.80464890164442
30
0
11
-21.287176945437686
21
15.346818489900031
31
0
0
LINE
5
106
100
AcDbEntity
8
0
100
AcDbLine
10
-21.287176945437686
20
15.346818489900031
30
0
11
-19.538541572168278
21
15.346818489900031
31
0
0
LINE
5
107
100
AcDbEntity
8
0
100
AcDbLine
10
-19.538541572168278
20
15.346818489900031
30
0
11
-19.537061266094007
21
12.346264604740036
31
0
0
SPLINE
5
108
100
AcDbEntity
8
0
100
AcDbSpline
70
0
71
3
72
11
73
7
74
0
42
0.000000001
43
0.0000000001
44
0.0000000001
40
-0.26312237450900672
40
-0.26312237450900672
40
-0.26312237450900672
40
-0.26312237450900672
40
-0.21976225470215291
40
-0.21976225470215291
40
-0.21976225470215291
40
-0.21827351350327082
40
-0.21827351350327082
40
-0.21827351350327082
40
-0.21827351350327082
10
-19.537061266094007
20
12.346264604740039
30
0
10
-18.567571187774917
20
11.620873566153541
30
0
10
-17.523552907502825
20
10.969106745574923
30
0
10
-16.410022869063305
20
10.380331650473806
30
0
10
-16.371790547478355
20
10.360116444776562
30
0
10
-16.333484097367457
20
10.339976042971886
30
0
10
-16.295105335993775
20
10.319910502596006
30
0
0
LINE
5
109
100
AcDbEntity
8
0
100
AcDbLine
10
-16.295105335993775
20
10.319910502596006
30
0
11
-16.30490170694252
21
12.346264604740039
31
0
0
LINE
5
110
100
AcDbEntity
8
0
100
AcDbLine
10
-16.30490170694252
20
12.346264604740039
30
0
11
-14.249569083928986
21
12.346264604740041
31
0
0
LINE
5
111
100
AcDbEntity
8
0
100
AcDbLine
10
-14.249569083928986
20
12.346264604740041
30
0
11
-14.247009942910937
21
9.3457107195800386
31
0
0
SPLINE
5
112
100
AcDbEntity
8
0
100
AcDbSpline
70
0
71
3
72
11
73
7
74
0
42
0.000000001
43
0.0000000001
44
0.0000000001
40
-0.19250942264424756
40
-0.19250942264424756
40
-0.19250942264424756
40
-0.19250942264424756
40
-0.10989051618302102
40
-0.10989051618302102
40
-0.10989051618302102
40
-0.1053041759182395
40
-0.1053041759182395
40
-0.1053041759182395
40
-0.1053041759182395
10
-14.247009942907066
20
9.3457107195783617
30
0
10
-12.008456972981548
20
8.3769085531716865
30
0
10
-9.6440584696042659
20
7.6417301324676323
30
0
10
-7.4644123421402817
20
7.1500092737517758
30
0
10
-7.3434158387303192
20
7.1227128682441601
30
0
10
-7.2230643593243613
20
7.0961885617229097
30
0
10
-7.103371337056875
20
7.0704351221108608
30
0
0
LINE
5
113
100
AcDbEntity
8
0
100
AcDbLine
10
-7.103371337056875
20
7.0704351221108608
30
0
11
-7.1104043574465017
21
9.3457107195800386
31
0
0
LINE
5
114
100
AcDbEntity
8
0
100
AcDbLine
10
-7.1104043574465017
20
9.3457107195800386
30
0
11
-1.5000000000000002
21
9.3457107195800386
31
0
0
LINE
5
115
100
AcDbEntity
8
0
100
AcDbLine
10
-1.5000000000000002
20
9.3457107195800386
30
0
11
-1.5000000000000002
21
7.9174566035104146
31
0
0
LINE
5
116
100
AcDbEntity
8
0
100
AcDbLine
10
-1.5000000000000002
20
7.9174566035104146
30
0
11
1.5000000000000002
21
7.9174566035104146
31
0
0
LINE
5
117
100
AcDbEntity
8
0
100
AcDbLine
10
1.5000000000000002
20
7.9174566035104146
30
0
11
1.5000000000000002
21
6.419978025207806
31
0
0
SPLINE
5
118
100
AcDbEntity
8
0
100
AcDbSpline
70
0
71
3
72
26
73
22
74
0
42
0.000000001
43
0.0000000001
44
0.0000000001
40
0.025102057254411982
40
0.025102057254411982
40
0.025102057254411982
40
0.025102057254411982
40
0.10989051618302102
40
0.10989051618302102
40
0.10989051618302102
40
0.21976225470215291
40
0.21976225470215291
40
0.21976225470215291
40
0.320873221327025
40
0.320873221327025
40
0.320873221327025
40
0.43563644890563608
40
0.43563644890563608
40
0.43563644890563608
40
0.54582202691397985
40
0.54582202691397985
40
0.54582202691397985
40
0.70976175086573934
40
0.70976175086573934
40
0.70976175086573934
40
0.81040303286797655
40
0.81040303286797655
40
0.81040303286797655
40
0.81040303286797655
10
1.5000000000000002
20
6.419978025207806
30
0
10
3.2110995361714179
20
6.4046271393248482
30
0
10
5.2275292354374168
20
6.645375944416485
30
0
10
7.4644123421402817
20
7.1500092737517758
30
0
10
10.363040751042682
20
7.8039301246478887
30
0
10
13.588409788619584
20
8.8884136487781191
30
0
10
16.410022869063305
20
10.380331650473806
30
0
10
19.006650808607279
20
11.75328954947193
30
0
10
21.225294370234749
20
13.468777817377617
30
0
10
23.002344444371957
20
15.661617736221444
30
0
10
25.01933635815146
20
18.150540501477973
30
0
10
26.515168852910559
20
21.310632371770485
30
0
10
27.707882247394586
20
25.006727275282952
30
0
10
28.853020960746782
20
28.555393184302027
30
0
10
29.72898988550002
20
32.52886231536845
30
0
10
30.490276551967202
20
36.845037337624703
30
0
10
31.622957690503625
20
43.266862720458263
30
0
10
32.504804496257414
20
50.50601739583189
30
0
10
33.244025600977324
20
59.537346401167717
30
0
10
33.697827509805805
20
65.081606860874516
30
0
10
34.092187314483105
20
71.302216727347101
30
0
10
34.434608842931873
20
78.285099902586708
30
0
0
LINE
5
119
100
AcDbEntity
8
0
100
AcDbLine
10
34.434608842931873
20
78.285099902586708
30
0
11
29.428563911754924
21
78.285099902512215
31
0
0
SPLINE
5
120
100
AcDbEntity
8
0
100
AcDbSpline
70
0
71
3
72
29
73
25
74
0
42
0.000000001
43
0.0000000001
44
0.0000000001
40
-0.80921779941723115
40
-0.80921779941723115
40
-0.80921779941723115
40
-0.80921779941723115
40
-0.74543281695150831
40
-0.74543281695150831
40
-0.74543281695150831
40
-0.60034348008750227
40
-0.60034348008750227
40
-0.60034348008750227
40
-0.48895520165195361
40
-0.48895520165195361
40
-0.48895520165195361
40
-0.36499786319671063
40
-0.36499786319671063
40
-0.36499786319671063
40
-0.26985515725835135
40
-0.26985515725835135
40
-0.26985515725835135
40
-0.19244988268323004
40
-0.19244988268323004
40
-0.19244988268323004
40
-0.094942443218803643
40
-0.094942443218803643
40
-0.094942443218803643
40
-0.033409036740161741
40
-0.033409036740161741
40
-0.033409036740161741
40
-0.033409036740161741
10
29.428563911754924
20
78.285099902512201
30
0
10
29.21209617892999
20
73.897754912406597
30
0
10
28.975069732083508
20
69.818040510564174
30
0
10
28.716093091586494
20
66.030882546526442
30
0
10
28.127008520572101
20
57.416374611265127
30
0
10
27.427233054256664
20
50.357002461290385
30
0
10
26.584575792587088
20
44.244241592499414
30
0
10
25.937649259477592
20
39.551340484949236
30
0
10
25.207817724929686
20
35.360507670061459
30
0
10
24.327814156214913
20
31.592243643643229
30
0
10
23.348510932024084
20
27.398768478464909
30
0
10
22.160756806313124
20
23.811794372265478
30
0
10
20.735119223734308
20
21.234376918908747
30
0
10
19.640879713719787
20
19.256095730387941
30
0
10
18.452813072524371
20
17.848866223865418
30
0
10
16.889802827850133
20
16.612410661532149
30
0
10
15.618184200236991
20
15.606467206819501
30
0
10
14.045016840920985
20
14.70593330266489
30
0
10
12.259539177551241
20
13.934183672376665
30
0
10
10.01037261711032
20
12.962010512729879
30
0
10
7.4850495735997882
20
12.22370849540666
30
0
10
5.3628727126855447
20
11.818715832659116
30
0
10
4.0236439100479204
20
11.563139660475825
30
0
10
2.8518127571093146
20
11.445940003791906
30
0
10
1.9143998896502525
20
11.425522673373994
30
0
0
SPLINE
5
121
100
AcDbEntity
8
0
100
AcDbSpline
70
0
71
3
72
8
73
4
74
0
42
0.000000001
43
0.0000000001
44
0.0000000001
40
-0.033409036740122182
40
-0.033409036740122182
40
-0.033409036740122182
40
-0.033409036740122182
40
-0.020009882582016681
40
-0.020009882582016681
40
-0.020009882582016681
40
-0.020009882582016681
10
1.9143998896484451
20
11.425522673373958
30
0
10
1.7102743545989365
20
11.42107671509827
30
0
10
1.5172642001070784
20
11.421219871470786
30
0
10
1.3360614289222146
20
11.425522673373958
30
0
0
LINE
5
122
100
AcDbEntity
8
0
100
AcDbLine
10
1.3360614289222146
20
11.425522673373958
30
0
11
-1.3360611138454397
21
11.425522673373958
31
0
0
SPLINE
5
123
100
AcDbEntity
8
0
100
AcDbSpline
70
0
71
3
72
29
73
25
74
0
42
0.000000001
43
0.0000000001
44
0.0000000001
40
0.020009874820208648
40
0.020009874820208648
40
0.020009874820208648
40
0.020009874820208648
40
0.094942443218803643
40
0.094942443218803643
40
0.094942443218803643
40
0.19244988268323004
40
0.19244988268323004
40
0.19244988268323004
40
0.26985515725835135
40
0.26985515725835135
40
0.26985515725835135
40
0.36499786319671063
40
0.36499786319671063
40
0.36499786319671063
40
0.48895520165195361
40
0.48895520165195361
40
0.48895520165195361
40
0.60034348008750227
40
0.60034348008750227
40
0.60034348008750227
40
0.74543281695150831
40
0.74543281695150831
40
0.74543281695150831
40
0.80921779941723115
40
0.80921779941723115
40
0.80921779941723115
40
0.80921779941723115
10
-1.3360611140229928
20
11.42552268085149
30
0
10
-2.3494077671453844
20
11.401459941127555
30
0
10
-3.7320211216909174
20
11.507486858039893
30
0
10
-5.3628727126855447
20
11.818715832659116
30
0
10
-7.4850495735997882
20
12.22370849540666
30
0
10
-10.01037261711032
20
12.962010512729879
30
0
10
-12.259539177551241
20
13.934183672376665
30
0
10
-14.045016840920985
20
14.70593330266489
30
0
10
-15.618184200236991
20
15.606467206819501
30
0
10
-16.889802827850133
20
16.612410661532149
30
0
10
-18.452813072524371
20
17.848866223865418
30
0
10
-19.640879713719787
20
19.256095730387941
30
0
10
-20.735119223734308
20
21.234376918908747
30
0
10
-22.160756806313124
20
23.811794372265478
30
0
10
-23.348510932024084
20
27.398768478464909
30
0
10
-24.327814156214913
20
31.592243643643229
30
0
10
-25.207817724929686
20
35.360507670061459
30
0
10
-25.937649259477592
20
39.551340484949236
30
0
10
-26.584575792587088
20
44.244241592499414
30
0
10
-27.427233054256664
20
50.357002461290385
30
0
10
-28.127008520572101
20
57.416374611265127
30
0
10
-28.716093091586494
20
66.030882546526442
30
0
10
-28.975069732083508
20
69.818040510564174
30
0
10
-29.21209617892999
20
73.897754912406597
30
0
10
-29.428563911754924
20
78.285099902512201
30
0
0
LINE
5
124
100
AcDbEntity
8
0
100
AcDbLine
10
-29.428563911754924
20
78.285099902512187
30
0
11
-34.434608842931873
21
78.285099902586708
31
0
0
SPLINE
5
125
100
AcDbEntity
8
0
100
AcDbSpline
70
0
71
3
72
17
73
13
74
0
42
0.000000001
43
0.0000000001
44
0.0000000001
40
-0.81040303286797655
40
-0.81040303286797655
40
-0.81040303286797655
40
-0.81040303286797655
40
-0.70976175086573934
40
-0.70976175086573934
40
-0.70976175086573934
40
-0.54582202691397985
40
-0.54582202691397985
40
-0.54582202691397985
40
-0.43563644890563608
40
-0.43563644890563608
40
-0.43563644890563608
40
-0.39569293703130615
40
-0.39569293703130615
40
-0.39569293703130615
40
-0.39569293703130615
10
-34.434608842931873
20
78.285099902586708
30
0
10
-34.092187314483105
20
71.302216727347101
30
0
10
-33.697827509805805
20
65.081606860874516
30
0
10
-33.244025600977324
20
59.537346401167717
30
0
10
-32.504804496257414
20
50.50601739583189
30
0
10
-31.622957690503625
20
43.266862720458263
30
0
10
-30.490276551967202
20
36.845037337624703
30
0
10
-29.72898988550002
20
32.52886231536845
30
0
10
-28.853020960746782
20
28.555393184302027
30
0
10
-27.707882247394586
20
25.006727275282952
30
0
10
-27.2927565783068
20
23.720295952445042
30
0
10
-26.840911110889827
20
22.4987959495596
30
0
10
-26.343152632949693
20
21.347926260220028
30
0
0
ENDSEC
0
SECTION
2
OBJECTS
0
DICTIONARY
5
C
100
AcDbDictionary
3
ACAD_GROUP
350
D
3
ACAD_MLINESTYLE
350
17
0
DICTIONARY
5
D
100
AcDbDictionary
0
DICTIONARY
5
1A
330
C
100
AcDbDictionary
0
DICTIONARY
5
17
100
AcDbDictionary
0
ENDSEC
0
EOF
