0
SECTION
2
HEADER
9
$INSUNITS
70
4
9
$ACADVER
1
AC1014
9
$HANDSEED
5
FFFF
0
ENDSEC
0
SECTION
2
TABLES
0
TABLE
2
VPORT
5
8
100
AcDbSymbolTable
0
ENDTAB
0
TABLE
2
LTYPE
5
5
100
AcDbSymbolTable
0
LTYPE
5
14
100
AcDbSymbolTableRecord
100
AcDbLinetypeTableRecord
2
BYBLOCK
70
0
0
LTYPE
5
15
100
AcDbSymbolTableRecord
100
AcDbLinetypeTableRecord
2
BYLAYER
70
0
0
ENDTAB
0
TABLE
2
LAYER
5
2
100
AcDbSymbolTable
70
2
0
LAYER
5
50
100
AcDbSymbolTableRecord
100
AcDbLayerTableRecord
2
0
70
0
6
CONTINUOUS
0
ENDTAB
0
TABLE
2
STYLE
5
3
100
AcDbSymbolTable
70
1
0
STYLE
5
11
100
AcDbSymbolTableRecord
100
AcDbTextStyleTableRecord
2
STANDARD
70
0
0
ENDTAB
0
TABLE
2
VIEW
5
6
100
AcDbSymbolTable
70
0
0
ENDTAB
0
TABLE
2
UCS
5
7
100
AcDbSymbolTable
70
0
0
ENDTAB
0
TABLE
2
APPID
5
9
100
AcDbSymbolTable
70
2
0
APPID
5
12
100
AcDbSymbolTableRecord
100
AcDbRegAppTableRecord
2
ACAD
70
0
0
ENDTAB
0
TABLE
2
DIMSTYLE
5
A
100
AcDbSymbolTable
70
1
0
ENDTAB
0
TABLE
2
BLOCK_RECORD
5
1
100
AcDbSymbolTable
70
1
0
BLOCK_RECORD
5
1F
100
AcDbSymbolTableRecord
100
AcDbBlockTableRecord
2
*MODEL_SPACE
0
BLOCK_RECORD
5
1B
100
AcDbSymbolTableRecord
100
AcDbBlockTableRecord
2
*PAPER_SPACE
0
ENDTAB
0
ENDSEC
0
SECTION
2
BLOCKS
0
BLOCK
5
20
100
AcDbEntity
100
AcDbBlockBegin
2
*MODEL_SPACE
0
ENDBLK
5
21
100
AcDbEntity
100
AcDbBlockEnd
0
BLOCK
5
1C
100
AcDbEntity
100
AcDbBlockBegin
2
*PAPER_SPACE
0
ENDBLK
5
1D
100
AcDbEntity
100
AcDbBlockEnd
0
ENDSEC
0
SECTION
2
ENTITIES
0
SPLINE
5
100
100
AcDbEntity
8
0
100
AcDbSpline
70
0
71
3
72
23
73
19
74
0
42
0.000000001
43
0.0000000001
44
0.0000000001
40
-0.27628136401726122
40
-0.27628136401726122
40
-0.27628136401726122
40
-0.27628136401726122
40
-0.25299848563369765
40
-0.25299848563369765
40
-0.25299848563369765
40
-0.20457256066038745
40
-0.20457256066038745
40
-0.20457256066038745
40
-0.14618675000536824
40
-0.14618675000536824
40
-0.14618675000536824
40
-0.085905852458113358
40
-0.085905852458113358
40
-0.085905852458113358
40
0
40
0
40
0
40
0.00087221508287177842
40
0.00087221508287177842
40
0.00087221508287177842
40
0.00087221508287177842
10
20.514169672169849
20
33.125427896865972
30
0
10
20.220094311941487
20
33.062387972089844
30
0
10
19.924679020452558
20
33.003252772638973
30
0
10
19.565897168331979
20
32.931283727555098
30
0
10
18.819668855562806
20
32.78159572419839
30
0
10
17.831417088409051
20
32.57528069907589
30
0
10
16.547197590785228
20
32.304538010629535
30
0
10
14.99884933581491
20
31.978110970721218
30
0
10
13.011271952774216
20
31.563605035057513
30
0
10
10.978151319530447
20
31.21193795377101
30
0
10
8.8790396480674829
20
30.84885646085435
30
0
10
6.7976651843136899
20
30.577570799015973
30
0
10
5.1185392641592031
20
30.452908123753804
30
0
10
2.7256295792576375
20
30.275252285439343
30
0
10
1.082809063132911
20
30.344610783898865
30
0
10
0.030036555743847369
20
30.352516421816187
30
0
10
0.020024370989923199
20
30.352591606822322
30
0
10
0.010012186235924071
20
30.352666791828455
30
0
10
1.4813431340951477e-09
20
30.352741976834587
30
0
0
SPLINE
5
101
100
AcDbEntity
8
0
100
AcDbSpline
70
0
71
3
72
23
73
19
74
0
42
0.000000001
43
0.0000000001
44
0.0000000001
40
-0.00087221516897711786
40
-0.00087221516897711786
40
-0.00087221516897711786
40
-0.00087221516897711786
40
0
40
0
40
0
40
0.085905852458113358
40
0.085905852458113358
40
0.085905852458113358
40
0.14618675000536824
40
0.14618675000536824
40
0.14618675000536824
40
0.20457256066038745
40
0.20457256066038745
40
0.20457256066038745
40
0.25299848563369765
40
0.25299848563369765
40
0.25299848563369765
40
0.27628136401726056
40
0.27628136401726056
40
0.27628136401726056
40
0.27628136401726056
10
1.4819260402143541e-09
20
30.352741976856841
30
0
10
-0.01001218425911219
20
30.352666791843301
30
0
10
-0.020024370001517255
20
30.352591606829744
30
0
10
-0.030036555743847369
20
30.352516421816187
30
0
10
-1.082809063132911
20
30.344610783898865
30
0
10
-2.7256295792576375
20
30.275252285439343
30
0
10
-5.1185392641592031
20
30.452908123753804
30
0
10
-6.7976651843136899
20
30.577570799015973
30
0
10
-8.8790396480674829
20
30.84885646085435
30
0
10
-10.978151319530447
20
31.21193795377101
30
0
10
-13.011271952774216
20
31.563605035057513
30
0
10
-14.99884933581491
20
31.978110970721218
30
0
10
-16.547197590785228
20
32.304538010629535
30
0
10
-17.831417088409051
20
32.57528069907589
30
0
10
-18.819668855562806
20
32.78159572419839
30
0
10
-19.565897168331979
20
32.931283727555098
30
0
10
-19.924679020452551
20
33.003252772638966
30
0
10
-20.220094311941523
20
33.062387972089851
30
0
10
-20.514169672169874
20
33.125427896865979
30
0
0
SPLINE
5
102
100
AcDbEntity
8
0
100
AcDbSpline
70
0
71
3
72
29
73
25
74
0
42
0.000000001
43
0.0000000001
44
0.0000000001
40
0.4557556844030804
40
0.4557556844030804
40
0.4557556844030804
40
0.4557556844030804
40
0.46058555017890696
40
0.46058555017890696
40
0.46058555017890696
40
0.52745915409149169
40
0.52745915409149169
40
0.52745915409149169
40
0.60881236467162159
40
0.60881236467162159
40
0.60881236467162159
40
0.70059893878306934
40
0.70059893878306934
40
0.70059893878306934
40
0.80386338492223031
40
0.80386338492223031
40
0.80386338492223031
40
0.88197866708419492
40
0.88197866708419492
40
0.88197866708419492
40
0.9429005533290894
40
0.9429005533290894
40
0.9429005533290894
40
0.99631585447027238
40
0.99631585447027238
40
0.99631585447027238
40
0.99631585447027238
10
-20.514169672169924
20
33.125427896865986
30
0
10
-20.533328920185792
20
33.234289441190661
30
0
10
-20.552586788697063
20
33.34337080433825
30
0
10
-20.57259101125625
20
33.456300077458387
30
0
10
-20.849566504591376
20
35.019902014093951
30
0
10
-21.238436154300629
20
37.078997500512138
30
0
10
-21.661354711941385
20
39.163959881495288
30
0
10
-22.175844442791952
20
41.700362493406132
30
0
10
-22.733707337836677
20
44.284685332595529
30
0
10
-23.22952738103314
20
46.863337400573116
30
0
10
-23.788935212835526
20
49.772695709326484
30
0
10
-24.267299961311338
20
52.762109156020848
30
0
10
-24.673862017750952
20
55.914993088913278
30
0
10
-25.131264486313057
20
59.462143815727345
30
0
10
-25.518205672321645
20
63.203194303597918
30
0
10
-25.886998501656493
20
66.549330742180487
30
0
10
-26.165975022616841
20
69.080544551239825
30
0
10
-26.426951842613356
20
71.336468612230149
30
0
10
-26.617869392743245
20
73.08158389268327
30
0
10
-26.766765446745211
20
74.442594333374728
30
0
10
-26.868162869625078
20
75.4742599907878
30
0
10
-26.942048733875772
20
76.435868480559336
30
0
10
-27.006830636280483
20
77.278990882491996
30
0
10
-27.057058272991881
20
78.127685989658303
30
0
10
-27.112889920594803
20
79.154885554939924
30
0
0
LINE
5
103
100
AcDbEntity
8
0
100
AcDbLine
10
-27.112889920594803
20
79.154885554939924
30
0
11
-31.11873868452594
21
79.154885554940023
31
0
0
SPLINE
5
104
100
AcDbEntity
8
0
100
AcDbSpline
70
4
71
5
72
61
73
55
74
0
42
0.000000001
43
0.0000000001
44
0.0000000001
40
-1
40
-1
40
-1
40
-1
40
-1
40
-1
40
-0.98181818181818203
40
-0.96363636363636385
40
-0.94545454545454566
40
-0.92727272727272747
40
-0.90909090909090928
40
-0.89090909090909109
40
-0.87272727272727291
40
-0.85454545454545472
40
-0.83636363636363653
40
-0.81818181818181834
40
-0.80000000000000016
40
-0.78181818181818197
40
-0.76363636363636378
40
-0.74545454545454559
40
-0.7272727272727274
40
-0.70909090909090922
40
-0.69090909090909103
40
-0.67272727272727284
40
-0.65454545454545465
40
-0.63636363636363646
40
-0.61818181818181828
40
-0.60000000000000009
40
-0.5818181818181819
40
-0.56363636363636371
40
-0.54545454545454553
40
-0.52727272727272734
40
-0.50909090909090915
40
-0.49090909090909102
40
-0.47272727272727283
40
-0.45454545454545464
40
-0.43636363636363645
40
-0.41818181818181827
40
-0.40000000000000008
40
-0.38181818181818189
40
-0.3636363636363637
40
-0.34545454545454551
40
-0.32727272727272733
40
-0.30909090909090914
40
-0.29090909090909095
40
-0.27272727272727276
40
-0.25454545454545457
40
-0.23636363636363641
40
-0.21818181818181823
40
-0.20000000000000004
40
-0.18181818181818185
40
-0.16363636363636366
40
-0.14545454545454548
40
-0.12727272727272729
40
-0.1090909090909091
40
-0.10608958378856657
40
-0.10608958378856657
40
-0.10608958378856657
40
-0.10608958378856657
40
-0.10608958378856657
40
-0.10608958378856657
41
1
41
1
41
1
41
1
41
1
41
1
41
1
41
1
41
1
41
1
41
1
41
1
41
1
41
1
41
1
41
1
41
1
41
1
41
1
41
1
41
1
41
1
41
1
41
1
41
1
41
1
41
1
41
1
41
1
41
1
41
1
41
1
41
1
41
1
41
1
41
1
41
1
41
1
41
1
41
1
41
1
41
1
41
1
41
1
41
1
41
1
41
1
41
1
41
1
41
1
41
1
41
1
41
1
41
1
41
1
10
-31.11873868452594
20
79.154885554940037
30
0
10
-31.107025555758582
20
78.937431425053262
30
0
10
-31.08382632938579
20
78.512998922209619
30
0
10
-31.049708144397702
20
77.907774746837333
30
0
10
-31.004564712358814
20
77.155677587895269
30
0
10
-30.942995939147938
20
76.260524299761201
30
0
10
-30.869372150213191
20
75.351319148373236
30
0
10
-30.777363838633537
20
74.369232607743058
30
0
10
-30.663482069756558
20
73.271227370910978
30
0
10
-30.527643520418689
20
72.035351813061368
30
0
10
-30.371951395734161
20
70.655151551180523
30
0
10
-30.199957523622714
20
69.137019244927899
30
0
10
-30.01573218962848
20
67.49637905512904
30
0
10
-29.823018720738478
20
65.754396707140103
30
0
10
-29.624351108119722
20
63.934480319037689
30
0
10
-29.420187160459857
20
62.058884006751867
30
0
10
-29.209385001769952
20
60.148297394370154
30
0
10
-28.989678633649056
20
58.221443919616796
30
0
10
-28.758149920869268
20
56.29467686647093
30
0
10
-28.511702932521111
20
54.381559522089766
30
0
10
-28.247530979777032
20
52.492474240055039
30
0
10
-27.963600806757206
20
50.634146471616504
30
0
10
-27.659099906234083
20
48.809349323663824
30
0
10
-27.334979040574719
20
47.016150784710604
30
0
10
-26.994186379265098
20
45.248601817154352
30
0
10
-26.64124807673182
20
43.499862461488384
30
0
10
-26.282116423825311
20
41.764955705849459
30
0
10
-25.923662828028338
20
40.043301385202703
30
0
10
-25.573901015908937
20
38.342203110689738
30
0
10
-25.240563356399271
20
36.677967508295573
30
0
10
-24.933486773082073
20
35.08264139881328
30
0
10
-24.65816241786171
20
33.597791219160804
30
0
10
-24.429774866851229
20
32.29687936784768
30
0
10
-24.239221819232107
20
31.21679064589221
30
0
10
-24.130234361545515
20
30.476911762833812
30
0
10
-24.018482983464551
20
29.967101833772844
30
0
10
-24.111509456355176
20
30.038493147645525
30
0
10
-23.89424529945035
20
29.782930182633606
30
0
10
-24.066596559145491
20
29.815552815422738
30
0
10
-23.610983198049841
20
29.761678170757421
30
0
10
-22.781092176541073
20
29.540278696818888
30
0
10
-21.956986232768379
20
29.345534816321241
30
0
10
-21.203061302174696
20
29.178115585178801
30
0
10
-20.456591137997677
20
29.03071900456364
30
0
10
-19.575274465285407
20
28.854003964667747
30
0
10
-18.454926634384854
20
28.620057844160392
30
0
10
-17.062462917202055
20
28.324057574070057
30
0
10
-15.413272069238612
20
27.979035136132559
30
0
10
-13.561974832927655
20
27.609773403955593
30
0
10
-11.587859136531147
20
27.247218305770691
30
0
10
-9.9176088482971636
20
26.976939831960394
30
0
10
-8.6784641656789212
20
26.803655108552956
30
0
10
-7.8581114353689019
20
26.702717384397829
30
0
10
-7.426197972982358
20
26.653629449314231
30
0
10
-7.3651984033112274
20
26.646779685671248
30
0
0
SPLINE
5
105
100
AcDbEntity
8
0
100
AcDbSpline
70
4
71
5
72
12
73
6
74
0
42
0.000000001
43
0.0000000001
44
0.0000000001
40
-1
40
-1
40
-1
40
-1
40
-1
40
-1
40
-0.93932470898725429
40
-0.93932470898725429
40
-0.93932470898725429
40
-0.93932470898725429
40
-0.93932470898725429
40
-0.93932470898725429
41
1
41
1
41
1
41
1
41
1
41
1
10
-7.3651984033112283
20
26.646779685671245
30
0
10
-7.2348198470770742
20
26.633312537819549
30
0
10
-7.1058320992537354
20
26.619787014558426
30
0
10
-6.9782351494075119
20
26.606203116325801
30
0
10
-6.8520332180697388
20
26.592560665976315
30
0
10
-6.7272350725012942
20
26.578859295527991
30
0
0
SPLINE
5
106
100
AcDbEntity
8
0
100
AcDbSpline
70
4
71
5
72
21
73
15
74
0
42
0.000000001
43
0.0000000001
44
0.0000000001
40
-0.93932470898702569
40
-0.93932470898702569
40
-0.93932470898702569
40
-0.93932470898702569
40
-0.93932470898702569
40
-0.93932470898702569
40
-0.89999999999999991
40
-0.79999999999999993
40
-0.69999999999999996
40
-0.59999999999999998
40
-0.5
40
-0.40000000000000002
40
-0.30000000000000004
40
-0.20000000000000001
40
-0.10000000000000001
40
0
40
0
40
0
40
0
40
0
40
0
41
1
41
1
41
1
41
1
41
1
41
1
41
1
41
1
41
1
41
1
41
1
41
1
41
1
41
1
41
1
10
-6.7272350724989423
20
26.578859295527725
30
0
10
-6.6463512287680935
20
26.569979199584047
30
0
10
-6.3618745512132735
20
26.538429950615626
30
0
10
-5.8859811453970465
20
26.483700489628351
30
0
10
-5.2429236447419996
20
26.404772878138061
30
0
10
-4.4721311329939626
20
26.299992187337029
30
0
10
-3.6876601335300121
20
26.176846179950516
30
0
10
-3.0086174107405124
20
26.049275106713932
30
0
10
-2.4478887339629263
20
25.916738122427549
30
0
10
-2.0157479518377088
20
25.778804010177396
30
0
10
-1.7129301356381608
20
25.635441917349794
30
0
10
-1.5693678414500678
20
25.516609915926814
30
0
10
-1.5144952640064964
20
25.425269814102922
30
0
10
-1.500985824836143
20
25.363408016581765
30
0
10
-1.5000000000000002
20
25.332234984119054
30
0
0
LINE
5
107
100
AcDbEntity
8
0
100
AcDbLine
10
-1.5000000000000002
20
25.332234984119054
30
0
11
-1.5000000000000002
21
26.832234984119054
31
0
0
LINE
5
108
100
AcDbEntity
8
0
100
AcDbLine
10
-1.5000000000000002
20
26.832234984119054
30
0
11
1.5000000000000002
21
26.832234984119054
31
0
0
LINE
5
109
100
AcDbEntity
8
0
100
AcDbLine
10
1.5000000000000002
20
26.832234984119054
30
0
11
1.5000000000000002
21
25.332234984119054
31
0
0
SPLINE
5
110
100
AcDbEntity
8
0
100
AcDbSpline
70
4
71
5
72
21
73
15
74
0
42
0.000000001
43
0.0000000001
44
0.0000000001
40
0
40
0
40
0
40
0
40
0
40
0
40
0.10000000000000001
40
0.20000000000000001
40
0.30000000000000004
40
0.40000000000000002
40
0.5
40
0.59999999999999998
40
0.69999999999999996
40
0.79999999999999993
40
0.89999999999999991
40
0.93932470898702569
40
0.93932470898702569
40
0.93932470898702569
40
0.93932470898702569
40
0.93932470898702569
40
0.93932470898702569
41
1
41
1
41
1
41
1
41
1
41
1
41
1
41
1
41
1
41
1
41
1
41
1
41
1
41
1
41
1
10
1.5000000000000002
20
25.332234984119054
30
0
10
1.500985824836143
20
25.363408016581765
30
0
10
1.5144952640064964
20
25.425269814102922
30
0
10
1.5693678414500678
20
25.516609915926814
30
0
10
1.7129301356381608
20
25.635441917349794
30
0
10
2.0157479518377088
20
25.778804010177396
30
0
10
2.4478887339629263
20
25.916738122427549
30
0
10
3.0086174107405124
20
26.049275106713932
30
0
10
3.6876601335300121
20
26.176846179950516
30
0
10
4.4721311329939626
20
26.299992187337029
30
0
10
5.2429236447419996
20
26.404772878138061
30
0
10
5.8859811453970465
20
26.483700489628351
30
0
10
6.3618745512132735
20
26.538429950615626
30
0
10
6.6463512287680935
20
26.569979199584047
30
0
10
6.7272350724989423
20
26.578859295527725
30
0
0
SPLINE
5
111
100
AcDbEntity
8
0
100
AcDbSpline
70
4
71
5
72
12
73
6
74
0
42
0.000000001
43
0.0000000001
44
0.0000000001
40
0.93932470898725429
40
0.93932470898725429
40
0.93932470898725429
40
0.93932470898725429
40
0.93932470898725429
40
0.93932470898725429
40
1
40
1
40
1
40
1
40
1
40
1
41
1
41
1
41
1
41
1
41
1
41
1
10
6.7272350725012942
20
26.578859295527991
30
0
10
6.8520332180697388
20
26.592560665976315
30
0
10
6.9782351494075119
20
26.606203116325801
30
0
10
7.1058320992537354
20
26.619787014558426
30
0
10
7.2348198470770742
20
26.633312537819549
30
0
10
7.3651984033112283
20
26.646779685671245
30
0
0
SPLINE
5
112
100
AcDbEntity
8
0
100
AcDbSpline
70
4
71
5
72
61
73
55
74
0
42
0.000000001
43
0.0000000001
44
0.0000000001
40
0.10608958378856657
40
0.10608958378856657
40
0.10608958378856657
40
0.10608958378856657
40
0.10608958378856657
40
0.10608958378856657
40
0.1090909090909091
40
0.12727272727272729
40
0.14545454545454548
40
0.16363636363636366
40
0.18181818181818185
40
0.20000000000000004
40
0.21818181818181823
40
0.23636363636363641
40
0.25454545454545457
40
0.27272727272727276
40
0.29090909090909095
40
0.30909090909090914
40
0.32727272727272733
40
0.34545454545454551
40
0.3636363636363637
40
0.38181818181818189
40
0.40000000000000008
40
0.41818181818181827
40
0.43636363636363645
40
0.45454545454545464
40
0.47272727272727283
40
0.49090909090909102
40
0.50909090909090915
40
0.52727272727272734
40
0.54545454545454553
40
0.56363636363636371
40
0.5818181818181819
40
0.60000000000000009
40
0.61818181818181828
40
0.63636363636363646
40
0.65454545454545465
40
0.67272727272727284
40
0.69090909090909103
40
0.70909090909090922
40
0.7272727272727274
40
0.74545454545454559
40
0.76363636363636378
40
0.78181818181818197
40
0.80000000000000016
40
0.81818181818181834
40
0.83636363636363653
40
0.85454545454545472
40
0.87272727272727291
40
0.89090909090909109
40
0.90909090909090928
40
0.92727272727272747
40
0.94545454545454566
40
0.96363636363636385
40
0.98181818181818203
40
1
40
1
40
1
40
1
40
1
40
1
41
1
41
1
41
1
41
1
41
1
41
1
41
1
41
1
41
1
41
1
41
1
41
1
41
1
41
1
41
1
41
1
41
1
41
1
41
1
41
1
41
1
41
1
41
1
41
1
41
1
41
1
41
1
41
1
41
1
41
1
41
1
41
1
41
1
41
1
41
1
41
1
41
1
41
1
41
1
41
1
41
1
41
1
41
1
41
1
41
1
41
1
41
1
41
1
41
1
41
1
41
1
41
1
41
1
41
1
41
1
10
7.3651984033112274
20
26.646779685671248
30
0
10
7.426197972982358
20
26.653629449314231
30
0
10
7.8581114353689019
20
26.702717384397829
30
0
10
8.6784641656789212
20
26.803655108552956
30
0
10
9.9176088482971636
20
26.976939831960394
30
0
10
11.587859136531147
20
27.247218305770691
30
0
10
13.561974832927655
20
27.609773403955593
30
0
10
15.413272069238612
20
27.979035136132559
30
0
10
17.062462917202055
20
28.324057574070057
30
0
10
18.454926634384854
20
28.620057844160392
30
0
10
19.575274465285407
20
28.854003964667747
30
0
10
20.456591137997677
20
29.03071900456364
30
0
10
21.203061302174696
20
29.178115585178801
30
0
10
21.956986232768379
20
29.345534816321241
30
0
10
22.781092176541073
20
29.540278696818888
30
0
10
23.610983198049841
20
29.761678170757421
30
0
10
24.066596559145491
20
29.815552815422738
30
0
10
23.89424529945035
20
29.782930182633606
30
0
10
24.111509456355176
20
30.038493147645525
30
0
10
24.018482983464551
20
29.967101833772844
30
0
10
24.130234361545515
20
30.476911762833812
30
0
10
24.239221819232107
20
31.21679064589221
30
0
10
24.429774866851229
20
32.29687936784768
30
0
10
24.65816241786171
20
33.597791219160804
30
0
10
24.933486773082073
20
35.08264139881328
30
0
10
25.240563356399271
20
36.677967508295573
30
0
10
25.573901015908937
20
38.342203110689738
30
0
10
25.923662828028338
20
40.043301385202703
30
0
10
26.282116423825311
20
41.764955705849459
30
0
10
26.64124807673182
20
43.499862461488384
30
0
10
26.994186379265098
20
45.248601817154352
30
0
10
27.334979040574719
20
47.016150784710604
30
0
10
27.659099906234083
20
48.809349323663824
30
0
10
27.963600806757206
20
50.634146471616504
30
0
10
28.247530979777032
20
52.492474240055039
30
0
10
28.511702932521111
20
54.381559522089766
30
0
10
28.758149920869268
20
56.29467686647093
30
0
10
28.989678633649056
20
58.221443919616796
30
0
10
29.209385001769952
20
60.148297394370154
30
0
10
29.420187160459857
20
62.058884006751867
30
0
10
29.624351108119722
20
63.934480319037689
30
0
10
29.823018720738478
20
65.754396707140103
30
0
10
30.01573218962848
20
67.49637905512904
30
0
10
30.199957523622714
20
69.137019244927899
30
0
10
30.371951395734161
20
70.655151551180523
30
0
10
30.527643520418689
20
72.035351813061368
30
0
10
30.663482069756558
20
73.271227370910978
30
0
10
30.777363838633537
20
74.369232607743058
30
0
10
30.869372150213191
20
75.351319148373236
30
0
10
30.942995939147938
20
76.260524299761201
30
0
10
31.004564712358814
20
77.155677587895269
30
0
10
31.049708144397702
20
77.907774746837333
30
0
10
31.08382632938579
20
78.512998922209619
30
0
10
31.107025555758582
20
78.937431425053262
30
0
10
31.11873868452594
20
79.154885554940037
30
0
0
LINE
5
113
100
AcDbEntity
8
0
100
AcDbLine
10
31.11873868452594
20
79.154885554940037
30
0
11
27.112889920594803
21
79.154885554939924
31
0
0
SPLINE
5
114
100
AcDbEntity
8
0
100
AcDbSpline
70
0
71
3
72
29
73
25
74
0
42
0.000000001
43
0.0000000001
44
0.0000000001
40
-0.99631585447027238
40
-0.99631585447027238
40
-0.99631585447027238
40
-0.99631585447027238
40
-0.9429005533290894
40
-0.9429005533290894
40
-0.9429005533290894
40
-0.88197866708419492
40
-0.88197866708419492
40
-0.88197866708419492
40
-0.80386338492223031
40
-0.80386338492223031
40
-0.80386338492223031
40
-0.70059893878306934
40
-0.70059893878306934
40
-0.70059893878306934
40
-0.60881236467162159
40
-0.60881236467162159
40
-0.60881236467162159
40
-0.52745915409149169
40
-0.52745915409149169
40
-0.52745915409149169
40
-0.46058555017890696
40
-0.46058555017890696
40
-0.46058555017890696
40
-0.4557556844030809
40
-0.4557556844030809
40
-0.4557556844030809
40
-0.4557556844030809
10
27.112889920594803
20
79.154885554939924
30
0
10
27.057058272991881
20
78.127685989658303
30
0
10
27.006830636280483
20
77.278990882491996
30
0
10
26.942048733875772
20
76.435868480559336
30
0
10
26.868162869625078
20
75.4742599907878
30
0
10
26.766765446745211
20
74.442594333374728
30
0
10
26.617869392743245
20
73.08158389268327
30
0
10
26.426951842613356
20
71.336468612230149
30
0
10
26.165975022616841
20
69.080544551239825
30
0
10
25.886998501656493
20
66.549330742180487
30
0
10
25.518205672321645
20
63.203194303597918
30
0
10
25.131264486313057
20
59.462143815727345
30
0
10
24.673862017750952
20
55.914993088913278
30
0
10
24.267299961311338
20
52.762109156020848
30
0
10
23.788935212835526
20
49.772695709326484
30
0
10
23.22952738103314
20
46.863337400573116
30
0
10
22.733707337836677
20
44.284685332595529
30
0
10
22.175844442791952
20
41.700362493406132
30
0
10
21.661354711941385
20
39.163959881495288
30
0
10
21.238436154300629
20
37.078997500512138
30
0
10
20.849566504591376
20
35.019902014093951
30
0
10
20.57259101125625
20
33.456300077458387
30
0
10
20.55258678869707
20
33.343370804338257
30
0
10
20.533328920185788
20
33.23428944119064
30
0
10
20.514169672169924
20
33.125427896865972
30
0
0
ENDSEC
0
SECTION
2
OBJECTS
0
DICTIONARY
5
C
100
AcDbDictionary
3
ACAD_GROUP
350
D
3
ACAD_MLINESTYLE
350
17
0
DICTIONARY
5
D
100
AcDbDictionary
0
DICTIONARY
5
1A
330
C
100
AcDbDictionary
0
DICTIONARY
5
17
100
AcDbDictionary
0
ENDSEC
0
EOF
