0
SECTION
2
HEADER
9
$INSUNITS
70
4
9
$ACADVER
1
AC1014
9
$HANDSEED
5
FFFF
0
ENDSEC
0
SECTION
2
TABLES
0
TABLE
2
VPORT
5
8
100
AcDbSymbolTable
0
ENDTAB
0
TABLE
2
LTYPE
5
5
100
AcDbSymbolTable
0
LTYPE
5
14
100
AcDbSymbolTableRecord
100
AcDbLinetypeTableRecord
2
BYBLOCK
70
0
0
LTYPE
5
15
100
AcDbSymbolTableRecord
100
AcDbLinetypeTableRecord
2
BYLAYER
70
0
0
ENDTAB
0
TABLE
2
LAYER
5
2
100
AcDbSymbolTable
70
2
0
LAYER
5
50
100
AcDbSymbolTableRecord
100
AcDbLayerTableRecord
2
0
70
0
6
CONTINUOUS
0
ENDTAB
0
TABLE
2
STYLE
5
3
100
AcDbSymbolTable
70
1
0
STYLE
5
11
100
AcDbSymbolTableRecord
100
AcDbTextStyleTableRecord
2
STANDARD
70
0
0
ENDTAB
0
TABLE
2
VIEW
5
6
100
AcDbSymbolTable
70
0
0
ENDTAB
0
TABLE
2
UCS
5
7
100
AcDbSymbolTable
70
0
0
ENDTAB
0
TABLE
2
APPID
5
9
100
AcDbSymbolTable
70
2
0
APPID
5
12
100
AcDbSymbolTableRecord
100
AcDbRegAppTableRecord
2
ACAD
70
0
0
ENDTAB
0
TABLE
2
DIMSTYLE
5
A
100
AcDbSymbolTable
70
1
0
ENDTAB
0
TABLE
2
BLOCK_RECORD
5
1
100
AcDbSymbolTable
70
1
0
BLOCK_RECORD
5
1F
100
AcDbSymbolTableRecord
100
AcDbBlockTableRecord
2
*MODEL_SPACE
0
BLOCK_RECORD
5
1B
100
AcDbSymbolTableRecord
100
AcDbBlockTableRecord
2
*PAPER_SPACE
0
ENDTAB
0
ENDSEC
0
SECTION
2
BLOCKS
0
BLOCK
5
20
100
AcDbEntity
100
AcDbBlockBegin
2
*MODEL_SPACE
0
ENDBLK
5
21
100
AcDbEntity
100
AcDbBlockEnd
0
BLOCK
5
1C
100
AcDbEntity
100
AcDbBlockBegin
2
*PAPER_SPACE
0
ENDBLK
5
1D
100
AcDbEntity
100
AcDbBlockEnd
0
ENDSEC
0
SECTION
2
ENTITIES
0
LINE
5
100
100
AcDbEntity
8
0
100
AcDbLine
10
224.59012268865359
20
20.79087637399163
30
0
11
222.59049187726421
21
20.829303163374853
31
0
0
LINE
5
101
100
AcDbEntity
8
0
100
AcDbLine
10
222.59049187726421
20
20.829303163374853
30
0
11
222.53286233323911
21
17.830410626981575
31
0
0
LINE
5
102
100
AcDbEntity
8
0
100
AcDbLine
10
222.53286233323911
20
17.830410626981575
30
0
11
215.66603321115423
21
17.962370084148361
31
0
0
LINE
5
103
100
AcDbEntity
8
0
100
AcDbLine
10
215.66603321115423
20
17.962370084148361
30
0
11
215.60840366712912
21
14.963477547755096
31
0
0
LINE
5
104
100
AcDbEntity
8
0
100
AcDbLine
10
215.60840366712912
20
14.963477547755096
30
0
11
212.44686088174984
21
15.024232732186068
31
0
0
SPLINE
5
105
100
AcDbEntity
8
0
100
AcDbSpline
70
4
71
5
72
12
73
6
74
0
42
0.000000001
43
0.0000000001
44
0.0000000001
40
-0.48255361415837739
40
-0.48255361415837739
40
-0.48255361415837739
40
-0.48255361415837739
40
-0.48255361415837739
40
-0.48255361415837739
40
-0.47978415580121658
40
-0.47978415580121658
40
-0.47978415580121658
40
-0.47978415580121658
40
-0.47978415580121658
40
-0.47978415580121658
41
1
41
1
41
1
41
1
41
1
41
1
10
212.44686088174984
20
15.024232732186061
30
0
10
212.4383855405282
20
15.016839736209683
30
0
10
212.42990862091332
20
15.009436671332432
30
0
10
212.42142973183462
20
15.002023493827295
30
0
10
212.41294848200496
20
14.994600161974631
30
0
10
212.40446447993068
20
14.987166636045631
30
0
0
LINE
5
106
100
AcDbEntity
8
0
100
AcDbLine
10
212.40446447993071
20
14.987166636045631
30
0
11
210.4048336685413
21
15.025593425428838
31
0
0
LINE
5
107
100
AcDbEntity
8
0
100
AcDbLine
10
210.4048336685413
20
15.025593425428838
30
0
11
210.34793180941335
21
12.064567730493556
31
0
0
LINE
5
108
100
AcDbEntity
8
0
100
AcDbLine
10
210.34793180941335
20
12.064567730493556
30
0
11
205.27024850596894
21
12.162145276180896
31
0
0
LINE
5
109
100
AcDbEntity
8
0
100
AcDbLine
10
205.27024850596894
20
12.162145276180896
30
0
11
205.21261896194386
21
9.1632527397876231
31
0
0
LINE
5
110
100
AcDbEntity
8
0
100
AcDbLine
10
205.21261896194386
20
9.1632527397876231
30
0
11
195.77562273264851
21
9.3446029492602527
31
0
0
LINE
5
111
100
AcDbEntity
8
0
100
AcDbLine
10
195.77562273264851
20
9.3446029492602527
30
0
11
195.77562273265926
21
7.9174566035104155
31
0
0
LINE
5
112
100
AcDbEntity
8
0
100
AcDbLine
10
195.77562273265926
20
7.9174566035104155
30
0
11
192.77562273265929
21
7.9174566035104155
31
0
0
LINE
5
113
100
AcDbEntity
8
0
100
AcDbLine
10
192.77562273265929
20
7.9174566035104155
30
0
11
192.7756215292938
21
9.3486657449866595
31
0
0
SPLINE
5
114
100
AcDbEntity
8
0
100
AcDbSpline
70
4
71
5
72
12
73
6
74
0
42
0.000000001
43
0.0000000001
44
0.0000000001
40
-0.066435827426356522
40
-0.066435827426356522
40
-0.066435827426356522
40
-0.066435827426356522
40
-0.066435827426356522
40
-0.066435827426356522
40
0
40
0
40
0
40
0
40
0
40
0
41
1
41
1
41
1
41
1
41
1
41
1
10
192.77562152929374
20
9.3486657449866577
30
0
10
191.35317669384506
20
9.2941264769914262
30
0
10
189.84462886158644
20
9.2605990625983026
30
0
10
188.24808776555952
20
9.2491802479718839
30
0
10
186.56247592931703
20
9.2605214262061857
30
0
10
184.78778933121734
20
9.2946254756827074
30
0
0
LINE
5
115
100
AcDbEntity
8
0
100
AcDbLine
10
184.78778933121734
20
9.2946254756827074
30
0
11
139.75639275933867
21
10.159991213119792
31
0
0
LINE
5
116
100
AcDbEntity
8
0
100
AcDbLine
10
139.75639275933867
20
10.159991213119792
30
0
11
139.75639275933867
21
8.6885396835843043
31
0
0
LINE
5
117
100
AcDbEntity
8
0
100
AcDbLine
10
139.75639275933867
20
8.6885396835843043
30
0
11
136.75639275933867
21
8.6885396835843043
31
0
0
LINE
5
118
100
AcDbEntity
8
0
100
AcDbLine
10
136.75639275933867
20
8.6885396835843043
30
0
11
136.75639275933867
21
10.217642039208815
31
0
0
LINE
5
119
100
AcDbEntity
8
0
100
AcDbLine
10
136.75639275933867
20
10.217642039208815
30
0
11
97.763585348376296
21
10.96696455879955
31
0
0
LINE
5
120
100
AcDbEntity
8
0
100
AcDbLine
10
97.763585348376296
20
10.96696455879955
30
0
11
97.763585348376296
21
9.4955130292640622
31
0
0
LINE
5
121
100
AcDbEntity
8
0
100
AcDbLine
10
97.763585348376296
20
9.4955130292640622
30
0
11
94.763585348376296
21
9.4955130292640622
31
0
0
LINE
5
122
100
AcDbEntity
8
0
100
AcDbLine
10
94.763585348376296
20
9.4955130292640622
30
0
11
94.763585348376296
21
11.024615384888573
31
0
0
LINE
5
123
100
AcDbEntity
8
0
100
AcDbLine
10
94.763585348376296
20
11.024615384888573
30
0
11
88.739695283835559
21
11.140376131051983
31
0
0
SPLINE
5
124
100
AcDbEntity
8
0
100
AcDbSpline
70
4
71
5
72
13
73
7
74
0
42
0.000000001
43
0.0000000001
44
0.0000000001
40
-1
40
-1
40
-1
40
-1
40
-1
40
-1
40
-0.9600000000000003
40
-0.95261608874871428
40
-0.95261608874871428
40
-0.95261608874871428
40
-0.95261608874871428
40
-0.95261608874871428
40
-0.95261608874871428
41
1
41
1
41
1
41
1
41
1
41
1
41
1
10
88.739695283835559
20
11.140376131051983
30
0
10
87.374110870353718
20
11.166618487562491
30
0
10
85.86335135988179
20
11.217998424809405
30
0
10
84.479235970847412
20
11.293417795822558
30
0
10
83.216543200117769
20
11.392313477372902
30
0
10
82.065969150300333
20
11.51369208520331
30
0
10
81.889358584005706
20
11.533148685381001
30
0
0
LINE
5
125
100
AcDbEntity
8
0
100
AcDbLine
10
81.889358584005691
20
11.533148685381001
30
0
11
74.743674121668136
21
11.670466889456081
31
0
0
LINE
5
126
100
AcDbEntity
8
0
100
AcDbLine
10
74.743674121668136
20
11.670466889456081
30
0
11
74.80130366569324
21
14.669359425849356
31
0
0
LINE
5
127
100
AcDbEntity
8
0
100
AcDbLine
10
74.80130366569324
20
14.669359425849356
30
0
11
68.13705174013225
21
14.797425968774011
31
0
0
LINE
5
128
100
AcDbEntity
8
0
100
AcDbLine
10
68.13705174013225
20
14.797425968774011
30
0
11
68.194681284157355
21
17.796318505167285
31
0
0
LINE
5
129
100
AcDbEntity
8
0
100
AcDbLine
10
68.194681284157355
20
17.796318505167285
30
0
11
61.728489949079304
21
17.920578929206268
31
0
0
LINE
5
130
100
AcDbEntity
8
0
100
AcDbLine
10
61.728489949079304
20
17.920578929206268
30
0
11
61.786119493104437
21
20.919471465599543
31
0
0
LINE
5
131
100
AcDbEntity
8
0
100
AcDbLine
10
61.786119493104437
20
20.919471465599543
30
0
11
55.492592854699581
21
21.040413802171976
31
0
0
LINE
5
132
100
AcDbEntity
8
0
100
AcDbLine
10
55.492592854699581
20
21.040413802171976
30
0
11
55.550222398728941
21
24.039306338654825
31
0
0
LINE
5
133
100
AcDbEntity
8
0
100
AcDbLine
10
55.550222398728941
20
24.039306338654825
30
0
11
49.08089606176226
21
24.163627007756272
31
0
0
LINE
5
134
100
AcDbEntity
8
0
100
AcDbLine
10
49.08089606176226
20
24.163627007756272
30
0
11
49.138525605790235
21
27.162519544166415
31
0
0
LINE
5
135
100
AcDbEntity
8
0
100
AcDbLine
10
49.138525605790235
20
27.162519544166415
30
0
11
48.138710200095538
21
27.181732938858865
31
0
0
SPLINE
5
136
100
AcDbEntity
8
0
100
AcDbSpline
70
4
71
5
72
12
73
6
74
0
42
0.000000001
43
0.0000000001
44
0.0000000001
40
-0.5391832009051819
40
-0.5391832009051819
40
-0.5391832009051819
40
-0.5391832009051819
40
-0.5391832009051819
40
-0.5391832009051819
40
-0.53120897999377692
40
-0.53120897999377692
40
-0.53120897999377692
40
-0.53120897999377692
40
-0.53120897999377692
40
-0.53120897999377692
41
1
41
1
41
1
41
1
41
1
41
1
10
48.138710200095538
20
27.181732938858872
30
0
10
47.990346074145037
20
27.274033003072699
30
0
10
47.842389978057142
20
27.366628933361721
30
0
10
47.694848973641548
20
27.459516979746397
30
0
10
47.547729321110026
20
27.552693205362829
30
0
10
47.401036547267275
20
27.646153508358843
30
0
0
LINE
5
137
100
AcDbEntity
8
0
100
AcDbLine
10
47.401036547267282
20
27.646153508358843
30
0
11
47.401036547258855
21
27.125560730618311
31
0
0
LINE
5
138
100
AcDbEntity
8
0
100
AcDbLine
10
47.401036547258855
20
27.125560730618311
30
0
11
44.401036547258848
21
27.125560730618311
31
0
0
LINE
5
139
100
AcDbEntity
8
0
100
AcDbLine
10
44.401036547258848
20
27.125560730618311
30
0
11
44.401036547258848
21
29.654111851868272
31
0
0
SPLINE
5
140
100
AcDbEntity
8
0
100
AcDbSpline
70
4
71
5
72
22
73
16
74
0
42
0.000000001
43
0.0000000001
44
0.0000000001
40
-0.49774256241844533
40
-0.49774256241844533
40
-0.49774256241844533
40
-0.49774256241844533
40
-0.49774256241844533
40
-0.49774256241844533
40
-0.47999999999999993
40
-0.43999999999999995
40
-0.39999999999999997
40
-0.35999999999999999
40
-0.32000000000000001
40
-0.28000000000000003
40
-0.24000000000000002
40
-0.20000000000000001
40
-0.16
40
-0.12
40
-0.1169174762658757
40
-0.1169174762658757
40
-0.1169174762658757
40
-0.1169174762658757
40
-0.1169174762658757
40
-0.1169174762658757
41
1
41
1
41
1
41
1
41
1
41
1
41
1
41
1
41
1
41
1
41
1
41
1
41
1
41
1
41
1
41
1
10
44.401036547258826
20
29.654111851868286
30
0
10
44.091452129273392
20
29.871612250426537
30
0
10
43.09136760960228
20
30.583088603842143
30
0
10
41.439598498635945
20
31.806401518662906
30
0
10
39.208760416297949
20
33.56743139896772
30
0
10
36.488622593818562
20
35.880470003884959
30
0
10
33.595406724218918
20
38.496536087491926
30
0
10
30.837630622229227
20
41.096608611761091
30
0
10
28.20911464730144
20
43.668306712764952
30
0
10
25.721377807968491
20
46.211430210334512
30
0
10
23.396526936852172
20
48.733658840943825
30
0
10
21.654382150993197
20
50.782478507300709
30
0
10
20.43868168168169
20
52.329152746834843
30
0
10
19.664820485349029
20
53.374235854243146
30
0
10
19.276253205440664
20
53.916538397628514
30
0
10
19.248516660118181
20
53.955341701495463
30
0
0
SPLINE
5
141
100
AcDbEntity
8
0
100
AcDbSpline
70
4
71
5
72
13
73
7
74
0
42
0.000000001
43
0.0000000001
44
0.0000000001
40
-0.11691747626587567
40
-0.11691747626587567
40
-0.11691747626587567
40
-0.11691747626587567
40
-0.11691747626587567
40
-0.11691747626587567
40
-0.080000000000000002
40
-0.053423499109270398
40
-0.053423499109270398
40
-0.053423499109270398
40
-0.053423499109270398
40
-0.053423499109270398
40
-0.053423499109270398
41
1
41
1
41
1
41
1
41
1
41
1
41
1
10
19.248516660118177
20
53.955341701495463
30
0
10
18.916333247447334
20
54.420064822257714
30
0
10
18.361090168368609
20
55.219817035588221
30
0
10
17.833759779402278
20
56.020557630059223
30
0
10
17.334601432825487
20
56.822478371557594
30
0
10
16.863665720844352
20
57.625662137991327
30
0
10
16.671492543351253
20
57.962073812228368
30
0
0
SPLINE
5
142
100
AcDbEntity
8
0
100
AcDbSpline
70
4
71
5
72
13
73
7
74
0
42
0.000000001
43
0.0000000001
44
0.0000000001
40
-0.053423499109270231
40
-0.053423499109270231
40
-0.053423499109270231
40
-0.053423499109270231
40
-0.053423499109270231
40
-0.053423499109270231
40
-0.040000000000000001
40
0
40
0
40
0
40
0
40
0
40
0
41
1
41
1
41
1
41
1
41
1
41
1
41
1
10
16.671492543351246
20
57.962073812228383
30
0
10
16.574427979151821
20
58.131991659127642
30
0
10
16.193146526086082
20
58.808467712661603
30
0
10
15.831848399615316
20
59.485861971969072
30
0
10
15.490524911454466
20
60.164197853904355
30
0
10
15.169142176251935
20
60.843474174885657
30
0
10
14.939690613595475
20
61.352598700950907
30
0
0
SPLINE
5
143
100
AcDbEntity
8
0
100
AcDbSpline
70
0
71
3
72
14
73
10
74
0
42
0.000000001
43
0.0000000001
44
0.0000000001
40
-0.22123469838887755
40
-0.22123469838887755
40
-0.22123469838887755
40
-0.22123469838887755
40
-0.2122654232859445
40
-0.2122654232859445
40
-0.2122654232859445
40
-0.10917332514378439
40
-0.10917332514378439
40
-0.10917332514378439
40
-0.073890173145920376
40
-0.073890173145920376
40
-0.073890173145920376
40
-0.073890173145920376
10
14.93969061359547
20
61.352598700950907
30
0
10
14.805099025277402
20
61.604226483111276
30
0
10
14.671421360947367
20
61.851110416570918
30
0
10
14.538689599146593
20
62.093108177352043
30
0
10
13.013081826265061
20
64.874610207150681
30
0
10
11.652933487778924
20
67.131322876834801
30
0
10
9.9722022893003306
20
69.3761286255139
30
0
10
9.3969739700386778
20
70.144410810702382
30
0
10
8.7764550594948005
20
70.902405523637185
30
0
10
8.1096272932682005
20
71.629285446348888
30
0
0
SPLINE
5
144
100
AcDbEntity
8
0
100
AcDbSpline
70
0
71
3
72
8
73
4
74
0
42
0.000000001
43
0.0000000001
44
0.0000000001
40
-0.10390139682526686
40
-0.10390139682526686
40
-0.10390139682526686
40
-0.10390139682526686
40
-0.068829318260336989
40
-0.068829318260336989
40
-0.068829318260336989
40
-0.068829318260336989
10
8.1096272932630384
20
71.629285446354615
30
0
10
7.2970151816420206
20
72.267166662307943
30
0
10
6.5651778254888242
20
72.787147400329175
30
0
10
6.0088456439282574
20
73.2063058247968
30
0
0
LINE
5
145
100
AcDbEntity
8
0
100
AcDbLine
10
6.0088456439282574
20
73.2063058247968
30
0
11
6.0088456439282467
21
74.694920824291287
31
0
0
LINE
5
146
100
AcDbEntity
8
0
100
AcDbLine
10
6.0088456439282467
20
74.694920824291287
30
0
11
0.30884564392824387
21
74.694920824291827
31
0
0
LINE
5
147
100
AcDbEntity
8
0
100
AcDbLine
10
0.30884564392824387
20
74.694920824291827
30
0
11
0.30884564392824831
21
70.735982019021463
31
0
0
SPLINE
5
148
100
AcDbEntity
8
0
100
AcDbSpline
70
4
71
5
72
31
73
25
74
0
42
0.000000001
43
0.0000000001
44
0.0000000001
40
0
40
0
40
0
40
0
40
0
40
0
40
0.028571428571428571
40
0.057142857142857141
40
0.085714285714285715
40
0.11428571428571428
40
0.14285714285714285
40
0.17142857142857143
40
0.20000000000000001
40
0.22857142857142859
40
0.25714285714285717
40
0.28571428571428575
40
0.31428571428571433
40
0.34285714285714292
40
0.3714285714285715
40
0.40000000000000008
40
0.42857142857142866
40
0.45714285714285724
40
0.48571428571428582
40
0.51428571428571435
40
0.54285714285714293
40
0.56566694432117159
40
0.56566694432117159
40
0.56566694432117159
40
0.56566694432117159
40
0.56566694432117159
40
0.56566694432117159
41
1
41
1
41
1
41
1
41
1
41
1
41
1
41
1
41
1
41
1
41
1
41
1
41
1
41
1
41
1
41
1
41
1
41
1
41
1
41
1
41
1
41
1
41
1
41
1
41
1
10
0.30884564392824831
20
70.735982019021463
30
0
10
0.37626710917669887
20
70.616199851092802
30
0
10
0.56292376476992489
20
70.354408162128948
30
0
10
0.99854777360903824
20
69.894925294900943
30
0
10
1.8893581062172127
20
69.149494977226382
30
0
10
3.4568866632343589
20
68.001763125324501
30
0
10
5.254644405548575
20
66.674158078509308
30
0
10
6.8772188821858631
20
65.21140342699853
30
0
10
8.2943099710457826
20
63.464499213815053
30
0
10
9.6033406785296886
20
61.251148474139079
30
0
10
10.968877246429154
20
58.44339437084605
30
0
10
12.512878383255535
20
55.044569818868496
30
0
10
14.167388179089414
20
51.364199738578193
30
0
10
15.683859213777946
20
47.927785595667451
30
0
10
17.006332536012543
20
44.906130385169163
30
0
10
18.128806606193088
20
42.346848586032095
30
0
10
19.113938267084766
20
40.154589396334906
30
0
10
20.044304410148335
20
38.175999784960403
30
0
10
21.005019637542297
20
36.23596651101812
30
0
10
22.047492461099566
20
34.202620101708781
30
0
10
23.135155402433245
20
32.099410165352992
30
0
10
24.052410191053376
20
30.308641806192046
30
0
10
24.750731828191913
20
28.929844192221857
30
0
10
25.207367426188533
20
28.02401114588671
30
0
10
25.411567254052546
20
27.6184791273554
30
0
0
SPLINE
5
149
100
AcDbEntity
8
0
100
AcDbSpline
70
4
71
5
72
13
73
7
74
0
42
0.000000001
43
0.0000000001
44
0.0000000001
40
0.56566694432117304
40
0.56566694432117304
40
0.56566694432117304
40
0.56566694432117304
40
0.56566694432117304
40
0.56566694432117304
40
0.57142857142857151
40
0.59911175379773873
40
0.59911175379773873
40
0.59911175379773873
40
0.59911175379773873
40
0.59911175379773873
40
0.59911175379773873
41
1
41
1
41
1
41
1
41
1
41
1
41
1
10
25.411567254052613
20
27.618479127355265
30
0
10
25.463146978032359
20
27.516044028366231
30
0
10
25.763104197327721
20
26.920173368246182
30
0
10
26.066217408319172
20
26.317252245623386
30
0
10
26.372330999565623
20
25.708879898949842
30
0
10
26.681618466622755
20
25.096941769294272
30
0
10
26.9401892081301
20
24.589103687877181
30
0
0
SPLINE
5
150
100
AcDbEntity
8
0
100
AcDbSpline
70
4
71
5
72
14
73
8
74
0
42
0.000000001
43
0.0000000001
44
0.0000000001
40
0.59911175379775117
40
0.59911175379775117
40
0.59911175379775117
40
0.59911175379775117
40
0.59911175379775117
40
0.59911175379775117
40
0.60000000000000009
40
0.62857142857142867
40
0.63215954517861572
40
0.63215954517861572
40
0.63215954517861572
40
0.63215954517861572
40
0.63215954517861572
40
0.63215954517861572
41
1
41
1
41
1
41
1
41
1
41
1
41
1
41
1
10
26.940189208130679
20
24.589103687876047
30
0
10
26.948485742687069
20
24.572809128921058
30
0
10
27.223737137602729
20
24.032336851958483
30
0
10
27.535788032619468
20
23.424404995073075
30
0
10
27.852118797744943
20
22.816348578121854
30
0
10
28.173946698072481
20
22.210173224455517
30
0
10
28.493771001720901
20
21.623922799613574
30
0
10
28.52953933692103
20
21.558561238586002
30
0
0
SPLINE
5
151
100
AcDbEntity
8
0
100
AcDbSpline
70
4
71
5
72
24
73
18
74
0
42
0.000000001
43
0.0000000001
44
0.0000000001
40
0.63215954517861594
40
0.63215954517861594
40
0.63215954517861594
40
0.63215954517861594
40
0.63215954517861594
40
0.63215954517861594
40
0.65714285714285725
40
0.68571428571428583
40
0.71428571428571441
40
0.74285714285714299
40
0.77142857142857157
40
0.80000000000000016
40
0.82857142857142874
40
0.85714285714285732
40
0.8857142857142859
40
0.91428571428571448
40
0.94285714285714306
40
0.97142857142857164
40
1
40
1
40
1
40
1
40
1
40
1
41
1
41
1
41
1
41
1
41
1
41
1
41
1
41
1
41
1
41
1
41
1
41
1
41
1
41
1
41
1
41
1
41
1
41
1
10
28.52953933692104
20
21.558561238585984
30
0
10
28.778586838598159
20
21.103462241426641
30
0
10
29.321260866419596
20
20.132868898191866
30
0
10
30.187275206137201
20
18.66690237850667
30
0
10
31.44915029803154
20
16.764314903354844
30
0
10
33.259094621635718
20
14.560524251687422
30
0
10
35.39543652151395
20
12.561676534468955
30
0
10
37.804817587815911
20
10.867053152156787
30
0
10
40.411506335051392
20
9.4957423869657003
30
0
10
43.031553680565523
20
8.4346299298243128
30
0
10
45.414680201425554
20
7.6431081782984878
30
0
10
47.342012919313092
20
7.0676730927723757
30
0
10
48.716545073565065
20
6.6541087650418689
30
0
10
49.637640759308255
20
6.3593588609330425
30
0
10
50.354415953702329
20
6.2052943601652597
30
0
10
51.117300010921838
20
6.1365220398337037
30
0
10
51.762737331129159
20
6.1120902195477971
30
0
10
52.119700187096498
20
6.1052304850376249
30
0
0
LINE
5
152
100
AcDbEntity
8
0
100
AcDbLine
10
52.119700187096505
20
6.1052304850376249
30
0
11
236.08719570821506
21
2.5699377882637719
31
0
0
SPLINE
5
153
100
AcDbEntity
8
0
100
AcDbSpline
70
4
71
5
72
104
73
98
74
0
42
0.000000001
43
0.0000000001
44
0.0000000001
40
0
40
0
40
0
40
0
40
0
40
0
40
0.01
40
0.02
40
0.029999999999999999
40
0.040000000000000001
40
0.050000000000000003
40
0.060000000000000005
40
0.070000000000000007
40
0.080000000000000002
40
0.089999999999999997
40
0.099999999999999992
40
0.10999999999999999
40
0.11999999999999998
40
0.12999999999999998
40
0.13999999999999999
40
0.14999999999999999
40
0.16
40
0.17000000000000001
40
0.18000000000000002
40
0.19000000000000003
40
0.20000000000000004
40
0.21000000000000005
40
0.22000000000000006
40
0.23000000000000007
40
0.24000000000000007
40
0.25000000000000006
40
0.26000000000000006
40
0.27000000000000007
40
0.28000000000000008
40
0.29000000000000009
40
0.3000000000000001
40
0.31000000000000011
40
0.32000000000000012
40
0.33000000000000013
40
0.34000000000000014
40
0.35000000000000014
40
0.36000000000000015
40
0.37000000000000016
40
0.38000000000000017
40
0.39000000000000018
40
0.40000000000000019
40
0.4100000000000002
40
0.42000000000000021
40
0.43000000000000022
40
0.44000000000000022
40
0.45000000000000023
40
0.46000000000000024
40
0.47000000000000025
40
0.48000000000000026
40
0.49000000000000027
40
0.50000000000000022
40
0.51000000000000023
40
0.52000000000000024
40
0.53000000000000025
40
0.54000000000000026
40
0.55000000000000027
40
0.56000000000000028
40
0.57000000000000028
40
0.58000000000000029
40
0.5900000000000003
40
0.60000000000000031
40
0.61000000000000032
40
0.62000000000000033
40
0.63000000000000034
40
0.64000000000000035
40
0.65000000000000036
40
0.66000000000000036
40
0.67000000000000037
40
0.68000000000000038
40
0.69000000000000039
40
0.7000000000000004
40
0.71000000000000041
40
0.72000000000000042
40
0.73000000000000043
40
0.74000000000000044
40
0.75000000000000044
40
0.76000000000000045
40
0.77000000000000046
40
0.78000000000000047
40
0.79000000000000048
40
0.80000000000000049
40
0.8100000000000005
40
0.82000000000000051
40
0.83000000000000052
40
0.84000000000000052
40
0.85000000000000053
40
0.86000000000000054
40
0.87000000000000055
40
0.88000000000000056
40
0.89000000000000057
40
0.90000000000000058
40
0.91000000000000059
40
0.9200000000000006
40
0.92300648559512022
40
0.92300648559512022
40
0.92300648559512022
40
0.92300648559512022
40
0.92300648559512022
40
0.92300648559512022
41
1
41
1
41
1
41
1
41
1
41
1
41
1
41
1
41
1
41
1
41
1
41
1
41
1
41
1
41
1
41
1
41
1
41
1
41
1
41
1
41
1
41
1
41
1
41
1
41
1
41
1
41
1
41
1
41
1
41
1
41
1
41
1
41
1
41
1
41
1
41
1
41
1
41
1
41
1
41
1
41
1
41
1
41
1
41
1
41
1
41
1
41
1
41
1
41
1
41
1
41
1
41
1
41
1
41
1
41
1
41
1
41
1
41
1
41
1
41
1
41
1
41
1
41
1
41
1
41
1
41
1
41
1
41
1
41
1
41
1
41
1
41
1
41
1
41
1
41
1
41
1
41
1
41
1
41
1
41
1
41
1
41
1
41
1
41
1
41
1
41
1
41
1
41
1
41
1
41
1
41
1
41
1
41
1
41
1
41
1
41
1
41
1
41
1
10
236.08719570821506
20
2.5699377882637719
30
0
10
236.26893400425058
20
2.5565961214561677
30
0
10
236.62765510303467
20
2.5350828748676717
30
0
10
237.15147038051987
20
2.5183232163155012
30
0
10
237.82135241751445
20
2.5270029087835222
30
0
10
238.61143761113826
20
2.5893440892757247
30
0
10
239.35517409373381
20
2.702479362082677
30
0
10
240.05446550750602
20
2.8649613355862309
30
0
10
240.71245063455362
20
3.074373154959412
30
0
10
241.33402976588576
20
3.3269828221785662
30
0
10
241.92534237479418
20
3.6178772016805798
30
0
10
242.49235053902208
20
3.9415148188080256
30
0
10
243.03963758669784
20
4.292162396315657
30
0
10
243.56919679773029
20
4.6643750228642284
30
0
10
244.07901067697031
20
5.0534668873433075
30
0
10
244.56471640804205
20
5.455920174208857
30
0
10
245.02176752900709
20
5.869817683678006
30
0
10
245.44716741885827
20
6.2952019913229122
30
0
10
245.84197933159717
20
6.7346240118470337
30
0
10
246.21127650109375
20
7.1930314974805922
30
0
10
246.56085076756
20
7.6768683981227381
30
0
10
246.8949177284874
20
8.193341467140753
30
0
10
247.21303577617962
20
8.7496967807382724
30
0
10
247.50850896940148
20
9.3522660833916813
30
0
10
247.77177714836409
20
10.004668165157401
30
0
10
247.99319022236986
20
10.705979168404824
30
0
10
248.16575540989774
20
11.449249375017526
30
0
10
248.28853382623299
20
12.219062640103012
30
0
10
248.36757640616116
20
12.992260378474221
30
0
10
248.41252459871043
20
13.744034919535427
30
0
10
248.43413087902061
20
14.452989306479227
30
0
10
248.4415512496459
20
15.106227998478253
30
0
10
248.43940170157822
20
15.705353511456144
30
0
10
248.42594103242618
20
16.269257314704568
30
0
10
248.39575901057668
20
16.824466649512008
30
0
10
248.34172639767712
20
17.397604231975983
30
0
10
248.25728341869959
20
18.006695241405371
30
0
10
248.13844048876905
20
18.653878216918368
30
0
10
247.9838229609594
20
19.329931448658165
30
0
10
247.79487995163464
20
20.018083293394071
30
0
10
247.57595145278492
20
20.697911954449431
30
0
10
247.33459331965975
20
21.349617291047839
30
0
10
247.08112617193143
20
21.956712966029926
30
0
10
246.82690099191322
20
22.505861270843713
30
0
10
246.58279113736512
20
22.987343761465766
30
0
10
246.35773303626851
20
23.395312396731306
30
0
10
246.15679175759627
20
23.728015832851376
30
0
10
246.00228161921765
20
23.995524871699008
30
0
10
245.9591586014559
20
24.229079814186679
30
0
10
246.15215919356203
20
24.487214128101641
30
0
10
246.69801022811862
20
24.828180969305649
30
0
10
247.6258188449533
20
25.277829016067898
30
0
10
248.87436992184274
20
25.827313030749877
30
0
10
250.32644689943837
20
26.445139526470413
30
0
10
251.83108962368283
20
27.084608227027957
30
0
10
253.23126100703789
20
27.693169613630552
30
0
10
254.38822031998458
20
28.220926061772126
30
0
10
255.20955647789111
20
28.629566950861275
30
0
10
255.67045172818717
20
28.900972876318789
30
0
10
255.85074757641132
20
29.046296995961463
30
0
10
255.91753708863806
20
29.114785349844908
30
0
10
255.99843141838531
20
29.212450704306573
30
0
10
256.12239968378822
20
29.499428077988334
30
0
10
256.29906532236919
20
30.10265781991745
30
0
10
256.53542874643438
20
31.096373450896436
30
0
10
256.83307208074871
20
32.514320456333429
30
0
10
257.19010699286787
20
34.353166630757457
30
0
10
257.60122335519475
20
36.579482414266117
30
0
10
258.05854688470606
20
39.135169694627272
30
0
10
258.55214657413944
20
41.943538162461493
30
0
10
259.07069145899038
20
44.91509046047652
30
0
10
259.60204147072665
20
47.953416304175278
30
0
10
260.13386692386945
20
50.96104666242595
30
0
10
260.65425307678106
20
53.845291904951921
30
0
10
261.15231662806087
20
56.524161170597623
30
0
10
261.61880524426812
20
58.932085455367947
30
0
10
262.0467343430916
20
61.026125621559956
30
0
10
262.43194164099327
20
62.791073485315785
30
0
10
262.77384950859761
20
64.24734840269285
30
0
10
263.07532890567808
20
65.446749154714013
30
0
10
263.34202974326291
20
66.460925794545119
30
0
10
263.58187178208868
20
67.372130638830583
30
0
10
263.80447916137939
20
68.262928878900453
30
0
10
264.02062128940548
20
69.206604310771837
30
0
10
264.24169647142753
20
70.2566893083563
30
0
10
264.47909343879127
20
71.43820004356931
30
0
10
264.74386791444363
20
72.734751086244088
30
0
10
265.04505332931899
20
74.093124067955074
30
0
10
265.38708102059485
20
75.438863996574085
30
0
10
265.76751060183619
20
76.688459267134959
30
0
10
266.17453044066207
20
77.763096267466963
30
0
10
266.58477491818638
20
78.601344395940714
30
0
10
266.96047616799456
20
79.173229183029022
30
0
10
267.20789452159835
20
79.447035029223812
30
0
10
267.30914128726954
20
79.559359146518105
30
0
10
267.32370311127011
20
79.609845060794967
30
0
10
267.3132734719203
20
79.632077613197211
30
0
10
267.30986026531423
20
79.63690867823172
30
0
0
LINE
5
154
100
AcDbEntity
8
0
100
AcDbLine
10
267.30986026531423
20
79.63690867823172
30
0
11
260.75048365030409
21
79.515499553226107
31
0
0
SPLINE
5
155
100
AcDbEntity
8
0
100
AcDbSpline
70
0
71
3
72
29
73
25
74
0
42
0.000000001
43
0.0000000001
44
0.0000000001
40
-0.8761086615630157
40
-0.8761086615630157
40
-0.8761086615630157
40
-0.8761086615630157
40
-0.86994041483015039
40
-0.86994041483015039
40
-0.86994041483015039
40
-0.82972900969920038
40
-0.82972900969920038
40
-0.82972900969920038
40
-0.79787027891443585
40
-0.79787027891443585
40
-0.79787027891443585
40
-0.76003235431638905
40
-0.76003235431638905
40
-0.76003235431638905
40
-0.72107281894255015
40
-0.72107281894255015
40
-0.72107281894255015
40
-0.67901544862939311
40
-0.67901544862939311
40
-0.67901544862939311
40
-0.63253538769048245
40
-0.63253538769048245
40
-0.63253538769048245
40
-0.62580332909372705
40
-0.62580332909372705
40
-0.62580332909372705
40
-0.62580332909372705
10
260.75048365030415
20
79.515499553226078
30
0
10
260.63642858323942
20
79.222549743561089
30
0
10
260.52775090697918
20
78.923350993777547
30
0
10
260.42380769003535
20
78.619300326075148
30
0
10
259.74619166912095
20
76.637164216931893
30
0
10
259.26492929525557
20
74.434362818187466
30
0
10
258.89733958777089
20
72.729889361776046
30
0
10
258.60610526029922
20
71.379467490151555
30
0
10
258.39180340806968
20
70.395969095489775
30
0
10
258.16891141534023
20
69.497550221201806
30
0
10
257.90418742268088
20
68.430517580999251
30
0
10
257.58788913816193
20
67.312048533877771
30
0
10
257.16445595847881
20
65.510312626960314
30
0
10
256.7284711596937
20
63.655168758855837
30
0
10
256.19226365383486
20
61.061242789901833
30
0
10
255.56981821210871
20
57.715903693217058
30
0
10
254.89787954058158
20
54.104562750305561
30
0
10
254.12701282312551
20
49.656092372396756
30
0
10
253.39048238922067
20
45.438929081592541
30
0
10
252.57649950830458
20
40.778295159728017
30
0
10
251.81394188195935
20
36.517404403445255
30
0
10
251.29999257920048
20
34.006299203237816
30
0
10
251.22555341642737
20
33.642596854124477
30
0
10
251.15677008806057
20
33.316026121684899
30
0
10
251.09282614645679
20
33.02187500932142
30
0
0
SPLINE
5
156
100
AcDbEntity
8
0
100
AcDbSpline
70
0
71
3
72
14
73
10
74
0
42
0.000000001
43
0.0000000001
44
0.0000000001
40
-0.53236213172201141
40
-0.53236213172201141
40
-0.53236213172201141
40
-0.53236213172201141
40
-0.50375365111626236
40
-0.50375365111626236
40
-0.50375365111626236
40
-0.48230376929087465
40
-0.48230376929087465
40
-0.48230376929087465
40
-0.47094324217571321
40
-0.47094324217571321
40
-0.47094324217571321
40
-0.47094324217571321
10
251.09282614645696
20
33.021875009321121
30
0
10
250.03046447219663
20
32.541243485913625
30
0
10
248.52092343955286
20
31.904310597895655
30
0
10
247.14262948520567
20
31.313642833198632
30
0
10
246.10922114560117
20
30.870775771315202
30
0
10
245.19346858201692
20
30.478965867322305
30
0
10
244.32618096456042
20
30.035682613544115
30
0
10
243.86683836421582
20
29.800905962314079
30
0
10
243.41838919939391
20
29.586478547445999
30
0
10
242.76757388281936
20
29.07965935144329
30
0
0
LINE
5
157
100
AcDbEntity
8
0
100
AcDbLine
10
242.76757388281939
20
29.079659351443286
30
0
11
242.76757388302215
21
26.832234984119054
31
0
0
LINE
5
158
100
AcDbEntity
8
0
100
AcDbLine
10
242.76757388302215
20
26.832234984119054
30
0
11
239.76757388302218
21
26.832234984119054
31
0
0
LINE
5
159
100
AcDbEntity
8
0
100
AcDbLine
10
239.76757388302218
20
26.832234984119054
30
0
11
239.76757388311003
21
27.622270779924854
31
0
0
SPLINE
5
160
100
AcDbEntity
8
0
100
AcDbSpline
70
4
71
5
72
13
73
7
74
0
42
0.000000001
43
0.0000000001
44
0.0000000001
40
-0.97820411629145931
40
-0.97820411629145931
40
-0.97820411629145931
40
-0.97820411629145931
40
-0.97820411629145931
40
-0.97820411629145931
40
-0.89999999999999991
40
-0.82720602734778192
40
-0.82720602734778192
40
-0.82720602734778192
40
-0.82720602734778192
40
-0.82720602734778192
40
-0.82720602734778192
41
1
41
1
41
1
41
1
41
1
41
1
41
1
10
239.76757388311003
20
27.622270779924843
30
0
10
237.75651805420921
20
26.673588786674365
30
0
10
234.10145497110935
20
24.970484575875496
30
0
10
230.88303702755206
20
23.512374394997316
30
0
10
228.08328101513229
20
22.281701521370966
30
0
10
225.66885943747229
20
21.247581198493364
30
0
10
224.5901226886462
20
20.790876374009276
30
0
0
ENDSEC
0
SECTION
2
OBJECTS
0
DICTIONARY
5
C
100
AcDbDictionary
3
ACAD_GROUP
350
D
3
ACAD_MLINESTYLE
350
17
0
DICTIONARY
5
D
100
AcDbDictionary
0
DICTIONARY
5
1A
330
C
100
AcDbDictionary
0
DICTIONARY
5
17
100
AcDbDictionary
0
ENDSEC
0
EOF
