0
SECTION
2
HEADER
9
$INSUNITS
70
4
9
$ACADVER
1
AC1014
9
$HANDSEED
5
FFFF
0
ENDSEC
0
SECTION
2
TABLES
0
TABLE
2
VPORT
5
8
100
AcDbSymbolTable
0
ENDTAB
0
TABLE
2
LTYPE
5
5
100
AcDbSymbolTable
0
LTYPE
5
14
100
AcDbSymbolTableRecord
100
AcDbLinetypeTableRecord
2
BYBLOCK
70
0
0
LTYPE
5
15
100
AcDbSymbolTableRecord
100
AcDbLinetypeTableRecord
2
BYLAYER
70
0
0
ENDTAB
0
TABLE
2
LAYER
5
2
100
AcDbSymbolTable
70
2
0
LAYER
5
50
100
AcDbSymbolTableRecord
100
AcDbLayerTableRecord
2
0
70
0
6
CONTINUOUS
0
ENDTAB
0
TABLE
2
STYLE
5
3
100
AcDbSymbolTable
70
1
0
STYLE
5
11
100
AcDbSymbolTableRecord
100
AcDbTextStyleTableRecord
2
STANDARD
70
0
0
ENDTAB
0
TABLE
2
VIEW
5
6
100
AcDbSymbolTable
70
0
0
ENDTAB
0
TABLE
2
UCS
5
7
100
AcDbSymbolTable
70
0
0
ENDTAB
0
TABLE
2
APPID
5
9
100
AcDbSymbolTable
70
2
0
APPID
5
12
100
AcDbSymbolTableRecord
100
AcDbRegAppTableRecord
2
ACAD
70
0
0
ENDTAB
0
TABLE
2
DIMSTYLE
5
A
100
AcDbSymbolTable
70
1
0
ENDTAB
0
TABLE
2
BLOCK_RECORD
5
1
100
AcDbSymbolTable
70
1
0
BLOCK_RECORD
5
1F
100
AcDbSymbolTableRecord
100
AcDbBlockTableRecord
2
*MODEL_SPACE
0
BLOCK_RECORD
5
1B
100
AcDbSymbolTableRecord
100
AcDbBlockTableRecord
2
*PAPER_SPACE
0
ENDTAB
0
ENDSEC
0
SECTION
2
BLOCKS
0
BLOCK
5
20
100
AcDbEntity
100
AcDbBlockBegin
2
*MODEL_SPACE
0
ENDBLK
5
21
100
AcDbEntity
100
AcDbBlockEnd
0
BLOCK
5
1C
100
AcDbEntity
100
AcDbBlockBegin
2
*PAPER_SPACE
0
ENDBLK
5
1D
100
AcDbEntity
100
AcDbBlockEnd
0
ENDSEC
0
SECTION
2
ENTITIES
0
SPLINE
5
100
100
AcDbEntity
8
0
100
AcDbSpline
70
0
71
3
72
10
73
6
74
0
42
0.000000001
43
0.0000000001
44
0.0000000001
40
-0.23686481999190495
40
-0.23686481999190495
40
-0.23686481999190495
40
-0.23686481999190495
40
-0.11982231060775896
40
-0.11982231060775896
40
0
40
0
40
0
40
0
10
-27.589153568718878
20
-253.72083682944194
30
0
10
-27.616957749537523
20
-253.33168506091025
30
0
10
-27.644442037826646
20
-252.94229460958834
30
0
10
-27.699400929205318
20
-252.15465820356087
30
0
10
-27.726890425870479
20
-251.75598263205305
30
0
10
-27.754059814143105
20
-251.35750008942605
30
0
0
LINE
5
101
100
AcDbEntity
8
0
100
AcDbLine
10
-27.754059814143105
20
-251.35750008942608
30
0
11
-29.853094801669524
21
-251.35750008942603
31
0
0
LINE
5
102
100
AcDbEntity
8
0
100
AcDbLine
10
-29.853094801669524
20
-251.35750008942603
30
0
11
-29.853094801669524
21
-248.35750008942603
31
0
0
LINE
5
103
100
AcDbEntity
8
0
100
AcDbLine
10
-29.853094801669524
20
-248.35750008942603
30
0
11
-27.953110012196426
21
-248.35750008942603
31
0
0
SPLINE
5
104
100
AcDbEntity
8
0
100
AcDbSpline
70
0
71
3
72
10
73
6
74
0
42
0.000000001
43
0.0000000001
44
0.0000000001
40
-1.8042912258297821
40
-1.8042912258297821
40
-1.8042912258297821
40
-1.8042912258297821
40
-0.95559110503332412
40
-0.95559110503332412
40
0
40
0
40
0
40
0
10
-27.953110012196426
20
-248.35750008942611
30
0
10
-28.135528029716703
20
-245.53420114861319
30
0
10
-28.308108209142038
20
-242.65933069488963
30
0
10
-28.648588285793757
20
-236.65600040051658
30
0
10
-28.819592434660013
20
-233.42786945620395
30
0
10
-28.977866378450603
20
-230.24650042472058
30
0
0
LINE
5
105
100
AcDbEntity
8
0
100
AcDbLine
10
-28.977866378450599
20
-230.24650042472058
30
0
11
-31.124041876118319
21
-230.24650042472041
31
0
0
LINE
5
106
100
AcDbEntity
8
0
100
AcDbLine
10
-31.124041876118319
20
-230.24650042472041
30
0
11
-31.124041876118312
21
-227.24650042472041
31
0
0
LINE
5
107
100
AcDbEntity
8
0
100
AcDbLine
10
-31.124041876118312
20
-227.24650042472041
30
0
11
-29.124041876118309
21
-227.24650042472041
31
0
0
SPLINE
5
108
100
AcDbEntity
8
0
100
AcDbSpline
70
0
71
3
72
10
73
6
74
0
42
0.000000001
43
0.0000000001
44
0.0000000001
40
-4.3568924038573105
40
-4.3568924038573105
40
-4.3568924038573105
40
-4.3568924038573105
40
-2.2743075591948321
40
-2.2743075591948321
40
0
40
0
40
0
40
0
10
-29.124041876118309
20
-227.24650042472041
30
0
10
-29.448437182763243
20
-220.44594562745189
30
0
10
-29.732140284525901
20
-213.50553262439487
30
0
10
-30.199073173343777
20
-199.11201219586093
30
0
10
-30.367759437167528
20
-191.81466846727972
30
0
10
-30.470671860593193
20
-184.23434182026466
30
0
0
LINE
5
109
100
AcDbEntity
8
0
100
AcDbLine
10
-30.470671860593193
20
-184.23434182026469
30
0
11
-32.50782218202842
21
-184.23434182026466
31
0
0
LINE
5
110
100
AcDbEntity
8
0
100
AcDbLine
10
-32.50782218202842
20
-184.23434182026466
30
0
11
-32.50782218202842
21
-181.23434182026469
31
0
0
LINE
5
111
100
AcDbEntity
8
0
100
AcDbLine
10
-32.50782218202842
20
-181.23434182026469
30
0
11
-30.50782218202842
21
-181.23434182026469
31
0
0
SPLINE
5
112
100
AcDbEntity
8
0
100
AcDbSpline
70
0
71
3
72
10
73
6
74
0
42
0.000000001
43
0.0000000001
44
0.0000000001
40
-4.3440839991280225
40
-4.3440839991280225
40
-4.3440839991280225
40
-4.3440839991280225
40
-2.0891835681084618
40
-2.0891835681084618
40
0
40
0
40
0
40
0
10
-30.50782218202842
20
-181.23434182026469
30
0
10
-30.591750283265966
20
-173.74825586882133
30
0
10
-30.607427964549313
20
-166.63034914692059
30
0
10
-30.613854759197142
20
-152.15007057603205
30
0
10
-30.613291191333115
20
-145.1861212057043
30
0
10
-30.623331009077333
20
-138.22218321580888
30
0
0
LINE
5
113
100
AcDbEntity
8
0
100
AcDbLine
10
-30.623331009077333
20
-138.22218321580888
30
0
11
-32.627456742841844
21
-138.22218321580885
31
0
0
LINE
5
114
100
AcDbEntity
8
0
100
AcDbLine
10
-32.627456742841844
20
-138.22218321580885
30
0
11
-32.627456742841844
21
-135.22218321580885
31
0
0
LINE
5
115
100
AcDbEntity
8
0
100
AcDbLine
10
-32.627456742841844
20
-135.22218321580885
30
0
11
-30.627456742841844
21
-135.22218321580885
31
0
0
SPLINE
5
116
100
AcDbEntity
8
0
100
AcDbSpline
70
0
71
3
72
10
73
6
74
0
42
0.000000001
43
0.0000000001
44
0.0000000001
40
-4.2775175466221746
40
-4.2775175466221746
40
-4.2775175466221746
40
-4.2775175466221746
40
-2.2616372068112627
40
-2.2616372068112627
40
0
40
0
40
0
40
0
10
-30.627456742841854
20
-135.22218321580885
30
0
10
-30.632405883065182
20
-131.21041513161768
30
0
10
-30.640746388402359
20
-121.5172461398319
30
0
10
-30.326285593795973
20
-106.99203700990553
30
0
10
-29.975585520082827
20
-99.72007201931099
30
0
10
-29.317897913099479
20
-92.210024611353731
30
0
0
LINE
5
117
100
AcDbEntity
8
0
100
AcDbLine
10
-29.317897913099479
20
-92.210024611353731
30
0
11
-31.03937125847089
21
-92.210024611353077
31
0
0
LINE
5
118
100
AcDbEntity
8
0
100
AcDbLine
10
-31.03937125847089
20
-92.210024611353077
30
0
11
-31.03937125847089
21
-89.210024611353091
31
0
0
LINE
5
119
100
AcDbEntity
8
0
100
AcDbLine
10
-31.03937125847089
20
-89.210024611353091
30
0
11
-29.039371258470887
21
-89.210024611353091
31
0
0
SPLINE
5
120
100
AcDbEntity
8
0
100
AcDbSpline
70
0
71
3
72
10
73
6
74
0
42
0.000000001
43
0.0000000001
44
0.0000000001
40
-4.3001932944069878
40
-4.3001932944069878
40
-4.3001932944069878
40
-4.3001932944069878
40
-1.9624008960886472
40
-1.9624008960886472
40
0
40
0
40
0
40
0
10
-29.039371258470887
20
-89.210024611353106
30
0
10
-28.271334656284125
20
-81.386830330316087
30
0
10
-27.150763426874533
20
-73.337919043228567
30
0
10
-24.275135740760263
20
-59.216670660462547
30
0
10
-22.499825504239929
20
-52.300316690026982
30
0
10
-20.144156487763585
20
-46.197866006897272
30
0
0
LINE
5
121
100
AcDbEntity
8
0
100
AcDbLine
10
-20.144156487763585
20
-46.197866006897272
30
0
11
-20.906840535001741
21
-46.197866006897286
31
0
0
LINE
5
122
100
AcDbEntity
8
0
100
AcDbLine
10
-20.906840535001741
20
-46.197866006897286
30
0
11
-20.906840535001741
21
-43.197866006897243
31
0
0
LINE
5
123
100
AcDbEntity
8
0
100
AcDbLine
10
-20.906840535001741
20
-43.197866006897243
30
0
11
-18.906840535001741
21
-43.197866006897243
31
0
0
SPLINE
5
124
100
AcDbEntity
8
0
100
AcDbSpline
70
0
71
3
72
10
73
6
74
0
42
0.000000001
43
0.0000000001
44
0.0000000001
40
-0.44094791455066695
40
-0.44094791455066695
40
-0.44094791455066695
40
-0.44094791455066695
40
-0.19222450864535984
40
-0.19222450864535984
40
0
40
0
40
0
40
0
10
-18.906840535001741
20
-43.197866006897257
30
0
10
-18.206272409688754
20
-41.610662943963554
30
0
10
-17.418929027607966
20
-40.008406285368068
30
0
10
-15.906479841190757
20
-37.388659717801914
30
0
10
-15.319585380488475
20
-36.517501246800222
30
0
10
-14.911574509342449
20
-36.02345105438441
30
0
0
SPLINE
5
125
100
AcDbEntity
8
0
100
AcDbSpline
70
0
71
3
72
12
73
8
74
0
42
0.000000001
43
0.0000000001
44
0.0000000001
40
-1.6289971063916804
40
-1.6289971063916804
40
-1.6289971063916804
40
-1.6289971063916804
40
-0.93849370310286673
40
-0.93849370310286673
40
-0.37467968983688316
40
-0.37467968983688316
40
0
40
0
40
0
40
0
10
-14.911574509340333
20
-36.023451054382008
30
0
10
-13.417789253520098
20
-34.303822220481209
30
0
10
-11.702277929309563
20
-32.496058496302609
30
0
10
-8.4922852241782909
20
-29.810480712529298
30
0
10
-6.8824111059705428
20
-28.708774119166041
30
0
10
-3.9676575998933075
20
-27.536013350816127
30
0
10
-2.7484828967550969
20
-27.245161042963378
30
0
10
-1.5000000000000002
20
-27.211659623065898
30
0
0
LINE
5
126
100
AcDbEntity
8
0
100
AcDbLine
10
-1.5000000000000002
20
-27.211659623065898
30
0
11
1.4999999999999991
21
-27.211659623065891
31
0
0
SPLINE
5
127
100
AcDbEntity
8
0
100
AcDbSpline
70
0
71
3
72
12
73
8
74
0
42
0.000000001
43
0.0000000001
44
0.0000000001
40
-2.7319896324343316
40
-2.7319896324343316
40
-2.7319896324343316
40
-2.7319896324343316
40
-2.0922728020961658
40
-2.0922728020961658
40
-1.3514090956115798
40
-1.3514090956115798
40
0
40
0
40
0
40
0
10
1.5000000000016849
20
-27.211659623065945
30
0
10
2.5484193574222584
20
-27.23979259726454
30
0
10
3.5784737937148829
20
-27.449846468902432
30
0
10
5.7225265716353562
20
-28.193865342250341
30
0
10
6.8094756206365803
20
-28.768487288425284
30
0
10
9.6856384838463541
20
-30.660766928238409
30
0
10
11.957427529030012
20
-32.622670181006953
30
0
10
14.911574509342431
20
-36.023451054384417
30
0
0
SPLINE
5
128
100
AcDbEntity
8
0
100
AcDbSpline
70
0
71
3
72
10
73
6
74
0
42
0.000000001
43
0.0000000001
44
0.0000000001
40
-0.92273247900294919
40
-0.92273247900294919
40
-0.92273247900294919
40
-0.92273247900294919
40
-0.52048134789554512
40
-0.52048134789554512
40
0
40
0
40
0
40
0
10
14.911574509342449
20
-36.02345105438441
30
0
10
15.319585380488475
20
-36.517501246800222
30
0
10
15.906479841190757
20
-37.388659717801914
30
0
10
17.418929027607966
20
-40.008406285368068
30
0
10
18.206272409688754
20
-41.610662943963554
30
0
10
18.906840535001741
20
-43.197866006897257
30
0
0
LINE
5
129
100
AcDbEntity
8
0
100
AcDbLine
10
18.906840535001741
20
-43.197866006897257
30
0
11
20.906840535001734
21
-43.197866006897243
31
0
0
LINE
5
130
100
AcDbEntity
8
0
100
AcDbLine
10
20.906840535001734
20
-43.197866006897243
30
0
11
20.906840535001734
21
-46.197866006897286
31
0
0
LINE
5
131
100
AcDbEntity
8
0
100
AcDbLine
10
20.906840535001734
20
-46.197866006897286
30
0
11
20.144156487763585
21
-46.197866006897286
31
0
0
SPLINE
5
132
100
AcDbEntity
8
0
100
AcDbSpline
70
0
71
3
72
10
73
6
74
0
42
0.000000001
43
0.0000000001
44
0.0000000001
40
-4.3378076590333627
40
-4.3378076590333627
40
-4.3378076590333627
40
-4.3378076590333627
40
-2.3582413804153743
40
-2.3582413804153743
40
0
40
0
40
0
40
0
10
20.144156487763585
20
-46.197866006897272
30
0
10
22.499825504239929
20
-52.300316690026982
30
0
10
24.275135740760263
20
-59.216670660462547
30
0
10
27.150763426874533
20
-73.337919043228567
30
0
10
28.271334656284125
20
-81.386830330316087
30
0
10
29.039371258470887
20
-89.210024611353106
30
0
0
LINE
5
133
100
AcDbEntity
8
0
100
AcDbLine
10
29.039371258470894
20
-89.210024611353106
30
0
11
31.039371258470887
21
-89.210024611353091
31
0
0
LINE
5
134
100
AcDbEntity
8
0
100
AcDbLine
10
31.039371258470887
20
-89.210024611353091
30
0
11
31.039371258470887
21
-92.210024611353077
31
0
0
LINE
5
135
100
AcDbEntity
8
0
100
AcDbLine
10
31.039371258470887
20
-92.210024611353077
30
0
11
29.317897913099415
21
-92.210024611353077
31
0
0
SPLINE
5
136
100
AcDbEntity
8
0
100
AcDbSpline
70
0
71
3
72
10
73
6
74
0
42
0.000000001
43
0.0000000001
44
0.0000000001
40
-2.5537857221689491
40
-2.5537857221689491
40
-2.5537857221689491
40
-2.5537857221689491
40
-1.2035313410871955
40
-1.2035313410871955
40
0
40
0
40
0
40
0
10
29.317897913099479
20
-92.210024611353731
30
0
10
29.975585520082827
20
-99.72007201931099
30
0
10
30.326285593795973
20
-106.99203700990553
30
0
10
30.640746388402359
20
-121.5172461398319
30
0
10
30.632405883065182
20
-131.21041513161768
30
0
10
30.627456742841854
20
-135.22218321580885
30
0
0
LINE
5
137
100
AcDbEntity
8
0
100
AcDbLine
10
30.627456742841854
20
-135.22218321580885
30
0
11
32.627456742841844
21
-135.22218321580885
31
0
0
LINE
5
138
100
AcDbEntity
8
0
100
AcDbLine
10
32.627456742841844
20
-135.22218321580885
30
0
11
32.627456742841844
21
-138.22218321580885
31
0
0
LINE
5
139
100
AcDbEntity
8
0
100
AcDbLine
10
32.627456742841844
20
-138.22218321580885
30
0
11
30.623331009077333
21
-138.22218321580885
31
0
0
SPLINE
5
140
100
AcDbEntity
8
0
100
AcDbSpline
70
0
71
3
72
10
73
6
74
0
42
0.000000001
43
0.0000000001
44
0.0000000001
40
-4.3268735202054138
40
-4.3268735202054138
40
-4.3268735202054138
40
-4.3268735202054138
40
-2.2459669213663331
40
-2.2459669213663331
40
0
40
0
40
0
40
0
10
30.623331009077333
20
-138.22218321580888
30
0
10
30.613291191333115
20
-145.1861212057043
30
0
10
30.613854759197142
20
-152.15007057603205
30
0
10
30.607427964549313
20
-166.63034914692059
30
0
10
30.591750283265966
20
-173.74825586882133
30
0
10
30.50782218202842
20
-181.23434182026469
30
0
0
LINE
5
141
100
AcDbEntity
8
0
100
AcDbLine
10
30.50782218202842
20
-181.23434182026469
30
0
11
32.507822182028427
21
-181.23434182026469
31
0
0
LINE
5
142
100
AcDbEntity
8
0
100
AcDbLine
10
32.507822182028427
20
-181.23434182026469
30
0
11
32.507822182028427
21
-184.23434182026466
31
0
0
LINE
5
143
100
AcDbEntity
8
0
100
AcDbLine
10
32.507822182028427
20
-184.23434182026466
30
0
11
30.470671860593193
21
-184.23434182026466
31
0
0
SPLINE
5
144
100
AcDbEntity
8
0
100
AcDbSpline
70
0
71
3
72
10
73
6
74
0
42
0.000000001
43
0.0000000001
44
0.0000000001
40
-4.2730037011398068
40
-4.2730037011398068
40
-4.2730037011398068
40
-4.2730037011398068
40
-2.0424862319991965
40
-2.0424862319991965
40
0
40
0
40
0
40
0
10
30.470671860593193
20
-184.23434182026466
30
0
10
30.367759437167528
20
-191.81466846727972
30
0
10
30.199073173343777
20
-199.11201219586093
30
0
10
29.732140284525901
20
-213.50553262439487
30
0
10
29.448437182763243
20
-220.44594562745189
30
0
10
29.124041876118309
20
-227.24650042472041
30
0
0
LINE
5
145
100
AcDbEntity
8
0
100
AcDbLine
10
29.124041876118309
20
-227.24650042472041
30
0
11
31.124041876118305
21
-227.24650042472041
31
0
0
LINE
5
146
100
AcDbEntity
8
0
100
AcDbLine
10
31.124041876118305
20
-227.24650042472041
30
0
11
31.124041876118326
21
-230.24650042472041
31
0
0
LINE
5
147
100
AcDbEntity
8
0
100
AcDbLine
10
31.124041876118326
20
-230.24650042472041
30
0
11
28.977866378450614
21
-230.24650042472061
31
0
0
SPLINE
5
148
100
AcDbEntity
8
0
100
AcDbSpline
70
0
71
3
72
10
73
6
74
0
42
0.000000001
43
0.0000000001
44
0.0000000001
40
-1.8044095765283292
40
-1.8044095765283292
40
-1.8044095765283292
40
-1.8044095765283292
40
-0.84875579044153271
40
-0.84875579044153271
40
0
40
0
40
0
40
0
10
28.977866378450603
20
-230.24650042472058
30
0
10
28.819592434660013
20
-233.42786945620395
30
0
10
28.648588285793757
20
-236.65600040051658
30
0
10
28.308108209142038
20
-242.65933069488963
30
0
10
28.135528029716703
20
-245.53420114861319
30
0
10
27.953110012196426
20
-248.35750008942611
30
0
0
LINE
5
149
100
AcDbEntity
8
0
100
AcDbLine
10
27.953110012196426
20
-248.35750008942611
30
0
11
29.853094801669524
21
-248.35750008942603
31
0
0
LINE
5
150
100
AcDbEntity
8
0
100
AcDbLine
10
29.853094801669524
20
-248.35750008942603
30
0
11
29.853094801669524
21
-251.35750008942603
31
0
0
LINE
5
151
100
AcDbEntity
8
0
100
AcDbLine
10
29.853094801669524
20
-251.35750008942603
30
0
11
27.754059814143098
21
-251.35750008942603
31
0
0
SPLINE
5
152
100
AcDbEntity
8
0
100
AcDbSpline
70
0
71
3
72
10
73
6
74
0
42
0.000000001
43
0.0000000001
44
0.0000000001
40
-0.2368660858866789
40
-0.2368660858866789
40
-0.2368660858866789
40
-0.2368660858866789
40
-0.11704313490338084
40
-0.11704313490338084
40
0
40
0
40
0
40
0
10
27.754059814143105
20
-251.35750008942605
30
0
10
27.726890425870479
20
-251.75598263205305
30
0
10
27.699400929205318
20
-252.15465820356087
30
0
10
27.644442037826646
20
-252.94229460958834
30
0
10
27.616957749537523
20
-253.33168506091025
30
0
10
27.589153568718878
20
-253.72083682944194
30
0
0
SPLINE
5
153
100
AcDbEntity
8
0
100
AcDbSpline
70
0
71
3
72
16
73
12
74
0
42
0.000000001
43
0.0000000001
44
0.0000000001
40
-8.6939268688267202
40
-8.6939268688267202
40
-8.6939268688267202
40
-8.6939268688267202
40
-7.4738016372077629
40
-7.4738016372077629
40
-6.5410549342832471
40
-6.5410549342832471
40
-5.5379382861046951
40
-5.5379382861046951
40
-4.2136216340064543
40
-4.2136216340064543
40
0
40
0
40
0
40
0
10
27.589153568718881
20
-253.72083682944202
30
0
10
27.407738640060259
20
-254.65849409589032
30
0
10
27.215207229182607
20
-255.42227381114492
30
0
10
26.770524024551385
20
-256.5369277209212
30
0
10
26.541047793069854
20
-256.9481340774725
30
0
10
25.933314402292162
20
-257.67378583612924
30
0
10
25.560546760172365
20
-257.95875745783417
30
0
10
24.553538699711353
20
-258.47915763088128
30
0
10
23.835577302613228
20
-258.68993922751406
30
0
10
19.952137029499475
20
-259.32387700541653
30
0
10
15.545405446688179
20
-259.22337448470159
30
0
10
1.5000000000000002
20
-259.22337448470159
30
0
0
LINE
5
154
100
AcDbEntity
8
0
100
AcDbLine
10
1.4999999999999987
20
-259.22337448470159
30
0
11
-1.4999999999999991
21
-259.22337448470159
31
0
0
SPLINE
5
155
100
AcDbEntity
8
0
100
AcDbSpline
70
0
71
3
72
16
73
12
74
0
42
0.000000001
43
0.0000000001
44
0.0000000001
40
-1.8654242431453718
40
-1.8654242431453718
40
-1.8654242431453718
40
-1.8654242431453718
40
-1.1624806974661286
40
-1.1624806974661286
40
-0.84138192300351233
40
-0.84138192300351233
40
-0.6269279319433182
40
-0.6269279319433182
40
-0.39961789667049774
40
-0.39961789667049774
40
0
40
0
40
0
40
0
10
-1.5000000000000002
20
-259.22337448470159
30
0
10
-13.548350402753426
20
-259.22337448470159
30
0
10
-18.151557839055307
20
-259.27839349202424
30
0
10
-22.512080806372524
20
-258.9367668983565
30
0
10
-23.548682513909807
20
-258.76847824741338
30
0
10
-24.895168569848273
20
-258.32408616094796
30
0
10
-25.334950583195841
20
-258.1013956998728
30
0
10
-26.08862284975503
20
-257.52488736682943
30
0
10
-26.388170332271919
20
-257.16758153220422
30
0
10
-27.060252126646066
20
-256.0037922528486
30
0
10
-27.336123293785644
20
-255.02864362173204
30
0
10
-27.589153568718881
20
-253.72083682944202
30
0
0
LINE
5
156
100
AcDbEntity
8
0
100
AcDbLine
10
1.4999999999999991
20
-25.211659623065898
30
0
11
-1.4999999999999991
21
-25.211659623065898
31
0
0
LINE
5
157
100
AcDbEntity
8
0
100
AcDbLine
10
-1.4999999999999991
20
-25.211659623065898
30
0
11
-1.4999999999999991
21
-22.711659623065898
31
0
0
SPLINE
5
158
100
AcDbEntity
8
0
100
AcDbSpline
70
0
71
3
72
30
73
26
74
0
42
0.000000001
43
0.0000000001
44
0.0000000001
40
-30.980219572197782
40
-30.980219572197782
40
-30.980219572197782
40
-30.980219572197782
40
-30.025202908821321
40
-30.025202908821321
40
-28.99890304109298
40
-28.99890304109298
40
-26.661299576234978
40
-26.661299576234978
40
-19.489121924468073
40
-19.489121924468073
40
-15.223738886330825
40
-15.223738886330825
40
-11.778833424918693
40
-11.778833424918693
40
-9.8055319592258066
40
-9.8055319592258066
40
-7.74962756917588
40
-7.74962756917588
40
-6.4191926809093793
40
-6.4191926809093793
40
-4.9840156599768273
40
-4.9840156599768273
40
-3.1272741775942987
40
-3.1272741775942987
40
0
40
0
40
0
40
0
10
-1.5000000000000002
20
-22.711659623065898
30
0
10
-3.0607778386368159
20
-22.958711367056459
30
0
10
-4.87765707743534
20
-23.735604356128661
30
0
10
-8.7417733976944358
20
-25.934696972475187
30
0
10
-11.145355617505814
20
-27.607600660466794
30
0
10
-19.135049881617725
20
-34.837459568746588
30
0
10
-22.514508864707121
20
-40.499959963942743
30
0
10
-31.232737425255799
20
-59.099646956667158
30
0
10
-33.148196542075539
20
-77.542974230560773
30
0
10
-34.777956656753865
20
-114.67269759225314
30
0
10
-35.559057371696525
20
-141.08515180903356
30
0
10
-34.85484649518024
20
-200.05486020340351
30
0
10
-33.964507748808664
20
-218.76647758068
30
0
10
-33.106270332043991
20
-239.93633871521848
30
0
10
-33.021499185988759
20
-242.80222845730495
30
0
10
-32.649317642203719
20
-248.91202224652301
30
0
10
-32.382893700519787
20
-251.36368172583576
30
0
10
-31.51252712492365
20
-254.6745523841264
30
0
10
-31.052143839765503
20
-255.82519713387819
30
0
10
-29.701349357522201
20
-257.94822206051595
30
0
10
-28.815989388256899
20
-258.83875189364676
30
0
10
-26.36698682389784
20
-260.54101830175807
30
0
10
-24.55472569798399
20
-261.34024354625728
30
0
10
-18.071934892071507
20
-263.04412946067424
30
0
10
-11.924247258647661
20
-263.76688623901265
30
0
10
-1.5000000000000002
20
-263.76688623901208
30
0
0
LINE
5
159
100
AcDbEntity
8
0
100
AcDbLine
10
-1.5000000000000009
20
-263.76688623901208
30
0
11
-1.4999999999999991
21
-261.26688623901208
31
0
0
LINE
5
160
100
AcDbEntity
8
0
100
AcDbLine
10
-1.4999999999999991
20
-261.26688623901208
30
0
11
1.4999999999999991
21
-261.26688623901208
31
0
0
LINE
5
161
100
AcDbEntity
8
0
100
AcDbLine
10
1.4999999999999991
20
-261.26688623901208
30
0
11
1.4999999999999991
21
-263.76688623901208
31
0
0
SPLINE
5
162
100
AcDbEntity
8
0
100
AcDbSpline
70
0
71
3
72
32
73
28
74
0
42
0.000000001
43
0.0000000001
44
0.0000000001
40
-23.783518135415719
40
-23.783518135415719
40
-23.783518135415719
40
-23.783518135415719
40
-20.877309675898609
40
-20.877309675898609
40
-19.381876429467155
40
-19.381876429467155
40
-17.991484253501579
40
-17.991484253501579
40
-16.444974343077607
40
-16.444974343077607
40
-14.299475415627278
40
-14.299475415627278
40
-12.43640771075539
40
-12.43640771075539
40
-11.507281839891792
40
-11.507281839891792
40
-7.5021658748461668
40
-7.5021658748461668
40
-4.9010346951201393
40
-4.9010346951201393
40
-2.6581143814031511
40
-2.6581143814031511
40
-1.1909100243354835
40
-1.1909100243354835
40
-0.34822453769071693
40
-0.34822453769071693
40
0
40
0
40
0
40
0
10
1.5000000000000002
20
-263.76688623901208
30
0
10
11.93803627255939
20
-263.76688623901265
30
0
10
18.255852489210007
20
-263.03095420536289
30
0
10
24.490888721602051
20
-261.33738866754311
30
0
10
26.13403893586046
20
-260.63154272882616
30
0
10
28.62395029022311
20
-259.02297034885055
30
0
10
29.529245668853122
20
-258.13062074597957
30
0
10
30.999017274888871
20
-255.98524071719382
30
0
10
31.522448222653484
20
-254.69176372351257
30
0
10
32.419005241180578
20
-251.14211502953088
30
0
10
32.676007935169736
20
-248.6215706673255
30
0
10
33.024420899390023
20
-242.60776633114247
30
0
10
33.085998467877573
20
-240.26002768337116
30
0
10
33.748975968180581
20
-224.21240025122052
30
0
10
34.109443368952405
20
-215.70252216478241
30
0
10
35.506501873133814
20
-175.1129466277763
30
0
10
35.55633766116334
20
-143.34668031709651
30
0
10
34.015957511716984
20
-93.493744925216532
30
0
10
33.161158173140407
20
-80.545884971357793
30
0
10
30.235982800121995
20
-61.084822647998003
30
0
10
28.183803867278925
20
-52.754221653119025
30
0
10
22.686498120831409
20
-40.770471534666648
30
0
10
19.317400021551009
20
-35.080068114821124
30
0
10
10.672191796390143
20
-27.137504347716046
30
0
10
7.4384104463853662
20
-25.022929504523734
30
0
10
3.852968863816959
20
-23.351738705503557
30
0
10
2.6464748723587048
20
-22.893132353935112
30
0
10
1.5000000000000002
20
-22.711659623065898
30
0
0
LINE
5
163
100
AcDbEntity
8
0
100
AcDbLine
10
1.5000000000000002
20
-22.711659623065898
30
0
11
1.4999999999999991
21
-25.211659623065898
31
0
0
ENDSEC
0
SECTION
2
OBJECTS
0
DICTIONARY
5
C
100
AcDbDictionary
3
ACAD_GROUP
350
D
3
ACAD_MLINESTYLE
350
17
0
DICTIONARY
5
D
100
AcDbDictionary
0
DICTIONARY
5
1A
330
C
100
AcDbDictionary
0
DICTIONARY
5
17
100
AcDbDictionary
0
ENDSEC
0
EOF
