0
SECTION
2
HEADER
9
$INSUNITS
70
4
9
$ACADVER
1
AC1014
9
$HANDSEED
5
FFFF
0
ENDSEC
0
SECTION
2
TABLES
0
TABLE
2
VPORT
5
8
100
AcDbSymbolTable
0
ENDTAB
0
TABLE
2
LTYPE
5
5
100
AcDbSymbolTable
0
LTYPE
5
14
100
AcDbSymbolTableRecord
100
AcDbLinetypeTableRecord
2
BYBLOCK
70
0
0
LTYPE
5
15
100
AcDbSymbolTableRecord
100
AcDbLinetypeTableRecord
2
BYLAYER
70
0
0
ENDTAB
0
TABLE
2
LAYER
5
2
100
AcDbSymbolTable
70
2
0
LAYER
5
50
100
AcDbSymbolTableRecord
100
AcDbLayerTableRecord
2
0
70
0
6
CONTINUOUS
0
ENDTAB
0
TABLE
2
STYLE
5
3
100
AcDbSymbolTable
70
1
0
STYLE
5
11
100
AcDbSymbolTableRecord
100
AcDbTextStyleTableRecord
2
STANDARD
70
0
0
ENDTAB
0
TABLE
2
VIEW
5
6
100
AcDbSymbolTable
70
0
0
ENDTAB
0
TABLE
2
UCS
5
7
100
AcDbSymbolTable
70
0
0
ENDTAB
0
TABLE
2
APPID
5
9
100
AcDbSymbolTable
70
2
0
APPID
5
12
100
AcDbSymbolTableRecord
100
AcDbRegAppTableRecord
2
ACAD
70
0
0
ENDTAB
0
TABLE
2
DIMSTYLE
5
A
100
AcDbSymbolTable
70
1
0
ENDTAB
0
TABLE
2
BLOCK_RECORD
5
1
100
AcDbSymbolTable
70
1
0
BLOCK_RECORD
5
1F
100
AcDbSymbolTableRecord
100
AcDbBlockTableRecord
2
*MODEL_SPACE
0
BLOCK_RECORD
5
1B
100
AcDbSymbolTableRecord
100
AcDbBlockTableRecord
2
*PAPER_SPACE
0
ENDTAB
0
ENDSEC
0
SECTION
2
BLOCKS
0
BLOCK
5
20
100
AcDbEntity
100
AcDbBlockBegin
2
*MODEL_SPACE
0
ENDBLK
5
21
100
AcDbEntity
100
AcDbBlockEnd
0
BLOCK
5
1C
100
AcDbEntity
100
AcDbBlockBegin
2
*PAPER_SPACE
0
ENDBLK
5
1D
100
AcDbEntity
100
AcDbBlockEnd
0
ENDSEC
0
SECTION
2
ENTITIES
0
LINE
5
100
100
AcDbEntity
8
0
100
AcDbLine
10
21.190328697163991
20
-43.197866006897257
30
0
11
21.190328697163991
21
-46.197866006897272
31
0
0
LINE
5
101
100
AcDbEntity
8
0
100
AcDbLine
10
21.190328697163991
20
-46.197866006897272
30
0
11
20.312634523942812
21
-46.197866006897272
31
0
0
SPLINE
5
102
100
AcDbEntity
8
0
100
AcDbSpline
70
0
71
3
72
10
73
6
74
0
42
0.000000001
43
0.0000000001
44
0.0000000001
40
-4.8821183461915139
40
-4.8821183461915139
40
-4.8821183461915139
40
-4.8821183461915139
40
-2.2626883770022892
40
-2.2626883770022892
40
0
40
0
40
0
40
0
10
20.312634523942211
20
-46.197866006897513
30
0
10
22.398107472293457
20
-51.381153625481375
30
0
10
24.421147614045495
20
-58.136964020297491
30
0
10
27.57711062843736
20
-74.058133142071924
30
0
10
28.581570751346227
20
-81.69927996649335
30
0
10
29.27071700735403
20
-89.210024611353049
30
0
0
LINE
5
103
100
AcDbEntity
8
0
100
AcDbLine
10
29.27071700735403
20
-89.210024611353049
30
0
11
31.22604728251892
21
-89.210024611353077
31
0
0
LINE
5
104
100
AcDbEntity
8
0
100
AcDbLine
10
31.22604728251892
20
-89.210024611353077
30
0
11
31.22604728251892
21
-92.210024611353077
31
0
0
LINE
5
105
100
AcDbEntity
8
0
100
AcDbLine
10
31.22604728251892
20
-92.210024611353077
30
0
11
29.530195299132981
21
-92.210024611353077
31
0
0
SPLINE
5
106
100
AcDbEntity
8
0
100
AcDbSpline
70
0
71
3
72
10
73
6
74
0
42
0.000000001
43
0.0000000001
44
0.0000000001
40
-4.1100725745952822
40
-4.1100725745952822
40
-4.1100725745952822
40
-4.1100725745952822
40
-2.0109353709134123
40
-2.0109353709134123
40
0
40
0
40
0
40
0
10
29.530195299134707
20
-92.210024611374436
30
0
10
30.121755496895474
20
-99.48231223152149
30
0
10
30.447634088014869
20
-106.74903385801341
30
0
10
30.801890506524682
20
-121.07790435649008
30
0
10
30.844838125557295
20
-128.51907109452424
30
0
10
30.853642193976327
20
-135.22218321580772
30
0
0
LINE
5
107
100
AcDbEntity
8
0
100
AcDbLine
10
30.853642193976327
20
-135.22218321580772
30
0
11
32.783619831677306
21
-135.22218321580885
31
0
0
LINE
5
108
100
AcDbEntity
8
0
100
AcDbLine
10
32.783619831677306
20
-135.22218321580885
30
0
11
32.783619831677306
21
-138.22218321580885
31
0
0
LINE
5
109
100
AcDbEntity
8
0
100
AcDbLine
10
32.783619831677306
20
-138.22218321580885
30
0
11
30.855556122046707
21
-138.22218321580885
31
0
0
SPLINE
5
110
100
AcDbEntity
8
0
100
AcDbSpline
70
0
71
3
72
10
73
6
74
0
42
0.000000001
43
0.0000000001
44
0.0000000001
40
-3.9699172551224269
40
-3.9699172551224269
40
-3.9699172551224269
40
-3.9699172551224269
40
-2.1247616687838713
40
-2.1247616687838713
40
0
40
0
40
0
40
0
10
30.855556122046718
20
-138.22218321580885
30
0
10
30.855704134737746
20
-144.79866392508413
30
0
10
30.827470564986228
20
-154.28386776773263
30
0
10
30.788527265554571
20
-165.59187509546354
30
0
10
30.753169580484467
20
-174.15212922439767
30
0
10
30.685184585489317
20
-181.23434182026392
30
0
0
LINE
5
111
100
AcDbEntity
8
0
100
AcDbLine
10
30.685184585489317
20
-181.23434182026389
30
0
11
32.663741939753571
21
-181.23434182026469
31
0
0
LINE
5
112
100
AcDbEntity
8
0
100
AcDbLine
10
32.663741939753571
20
-181.23434182026469
30
0
11
32.663741939753571
21
-184.23434182026466
31
0
0
LINE
5
113
100
AcDbEntity
8
0
100
AcDbLine
10
32.663741939753571
20
-184.23434182026466
30
0
11
30.653820851438006
21
-184.23434182026466
31
0
0
SPLINE
5
114
100
AcDbEntity
8
0
100
AcDbSpline
70
0
71
3
72
10
73
6
74
0
42
0.000000001
43
0.0000000001
44
0.0000000001
40
-4.4056336055268819
40
-4.4056336055268819
40
-4.4056336055268819
40
-4.4056336055268819
40
-2.2101008176107491
40
-2.2101008176107491
40
0
40
0
40
0
40
0
10
30.653820851166479
20
-184.23434182045656
30
0
10
30.57161219815006
20
-191.47467847515566
30
0
10
30.44307338257212
20
-198.43529725497237
30
0
10
29.998973643682675
20
-212.96095772323224
30
0
10
29.703012067339372
20
-219.88962229423774
30
0
10
29.316911913464629
20
-227.24650042472041
30
0
0
LINE
5
115
100
AcDbEntity
8
0
100
AcDbLine
10
29.316911913464626
20
-227.24650042472041
30
0
11
31.416681493455719
21
-227.24650042472041
31
0
0
LINE
5
116
100
AcDbEntity
8
0
100
AcDbLine
10
31.416681493455719
20
-227.24650042472041
30
0
11
31.41668149345573
21
-230.24650042472041
31
0
0
LINE
5
117
100
AcDbEntity
8
0
100
AcDbLine
10
31.41668149345573
20
-230.24650042472041
30
0
11
29.155871345714562
21
-230.24650042472041
31
0
0
SPLINE
5
118
100
AcDbEntity
8
0
100
AcDbSpline
70
0
71
3
72
10
73
6
74
0
42
0.000000001
43
0.0000000001
44
0.0000000001
40
-2.1116790809868586
40
-2.1116790809868586
40
-2.1116790809868586
40
-2.1116790809868586
40
-0.88362325590705293
40
-0.88362325590705293
40
0
40
0
40
0
40
0
10
29.155871345711422
20
-230.24650042477774
30
0
10
28.959021987525752
20
-233.83711034612091
30
0
10
28.590739259898346
20
-240.07698202976718
30
0
10
28.519434416142818
20
-241.28428660125863
30
0
10
28.27481410825655
20
-245.41665854163895
30
0
10
28.110813852408903
20
-248.357500089426
30
0
0
LINE
5
119
100
AcDbEntity
8
0
100
AcDbLine
10
28.110813852408903
20
-248.357500089426
30
0
11
30.220115595428389
21
-248.35750008942603
31
0
0
LINE
5
120
100
AcDbEntity
8
0
100
AcDbLine
10
30.220115595428389
20
-248.35750008942603
30
0
11
30.220115595428389
21
-251.35750008942603
31
0
0
LINE
5
121
100
AcDbEntity
8
0
100
AcDbLine
10
30.220115595428389
20
-251.35750008942603
30
0
11
27.93922038819359
21
-251.35750008942603
31
0
0
SPLINE
5
122
100
AcDbEntity
8
0
100
AcDbSpline
70
0
71
3
72
16
73
12
74
0
42
0.000000001
43
0.0000000001
44
0.0000000001
40
-5.6717255473769335
40
-5.6717255473769335
40
-5.6717255473769335
40
-5.6717255473769335
40
-4.2784839021491941
40
-4.2784839021491941
40
-3.8204083212566906
40
-3.8204083212566906
40
-3.4459531407450306
40
-3.4459531407450306
40
-2.9989575251389899
40
-2.9989575251389899
40
0
40
0
40
0
40
0
10
27.939220388193561
20
-251.35750008942597
30
0
10
27.869001585076518
20
-252.45538599251705
30
0
10
27.807673680423189
20
-253.64901239562087
30
0
10
27.111645374503791
20
-256.02973862646922
30
0
10
26.947674398631975
20
-256.45529799404676
30
0
10
26.56663710202033
20
-257.11227488388306
30
0
10
26.281248684800339
20
-257.50924107584905
30
0
10
25.139307757918552
20
-258.37119911495716
30
0
10
24.533988691333182
20
-258.56973065652704
30
0
10
21.483650044670206
20
-259.37623528225885
30
0
10
11.492004409181547
20
-259.77647396423043
30
0
10
1.5000000000000004
20
-259.47587183870263
30
0
0
LINE
5
123
100
AcDbEntity
8
0
100
AcDbLine
10
1.5000000000000016
20
-259.47587183870263
30
0
11
-1.4999999999999991
21
-259.47587183870263
31
0
0
SPLINE
5
124
100
AcDbEntity
8
0
100
AcDbSpline
70
0
71
3
72
18
73
14
74
0
42
0.000000001
43
0.0000000001
44
0.0000000001
40
-14.836827288027187
40
-14.836827288027187
40
-14.836827288027187
40
-14.836827288027187
40
-6.1439963640883111
40
-6.1439963640883111
40
-3.5292245646349727
40
-3.5292245646349727
40
-2.0878454120958341
40
-2.0878454120958341
40
-0.92218868224826123
40
-0.92218868224826123
40
-0.40545736990053888
40
-0.40545736990053888
40
0
40
0
40
0
40
0
10
-1.5000000000000004
20
-259.47587183870263
30
0
10
-7.2800957238172117
20
-259.64976178001785
30
0
10
-15.35818288908867
20
-259.63960412623965
30
0
10
-22.84754071817337
20
-258.95702803290908
30
0
10
-23.722051360066793
20
-258.79969068297584
30
0
10
-24.626246857493257
20
-258.53308165651646
30
0
10
-25.20948077152298
20
-258.33054681485686
30
0
10
-26.291400774386613
20
-257.49071516208312
30
0
10
-26.565813761252013
20
-257.11415881493542
30
0
10
-26.816151762898382
20
-256.68185844324989
30
0
10
-27.1410254262161
20
-256.10207892962529
30
0
10
-27.768053674181399
20
-253.52670335196254
30
0
10
-27.852955572985483
20
-252.70626880016349
30
0
10
-27.939220388193561
20
-251.35750008942597
30
0
0
LINE
5
125
100
AcDbEntity
8
0
100
AcDbLine
10
-27.939220388193561
20
-251.35750008942603
30
0
11
-30.220115595428389
21
-251.35750008942603
31
0
0
LINE
5
126
100
AcDbEntity
8
0
100
AcDbLine
10
-30.220115595428389
20
-251.35750008942603
30
0
11
-30.220115595428389
21
-248.35750008942603
31
0
0
LINE
5
127
100
AcDbEntity
8
0
100
AcDbLine
10
-30.220115595428389
20
-248.35750008942603
30
0
11
-28.110813852408896
21
-248.35750008942603
31
0
0
SPLINE
5
128
100
AcDbEntity
8
0
100
AcDbSpline
70
0
71
3
72
10
73
6
74
0
42
0.000000001
43
0.0000000001
44
0.0000000001
40
-1.855030134255202
40
-1.855030134255202
40
-1.855030134255202
40
-1.855030134255202
40
-1.0788005538256631
40
-1.0788005538256631
40
0
40
0
40
0
40
0
10
-28.110813852408903
20
-248.357500089426
30
0
10
-28.274814108256553
20
-245.41665854163881
30
0
10
-28.519434416142815
20
-241.28428660125871
30
0
10
-28.590739259898356
20
-240.07698202976727
30
0
10
-28.959021987525869
20
-233.83711034611875
30
0
10
-29.155871345711422
20
-230.24650042477774
30
0
0
LINE
5
129
100
AcDbEntity
8
0
100
AcDbLine
10
-29.155871345711425
20
-230.24650042477774
30
0
11
-31.416681493455734
21
-230.24650042472041
31
0
0
LINE
5
130
100
AcDbEntity
8
0
100
AcDbLine
10
-31.416681493455734
20
-230.24650042472041
30
0
11
-31.416681493455716
21
-227.24650042472041
31
0
0
LINE
5
131
100
AcDbEntity
8
0
100
AcDbLine
10
-31.416681493455716
20
-227.24650042472041
30
0
11
-29.316911913465269
21
-227.24650042472041
31
0
0
SPLINE
5
132
100
AcDbEntity
8
0
100
AcDbSpline
70
0
71
3
72
10
73
6
74
0
42
0.000000001
43
0.0000000001
44
0.0000000001
40
-4.3588954908891759
40
-4.3588954908891759
40
-4.3588954908891759
40
-4.3588954908891759
40
-2.1722410046403433
40
-2.1722410046403433
40
0
40
0
40
0
40
0
10
-29.316911913464629
20
-227.24650042472041
30
0
10
-29.703012067339372
20
-219.88962229423774
30
0
10
-29.998973643682675
20
-212.96095772323224
30
0
10
-30.44307338257212
20
-198.43529725497237
30
0
10
-30.57161219815006
20
-191.47467847515566
30
0
10
-30.653820851166479
20
-184.23434182045656
30
0
0
LINE
5
133
100
AcDbEntity
8
0
100
AcDbLine
10
-30.653820851166479
20
-184.23434182045656
30
0
11
-32.663741939753578
21
-184.23434182026466
31
0
0
LINE
5
134
100
AcDbEntity
8
0
100
AcDbLine
10
-32.663741939753578
20
-184.23434182026466
30
0
11
-32.663741939753578
21
-181.23434182026469
31
0
0
LINE
5
135
100
AcDbEntity
8
0
100
AcDbLine
10
-32.663741939753578
20
-181.23434182026469
30
0
11
-30.685184585489324
21
-181.23434182026469
31
0
0
SPLINE
5
136
100
AcDbEntity
8
0
100
AcDbSpline
70
0
71
3
72
10
73
6
74
0
42
0.000000001
43
0.0000000001
44
0.0000000001
40
-4.244858988420332
40
-4.244858988420332
40
-4.244858988420332
40
-4.244858988420332
40
-1.972944213282265
40
-1.972944213282265
40
0
40
0
40
0
40
0
10
-30.685184585489317
20
-181.23434182026392
30
0
10
-30.753169580484467
20
-174.15212922439767
30
0
10
-30.788527265554571
20
-165.59187509546354
30
0
10
-30.827470564986228
20
-154.28386776773263
30
0
10
-30.855704134737746
20
-144.79866392508413
30
0
10
-30.855556122046718
20
-138.22218321580885
30
0
0
LINE
5
137
100
AcDbEntity
8
0
100
AcDbLine
10
-30.855556122046714
20
-138.22218321580885
30
0
11
-32.783619831677306
21
-138.22218321580885
31
0
0
LINE
5
138
100
AcDbEntity
8
0
100
AcDbLine
10
-32.783619831677306
20
-138.22218321580885
30
0
11
-32.783619831677306
21
-135.22218321580885
31
0
0
LINE
5
139
100
AcDbEntity
8
0
100
AcDbLine
10
-32.783619831677306
20
-135.22218321580885
30
0
11
-30.853642193976334
21
-135.22218321580885
31
0
0
SPLINE
5
140
100
AcDbEntity
8
0
100
AcDbSpline
70
0
71
3
72
10
73
6
74
0
42
0.000000001
43
0.0000000001
44
0.0000000001
40
-4.2858116319164319
40
-4.2858116319164319
40
-4.2858116319164319
40
-4.2858116319164319
40
-2.1888924054860941
40
-2.1888924054860941
40
0
40
0
40
0
40
0
10
-30.853642193976327
20
-135.22218321580772
30
0
10
-30.844838125557295
20
-128.51907109452424
30
0
10
-30.801890506524682
20
-121.07790435649008
30
0
10
-30.447634088014869
20
-106.74903385801341
30
0
10
-30.121755496895474
20
-99.48231223152149
30
0
10
-29.530195299134707
20
-92.210024611374436
30
0
0
LINE
5
141
100
AcDbEntity
8
0
100
AcDbLine
10
-29.530195299134707
20
-92.210024611374436
30
0
11
-31.226047282518916
21
-92.210024611353077
31
0
0
LINE
5
142
100
AcDbEntity
8
0
100
AcDbLine
10
-31.226047282518916
20
-92.210024611353077
30
0
11
-31.226047282518916
21
-89.210024611353077
31
0
0
LINE
5
143
100
AcDbEntity
8
0
100
AcDbLine
10
-31.226047282518916
20
-89.210024611353077
30
0
11
-29.27071700735403
21
-89.210024611353077
31
0
0
SPLINE
5
144
100
AcDbEntity
8
0
100
AcDbSpline
70
0
71
3
72
10
73
6
74
0
42
0.000000001
43
0.0000000001
44
0.0000000001
40
-3.1239860202173206
40
-3.1239860202173206
40
-3.1239860202173206
40
-3.1239860202173206
40
-1.6761295045354525
40
-1.6761295045354525
40
0
40
0
40
0
40
0
10
-29.27071700735403
20
-89.210024611353049
30
0
10
-28.581570751346227
20
-81.69927996649335
30
0
10
-27.57711062843736
20
-74.058133142071924
30
0
10
-24.421147614045495
20
-58.136964020297491
30
0
10
-22.398107472293457
20
-51.381153625481375
30
0
10
-20.312634523942211
20
-46.197866006897513
30
0
0
LINE
5
145
100
AcDbEntity
8
0
100
AcDbLine
10
-20.312634523942211
20
-46.197866006897513
30
0
11
-21.190328697163991
21
-46.197866006897272
31
0
0
LINE
5
146
100
AcDbEntity
8
0
100
AcDbLine
10
-21.190328697163991
20
-46.197866006897272
30
0
11
-21.190328697163991
21
-43.197866006897257
31
0
0
LINE
5
147
100
AcDbEntity
8
0
100
AcDbLine
10
-21.190328697163991
20
-43.197866006897257
30
0
11
-19.019696366301268
21
-43.197866006897257
31
0
0
SPLINE
5
148
100
AcDbEntity
8
0
100
AcDbSpline
70
0
71
3
72
12
73
8
74
0
42
0.000000001
43
0.0000000001
44
0.0000000001
40
-1.6916259545539305
40
-1.6916259545539305
40
-1.6916259545539305
40
-1.6916259545539305
40
-0.93600561667418525
40
-0.93600561667418525
40
-0.38670760427013023
40
-0.38670760427013023
40
0
40
0
40
0
40
0
10
-19.019696366300543
20
-43.197866006895694
30
0
10
-17.003348126619528
20
-38.839150137877489
30
0
10
-14.589827778497426
20
-35.051934292275774
30
0
10
-9.1740540443441176
20
-30.026287629770522
30
0
10
-6.957166292714982
20
-28.78858812899923
30
0
10
-4.0748704653343948
20
-27.616589100898793
30
0
10
-2.7865979481745011
20
-27.259701933835064
30
0
10
-1.5000000000000002
20
-27.180631924200259
30
0
0
LINE
5
149
100
AcDbEntity
8
0
100
AcDbLine
10
-1.5000000000000002
20
-27.180631924200259
30
0
11
1.4999999999999991
21
-27.180631924200259
31
0
0
SPLINE
5
150
100
AcDbEntity
8
0
100
AcDbSpline
70
0
71
3
72
12
73
8
74
0
42
0.000000001
43
0.0000000001
44
0.0000000001
40
-2.7928072228898033
40
-2.7928072228898033
40
-2.7928072228898033
40
-2.7928072228898033
40
-2.2682950036995901
40
-2.2682950036995901
40
-1.4347411695036187
40
-1.4347411695036187
40
0
40
0
40
0
40
0
10
1.5000000000000002
20
-27.180631924200259
30
0
10
3.3933457798795983
20
-27.296990627608352
30
0
10
5.109783901946626
20
-27.994496966824499
30
0
10
7.8739189188495882
20
-29.313017537198579
30
0
10
9.6854869481458667
20
-30.493037133295495
30
0
10
14.610637067510321
20
-35.084990628489535
30
0
10
17.011760087273849
20
-38.857334172595294
30
0
10
19.019696366300543
20
-43.197866006895694
30
0
0
LINE
5
151
100
AcDbEntity
8
0
100
AcDbLine
10
19.019696366300543
20
-43.197866006895694
30
0
11
21.190328697163991
21
-43.197866006897257
31
0
0
LINE
5
152
100
AcDbEntity
8
0
100
AcDbLine
10
1.4999999999999991
20
-24.5478893531401
30
0
11
-1.4999999999999991
21
-24.5478893531401
31
0
0
LINE
5
153
100
AcDbEntity
8
0
100
AcDbLine
10
-1.4999999999999991
20
-24.5478893531401
30
0
11
-1.4999999999999991
21
-22.212592059095279
31
0
0
SPLINE
5
154
100
AcDbEntity
8
0
100
AcDbSpline
70
0
71
3
72
34
73
30
74
0
42
0.000000001
43
0.0000000001
44
0.0000000001
40
-5.6062770453057889
40
-5.6062770453057889
40
-5.6062770453057889
40
-5.6062770453057889
40
-5.6008744497248921
40
-5.6008744497248921
40
-5.5951610124325413
40
-5.5951610124325413
40
-5.5809026549550351
40
-5.5809026549550351
40
-5.5389302834826095
40
-5.5389302834826095
40
-5.4837261117273099
40
-5.4837261117273099
40
-5.4104606776652489
40
-5.4104606776652489
40
-5.2564480110085601
40
-5.2564480110085601
40
-5.0877757422552587
40
-5.0877757422552587
40
-4.5706466803947094
40
-4.5706466803947094
40
-4.0721223659495083
40
-4.0721223659495083
40
-3.4988337345661642
40
-3.4988337345661642
40
-2.8626142743071563
40
-2.8626142743071563
40
-2.1155070381721295
40
-2.1155070381721295
40
0
40
0
40
0
40
0
10
-1.5000000000000002
20
-22.212592059095279
30
0
10
-3.5561638958935236
20
-22.717705694375109
30
0
10
-5.5112627722828371
20
-23.488239259325429
30
0
10
-9.3390034481697057
20
-25.568598704736942
30
0
10
-11.155551017018727
20
-26.882694929325176
30
0
10
-17.011335942528028
20
-32.071403252667764
30
0
10
-20.139646247479661
20
-36.67804526892472
30
0
10
-28.708055109510646
20
-51.960876317293554
30
0
10
-31.052295403787458
20
-64.509184847307225
30
0
10
-33.927938618723992
20
-89.305789469678984
30
0
10
-34.52926923085333
20
-108.36354164785928
30
0
10
-35.031617560859814
20
-127.03899450915651
30
0
10
-35.251980137388855
20
-141.26976074879531
30
0
10
-35.45923894008147
20
-174.03620856361229
30
0
10
-34.900401261872894
20
-187.49210914144015
30
0
10
-33.78713173977561
20
-218.03695232435024
30
0
10
-33.563067085299195
20
-228.45381305605571
30
0
10
-33.346695058330823
20
-237.78351217782284
30
0
10
-33.21861550936643
20
-243.25088809595275
30
0
10
-32.526611083806742
20
-250.70292185215118
30
0
10
-31.857081710719545
20
-253.23444167256739
30
0
10
-31.241624676874249
20
-255.23810569265208
30
0
10
-30.843522566986117
20
-256.17054840757942
30
0
10
-29.69553813390792
20
-257.9149000994426
30
0
10
-28.909269306545529
20
-258.70502688981571
30
0
10
-26.474848317218953
20
-260.33529231620167
30
0
10
-24.67350594991823
20
-261.17872976721696
30
0
10
-16.318091580697079
20
-263.88359389831089
30
0
10
-8.551504099730991
20
-264.31104403412473
30
0
10
-1.5000000000000002
20
-264.25982311947843
30
0
0
LINE
5
155
100
AcDbEntity
8
0
100
AcDbLine
10
-1.4999999999999996
20
-264.25982311947843
30
0
11
-1.4999999999999991
21
-261.9830705959439
31
0
0
LINE
5
156
100
AcDbEntity
8
0
100
AcDbLine
10
-1.4999999999999991
20
-261.9830705959439
30
0
11
1.4999999999999991
21
-261.9830705959439
31
0
0
LINE
5
157
100
AcDbEntity
8
0
100
AcDbLine
10
1.4999999999999991
20
-261.9830705959439
30
0
11
1.4999999999999991
21
-264.25982311947843
31
0
0
SPLINE
5
158
100
AcDbEntity
8
0
100
AcDbSpline
70
0
71
3
72
30
73
26
74
0
42
0.000000001
43
0.0000000001
44
0.0000000001
40
-16.574724111442961
40
-16.574724111442961
40
-16.574724111442961
40
-16.574724111442961
40
-13.23167050743076
40
-13.23167050743076
40
-12.319727689422489
40
-12.319727689422489
40
-11.590444219077741
40
-11.590444219077741
40
-10.594148893401716
40
-10.594148893401716
40
-9.352749382538633
40
-9.352749382538633
40
-8.4688206779089654
40
-8.4688206779089654
40
-6.8447065407395238
40
-6.8447065407395238
40
-5.3409086475826744
40
-5.3409086475826744
40
-3.6993490726987477
40
-3.6993490726987477
40
-2.194625582432348
40
-2.194625582432348
40
-0.95998756959626463
40
-0.95998756959626463
40
0
40
0
40
0
40
0
10
1.5000000000000002
20
-264.25982311947843
30
0
10
8.8082494569986878
20
-264.31290898830247
30
0
10
17.005412696408357
20
-263.85292348159743
30
0
10
25.056648667143403
20
-260.9853995257817
30
0
10
26.692037833302592
20
-260.21984133116581
30
0
10
28.978041344168926
20
-258.63111265483855
30
0
10
29.711109682073634
20
-257.884349141332
30
0
10
31.064838869101465
20
-255.84344565854445
30
0
10
31.649890406296723
20
-254.29380497801276
30
0
10
32.850745775200402
20
-248.45938501398865
30
0
10
33.118870104385621
20
-245.14748540009816
30
0
10
33.490674259097688
20
-232.3968022930992
30
0
10
33.598419538277618
20
-224.90291939574121
30
0
10
34.779348375469318
20
-188.85766125372965
30
0
10
35.64947769105175
20
-175.87132997815772
30
0
10
34.827622064183302
20
-110.46933992924174
30
0
10
34.07676411338074
20
-96.3566465931209
30
0
10
32.397127488782672
20
-74.116724890370861
30
0
10
31.104112291257749
20
-63.729231649662729
30
0
10
25.244575028590162
20
-45.092576139355309
30
0
10
21.688438587720555
20
-39.00404808076533
30
0
10
16.317626183192459
20
-31.63648938665218
30
0
10
13.438467311594838
20
-28.547926655321096
30
0
10
7.4563188919007644
20
-24.338915279165153
30
0
10
4.6075644785048118
20
-22.975990927122734
30
0
10
1.5000000000000002
20
-22.212592059095279
30
0
0
LINE
5
159
100
AcDbEntity
8
0
100
AcDbLine
10
1.5000000000000013
20
-22.212592059095275
30
0
11
1.4999999999999991
21
-24.5478893531401
31
0
0
ENDSEC
0
SECTION
2
OBJECTS
0
DICTIONARY
5
C
100
AcDbDictionary
3
ACAD_GROUP
350
D
3
ACAD_MLINESTYLE
350
17
0
DICTIONARY
5
D
100
AcDbDictionary
0
DICTIONARY
5
1A
330
C
100
AcDbDictionary
0
DICTIONARY
5
17
100
AcDbDictionary
0
ENDSEC
0
EOF
