0
SECTION
2
HEADER
9
$INSUNITS
70
4
9
$ACADVER
1
AC1014
9
$HANDSEED
5
FFFF
0
ENDSEC
0
SECTION
2
TABLES
0
TABLE
2
VPORT
5
8
100
AcDbSymbolTable
0
ENDTAB
0
TABLE
2
LTYPE
5
5
100
AcDbSymbolTable
0
LTYPE
5
14
100
AcDbSymbolTableRecord
100
AcDbLinetypeTableRecord
2
BYBLOCK
70
0
0
LTYPE
5
15
100
AcDbSymbolTableRecord
100
AcDbLinetypeTableRecord
2
BYLAYER
70
0
0
ENDTAB
0
TABLE
2
LAYER
5
2
100
AcDbSymbolTable
70
2
0
LAYER
5
50
100
AcDbSymbolTableRecord
100
AcDbLayerTableRecord
2
0
70
0
6
CONTINUOUS
0
ENDTAB
0
TABLE
2
STYLE
5
3
100
AcDbSymbolTable
70
1
0
STYLE
5
11
100
AcDbSymbolTableRecord
100
AcDbTextStyleTableRecord
2
STANDARD
70
0
0
ENDTAB
0
TABLE
2
VIEW
5
6
100
AcDbSymbolTable
70
0
0
ENDTAB
0
TABLE
2
UCS
5
7
100
AcDbSymbolTable
70
0
0
ENDTAB
0
TABLE
2
APPID
5
9
100
AcDbSymbolTable
70
2
0
APPID
5
12
100
AcDbSymbolTableRecord
100
AcDbRegAppTableRecord
2
ACAD
70
0
0
ENDTAB
0
TABLE
2
DIMSTYLE
5
A
100
AcDbSymbolTable
70
1
0
ENDTAB
0
TABLE
2
BLOCK_RECORD
5
1
100
AcDbSymbolTable
70
1
0
BLOCK_RECORD
5
1F
100
AcDbSymbolTableRecord
100
AcDbBlockTableRecord
2
*MODEL_SPACE
0
BLOCK_RECORD
5
1B
100
AcDbSymbolTableRecord
100
AcDbBlockTableRecord
2
*PAPER_SPACE
0
ENDTAB
0
ENDSEC
0
SECTION
2
BLOCKS
0
BLOCK
5
20
100
AcDbEntity
100
AcDbBlockBegin
2
*MODEL_SPACE
0
ENDBLK
5
21
100
AcDbEntity
100
AcDbBlockEnd
0
BLOCK
5
1C
100
AcDbEntity
100
AcDbBlockBegin
2
*PAPER_SPACE
0
ENDBLK
5
1D
100
AcDbEntity
100
AcDbBlockEnd
0
ENDSEC
0
SECTION
2
ENTITIES
0
LWPOLYLINE
5
100
100
AcDbEntity
8
0
100
AcDbPolyline
90
28
70
1
43
0.0
10
-10.591532751986538
20
-89.210024611353077
10
-10.591532751986538
20
-92.210024611353077
10
-1.5000000000000002
20
-92.210024611353077
10
-1.5000000000000013
20
-135.22218321580885
10
-13.314252736218906
20
-135.22218321580885
10
-13.314252736218904
20
-138.22218321580885
10
-1.5000000000000002
20
-138.22218321580888
10
-1.5000000000000002
20
-181.23434182026469
10
-10.54113602509787
20
-181.23434182026469
10
-10.54113602509787
20
-184.23434182026466
10
-1.5000000000000002
20
-184.23434182026466
10
-1.5000000000000002
20
-194.34699654598828
10
1.4999999999999991
20
-194.34699654598828
10
1.4999999999999991
20
-184.23434182026466
10
10.54113602509787
20
-184.23434182026466
10
10.54113602509787
20
-181.23434182026469
10
1.4999999999999991
20
-181.23434182026469
10
1.4999999999999991
20
-138.22218321580888
10
13.314252736218904
20
-138.22218321580885
10
13.314252736218904
20
-135.22218321580885
10
1.5000000000000013
20
-135.22218321580885
10
1.4999999999999991
20
-92.210024611353077
10
10.591532751986538
20
-92.210024611353077
10
10.591532751986538
20
-89.210024611353077
10
1.4999999999999991
20
-89.210024611353077
10
1.4999999999999991
20
-67.269010890863044
10
-1.5000000000000002
20
-67.269010890863044
10
-1.5000000000000002
20
-89.210024611353077
0
SPLINE
5
101
100
AcDbEntity
8
0
100
AcDbSpline
70
0
71
3
72
14
73
10
74
0
42
0.000000001
43
0.0000000001
44
0.0000000001
40
-3.9265563691264878
40
-3.9265563691264878
40
-3.9265563691264878
40
-3.9265563691264878
40
-3.6336699494504612
40
-3.6336699494504612
40
-3.24214547746343
40
-3.24214547746343
40
-2.1535120651923791
40
-2.1535120651923791
40
0
40
0
40
0
40
0
10
-1.5000000000000002
20
-57.044831184434514
30
0
10
-1.5000000000000009
20
-57.375996058481753
30
0
10
-1.6569705919284625
20
-57.913102455207692
30
0
10
-2.1895411948545176
20
-59.350587113158433
30
0
10
-2.6398900055580654
20
-60.354772135531292
30
0
10
-3.993108468879158
20
-63.273127879025907
30
0
10
-5.2358147287257406
20
-65.726267419742925
30
0
10
-10.1951958747339
20
-75.557408047448021
30
0
10
-13.671120656887737
20
-82.489080962400351
30
0
10
-16.192620865126472
20
-89.210024611353077
30
0
0
SPLINE
5
102
100
AcDbEntity
8
0
100
AcDbSpline
70
0
71
3
72
14
73
10
74
0
42
0.000000001
43
0.0000000001
44
0.0000000001
40
-4.599483892861902
40
-4.599483892861902
40
-4.599483892861902
40
-4.599483892861902
40
-2.5256941981732846
40
-2.5256941981732846
40
-1.464625255940146
40
-1.464625255940146
40
-0.46959999116206869
40
-0.46959999116206869
40
0
40
0
40
0
40
0
10
-16.192620865126663
20
-89.210024611353575
30
0
10
-18.302938165892858
20
-94.834978999030028
30
0
10
-19.501293695999159
20
-99.658668673976734
30
0
10
-20.703263751071876
20
-107.91933693203858
30
0
10
-21.387690653549068
20
-113.59798379663415
30
0
10
-22.276572019967645
20
-134.09933604526802
30
0
10
-22.818196600302421
20
-154.73831067678407
30
0
10
-18.576414258935444
20
-179.82737769647682
30
0
10
-17.226451623087346
20
-182.80703010480249
30
0
10
-16.58376225868156
20
-184.2343418202646
30
0
0
SPLINE
5
103
100
AcDbEntity
8
0
100
AcDbSpline
70
0
71
3
72
14
73
10
74
0
42
0.000000001
43
0.0000000001
44
0.0000000001
40
-4.4731594381312227
40
-4.4731594381312227
40
-4.4731594381312227
40
-4.4731594381312227
40
-3.636770972941501
40
-3.636770972941501
40
-2.211338397158515
40
-2.211338397158515
40
-0.34786414914823222
40
-0.34786414914823222
40
0
40
0
40
0
40
0
10
-16.583762258681517
20
-184.23434182026469
30
0
10
-16.036880674056423
20
-185.44887956732623
30
0
10
-15.531301202098422
20
-186.68164850397969
30
0
10
-14.142935360193917
20
-190.00537734615801
30
0
10
-13.210105986409619
20
-192.10282503202595
30
0
10
-9.78328440642575
20
-198.7722976478168
30
0
10
-6.5225355514922878
20
-204.58976828362592
30
0
10
-3.3364359345936681
20
-208.49557713531087
30
0
10
-2.4450724196929268
20
-209.52487526003978
30
0
10
-1.5000000000000002
20
-210.19672922235301
30
0
0
LINE
5
104
100
AcDbEntity
8
0
100
AcDbLine
10
-1.4999999999999996
20
-210.19672922235301
30
0
11
-1.5000000000000002
21
-197.34699654598828
31
0
0
LINE
5
105
100
AcDbEntity
8
0
100
AcDbLine
10
-1.5000000000000002
20
-197.34699654598828
30
0
11
1.4999999999999991
21
-197.34699654598828
31
0
0
LINE
5
106
100
AcDbEntity
8
0
100
AcDbLine
10
1.4999999999999991
20
-197.34699654598828
30
0
11
1.4999999999999991
21
-210.19672922235301
31
0
0
SPLINE
5
107
100
AcDbEntity
8
0
100
AcDbSpline
70
0
71
3
72
28
73
24
74
0
42
0.000000001
43
0.0000000001
44
0.0000000001
40
-6.986926350234965
40
-6.986926350234965
40
-6.986926350234965
40
-6.986926350234965
40
-5.0566511455519123
40
-5.0566511455519123
40
-3.859366595684425
40
-3.859366595684425
40
-3.5672781600678585
40
-3.5672781600678585
40
-3.2006990271213658
40
-3.2006990271213658
40
-2.6205357148619512
40
-2.6205357148619512
40
-1.9630274226304629
40
-1.9630274226304629
40
-1.4936910380709563
40
-1.4936910380709563
40
-0.7595018393409122
40
-0.7595018393409122
40
-0.20396476865873037
40
-0.20396476865873037
40
-0.046846813283129882
40
-0.046846813283129882
40
0
40
0
40
0
40
0
10
1.5000000000000002
20
-210.19672922235301
30
0
10
3.1639509098371716
20
-209.01382303593391
30
0
10
5.1171232187306783
20
-206.39867141575809
30
0
10
8.6436852474325114
20
-200.6847803374761
30
0
10
11.920917934260629
20
-195.14644920826913
30
0
10
15.251294315624463
20
-187.37998341138245
30
0
10
15.860623855750617
20
-185.83779728281502
30
0
10
17.397067663941332
20
-182.43109386079908
30
0
10
18.101704103813429
20
-180.55084709604068
30
0
10
20.304409927815712
20
-170.854026041624
30
0
10
21.542240266757759
20
-162.25490730069305
30
0
10
22.52908790863691
20
-135.86516507358743
30
0
10
21.845659753668993
20
-121.73677875078332
30
0
10
20.830505101595644
20
-108.64000078391753
30
0
10
20.264252878567497
20
-103.98403631428357
30
0
10
17.7567530920556
20
-92.579527589852702
30
0
10
15.249279577095376
20
-86.128251648518358
30
0
10
7.7507290485751135
20
-70.537909705462027
30
0
10
4.2724631754994702
20
-64.028960129140998
30
0
10
2.0707855416366407
20
-59.058166670188747
30
0
10
1.7256497879195973
20
-58.170881284940464
30
0
10
1.5350013070190969
20
-57.390408867282162
30
0
10
1.5000000000000004
20
-57.200987228711611
30
0
10
1.5000000000000002
20
-57.044831184434514
30
0
0
LINE
5
108
100
AcDbEntity
8
0
100
AcDbLine
10
1.5000000000000004
20
-57.044831184434514
30
0
11
1.4999999999999991
21
-64.269010890863072
31
0
0
LINE
5
109
100
AcDbEntity
8
0
100
AcDbLine
10
1.4999999999999991
20
-64.269010890863072
30
0
11
-1.5000000000000002
21
-64.269010890863072
31
0
0
LINE
5
110
100
AcDbEntity
8
0
100
AcDbLine
10
-1.5000000000000002
20
-64.269010890863072
30
0
11
-1.5000000000000002
21
-57.044831184434514
31
0
0
ENDSEC
0
SECTION
2
OBJECTS
0
DICTIONARY
5
C
100
AcDbDictionary
3
ACAD_GROUP
350
D
3
ACAD_MLINESTYLE
350
17
0
DICTIONARY
5
D
100
AcDbDictionary
0
DICTIONARY
5
1A
330
C
100
AcDbDictionary
0
DICTIONARY
5
17
100
AcDbDictionary
0
ENDSEC
0
EOF
