0
SECTION
2
HEADER
9
$INSUNITS
70
4
9
$ACADVER
1
AC1014
9
$HANDSEED
5
FFFF
0
ENDSEC
0
SECTION
2
TABLES
0
TABLE
2
VPORT
5
8
100
AcDbSymbolTable
0
ENDTAB
0
TABLE
2
LTYPE
5
5
100
AcDbSymbolTable
0
LTYPE
5
14
100
AcDbSymbolTableRecord
100
AcDbLinetypeTableRecord
2
BYBLOCK
70
0
0
LTYPE
5
15
100
AcDbSymbolTableRecord
100
AcDbLinetypeTableRecord
2
BYLAYER
70
0
0
ENDTAB
0
TABLE
2
LAYER
5
2
100
AcDbSymbolTable
70
2
0
LAYER
5
50
100
AcDbSymbolTableRecord
100
AcDbLayerTableRecord
2
0
70
0
6
CONTINUOUS
0
ENDTAB
0
TABLE
2
STYLE
5
3
100
AcDbSymbolTable
70
1
0
STYLE
5
11
100
AcDbSymbolTableRecord
100
AcDbTextStyleTableRecord
2
STANDARD
70
0
0
ENDTAB
0
TABLE
2
VIEW
5
6
100
AcDbSymbolTable
70
0
0
ENDTAB
0
TABLE
2
UCS
5
7
100
AcDbSymbolTable
70
0
0
ENDTAB
0
TABLE
2
APPID
5
9
100
AcDbSymbolTable
70
2
0
APPID
5
12
100
AcDbSymbolTableRecord
100
AcDbRegAppTableRecord
2
ACAD
70
0
0
ENDTAB
0
TABLE
2
DIMSTYLE
5
A
100
AcDbSymbolTable
70
1
0
ENDTAB
0
TABLE
2
BLOCK_RECORD
5
1
100
AcDbSymbolTable
70
1
0
BLOCK_RECORD
5
1F
100
AcDbSymbolTableRecord
100
AcDbBlockTableRecord
2
*MODEL_SPACE
0
BLOCK_RECORD
5
1B
100
AcDbSymbolTableRecord
100
AcDbBlockTableRecord
2
*PAPER_SPACE
0
ENDTAB
0
ENDSEC
0
SECTION
2
BLOCKS
0
BLOCK
5
20
100
AcDbEntity
100
AcDbBlockBegin
2
*MODEL_SPACE
0
ENDBLK
5
21
100
AcDbEntity
100
AcDbBlockEnd
0
BLOCK
5
1C
100
AcDbEntity
100
AcDbBlockBegin
2
*PAPER_SPACE
0
ENDBLK
5
1D
100
AcDbEntity
100
AcDbBlockEnd
0
ENDSEC
0
SECTION
2
ENTITIES
0
SPLINE
5
100
100
AcDbEntity
8
0
100
AcDbSpline
70
0
71
3
72
10
73
6
74
0
42
0.000000001
43
0.0000000001
44
0.0000000001
40
-4.3017613119834905
40
-4.3017613119834905
40
-4.3017613119834905
40
-4.3017613119834905
40
-2.0911079297083002
40
-2.0911079297083002
40
0
40
0
40
0
40
0
10
-28.798420178276338
20
-181.23434182026472
30
0
10
-28.909453619211263
20
-173.86633378377934
30
0
10
-29.034521173023325
20
-166.4985316716259
30
0
10
-29.296253203891624
20
-152.16171618133444
30
0
10
-29.42917735999967
20
-145.19234002258852
30
0
10
-29.482369014545601
20
-138.22218321580885
30
0
0
LINE
5
101
100
AcDbEntity
8
0
100
AcDbLine
10
-29.482369014545604
20
-138.22218321580885
30
0
11
-31.541879327691156
21
-138.22218321580885
31
0
0
LINE
5
102
100
AcDbEntity
8
0
100
AcDbLine
10
-31.541879327691156
20
-138.22218321580885
30
0
11
-31.541879327691159
21
-135.22218321580885
31
0
0
LINE
5
103
100
AcDbEntity
8
0
100
AcDbLine
10
-31.541879327691159
20
-135.22218321580885
30
0
11
-29.499818186831952
21
-135.22218321580885
31
0
0
SPLINE
5
104
100
AcDbEntity
8
0
100
AcDbSpline
70
0
71
3
72
10
73
6
74
0
42
0.000000001
43
0.0000000001
44
0.0000000001
40
-4.3126235222201297
40
-4.3126235222201297
40
-4.3126235222201297
40
-4.3126235222201297
40
-2.1787507828535029
40
-2.1787507828535029
40
0
40
0
40
0
40
0
10
-29.499818186831952
20
-135.22218321580885
30
0
10
-29.527581778959767
20
-128.1051455846501
30
0
10
-29.453117830582816
20
-121.0188567532345
30
0
10
-28.883582809716373
20
-106.66817445509591
30
0
10
-28.380150644924456
20
-99.425090063886813
30
0
10
-27.55143195392111
20
-92.210024611353106
30
0
0
LINE
5
105
100
AcDbEntity
8
0
100
AcDbLine
10
-27.55143195392111
20
-92.210024611353106
30
0
11
-29.18763973709892
21
-92.210024611353077
31
0
0
LINE
5
106
100
AcDbEntity
8
0
100
AcDbLine
10
-29.18763973709892
20
-92.210024611353077
30
0
11
-29.18763973709892
21
-89.210024611353077
31
0
0
LINE
5
107
100
AcDbEntity
8
0
100
AcDbLine
10
-29.18763973709892
20
-89.210024611353077
30
0
11
-27.18763973709892
21
-89.210024611353077
31
0
0
SPLINE
5
108
100
AcDbEntity
8
0
100
AcDbSpline
70
0
71
3
72
10
73
6
74
0
42
0.000000001
43
0.0000000001
44
0.0000000001
40
-4.4384582310974396
40
-4.4384582310974396
40
-4.4384582310974396
40
-4.4384582310974396
40
-2.1887110100044183
40
-2.1887110100044183
40
0
40
0
40
0
40
0
10
-27.187639737098923
20
-89.210024611353049
30
0
10
-26.234182096887832
20
-81.747725732413898
30
0
10
-24.928774921669167
20
-74.410252598996223
30
0
10
-21.467418853469553
20
-59.999650032547407
30
0
10
-19.361523400989729
20
-53.036506833466078
30
0
10
-16.819815459507758
20
-46.197866006897272
30
0
0
LINE
5
109
100
AcDbEntity
8
0
100
AcDbLine
10
-16.819815459507758
20
-46.197866006897272
30
0
11
-18.819815459507758
21
-46.197866006897272
31
0
0
LINE
5
110
100
AcDbEntity
8
0
100
AcDbLine
10
-18.819815459507758
20
-46.197866006897272
30
0
11
-18.819815459507758
21
-43.197866006897257
31
0
0
LINE
5
111
100
AcDbEntity
8
0
100
AcDbLine
10
-18.819815459507758
20
-43.197866006897257
30
0
11
-17.036236093849247
21
-43.197866006897257
31
0
0
SPLINE
5
112
100
AcDbEntity
8
0
100
AcDbSpline
70
0
71
3
72
12
73
8
74
0
42
0.000000001
43
0.0000000001
44
0.0000000001
40
-1.4566302707445749
40
-1.4566302707445749
40
-1.4566302707445749
40
-1.4566302707445749
40
-1.0059624329522763
40
-1.0059624329522763
40
-0.56571018027669673
40
-0.56571018027669673
40
0
40
0
40
0
40
0
10
-17.036236093849247
20
-43.197866006897257
30
0
10
-15.751548373340253
20
-41.107099544918967
30
0
10
-14.221948371377506
20
-38.96918988915175
30
0
10
-10.849258164268685
20
-35.446565634585106
30
0
10
-9.2354312330997743
20
-34.273198263274637
30
0
10
-5.4860547082921185
20
-32.415762903879553
30
0
10
-3.3814485191626771
20
-31.987837460280574
30
0
10
-1.5000000000000002
20
-31.861274329553737
30
0
0
LINE
5
113
100
AcDbEntity
8
0
100
AcDbLine
10
-1.5000000000000004
20
-31.861274329553737
30
0
11
1.4999999999999991
21
-31.861274329553737
31
0
0
SPLINE
5
114
100
AcDbEntity
8
0
100
AcDbSpline
70
0
71
3
72
12
73
8
74
0
42
0.000000001
43
0.0000000001
44
0.0000000001
40
-1.709214552226922
40
-1.709214552226922
40
-1.709214552226922
40
-1.709214552226922
40
-1.3329939635301633
40
-1.3329939635301633
40
-0.94457457897488672
40
-0.94457457897488672
40
0
40
0
40
0
40
0
10
1.5000000000000002
20
-31.861274329553737
30
0
10
3.0023593516384937
20
-31.962336517056336
30
0
10
4.494140560299499
20
-32.250262294469017
30
0
10
7.3907339328681676
20
-33.272483783984214
30
0
10
8.7257870756556777
20
-33.994977479577749
30
0
10
13.045605914483964
20
-37.204175019750075
30
0
10
15.38787618688653
20
-40.515240839917496
30
0
10
17.036236093849247
20
-43.197866006897257
30
0
0
LINE
5
115
100
AcDbEntity
8
0
100
AcDbLine
10
17.036236093849247
20
-43.197866006897257
30
0
11
18.819815459507755
21
-43.197866006897257
31
0
0
LINE
5
116
100
AcDbEntity
8
0
100
AcDbLine
10
18.819815459507755
20
-43.197866006897257
30
0
11
18.819815459507755
21
-46.197866006897272
31
0
0
LINE
5
117
100
AcDbEntity
8
0
100
AcDbLine
10
18.819815459507755
20
-46.197866006897272
30
0
11
16.819815459507762
21
-46.197866006897272
31
0
0
SPLINE
5
118
100
AcDbEntity
8
0
100
AcDbSpline
70
0
71
3
72
10
73
6
74
0
42
0.000000001
43
0.0000000001
44
0.0000000001
40
-4.4525483734891944
40
-4.4525483734891944
40
-4.4525483734891944
40
-4.4525483734891944
40
-2.2568891737802312
40
-2.2568891737802312
40
0
40
0
40
0
40
0
10
16.819815459507758
20
-46.197866006897272
30
0
10
19.361523400989729
20
-53.036506833466078
30
0
10
21.467418853469553
20
-59.999650032547407
30
0
10
24.928774921669167
20
-74.410252598996223
30
0
10
26.234182096887832
20
-81.747725732413898
30
0
10
27.187639737098923
20
-89.210024611353049
30
0
0
LINE
5
119
100
AcDbEntity
8
0
100
AcDbLine
10
27.187639737098923
20
-89.210024611353049
30
0
11
29.18763973709892
21
-89.210024611353077
31
0
0
LINE
5
120
100
AcDbEntity
8
0
100
AcDbLine
10
29.18763973709892
20
-89.210024611353077
30
0
11
29.18763973709892
21
-92.210024611353077
31
0
0
LINE
5
121
100
AcDbEntity
8
0
100
AcDbLine
10
29.18763973709892
20
-92.210024611353077
30
0
11
27.551431953921114
21
-92.210024611353077
31
0
0
SPLINE
5
122
100
AcDbEntity
8
0
100
AcDbSpline
70
0
71
3
72
10
73
6
74
0
42
0.000000001
43
0.0000000001
44
0.0000000001
40
-4.3151595037668198
40
-4.3151595037668198
40
-4.3151595037668198
40
-4.3151595037668198
40
-2.1351275351683325
40
-2.1351275351683325
40
0
40
0
40
0
40
0
10
27.55143195392111
20
-92.210024611353106
30
0
10
28.380150644924456
20
-99.425090063886813
30
0
10
28.883582809716373
20
-106.66817445509591
30
0
10
29.453117830582816
20
-121.0188567532345
30
0
10
29.527581778959767
20
-128.1051455846501
30
0
10
29.499818186831952
20
-135.22218321580885
30
0
0
LINE
5
123
100
AcDbEntity
8
0
100
AcDbLine
10
29.499818186831952
20
-135.22218321580885
30
0
11
31.541879327691152
21
-135.22218321580885
31
0
0
LINE
5
124
100
AcDbEntity
8
0
100
AcDbLine
10
31.541879327691152
20
-135.22218321580885
30
0
11
31.541879327691152
21
-138.22218321580885
31
0
0
LINE
5
125
100
AcDbEntity
8
0
100
AcDbLine
10
31.541879327691152
20
-138.22218321580885
30
0
11
29.482369014545608
21
-138.22218321580885
31
0
0
SPLINE
5
126
100
AcDbEntity
8
0
100
AcDbSpline
70
0
71
3
72
10
73
6
74
0
42
0.000000001
43
0.0000000001
44
0.0000000001
40
-4.3017613119834941
40
-4.3017613119834941
40
-4.3017613119834941
40
-4.3017613119834941
40
-2.2106533822751917
40
-2.2106533822751917
40
0
40
0
40
0
40
0
10
29.482369014545601
20
-138.22218321580885
30
0
10
29.42917735999967
20
-145.19234002258852
30
0
10
29.296253203891659
20
-152.16171618133447
30
0
10
29.03452117302329
20
-166.49853167162593
30
0
10
28.909453619211263
20
-173.86633378377934
30
0
10
28.798420178276331
20
-181.23434182026475
30
0
0
LINE
5
127
100
AcDbEntity
8
0
100
AcDbLine
10
28.798420178276331
20
-181.23434182026472
30
0
11
30.798420178276334
21
-181.23434182026472
31
0
0
LINE
5
128
100
AcDbEntity
8
0
100
AcDbLine
10
30.798420178276334
20
-181.23434182026472
30
0
11
30.798420178276334
21
-184.23434182026469
31
0
0
LINE
5
129
100
AcDbEntity
8
0
100
AcDbLine
10
30.798420178276334
20
-184.23434182026469
30
0
11
28.753418737318221
21
-184.23434182026469
31
0
0
SPLINE
5
130
100
AcDbEntity
8
0
100
AcDbSpline
70
0
71
3
72
10
73
6
74
0
42
0.000000001
43
0.0000000001
44
0.0000000001
40
-4.2437958434679146
40
-4.2437958434679146
40
-4.2437958434679146
40
-4.2437958434679146
40
-1.9899932766248485
40
-1.9899932766248485
40
0
40
0
40
0
40
0
10
28.753418737318217
20
-184.23434182026466
30
0
10
28.730983235850847
20
-185.73288709995779
30
0
10
28.529160170684094
20
-199.42426054374991
30
0
10
28.175026797222117
20
-213.14530754361698
30
0
10
27.912594525501074
20
-220.63090165003143
30
0
10
27.428170494883311
20
-227.24650042471413
30
0
0
LINE
5
131
100
AcDbEntity
8
0
100
AcDbLine
10
27.428170494883311
20
-227.24650042471416
30
0
11
29.188057476455572
21
-227.24650042472041
31
0
0
LINE
5
132
100
AcDbEntity
8
0
100
AcDbLine
10
29.188057476455572
20
-227.24650042472041
30
0
11
29.188057476455583
21
-230.24650042472041
31
0
0
LINE
5
133
100
AcDbEntity
8
0
100
AcDbLine
10
29.188057476455583
20
-230.24650042472041
30
0
11
28.428964633874777
21
-230.24650042472041
31
0
0
SPLINE
5
134
100
AcDbEntity
8
0
100
AcDbSpline
70
0
71
3
72
10
73
6
74
0
42
0.000000001
43
0.0000000001
44
0.0000000001
40
-1.2196319824616233
40
-1.2196319824616233
40
-1.2196319824616233
40
-1.2196319824616233
40
-0.52165250346315739
40
-0.52165250346315739
40
0
40
0
40
0
40
0
10
28.428964633874777
20
-230.24650042472041
30
0
10
27.820799683649682
20
-233.81549122878016
30
0
10
26.947560110630796
20
-238.52479497187116
30
0
10
25.340697545471631
20
-244.82982889005177
30
0
10
24.658417714975727
20
-246.80844062544708
30
0
10
23.865115157156616
20
-248.35577427842551
30
0
0
LINE
5
135
100
AcDbEntity
8
0
100
AcDbLine
10
23.865115157156623
20
-248.35577427842551
30
0
11
25.41778352297413
21
-248.35750008942603
31
0
0
LINE
5
136
100
AcDbEntity
8
0
100
AcDbLine
10
25.41778352297413
20
-248.35750008942603
30
0
11
27.078020634831855
21
-248.35750008942603
31
0
0
LINE
5
137
100
AcDbEntity
8
0
100
AcDbLine
10
27.078020634831855
20
-248.35750008942603
30
0
11
27.078020634831855
21
-251.35750008942603
31
0
0
LINE
5
138
100
AcDbEntity
8
0
100
AcDbLine
10
27.078020634831855
20
-251.35750008942603
30
0
11
21.700258580129269
21
-251.35750008942603
31
0
0
SPLINE
5
139
100
AcDbEntity
8
0
100
AcDbSpline
70
0
71
3
72
12
73
8
74
0
42
0.000000001
43
0.0000000001
44
0.0000000001
40
-3.8008087412399667
40
-3.8008087412399667
40
-3.8008087412399667
40
-3.8008087412399667
40
-2.9268248323275152
40
-2.9268248323275152
40
-1.9185820970159702
40
-1.9185820970159702
40
0
40
0
40
0
40
0
10
21.700258580129233
20
-251.35750008942608
30
0
10
20.891540486211277
20
-252.1420352638012
30
0
10
19.97643809203128
20
-252.75590898864107
30
0
10
17.812417764607829
20
-253.82848902373445
30
0
10
16.481124035902994
20
-254.2766849477361
30
0
10
12.0428172181402
20
-255.3166611315242
30
0
10
7.8947681964474086
20
-255.79117675550577
30
0
10
1.5000000000000002
20
-255.87158109643519
30
0
0
LINE
5
140
100
AcDbEntity
8
0
100
AcDbLine
10
1.4999999999999996
20
-255.87158109643519
30
0
11
-1.4999999999999991
21
-255.87158109643519
31
0
0
SPLINE
5
141
100
AcDbEntity
8
0
100
AcDbSpline
70
0
71
3
72
10
73
6
74
0
42
0.000000001
43
0.0000000001
44
0.0000000001
40
-1.2775736996727569
40
-1.2775736996727569
40
-1.2775736996727569
40
-1.2775736996727569
40
-0.38389466395947525
40
-0.38389466395947525
40
0
40
0
40
0
40
0
10
-1.5000000000000002
20
-255.87158109643519
30
0
10
-9.6181721422216651
20
-255.76950761064265
30
0
10
-14.80176692591982
20
-255.04120632722385
30
0
10
-19.650466240589253
20
-252.99504186960365
30
0
10
-20.781781888460102
20
-252.2485117743102
30
0
10
-21.700258580129233
20
-251.35750008942608
30
0
0
LINE
5
142
100
AcDbEntity
8
0
100
AcDbLine
10
-21.70025858012923
20
-251.35750008942608
30
0
11
-27.078020634831859
21
-251.35750008942603
31
0
0
LINE
5
143
100
AcDbEntity
8
0
100
AcDbLine
10
-27.078020634831859
20
-251.35750008942603
30
0
11
-27.078020634831859
21
-248.35750008942603
31
0
0
LINE
5
144
100
AcDbEntity
8
0
100
AcDbLine
10
-27.078020634831859
20
-248.35750008942603
30
0
11
-25.417783522974126
21
-248.35750008942603
31
0
0
LINE
5
145
100
AcDbEntity
8
0
100
AcDbLine
10
-25.417783522974126
20
-248.35750008942603
30
0
11
-23.865115157156648
21
-248.3557742784256
31
0
0
SPLINE
5
146
100
AcDbEntity
8
0
100
AcDbSpline
70
0
71
3
72
10
73
6
74
0
42
0.000000001
43
0.0000000001
44
0.0000000001
40
-2.1000224434729597
40
-2.1000224434729597
40
-2.1000224434729597
40
-2.1000224434729597
40
-0.98673426482546645
40
-0.98673426482546645
40
0
40
0
40
0
40
0
10
-23.865115157156637
20
-248.35577427842554
30
0
10
-24.79470154995445
20
-246.54261951830301
30
0
10
-25.586174920263058
20
-244.10906984701708
30
0
10
-27.169440691624843
20
-237.29522592911178
30
0
10
-27.876455559217433
20
-233.48887702975458
30
0
10
-28.428964633874777
20
-230.24650042472041
30
0
0
LINE
5
147
100
AcDbEntity
8
0
100
AcDbLine
10
-28.428964633874777
20
-230.24650042472041
30
0
11
-29.188057476455583
21
-230.24650042472041
31
0
0
LINE
5
148
100
AcDbEntity
8
0
100
AcDbLine
10
-29.188057476455583
20
-230.24650042472041
30
0
11
-29.188057476455572
21
-227.24650042472041
31
0
0
LINE
5
149
100
AcDbEntity
8
0
100
AcDbLine
10
-29.188057476455572
20
-227.24650042472041
30
0
11
-27.42817049496918
21
-227.24650042472041
31
0
0
SPLINE
5
150
100
AcDbEntity
8
0
100
AcDbSpline
70
0
71
3
72
10
73
6
74
0
42
0.000000001
43
0.0000000001
44
0.0000000001
40
-0.84660027653476422
40
-0.84660027653476422
40
-0.84660027653476422
40
-0.84660027653476422
40
-0.44961396512064028
40
-0.44961396512064028
40
0
40
0
40
0
40
0
10
-27.428170494883311
20
-227.24650042471413
30
0
10
-27.912594525501074
20
-220.63090165003143
30
0
10
-28.175026797222117
20
-213.14530754361698
30
0
10
-28.529160170684094
20
-199.42426054374991
30
0
10
-28.730983235850847
20
-185.73288709995779
30
0
10
-28.753418737318217
20
-184.23434182026466
30
0
0
LINE
5
151
100
AcDbEntity
8
0
100
AcDbLine
10
-28.753418737318217
20
-184.2343418202646
30
0
11
-30.798420178276334
21
-184.23434182026466
31
0
0
LINE
5
152
100
AcDbEntity
8
0
100
AcDbLine
10
-30.798420178276334
20
-184.23434182026466
30
0
11
-30.798420178276334
21
-181.23434182026472
31
0
0
LINE
5
153
100
AcDbEntity
8
0
100
AcDbLine
10
-30.798420178276334
20
-181.23434182026472
30
0
11
-28.798420178276338
21
-181.23434182026472
31
0
0
LINE
5
154
100
AcDbEntity
8
0
100
AcDbLine
10
-1.4999999999999991
20
-261.01004113506792
30
0
11
-1.4999999999999991
21
-258.51004113506792
31
0
0
LINE
5
155
100
AcDbEntity
8
0
100
AcDbLine
10
-1.4999999999999991
20
-258.51004113506792
30
0
11
1.4999999999999991
21
-258.51004113506792
31
0
0
LINE
5
156
100
AcDbEntity
8
0
100
AcDbLine
10
1.4999999999999991
20
-258.51004113506792
30
0
11
1.4999999999999991
21
-261.01004113506792
31
0
0
SPLINE
5
157
100
AcDbEntity
8
0
100
AcDbSpline
70
0
71
3
72
36
73
32
74
0
42
0.000000001
43
0.0000000001
44
0.0000000001
40
-21.376157431439673
40
-21.376157431439673
40
-21.376157431439673
40
-21.376157431439673
40
-18.656251214071752
40
-18.656251214071752
40
-15.935752908155612
40
-15.935752908155612
40
-14.377780407882558
40
-14.377780407882558
40
-12.986387825833244
40
-12.986387825833244
40
-11.404605610699321
40
-11.404605610699321
40
-8.8726298752507127
40
-8.8726298752507127
40
-7.3595340345183313
40
-7.3595340345183313
40
-7.0376807687912954
40
-7.0376807687912954
40
-6.6687770607090968
40
-6.6687770607090968
40
-6.3073366136208531
40
-6.3073366136208531
40
-5.6732369034776218
40
-5.6732369034776218
40
-4.6117458350422655
40
-4.6117458350422655
40
-2.7986486472929109
40
-2.7986486472929109
40
-1.3769191924915947
40
-1.3769191924915947
40
0
40
0
40
0
40
0
10
1.5000000000000002
20
-261.01004113506792
30
0
10
6.7608760223272055
20
-261.01004113506792
30
0
10
10.15650059185317
20
-261.02634696721628
30
0
10
16.181338412404578
20
-260.7523091639502
30
0
10
18.992990517255603
20
-260.45703729723408
30
0
10
22.796705202806727
20
-259.36214996594413
30
0
10
24.152247568086153
20
-258.80251443979319
30
0
10
26.412452696131062
20
-257.25554134861363
30
0
10
27.288857642691482
20
-256.36343777190046
30
0
10
28.791399490084267
20
-254.03984702194933
30
0
10
29.331657712573474
20
-252.60961866623606
30
0
10
30.354285111290725
20
-248.35862987531402
30
0
10
30.626465336527893
20
-245.12672501502584
30
0
10
30.980936536037596
20
-239.23630283067024
30
0
10
30.994450817041525
20
-238.38402246990282
30
0
10
31.52346231255774
20
-229.88728896437053
30
0
10
32.078421439658783
20
-221.48261148196949
30
0
10
32.818948653779486
20
-202.71656651670145
30
0
10
32.899571277236163
20
-197.94004700539304
30
0
10
33.668395051418443
20
-165.7373478956257
30
0
10
33.77298951744536
20
-162.69986844580109
30
0
10
34.196379518288211
20
-140.41163317167727
30
0
10
34.18404723734443
20
-127.95099324729179
30
0
10
31.271592427252134
20
-77.182275537598045
30
0
10
28.755283709269463
20
-65.56038402580019
30
0
10
26.188564689651997
20
-53.859159929783203
30
0
10
24.106770954552147
20
-47.702700640680327
30
0
10
19.192837523852429
20
-38.624748862091501
30
0
10
16.502795491307239
20
-35.078167426582915
30
0
10
9.7225216861048072
20
-29.285307618635549
30
0
10
5.8674908948669122
20
-27.151143543632791
30
0
10
1.5000000000000002
20
-25.740239349135045
30
0
0
LINE
5
158
100
AcDbEntity
8
0
100
AcDbLine
10
1.5
20
-25.740239349135045
30
0
11
1.4999999999999991
21
-29.361274329553737
31
0
0
LINE
5
159
100
AcDbEntity
8
0
100
AcDbLine
10
1.4999999999999991
20
-29.361274329553737
30
0
11
-1.4999999999999991
21
-29.361274329553737
31
0
0
LINE
5
160
100
AcDbEntity
8
0
100
AcDbLine
10
-1.4999999999999991
20
-29.361274329553737
30
0
11
-1.4999999999999991
21
-25.740239349135035
31
0
0
SPLINE
5
161
100
AcDbEntity
8
0
100
AcDbSpline
70
0
71
3
72
34
73
30
74
0
42
0.000000001
43
0.0000000001
44
0.0000000001
40
-113.14866316343091
40
-113.14866316343091
40
-113.14866316343091
40
-113.14866316343091
40
-107.34439967839035
40
-107.34439967839035
40
-101.48911830310129
40
-101.48911830310129
40
-88.564161938260867
40
-88.564161938260867
40
-61.787578962372137
40
-61.787578962372137
40
-46.814610093613069
40
-46.814610093613069
40
-26.818811044966694
40
-26.818811044966694
40
-10.217477864042886
40
-10.217477864042886
40
-7.8415200061119812
40
-7.8415200061119812
40
-5.2636368314370658
40
-5.2636368314370658
40
-3.9907863608520722
40
-3.9907863608520722
40
-3.3051781944776204
40
-3.3051781944776204
40
-2.7251851221509549
40
-2.7251851221509549
40
-2.0370552447523105
40
-2.0370552447523105
40
0
40
0
40
0
40
0
10
-1.5000000000000002
20
-25.740239349135045
30
0
10
-3.643722129914698
20
-26.432762039563332
30
0
10
-5.7214872471492653
20
-27.323116449114089
30
0
10
-9.6826433146341646
20
-29.519480609683551
30
0
10
-11.541522095587169
20
-30.816218378306345
30
0
10
-17.054221715098002
20
-35.60509836780907
30
0
10
-19.909257579232968
20
-39.631220747963226
30
0
10
-26.767338128548779
20
-53.478095351636419
30
0
10
-29.222312514761835
20
-65.894534620929676
30
0
10
-31.809807517790951
20
-89.551922460520274
30
0
10
-32.530336562146445
20
-99.414222002247186
30
0
10
-33.661508279803598
20
-118.50761131638939
30
0
10
-34.113506814160189
20
-130.23848809201337
30
0
10
-34.033057452674242
20
-153.27788380242598
30
0
10
-33.750985227821346
20
-162.126357690866
30
0
10
-33.071238292907964
20
-190.80958724594507
30
0
10
-32.728875134803182
20
-205.40683612173123
30
0
10
-31.971888392216137
20
-223.66553549446849
30
0
10
-31.570312666941412
20
-228.40631918808467
30
0
10
-30.789648971674048
20
-242.58994767889644
30
0
10
-30.588656733684267
20
-246.48435130514235
30
0
10
-29.696392045178452
20
-251.32275305887686
30
0
10
-29.270001621236087
20
-252.82652524159417
30
0
10
-28.083613433733724
20
-255.26207107281107
30
0
10
-27.386633475925663
20
-256.24096204160855
30
0
10
-25.399315228262388
20
-258.08376176852926
30
0
10
-24.124658130643915
20
-258.79442129494169
30
0
10
-18.700112759787075
20
-260.85724920035341
30
0
10
-13.125334814028623
20
-260.9974909754377
30
0
10
-6.3351622629668984
20
-261.01004113506781
30
0
0
LINE
5
162
100
AcDbEntity
8
0
100
AcDbLine
10
-6.3351622629668984
20
-261.01004113506781
30
0
11
-1.4999999999999991
21
-261.01004113506792
31
0
0
ENDSEC
0
SECTION
2
OBJECTS
0
DICTIONARY
5
C
100
AcDbDictionary
3
ACAD_GROUP
350
D
3
ACAD_MLINESTYLE
350
17
0
DICTIONARY
5
D
100
AcDbDictionary
0
DICTIONARY
5
1A
330
C
100
AcDbDictionary
0
DICTIONARY
5
17
100
AcDbDictionary
0
ENDSEC
0
EOF
