0
SECTION
2
HEADER
9
$INSUNITS
70
4
9
$ACADVER
1
AC1014
9
$HANDSEED
5
FFFF
0
ENDSEC
0
SECTION
2
TABLES
0
TABLE
2
VPORT
5
8
100
AcDbSymbolTable
0
ENDTAB
0
TABLE
2
LTYPE
5
5
100
AcDbSymbolTable
0
LTYPE
5
14
100
AcDbSymbolTableRecord
100
AcDbLinetypeTableRecord
2
BYBLOCK
70
0
0
LTYPE
5
15
100
AcDbSymbolTableRecord
100
AcDbLinetypeTableRecord
2
BYLAYER
70
0
0
ENDTAB
0
TABLE
2
LAYER
5
2
100
AcDbSymbolTable
70
2
0
LAYER
5
50
100
AcDbSymbolTableRecord
100
AcDbLayerTableRecord
2
0
70
0
6
CONTINUOUS
0
ENDTAB
0
TABLE
2
STYLE
5
3
100
AcDbSymbolTable
70
1
0
STYLE
5
11
100
AcDbSymbolTableRecord
100
AcDbTextStyleTableRecord
2
STANDARD
70
0
0
ENDTAB
0
TABLE
2
VIEW
5
6
100
AcDbSymbolTable
70
0
0
ENDTAB
0
TABLE
2
UCS
5
7
100
AcDbSymbolTable
70
0
0
ENDTAB
0
TABLE
2
APPID
5
9
100
AcDbSymbolTable
70
2
0
APPID
5
12
100
AcDbSymbolTableRecord
100
AcDbRegAppTableRecord
2
ACAD
70
0
0
ENDTAB
0
TABLE
2
DIMSTYLE
5
A
100
AcDbSymbolTable
70
1
0
ENDTAB
0
TABLE
2
BLOCK_RECORD
5
1
100
AcDbSymbolTable
70
1
0
BLOCK_RECORD
5
1F
100
AcDbSymbolTableRecord
100
AcDbBlockTableRecord
2
*MODEL_SPACE
0
BLOCK_RECORD
5
1B
100
AcDbSymbolTableRecord
100
AcDbBlockTableRecord
2
*PAPER_SPACE
0
ENDTAB
0
ENDSEC
0
SECTION
2
BLOCKS
0
BLOCK
5
20
100
AcDbEntity
100
AcDbBlockBegin
2
*MODEL_SPACE
0
ENDBLK
5
21
100
AcDbEntity
100
AcDbBlockEnd
0
BLOCK
5
1C
100
AcDbEntity
100
AcDbBlockBegin
2
*PAPER_SPACE
0
ENDBLK
5
1D
100
AcDbEntity
100
AcDbBlockEnd
0
ENDSEC
0
SECTION
2
ENTITIES
0
SPLINE
5
100
100
AcDbEntity
8
0
100
AcDbSpline
70
0
71
3
72
10
73
6
74
0
42
0.000000001
43
0.0000000001
44
0.0000000001
40
-0.88556879189184312
40
-0.88556879189184312
40
-0.88556879189184312
40
-0.88556879189184312
40
-0.54160489653659438
40
-0.54160489653659438
40
0
40
0
40
0
40
0
10
-24.941846499909786
20
-239.5594346935147
30
0
10
-25.259768137712079
20
-238.43570754629962
30
0
10
-25.492451410384373
20
-236.99972334377946
30
0
10
-25.895641516870445
20
-234.05802588013603
30
0
10
-26.081849053041758
20
-232.04645949739316
30
0
10
-26.221257495888331
20
-230.2465004247162
30
0
0
LINE
5
101
100
AcDbEntity
8
0
100
AcDbLine
10
-26.221257495888331
20
-230.24650042471617
30
0
11
-28.428964633874777
21
-230.24650042472041
31
0
0
LINE
5
102
100
AcDbEntity
8
0
100
AcDbLine
10
-28.428964633874777
20
-230.24650042472041
30
0
11
-28.42896463387477
21
-227.24650042472041
31
0
0
LINE
5
103
100
AcDbEntity
8
0
100
AcDbLine
10
-28.42896463387477
20
-227.24650042472041
30
0
11
-26.428964633874767
21
-227.24650042472041
31
0
0
SPLINE
5
104
100
AcDbEntity
8
0
100
AcDbSpline
70
0
71
3
72
10
73
6
74
0
42
0.000000001
43
0.0000000001
44
0.0000000001
40
-4.5989213483545441
40
-4.5989213483545441
40
-4.5989213483545441
40
-4.5989213483545441
40
-2.6434060886567634
40
-2.6434060886567634
40
0
40
0
40
0
40
0
10
-26.428964633874767
20
-227.24650042472047
30
0
10
-26.807260343081456
20
-221.14840036482209
30
0
10
-27.058604249785855
20
-212.79100673630663
30
0
10
-27.393442995996867
20
-200.65004028838905
30
0
10
-27.565246576507
20
-193.04236421645302
30
0
10
-27.807515525850626
20
-184.23434182042479
30
0
0
LINE
5
105
100
AcDbEntity
8
0
100
AcDbLine
10
-27.807515525850626
20
-184.23434182042479
30
0
11
-29.891526610775387
21
-184.23434182026466
31
0
0
LINE
5
106
100
AcDbEntity
8
0
100
AcDbLine
10
-29.891526610775387
20
-184.23434182026466
30
0
11
-29.891526610775387
21
-181.23434182026469
31
0
0
LINE
5
107
100
AcDbEntity
8
0
100
AcDbLine
10
-29.891526610775387
20
-181.23434182026469
30
0
11
-27.891526610775387
21
-181.23434182026469
31
0
0
SPLINE
5
108
100
AcDbEntity
8
0
100
AcDbSpline
70
0
71
3
72
10
73
6
74
0
42
0.000000001
43
0.0000000001
44
0.0000000001
40
-4.1377592410179247
40
-4.1377592410179247
40
-4.1377592410179247
40
-4.1377592410179247
40
-2.0704956025352939
40
-2.0704956025352939
40
0
40
0
40
0
40
0
10
-27.89152661077539
20
-181.23434182026466
30
0
10
-28.14010182567937
20
-172.5168997226732
30
0
10
-28.389952850831953
20
-165.27855587090957
30
0
10
-28.795504642679518
20
-152.56777253012697
30
0
10
-29.0140563846284
20
-145.12360701823377
30
0
10
-29.070180756148972
20
-138.22218321580888
30
0
0
LINE
5
109
100
AcDbEntity
8
0
100
AcDbLine
10
-29.070180756148979
20
-138.22218321580888
30
0
11
-31.085059389782863
21
-138.22218321580885
31
0
0
LINE
5
110
100
AcDbEntity
8
0
100
AcDbLine
10
-31.085059389782863
20
-138.22218321580885
30
0
11
-31.085059389782863
21
-135.22218321580885
31
0
0
LINE
5
111
100
AcDbEntity
8
0
100
AcDbLine
10
-31.085059389782863
20
-135.22218321580885
30
0
11
-29.085059389782863
21
-135.22218321580885
31
0
0
SPLINE
5
112
100
AcDbEntity
8
0
100
AcDbSpline
70
0
71
3
72
10
73
6
74
0
42
0.000000001
43
0.0000000001
44
0.0000000001
40
-4.3282171232934443
40
-4.3282171232934443
40
-4.3282171232934443
40
-4.3282171232934443
40
-2.1904296390762572
40
-2.1904296390762572
40
0
40
0
40
0
40
0
10
-29.085059389782856
20
-135.22218321580883
30
0
10
-29.097063588405835
20
-128.03990767471237
30
0
10
-28.933288461679211
20
-121.06715945480701
30
0
10
-28.07894099998823
20
-106.65580017776838
30
0
10
-27.386789665607246
20
-99.443496396366683
30
0
10
-26.392909849851236
20
-92.210024611356317
30
0
0
LINE
5
113
100
AcDbEntity
8
0
100
AcDbLine
10
-26.392909849851236
20
-92.210024611356317
30
0
11
-28.392909849850788
21
-92.210024611353077
31
0
0
LINE
5
114
100
AcDbEntity
8
0
100
AcDbLine
10
-28.392909849850788
20
-92.210024611353077
30
0
11
-28.392909849850788
21
-89.210024611353077
31
0
0
LINE
5
115
100
AcDbEntity
8
0
100
AcDbLine
10
-28.392909849850788
20
-89.210024611353077
30
0
11
-25.963500818162988
21
-89.210024611353077
31
0
0
SPLINE
5
116
100
AcDbEntity
8
0
100
AcDbSpline
70
0
71
3
72
10
73
6
74
0
42
0.000000001
43
0.0000000001
44
0.0000000001
40
-4.4204255384373266
40
-4.4204255384373266
40
-4.4204255384373266
40
-4.4204255384373266
40
-2.2310461229026144
40
-2.2310461229026144
40
0
40
0
40
0
40
0
10
-25.963500818162856
20
-89.210024611353091
30
0
10
-24.886436721016363
20
-81.976158207338273
30
0
10
-23.519789412920904
20
-74.829591131730325
30
0
10
-20.171674416659805
20
-60.464271229684329
30
0
10
-18.187793934329598
20
-53.286322805572802
30
0
10
-15.938332216701376
20
-46.197866006897272
30
0
0
LINE
5
117
100
AcDbEntity
8
0
100
AcDbLine
10
-15.938332216701374
20
-46.197866006897257
30
0
11
-17.938332216701376
21
-46.197866006897286
31
0
0
LINE
5
118
100
AcDbEntity
8
0
100
AcDbLine
10
-17.938332216701376
20
-46.197866006897286
30
0
11
-17.938332216701376
21
-43.197866006897243
31
0
0
LINE
5
119
100
AcDbEntity
8
0
100
AcDbLine
10
-17.938332216701376
20
-43.197866006897243
30
0
11
-16.02330325542421
21
-43.197866006897243
31
0
0
SPLINE
5
120
100
AcDbEntity
8
0
100
AcDbSpline
70
0
71
3
72
12
73
8
74
0
42
0.000000001
43
0.0000000001
44
0.0000000001
40
-2.2537875307823421
40
-2.2537875307823421
40
-2.2537875307823421
40
-2.2537875307823421
40
-1.4265945638212914
40
-1.4265945638212914
40
-0.77835334543277723
40
-0.77835334543277723
40
0
40
0
40
0
40
0
10
-16.02330325542421
20
-43.197866006897257
30
0
10
-15.33717931197614
20
-41.832913132823542
30
0
10
-14.255664784968358
20
-39.9783775426503
30
0
10
-11.41692670588025
20
-37.083355627176118
30
0
10
-10.0165568790344
20
-36.120302703572698
30
0
10
-6.3871161159166956
20
-34.59361577608356
30
0
10
-4.0929276674931288
20
-34.155792792365169
30
0
10
-1.5000000000000002
20
-34.065160424479288
30
0
0
LINE
5
121
100
AcDbEntity
8
0
100
AcDbLine
10
-1.5000000000000013
20
-34.065160424479281
30
0
11
1.4999999999999991
21
-34.065160424479295
31
0
0
SPLINE
5
122
100
AcDbEntity
8
0
100
AcDbSpline
70
0
71
3
72
12
73
8
74
0
42
0.000000001
43
0.0000000001
44
0.0000000001
40
-2.0580107818926834
40
-2.0580107818926834
40
-2.0580107818926834
40
-2.0580107818926834
40
-1.3731102681277731
40
-1.3731102681277731
40
-0.73523064352048795
40
-0.73523064352048795
40
0
40
0
40
0
40
0
10
1.5000000000000002
20
-34.065160424479288
30
0
10
3.7688948917671183
20
-34.144466653921413
30
0
10
5.8219664022724391
20
-34.4936142354208
30
0
10
9.3087933253568096
20
-35.740398917656584
30
0
10
10.778262314315999
20
-36.603754330373356
30
0
10
13.628681876601746
20
-39.206575277528472
30
0
10
14.922607491812006
20
-41.008177306524772
30
0
10
16.02330325542421
20
-43.197866006897257
30
0
0
LINE
5
123
100
AcDbEntity
8
0
100
AcDbLine
10
16.02330325542421
20
-43.197866006897257
30
0
11
17.938332216701376
21
-43.197866006897243
31
0
0
LINE
5
124
100
AcDbEntity
8
0
100
AcDbLine
10
17.938332216701376
20
-43.197866006897243
30
0
11
17.938332216701376
21
-46.197866006897286
31
0
0
LINE
5
125
100
AcDbEntity
8
0
100
AcDbLine
10
17.938332216701376
20
-46.197866006897286
30
0
11
15.938332216701374
21
-46.197866006897286
31
0
0
SPLINE
5
126
100
AcDbEntity
8
0
100
AcDbSpline
70
0
71
3
72
10
73
6
74
0
42
0.000000001
43
0.0000000001
44
0.0000000001
40
-4.4299221807421745
40
-4.4299221807421745
40
-4.4299221807421745
40
-4.4299221807421745
40
-2.1940829792523084
40
-2.1940829792523084
40
0
40
0
40
0
40
0
10
15.938332216701376
20
-46.197866006897272
30
0
10
18.187793934329598
20
-53.286322805572802
30
0
10
20.171674416659805
20
-60.464271229684329
30
0
10
23.519789412920904
20
-74.829591131730325
30
0
10
24.886436721016363
20
-81.976158207338273
30
0
10
25.963500818162856
20
-89.210024611353091
30
0
0
LINE
5
127
100
AcDbEntity
8
0
100
AcDbLine
10
25.963500818162856
20
-89.210024611353106
30
0
11
28.392909849850795
21
-89.210024611353077
31
0
0
LINE
5
128
100
AcDbEntity
8
0
100
AcDbLine
10
28.392909849850795
20
-89.210024611353077
30
0
11
28.392909849850795
21
-92.210024611353077
31
0
0
LINE
5
129
100
AcDbEntity
8
0
100
AcDbLine
10
28.392909849850795
20
-92.210024611353077
30
0
11
26.392909849850781
21
-92.210024611353063
31
0
0
SPLINE
5
130
100
AcDbEntity
8
0
100
AcDbSpline
70
0
71
3
72
10
73
6
74
0
42
0.000000001
43
0.0000000001
44
0.0000000001
40
-4.362429609587732
40
-4.362429609587732
40
-4.362429609587732
40
-4.362429609587732
40
-2.1546856718360168
40
-2.1546856718360168
40
0
40
0
40
0
40
0
10
26.392909849851236
20
-92.210024611356289
30
0
10
27.386789665607225
20
-99.443496396366498
30
0
10
28.078940999988426
20
-106.65580017777174
30
0
10
28.933288461679069
20
-121.0671594548046
30
0
10
29.097063588405838
20
-128.03990767470935
30
0
10
29.085059389782856
20
-135.22218321580883
30
0
0
LINE
5
131
100
AcDbEntity
8
0
100
AcDbLine
10
29.085059389782856
20
-135.22218321580883
30
0
11
31.085059389782863
21
-135.22218321580885
31
0
0
LINE
5
132
100
AcDbEntity
8
0
100
AcDbLine
10
31.085059389782863
20
-135.22218321580885
30
0
11
31.085059389782863
21
-138.22218321580885
31
0
0
LINE
5
133
100
AcDbEntity
8
0
100
AcDbLine
10
31.085059389782863
20
-138.22218321580885
30
0
11
29.070180756148972
21
-138.22218321580888
31
0
0
SPLINE
5
134
100
AcDbEntity
8
0
100
AcDbSpline
70
0
71
3
72
10
73
6
74
0
42
0.000000001
43
0.0000000001
44
0.0000000001
40
-5.2366815622633212
40
-5.2366815622633212
40
-5.2366815622633212
40
-5.2366815622633212
40
-2.6162956202633452
40
-2.6162956202633452
40
0
40
0
40
0
40
0
10
29.070180756148972
20
-138.22218321580888
30
0
10
29.0140563846284
20
-145.12360701823377
30
0
10
28.795504642679518
20
-152.56777253012697
30
0
10
28.389952850831953
20
-165.27855587090957
30
0
10
28.14010182567937
20
-172.5168997226732
30
0
10
27.89152661077539
20
-181.23434182026466
30
0
0
LINE
5
135
100
AcDbEntity
8
0
100
AcDbLine
10
27.891526610775387
20
-181.23434182026466
30
0
11
29.891526610775394
21
-181.23434182026469
31
0
0
LINE
5
136
100
AcDbEntity
8
0
100
AcDbLine
10
29.891526610775394
20
-181.23434182026469
30
0
11
29.891526610775394
21
-184.23434182026466
31
0
0
LINE
5
137
100
AcDbEntity
8
0
100
AcDbLine
10
29.891526610775394
20
-184.23434182026466
30
0
11
27.807515525855024
21
-184.23434182026466
31
0
0
SPLINE
5
138
100
AcDbEntity
8
0
100
AcDbSpline
70
0
71
3
72
10
73
6
74
0
42
0.000000001
43
0.0000000001
44
0.0000000001
40
-4.3106685107015021
40
-4.3106685107015021
40
-4.3106685107015021
40
-4.3106685107015021
40
-1.8329467746152095
40
-1.8329467746152095
40
0
40
0
40
0
40
0
10
27.807515525850626
20
-184.23434182042479
30
0
10
27.565246576507
20
-193.04236421645302
30
0
10
27.393442995996867
20
-200.65004028838905
30
0
10
27.058604249785855
20
-212.79100673630663
30
0
10
26.807260343081456
20
-221.14840036482209
30
0
10
26.428964633874767
20
-227.24650042472047
30
0
0
LINE
5
139
100
AcDbEntity
8
0
100
AcDbLine
10
26.428964633874767
20
-227.24650042472047
30
0
11
28.428964633874763
21
-227.24650042472041
31
0
0
LINE
5
140
100
AcDbEntity
8
0
100
AcDbLine
10
28.428964633874763
20
-227.24650042472041
30
0
11
28.428964633874784
21
-230.24650042472041
31
0
0
LINE
5
141
100
AcDbEntity
8
0
100
AcDbLine
10
28.428964633874784
20
-230.24650042472041
30
0
11
26.221257495941408
21
-230.24650042472041
31
0
0
SPLINE
5
142
100
AcDbEntity
8
0
100
AcDbSpline
70
0
71
3
72
10
73
6
74
0
42
0.000000001
43
0.0000000001
44
0.0000000001
40
-0.90201116394298753
40
-0.90201116394298753
40
-0.90201116394298753
40
-0.90201116394298753
40
-0.35035027932827195
40
-0.35035027932827195
40
0
40
0
40
0
40
0
10
26.221257495888331
20
-230.2465004247162
30
0
10
26.081849053041658
20
-232.04645949739441
30
0
10
25.895641516870356
20
-234.05802588013665
30
0
10
25.492451410384461
20
-236.99972334377878
30
0
10
25.259768137712086
20
-238.43570754629962
30
0
10
24.941846499909786
20
-239.5594346935147
30
0
0
SPLINE
5
143
100
AcDbEntity
8
0
100
AcDbSpline
70
0
71
3
72
10
73
6
74
0
42
0.000000001
43
0.0000000001
44
0.0000000001
40
-0.74140302962165339
40
-0.74140302962165339
40
-0.74140302962165339
40
-0.74140302962165339
40
-0.34607955792127149
40
-0.34607955792127149
40
0
40
0
40
0
40
0
10
24.94184649990645
20
-239.55943469351382
30
0
10
24.477095711921379
20
-241.17940133807843
30
0
10
23.931695570522059
20
-243.007399327538
30
0
10
22.916308321349682
20
-246.05087010420289
30
0
10
22.449617739749939
20
-247.3083833797744
30
0
10
21.969884803986997
20
-248.35750008942412
30
0
0
LINE
5
144
100
AcDbEntity
8
0
100
AcDbLine
10
21.969884803986997
20
-248.35750008942412
30
0
11
25.417783522974126
21
-248.35750008942603
31
0
0
LINE
5
145
100
AcDbEntity
8
0
100
AcDbLine
10
25.417783522974126
20
-248.35750008942603
30
0
11
25.417783522974126
21
-251.35750008942603
31
0
0
LINE
5
146
100
AcDbEntity
8
0
100
AcDbLine
10
25.417783522974126
20
-251.35750008942603
30
0
11
19.947724124368101
21
-251.35750008942603
31
0
0
SPLINE
5
147
100
AcDbEntity
8
0
100
AcDbSpline
70
0
71
3
72
20
73
16
74
0
42
0.000000001
43
0.0000000001
44
0.0000000001
40
-0.51646561897754872
40
-0.51646561897754872
40
-0.51646561897754872
40
-0.51646561897754872
40
-0.46105957929520652
40
-0.46105957929520652
40
-0.40123971829116151
40
-0.40123971829116151
40
-0.27996246866022706
40
-0.27996246866022706
40
-0.066897879868275251
40
-0.066897879868275251
40
-0.005047534007451256
40
-0.005047534007451256
40
-0.0040380272059610872
40
-0.0040380272059610872
40
0
40
0
40
0
40
0
10
19.947724124253977
20
-251.3575000892676
30
0
10
19.633221679860778
20
-251.62789506408157
30
0
10
19.296554817806339
20
-251.84649612772259
30
0
10
18.523431908641207
20
-252.22803671218432
30
0
10
18.094858864908478
20
-252.37765203715213
30
0
10
16.802697264549096
20
-252.73948012493381
30
0
10
15.699867821865649
20
-252.9275824674443
30
0
10
11.751524740083021
20
-253.36787300265507
30
0
10
8.2032768164058929
20
-253.56107388111229
30
0
10
3.6094757050713611
20
-253.61957779102693
30
0
10
1.7566249172920525
20
-253.61008151154496
30
0
10
1.5471069687789865
20
-253.60758326925907
30
0
10
1.5437421852947739
20
-253.60754314837951
30
0
10
1.5269182678737081
20
-253.60734254398159
30
0
10
1.5134591339368542
20
-253.60718206046332
30
0
10
1.5000000000000011
20
-253.60702157694504
30
0
0
LINE
5
148
100
AcDbEntity
8
0
100
AcDbLine
10
1.5000000000000013
20
-253.60702157694507
30
0
11
-1.4999999999999991
21
-253.60702157694504
31
0
0
SPLINE
5
149
100
AcDbEntity
8
0
100
AcDbSpline
70
0
71
3
72
12
73
8
74
0
42
0.000000001
43
0.0000000001
44
0.0000000001
40
-1.1360486211239706
40
-1.1360486211239706
40
-1.1360486211239706
40
-1.1360486211239706
40
-0.40236303033430965
40
-0.40236303033430965
40
-0.186595827258418
40
-0.186595827258418
40
0
40
0
40
0
40
0
10
-1.5000000000000011
20
-253.60702157694504
30
0
10
-2.220712847984339
20
-253.61561518587021
30
0
10
-9.5942955516359998
20
-253.69494811413603
30
0
10
-16.54461074320594
20
-252.80051045698198
30
0
10
-17.559170546548742
20
-252.56603886417022
30
0
10
-18.947484466350517
20
-252.05860414501828
30
0
10
-19.47608630292963
20
-251.76299295299549
30
0
10
-19.947724124368097
20
-251.35750008916949
30
0
0
LINE
5
150
100
AcDbEntity
8
0
100
AcDbLine
10
-19.947724124368101
20
-251.35750008916949
30
0
11
-25.417783522974126
21
-251.35750008942603
31
0
0
LINE
5
151
100
AcDbEntity
8
0
100
AcDbLine
10
-25.417783522974126
20
-251.35750008942603
30
0
11
-25.417783522974126
21
-248.35750008942603
31
0
0
LINE
5
152
100
AcDbEntity
8
0
100
AcDbLine
10
-25.417783522974126
20
-248.35750008942603
30
0
11
-21.969884803986997
21
-248.35750008942412
31
0
0
SPLINE
5
153
100
AcDbEntity
8
0
100
AcDbSpline
70
0
71
3
72
10
73
6
74
0
42
0.000000001
43
0.0000000001
44
0.0000000001
40
-0.94820881347954855
40
-0.94820881347954855
40
-0.94820881347954855
40
-0.94820881347954855
40
-0.50559437318715672
40
-0.50559437318715672
40
0
40
0
40
0
40
0
10
-21.969884803987014
20
-248.35750008942409
30
0
10
-22.449617739748486
20
-247.30838337977744
30
0
10
-22.916308321346811
20
-246.05087010421147
30
0
10
-23.931695570522209
20
-243.00739932753754
30
0
10
-24.477095711921962
20
-241.17940133807645
30
0
10
-24.941846499906472
20
-239.55943469351377
30
0
0
SPLINE
5
154
100
AcDbEntity
8
0
100
AcDbSpline
70
0
71
3
72
32
73
28
74
0
42
0.000000001
43
0.0000000001
44
0.0000000001
40
-100.78554115212407
40
-100.78554115212407
40
-100.78554115212407
40
-100.78554115212407
40
-93.810100116550515
40
-93.810100116550515
40
-89.418915687338867
40
-89.418915687338867
40
-86.112092449951007
40
-86.112092449951007
40
-82.441560561833938
40
-82.441560561833938
40
-76.819158288908454
40
-76.819158288908454
40
-73.071434930384925
40
-73.071434930384925
40
-66.754141720024634
40
-66.754141720024634
40
-50.769331050349727
40
-50.769331050349727
40
-36.26888421478133
40
-36.26888421478133
40
-23.53930189077122
40
-23.53930189077122
40
-12.827258100815257
40
-12.827258100815257
40
-3.0200560523176931
40
-3.0200560523176931
40
0
40
0
40
0
40
0
10
1.5000000000000002
20
-260.24330825341644
30
0
10
8.4607360788449331
20
-260.36170580684575
30
0
10
13.278571061228348
20
-259.76800412302703
30
0
10
19.070855003809189
20
-258.30507090062736
30
0
10
21.329975076887283
20
-257.48028629432491
30
0
10
24.763339919442906
20
-255.30701064476614
30
0
10
26.032893648519234
20
-254.16195033085398
30
0
10
28.186531050617756
20
-251.15908424029811
30
0
10
28.90192027701222
20
-249.39251003556794
30
0
10
30.122351494029939
20
-244.63632055906908
30
0
10
30.371848312734105
20
-241.27055572460731
30
0
10
30.728644499998548
20
-234.46714517131537
30
0
10
31.128840001946358
20
-226.57685498059067
30
0
10
31.755402440720172
20
-212.10410850571475
30
0
10
31.990002296090154
20
-201.88361878439696
30
0
10
32.553260674760153
20
-176.81946392566627
30
0
10
32.619125470667271
20
-175.32303319377257
30
0
10
33.634129060879701
20
-141.06864938808587
30
0
10
33.887886369617213
20
-128.47958559207183
30
0
10
32.150947361139465
20
-98.957426752034223
30
0
10
30.430089767337396
20
-82.737246932787443
30
0
10
26.029650977502037
20
-58.198112209099868
30
0
10
23.883420184124482
20
-50.945484496798912
30
0
10
19.636922506659673
20
-41.11754955804993
30
0
10
17.420430960709684
20
-37.945625175900446
30
0
10
14.141534272721458
20
-34.709414800678424
30
0
10
10.612797119468437
20
-31.138945215142748
30
0
10
1.5000000000000002
20
-26.861274329553737
30
0
0
LINE
5
155
100
AcDbEntity
8
0
100
AcDbLine
10
1.4999999999999996
20
-26.861274329553737
30
0
11
1.4999999999999991
21
-31.065160424479288
31
0
0
LINE
5
156
100
AcDbEntity
8
0
100
AcDbLine
10
1.4999999999999991
20
-31.065160424479288
30
0
11
-1.4999999999999991
21
-31.065160424479288
31
0
0
LINE
5
157
100
AcDbEntity
8
0
100
AcDbLine
10
-1.4999999999999991
20
-31.065160424479288
30
0
11
-1.4999999999999991
21
-26.861274329553737
31
0
0
SPLINE
5
158
100
AcDbEntity
8
0
100
AcDbSpline
70
0
71
3
72
32
73
28
74
0
42
0.000000001
43
0.0000000001
44
0.0000000001
40
-27.10244899008995
40
-27.10244899008995
40
-27.10244899008995
40
-27.10244899008995
40
-22.677494886565004
40
-22.677494886565004
40
-19.577489560982805
40
-19.577489560982805
40
-15.072315873092158
40
-15.072315873092158
40
-13.38284541368977
40
-13.38284541368977
40
-12.095741125211093
40
-12.095741125211093
40
-11.201635750684535
40
-11.201635750684535
40
-10.265452358293938
40
-10.265452358293938
40
-9.7427175393342011
40
-9.7427175393342011
40
-7.220475527086788
40
-7.220475527086788
40
-5.670337252672855
40
-5.670337252672855
40
-4.1263632445204736
40
-4.1263632445204736
40
-2.3473438148379517
40
-2.3473438148379517
40
0
40
0
40
0
40
0
10
-1.5000000000000002
20
-26.861274329553737
30
0
10
-3.6819737515479427
20
-27.885522479463223
30
0
10
-8.658040617895491
20
-30.302905894330642
30
0
10
-15.370935635003587
20
-35.627719478264154
30
0
10
-17.761168173084428
20
-38.278055055875619
30
0
10
-23.053276947601816
20
-47.936041564937717
30
0
10
-26.68434572115142
20
-58.169249653032075
30
0
10
-30.939535146373139
20
-88.78492689517978
30
0
10
-32.857029022370071
20
-104.9442100981191
30
0
10
-33.829957207939749
20
-136.12370161916689
30
0
10
-33.43008120561197
20
-148.18264032270326
30
0
10
-32.596139650020788
20
-175.71441227873453
30
0
10
-32.481170921482729
20
-180.06807561886444
30
0
10
-31.977192591822551
20
-202.40728818092265
30
0
10
-31.827881820564478
20
-209.95250717178237
30
0
10
-31.19814644770252
20
-225.19096865866493
30
0
10
-30.748716720531664
20
-233.91872472068053
30
0
10
-30.460235969683225
20
-239.82156250854516
30
0
10
-30.266929729608677
20
-243.39906645657152
30
0
10
-29.24492583745284
20
-248.30080062213895
30
0
10
-28.68242372843666
20
-249.99991056055967
30
0
10
-26.965967545540295
20
-253.05398032656146
30
0
10
-25.857942905036523
20
-254.32879636828304
30
0
10
-22.900899023263189
20
-256.63566482868134
30
0
10
-20.840722799442084
20
-257.70274072608316
30
0
10
-14.456968189054869
20
-259.60995318390553
30
0
10
-9.3233477478432167
20
-260.37637826533461
30
0
10
-1.5000000000000002
20
-260.24330825341644
30
0
0
LINE
5
159
100
AcDbEntity
8
0
100
AcDbLine
10
-1.4999999999999996
20
-260.24330825341644
30
0
11
-1.4999999999999991
21
-258.51004113506792
31
0
0
LINE
5
160
100
AcDbEntity
8
0
100
AcDbLine
10
-1.4999999999999991
20
-258.51004113506792
30
0
11
1.4999999999999991
21
-258.51004113506792
31
0
0
LINE
5
161
100
AcDbEntity
8
0
100
AcDbLine
10
1.4999999999999991
20
-258.51004113506792
30
0
11
1.5000000000000002
21
-260.24330825341644
31
0
0
ENDSEC
0
SECTION
2
OBJECTS
0
DICTIONARY
5
C
100
AcDbDictionary
3
ACAD_GROUP
350
D
3
ACAD_MLINESTYLE
350
17
0
DICTIONARY
5
D
100
AcDbDictionary
0
DICTIONARY
5
1A
330
C
100
AcDbDictionary
0
DICTIONARY
5
17
100
AcDbDictionary
0
ENDSEC
0
EOF
