0
SECTION
2
HEADER
9
$INSUNITS
70
4
9
$ACADVER
1
AC1014
9
$HANDSEED
5
FFFF
0
ENDSEC
0
SECTION
2
TABLES
0
TABLE
2
VPORT
5
8
100
AcDbSymbolTable
0
ENDTAB
0
TABLE
2
LTYPE
5
5
100
AcDbSymbolTable
0
LTYPE
5
14
100
AcDbSymbolTableRecord
100
AcDbLinetypeTableRecord
2
BYBLOCK
70
0
0
LTYPE
5
15
100
AcDbSymbolTableRecord
100
AcDbLinetypeTableRecord
2
BYLAYER
70
0
0
ENDTAB
0
TABLE
2
LAYER
5
2
100
AcDbSymbolTable
70
2
0
LAYER
5
50
100
AcDbSymbolTableRecord
100
AcDbLayerTableRecord
2
0
70
0
6
CONTINUOUS
0
ENDTAB
0
TABLE
2
STYLE
5
3
100
AcDbSymbolTable
70
1
0
STYLE
5
11
100
AcDbSymbolTableRecord
100
AcDbTextStyleTableRecord
2
STANDARD
70
0
0
ENDTAB
0
TABLE
2
VIEW
5
6
100
AcDbSymbolTable
70
0
0
ENDTAB
0
TABLE
2
UCS
5
7
100
AcDbSymbolTable
70
0
0
ENDTAB
0
TABLE
2
APPID
5
9
100
AcDbSymbolTable
70
2
0
APPID
5
12
100
AcDbSymbolTableRecord
100
AcDbRegAppTableRecord
2
ACAD
70
0
0
ENDTAB
0
TABLE
2
DIMSTYLE
5
A
100
AcDbSymbolTable
70
1
0
ENDTAB
0
TABLE
2
BLOCK_RECORD
5
1
100
AcDbSymbolTable
70
1
0
BLOCK_RECORD
5
1F
100
AcDbSymbolTableRecord
100
AcDbBlockTableRecord
2
*MODEL_SPACE
0
BLOCK_RECORD
5
1B
100
AcDbSymbolTableRecord
100
AcDbBlockTableRecord
2
*PAPER_SPACE
0
ENDTAB
0
ENDSEC
0
SECTION
2
BLOCKS
0
BLOCK
5
20
100
AcDbEntity
100
AcDbBlockBegin
2
*MODEL_SPACE
0
ENDBLK
5
21
100
AcDbEntity
100
AcDbBlockEnd
0
BLOCK
5
1C
100
AcDbEntity
100
AcDbBlockBegin
2
*PAPER_SPACE
0
ENDBLK
5
1D
100
AcDbEntity
100
AcDbBlockEnd
0
ENDSEC
0
SECTION
2
ENTITIES
0
LWPOLYLINE
5
100
100
AcDbEntity
8
0
100
AcDbPolyline
90
4
70
1
43
0.0
10
-19.428201619446945
20
-135.22218321580885
10
-19.428201619446945
20
-138.22218321580885
10
19.428201619446945
20
-138.22218321580885
10
19.428201619446945
20
-135.22218321580885
0
LWPOLYLINE
5
101
100
AcDbEntity
8
0
100
AcDbPolyline
90
4
70
1
43
0.0
10
16.192620865126464
20
-92.210024611353077
10
16.192620865126468
20
-89.210024611353077
10
-16.192620865126468
20
-89.210024611353077
10
-16.192620865126472
20
-92.210024611353077
0
LWPOLYLINE
5
102
100
AcDbEntity
8
0
100
AcDbPolyline
90
4
70
1
43
0.0
10
-16.583762258681528
20
-181.23434182026469
10
-16.583762258681524
20
-184.23434182026466
10
16.583762258681528
20
-184.23434182026466
10
16.583762258681528
20
-181.23434182026469
0
LINE
5
103
100
AcDbEntity
8
0
100
AcDbLine
10
-1.5000000000000013
20
-52.561522073248312
30
0
11
-1.481464086383828
21
-50.202398490669978
31
0
0
SPLINE
5
104
100
AcDbEntity
8
0
100
AcDbSpline
70
0
71
3
72
30
73
26
74
0
42
0.000000001
43
0.0000000001
44
0.0000000001
40
-3.4082629738959511
40
-3.4082629738959511
40
-3.4082629738959511
40
-3.4082629738959511
40
-3.2281641396845009
40
-3.2281641396845009
40
-3.075370132408711
40
-3.075370132408711
40
-2.9119192011865311
40
-2.9119192011865311
40
-2.7609581615369452
40
-2.7609581615369452
40
-2.4218634924595079
40
-2.4218634924595079
40
-1.6366744941449196
40
-1.6366744941449196
40
-1.4906063398233727
40
-1.4906063398233727
40
-1.3098621341531693
40
-1.3098621341531693
40
-1.1121283387077121
40
-1.1121283387077121
40
-0.68660162587841433
40
-0.68660162587841433
40
-0.27851901843096216
40
-0.27851901843096216
40
0
40
0
40
0
40
0
10
-1.4814640863840971
20
-50.202398490670518
30
0
10
-2.7623469091616579
20
-52.664320967671181
30
0
10
-5.7836132790904671
20
-56.667978097089858
30
0
10
-11.05035957647342
20
-65.48199217407776
30
0
10
-12.767106083309489
20
-69.096164389712115
30
0
10
-16.171980543783164
20
-78.378327366503939
30
0
10
-18.513644482603347
20
-86.345629788070127
30
0
10
-19.220094080009098
20
-88.796092156253209
30
0
10
-19.657289633660767
20
-90.415543001187743
30
0
10
-22.493533088664421
20
-104.1315272657462
30
0
10
-23.428522628267125
20
-111.20103073830549
30
0
10
-25.27569483927239
20
-137.30618012534509
30
0
10
-24.518250099964455
20
-161.74248178741328
30
0
10
-22.871987843984762
20
-173.40654467642105
30
0
10
-22.639583209148803
20
-174.43968292246265
30
0
10
-22.088276710213719
20
-177.23013724163161
30
0
10
-22.013992120270288
20
-177.7590701788358
30
0
10
-21.349537850623328
20
-181.85860361584315
30
0
10
-20.872473805328301
20
-184.72346925025121
30
0
10
-18.290441621890782
20
-195.80815845438042
30
0
10
-15.711947140993455
20
-203.11406568616147
30
0
10
-9.5717102675963481
20
-214.47112915113334
30
0
10
-6.7939301693601939
20
-217.2646240348702
30
0
10
-3.436621184733113
20
-219.9559180230992
30
0
10
-2.2762606011976745
20
-220.62196645800324
30
0
10
-1.5000000000000004
20
-221.13122077932115
30
0
0
LINE
5
105
100
AcDbEntity
8
0
100
AcDbLine
10
-1.5000000000000009
20
-221.13122077932115
30
0
11
-1.5000000000000013
21
-207.94972463381032
31
0
0
LINE
5
106
100
AcDbEntity
8
0
100
AcDbLine
10
-1.5000000000000013
20
-207.94972463381032
30
0
11
1.5000000000000013
21
-207.94972463381032
31
0
0
LINE
5
107
100
AcDbEntity
8
0
100
AcDbLine
10
1.5000000000000013
20
-207.94972463381032
30
0
11
1.5000000000000013
21
-221.13122077932115
31
0
0
SPLINE
5
108
100
AcDbEntity
8
0
100
AcDbSpline
70
0
71
3
72
28
73
24
74
0
42
0.000000001
43
0.0000000001
44
0.0000000001
40
-2.6710625582647491
40
-2.6710625582647491
40
-2.6710625582647491
40
-2.6710625582647491
40
-2.6577105760002939
40
-2.6577105760002939
40
-2.643421077219466
40
-2.643421077219466
40
-2.6169971322088545
40
-2.6169971322088545
40
-2.6021720920792375
40
-2.6021720920792375
40
-2.5895110266167913
40
-2.5895110266167913
40
-2.5237044787431442
40
-2.5237044787431442
40
-2.258698139913963
40
-2.258698139913963
40
-2.113154939169283
40
-2.113154939169283
40
-1.9324349978822795
40
-1.9324349978822795
40
-0.5093148345922931
40
-0.5093148345922931
40
0
40
0
40
0
40
0
10
1.5000000000000004
20
-221.13122077932115
30
0
10
2.3317556212878583
20
-220.5855597683568
30
0
10
3.6025687178858625
20
-219.86145792474088
30
0
10
6.689734786301532
20
-217.29817220655238
30
0
10
8.624723300945627
20
-215.31528138159968
30
0
10
14.658593313640246
20
-205.94721910805302
30
0
10
17.808613889392433
20
-197.55607766376514
30
0
10
21.012028083172417
20
-184.28144443436412
30
0
10
21.533280427776237
20
-180.66314972770869
30
0
10
22.363475397822469
20
-175.66872874871169
30
0
10
22.504951944685772
20
-175.18660026947484
30
0
10
24.031961947260513
20
-167.10962500110995
30
0
10
24.464709728494469
20
-154.05165068749216
30
0
10
25.084300891035106
20
-119.39237270771383
30
0
10
22.701020404212315
20
-106.07248743879963
30
0
10
20.867064216274279
20
-96.147915769783822
30
0
10
19.982662009590808
20
-91.855057276046978
30
0
10
18.675102926626415
20
-86.63511176864813
30
0
10
16.443114039386636
20
-79.587980061412409
30
0
10
12.932224475010386
20
-68.714288999713574
30
0
10
10.432720837223336
20
-63.953481770367191
30
0
10
3.6764008682756759
20
-53.742630845009138
30
0
10
2.2878581785078946
20
-51.741736345604608
30
0
10
1.5000000000007643
20
-50.237901414924153
30
0
0
LINE
5
109
100
AcDbEntity
8
0
100
AcDbLine
10
1.5000000000007641
20
-50.237901414924153
30
0
11
1.5000000000000013
21
-59.044831184434514
31
0
0
LINE
5
110
100
AcDbEntity
8
0
100
AcDbLine
10
1.5000000000000013
20
-59.044831184434514
30
0
11
-1.5000000000000013
21
-59.044831184434514
31
0
0
LINE
5
111
100
AcDbEntity
8
0
100
AcDbLine
10
-1.5000000000000013
20
-59.044831184434514
30
0
11
-1.5000000000000013
21
-52.561522073248312
31
0
0
ENDSEC
0
SECTION
2
OBJECTS
0
DICTIONARY
5
C
100
AcDbDictionary
3
ACAD_GROUP
350
D
3
ACAD_MLINESTYLE
350
17
0
DICTIONARY
5
D
100
AcDbDictionary
0
DICTIONARY
5
1A
330
C
100
AcDbDictionary
0
DICTIONARY
5
17
100
AcDbDictionary
0
ENDSEC
0
EOF
