0
SECTION
2
HEADER
9
$INSUNITS
70
4
9
$ACADVER
1
AC1014
9
$HANDSEED
5
FFFF
0
ENDSEC
0
SECTION
2
TABLES
0
TABLE
2
VPORT
5
8
100
AcDbSymbolTable
0
ENDTAB
0
TABLE
2
LTYPE
5
5
100
AcDbSymbolTable
0
LTYPE
5
14
100
AcDbSymbolTableRecord
100
AcDbLinetypeTableRecord
2
BYBLOCK
70
0
0
LTYPE
5
15
100
AcDbSymbolTableRecord
100
AcDbLinetypeTableRecord
2
BYLAYER
70
0
0
ENDTAB
0
TABLE
2
LAYER
5
2
100
AcDbSymbolTable
70
2
0
LAYER
5
50
100
AcDbSymbolTableRecord
100
AcDbLayerTableRecord
2
0
70
0
6
CONTINUOUS
0
ENDTAB
0
TABLE
2
STYLE
5
3
100
AcDbSymbolTable
70
1
0
STYLE
5
11
100
AcDbSymbolTableRecord
100
AcDbTextStyleTableRecord
2
STANDARD
70
0
0
ENDTAB
0
TABLE
2
VIEW
5
6
100
AcDbSymbolTable
70
0
0
ENDTAB
0
TABLE
2
UCS
5
7
100
AcDbSymbolTable
70
0
0
ENDTAB
0
TABLE
2
APPID
5
9
100
AcDbSymbolTable
70
2
0
APPID
5
12
100
AcDbSymbolTableRecord
100
AcDbRegAppTableRecord
2
ACAD
70
0
0
ENDTAB
0
TABLE
2
DIMSTYLE
5
A
100
AcDbSymbolTable
70
1
0
ENDTAB
0
TABLE
2
BLOCK_RECORD
5
1
100
AcDbSymbolTable
70
1
0
BLOCK_RECORD
5
1F
100
AcDbSymbolTableRecord
100
AcDbBlockTableRecord
2
*MODEL_SPACE
0
BLOCK_RECORD
5
1B
100
AcDbSymbolTableRecord
100
AcDbBlockTableRecord
2
*PAPER_SPACE
0
ENDTAB
0
ENDSEC
0
SECTION
2
BLOCKS
0
BLOCK
5
20
100
AcDbEntity
100
AcDbBlockBegin
2
*MODEL_SPACE
0
ENDBLK
5
21
100
AcDbEntity
100
AcDbBlockEnd
0
BLOCK
5
1C
100
AcDbEntity
100
AcDbBlockBegin
2
*PAPER_SPACE
0
ENDBLK
5
1D
100
AcDbEntity
100
AcDbBlockEnd
0
ENDSEC
0
SECTION
2
ENTITIES
0
LINE
5
100
100
AcDbEntity
8
0
100
AcDbLine
10
21.660350769871005
20
-230.24650042472041
30
0
11
-21.660350769871005
21
-230.24650042472041
31
0
0
LINE
5
101
100
AcDbEntity
8
0
100
AcDbLine
10
-21.660350769871005
20
-230.24650042472041
30
0
11
-21.660350769870998
21
-227.24650042472041
31
0
0
LINE
5
102
100
AcDbEntity
8
0
100
AcDbLine
10
-21.660350769870998
20
-227.24650042472041
30
0
11
-17.430192626432383
21
-227.24650042472041
31
0
0
SPLINE
5
103
100
AcDbEntity
8
0
100
AcDbSpline
70
0
71
3
72
12
73
8
74
0
42
0.000000001
43
0.0000000001
44
0.0000000001
40
-4.7102954577393055
40
-4.7102954577393055
40
-4.7102954577393055
40
-4.7102954577393055
40
-3.7588496372428102
40
-3.7588496372428102
40
-2.6931551207438162
40
-2.6931551207438162
40
0
40
0
40
0
40
0
10
-17.430192626432383
20
-227.24650042472041
30
0
10
-17.618848171871193
20
-226.06906137397198
30
0
10
-17.740082257607661
20
-224.25398782400691
30
0
10
-18.390590987065192
20
-216.99665814477004
30
0
10
-18.777890487716835
20
-213.33039076882085
30
0
10
-20.130279841312799
20
-201.07204739202473
30
0
10
-21.110461690352995
20
-193.18185411694583
30
0
10
-21.839743204776525
20
-184.23434182026466
30
0
0
LINE
5
104
100
AcDbEntity
8
0
100
AcDbLine
10
-21.839743204776525
20
-184.23434182026466
30
0
11
-24.328196747172942
21
-184.23434182026466
31
0
0
LINE
5
105
100
AcDbEntity
8
0
100
AcDbLine
10
-24.328196747172942
20
-184.23434182026466
30
0
11
-24.328196747172942
21
-181.23434182026469
31
0
0
LINE
5
106
100
AcDbEntity
8
0
100
AcDbLine
10
-24.328196747172942
20
-181.23434182026469
30
0
11
-22.072461016943432
21
-181.23434182026469
31
0
0
SPLINE
5
107
100
AcDbEntity
8
0
100
AcDbSpline
70
0
71
3
72
12
73
8
74
0
42
0.000000001
43
0.0000000001
44
0.0000000001
40
-5.1013866628215627
40
-5.1013866628215627
40
-5.1013866628215627
40
-5.1013866628215627
40
-3.9739613904254067
40
-3.9739613904254067
40
-2.8846200516983727
40
-2.8846200516983727
40
0
40
0
40
0
40
0
10
-22.072461016943432
20
-181.23434182026466
30
0
10
-22.305336252225413
20
-178.08571693851314
30
0
10
-22.482102969091553
20
-175.29501167656281
30
0
10
-23.010433333498746
20
-167.77013428660416
30
0
10
-23.216500873727593
20
-165.0900906773594
30
0
10
-23.944680110853529
20
-154.90595751083228
30
0
10
-24.359686217888992
20
-147.83739247170732
30
0
10
-24.420278620784764
20
-138.22218321580888
30
0
0
LINE
5
108
100
AcDbEntity
8
0
100
AcDbLine
10
-24.420278620784764
20
-138.22218321580888
30
0
11
-26.767605989898946
21
-138.22218321580888
31
0
0
LINE
5
109
100
AcDbEntity
8
0
100
AcDbLine
10
-26.767605989898946
20
-138.22218321580888
30
0
11
-26.767605989898946
21
-135.22218321580885
31
0
0
LINE
5
110
100
AcDbEntity
8
0
100
AcDbLine
10
-26.767605989898946
20
-135.22218321580885
30
0
11
-24.425351927107645
21
-135.22218321580885
31
0
0
SPLINE
5
111
100
AcDbEntity
8
0
100
AcDbSpline
70
0
71
3
72
10
73
6
74
0
42
0.000000001
43
0.0000000001
44
0.0000000001
40
-1.2388883600613667
40
-1.2388883600613667
40
-1.2388883600613667
40
-1.2388883600613667
40
-0.53747302510859296
40
-0.53747302510859296
40
0
40
0
40
0
40
0
10
-24.425351927107645
20
-135.22218321580885
30
0
10
-24.396517419654128
20
-125.41345446871773
30
0
10
-23.920491890086261
20
-115.68679415089298
30
0
10
-22.299729715554413
20
-98.959920697400477
30
0
10
-21.511371784384732
20
-93.979837783143253
30
0
10
-21.23296813966078
20
-92.210024611353077
30
0
0
LINE
5
112
100
AcDbEntity
8
0
100
AcDbLine
10
-21.23296813966078
20
-92.210024611353077
30
0
11
-23.305402324390364
21
-92.210024611353077
31
0
0
LINE
5
113
100
AcDbEntity
8
0
100
AcDbLine
10
-23.305402324390364
20
-92.210024611353077
30
0
11
-23.305402324390364
21
-89.210024611353077
31
0
0
LINE
5
114
100
AcDbEntity
8
0
100
AcDbLine
10
-23.305402324390364
20
-89.210024611353077
30
0
11
-20.805484377727431
21
-89.210024611353077
31
0
0
SPLINE
5
115
100
AcDbEntity
8
0
100
AcDbSpline
70
0
71
3
72
14
73
10
74
0
42
0.000000001
43
0.0000000001
44
0.0000000001
40
-3.4880798371616444
40
-3.4880798371616444
40
-3.4880798371616444
40
-3.4880798371616444
40
-1.0199446787879838
40
-1.0199446787879838
40
-0.31515996280392178
40
-0.31515996280392178
40
-0.082295169507333607
40
-0.082295169507333607
40
0
40
0
40
0
40
0
10
-20.805484377727428
20
-89.210024611353077
30
0
10
-20.407040420900348
20
-86.226546086987653
30
0
10
-17.944077062200655
20
-67.988676081324485
30
0
10
-11.394448513186866
20
-52.033829022803815
30
0
10
-10.028316647706513
20
-49.703213650358421
30
0
10
-8.5661472547432407
20
-47.784109846738005
30
0
10
-7.9964886489034104
20
-47.094913220887456
30
0
10
-7.1644078137659761
20
-46.455386777958282
30
0
10
-6.9151284373908117
20
-46.295218826714972
30
0
10
-6.6586671887074731
20
-46.197866006897272
30
0
0
LINE
5
116
100
AcDbEntity
8
0
100
AcDbLine
10
-6.6586671887074722
20
-46.197866006897272
30
0
11
-11.109983706520872
21
-46.197866006897286
31
0
0
LINE
5
117
100
AcDbEntity
8
0
100
AcDbLine
10
-11.109983706520872
20
-46.197866006897286
30
0
11
-11.109983706520872
21
-43.197866006897243
31
0
0
LINE
5
118
100
AcDbEntity
8
0
100
AcDbLine
10
-11.109983706520872
20
-43.197866006897243
30
0
11
-5.3475999625697757
21
-43.197866006897243
31
0
0
LINE
5
119
100
AcDbEntity
8
0
100
AcDbLine
10
-5.3475999625697757
20
-43.197866006897243
30
0
11
-1.4999999999999991
21
-43.247866006897269
31
0
0
LINE
5
120
100
AcDbEntity
8
0
100
AcDbLine
10
-1.4999999999999991
20
-43.247866006897269
30
0
11
1.4999999999999991
21
-43.247866006897269
31
0
0
LINE
5
121
100
AcDbEntity
8
0
100
AcDbLine
10
1.4999999999999991
20
-43.247866006897269
30
0
11
5.3475999625697757
21
-43.197866006897243
31
0
0
LINE
5
122
100
AcDbEntity
8
0
100
AcDbLine
10
5.3475999625697757
20
-43.197866006897243
30
0
11
11.109983706520872
21
-43.197866006897243
31
0
0
LINE
5
123
100
AcDbEntity
8
0
100
AcDbLine
10
11.109983706520872
20
-43.197866006897243
30
0
11
11.109983706520872
21
-46.197866006897286
31
0
0
LINE
5
124
100
AcDbEntity
8
0
100
AcDbLine
10
11.109983706520872
20
-46.197866006897286
30
0
11
6.6586671887074722
21
-46.197866006897286
31
0
0
SPLINE
5
125
100
AcDbEntity
8
0
100
AcDbSpline
70
0
71
3
72
16
73
12
74
0
42
0.000000001
43
0.0000000001
44
0.0000000001
40
-1.1096019153176113
40
-1.1096019153176113
40
-1.1096019153176113
40
-1.1096019153176113
40
-1.0836743512083431
40
-1.0836743512083431
40
-1.0470918227484804
40
-1.0470918227484804
40
-0.96221682941468878
40
-0.96221682941468878
40
-0.73257333218841747
40
-0.73257333218841747
40
0
40
0
40
0
40
0
10
6.6586671887074731
20
-46.197866006897272
30
0
10
6.9695457722188801
20
-46.315875674561084
30
0
10
7.2729580959391527
20
-46.527380101111461
30
0
10
7.888543874853732
20
-47.039347961546866
30
0
10
8.233330113045918
20
-47.407184338474053
30
0
10
9.2354323917822096
20
-48.601655845832575
30
0
10
10.026863702536133
20
-49.777185187597361
30
0
10
13.136369588968362
20
-55.547158362217665
30
0
10
14.8049036607226
20
-60.786662440881052
30
0
10
18.904745191363066
20
-75.134872722874661
30
0
10
20.482236745788764
20
-86.78960299015246
30
0
10
20.805484377727428
20
-89.210024611353077
30
0
0
LINE
5
126
100
AcDbEntity
8
0
100
AcDbLine
10
20.805484377727428
20
-89.210024611353091
30
0
11
23.305402324390364
21
-89.210024611353077
31
0
0
LINE
5
127
100
AcDbEntity
8
0
100
AcDbLine
10
23.305402324390364
20
-89.210024611353077
30
0
11
23.305402324390364
21
-92.210024611353077
31
0
0
LINE
5
128
100
AcDbEntity
8
0
100
AcDbLine
10
23.305402324390364
20
-92.210024611353077
30
0
11
21.23296813966078
21
-92.210024611353077
31
0
0
SPLINE
5
129
100
AcDbEntity
8
0
100
AcDbSpline
70
0
71
3
72
10
73
6
74
0
42
0.000000001
43
0.0000000001
44
0.0000000001
40
-5.1974793418872558
40
-5.1974793418872558
40
-5.1974793418872558
40
-5.1974793418872558
40
-2.9426313387264305
40
-2.9426313387264305
40
0
40
0
40
0
40
0
10
21.23296813966078
20
-92.210024611353077
30
0
10
21.511371784384732
20
-93.979837783143253
30
0
10
22.299729715554413
20
-98.959920697400477
30
0
10
23.920491890086261
20
-115.68679415089298
30
0
10
24.396517419654128
20
-125.41345446871773
30
0
10
24.425351927107645
20
-135.22218321580885
30
0
0
LINE
5
130
100
AcDbEntity
8
0
100
AcDbLine
10
24.425351927107641
20
-135.22218321580885
30
0
11
26.767605989898954
21
-135.22218321580885
31
0
0
LINE
5
131
100
AcDbEntity
8
0
100
AcDbLine
10
26.767605989898954
20
-135.22218321580885
30
0
11
26.767605989898954
21
-138.22218321580888
31
0
0
LINE
5
132
100
AcDbEntity
8
0
100
AcDbLine
10
26.767605989898954
20
-138.22218321580888
30
0
11
24.420278620784771
21
-138.22218321580885
31
0
0
SPLINE
5
133
100
AcDbEntity
8
0
100
AcDbSpline
70
0
71
3
72
10
73
6
74
0
42
0.000000001
43
0.0000000001
44
0.0000000001
40
-3.6907333766655084
40
-3.6907333766655084
40
-3.6907333766655084
40
-3.6907333766655084
40
-0.97437038768800033
40
-0.97437038768800033
40
0
40
0
40
0
40
0
10
24.420278620784764
20
-138.22218321580888
30
0
10
24.336206667363808
20
-151.56328517021041
30
0
10
23.566828430652819
20
-159.89496323105425
30
0
10
22.491163567607767
20
-175.14925102104286
30
0
10
22.312024489430485
20
-177.9952876146159
30
0
10
22.072461016943432
20
-181.23434182026466
30
0
0
LINE
5
134
100
AcDbEntity
8
0
100
AcDbLine
10
22.072461016943429
20
-181.23434182026469
30
0
11
24.328196747172942
21
-181.23434182026469
31
0
0
LINE
5
135
100
AcDbEntity
8
0
100
AcDbLine
10
24.328196747172942
20
-181.23434182026469
30
0
11
24.328196747172942
21
-184.23434182026466
31
0
0
LINE
5
136
100
AcDbEntity
8
0
100
AcDbLine
10
24.328196747172942
20
-184.23434182026466
30
0
11
21.839743204776521
21
-184.23434182026466
31
0
0
SPLINE
5
137
100
AcDbEntity
8
0
100
AcDbSpline
70
0
71
3
72
10
73
6
74
0
42
0.000000001
43
0.0000000001
44
0.0000000001
40
-1.4262900875134015
40
-1.4262900875134015
40
-1.4262900875134015
40
-1.4262900875134015
40
-0.41865474031930572
40
-0.41865474031930572
40
0
40
0
40
0
40
0
10
21.839743204776525
20
-184.23434182026466
30
0
10
20.836074365458053
20
-196.54829617669225
30
0
10
19.329038337772229
20
-207.2263055264969
30
0
10
17.777301416797226
20
-223.62705315728931
30
0
10
17.65097358584995
20
-225.86855988936378
30
0
10
17.430192626432383
20
-227.24650042472041
30
0
0
LINE
5
138
100
AcDbEntity
8
0
100
AcDbLine
10
17.430192626432383
20
-227.24650042472041
30
0
11
21.660350769870998
21
-227.24650042472041
31
0
0
LINE
5
139
100
AcDbEntity
8
0
100
AcDbLine
10
21.660350769870998
20
-227.24650042472041
30
0
11
21.660350769871005
21
-230.24650042472041
31
0
0
LINE
5
140
100
AcDbEntity
8
0
100
AcDbLine
10
1.4999999999999991
20
-36.757898238266407
30
0
11
1.4999999999999991
21
-42.174754372529932
31
0
0
LINE
5
141
100
AcDbEntity
8
0
100
AcDbLine
10
1.4999999999999991
20
-42.174754372529932
30
0
11
-1.4999999999999991
21
-42.174754372529932
31
0
0
LINE
5
142
100
AcDbEntity
8
0
100
AcDbLine
10
-1.4999999999999991
20
-42.174754372529932
30
0
11
-1.4999999999999991
21
-36.757898238266407
31
0
0
SPLINE
5
143
100
AcDbEntity
8
0
100
AcDbSpline
70
0
71
3
72
34
73
30
74
0
42
0.000000001
43
0.0000000001
44
0.0000000001
40
-42.89086899474939
40
-42.89086899474939
40
-42.89086899474939
40
-42.89086899474939
40
-40.984965704274501
40
-40.984965704274501
40
-39.554964875161453
40
-39.554964875161453
40
-37.992276016794911
40
-37.992276016794911
40
-35.521209408642065
40
-35.521209408642065
40
-29.083923232181391
40
-29.083923232181391
40
-24.539369692229606
40
-24.539369692229606
40
-10.318333018018526
40
-10.318333018018526
40
-6.7128729520549282
40
-6.7128729520549282
40
-5.2253714339005342
40
-5.2253714339005342
40
-4.0768195996460159
40
-4.0768195996460159
40
-2.602211799126612
40
-2.602211799126612
40
-1.2480008584811777
40
-1.2480008584811777
40
-0.75263576336939508
40
-0.75263576336939508
40
0
40
0
40
0
40
0
10
-1.4999999999999969
20
-36.757898238266421
30
0
10
-2.6962619385969813
20
-37.397351651654638
30
0
10
-4.8495715170068436
20
-37.961610720217053
30
0
10
-8.7211399370023539
20
-39.514227486730292
30
0
10
-10.266723512465155
20
-40.302535860090757
30
0
10
-13.194797049815721
20
-42.616662254291981
30
0
10
-14.473049520044208
20
-44.145853212206589
30
0
10
-17.498906078674711
20
-49.613576947377425
30
0
10
-18.913291427550327
20
-54.11874156257192
30
0
10
-23.193809903783716
20
-72.071126048495898
30
0
10
-26.037775748115671
20
-94.440389926937655
30
0
10
-28.253072456008628
20
-119.54140391711269
30
0
10
-28.68463163362118
20
-129.27285907922726
30
0
10
-29.524506465033198
20
-169.36197846806999
30
0
10
-28.096032966839562
20
-203.81299709007277
30
0
10
-24.597995565999131
20
-229.36365378519585
30
0
10
-23.857058098588325
20
-233.2489868185385
30
0
10
-22.729021729585789
20
-236.72615086307022
30
0
10
-22.355746082343405
20
-237.61281174710564
30
0
10
-21.525664477556923
20
-238.8618060579501
30
0
10
-21.130058393429355
20
-239.262874172235
30
0
10
-20.101695783347033
20
-239.96842143819629
30
0
10
-19.41904206756606
20
-240.2231412592177
30
0
10
-17.775394125940466
20
-240.61380555220194
30
0
10
-16.807778260784062
20
-240.7658733010858
30
0
10
-14.959806232735097
20
-241.03411870132376
30
0
10
-11.161883884345476
20
-241.58384727543
30
0
10
-6.4651144774793199
20
-242.20005620721324
30
0
10
-4.0087858778979832
20
-242.44185146926532
30
0
10
-1.5000000000000002
20
-242.44185146926532
30
0
0
LINE
5
144
100
AcDbEntity
8
0
100
AcDbLine
10
-1.4999999999999996
20
-242.44185146926532
30
0
11
-1.4999999999999991
21
-233.09714336821992
31
0
0
LINE
5
145
100
AcDbEntity
8
0
100
AcDbLine
10
-1.4999999999999991
20
-233.09714336821992
30
0
11
1.4999999999999991
21
-233.09714336821992
31
0
0
LINE
5
146
100
AcDbEntity
8
0
100
AcDbLine
10
1.4999999999999991
20
-233.09714336821992
30
0
11
1.4999999999999991
21
-242.44185146926532
31
0
0
SPLINE
5
147
100
AcDbEntity
8
0
100
AcDbSpline
70
0
71
3
72
32
73
28
74
0
42
0.000000001
43
0.0000000001
44
0.0000000001
40
-9.5326955435657883
40
-9.5326955435657883
40
-9.5326955435657883
40
-9.5326955435657883
40
-9.0962742754538564
40
-9.0962742754538564
40
-8.8235384895849283
40
-8.8235384895849283
40
-8.6475602698445062
40
-8.6475602698445062
40
-8.4718609012650372
40
-8.4718609012650372
40
-8.2428573807829064
40
-8.2428573807829064
40
-7.5753771240628307
40
-7.5753771240628307
40
-4.3582831344620763
40
-4.3582831344620763
40
-2.685389903063335
40
-2.685389903063335
40
-1.4493576689535814
40
-1.4493576689535814
40
-1.0369080298467965
40
-1.0369080298467965
40
-0.75457452399346969
40
-0.75457452399346969
40
-0.22908443580016835
40
-0.22908443580016835
40
0
40
0
40
0
40
0
10
1.5000000000000002
20
-242.44185146926532
30
0
10
5.0829713495001361
20
-242.44185146926532
30
0
10
8.5634115045677071
20
-241.94716774435216
30
0
10
16.456069358709009
20
-240.82040830414027
30
0
10
17.754669819783746
20
-240.6341699074444
30
0
10
19.393665493417561
20
-240.21662680375726
30
0
10
19.943981365718511
20
-240.01683753498995
30
0
10
20.91428864330436
20
-239.44551582747565
30
0
10
21.332839522697697
20
-239.07507239981896
30
0
10
22.207038767188227
20
-237.90309494661142
30
0
10
22.649171637731889
20
-236.98580672729835
30
0
10
24.327258887243033
20
-231.75897279070114
30
0
10
25.244781727121214
20
-225.00998440675428
30
0
10
28.55671276085971
20
-196.98860372552431
30
0
10
29.606230040054065
20
-161.53546758731252
30
0
10
28.296218564000601
20
-118.74631197851025
30
0
10
27.317880784325212
20
-107.10520347744176
30
0
10
24.578329030517033
20
-84.20186634635678
30
0
10
22.266057346199766
20
-66.928014340268177
30
0
10
18.385432517924077
20
-52.569703115064463
30
0
10
17.190665306252907
20
-49.054309511970075
30
0
10
14.5808673814198
20
-44.342243103127927
30
0
10
13.441249976127267
20
-42.923107282484814
30
0
10
9.675895736880948
20
-39.674383879847987
30
0
10
6.8001817763921153
20
-38.703649572493831
30
0
10
3.1524726737028064
20
-37.455412555016295
30
0
10
2.1734392037951138
20
-37.117880432535088
30
0
10
1.4999999999999969
20
-36.757898238266421
30
0
0
ENDSEC
0
SECTION
2
OBJECTS
0
DICTIONARY
5
C
100
AcDbDictionary
3
ACAD_GROUP
350
D
3
ACAD_MLINESTYLE
350
17
0
DICTIONARY
5
D
100
AcDbDictionary
0
DICTIONARY
5
1A
330
C
100
AcDbDictionary
0
DICTIONARY
5
17
100
AcDbDictionary
0
ENDSEC
0
EOF
