0
SECTION
2
HEADER
9
$INSUNITS
70
4
9
$ACADVER
1
AC1014
9
$HANDSEED
5
FFFF
0
ENDSEC
0
SECTION
2
TABLES
0
TABLE
2
VPORT
5
8
100
AcDbSymbolTable
0
ENDTAB
0
TABLE
2
LTYPE
5
5
100
AcDbSymbolTable
0
LTYPE
5
14
100
AcDbSymbolTableRecord
100
AcDbLinetypeTableRecord
2
BYBLOCK
70
0
0
LTYPE
5
15
100
AcDbSymbolTableRecord
100
AcDbLinetypeTableRecord
2
BYLAYER
70
0
0
ENDTAB
0
TABLE
2
LAYER
5
2
100
AcDbSymbolTable
70
2
0
LAYER
5
50
100
AcDbSymbolTableRecord
100
AcDbLayerTableRecord
2
0
70
0
6
CONTINUOUS
0
ENDTAB
0
TABLE
2
STYLE
5
3
100
AcDbSymbolTable
70
1
0
STYLE
5
11
100
AcDbSymbolTableRecord
100
AcDbTextStyleTableRecord
2
STANDARD
70
0
0
ENDTAB
0
TABLE
2
VIEW
5
6
100
AcDbSymbolTable
70
0
0
ENDTAB
0
TABLE
2
UCS
5
7
100
AcDbSymbolTable
70
0
0
ENDTAB
0
TABLE
2
APPID
5
9
100
AcDbSymbolTable
70
2
0
APPID
5
12
100
AcDbSymbolTableRecord
100
AcDbRegAppTableRecord
2
ACAD
70
0
0
ENDTAB
0
TABLE
2
DIMSTYLE
5
A
100
AcDbSymbolTable
70
1
0
ENDTAB
0
TABLE
2
BLOCK_RECORD
5
1
100
AcDbSymbolTable
70
1
0
BLOCK_RECORD
5
1F
100
AcDbSymbolTableRecord
100
AcDbBlockTableRecord
2
*MODEL_SPACE
0
BLOCK_RECORD
5
1B
100
AcDbSymbolTableRecord
100
AcDbBlockTableRecord
2
*PAPER_SPACE
0
ENDTAB
0
ENDSEC
0
SECTION
2
BLOCKS
0
BLOCK
5
20
100
AcDbEntity
100
AcDbBlockBegin
2
*MODEL_SPACE
0
ENDBLK
5
21
100
AcDbEntity
100
AcDbBlockEnd
0
BLOCK
5
1C
100
AcDbEntity
100
AcDbBlockBegin
2
*PAPER_SPACE
0
ENDBLK
5
1D
100
AcDbEntity
100
AcDbBlockEnd
0
ENDSEC
0
SECTION
2
ENTITIES
0
SPLINE
5
100
100
AcDbEntity
8
0
100
AcDbSpline
70
0
71
3
72
10
73
6
74
0
42
0.000000001
43
0.0000000001
44
0.0000000001
40
-4.2869181051592271
40
-4.2869181051592271
40
-4.2869181051592271
40
-4.2869181051592271
40
-2.2291948437398177
40
-2.2291948437398177
40
0
40
0
40
0
40
0
10
-27.792914970107844
20
-135.22218321580888
30
0
10
-27.652330434535845
20
-128.34731912363742
30
0
10
-27.270553075312186
20
-121.36387999563603
30
0
10
-26.168558989247423
20
-107.10702380326575
30
0
10
-25.401789378490911
20
-99.588301739479235
30
0
10
-24.52112014301893
20
-92.210024611353134
30
0
0
LINE
5
101
100
AcDbEntity
8
0
100
AcDbLine
10
-24.52112014301893
20
-92.21002461135312
30
0
11
-26.306483797671206
21
-92.210024611353077
31
0
0
LINE
5
102
100
AcDbEntity
8
0
100
AcDbLine
10
-26.306483797671206
20
-92.210024611353077
30
0
11
-26.306483797671206
21
-89.210024611353077
31
0
0
LINE
5
103
100
AcDbEntity
8
0
100
AcDbLine
10
-26.306483797671206
20
-89.210024611353077
30
0
11
-24.155928315498873
21
-89.210024611353077
31
0
0
SPLINE
5
104
100
AcDbEntity
8
0
100
AcDbSpline
70
0
71
3
72
10
73
6
74
0
42
0.000000001
43
0.0000000001
44
0.0000000001
40
-2.1021040124355461
40
-2.1021040124355461
40
-2.1021040124355461
40
-2.1021040124355461
40
-1.0667519699842993
40
-1.0667519699842993
40
0
40
0
40
0
40
0
10
-24.155928315498535
20
-89.210024611353163
30
0
10
-23.731028662578822
20
-85.785425182102287
30
0
10
-23.278382652022906
20
-82.355952022945601
30
0
10
-22.313467403453295
20
-75.416664970020463
30
0
10
-21.797701290904669
20
-71.892397262097901
30
0
10
-21.25992208097697
20
-68.377459010089865
30
0
0
SPLINE
5
105
100
AcDbEntity
8
0
100
AcDbSpline
70
0
71
3
72
10
73
6
74
0
42
0.000000001
43
0.0000000001
44
0.0000000001
40
-2.2938871557127749
40
-2.2938871557127749
40
-2.2938871557127749
40
-2.2938871557127749
40
-1.017647517307124
40
-1.017647517307124
40
0
40
0
40
0
40
0
10
-21.25992208097697
20
-68.377459010089851
30
0
10
-20.443210987678171
20
-64.22347113415934
30
0
10
-19.440171944803456
20
-59.886953966497707
30
0
10
-17.204066993992811
20
-52.585834635241362
30
0
10
-15.966370547413899
20
-49.216709221671579
30
0
10
-14.419333316315717
20
-46.197866006897272
30
0
0
LINE
5
106
100
AcDbEntity
8
0
100
AcDbLine
10
-14.419333316315718
20
-46.197866006897279
30
0
11
-15.300436067843691
21
-46.197866006897272
31
0
0
LINE
5
107
100
AcDbEntity
8
0
100
AcDbLine
10
-15.300436067843691
20
-46.197866006897272
30
0
11
-15.300436067843691
21
-43.197866006897257
31
0
0
LINE
5
108
100
AcDbEntity
8
0
100
AcDbLine
10
-15.300436067843691
20
-43.197866006897257
30
0
11
-13.538230564787742
21
-43.197866006897257
31
0
0
SPLINE
5
109
100
AcDbEntity
8
0
100
AcDbSpline
70
0
71
3
72
16
73
12
74
0
42
0.000000001
43
0.0000000001
44
0.0000000001
40
-1.8862243222857569
40
-1.8862243222857569
40
-1.8862243222857569
40
-1.8862243222857569
40
-1.7488764652389182
40
-1.7488764652389182
40
-1.6174074050861849
40
-1.6174074050861849
40
-1.3584378024381616
40
-1.3584378024381616
40
-0.91837422652448752
40
-0.91837422652448752
40
0
40
0
40
0
40
0
10
-13.538230564787742
20
-43.197866006897257
30
0
10
-13.422722555876357
20
-42.894941037565914
30
0
10
-13.27917700048328
20
-42.607918916000152
30
0
10
-12.933095684803195
20
-42.076269400920829
30
0
10
-12.738374266589812
20
-41.838122256460579
30
0
10
-12.087115461526158
20
-41.186799940836202
30
0
10
-11.576854387698157
20
-40.845382872279885
30
0
10
-10.113903016386184
20
-40.09225661556993
30
0
10
-9.0549694146918664
20
-39.774133637320269
30
0
10
-5.6250910161752348
20
-38.885653726923131
30
0
10
-4.5606217342824085
20
-38.744371360851567
30
0
10
-1.5000000000000002
20
-38.682481322891419
30
0
0
LINE
5
110
100
AcDbEntity
8
0
100
AcDbLine
10
-1.5000000000000002
20
-38.682481322891419
30
0
11
1.4999999999999991
21
-38.682481322891419
31
0
0
SPLINE
5
111
100
AcDbEntity
8
0
100
AcDbSpline
70
0
71
3
72
16
73
12
74
0
42
0.000000001
43
0.0000000001
44
0.0000000001
40
-0.93228149611855615
40
-0.93228149611855615
40
-0.93228149611855615
40
-0.93228149611855615
40
-0.79017592431567907
40
-0.79017592431567907
40
-0.63491815863278911
40
-0.63491815863278911
40
-0.36144480886033931
40
-0.36144480886033931
40
-0.18160271682884394
40
-0.18160271682884394
40
0
40
0
40
0
40
0
10
1.5000000000000002
20
-38.682481322891419
30
0
10
3.7104958320236339
20
-38.727180630036202
30
0
10
4.8927612699314631
20
-38.838409235515748
30
0
10
6.8945709464619025
20
-39.192277346776194
30
0
10
8.1055748744677256
20
-39.524039075004801
30
0
10
9.4695744973734683
20
-39.906218763178224
30
0
10
10.372541118420139
20
-40.206811638262323
30
0
10
11.696329523694525
20
-40.92194465756323
30
0
10
12.186095378135258
20
-41.26706559021973
30
0
10
13.015097419584826
20
-42.137722702777907
30
0
10
13.32255537954725
20
-42.632248094423062
30
0
10
13.538230564787742
20
-43.197866006897257
30
0
0
LINE
5
112
100
AcDbEntity
8
0
100
AcDbLine
10
13.538230564787746
20
-43.197866006897272
30
0
11
15.300436067843691
21
-43.197866006897257
31
0
0
LINE
5
113
100
AcDbEntity
8
0
100
AcDbLine
10
15.300436067843691
20
-43.197866006897257
30
0
11
15.300436067843691
21
-46.197866006897272
31
0
0
LINE
5
114
100
AcDbEntity
8
0
100
AcDbLine
10
15.300436067843691
20
-46.197866006897272
30
0
11
14.419333316315717
21
-46.197866006897272
31
0
0
SPLINE
5
115
100
AcDbEntity
8
0
100
AcDbSpline
70
0
71
3
72
10
73
6
74
0
42
0.000000001
43
0.0000000001
44
0.0000000001
40
-2.2827690329648478
40
-2.2827690329648478
40
-2.2827690329648478
40
-2.2827690329648478
40
-1.2700538986580674
40
-1.2700538986580674
40
0
40
0
40
0
40
0
10
14.419333316315717
20
-46.197866006897272
30
0
10
15.966370547413899
20
-49.216709221671579
30
0
10
17.204066993992811
20
-52.585834635241362
30
0
10
19.440171944803456
20
-59.886953966497707
30
0
10
20.443210987678171
20
-64.22347113415934
30
0
10
21.25992208097697
20
-68.377459010089851
30
0
0
SPLINE
5
116
100
AcDbEntity
8
0
100
AcDbSpline
70
0
71
3
72
10
73
6
74
0
42
0.000000001
43
0.0000000001
44
0.0000000001
40
-2.1019118598599853
40
-2.1019118598599853
40
-2.1019118598599853
40
-2.1019118598599853
40
-1.0352574012915363
40
-1.0352574012915363
40
0
40
0
40
0
40
0
10
21.25992208097697
20
-68.377459010089865
30
0
10
21.797701290904669
20
-71.892397262097901
30
0
10
22.313467403453295
20
-75.416664970020463
30
0
10
23.278382652022906
20
-82.355952022945601
30
0
10
23.731028662578822
20
-85.785425182102287
30
0
10
24.155928315498535
20
-89.210024611353163
30
0
0
LINE
5
117
100
AcDbEntity
8
0
100
AcDbLine
10
24.155928315498535
20
-89.210024611353163
30
0
11
26.306483797671206
21
-89.210024611353077
31
0
0
LINE
5
118
100
AcDbEntity
8
0
100
AcDbLine
10
26.306483797671206
20
-89.210024611353077
30
0
11
26.306483797671206
21
-92.210024611353077
31
0
0
LINE
5
119
100
AcDbEntity
8
0
100
AcDbLine
10
26.306483797671206
20
-92.210024611353077
30
0
11
24.521120143019111
21
-92.210024611353077
31
0
0
SPLINE
5
120
100
AcDbEntity
8
0
100
AcDbSpline
70
0
71
3
72
10
73
6
74
0
42
0.000000001
43
0.0000000001
44
0.0000000001
40
-4.2976829760538209
40
-4.2976829760538209
40
-4.2976829760538209
40
-4.2976829760538209
40
-2.0628904059044735
40
-2.0628904059044735
40
0
40
0
40
0
40
0
10
24.52112014301893
20
-92.210024611353134
30
0
10
25.401789378490911
20
-99.588301739479249
30
0
10
26.168558989247455
20
-107.10702380326603
30
0
10
27.270553075312044
20
-121.36387999563433
30
0
10
27.652330434535838
20
-128.34731912363711
30
0
10
27.792914970107844
20
-135.22218321580888
30
0
0
LINE
5
121
100
AcDbEntity
8
0
100
AcDbLine
10
27.792914970107848
20
-135.22218321580888
30
0
11
29.598617032011347
21
-135.22218321580885
31
0
0
LINE
5
122
100
AcDbEntity
8
0
100
AcDbLine
10
29.598617032011347
20
-135.22218321580885
30
0
11
29.598617032011347
21
-138.22218321580885
31
0
0
LINE
5
123
100
AcDbEntity
8
0
100
AcDbLine
10
29.598617032011347
20
-138.22218321580885
30
0
11
27.838859867472934
21
-138.22218321580885
31
0
0
SPLINE
5
124
100
AcDbEntity
8
0
100
AcDbSpline
70
0
71
3
72
10
73
6
74
0
42
0.000000001
43
0.0000000001
44
0.0000000001
40
-4.7705660051289165
40
-4.7705660051289165
40
-4.7705660051289165
40
-4.7705660051289165
40
-2.2225413745593245
40
-2.2225413745593245
40
0
40
0
40
0
40
0
10
27.838859867472713
20
-138.22218321580888
30
0
10
27.916119356624755
20
-145.87345595719529
30
0
10
27.685745666699152
20
-152.59204457646035
30
0
10
26.821430115196726
20
-167.26684934553066
30
0
10
26.308668471919873
20
-173.83697402118293
30
0
10
25.903210846522938
20
-181.23434182022601
30
0
0
LINE
5
125
100
AcDbEntity
8
0
100
AcDbLine
10
25.903210846522938
20
-181.23434182022601
30
0
11
27.521797087297479
21
-181.23434182026469
31
0
0
LINE
5
126
100
AcDbEntity
8
0
100
AcDbLine
10
27.521797087297479
20
-181.23434182026469
30
0
11
27.521797087297479
21
-184.23434182026466
31
0
0
LINE
5
127
100
AcDbEntity
8
0
100
AcDbLine
10
27.521797087297479
20
-184.23434182026466
30
0
11
25.747380959152039
21
-184.23434182026466
31
0
0
SPLINE
5
128
100
AcDbEntity
8
0
100
AcDbSpline
70
0
71
3
72
10
73
6
74
0
42
0.000000001
43
0.0000000001
44
0.0000000001
40
-3.5607723843721515
40
-3.5607723843721515
40
-3.5607723843721515
40
-3.5607723843721515
40
-2.4209998449596104
40
-2.4209998449596104
40
0
40
0
40
0
40
0
10
25.747380959233894
20
-184.23434182026867
30
0
10
25.381942158590039
20
-191.6929503849704
30
0
10
25.183788141101857
20
-200.69283913523211
30
0
10
24.873277156663992
20
-214.65005117454226
30
0
10
24.76163796584451
20
-219.18695712449255
30
0
10
24.35096358074189
20
-227.24650042472041
30
0
0
LINE
5
129
100
AcDbEntity
8
0
100
AcDbLine
10
24.350963580741887
20
-227.24650042472041
30
0
11
26.090927516975874
21
-227.24650042472041
31
0
0
LINE
5
130
100
AcDbEntity
8
0
100
AcDbLine
10
26.090927516975874
20
-227.24650042472041
30
0
11
26.090927516975874
21
-230.24650042472041
31
0
0
LINE
5
131
100
AcDbEntity
8
0
100
AcDbLine
10
26.090927516975874
20
-230.24650042472041
30
0
11
23.83106231839254
21
-230.24650042472041
31
0
0
SPLINE
5
132
100
AcDbEntity
8
0
100
AcDbSpline
70
0
71
3
72
14
73
10
74
0
42
0.000000001
43
0.0000000001
44
0.0000000001
40
-7.1836996089601879
40
-7.1836996089601879
40
-7.1836996089601879
40
-7.1836996089601879
40
-5.4059618328973658
40
-5.4059618328973658
40
-3.9635878134298173
40
-3.9635878134298173
40
-2.4475925567020842
40
-2.4475925567020842
40
0
40
0
40
0
40
0
10
23.83106231839254
20
-230.24650042472041
30
0
10
23.385458203214689
20
-232.37399664581318
30
0
10
22.81891733701924
20
-234.14651882784284
30
0
10
21.467666802336151
20
-236.81992463461626
30
0
10
20.707439922975265
20
-237.89433651629821
30
0
10
18.669615191373644
20
-239.75878401792124
30
0
10
17.429824030058882
20
-240.47768882327972
30
0
10
13.562603397551356
20
-241.91163713024901
30
0
10
9.6585248293340911
20
-242.68217933335586
30
0
10
1.5000000000000002
20
-242.72587759749197
30
0
0
LINE
5
133
100
AcDbEntity
8
0
100
AcDbLine
10
1.4999999999999996
20
-242.72587759749197
30
0
11
1.4999999999999991
21
-242.74194604064195
31
0
0
LINE
5
134
100
AcDbEntity
8
0
100
AcDbLine
10
1.4999999999999991
20
-242.74194604064195
30
0
11
-1.4999999999999991
21
-242.72587759749197
31
0
0
SPLINE
5
135
100
AcDbEntity
8
0
100
AcDbSpline
70
0
71
3
72
14
73
10
74
0
42
0.000000001
43
0.0000000001
44
0.0000000001
40
-2.7084528155972709
40
-2.7084528155972709
40
-2.7084528155972709
40
-2.7084528155972709
40
-1.828996850391154
40
-1.828996850391154
40
-1.3057813010927679
40
-1.3057813010927679
40
-0.73466059497322256
40
-0.73466059497322256
40
0
40
0
40
0
40
0
10
-1.5000000000000002
20
-242.72587759749197
30
0
10
-9.3814205692630317
20
-242.68366354470569
30
0
10
-13.205295701968671
20
-241.96338150281593
30
0
10
-16.908684632715509
20
-240.70802551778857
30
0
10
-18.094399614453966
20
-240.10316757696268
30
0
10
-20.228842166071956
20
-238.44201076582402
30
0
10
-21.091833683728144
20
-237.38880685106301
30
0
10
-22.674175849322054
20
-234.58701834471782
30
0
10
-23.329040233962139
20
-232.64335909624438
30
0
10
-23.83106231839254
20
-230.24650042472041
30
0
0
LINE
5
136
100
AcDbEntity
8
0
100
AcDbLine
10
-23.83106231839254
20
-230.24650042472041
30
0
11
-26.090927516975878
21
-230.24650042472041
31
0
0
LINE
5
137
100
AcDbEntity
8
0
100
AcDbLine
10
-26.090927516975878
20
-230.24650042472041
30
0
11
-26.090927516975867
21
-227.24650042472041
31
0
0
LINE
5
138
100
AcDbEntity
8
0
100
AcDbLine
10
-26.090927516975867
20
-227.24650042472041
30
0
11
-24.35096358074189
21
-227.24650042472041
31
0
0
SPLINE
5
139
100
AcDbEntity
8
0
100
AcDbSpline
70
0
71
3
72
10
73
6
74
0
42
0.000000001
43
0.0000000001
44
0.0000000001
40
-6.9988348506398017
40
-6.9988348506398017
40
-6.9988348506398017
40
-6.9988348506398017
40
-2.2402666920394205
40
-2.2402666920394205
40
0
40
0
40
0
40
0
10
-24.35096358074189
20
-227.24650042472041
30
0
10
-24.76163796584451
20
-219.18695712449255
30
0
10
-24.873277156663992
20
-214.65005117454226
30
0
10
-25.183788141101857
20
-200.69283913523211
30
0
10
-25.381942158590039
20
-191.6929503849704
30
0
10
-25.747380959233894
20
-184.23434182026867
30
0
0
LINE
5
140
100
AcDbEntity
8
0
100
AcDbLine
10
-25.747380959233887
20
-184.23434182026867
30
0
11
-27.521797087297482
21
-184.23434182026466
31
0
0
LINE
5
141
100
AcDbEntity
8
0
100
AcDbLine
10
-27.521797087297482
20
-184.23434182026466
30
0
11
-27.521797087297482
21
-181.23434182026469
31
0
0
LINE
5
142
100
AcDbEntity
8
0
100
AcDbLine
10
-27.521797087297482
20
-181.23434182026469
30
0
11
-25.90321084652
21
-181.23434182026469
31
0
0
SPLINE
5
143
100
AcDbEntity
8
0
100
AcDbSpline
70
0
71
3
72
10
73
6
74
0
42
0.000000001
43
0.0000000001
44
0.0000000001
40
-4.2977719282244387
40
-4.2977719282244387
40
-4.2977719282244387
40
-4.2977719282244387
40
-2.2954988397420801
40
-2.2954988397420801
40
0
40
0
40
0
40
0
10
-25.903210846522938
20
-181.23434182022601
30
0
10
-26.308668471919873
20
-173.83697402118293
30
0
10
-26.821430115196726
20
-167.26684934553066
30
0
10
-27.685745666699152
20
-152.59204457646035
30
0
10
-27.916119356624755
20
-145.87345595719529
30
0
10
-27.838859867472713
20
-138.22218321580888
30
0
0
LINE
5
144
100
AcDbEntity
8
0
100
AcDbLine
10
-27.838859867472706
20
-138.22218321580888
30
0
11
-29.598617032011347
21
-138.22218321580885
31
0
0
LINE
5
145
100
AcDbEntity
8
0
100
AcDbLine
10
-29.598617032011347
20
-138.22218321580885
30
0
11
-29.598617032011347
21
-135.22218321580885
31
0
0
LINE
5
146
100
AcDbEntity
8
0
100
AcDbLine
10
-29.598617032011347
20
-135.22218321580885
30
0
11
-27.792914970107844
21
-135.22218321580888
31
0
0
LINE
5
147
100
AcDbEntity
8
0
100
AcDbLine
10
-1.4999999999999991
20
-35.682481322891419
30
0
11
-1.4999999999999991
21
-31.065160424479288
31
0
0
SPLINE
5
148
100
AcDbEntity
8
0
100
AcDbSpline
70
0
71
3
72
32
73
28
74
0
42
0.000000001
43
0.0000000001
44
0.0000000001
40
-14.12860514873009
40
-14.12860514873009
40
-14.12860514873009
40
-14.12860514873009
40
-13.328967747544397
40
-13.328967747544397
40
-12.515882785974574
40
-12.515882785974574
40
-11.245143652968888
40
-11.245143652968888
40
-8.7518721621611757
40
-8.7518721621611757
40
-7.6291604925890386
40
-7.6291604925890386
40
-6.1158938079241842
40
-6.1158938079241842
40
-4.8075072347695995
40
-4.8075072347695995
40
-3.590310451563139
40
-3.590310451563139
40
-2.6123055982653489
40
-2.6123055982653489
40
-2.0202256278688715
40
-2.0202256278688715
40
-1.4862336252225967
40
-1.4862336252225967
40
-0.90074792377879176
40
-0.90074792377879176
40
0
40
0
40
0
40
0
10
-1.5000000000000002
20
-31.065160424479288
30
0
10
-3.7044557947703827
20
-32.027136472406518
30
0
10
-5.970954932921603
20
-33.184803873284395
30
0
10
-10.116311253150148
20
-35.854065180842419
30
0
10
-12.011497907959169
20
-37.380308167316244
30
0
10
-16.369607060682288
20
-42.055888840055069
30
0
10
-18.607112874064235
20
-45.687013818182159
30
0
10
-24.221545294160862
20
-60.629211009769016
30
0
10
-26.181097839682927
20
-74.798078685407376
30
0
10
-28.740709211017943
20
-103.63404047127926
30
0
10
-29.615594927646498
20
-115.09358728851257
30
0
10
-30.890569218573077
20
-135.47213472318478
30
0
10
-31.067847555371699
20
-142.60497017749802
30
0
10
-30.623603505319604
20
-165.32486555491855
30
0
10
-29.568163990542573
20
-199.54147170455207
30
0
10
-28.367023260469516
20
-223.56280154642849
30
0
10
-27.918522936688987
20
-226.4567828808631
30
0
10
-26.566686292467821
20
-237.40322649122388
30
0
10
-26.163883729526617
20
-241.17426449022176
30
0
10
-24.817269359017089
20
-246.52711653286045
30
0
10
-24.21996791547571
20
-248.10805041922322
30
0
10
-22.833219246040223
20
-250.57304055287901
30
0
10
-22.023590923852055
20
-251.58854643572698
30
0
10
-19.861234282748082
20
-253.38480956157139
30
0
10
-18.491119604168397
20
-254.11069946501613
30
0
10
-14.25190746709859
20
-255.4736260021113
30
0
10
-11.255058162740749
20
-255.76259811845841
30
0
10
-8.2537703246865153
20
-255.84766282422865
30
0
0
LINE
5
149
100
AcDbEntity
8
0
100
AcDbLine
10
-8.2537703246865153
20
-255.84766282422865
30
0
11
-1.4999999999999991
21
-255.84766282422868
31
0
0
LINE
5
150
100
AcDbEntity
8
0
100
AcDbLine
10
-1.4999999999999991
20
-255.84766282422868
30
0
11
-1.4999999999999991
21
-251.35750008942597
31
0
0
LINE
5
151
100
AcDbEntity
8
0
100
AcDbLine
10
-1.4999999999999991
20
-251.35750008942597
30
0
11
-10.230720926504702
21
-251.35750008942603
31
0
0
LINE
5
152
100
AcDbEntity
8
0
100
AcDbLine
10
-10.230720926504702
20
-251.35750008942603
30
0
11
-10.230720926504704
21
-248.35750008942603
31
0
0
LINE
5
153
100
AcDbEntity
8
0
100
AcDbLine
10
-10.230720926504704
20
-248.35750008942603
30
0
11
-1.4999999999999991
21
-248.357500089426
31
0
0
LINE
5
154
100
AcDbEntity
8
0
100
AcDbLine
10
-1.4999999999999991
20
-248.357500089426
30
0
11
-1.4999999999999991
21
-245.43641780492356
31
0
0
LINE
5
155
100
AcDbEntity
8
0
100
AcDbLine
10
-1.4999999999999991
20
-245.43641780492356
30
0
11
1.4999999999999991
21
-245.43641780492356
31
0
0
LINE
5
156
100
AcDbEntity
8
0
100
AcDbLine
10
1.4999999999999991
20
-245.43641780492356
30
0
11
1.4999999999999991
21
-248.357500089426
31
0
0
LINE
5
157
100
AcDbEntity
8
0
100
AcDbLine
10
1.4999999999999991
20
-248.357500089426
30
0
11
10.230720926504704
21
-248.35750008942603
31
0
0
LINE
5
158
100
AcDbEntity
8
0
100
AcDbLine
10
10.230720926504704
20
-248.35750008942603
30
0
11
10.230720926504704
21
-251.35750008942603
31
0
0
LINE
5
159
100
AcDbEntity
8
0
100
AcDbLine
10
10.230720926504704
20
-251.35750008942603
30
0
11
1.4999999999999991
21
-251.35750008942597
31
0
0
LINE
5
160
100
AcDbEntity
8
0
100
AcDbLine
10
1.4999999999999991
20
-251.35750008942597
30
0
11
1.4999999999999991
21
-255.84766282422868
31
0
0
SPLINE
5
161
100
AcDbEntity
8
0
100
AcDbSpline
70
0
71
3
72
36
73
32
74
0
42
0.000000001
43
0.0000000001
44
0.0000000001
40
-40.360680352254931
40
-40.360680352254931
40
-40.360680352254931
40
-40.360680352254931
40
-38.639291052576674
40
-38.639291052576674
40
-36.657493563958106
40
-36.657493563958106
40
-35.347173619986897
40
-35.347173619986897
40
-34.025632081571175
40
-34.025632081571175
40
-32.437372401200747
40
-32.437372401200747
40
-30.329506961138179
40
-30.329506961138179
40
-28.41495735265606
40
-28.41495735265606
40
-25.048407482187294
40
-25.048407482187294
40
-21.58271027842116
40
-21.58271027842116
40
-16.322224605373467
40
-16.322224605373467
40
-13.45153800026344
40
-13.45153800026344
40
-9.0947706077043868
40
-9.0947706077043868
40
-5.2498591837498374
40
-5.2498591837498374
40
-1.9763703527413925
40
-1.9763703527413925
40
0
40
0
40
0
40
0
10
1.5000000000000002
20
-255.84766282422868
30
0
10
3.4397850238320515
20
-255.84766282422868
30
0
10
5.7758301987736349
20
-255.91235309524816
30
0
10
10.775214727766848
20
-255.78219361523028
30
0
10
13.488898883025634
20
-255.55349105430508
30
0
10
17.486476255869739
20
-254.49755768902656
30
0
10
18.851286132359132
20
-253.92522366767864
30
0
10
21.205027478172379
20
-252.3876836728418
30
0
10
22.168173384258388
20
-251.43280470153289
30
0
10
23.914845731207862
20
-248.85418345668356
30
0
10
24.639024248287949
20
-247.11172661410023
30
0
10
26.008027402667615
20
-241.93590403454564
30
0
10
26.437282899077786
20
-238.55732348569001
30
0
10
27.165084833986764
20
-232.54857234373225
30
0
10
27.778836442592674
20
-227.87401919891568
30
0
10
28.670999902919149
20
-218.45965289826626
30
0
10
29.056909731349556
20
-210.66569979719372
30
0
10
29.832706057461607
20
-189.77789649607629
30
0
10
30.429475487551379
20
-170.85311957942866
30
0
10
31.07984663892886
20
-145.84656801395104
30
0
10
31.04485855163546
20
-137.74244724303946
30
0
10
29.615717537436158
20
-115.20888886419596
30
0
10
28.84559324654202
20
-105.08280742177786
30
0
10
27.087065617449543
20
-84.684140156288876
30
0
10
25.959447902400228
20
-74.264773001653481
30
0
10
23.038573132015486
20
-58.228065281611833
30
0
10
21.35879310866347
20
-52.245436498823992
30
0
10
17.251460432494785
20
-43.402902095609058
30
0
10
15.035030417247292
20
-40.353325292569437
30
0
10
10.787130742819546
20
-36.382503223245664
30
0
10
7.538039019217746
20
-33.700027917271321
30
0
10
1.5000000000000002
20
-31.065160424479288
30
0
0
LINE
5
162
100
AcDbEntity
8
0
100
AcDbLine
10
1.4999999999999993
20
-31.065160424479288
30
0
11
1.4999999999999991
21
-35.682481322891419
31
0
0
LINE
5
163
100
AcDbEntity
8
0
100
AcDbLine
10
1.4999999999999991
20
-35.682481322891419
30
0
11
-1.4999999999999991
21
-35.682481322891419
31
0
0
ENDSEC
0
SECTION
2
OBJECTS
0
DICTIONARY
5
C
100
AcDbDictionary
3
ACAD_GROUP
350
D
3
ACAD_MLINESTYLE
350
17
0
DICTIONARY
5
D
100
AcDbDictionary
0
DICTIONARY
5
1A
330
C
100
AcDbDictionary
0
DICTIONARY
5
17
100
AcDbDictionary
0
ENDSEC
0
EOF
