0
SECTION
2
HEADER
9
$INSUNITS
70
4
9
$ACADVER
1
AC1014
9
$HANDSEED
5
FFFF
0
ENDSEC
0
SECTION
2
TABLES
0
TABLE
2
VPORT
5
8
100
AcDbSymbolTable
0
ENDTAB
0
TABLE
2
LTYPE
5
5
100
AcDbSymbolTable
0
LTYPE
5
14
100
AcDbSymbolTableRecord
100
AcDbLinetypeTableRecord
2
BYBLOCK
70
0
0
LTYPE
5
15
100
AcDbSymbolTableRecord
100
AcDbLinetypeTableRecord
2
BYLAYER
70
0
0
ENDTAB
0
TABLE
2
LAYER
5
2
100
AcDbSymbolTable
70
2
0
LAYER
5
50
100
AcDbSymbolTableRecord
100
AcDbLayerTableRecord
2
0
70
0
6
CONTINUOUS
0
ENDTAB
0
TABLE
2
STYLE
5
3
100
AcDbSymbolTable
70
1
0
STYLE
5
11
100
AcDbSymbolTableRecord
100
AcDbTextStyleTableRecord
2
STANDARD
70
0
0
ENDTAB
0
TABLE
2
VIEW
5
6
100
AcDbSymbolTable
70
0
0
ENDTAB
0
TABLE
2
UCS
5
7
100
AcDbSymbolTable
70
0
0
ENDTAB
0
TABLE
2
APPID
5
9
100
AcDbSymbolTable
70
2
0
APPID
5
12
100
AcDbSymbolTableRecord
100
AcDbRegAppTableRecord
2
ACAD
70
0
0
ENDTAB
0
TABLE
2
DIMSTYLE
5
A
100
AcDbSymbolTable
70
1
0
ENDTAB
0
TABLE
2
BLOCK_RECORD
5
1
100
AcDbSymbolTable
70
1
0
BLOCK_RECORD
5
1F
100
AcDbSymbolTableRecord
100
AcDbBlockTableRecord
2
*MODEL_SPACE
0
BLOCK_RECORD
5
1B
100
AcDbSymbolTableRecord
100
AcDbBlockTableRecord
2
*PAPER_SPACE
0
ENDTAB
0
ENDSEC
0
SECTION
2
BLOCKS
0
BLOCK
5
20
100
AcDbEntity
100
AcDbBlockBegin
2
*MODEL_SPACE
0
ENDBLK
5
21
100
AcDbEntity
100
AcDbBlockEnd
0
BLOCK
5
1C
100
AcDbEntity
100
AcDbBlockBegin
2
*PAPER_SPACE
0
ENDBLK
5
1D
100
AcDbEntity
100
AcDbBlockEnd
0
ENDSEC
0
SECTION
2
ENTITIES
0
SPLINE
5
100
100
AcDbEntity
8
0
100
AcDbSpline
70
0
71
3
72
10
73
6
74
0
42
0.000000001
43
0.0000000001
44
0.0000000001
40
-1.7890142164788054
40
-1.7890142164788054
40
-1.7890142164788054
40
-1.7890142164788054
40
-0.99067982555000489
40
-0.99067982555000489
40
0
40
0
40
0
40
0
10
-27.344183363499226
20
-248.35750008942603
30
0
10
-27.57755314046889
20
-245.70375039528125
30
0
10
-27.788708288859951
20
-242.90469781190751
30
0
10
-28.200506589797214
20
-236.95637259920304
30
0
10
-28.410019771556382
20
-233.54350458485561
30
0
10
-28.596365861650472
20
-230.24650042472044
30
0
0
LINE
5
101
100
AcDbEntity
8
0
100
AcDbLine
10
-28.596365861650472
20
-230.24650042472044
30
0
11
-30.764096683801295
21
-230.24650042472044
31
0
0
LINE
5
102
100
AcDbEntity
8
0
100
AcDbLine
10
-30.764096683801295
20
-230.24650042472044
30
0
11
-30.764096683801284
21
-227.24650042472047
31
0
0
LINE
5
103
100
AcDbEntity
8
0
100
AcDbLine
10
-30.764096683801284
20
-227.24650042472047
30
0
11
-28.761470679965299
21
-227.24650042472047
31
0
0
SPLINE
5
104
100
AcDbEntity
8
0
100
AcDbSpline
70
0
71
3
72
10
73
6
74
0
42
0.000000001
43
0.0000000001
44
0.0000000001
40
-4.3440355872206622
40
-4.3440355872206622
40
-4.3440355872206622
40
-4.3440355872206622
40
-2.2936204803336415
40
-2.2936204803336415
40
0
40
0
40
0
40
0
10
-28.761470679966436
20
-227.24650042469938
30
0
10
-29.119283735964974
20
-220.56963283055015
30
0
10
-29.426349858114179
20
-213.68682243548994
30
0
10
-29.948122393304821
20
-199.34944470335887
30
0
10
-30.150094155725164
20
-191.87857131415026
30
0
10
-30.283963820327632
20
-184.23434182026486
30
0
0
LINE
5
105
100
AcDbEntity
8
0
100
AcDbLine
10
-30.283963820327632
20
-184.23434182026486
30
0
11
-32.283963820327642
21
-184.23434182026466
31
0
0
LINE
5
106
100
AcDbEntity
8
0
100
AcDbLine
10
-32.283963820327642
20
-184.23434182026466
30
0
11
-32.283963820327642
21
-181.23434182026469
31
0
0
LINE
5
107
100
AcDbEntity
8
0
100
AcDbLine
10
-32.283963820327642
20
-181.23434182026469
30
0
11
-31.958814896063462
21
-181.23434182026469
31
0
0
LINE
5
108
100
AcDbEntity
8
0
100
AcDbLine
10
-31.958814896063462
20
-181.23434182026469
30
0
11
-30.333015757936938
21
-181.22555382062046
31
0
0
SPLINE
5
109
100
AcDbEntity
8
0
100
AcDbSpline
70
0
71
3
72
10
73
6
74
0
42
0.000000001
43
0.0000000001
44
0.0000000001
40
-4.1136517204986749
40
-4.1136517204986749
40
-4.1136517204986749
40
-4.1136517204986749
40
-1.993668835057349
40
-1.993668835057349
40
0
40
0
40
0
40
0
10
-30.333015757858281
20
-181.22555382061674
30
0
10
-30.444408768394993
20
-173.85126959792018
30
0
10
-30.489792025186439
20
-166.53880171817488
30
0
10
-30.505158749210096
20
-152.37865732296714
30
0
10
-30.480203420294792
20
-144.85674649269981
30
0
10
-30.43008615334335
20
-138.21137269062373
30
0
0
LINE
5
110
100
AcDbEntity
8
0
100
AcDbLine
10
-30.43008615334335
20
-138.21137269062373
30
0
11
-32.191310304413001
21
-138.22089270871817
31
0
0
LINE
5
111
100
AcDbEntity
8
0
100
AcDbLine
10
-32.191310304413001
20
-138.22089270871817
30
0
11
-32.191310304413001
21
-138.22218321580885
31
0
0
LINE
5
112
100
AcDbEntity
8
0
100
AcDbLine
10
-32.191310304413001
20
-138.22218321580885
30
0
11
-32.430056936266226
21
-138.22218321580885
31
0
0
LINE
5
113
100
AcDbEntity
8
0
100
AcDbLine
10
-32.430056936266226
20
-138.22218321580885
30
0
11
-32.430056936266226
21
-135.22218321580885
31
0
0
LINE
5
114
100
AcDbEntity
8
0
100
AcDbLine
10
-32.430056936266226
20
-135.22218321580885
30
0
11
-30.405182616445785
21
-135.22218321580885
31
0
0
SPLINE
5
115
100
AcDbEntity
8
0
100
AcDbSpline
70
0
71
3
72
10
73
6
74
0
42
0.000000001
43
0.0000000001
44
0.0000000001
40
-4.2809000377291575
40
-4.2809000377291575
40
-4.2809000377291575
40
-4.2809000377291575
40
-2.2272668467084191
40
-2.2272668467084191
40
0
40
0
40
0
40
0
10
-30.405182616432821
20
-135.22218321580897
30
0
10
-30.344197236700477
20
-128.57075361143512
30
0
10
-30.238784937641391
20
-121.38018000545772
30
0
10
-29.771299179240486
20
-107.01336639458033
30
0
10
-29.385220328220797
20
-99.607513678734151
30
0
10
-28.755744344524974
20
-92.21002461135312
30
0
0
LINE
5
116
100
AcDbEntity
8
0
100
AcDbLine
10
-28.755744344524974
20
-92.21002461135312
30
0
11
-30.755744344524963
21
-92.210024611353077
31
0
0
LINE
5
117
100
AcDbEntity
8
0
100
AcDbLine
10
-30.755744344524963
20
-92.210024611353077
30
0
11
-30.755744344524963
21
-89.210024611353077
31
0
0
LINE
5
118
100
AcDbEntity
8
0
100
AcDbLine
10
-30.755744344524963
20
-89.210024611353077
30
0
11
-28.486649919721714
21
-89.210024611353077
31
0
0
SPLINE
5
119
100
AcDbEntity
8
0
100
AcDbSpline
70
0
71
3
72
10
73
6
74
0
42
0.000000001
43
0.0000000001
44
0.0000000001
40
-4.3328955500263771
40
-4.3328955500263771
40
-4.3328955500263771
40
-4.3328955500263771
40
-2.0477107486331256
40
-2.0477107486331256
40
0
40
0
40
0
40
0
10
-28.486649919721721
20
-89.210024611353091
30
0
10
-27.77524813188899
20
-81.674599363207122
30
0
10
-26.759500046461746
20
-73.812731158274843
30
0
10
-23.990060829104877
20
-59.731514527015797
30
0
10
-22.137543094859918
20
-52.478271245715376
30
0
10
-19.464207240064802
20
-46.197866006897272
30
0
0
LINE
5
120
100
AcDbEntity
8
0
100
AcDbLine
10
-19.464207240064802
20
-46.197866006897272
30
0
11
-20.541856944412785
21
-46.19786600689725
31
0
0
LINE
5
121
100
AcDbEntity
8
0
100
AcDbLine
10
-20.541856944412785
20
-46.19786600689725
30
0
11
-20.541856944412785
21
-43.197866006897279
31
0
0
LINE
5
122
100
AcDbEntity
8
0
100
AcDbLine
10
-20.541856944412785
20
-43.197866006897279
30
0
11
-18.085027222019765
21
-43.197866006897279
31
0
0
SPLINE
5
123
100
AcDbEntity
8
0
100
AcDbSpline
70
0
71
3
72
12
73
8
74
0
42
0.000000001
43
0.0000000001
44
0.0000000001
40
-2.3252753387556164
40
-2.3252753387556164
40
-2.3252753387556164
40
-2.3252753387556164
40
-1.51271367479705
40
-1.51271367479705
40
-0.79632972632384169
40
-0.79632972632384169
40
0
40
0
40
0
40
0
10
-18.085027222019768
20
-43.197866006897272
30
0
10
-16.880185384612044
20
-40.774202720895332
30
0
10
-15.460830097014298
20
-38.40476926421961
30
0
10
-12.291644070794936
20
-34.41211197176667
30
0
10
-10.593868594453335
20
-32.724489153273495
30
0
10
-6.4669934260688429
20
-29.82280651543579
30
0
10
-4.0912817247194324
20
-28.762442218670643
30
0
10
-1.5000000000000002
20
-28.186881186969472
30
0
0
LINE
5
124
100
AcDbEntity
8
0
100
AcDbLine
10
-1.4999999999999996
20
-28.186881186969476
30
0
11
1.4999999999999991
21
-28.186881186969472
31
0
0
SPLINE
5
125
100
AcDbEntity
8
0
100
AcDbSpline
70
0
71
3
72
12
73
8
74
0
42
0.000000001
43
0.0000000001
44
0.0000000001
40
-2.3087384064329992
40
-2.3087384064329992
40
-2.3087384064329992
40
-2.3087384064329992
40
-1.7795852764344995
40
-1.7795852764344995
40
-1.2369607805948921
40
-1.2369607805948921
40
0
40
0
40
0
40
0
10
1.5000000000000002
20
-28.186881186969472
30
0
10
3.2265821634445251
20
-28.570379979026352
30
0
10
4.8728839149989875
20
-29.172695059747905
30
0
10
8.0406704075009028
20
-30.846876832859031
30
0
10
9.504734945180477
20
-31.902135635367081
30
0
10
13.901603530854462
20
-35.909738676477268
30
0
10
16.249598370135963
20
-39.505712079083366
30
0
10
18.085027222019768
20
-43.197866006897272
30
0
0
LINE
5
126
100
AcDbEntity
8
0
100
AcDbLine
10
18.085027222019772
20
-43.197866006897279
30
0
11
20.541856944412782
21
-43.197866006897279
31
0
0
LINE
5
127
100
AcDbEntity
8
0
100
AcDbLine
10
20.541856944412782
20
-43.197866006897279
30
0
11
20.541856944412782
21
-46.19786600689725
31
0
0
LINE
5
128
100
AcDbEntity
8
0
100
AcDbLine
10
20.541856944412782
20
-46.19786600689725
30
0
11
19.464207240064802
21
-46.19786600689725
31
0
0
SPLINE
5
129
100
AcDbEntity
8
0
100
AcDbSpline
70
0
71
3
72
10
73
6
74
0
42
0.000000001
43
0.0000000001
44
0.0000000001
40
-4.3053923081816379
40
-4.3053923081816379
40
-4.3053923081816379
40
-4.3053923081816379
40
-2.2706794920621145
40
-2.2706794920621145
40
0
40
0
40
0
40
0
10
19.464207240064802
20
-46.197866006897272
30
0
10
22.137543094859918
20
-52.478271245715376
30
0
10
23.990060829104877
20
-59.731514527015797
30
0
10
26.759500046461746
20
-73.812731158274843
30
0
10
27.77524813188899
20
-81.674599363207122
30
0
10
28.486649919721721
20
-89.210024611353091
30
0
0
LINE
5
130
100
AcDbEntity
8
0
100
AcDbLine
10
28.486649919721721
20
-89.210024611353106
30
0
11
30.755744344524967
21
-89.210024611353077
31
0
0
LINE
5
131
100
AcDbEntity
8
0
100
AcDbLine
10
30.755744344524967
20
-89.210024611353077
30
0
11
30.755744344524967
21
-92.210024611353077
31
0
0
LINE
5
132
100
AcDbEntity
8
0
100
AcDbLine
10
30.755744344524967
20
-92.210024611353077
30
0
11
28.755744344524974
21
-92.210024611353106
31
0
0
SPLINE
5
133
100
AcDbEntity
8
0
100
AcDbSpline
70
0
71
3
72
10
73
6
74
0
42
0.000000001
43
0.0000000001
44
0.0000000001
40
-4.1597451091149011
40
-4.1597451091149011
40
-4.1597451091149011
40
-4.1597451091149011
40
-1.9955127536194464
40
-1.9955127536194464
40
0
40
0
40
0
40
0
10
28.755744344524974
20
-92.210024611353148
30
0
10
29.385220328220463
20
-99.607513678730527
30
0
10
29.771299179240064
20
-107.01336639456659
30
0
10
30.238784937641476
20
-121.38018000546109
30
0
10
30.344197236700516
20
-128.57075361143973
30
0
10
30.405182616432821
20
-135.22218321580897
30
0
0
LINE
5
134
100
AcDbEntity
8
0
100
AcDbLine
10
30.405182616432821
20
-135.22218321580897
30
0
11
32.430056936266226
21
-135.22218321580885
31
0
0
LINE
5
135
100
AcDbEntity
8
0
100
AcDbLine
10
32.430056936266226
20
-135.22218321580885
30
0
11
32.430056936266226
21
-138.22218321580885
31
0
0
LINE
5
136
100
AcDbEntity
8
0
100
AcDbLine
10
32.430056936266226
20
-138.22218321580885
30
0
11
30.43008615334335
21
-138.21137269062373
31
0
0
SPLINE
5
137
100
AcDbEntity
8
0
100
AcDbSpline
70
0
71
3
72
10
73
6
74
0
42
0.000000001
43
0.0000000001
44
0.0000000001
40
-4.2932466002645739
40
-4.2932466002645739
40
-4.2932466002645739
40
-4.2932466002645739
40
-2.2125376512031787
40
-2.2125376512031787
40
0
40
0
40
0
40
0
10
30.43008615334335
20
-138.21137269062373
30
0
10
30.480203420294792
20
-144.85674649269981
30
0
10
30.505158749210096
20
-152.37865732296714
30
0
10
30.489792025186439
20
-166.53880171817488
30
0
10
30.444408768394993
20
-173.85126959792018
30
0
10
30.333015757858281
20
-181.22555382061674
30
0
0
LINE
5
138
100
AcDbEntity
8
0
100
AcDbLine
10
30.333015757858281
20
-181.22555382061677
30
0
11
31.958814896063465
21
-181.23434182026469
31
0
0
LINE
5
139
100
AcDbEntity
8
0
100
AcDbLine
10
31.958814896063465
20
-181.23434182026469
30
0
11
32.283963820327642
21
-181.23434182026469
31
0
0
LINE
5
140
100
AcDbEntity
8
0
100
AcDbLine
10
32.283963820327642
20
-181.23434182026469
30
0
11
32.283963820327642
21
-184.23434182026466
31
0
0
LINE
5
141
100
AcDbEntity
8
0
100
AcDbLine
10
32.283963820327642
20
-184.23434182026466
30
0
11
30.283963820327635
21
-184.23434182026466
31
0
0
SPLINE
5
142
100
AcDbEntity
8
0
100
AcDbSpline
70
0
71
3
72
10
73
6
74
0
42
0.000000001
43
0.0000000001
44
0.0000000001
40
-4.2497983939360928
40
-4.2497983939360928
40
-4.2497983939360928
40
-4.2497983939360928
40
-2.0059344941338133
40
-2.0059344941338133
40
0
40
0
40
0
40
0
10
30.283963820327632
20
-184.23434182026486
30
0
10
30.150094155725164
20
-191.87857131415026
30
0
10
29.948122393304821
20
-199.34944470335887
30
0
10
29.426349858114179
20
-213.68682243548994
30
0
10
29.119283735964974
20
-220.56963283055015
30
0
10
28.761470679966436
20
-227.24650042469938
30
0
0
LINE
5
143
100
AcDbEntity
8
0
100
AcDbLine
10
28.76147067996644
20
-227.24650042469943
30
0
11
30.764096683801281
21
-227.24650042472047
31
0
0
LINE
5
144
100
AcDbEntity
8
0
100
AcDbLine
10
30.764096683801281
20
-227.24650042472047
30
0
11
30.764096683801299
21
-230.24650042472044
31
0
0
LINE
5
145
100
AcDbEntity
8
0
100
AcDbLine
10
30.764096683801299
20
-230.24650042472044
30
0
11
28.596365861650472
21
-230.24650042472044
31
0
0
SPLINE
5
146
100
AcDbEntity
8
0
100
AcDbSpline
70
0
71
3
72
10
73
6
74
0
42
0.000000001
43
0.0000000001
44
0.0000000001
40
-1.7909480447363411
40
-1.7909480447363411
40
-1.7909480447363411
40
-1.7909480447363411
40
-0.79919734751680316
40
-0.79919734751680316
40
0
40
0
40
0
40
0
10
28.596365861650472
20
-230.24650042472044
30
0
10
28.410019771556382
20
-233.54350458485561
30
0
10
28.200506589797214
20
-236.95637259920304
30
0
10
27.788708288859951
20
-242.90469781190751
30
0
10
27.57755314046889
20
-245.70375039528125
30
0
10
27.344183363499226
20
-248.35750008942603
30
0
0
LINE
5
147
100
AcDbEntity
8
0
100
AcDbLine
10
27.344183363499223
20
-248.35750008942603
30
0
11
29.405530713596868
21
-248.35750008942603
31
0
0
LINE
5
148
100
AcDbEntity
8
0
100
AcDbLine
10
29.405530713596868
20
-248.35750008942603
30
0
11
29.405530713596868
21
-251.35750008942603
31
0
0
LINE
5
149
100
AcDbEntity
8
0
100
AcDbLine
10
29.405530713596868
20
-251.35750008942603
30
0
11
26.74755501419213
21
-251.35750008942603
31
0
0
SPLINE
5
150
100
AcDbEntity
8
0
100
AcDbSpline
70
0
71
3
72
14
73
10
74
0
42
0.000000001
43
0.0000000001
44
0.0000000001
40
-8.7115734569946977
40
-8.7115734569946977
40
-8.7115734569946977
40
-8.7115734569946977
40
-6.5407457530361635
40
-6.5407457530361635
40
-5.4165798352484336
40
-5.4165798352484336
40
-4.0876010106510883
40
-4.0876010106510883
40
0
40
0
40
0
40
0
10
26.747555014191295
20
-251.35750008943
30
0
10
26.400501817351326
20
-253.02849984244691
30
0
10
26.093992645277353
20
-254.21812149714106
30
0
10
25.310100865918656
20
-255.59805938624555
30
0
10
24.983863939604998
20
-255.9978034183969
30
0
10
24.06852719386514
20
-256.74455220160036
30
0
10
23.437503445204648
20
-257.07302948112056
30
0
10
20.036626815754531
20
-258.16808864222003
30
0
10
15.125336702170294
20
-258.56223689650881
30
0
10
1.5000000000000002
20
-258.56223689650881
30
0
0
LINE
5
151
100
AcDbEntity
8
0
100
AcDbLine
10
1.4999999999999987
20
-258.56223689650881
30
0
11
-1.4999999999999991
21
-258.56223689650881
31
0
0
SPLINE
5
152
100
AcDbEntity
8
0
100
AcDbSpline
70
0
71
3
72
16
73
12
74
0
42
0.000000001
43
0.0000000001
44
0.0000000001
40
-2.0820486922407548
40
-2.0820486922407548
40
-2.0820486922407548
40
-2.0820486922407548
40
-1.5048263756838949
40
-1.5048263756838949
40
-1.0759131579590409
40
-1.0759131579590409
40
-0.79795451663705619
40
-0.79795451663705619
40
-0.51390989158309741
40
-0.51390989158309741
40
0
40
0
40
0
40
0
10
-1.5000000000000002
20
-258.56223689650881
30
0
10
-10.936412297776108
20
-258.56223689650881
30
0
10
-15.405885369156088
20
-258.37622622675804
30
0
10
-20.203638976676665
20
-257.92888544470566
30
0
10
-21.66729324520546
20
-257.66301314366393
30
0
10
-23.467661180000448
20
-257.04786265896814
30
0
10
-24.023150064443843
20
-256.75935951247044
30
0
10
-24.930513794206707
20
-256.05977451812225
30
0
10
-25.283931168811577
20
-255.64125512116337
30
0
10
-26.091627622269815
20
-254.22739717761405
30
0
10
-26.399205723876417
20
-253.03474030326439
30
0
10
-26.747555014191295
20
-251.35750008943
30
0
0
LINE
5
153
100
AcDbEntity
8
0
100
AcDbLine
10
-26.747555014191295
20
-251.35750008943
30
0
11
-29.405530713596868
21
-251.35750008942603
31
0
0
LINE
5
154
100
AcDbEntity
8
0
100
AcDbLine
10
-29.405530713596868
20
-251.35750008942603
30
0
11
-29.405530713596868
21
-248.35750008942603
31
0
0
LINE
5
155
100
AcDbEntity
8
0
100
AcDbLine
10
-29.405530713596868
20
-248.35750008942603
30
0
11
-27.344183363499226
21
-248.35750008942603
31
0
0
LINE
5
156
100
AcDbEntity
8
0
100
AcDbLine
10
-1.4999999999999991
20
-260.56223689650881
30
0
11
1.4999999999999991
21
-260.56223689650881
31
0
0
LINE
5
157
100
AcDbEntity
8
0
100
AcDbLine
10
1.4999999999999991
20
-260.56223689650881
30
0
11
1.4999999999999991
21
-263.06223689650881
31
0
0
SPLINE
5
158
100
AcDbEntity
8
0
100
AcDbSpline
70
0
71
3
72
32
73
28
74
0
42
0.000000001
43
0.0000000001
44
0.0000000001
40
-19.708342926009667
40
-19.708342926009667
40
-19.708342926009667
40
-19.708342926009667
40
-19.435760215723704
40
-19.435760215723704
40
-19.103848362213274
40
-19.103848362213274
40
-18.899376372381784
40
-18.899376372381784
40
-18.708089903127156
40
-18.708089903127156
40
-18.49663460874034
40
-18.49663460874034
40
-18.036463936395862
40
-18.036463936395862
40
-17.634137669445202
40
-17.634137669445202
40
-11.100558490845035
40
-11.100558490845035
40
-8.0814640471493266
40
-8.0814640471493266
40
-4.6191889357599356
40
-4.6191889357599356
40
-2.7194200616111068
40
-2.7194200616111068
40
-1.3530770836260713
40
-1.3530770836260713
40
0
40
0
40
0
40
0
10
1.5000000000000002
20
-263.06223689650881
30
0
10
7.7634058058307778
20
-263.06223689650898
30
0
10
11.687823291695075
20
-262.95439023046634
30
0
10
17.90793887603142
20
-262.54123946891747
30
0
10
20.778418818625155
20
-262.13454860351175
30
0
10
24.650003743558454
20
-260.9001594264887
30
0
10
26.071219102289547
20
-260.25374057461767
30
0
10
28.488082219766259
20
-258.46225194301161
30
0
10
29.421413924791068
20
-257.41606502251545
30
0
10
30.987262699855492
20
-254.78252620008567
30
0
10
31.596661570488592
20
-253.11869843597233
30
0
10
33.001969177332342
20
-246.63023915726603
30
0
10
33.02136251657209
20
-241.09652475901513
30
0
10
33.29979873917901
20
-228.01412500618912
30
0
10
33.657099307404053
20
-218.52408415487074
30
0
10
34.370674232200749
20
-199.32743861996582
30
0
10
35.210310318500817
20
-179.43588837524766
30
0
10
35.01001409537902
20
-140.08697813720539
30
0
10
34.723536108129963
20
-119.44473709072136
30
0
10
33.478220502372352
20
-88.866976131108885
30
0
10
32.190081278329806
20
-72.959237034009107
30
0
10
27.207497819037702
20
-52.275758202696892
30
0
10
24.879493825996409
20
-45.771436049531246
30
0
10
19.441523976662658
20
-36.329250730318996
30
0
10
16.647944785755172
20
-32.759714665927319
30
0
10
9.7049467559241833
20
-26.916343838961375
30
0
10
5.8039667662543373
20
-24.829391692924951
30
0
10
1.5000000000000002
20
-23.480952673655011
30
0
0
LINE
5
159
100
AcDbEntity
8
0
100
AcDbLine
10
1.4999999999999989
20
-23.480952673655011
30
0
11
1.4999999999999991
21
-25.980952673655011
31
0
0
LINE
5
160
100
AcDbEntity
8
0
100
AcDbLine
10
1.4999999999999991
20
-25.980952673655011
30
0
11
-1.4999999999999991
21
-25.980952673655011
31
0
0
LINE
5
161
100
AcDbEntity
8
0
100
AcDbLine
10
-1.4999999999999991
20
-25.980952673655011
30
0
11
-1.4999999999999991
21
-23.480952673655011
31
0
0
SPLINE
5
162
100
AcDbEntity
8
0
100
AcDbSpline
70
0
71
3
72
30
73
26
74
0
42
0.000000001
43
0.0000000001
44
0.0000000001
40
-32.415367083686462
40
-32.415367083686462
40
-32.415367083686462
40
-32.415367083686462
40
-30.44902122811887
40
-30.44902122811887
40
-28.443739923082745
40
-28.443739923082745
40
-24.517938877944932
40
-24.517938877944932
40
-18.800325402888248
40
-18.800325402888248
40
-16.361752170259908
40
-16.361752170259908
40
-12.367311310174394
40
-12.367311310174394
40
-9.7328928160676398
40
-9.7328928160676398
40
-7.6645883370854042
40
-7.6645883370854042
40
-6.3229738572345866
40
-6.3229738572345866
40
-4.9683254289510055
40
-4.9683254289510055
40
-3.3053250635039166
40
-3.3053250635039166
40
0
40
0
40
0
40
0
10
-1.5000000000000002
20
-23.480952673655011
30
0
10
-5.4102144044621747
20
-24.706028507889876
30
0
10
-9.0019908193744502
20
-26.545116102889089
30
0
10
-15.526956477950943
20
-31.64797718359786
30
0
10
-18.242972000360339
20
-34.779725080248447
30
0
10
-24.941964279101509
20
-45.177224019496279
30
0
10
-28.115096862612194
20
-54.256041202882628
30
0
10
-33.487383790125037
20
-82.66390979233357
30
0
10
-34.325505436377426
20
-103.41546691584878
30
0
10
-34.979399547996863
20
-139.75967223926256
30
0
10
-35.179037692412521
20
-155.58146077483946
30
0
10
-34.789789291665357
20
-192.90621471543275
30
0
10
-33.825305713966912
20
-212.30406126400754
30
0
10
-33.044695697906661
20
-236.99841254867349
30
0
10
-33.108454052036663
20
-240.07120562873152
30
0
10
-32.738337596242573
20
-246.82827689460237
30
0
10
-32.431126931502519
20
-249.74107126165001
30
0
10
-31.315628777472785
20
-253.88079209287955
30
0
10
-30.738450844831988
20
-255.28115789644113
30
0
10
-29.181785863808901
20
-257.71351126888629
30
0
10
-28.211119498040272
20
-258.71911766266146
30
0
10
-25.555813378888089
20
-260.55557823261188
30
0
10
-23.825812609861202
20
-261.24911287672552
30
0
10
-17.987632613211147
20
-262.71572707547995
30
0
10
-12.517750211679722
20
-263.06223689650915
30
0
10
-1.5000000000000002
20
-263.06223689650881
30
0
0
LINE
5
163
100
AcDbEntity
8
0
100
AcDbLine
10
-1.4999999999999964
20
-263.06223689650881
30
0
11
-1.4999999999999991
21
-260.56223689650881
31
0
0
ENDSEC
0
SECTION
2
OBJECTS
0
DICTIONARY
5
C
100
AcDbDictionary
3
ACAD_GROUP
350
D
3
ACAD_MLINESTYLE
350
17
0
DICTIONARY
5
D
100
AcDbDictionary
0
DICTIONARY
5
1A
330
C
100
AcDbDictionary
0
DICTIONARY
5
17
100
AcDbDictionary
0
ENDSEC
0
EOF
