0
SECTION
2
HEADER
9
$INSUNITS
70
4
9
$ACADVER
1
AC1014
9
$HANDSEED
5
FFFF
0
ENDSEC
0
SECTION
2
TABLES
0
TABLE
2
VPORT
5
8
100
AcDbSymbolTable
0
ENDTAB
0
TABLE
2
LTYPE
5
5
100
AcDbSymbolTable
0
LTYPE
5
14
100
AcDbSymbolTableRecord
100
AcDbLinetypeTableRecord
2
BYBLOCK
70
0
0
LTYPE
5
15
100
AcDbSymbolTableRecord
100
AcDbLinetypeTableRecord
2
BYLAYER
70
0
0
ENDTAB
0
TABLE
2
LAYER
5
2
100
AcDbSymbolTable
70
2
0
LAYER
5
50
100
AcDbSymbolTableRecord
100
AcDbLayerTableRecord
2
0
70
0
6
CONTINUOUS
0
ENDTAB
0
TABLE
2
STYLE
5
3
100
AcDbSymbolTable
70
1
0
STYLE
5
11
100
AcDbSymbolTableRecord
100
AcDbTextStyleTableRecord
2
STANDARD
70
0
0
ENDTAB
0
TABLE
2
VIEW
5
6
100
AcDbSymbolTable
70
0
0
ENDTAB
0
TABLE
2
UCS
5
7
100
AcDbSymbolTable
70
0
0
ENDTAB
0
TABLE
2
APPID
5
9
100
AcDbSymbolTable
70
2
0
APPID
5
12
100
AcDbSymbolTableRecord
100
AcDbRegAppTableRecord
2
ACAD
70
0
0
ENDTAB
0
TABLE
2
DIMSTYLE
5
A
100
AcDbSymbolTable
70
1
0
ENDTAB
0
TABLE
2
BLOCK_RECORD
5
1
100
AcDbSymbolTable
70
1
0
BLOCK_RECORD
5
1F
100
AcDbSymbolTableRecord
100
AcDbBlockTableRecord
2
*MODEL_SPACE
0
BLOCK_RECORD
5
1B
100
AcDbSymbolTableRecord
100
AcDbBlockTableRecord
2
*PAPER_SPACE
0
ENDTAB
0
ENDSEC
0
SECTION
2
BLOCKS
0
BLOCK
5
20
100
AcDbEntity
100
AcDbBlockBegin
2
*MODEL_SPACE
0
ENDBLK
5
21
100
AcDbEntity
100
AcDbBlockEnd
0
BLOCK
5
1C
100
AcDbEntity
100
AcDbBlockBegin
2
*PAPER_SPACE
0
ENDBLK
5
1D
100
AcDbEntity
100
AcDbBlockEnd
0
ENDSEC
0
SECTION
2
ENTITIES
0
LINE
5
100
100
AcDbEntity
8
0
100
AcDbLine
10
20.022978329606428
20
-181.23434182026469
30
0
11
20.022978329606428
21
-184.23434182026466
31
0
0
LINE
5
101
100
AcDbEntity
8
0
100
AcDbLine
10
20.022978329606428
20
-184.23434182026466
30
0
11
15.610872244274809
21
-184.23434182026466
31
0
0
SPLINE
5
102
100
AcDbEntity
8
0
100
AcDbSpline
70
0
71
3
72
14
73
10
74
0
42
0.000000001
43
0.0000000001
44
0.0000000001
40
-2.9939699092266689
40
-2.9939699092266689
40
-2.9939699092266689
40
-2.9939699092266689
40
-1.1915010309679523
40
-1.1915010309679523
40
-0.63028075825103902
40
-0.63028075825103902
40
-0.29725735610962883
40
-0.29725735610962883
40
0
40
0
40
0
40
0
10
15.610872244274688
20
-184.23434182026554
30
0
10
14.167978106015939
20
-194.40111487978939
30
0
10
12.328103694571606
20
-202.44363330250911
30
0
10
9.0283706807332624
20
-209.55442070675815
30
0
10
8.0395500553579744
20
-211.28923166005058
30
0
10
6.071838981459722
20
-213.5230941638481
30
0
10
5.2313801317751496
20
-214.2625875994367
30
0
10
3.4025330802351066
20
-215.29534295248143
30
0
10
2.4835026389848753
20
-215.60354601459593
30
0
10
1.5000000000000002
20
-215.72405263410832
30
0
0
LINE
5
103
100
AcDbEntity
8
0
100
AcDbLine
10
1.5000000000000009
20
-215.72405263410832
30
0
11
-1.4999999999999991
21
-215.72405263410832
31
0
0
SPLINE
5
104
100
AcDbEntity
8
0
100
AcDbSpline
70
0
71
3
72
14
73
10
74
0
42
0.000000001
43
0.0000000001
44
0.0000000001
40
-5.7565394883609011
40
-5.7565394883609011
40
-5.7565394883609011
40
-5.7565394883609011
40
-5.0356655852277346
40
-5.0356655852277346
40
-4.2648099585836476
40
-4.2648099585836476
40
-2.6916591497497744
40
-2.6916591497497744
40
0
40
0
40
0
40
0
10
-1.5000000000000002
20
-215.72405263410832
30
0
10
-2.5007677640107739
20
-215.60143055321345
30
0
10
-3.4341483975902638
20
-215.28453628101562
30
0
10
-5.2438772084953253
20
-214.24762263212813
30
0
10
-6.060396188955135
20
-213.53032844593454
30
0
10
-8.2332079580428381
20
-211.08077064337652
30
0
10
-9.5526502145643803
20
-208.74846547888365
30
0
10
-12.788012525337587
20
-200.35979845850437
30
0
10
-14.350148787114181
20
-193.11752246388298
30
0
10
-15.610872244274688
20
-184.23434182026554
30
0
0
LINE
5
105
100
AcDbEntity
8
0
100
AcDbLine
10
-15.61087224427469
20
-184.23434182026551
30
0
11
-20.022978329606428
21
-184.23434182026466
31
0
0
LINE
5
106
100
AcDbEntity
8
0
100
AcDbLine
10
-20.022978329606428
20
-184.23434182026466
30
0
11
-20.022978329606428
21
-181.23434182026469
31
0
0
LINE
5
107
100
AcDbEntity
8
0
100
AcDbLine
10
-20.022978329606428
20
-181.23434182026469
30
0
11
-16.017413480270616
21
-181.23434182026469
31
0
0
SPLINE
5
108
100
AcDbEntity
8
0
100
AcDbSpline
70
0
71
3
72
10
73
6
74
0
42
0.000000001
43
0.0000000001
44
0.0000000001
40
-4.2297849026404499
40
-4.2297849026404499
40
-4.2297849026404499
40
-4.2297849026404499
40
-1.8785493004684217
40
-1.8785493004684217
40
0
40
0
40
0
40
0
10
-16.017413480270616
20
-181.23434182026469
30
0
10
-17.010287995670947
20
-173.56422471005436
30
0
10
-17.771190874915195
20
-165.01499437959575
30
0
10
-18.75050707793854
20
-151.42070569604161
30
0
10
-19.157855543557943
20
-144.48104329943038
30
0
10
-19.350723233346287
20
-138.22218321580885
30
0
0
LINE
5
109
100
AcDbEntity
8
0
100
AcDbLine
10
-19.350723233346287
20
-138.22218321580885
30
0
11
-22.681729265875109
21
-138.22218321580888
31
0
0
LINE
5
110
100
AcDbEntity
8
0
100
AcDbLine
10
-22.681729265875109
20
-138.22218321580888
30
0
11
-22.681729265875109
21
-135.22218321580885
31
0
0
LINE
5
111
100
AcDbEntity
8
0
100
AcDbLine
10
-22.681729265875109
20
-135.22218321580885
30
0
11
-19.428201619446948
21
-135.22218321580888
31
0
0
SPLINE
5
112
100
AcDbEntity
8
0
100
AcDbSpline
70
0
71
3
72
10
73
6
74
0
42
0.000000001
43
0.0000000001
44
0.0000000001
40
-4.2496659194087769
40
-4.2496659194087769
40
-4.2496659194087769
40
-4.2496659194087769
40
-2.3406580886051884
40
-2.3406580886051884
40
0
40
0
40
0
40
0
10
-19.428201619446948
20
-135.22218321580888
30
0
10
-19.563965021102081
20
-128.63394558931194
30
0
10
-19.451885987105051
20
-122.60082073603743
30
0
10
-18.562715069780186
20
-108.21919534165383
30
0
10
-17.638388055684338
20
-99.918407899419819
30
0
10
-16.432132484202427
20
-92.210024611353148
30
0
0
LINE
5
113
100
AcDbEntity
8
0
100
AcDbLine
10
-16.432132484202427
20
-92.210024611353148
30
0
11
-19.318877936087514
21
-92.210024611353077
31
0
0
LINE
5
114
100
AcDbEntity
8
0
100
AcDbLine
10
-19.318877936087514
20
-92.210024611353077
30
0
11
-19.318877936087514
21
-89.210024611353077
31
0
0
LINE
5
115
100
AcDbEntity
8
0
100
AcDbLine
10
-19.318877936087514
20
-89.210024611353077
30
0
11
-15.943307380273172
21
-89.210024611353077
31
0
0
SPLINE
5
116
100
AcDbEntity
8
0
100
AcDbSpline
70
0
71
3
72
16
73
12
74
0
42
0.000000001
43
0.0000000001
44
0.0000000001
40
-3.3188617742787723
40
-3.3188617742787723
40
-3.3188617742787723
40
-3.3188617742787723
40
-1.738636281029335
40
-1.738636281029335
40
-0.8152743185196617
40
-0.8152743185196617
40
-0.42125617280146554
40
-0.42125617280146554
40
-0.19408633147508261
40
-0.19408633147508261
40
0
40
0
40
0
40
0
10
-15.943307380273172
20
-89.210024611353077
30
0
10
-14.912788767771659
20
-83.132535184090443
30
0
10
-13.492741919415849
20
-76.239822851489947
30
0
10
-10.59035198569717
20
-66.917528583444522
30
0
10
-9.2820759118446148
20
-63.502949519925302
30
0
10
-7.0285529779997606
20
-59.75627452845491
30
0
10
-6.2051386578447731
20
-58.613819671476037
30
0
10
-4.6790794858934106
20
-57.217811772105662
30
0
10
-4.0537207209959973
20
-56.774646906595422
30
0
10
-2.7652330497995594
20
-56.217384541598882
30
0
10
-2.1467960653774618
20
-56.075836226522725
30
0
10
-1.5000000000000002
20
-56.061522073248312
30
0
0
LINE
5
117
100
AcDbEntity
8
0
100
AcDbLine
10
-1.5000000000000002
20
-56.061522073248312
30
0
11
1.4999999999999991
21
-56.061522073248312
31
0
0
SPLINE
5
118
100
AcDbEntity
8
0
100
AcDbSpline
70
0
71
3
72
16
73
12
74
0
42
0.000000001
43
0.0000000001
44
0.0000000001
40
-4.4016887574103256
40
-4.4016887574103256
40
-4.4016887574103256
40
-4.4016887574103256
40
-4.155312279700472
40
-4.155312279700472
40
-3.9005585432645944
40
-3.9005585432645944
40
-3.3180342492363968
40
-3.3180342492363968
40
-2.1629466732294258
40
-2.1629466732294258
40
0
40
0
40
0
40
0
10
1.5000000000000002
20
-56.061522073248312
30
0
10
1.9333008729292316
20
-56.071111394273984
30
0
10
2.3572736166019275
20
-56.137862940528507
30
0
10
3.2024813649651191
20
-56.388182864789265
30
0
10
3.6098326879045501
20
-56.571719184528746
30
0
10
4.8791074714057618
20
-57.318307963947419
30
0
10
5.6449694985650698
20
-58.062712117034309
30
0
10
7.5796963716423971
20
-60.419712024125126
30
0
10
8.9151774695699118
20
-62.771659703433791
30
0
10
12.872914357894823
20
-73.129789223134878
30
0
10
14.737991422525242
20
-82.101666838035129
30
0
10
15.943307380273172
20
-89.210024611353077
30
0
0
LINE
5
119
100
AcDbEntity
8
0
100
AcDbLine
10
15.943307380273176
20
-89.210024611353077
30
0
11
19.318877936087514
21
-89.210024611353077
31
0
0
LINE
5
120
100
AcDbEntity
8
0
100
AcDbLine
10
19.318877936087514
20
-89.210024611353077
30
0
11
19.318877936087514
21
-92.210024611353077
31
0
0
LINE
5
121
100
AcDbEntity
8
0
100
AcDbLine
10
19.318877936087514
20
-92.210024611353077
30
0
11
16.43213248420242
21
-92.210024611353077
31
0
0
SPLINE
5
122
100
AcDbEntity
8
0
100
AcDbSpline
70
0
71
3
72
10
73
6
74
0
42
0.000000001
43
0.0000000001
44
0.0000000001
40
-4.4007812442454526
40
-4.4007812442454526
40
-4.4007812442454526
40
-4.4007812442454526
40
-1.9768908935992928
40
-1.9768908935992928
40
0
40
0
40
0
40
0
10
16.43213248420242
20
-92.210024611353077
30
0
10
17.638388055684519
20
-99.918407899420941
30
0
10
18.562715069780239
20
-108.21919534165487
30
0
10
19.451885987105037
20
-122.60082073603709
30
0
10
19.563965021102071
20
-128.6339455893135
30
0
10
19.428201619446948
20
-135.22218321580885
30
0
0
LINE
5
123
100
AcDbEntity
8
0
100
AcDbLine
10
19.428201619446948
20
-135.22218321580885
30
0
11
22.681729265875113
21
-135.22218321580885
31
0
0
LINE
5
124
100
AcDbEntity
8
0
100
AcDbLine
10
22.681729265875113
20
-135.22218321580885
30
0
11
22.681729265875113
21
-138.22218321580888
31
0
0
LINE
5
125
100
AcDbEntity
8
0
100
AcDbLine
10
22.681729265875113
20
-138.22218321580888
30
0
11
19.350723233346287
21
-138.22218321580885
31
0
0
SPLINE
5
126
100
AcDbEntity
8
0
100
AcDbSpline
70
0
71
3
72
10
73
6
74
0
42
0.000000001
43
0.0000000001
44
0.0000000001
40
-4.1740137345387538
40
-4.1740137345387538
40
-4.1740137345387538
40
-4.1740137345387538
40
-2.3202337524246408
40
-2.3202337524246408
40
0
40
0
40
0
40
0
10
19.350723233346287
20
-138.22218321580885
30
0
10
19.157855543557943
20
-144.48104329943038
30
0
10
18.75050707793854
20
-151.42070569604161
30
0
10
17.771190874915195
20
-165.01499437959575
30
0
10
17.010287995670947
20
-173.56422471005436
30
0
10
16.017413480270616
20
-181.23434182026469
30
0
0
LINE
5
127
100
AcDbEntity
8
0
100
AcDbLine
10
16.017413480270616
20
-181.23434182026469
30
0
11
20.022978329606428
21
-181.23434182026469
31
0
0
LINE
5
128
100
AcDbEntity
8
0
100
AcDbLine
10
1.4999999999999991
20
-227.29650042472059
30
0
11
1.4500000000000002
21
-227.29650042472059
31
0
0
LINE
5
129
100
AcDbEntity
8
0
100
AcDbLine
10
1.4500000000000002
20
-227.29650042472059
30
0
11
1.4500000000000002
21
-228.74650042472044
31
0
0
SPLINE
5
130
100
AcDbEntity
8
0
100
AcDbSpline
70
0
71
3
72
24
73
20
74
0
42
0.000000001
43
0.0000000001
44
0.0000000001
40
-6.8334679452509572
40
-6.8334679452509572
40
-6.8334679452509572
40
-6.8334679452509572
40
-6.4929032942573581
40
-6.4929032942573581
40
-6.1618111613564128
40
-6.1618111613564128
40
-5.6712407968381964
40
-5.6712407968381964
40
-4.7481345192240108
40
-4.7481345192240108
40
-3.6016909279388543
40
-3.6016909279388543
40
-2.8084711362813866
40
-2.8084711362813866
40
-1.1268891162969583
40
-1.1268891162969583
40
-0.35925951168763715
40
-0.35925951168763715
40
0
40
0
40
0
40
0
10
1.4500000000000002
20
-228.74650042472044
30
0
10
3.1631609958433184
20
-228.32677464449787
30
0
10
4.9027827249351912
20
-227.77199191535314
30
0
10
8.1103491313388876
20
-226.36250420033079
30
0
10
9.5941890472177622
20
-225.51407181448994
30
0
10
12.985535624742417
20
-222.86883000836303
30
0
10
14.731030904138152
20
-220.83231573861224
30
0
10
19.149845036719046
20
-212.99105718454339
30
0
10
21.84488648957625
20
-204.45276712417183
30
0
10
26.084767158839579
20
-168.1373743695448
30
0
10
26.289429797946546
20
-142.86315948133768
30
0
10
26.108013106190743
20
-134.19314637076249
30
0
10
25.420203375672536
20
-120.52720953264307
30
0
10
21.499913102143804
20
-82.452530831322122
30
0
10
17.354038928625691
20
-69.972650072584784
30
0
10
10.222702662721499
20
-56.170859409984537
30
0
10
7.1060618426734727
20
-51.065430295402976
30
0
10
3.4379047945908918
20
-46.444250613285014
30
0
10
2.411940717623271
20
-45.411134709250483
30
0
10
1.4500000000000002
20
-44.697866006897264
30
0
0
LINE
5
131
100
AcDbEntity
8
0
100
AcDbLine
10
1.45
20
-44.697866006897264
30
0
11
1.4500000000000002
21
-46.14786600689726
31
0
0
LINE
5
132
100
AcDbEntity
8
0
100
AcDbLine
10
1.4500000000000002
20
-46.14786600689726
30
0
11
1.4999999999999991
21
-46.14786600689726
31
0
0
LINE
5
133
100
AcDbEntity
8
0
100
AcDbLine
10
1.4999999999999991
20
-46.14786600689726
30
0
11
1.4999999999999991
21
-52.561522073248312
31
0
0
LINE
5
134
100
AcDbEntity
8
0
100
AcDbLine
10
1.4999999999999991
20
-52.561522073248312
30
0
11
-1.4999999999999991
21
-52.561522073248312
31
0
0
LINE
5
135
100
AcDbEntity
8
0
100
AcDbLine
10
-1.4999999999999991
20
-52.561522073248312
30
0
11
-1.4999999999999991
21
-46.14786600689726
31
0
0
LINE
5
136
100
AcDbEntity
8
0
100
AcDbLine
10
-1.4999999999999991
20
-46.14786600689726
30
0
11
-1.4500000000000002
21
-46.14786600689726
31
0
0
LINE
5
137
100
AcDbEntity
8
0
100
AcDbLine
10
-1.4500000000000002
20
-46.14786600689726
30
0
11
-1.4500000000000002
21
-44.697866006897264
31
0
0
SPLINE
5
138
100
AcDbEntity
8
0
100
AcDbSpline
70
0
71
3
72
26
73
22
74
0
42
0.000000001
43
0.0000000001
44
0.0000000001
40
-122.26760576368113
40
-122.26760576368113
40
-122.26760576368113
40
-122.26760576368113
40
-110.69208245912851
40
-110.69208245912851
40
-100.00867218870405
40
-100.00867218870405
40
-67.55828955264046
40
-67.55828955264046
40
-21.196094923777032
40
-21.196094923777032
40
-15.969043676041537
40
-15.969043676041537
40
-9.4922552286668118
40
-9.4922552286668118
40
-5.5069461989345951
40
-5.5069461989345951
40
-3.3937461878165931
40
-3.3937461878165931
40
-1.3547291885541757
40
-1.3547291885541757
40
0
40
0
40
0
40
0
10
-1.4500000000000002
20
-44.697866006897264
30
0
10
-2.6393094184378709
20
-45.579726156950571
30
0
10
-3.9074206896739434
20
-46.935099396581919
30
0
10
-6.7748838705597496
20
-50.813496360947624
30
0
10
-8.2346818620625264
20
-53.106436057562661
30
0
10
-12.89171231179353
20
-60.842833829190667
30
0
10
-15.172629651008616
20
-65.834270673610405
30
0
10
-19.59783324933834
20
-78.659700191872687
30
0
10
-23.592389950382756
20
-93.22696611964615
30
0
10
-25.855932604109842
20
-130.19038482221356
30
0
10
-26.190483706642503
20
-135.81392326320923
30
0
10
-26.213666199304164
20
-144.21555373178185
30
0
10
-26.092401042153721
20
-162.27591991375874
30
0
10
-23.654787437689102
20
-190.62431415155359
30
0
10
-22.198688261202669
20
-201.4387611188005
30
0
10
-18.399751742207915
20
-214.02741389853838
30
0
10
-16.923563019019976
20
-217.23979911391757
30
0
10
-13.727166300760508
20
-222.06644938858921
30
0
10
-11.93834492633707
20
-223.85548143630564
30
0
10
-8.4440991093965074
20
-226.19059579955592
30
0
10
-5.8360495388351836
20
-227.6719337204149
30
0
10
-1.4500000000000002
20
-228.74650042472044
30
0
0
LINE
5
139
100
AcDbEntity
8
0
100
AcDbLine
10
-1.4500000000000004
20
-228.74650042472041
30
0
11
-1.4499999999999957
21
-227.29650042472059
31
0
0
LINE
5
140
100
AcDbEntity
8
0
100
AcDbLine
10
-1.4499999999999957
20
-227.29650042472059
30
0
11
-1.4999999999999991
21
-227.29650042472059
31
0
0
LINE
5
141
100
AcDbEntity
8
0
100
AcDbLine
10
-1.4999999999999991
20
-227.29650042472059
30
0
11
-1.4999999999999991
21
-217.96594113392166
31
0
0
LINE
5
142
100
AcDbEntity
8
0
100
AcDbLine
10
-1.4999999999999991
20
-217.96594113392166
30
0
11
1.4999999999999991
21
-217.96594113392166
31
0
0
LINE
5
143
100
AcDbEntity
8
0
100
AcDbLine
10
1.4999999999999991
20
-217.96594113392166
30
0
11
1.4999999999999991
21
-227.29650042472059
31
0
0
ENDSEC
0
SECTION
2
OBJECTS
0
DICTIONARY
5
C
100
AcDbDictionary
3
ACAD_GROUP
350
D
3
ACAD_MLINESTYLE
350
17
0
DICTIONARY
5
D
100
AcDbDictionary
0
DICTIONARY
5
1A
330
C
100
AcDbDictionary
0
DICTIONARY
5
17
100
AcDbDictionary
0
ENDSEC
0
EOF
