0
SECTION
2
HEADER
9
$INSUNITS
70
4
9
$ACADVER
1
AC1014
9
$HANDSEED
5
FFFF
0
ENDSEC
0
SECTION
2
TABLES
0
TABLE
2
VPORT
5
8
100
AcDbSymbolTable
0
ENDTAB
0
TABLE
2
LTYPE
5
5
100
AcDbSymbolTable
0
LTYPE
5
14
100
AcDbSymbolTableRecord
100
AcDbLinetypeTableRecord
2
BYBLOCK
70
0
0
LTYPE
5
15
100
AcDbSymbolTableRecord
100
AcDbLinetypeTableRecord
2
BYLAYER
70
0
0
ENDTAB
0
TABLE
2
LAYER
5
2
100
AcDbSymbolTable
70
2
0
LAYER
5
50
100
AcDbSymbolTableRecord
100
AcDbLayerTableRecord
2
0
70
0
6
CONTINUOUS
0
ENDTAB
0
TABLE
2
STYLE
5
3
100
AcDbSymbolTable
70
1
0
STYLE
5
11
100
AcDbSymbolTableRecord
100
AcDbTextStyleTableRecord
2
STANDARD
70
0
0
ENDTAB
0
TABLE
2
VIEW
5
6
100
AcDbSymbolTable
70
0
0
ENDTAB
0
TABLE
2
UCS
5
7
100
AcDbSymbolTable
70
0
0
ENDTAB
0
TABLE
2
APPID
5
9
100
AcDbSymbolTable
70
2
0
APPID
5
12
100
AcDbSymbolTableRecord
100
AcDbRegAppTableRecord
2
ACAD
70
0
0
ENDTAB
0
TABLE
2
DIMSTYLE
5
A
100
AcDbSymbolTable
70
1
0
ENDTAB
0
TABLE
2
BLOCK_RECORD
5
1
100
AcDbSymbolTable
70
1
0
BLOCK_RECORD
5
1F
100
AcDbSymbolTableRecord
100
AcDbBlockTableRecord
2
*MODEL_SPACE
0
BLOCK_RECORD
5
1B
100
AcDbSymbolTableRecord
100
AcDbBlockTableRecord
2
*PAPER_SPACE
0
ENDTAB
0
ENDSEC
0
SECTION
2
BLOCKS
0
BLOCK
5
20
100
AcDbEntity
100
AcDbBlockBegin
2
*MODEL_SPACE
0
ENDBLK
5
21
100
AcDbEntity
100
AcDbBlockEnd
0
BLOCK
5
1C
100
AcDbEntity
100
AcDbBlockBegin
2
*PAPER_SPACE
0
ENDBLK
5
1D
100
AcDbEntity
100
AcDbBlockEnd
0
ENDSEC
0
SECTION
2
ENTITIES
0
SPLINE
5
100
100
AcDbEntity
8
0
100
AcDbSpline
70
0
71
3
72
10
73
6
74
0
42
0.000000001
43
0.0000000001
44
0.0000000001
40
-4.3190429307965079
40
-4.3190429307965079
40
-4.3190429307965079
40
-4.3190429307965079
40
-2.1436889435574633
40
-2.1436889435574633
40
0
40
0
40
0
40
0
10
23.094321277521928
20
-92.203680331898141
30
0
10
23.721556679763353
20
-99.370616417209845
30
0
10
24.256802559631453
20
-106.67136286750562
30
0
10
25.064117827005276
20
-120.96615662186325
30
0
10
25.346742497375079
20
-128.07778757274932
30
0
10
25.479544243794319
20
-135.22218321578762
30
0
0
LINE
5
101
100
AcDbEntity
8
0
100
AcDbLine
10
25.479544243794319
20
-135.22218321578762
30
0
11
28.387320128962052
21
-135.22218321580885
31
0
0
LINE
5
102
100
AcDbEntity
8
0
100
AcDbLine
10
28.387320128962052
20
-135.22218321580885
30
0
11
28.387320128962052
21
-138.22218321580885
31
0
0
LINE
5
103
100
AcDbEntity
8
0
100
AcDbLine
10
28.387320128962052
20
-138.22218321580885
30
0
11
25.526489662086782
21
-138.22218321580888
31
0
0
SPLINE
5
104
100
AcDbEntity
8
0
100
AcDbSpline
70
0
71
3
72
10
73
6
74
0
42
0.000000001
43
0.0000000001
44
0.0000000001
40
-2.4241323972321025
40
-2.4241323972321025
40
-2.4241323972321025
40
-2.4241323972321025
40
-1.2058165132711409
40
-1.2058165132711409
40
0
40
0
40
0
40
0
10
25.526489662086785
20
-138.22218321580888
30
0
10
25.578152556731453
20
-142.29111921236569
30
0
10
25.580405875485745
20
-146.33563335489114
30
0
10
25.489479757568844
20
-154.4230492429634
30
0
10
25.3974727954919
20
-158.44321987557544
30
0
10
25.26249686784487
20
-162.46034128632522
30
0
0
SPLINE
5
105
100
AcDbEntity
8
0
100
AcDbSpline
70
0
71
3
72
12
73
8
74
0
42
0.000000001
43
0.0000000001
44
0.0000000001
40
-2.9511225393579341
40
-2.9511225393579341
40
-2.9511225393579341
40
-2.9511225393579341
40
-1.8971465317568454
40
-1.8971465317568454
40
-0.84850306847660051
40
-0.84850306847660051
40
0
40
0
40
0
40
0
10
25.262496867844682
20
-162.46034128632522
30
0
10
24.523376123916908
20
-172.48723267409957
30
0
10
24.255407792439946
20
-177.69796807648891
30
0
10
23.753886511568822
20
-198.72451505985791
30
0
10
23.663426293948394
20
-208.48028569304833
30
0
10
23.290306689894376
20
-220.73434408757291
30
0
10
23.027280343093793
20
-224.4701378389712
30
0
10
22.48752290235339
20
-227.24650042471993
30
0
0
LINE
5
106
100
AcDbEntity
8
0
100
AcDbLine
10
22.48752290235339
20
-227.24650042471993
30
0
11
24.35096358074189
21
-227.24650042472041
31
0
0
LINE
5
107
100
AcDbEntity
8
0
100
AcDbLine
10
24.35096358074189
20
-227.24650042472041
30
0
11
24.350963580741901
21
-230.24650042472041
31
0
0
LINE
5
108
100
AcDbEntity
8
0
100
AcDbLine
10
24.350963580741901
20
-230.24650042472041
30
0
11
21.660350769871005
21
-230.24650042472041
31
0
0
SPLINE
5
109
100
AcDbEntity
8
0
100
AcDbSpline
70
0
71
3
72
14
73
10
74
0
42
0.000000001
43
0.0000000001
44
0.0000000001
40
-3.5323343421180025
40
-3.5323343421180025
40
-3.5323343421180025
40
-3.5323343421180025
40
-2.9465295637144786
40
-2.9465295637144786
40
-2.3919927487814303
40
-2.3919927487814303
40
-1.5939895849658066
40
-1.5939895849658066
40
0
40
0
40
0
40
0
10
21.660350769870398
20
-230.24650042472203
30
0
10
21.313130117249987
20
-231.147670605553
30
0
10
20.86137183518591
20
-232.00872987435315
30
0
10
19.666639363419687
20
-233.47076127011081
30
0
10
18.981624428275023
20
-234.03405271277663
30
0
10
17.023536122050093
20
-235.11728699602341
30
0
10
15.635200573681631
20
-235.50384941944199
30
0
10
10.739048352192411
20
-236.16708098787188
30
0
10
6.8132954718274039
20
-235.90634367978353
30
0
10
1.5000000000000002
20
-235.91212448587862
30
0
0
LINE
5
110
100
AcDbEntity
8
0
100
AcDbLine
10
1.5000000000000013
20
-235.91212448587862
30
0
11
-1.4999999999999991
21
-235.91212448587862
31
0
0
SPLINE
5
111
100
AcDbEntity
8
0
100
AcDbSpline
70
0
71
3
72
14
73
10
74
0
42
0.000000001
43
0.0000000001
44
0.0000000001
40
-2.0615260037482983
40
-2.0615260037482983
40
-2.0615260037482983
40
-2.0615260037482983
40
-1.0573062797090851
40
-1.0573062797090851
40
-0.67964870866022031
40
-0.67964870866022031
40
-0.360572562479819
40
-0.360572562479819
40
0
40
0
40
0
40
0
10
-1.5000000000000002
20
-235.91212448587862
30
0
10
-7.0100854205443843
20
-235.90612957451853
30
0
10
-11.080709582113585
20
-236.18669573762907
30
0
10
-15.653285207790638
20
-235.47089606089995
30
0
10
-16.780188505041988
20
-235.16562105834566
30
0
10
-18.605741652147771
20
-234.28701841046882
30
0
10
-19.339420932939731
20
-233.76400816769922
30
0
10
-20.681303582539734
20
-232.30795418203118
30
0
10
-21.228222184816715
20
-231.36803911257417
30
0
10
-21.660350769870398
20
-230.24650042472203
30
0
0
LINE
5
112
100
AcDbEntity
8
0
100
AcDbLine
10
-21.660350769870401
20
-230.246500424722
30
0
11
-24.350963580741901
21
-230.24650042472041
31
0
0
LINE
5
113
100
AcDbEntity
8
0
100
AcDbLine
10
-24.350963580741901
20
-230.24650042472041
30
0
11
-24.35096358074189
21
-227.24650042472041
31
0
0
LINE
5
114
100
AcDbEntity
8
0
100
AcDbLine
10
-24.35096358074189
20
-227.24650042472041
30
0
11
-22.487522902353309
21
-227.24650042472035
31
0
0
SPLINE
5
115
100
AcDbEntity
8
0
100
AcDbSpline
70
0
71
3
72
12
73
8
74
0
42
0.000000001
43
0.0000000001
44
0.0000000001
40
-9.6238515148012116
40
-9.6238515148012116
40
-9.6238515148012116
40
-9.6238515148012116
40
-6.1678521891702367
40
-6.1678521891702367
40
-3.8977894294832018
40
-3.8977894294832018
40
0
40
0
40
0
40
0
10
-22.487522902353405
20
-227.24650042471993
30
0
10
-23.143083554712966
20
-223.87447823378241
30
0
10
-23.379635096726371
20
-219.15195969352212
30
0
10
-23.642357461662556
20
-207.56323915304307
30
0
10
-23.700584053767745
20
-202.8314126598973
30
0
10
-24.125494068247622
20
-181.60594397419797
30
0
10
-24.307351500289762
20
-175.41781669029632
30
0
10
-25.262496867844682
20
-162.46034128632522
30
0
0
SPLINE
5
116
100
AcDbEntity
8
0
100
AcDbSpline
70
0
71
3
72
10
73
6
74
0
42
0.000000001
43
0.0000000001
44
0.0000000001
40
-2.4290337345812265
40
-2.4290337345812265
40
-2.4290337345812265
40
-2.4290337345812265
40
-1.2207791888332151
40
-1.2207791888332151
40
0
40
0
40
0
40
0
10
-25.26249686784487
20
-162.46034128632522
30
0
10
-25.3974727954919
20
-158.44321987557544
30
0
10
-25.489479757568844
20
-154.4230492429634
30
0
10
-25.580405875485745
20
-146.33563335489114
30
0
10
-25.578152556731453
20
-142.29111921236569
30
0
10
-25.526489662086785
20
-138.22218321580888
30
0
0
LINE
5
117
100
AcDbEntity
8
0
100
AcDbLine
10
-25.526489662086782
20
-138.22218321580888
30
0
11
-28.387320128962056
21
-138.22218321580885
31
0
0
LINE
5
118
100
AcDbEntity
8
0
100
AcDbLine
10
-28.387320128962056
20
-138.22218321580885
30
0
11
-28.387320128962056
21
-135.22218321580885
31
0
0
LINE
5
119
100
AcDbEntity
8
0
100
AcDbLine
10
-28.387320128962056
20
-135.22218321580885
30
0
11
-25.479544243794706
21
-135.22218321580885
31
0
0
SPLINE
5
120
100
AcDbEntity
8
0
100
AcDbSpline
70
0
71
3
72
10
73
6
74
0
42
0.000000001
43
0.0000000001
44
0.0000000001
40
-4.2851817495002997
40
-4.2851817495002997
40
-4.2851817495002997
40
-4.2851817495002997
40
-2.1582992700426917
40
-2.1582992700426917
40
0
40
0
40
0
40
0
10
-25.479544243794315
20
-135.2221832157876
30
0
10
-25.346742497375033
20
-128.07778757274716
30
0
10
-25.064117827005205
20
-120.9661566218621
30
0
10
-24.256802559631375
20
-106.67136286750419
30
0
10
-23.721556679763196
20
-99.370616417208083
30
0
10
-23.094321277521928
20
-92.203680331898141
30
0
0
LINE
5
121
100
AcDbEntity
8
0
100
AcDbLine
10
-23.094321277521928
20
-92.203680331898155
30
0
11
-23.305402324390364
21
-92.210024611353077
31
0
0
LINE
5
122
100
AcDbEntity
8
0
100
AcDbLine
10
-23.305402324390364
20
-92.210024611353077
30
0
11
-24.949825039999055
21
-92.210024611353077
31
0
0
LINE
5
123
100
AcDbEntity
8
0
100
AcDbLine
10
-24.949825039999055
20
-92.210024611353077
30
0
11
-24.949825039999055
21
-89.210024611353077
31
0
0
LINE
5
124
100
AcDbEntity
8
0
100
AcDbLine
10
-24.949825039999055
20
-89.210024611353077
30
0
11
-22.844905402201515
21
-89.210024611353077
31
0
0
SPLINE
5
125
100
AcDbEntity
8
0
100
AcDbSpline
70
0
71
3
72
10
73
6
74
0
42
0.000000001
43
0.0000000001
44
0.0000000001
40
-7.1726712961907282
40
-7.1726712961907282
40
-7.1726712961907282
40
-7.1726712961907282
40
-2.5312670373607258
40
-2.5312670373607258
40
0
40
0
40
0
40
0
10
-22.844905402201519
20
-89.210024611353077
30
0
10
-21.907815111612582
20
-81.45534437454431
30
0
10
-20.537569050677998
20
-72.868835930999268
30
0
10
-17.27588365262298
20
-60.731537795820778
30
0
10
-15.093433409306027
20
-53.635909638803909
30
0
10
-11.109983706520872
20
-46.197866006897272
30
0
0
LINE
5
126
100
AcDbEntity
8
0
100
AcDbLine
10
-11.109983706520872
20
-46.197866006897257
30
0
11
-13.538230564787742
21
-46.197866006897272
31
0
0
LINE
5
127
100
AcDbEntity
8
0
100
AcDbLine
10
-13.538230564787742
20
-46.197866006897272
30
0
11
-13.538230564787742
21
-43.197866006897257
31
0
0
LINE
5
128
100
AcDbEntity
8
0
100
AcDbLine
10
-13.538230564787742
20
-43.197866006897257
30
0
11
-11.109983706520872
21
-43.197866006897257
31
0
0
LINE
5
129
100
AcDbEntity
8
0
100
AcDbLine
10
-11.109983706520872
20
-43.197866006897257
30
0
11
-1.4999999999999991
21
-41.562085547323164
31
0
0
LINE
5
130
100
AcDbEntity
8
0
100
AcDbLine
10
-1.4999999999999991
20
-41.562085547323164
30
0
11
1.4999999999999991
21
-41.562085547323164
31
0
0
LINE
5
131
100
AcDbEntity
8
0
100
AcDbLine
10
1.4999999999999991
20
-41.562085547323164
30
0
11
11.109983706520872
21
-43.197866006897257
31
0
0
LINE
5
132
100
AcDbEntity
8
0
100
AcDbLine
10
11.109983706520872
20
-43.197866006897257
30
0
11
13.538230564787742
21
-43.197866006897257
31
0
0
LINE
5
133
100
AcDbEntity
8
0
100
AcDbLine
10
13.538230564787742
20
-43.197866006897257
30
0
11
13.538230564787742
21
-46.197866006897272
31
0
0
LINE
5
134
100
AcDbEntity
8
0
100
AcDbLine
10
13.538230564787742
20
-46.197866006897272
30
0
11
11.109983706520872
21
-46.197866006897272
31
0
0
SPLINE
5
135
100
AcDbEntity
8
0
100
AcDbSpline
70
0
71
3
72
10
73
6
74
0
42
0.000000001
43
0.0000000001
44
0.0000000001
40
-3.6213016474313999
40
-3.6213016474313999
40
-3.6213016474313999
40
-3.6213016474313999
40
-2.3433284748214049
40
-2.3433284748214049
40
0
40
0
40
0
40
0
10
11.109983706520872
20
-46.197866006897272
30
0
10
15.093433409306453
20
-53.635909638804698
30
0
10
17.275883652623349
20
-60.731537795822099
30
0
10
20.537569050677924
20
-72.868835930999069
30
0
10
21.907815111612528
20
-81.455344374543856
30
0
10
22.844905402201519
20
-89.210024611353077
30
0
0
LINE
5
136
100
AcDbEntity
8
0
100
AcDbLine
10
22.844905402201519
20
-89.210024611353077
30
0
11
24.949825039999052
21
-89.210024611353077
31
0
0
LINE
5
137
100
AcDbEntity
8
0
100
AcDbLine
10
24.949825039999052
20
-89.210024611353077
30
0
11
24.949825039999052
21
-92.210024611353077
31
0
0
LINE
5
138
100
AcDbEntity
8
0
100
AcDbLine
10
24.949825039999052
20
-92.210024611353077
30
0
11
23.305402324390364
21
-92.210024611353077
31
0
0
LINE
5
139
100
AcDbEntity
8
0
100
AcDbLine
10
23.305402324390364
20
-92.210024611353077
30
0
11
23.094321277521928
21
-92.203680331898141
31
0
0
LINE
5
140
100
AcDbEntity
8
0
100
AcDbLine
10
-1.4999999999999991
20
-239.44728513360707
30
0
11
1.4999999999999991
21
-239.44728513360707
31
0
0
LINE
5
141
100
AcDbEntity
8
0
100
AcDbLine
10
1.4999999999999991
20
-239.44728513360707
30
0
11
1.4999999999999991
21
-252.6542145905463
31
0
0
SPLINE
5
142
100
AcDbEntity
8
0
100
AcDbSpline
70
0
71
3
72
32
73
28
74
0
42
0.000000001
43
0.0000000001
44
0.0000000001
40
-27.216945568881428
40
-27.216945568881428
40
-27.216945568881428
40
-27.216945568881428
40
-25.336366987657936
40
-25.336366987657936
40
-22.773399639383516
40
-22.773399639383516
40
-21.02310961014097
40
-21.02310961014097
40
-19.310252347357068
40
-19.310252347357068
40
-15.307488398983736
40
-15.307488398983736
40
-10.393625881816234
40
-10.393625881816234
40
-6.7516603544323139
40
-6.7516603544323139
40
-3.5302796466507491
40
-3.5302796466507491
40
-2.9795072462146015
40
-2.9795072462146015
40
-2.0785750872224957
40
-2.0785750872224957
40
-1.4630563076858116
40
-1.4630563076858116
40
-0.93128356919466593
40
-0.93128356919466593
40
0
40
0
40
0
40
0
10
1.5000000000000038
20
-252.6542145905463
30
0
10
4.7517687256734398
20
-252.5347203682619
30
0
10
7.4800098014137646
20
-252.08483816061488
30
0
10
13.795591509490555
20
-250.42751045026736
30
0
10
17.407963445829708
20
-248.98103085017618
30
0
10
20.43465543451644
20
-247.60896712461658
30
0
10
21.200885301134615
20
-247.17205556323358
30
0
10
22.294317632525875
20
-246.35263290546476
30
0
10
22.717211462855218
20
-245.90420866321014
30
0
10
23.886415051876234
20
-243.96790669322871
30
0
10
24.425866596593142
20
-241.70464935256445
30
0
10
26.659029409953231
20
-226.58735196229799
30
0
10
28.600618647421921
20
-212.12704420191955
30
0
10
30.151101681282476
20
-179.44912846548914
30
0
10
30.107426970404013
20
-167.21831088950933
30
0
10
29.846943518828262
20
-132.65342646895829
30
0
10
29.696642589790152
20
-122.8971160032826
30
0
10
27.537201051901086
20
-100.7373655514064
30
0
10
26.400535552708064
20
-89.759447258196559
30
0
10
24.997064834149413
20
-78.385018263098544
30
0
10
23.469424252424631
20
-68.279338265878863
30
0
10
20.132445785904181
20
-54.03167736536291
30
0
10
18.710288287443269
20
-49.588760476062902
30
0
10
15.657906348454722
20
-43.380843345738896
30
0
10
14.077550323508481
20
-41.325389264721252
30
0
10
8.5557922542470024
20
-36.512496295246152
30
0
10
4.1614669429086879
20
-34.761902169613478
30
0
10
1.5000000000000002
20
-33.164047634743739
30
0
0
LINE
5
143
100
AcDbEntity
8
0
100
AcDbLine
10
1.5000000000000004
20
-33.164047634743739
30
0
11
1.4999999999999991
21
-38.606160046026012
31
0
0
LINE
5
144
100
AcDbEntity
8
0
100
AcDbLine
10
1.4999999999999991
20
-38.606160046026012
30
0
11
-1.4999999999999991
21
-38.606160046026012
31
0
0
LINE
5
145
100
AcDbEntity
8
0
100
AcDbLine
10
-1.4999999999999991
20
-38.606160046026012
30
0
11
-1.4999999999999991
21
-33.164047634743739
31
0
0
SPLINE
5
146
100
AcDbEntity
8
0
100
AcDbSpline
70
0
71
3
72
32
73
28
74
0
42
0.000000001
43
0.0000000001
44
0.0000000001
40
-189.19650269617142
40
-189.19650269617142
40
-189.19650269617142
40
-189.19650269617142
40
-158.55539479178813
40
-158.55539479178813
40
-137.0950352147847
40
-137.0950352147847
40
-110.22287191943251
40
-110.22287191943251
40
-68.665877049223567
40
-68.665877049223567
40
-57.50904095888491
40
-57.50904095888491
40
-43.899821432128313
40
-43.899821432128313
40
-35.050331328845857
40
-35.050331328845857
40
-7.5574370083573861
40
-7.5574370083573861
40
-4.464053983953737
40
-4.464053983953737
40
-3.3495544072437697
40
-3.3495544072437697
40
-2.264599704822948
40
-2.264599704822948
40
-1.0730785435756354
40
-1.0730785435756354
40
0
40
0
40
0
40
0
10
-1.5000000000000002
20
-33.164047634743739
30
0
10
-3.7020899594195362
20
-34.48610780055747
30
0
10
-7.1537793258267923
20
-35.953498277092692
30
0
10
-12.387839724032057
20
-39.663383027915728
30
0
10
-14.004118365635074
20
-41.288052361287455
30
0
10
-17.072755611712395
20
-45.80755093680223
30
0
10
-18.762383600925723
20
-49.483461654468073
30
0
10
-23.179996842077571
20
-65.77370477512072
30
0
10
-24.9651289759855
20
-78.452357140770147
30
0
10
-25.823242784558079
20
-85.054368078076351
30
0
10
-26.186162104911091
20
-87.921865600614879
30
0
10
-28.513275539333854
20
-110.05790218069833
30
0
10
-29.384755560259045
20
-120.55015897352035
30
0
10
-29.946434180668433
20
-139.57049028603853
30
0
10
-30.002268544392283
20
-152.14550482415905
30
0
10
-30.14227945035266
20
-182.0929736680223
30
0
10
-29.810269069884967
20
-202.49914126590926
30
0
10
-25.848669551901157
20
-232.06553845290455
30
0
10
-24.785582333992021
20
-239.85915996889563
30
0
10
-23.76860372545962
20
-243.83014126185344
30
0
10
-23.481512578820748
20
-244.60810726608423
30
0
10
-22.774925298432763
20
-245.83388672236427
30
0
10
-22.352612606696805
20
-246.30108229721355
30
0
10
-21.188802361927841
20
-247.18911636123823
30
0
10
-20.277346368034415
20
-247.71104565989185
30
0
10
-16.986793917410839
20
-249.12955042521565
30
0
10
-13.708908074386732
20
-250.44164354638897
30
0
10
-10.251217496343051
20
-251.35750008942594
30
0
0
SPLINE
5
147
100
AcDbEntity
8
0
100
AcDbSpline
70
0
71
3
72
10
73
6
74
0
42
0.000000001
43
0.0000000001
44
0.0000000001
40
-0.88173444482498786
40
-0.88173444482498786
40
-0.88173444482498786
40
-0.88173444482498786
40
-0.40638363697120128
40
-0.40638363697120128
40
0
40
0
40
0
40
0
10
-10.251217496343051
20
-251.35750008942594
30
0
10
-8.7005203256472825
20
-251.76824133940042
30
0
10
-7.1661406158911962
20
-252.08486614066481
30
0
10
-4.2154191540283144
20
-252.49335157812553
30
0
10
-2.8536984310670919
20
-252.60446961946303
30
0
10
-1.5000000000000038
20
-252.6542145905463
30
0
0
LINE
5
148
100
AcDbEntity
8
0
100
AcDbLine
10
-1.5000000000000038
20
-252.6542145905463
30
0
11
-1.4999999999999991
21
-251.35750008942597
31
0
0
LINE
5
149
100
AcDbEntity
8
0
100
AcDbLine
10
-1.4999999999999991
20
-251.35750008942597
30
0
11
-1.4500000000000002
21
-251.35750008942597
31
0
0
LINE
5
150
100
AcDbEntity
8
0
100
AcDbLine
10
-1.4500000000000002
20
-251.35750008942597
30
0
11
-1.4500000000000002
21
-248.40750008942598
31
0
0
LINE
5
151
100
AcDbEntity
8
0
100
AcDbLine
10
-1.4500000000000002
20
-248.40750008942598
30
0
11
-1.4999999999999991
21
-248.40750008942598
31
0
0
LINE
5
152
100
AcDbEntity
8
0
100
AcDbLine
10
-1.4999999999999991
20
-248.40750008942598
30
0
11
-1.4999999999999991
21
-239.44728513360707
31
0
0
ENDSEC
0
SECTION
2
OBJECTS
0
DICTIONARY
5
C
100
AcDbDictionary
3
ACAD_GROUP
350
D
3
ACAD_MLINESTYLE
350
17
0
DICTIONARY
5
D
100
AcDbDictionary
0
DICTIONARY
5
1A
330
C
100
AcDbDictionary
0
DICTIONARY
5
17
100
AcDbDictionary
0
ENDSEC
0
EOF
