0
SECTION
2
HEADER
9
$INSUNITS
70
4
9
$ACADVER
1
AC1014
9
$HANDSEED
5
FFFF
0
ENDSEC
0
SECTION
2
TABLES
0
TABLE
2
VPORT
5
8
100
AcDbSymbolTable
0
ENDTAB
0
TABLE
2
LTYPE
5
5
100
AcDbSymbolTable
0
LTYPE
5
14
100
AcDbSymbolTableRecord
100
AcDbLinetypeTableRecord
2
BYBLOCK
70
0
0
LTYPE
5
15
100
AcDbSymbolTableRecord
100
AcDbLinetypeTableRecord
2
BYLAYER
70
0
0
ENDTAB
0
TABLE
2
LAYER
5
2
100
AcDbSymbolTable
70
2
0
LAYER
5
50
100
AcDbSymbolTableRecord
100
AcDbLayerTableRecord
2
0
70
0
6
CONTINUOUS
0
ENDTAB
0
TABLE
2
STYLE
5
3
100
AcDbSymbolTable
70
1
0
STYLE
5
11
100
AcDbSymbolTableRecord
100
AcDbTextStyleTableRecord
2
STANDARD
70
0
0
ENDTAB
0
TABLE
2
VIEW
5
6
100
AcDbSymbolTable
70
0
0
ENDTAB
0
TABLE
2
UCS
5
7
100
AcDbSymbolTable
70
0
0
ENDTAB
0
TABLE
2
APPID
5
9
100
AcDbSymbolTable
70
2
0
APPID
5
12
100
AcDbSymbolTableRecord
100
AcDbRegAppTableRecord
2
ACAD
70
0
0
ENDTAB
0
TABLE
2
DIMSTYLE
5
A
100
AcDbSymbolTable
70
1
0
ENDTAB
0
TABLE
2
BLOCK_RECORD
5
1
100
AcDbSymbolTable
70
1
0
BLOCK_RECORD
5
1F
100
AcDbSymbolTableRecord
100
AcDbBlockTableRecord
2
*MODEL_SPACE
0
BLOCK_RECORD
5
1B
100
AcDbSymbolTableRecord
100
AcDbBlockTableRecord
2
*PAPER_SPACE
0
ENDTAB
0
ENDSEC
0
SECTION
2
BLOCKS
0
BLOCK
5
20
100
AcDbEntity
100
AcDbBlockBegin
2
*MODEL_SPACE
0
ENDBLK
5
21
100
AcDbEntity
100
AcDbBlockEnd
0
BLOCK
5
1C
100
AcDbEntity
100
AcDbBlockBegin
2
*PAPER_SPACE
0
ENDBLK
5
1D
100
AcDbEntity
100
AcDbBlockEnd
0
ENDSEC
0
SECTION
2
ENTITIES
0
SPLINE
5
100
100
AcDbEntity
8
0
100
AcDbSpline
70
0
71
3
72
10
73
6
74
0
42
0.000000001
43
0.0000000001
44
0.0000000001
40
-4.8335587694777811
40
-4.8335587694777811
40
-4.8335587694777811
40
-4.8335587694777811
40
-2.3527323516432328
40
-2.3527323516432328
40
0
40
0
40
0
40
0
10
-25.429096044237301
20
-227.24650042472049
30
0
10
-25.925362030733421
20
-220.75925459263385
30
0
10
-26.116672591662958
20
-213.88632093674158
30
0
10
-26.379942801592069
20
-199.61619259954909
30
0
10
-26.45974198995301
20
-192.07319081945965
30
0
10
-26.697081212083358
20
-184.23434182026469
30
0
0
LINE
5
101
100
AcDbEntity
8
0
100
AcDbLine
10
-26.697081212083361
20
-184.23434182026469
30
0
11
-28.79494897270845
21
-184.23434182026466
31
0
0
LINE
5
102
100
AcDbEntity
8
0
100
AcDbLine
10
-28.79494897270845
20
-184.23434182026466
30
0
11
-28.79494897270845
21
-181.23434182026469
31
0
0
LINE
5
103
100
AcDbEntity
8
0
100
AcDbLine
10
-28.79494897270845
20
-181.23434182026469
30
0
11
-26.794948972708447
21
-181.23434182026469
31
0
0
SPLINE
5
104
100
AcDbEntity
8
0
100
AcDbSpline
70
0
71
3
72
10
73
6
74
0
42
0.000000001
43
0.0000000001
44
0.0000000001
40
-4.0144697630556951
40
-4.0144697630556951
40
-4.0144697630556951
40
-4.0144697630556951
40
-2.2010614510134481
40
-2.2010614510134481
40
0
40
0
40
0
40
0
10
-26.794948972708458
20
-181.23434182026472
30
0
10
-27.077201025607952
20
-173.17286678097074
30
0
10
-27.513338641608414
20
-165.8390026885408
30
0
10
-28.245114066470578
20
-151.82782146713572
30
0
10
-28.494286494992977
20
-145.55898492963485
30
0
10
-28.462285415584635
20
-138.22218321580891
30
0
0
LINE
5
105
100
AcDbEntity
8
0
100
AcDbLine
10
-28.462285415584638
20
-138.22218321580891
30
0
11
-30.468991589641689
21
-138.22218321580888
31
0
0
LINE
5
106
100
AcDbEntity
8
0
100
AcDbLine
10
-30.468991589641689
20
-138.22218321580888
30
0
11
-30.468991589641689
21
-135.22218321580885
31
0
0
LINE
5
107
100
AcDbEntity
8
0
100
AcDbLine
10
-30.468991589641689
20
-135.22218321580885
30
0
11
-28.432739904684826
21
-135.22218321580883
31
0
0
SPLINE
5
108
100
AcDbEntity
8
0
100
AcDbSpline
70
0
71
3
72
10
73
6
74
0
42
0.000000001
43
0.0000000001
44
0.0000000001
40
-4.0325843722485075
40
-4.0325843722485075
40
-4.0325843722485075
40
-4.0325843722485075
40
-1.9447407666556984
40
-1.9447407666556984
40
0
40
0
40
0
40
0
10
-28.432739904684826
20
-135.22218321580883
30
0
10
-28.318158952577278
20
-127.74105837941015
30
0
10
-27.889021464041143
20
-120.28493572764944
30
0
10
-26.787300244966168
20
-106.27432700305661
30
0
10
-26.051316257461202
20
-98.648972917208965
30
0
10
-25.301414976558306
20
-92.210024611353077
30
0
0
LINE
5
109
100
AcDbEntity
8
0
100
AcDbLine
10
-25.301414976558306
20
-92.210024611353077
30
0
11
-27.440628271448453
21
-92.210024611353077
31
0
0
LINE
5
110
100
AcDbEntity
8
0
100
AcDbLine
10
-27.440628271448453
20
-92.210024611353077
30
0
11
-27.440628271448453
21
-89.210024611353077
31
0
0
LINE
5
111
100
AcDbEntity
8
0
100
AcDbLine
10
-27.440628271448453
20
-89.210024611353077
30
0
11
-24.939541224817873
21
-89.210024611353049
31
0
0
SPLINE
5
112
100
AcDbEntity
8
0
100
AcDbSpline
70
0
71
3
72
10
73
6
74
0
42
0.000000001
43
0.0000000001
44
0.0000000001
40
-4.4050604361296628
40
-4.4050604361296628
40
-4.4050604361296628
40
-4.4050604361296628
40
-2.3299005329556892
40
-2.3299005329556892
40
0
40
0
40
0
40
0
10
-24.939541224817837
20
-89.210024611352793
30
0
10
-24.038219050865123
20
-82.004934722884357
30
0
10
-23.020986683559002
20
-75.85970062422011
30
0
10
-19.915091047540024
20
-61.33703885941425
30
0
10
-17.866824164858404
20
-53.640751221892529
30
0
10
-15.648847448192509
20
-46.197866006947159
30
0
0
LINE
5
113
100
AcDbEntity
8
0
100
AcDbLine
10
-15.648847448192509
20
-46.197866006947159
30
0
11
-16.806031415984396
21
-46.197866006897272
31
0
0
LINE
5
114
100
AcDbEntity
8
0
100
AcDbLine
10
-16.806031415984396
20
-46.197866006897272
30
0
11
-16.806031415984396
21
-43.197866006897257
31
0
0
LINE
5
115
100
AcDbEntity
8
0
100
AcDbLine
10
-16.806031415984396
20
-43.197866006897257
30
0
11
-14.741799130439093
21
-43.197866007113376
31
0
0
SPLINE
5
116
100
AcDbEntity
8
0
100
AcDbSpline
70
0
71
3
72
12
73
8
74
0
42
0.000000001
43
0.0000000001
44
0.0000000001
40
-1.6160992684921625
40
-1.6160992684921625
40
-1.6160992684921625
40
-1.6160992684921625
40
-1.0976893299979984
40
-1.0976893299979984
40
-0.58183894714718221
40
-0.58183894714718221
40
0
40
0
40
0
40
0
10
-14.741799130304717
20
-43.197866006897257
30
0
10
-13.829609451972789
20
-41.730801345515417
30
0
10
-12.758993189075976
20
-40.350232183502548
30
0
10
-10.206744361161137
20
-38.025550786112049
30
0
10
-8.7795759814423189
20
-37.126213926242102
30
0
10
-5.3502597111017334
20
-35.845527243412647
30
0
10
-3.4383531838619397
20
-35.598440679451301
30
0
10
-1.5000000000000002
20
-35.664047634743739
30
0
0
LINE
5
117
100
AcDbEntity
8
0
100
AcDbLine
10
-1.5000000000000011
20
-35.664047634743746
30
0
11
1.4999999999999991
21
-35.664047634743739
31
0
0
SPLINE
5
118
100
AcDbEntity
8
0
100
AcDbSpline
70
0
71
3
72
12
73
8
74
0
42
0.000000001
43
0.0000000001
44
0.0000000001
40
-1.612589384177582
40
-1.612589384177582
40
-1.612589384177582
40
-1.612589384177582
40
-1.1308139779441171
40
-1.1308139779441171
40
-0.66912226093626348
40
-0.66912226093626348
40
0
40
0
40
0
40
0
10
1.5000000000000002
20
-35.664047634743739
30
0
10
3.1074321534640061
20
-35.609641280779996
30
0
10
4.7050579909178278
20
-35.769990813019341
30
0
10
7.7297441686675405
20
-36.650819809976603
30
0
10
9.0863880231656111
20
-37.325551068087869
30
0
10
12.129555997910629
20
-39.565530785562437
30
0
10
13.56407618269375
20
-41.303747098976672
30
0
10
14.741799130304717
20
-43.197866006897257
30
0
0
LINE
5
119
100
AcDbEntity
8
0
100
AcDbLine
10
14.741799130304717
20
-43.197866006897257
30
0
11
16.806031415984396
21
-43.197866006897257
31
0
0
LINE
5
120
100
AcDbEntity
8
0
100
AcDbLine
10
16.806031415984396
20
-43.197866006897257
30
0
11
16.806031415984396
21
-46.197866006897272
31
0
0
LINE
5
121
100
AcDbEntity
8
0
100
AcDbLine
10
16.806031415984396
20
-46.197866006897272
30
0
11
15.648847448177644
21
-46.197866006897272
31
0
0
SPLINE
5
122
100
AcDbEntity
8
0
100
AcDbSpline
70
0
71
3
72
10
73
6
74
0
42
0.000000001
43
0.0000000001
44
0.0000000001
40
-4.6241588416131734
40
-4.6241588416131734
40
-4.6241588416131734
40
-4.6241588416131734
40
-2.178373975375945
40
-2.178373975375945
40
0
40
0
40
0
40
0
10
15.648847448192509
20
-46.197866006947159
30
0
10
17.866824164858404
20
-53.640751221892529
30
0
10
19.915091047540024
20
-61.33703885941425
30
0
10
23.020986683559002
20
-75.85970062422011
30
0
10
24.038219050865123
20
-82.004934722884357
30
0
10
24.939541224817837
20
-89.210024611352793
30
0
0
LINE
5
123
100
AcDbEntity
8
0
100
AcDbLine
10
24.939541224817834
20
-89.210024611352765
30
0
11
27.44062827144845
21
-89.210024611353077
31
0
0
LINE
5
124
100
AcDbEntity
8
0
100
AcDbLine
10
27.44062827144845
20
-89.210024611353077
30
0
11
27.44062827144845
21
-92.210024611353077
31
0
0
LINE
5
125
100
AcDbEntity
8
0
100
AcDbLine
10
27.44062827144845
20
-92.210024611353077
30
0
11
25.301414976558302
21
-92.210024611353077
31
0
0
SPLINE
5
126
100
AcDbEntity
8
0
100
AcDbSpline
70
0
71
3
72
10
73
6
74
0
42
0.000000001
43
0.0000000001
44
0.0000000001
40
-4.335354226302047
40
-4.335354226302047
40
-4.335354226302047
40
-4.335354226302047
40
-2.2446006738645097
40
-2.2446006738645097
40
0
40
0
40
0
40
0
10
25.301414976558306
20
-92.210024611353077
30
0
10
26.051316257461202
20
-98.648972917208965
30
0
10
26.787300244966168
20
-106.27432700305661
30
0
10
27.889021464041143
20
-120.28493572764944
30
0
10
28.318158952577278
20
-127.74105837941015
30
0
10
28.432739904684826
20
-135.22218321580883
30
0
0
LINE
5
127
100
AcDbEntity
8
0
100
AcDbLine
10
28.432739904684826
20
-135.22218321580883
30
0
11
30.468991589641682
21
-135.22218321580885
31
0
0
LINE
5
128
100
AcDbEntity
8
0
100
AcDbLine
10
30.468991589641682
20
-135.22218321580885
30
0
11
30.468991589641682
21
-138.22218321580888
31
0
0
LINE
5
129
100
AcDbEntity
8
0
100
AcDbLine
10
30.468991589641682
20
-138.22218321580888
30
0
11
28.462285415584635
21
-138.22218321580883
31
0
0
SPLINE
5
130
100
AcDbEntity
8
0
100
AcDbSpline
70
0
71
3
72
10
73
6
74
0
42
0.000000001
43
0.0000000001
44
0.0000000001
40
-5.3571571841834658
40
-5.3571571841834658
40
-5.3571571841834658
40
-5.3571571841834658
40
-2.4199244084779412
40
-2.4199244084779412
40
0
40
0
40
0
40
0
10
28.462285415584635
20
-138.22218321580891
30
0
10
28.494286494992977
20
-145.55898492963485
30
0
10
28.245114066470578
20
-151.82782146713572
30
0
10
27.513338641608414
20
-165.8390026885408
30
0
10
27.077201025607952
20
-173.17286678097074
30
0
10
26.794948972708458
20
-181.23434182026472
30
0
0
LINE
5
131
100
AcDbEntity
8
0
100
AcDbLine
10
26.794948972708458
20
-181.23434182026475
30
0
11
27.625998312917893
21
-181.23434182026469
31
0
0
SPLINE
5
132
100
AcDbEntity
8
0
100
AcDbSpline
70
0
71
3
72
10
73
6
74
0
42
0.000000001
43
0.0000000001
44
0.0000000001
40
-0.30032147979343848
40
-0.30032147979343848
40
-0.30032147979343848
40
-0.30032147979343848
40
-0.1501104373570693
40
-0.1501104373570693
40
0
40
0
40
0
40
0
10
27.625998312917901
20
-181.23434182026472
30
0
10
27.603069008178384
20
-181.73453897307132
30
0
10
27.580387659262232
20
-182.23459791992644
30
0
10
27.535561167398864
20
-183.23468171506957
30
0
10
27.513427133786461
20
-183.73445089606773
30
0
10
27.491579389171147
20
-184.23434182026466
30
0
0
LINE
5
133
100
AcDbEntity
8
0
100
AcDbLine
10
27.491579389171147
20
-184.2343418202646
30
0
11
26.697081212083354
21
-184.23434182026466
31
0
0
SPLINE
5
134
100
AcDbEntity
8
0
100
AcDbSpline
70
0
71
3
72
10
73
6
74
0
42
0.000000001
43
0.0000000001
44
0.0000000001
40
-3.8029383874721523
40
-3.8029383874721523
40
-3.8029383874721523
40
-3.8029383874721523
40
-1.9518599994300538
40
-1.9518599994300538
40
0
40
0
40
0
40
0
10
26.697081212083358
20
-184.23434182026469
30
0
10
26.45974198995301
20
-192.07319081945965
30
0
10
26.379942801592069
20
-199.61619259954909
30
0
10
26.116672591662958
20
-213.88632093674158
30
0
10
25.925362030733421
20
-220.75925459263385
30
0
10
25.429096044237301
20
-227.24650042472049
30
0
0
LINE
5
135
100
AcDbEntity
8
0
100
AcDbLine
10
25.429096044237301
20
-227.24650042472049
30
0
11
27.453317029415864
21
-227.24650042472041
31
0
0
LINE
5
136
100
AcDbEntity
8
0
100
AcDbLine
10
27.453317029415864
20
-227.24650042472041
30
0
11
27.453317029415874
21
-230.24650042472041
31
0
0
LINE
5
137
100
AcDbEntity
8
0
100
AcDbLine
10
27.453317029415874
20
-230.24650042472041
30
0
11
25.174409992253985
21
-230.24650042472041
31
0
0
SPLINE
5
138
100
AcDbEntity
8
0
100
AcDbSpline
70
0
71
3
72
10
73
6
74
0
42
0.000000001
43
0.0000000001
44
0.0000000001
40
-0.24517583982753502
40
-0.24517583982753502
40
-0.24517583982753502
40
-0.24517583982753502
40
-0.12429016854960893
40
-0.12429016854960893
40
0
40
0
40
0
40
0
10
25.174409992251508
20
-230.24650042472041
30
0
10
25.074815473377662
20
-230.63699837383018
30
0
10
24.970642723123888
20
-231.02682211863791
30
0
10
24.751299682583173
20
-231.81412220593597
30
0
10
24.635597150914329
20
-232.21259930049393
30
0
10
24.515999988816137
20
-232.60926222332941
30
0
0
SPLINE
5
139
100
AcDbEntity
8
0
100
AcDbSpline
70
0
71
3
72
14
73
10
74
0
42
0.000000001
43
0.0000000001
44
0.0000000001
40
-5.2144072778832884
40
-5.2144072778832884
40
-5.2144072778832884
40
-5.2144072778832884
40
-3.8611592133112813
40
-3.8611592133112813
40
-3.20606059769114
40
-3.20606059769114
40
-2.4101554581166074
40
-2.4101554581166074
40
0
40
0
40
0
40
0
10
24.515999988815089
20
-232.60926222332913
30
0
10
23.857908487568629
20
-234.64782031212224
30
0
10
22.971120425715192
20
-236.58484759206021
30
0
10
21.105839177853007
20
-239.17699585076315
30
0
10
20.100758684729925
20
-240.40982792442665
30
0
10
16.703716860609759
20
-243.14633892223645
30
0
10
15.127313763948839
20
-243.79158181569011
30
0
10
11.812914785743256
20
-244.96492174367376
30
0
10
8.0338515270553579
20
-245.50187923179402
30
0
10
0
20
-245.50187923179402
30
0
0
SPLINE
5
140
100
AcDbEntity
8
0
100
AcDbSpline
70
0
71
3
72
14
73
10
74
0
42
0.000000001
43
0.0000000001
44
0.0000000001
40
-3.5666703268064177
40
-3.5666703268064177
40
-3.5666703268064177
40
-3.5666703268064177
40
-2.5064312113073726
40
-2.5064312113073726
40
-1.5968906737264039
40
-1.5968906737264039
40
-0.85557806372693324
40
-0.85557806372693324
40
0
40
0
40
0
40
0
10
0
20
-245.50187923179402
30
0
10
-5.1398983045096163
20
-245.50187923179402
30
0
10
-8.724291521369743
20
-245.28748980763612
30
0
10
-13.593492517016196
20
-244.43893662827986
30
0
10
-15.163953335373932
20
-243.86127857288477
30
0
10
-17.827029429189469
20
-242.28726879406344
30
0
10
-19.385491858685384
20
-241.13332751890098
30
0
10
-22.452884663020932
20
-237.57188123173751
30
0
10
-23.63985710491076
20
-235.32327411915023
30
0
10
-24.515999988815089
20
-232.60926222332913
30
0
0
SPLINE
5
141
100
AcDbEntity
8
0
100
AcDbSpline
70
0
71
3
72
10
73
6
74
0
42
0.000000001
43
0.0000000001
44
0.0000000001
40
-0.24520393185678679
40
-0.24520393185678679
40
-0.24520393185678679
40
-0.24520393185678679
40
-0.12089952225042015
40
-0.12089952225042015
40
0
40
0
40
0
40
0
10
-24.515999988816137
20
-232.60926222332941
30
0
10
-24.635597150914329
20
-232.21259930049393
30
0
10
-24.751299682583173
20
-231.81412220593597
30
0
10
-24.970642723123888
20
-231.02682211863791
30
0
10
-25.074815473377662
20
-230.63699837383018
30
0
10
-25.174409992251508
20
-230.24650042472041
30
0
0
LINE
5
142
100
AcDbEntity
8
0
100
AcDbLine
10
-25.174409992251508
20
-230.24650042472041
30
0
11
-27.453317029415874
21
-230.24650042472041
31
0
0
LINE
5
143
100
AcDbEntity
8
0
100
AcDbLine
10
-27.453317029415874
20
-230.24650042472041
30
0
11
-27.453317029415864
21
-227.24650042472041
31
0
0
LINE
5
144
100
AcDbEntity
8
0
100
AcDbLine
10
-27.453317029415864
20
-227.24650042472041
30
0
11
-25.429096044237301
21
-227.24650042472049
31
0
0
LINE
5
145
100
AcDbEntity
8
0
100
AcDbLine
10
-22.731992034516473
20
-248.35750008942603
30
0
11
22.731992034516473
21
-248.35750008942603
31
0
0
LINE
5
146
100
AcDbEntity
8
0
100
AcDbLine
10
22.731992034516473
20
-248.35750008942603
30
0
11
22.73199203451647
21
-251.35750008942603
31
0
0
LINE
5
147
100
AcDbEntity
8
0
100
AcDbLine
10
22.73199203451647
20
-251.35750008942603
30
0
11
10.230720926504699
21
-251.35750008942603
31
0
0
LINE
5
148
100
AcDbEntity
8
0
100
AcDbLine
10
10.230720926504699
20
-251.35750008942603
30
0
11
9.2592863563439529
21
-251.35193677696685
31
0
0
SPLINE
5
149
100
AcDbEntity
8
0
100
AcDbSpline
70
0
71
3
72
10
73
6
74
0
42
0.000000001
43
0.0000000001
44
0.0000000001
40
-0.81189576539345976
40
-0.81189576539345976
40
-0.81189576539345976
40
-0.81189576539345976
40
-0.38131770175834268
40
-0.38131770175834268
40
0
40
0
40
0
40
0
10
9.2592863563439529
20
-251.3519367769668
30
0
10
8.3480851424479177
20
-251.3998200091244
30
0
10
7.376850726008449
20
-251.3947144318289
30
0
10
5.3951132611343979
20
-251.36034587941572
30
0
10
4.2944095013441856
20
-251.33068780356024
30
0
10
3.0234327850520701
20
-251.31622464263228
30
0
0
LINE
5
150
100
AcDbEntity
8
0
100
AcDbLine
10
3.0234327850520701
20
-251.31622464263228
30
0
11
1.4999999999999991
21
-251.30750008942599
31
0
0
LINE
5
151
100
AcDbEntity
8
0
100
AcDbLine
10
1.4999999999999991
20
-251.30750008942599
30
0
11
1.4999999999999991
21
-258.51004113506792
31
0
0
SPLINE
5
152
100
AcDbEntity
8
0
100
AcDbSpline
70
0
71
3
72
36
73
32
74
0
42
0.000000001
43
0.0000000001
44
0.0000000001
40
-92.821902692795106
40
-92.821902692795106
40
-92.821902692795106
40
-92.821902692795106
40
-86.660824097853478
40
-86.660824097853478
40
-80.069154311201657
40
-80.069154311201657
40
-77.495950611610112
40
-77.495950611610112
40
-75.633783386868117
40
-75.633783386868117
40
-72.289304744082912
40
-72.289304744082912
40
-64.667454856703785
40
-64.667454856703785
40
-50.208043066089999
40
-50.208043066089999
40
-40.314321005443404
40
-40.314321005443404
40
-29.938653166659741
40
-29.938653166659741
40
-24.862575864562483
40
-24.862575864562483
40
-22.079795802450999
40
-22.079795802450999
40
-10.705766601359493
40
-10.705766601359493
40
-5.6428347899597382
40
-5.6428347899597382
40
-1.8157948289152932
40
-1.8157948289152932
40
0
40
0
40
0
40
0
10
1.5000000000000002
20
-258.51004113506792
30
0
10
5.2331846568716687
20
-258.54886273738452
30
0
10
9.1831538650432698
20
-257.84934181979457
30
0
10
16.027777210446203
20
-256.22071084641868
30
0
10
19.620868361796127
20
-255.07112501023437
30
0
10
22.934961861078978
20
-253.54147109734748
30
0
10
23.784137795654349
20
-253.07410266554328
30
0
10
24.868044468928261
20
-252.18364711916973
30
0
10
25.158901219498702
20
-251.82470357158627
30
0
10
25.734204301276836
20
-250.79488263816779
30
0
10
25.863379340140792
20
-250.04151374016831
30
0
10
26.813199513708135
20
-245.59384353755127
30
0
10
27.442575573785515
20
-243.42386529307413
30
0
10
29.324319205998965
20
-233.69011153040856
30
0
10
29.632196252610669
20
-228.23942019498676
30
0
10
30.039319351297685
20
-216.05128382453643
30
0
10
30.140271950513213
20
-210.11118749623282
30
0
10
31.063912948979624
20
-189.55621264468849
30
0
10
31.412734688083191
20
-184.49952251444512
30
0
10
31.95165821455992
20
-159.50162762787397
30
0
10
32.251854582555751
20
-142.96087319800458
30
0
10
31.789772506713373
20
-130.25312931289784
30
0
10
30.939293199147059
20
-113.59208809606278
30
0
10
29.435138302992094
20
-86.733908175966803
30
0
10
27.989531315265804
20
-72.400174895656022
30
0
10
22.725806712680669
20
-53.825232581009779
30
0
10
20.462733000126534
20
-47.668986412371375
30
0
10
15.681880429053226
20
-39.194105358994626
30
0
10
13.535640325893841
20
-36.615354990585594
30
0
10
9.9314670961127831
20
-33.635940623507075
30
0
10
7.1791631088265202
20
-31.454518582479135
30
0
10
1.5000000000000002
20
-29.361274329553737
30
0
0
LINE
5
153
100
AcDbEntity
8
0
100
AcDbLine
10
1.5000000000000013
20
-29.361274329553737
30
0
11
1.4999999999999991
21
-33.164047634743739
31
0
0
LINE
5
154
100
AcDbEntity
8
0
100
AcDbLine
10
1.4999999999999991
20
-33.164047634743739
30
0
11
-1.4999999999999991
21
-33.164047634743739
31
0
0
LINE
5
155
100
AcDbEntity
8
0
100
AcDbLine
10
-1.4999999999999991
20
-33.164047634743739
30
0
11
-1.4999999999999991
21
-29.361274329553737
31
0
0
SPLINE
5
156
100
AcDbEntity
8
0
100
AcDbSpline
70
0
71
3
72
34
73
30
74
0
42
0.000000001
43
0.0000000001
44
0.0000000001
40
-19.386211902754198
40
-19.386211902754198
40
-19.386211902754198
40
-19.386211902754198
40
-18.810040496972785
40
-18.810040496972785
40
-18.155953879119199
40
-18.155953879119199
40
-16.458712187493354
40
-16.458712187493354
40
-10.46299419006133
40
-10.46299419006133
40
-7.1143785228050014
40
-7.1143785228050014
40
-5.581971546871773
40
-5.581971546871773
40
-4.6279128489593599
40
-4.6279128489593599
40
-3.8848487824330826
40
-3.8848487824330826
40
-3.1186577096117043
40
-3.1186577096117043
40
-2.7241160453737887
40
-2.7241160453737887
40
-2.4577497499618031
40
-2.4577497499618031
40
-2.15854039510074
40
-2.15854039510074
40
-1.1700437225207208
40
-1.1700437225207208
40
0
40
0
40
0
40
0
10
-1.5000000000000002
20
-29.361274329553737
30
0
10
-3.4968054638136947
20
-30.097263326742748
30
0
10
-6.0350248538631623
20
-31.163700076422685
30
0
10
-11.194687882229406
20
-34.418364783011747
30
0
10
-13.388521373053123
20
-36.483445250473579
30
0
10
-20.353250557202159
20
-45.866520679301956
30
0
10
-23.538705592762994
20
-56.519861559559089
30
0
10
-28.823494053529046
20
-76.097373111960948
30
0
10
-29.962520501781231
20
-93.945093182432572
30
0
10
-31.959239647903559
20
-134.29886628007228
30
0
10
-32.112946718791747
20
-136.02096139059378
30
0
10
-32.071785168720169
20
-149.45108241059657
30
0
10
-31.904060964964867
20
-171.46096537728715
30
0
10
-30.520593366643503
20
-201.97118182695846
30
0
10
-30.417972984390026
20
-202.94520020715396
30
0
10
-29.796910445645484
20
-223.78191615295373
30
0
10
-29.649628346486935
20
-229.21822871538831
30
0
10
-28.209369874960998
20
-240.49623732082424
30
0
10
-27.141413285625774
20
-244.3176210801158
30
0
10
-26.007912053289143
20
-249.2865682442721
30
0
10
-25.898358088417254
20
-249.99646600027523
30
0
10
-25.581826710872662
20
-251.04116744942527
30
0
10
-25.420870303360704
20
-251.41355890084256
30
0
10
-24.876990616910017
20
-252.1737587810847
30
0
10
-24.453901414120747
20
-252.58003788080916
30
0
10
-21.519367165740121
20
-254.48152403333748
30
0
10
-17.125618974497531
20
-255.88284936701453
30
0
10
-9.6677920635375756
20
-257.79934173118261
30
0
10
-5.399934877179124
20
-258.55059678253201
30
0
10
-1.5000000000000002
20
-258.51004113506792
30
0
0
LINE
5
157
100
AcDbEntity
8
0
100
AcDbLine
10
-1.5
20
-258.51004113506792
30
0
11
-1.4999999999999991
21
-251.30750008942599
31
0
0
LINE
5
158
100
AcDbEntity
8
0
100
AcDbLine
10
-1.4999999999999991
20
-251.30750008942599
30
0
11
-3.0234327850519893
21
-251.31622464263228
31
0
0
SPLINE
5
159
100
AcDbEntity
8
0
100
AcDbSpline
70
0
71
3
72
10
73
6
74
0
42
0.000000001
43
0.0000000001
44
0.0000000001
40
-0.51615808767420213
40
-0.51615808767420213
40
-0.51615808767420213
40
-0.51615808767420213
40
-0.27373754044973769
40
-0.27373754044973769
40
0
40
0
40
0
40
0
10
-3.0234327850520701
20
-251.31622464263228
30
0
10
-4.2944095013441856
20
-251.33068780356024
30
0
10
-5.3951132611343979
20
-251.36034587941572
30
0
10
-7.376850726008449
20
-251.3947144318289
30
0
10
-8.3480851424479177
20
-251.3998200091244
30
0
10
-9.2592863563439529
20
-251.3519367769668
30
0
0
LINE
5
160
100
AcDbEntity
8
0
100
AcDbLine
10
-9.2592863563439529
20
-251.3519367769668
30
0
11
-10.230720926504702
21
-251.35750008942603
31
0
0
LINE
5
161
100
AcDbEntity
8
0
100
AcDbLine
10
-10.230720926504702
20
-251.35750008942603
30
0
11
-22.731992034516473
21
-251.35750008942603
31
0
0
LINE
5
162
100
AcDbEntity
8
0
100
AcDbLine
10
-22.731992034516473
20
-251.35750008942603
30
0
11
-22.731992034516473
21
-248.35750008942603
31
0
0
ENDSEC
0
SECTION
2
OBJECTS
0
DICTIONARY
5
C
100
AcDbDictionary
3
ACAD_GROUP
350
D
3
ACAD_MLINESTYLE
350
17
0
DICTIONARY
5
D
100
AcDbDictionary
0
DICTIONARY
5
1A
330
C
100
AcDbDictionary
0
DICTIONARY
5
17
100
AcDbDictionary
0
ENDSEC
0
EOF
