0
SECTION
2
HEADER
9
$INSUNITS
70
4
9
$ACADVER
1
AC1014
9
$HANDSEED
5
FFFF
0
ENDSEC
0
SECTION
2
TABLES
0
TABLE
2
VPORT
5
8
100
AcDbSymbolTable
0
ENDTAB
0
TABLE
2
LTYPE
5
5
100
AcDbSymbolTable
0
LTYPE
5
14
100
AcDbSymbolTableRecord
100
AcDbLinetypeTableRecord
2
BYBLOCK
70
0
0
LTYPE
5
15
100
AcDbSymbolTableRecord
100
AcDbLinetypeTableRecord
2
BYLAYER
70
0
0
ENDTAB
0
TABLE
2
LAYER
5
2
100
AcDbSymbolTable
70
2
0
LAYER
5
50
100
AcDbSymbolTableRecord
100
AcDbLayerTableRecord
2
0
70
0
6
CONTINUOUS
0
ENDTAB
0
TABLE
2
STYLE
5
3
100
AcDbSymbolTable
70
1
0
STYLE
5
11
100
AcDbSymbolTableRecord
100
AcDbTextStyleTableRecord
2
STANDARD
70
0
0
ENDTAB
0
TABLE
2
VIEW
5
6
100
AcDbSymbolTable
70
0
0
ENDTAB
0
TABLE
2
UCS
5
7
100
AcDbSymbolTable
70
0
0
ENDTAB
0
TABLE
2
APPID
5
9
100
AcDbSymbolTable
70
2
0
APPID
5
12
100
AcDbSymbolTableRecord
100
AcDbRegAppTableRecord
2
ACAD
70
0
0
ENDTAB
0
TABLE
2
DIMSTYLE
5
A
100
AcDbSymbolTable
70
1
0
ENDTAB
0
TABLE
2
BLOCK_RECORD
5
1
100
AcDbSymbolTable
70
1
0
BLOCK_RECORD
5
1F
100
AcDbSymbolTableRecord
100
AcDbBlockTableRecord
2
*MODEL_SPACE
0
BLOCK_RECORD
5
1B
100
AcDbSymbolTableRecord
100
AcDbBlockTableRecord
2
*PAPER_SPACE
0
ENDTAB
0
ENDSEC
0
SECTION
2
BLOCKS
0
BLOCK
5
20
100
AcDbEntity
100
AcDbBlockBegin
2
*MODEL_SPACE
0
ENDBLK
5
21
100
AcDbEntity
100
AcDbBlockEnd
0
BLOCK
5
1C
100
AcDbEntity
100
AcDbBlockBegin
2
*PAPER_SPACE
0
ENDBLK
5
1D
100
AcDbEntity
100
AcDbBlockEnd
0
ENDSEC
0
SECTION
2
ENTITIES
0
LINE
5
100
100
AcDbEntity
8
0
100
AcDbLine
10
28.314694877579306
20
-248.35750008942603
30
0
11
30.524449744667894
21
-248.35750008942603
31
0
0
LINE
5
101
100
AcDbEntity
8
0
100
AcDbLine
10
30.524449744667894
20
-248.35750008942603
30
0
11
30.524449744667894
21
-251.35750008942603
31
0
0
LINE
5
102
100
AcDbEntity
8
0
100
AcDbLine
10
30.524449744667894
20
-251.35750008942603
30
0
11
28.023352507096181
21
-251.35750008942603
31
0
0
SPLINE
5
103
100
AcDbEntity
8
0
100
AcDbSpline
70
0
71
3
72
16
73
12
74
0
42
0.000000001
43
0.0000000001
44
0.0000000001
40
-8.4065347469570924
40
-8.4065347469570924
40
-8.4065347469570924
40
-8.4065347469570924
40
-7.1696108329390347
40
-7.1696108329390347
40
-6.0630043346302323
40
-6.0630043346302323
40
-5.0916217328390889
40
-5.0916217328390889
40
-3.9816635803154239
40
-3.9816635803154239
40
0
40
0
40
0
40
0
10
28.023352507096146
20
-251.35750008942603
30
0
10
27.849629834164883
20
-252.78532273918364
30
0
10
27.631944112609158
20
-254.05683609043183
30
0
10
27.055031065198591
20
-256.13129836421376
30
0
10
26.723630628271053
20
-256.92847445190938
30
0
10
25.945887209164358
20
-258.15782388258128
30
0
10
25.504527319770865
20
-258.64449008484434
30
0
10
24.322390363102059
20
-259.50055996714389
30
0
10
23.568555338916234
20
-259.82893304614316
30
0
10
19.404252514576207
20
-260.90903176400514
30
0
10
14.772211934384746
20
-260.56953465389364
30
0
10
1.5000000000000002
20
-260.56953465389364
30
0
0
LINE
5
104
100
AcDbEntity
8
0
100
AcDbLine
10
1.4999999999999964
20
-260.56953465389364
30
0
11
-1.4999999999999991
21
-260.56953465389364
31
0
0
SPLINE
5
105
100
AcDbEntity
8
0
100
AcDbSpline
70
0
71
3
72
16
73
12
74
0
42
0.000000001
43
0.0000000001
44
0.0000000001
40
-3.4356681143229122
40
-3.4356681143229122
40
-3.4356681143229122
40
-3.4356681143229122
40
-2.1401227216918248
40
-2.1401227216918248
40
-1.5885259223479942
40
-1.5885259223479942
40
-1.223067442261359
40
-1.223067442261359
40
-0.82484565569814194
40
-0.82484565569814194
40
0
40
0
40
0
40
0
10
-1.5000000000000002
20
-260.56953465389364
30
0
10
-11.725156027427651
20
-260.56953465389364
30
0
10
-16.258046000940375
20
-260.75467047456135
30
0
10
-20.951333516343542
20
-260.41991054212724
30
0
10
-22.216899512009256
20
-260.23997987896331
30
0
10
-23.998254788879937
20
-259.63859502021415
30
0
10
-24.607483713492755
20
-259.32445808488512
30
0
10
-25.703762676725319
20
-258.45437426353533
30
0
10
-26.143761217473251
20
-257.90259473031762
30
0
10
-27.228843999178917
20
-255.94950833547924
30
0
10
-27.69127252730793
20
-254.08685779888452
30
0
10
-28.023352507096146
20
-251.35750008942603
30
0
0
LINE
5
106
100
AcDbEntity
8
0
100
AcDbLine
10
-28.023352507096146
20
-251.35750008942597
30
0
11
-30.524449744667894
21
-251.35750008942603
31
0
0
LINE
5
107
100
AcDbEntity
8
0
100
AcDbLine
10
-30.524449744667894
20
-251.35750008942603
30
0
11
-30.524449744667894
21
-248.35750008942603
31
0
0
LINE
5
108
100
AcDbEntity
8
0
100
AcDbLine
10
-30.524449744667894
20
-248.35750008942603
30
0
11
-28.314694877579303
21
-248.35750008942603
31
0
0
SPLINE
5
109
100
AcDbEntity
8
0
100
AcDbSpline
70
0
71
3
72
10
73
6
74
0
42
0.000000001
43
0.0000000001
44
0.0000000001
40
-0.84689250792233373
40
-0.84689250792233373
40
-0.84689250792233373
40
-0.84689250792233373
40
-0.43722884166798742
40
-0.43722884166798742
40
0
40
0
40
0
40
0
10
-28.314694877579409
20
-248.35750008942483
30
0
10
-28.56637582036004
20
-245.13869604898366
30
0
10
-28.718424849993962
20
-241.28305456940319
30
0
10
-29.089119038569073
20
-233.43674180031064
30
0
10
-29.205526435646515
20
-231.7017673523392
30
0
10
-29.284891641457783
20
-230.24650042472032
30
0
0
LINE
5
110
100
AcDbEntity
8
0
100
AcDbLine
10
-29.284891641457776
20
-230.24650042472032
30
0
11
-31.647645548713754
21
-230.24650042472041
31
0
0
LINE
5
111
100
AcDbEntity
8
0
100
AcDbLine
10
-31.647645548713754
20
-230.24650042472041
30
0
11
-31.647645548713736
21
-227.24650042472041
31
0
0
LINE
5
112
100
AcDbEntity
8
0
100
AcDbLine
10
-31.647645548713736
20
-227.24650042472041
30
0
11
-29.433930399299761
21
-227.24650042472041
31
0
0
SPLINE
5
113
100
AcDbEntity
8
0
100
AcDbSpline
70
0
71
3
72
10
73
6
74
0
42
0.000000001
43
0.0000000001
44
0.0000000001
40
-2.9122741794093869
40
-2.9122741794093869
40
-2.9122741794093869
40
-2.9122741794093869
40
-2.5519357822467579
40
-2.5519357822467579
40
0
40
0
40
0
40
0
10
-29.433930399299761
20
-227.24650042472041
30
0
10
-29.637912135996338
20
-222.66983498812505
30
0
10
-30.022897699269006
20
-210.94642246465438
30
0
10
-30.335109098370975
20
-201.53559769255665
30
0
10
-30.604878493614688
20
-192.73872637693461
30
0
10
-30.792439885643091
20
-184.23434182026739
30
0
0
LINE
5
114
100
AcDbEntity
8
0
100
AcDbLine
10
-30.792439885643091
20
-184.23434182026739
30
0
11
-32.772579449926802
21
-184.23434182026466
31
0
0
LINE
5
115
100
AcDbEntity
8
0
100
AcDbLine
10
-32.772579449926802
20
-184.23434182026466
30
0
11
-32.772579449926802
21
-181.23434182026469
31
0
0
LINE
5
116
100
AcDbEntity
8
0
100
AcDbLine
10
-32.772579449926802
20
-181.23434182026469
30
0
11
-30.855493586796541
21
-181.23434182026469
31
0
0
SPLINE
5
117
100
AcDbEntity
8
0
100
AcDbSpline
70
0
71
3
72
10
73
6
74
0
42
0.000000001
43
0.0000000001
44
0.0000000001
40
-2.6241774345896407
40
-2.6241774345896407
40
-2.6241774345896407
40
-2.6241774345896407
40
-1.1757329748580063
40
-1.1757329748580063
40
0
40
0
40
0
40
0
10
-30.855493586796694
20
-181.23434182025701
30
0
10
-31.012736890051812
20
-173.35506469307654
30
0
10
-31.092356408361368
20
-166.1215159472687
30
0
10
-31.117174450620997
20
-151.46578432048241
30
0
10
-31.070482500167266
20
-142.14123610411963
30
0
10
-31.049340271618064
20
-138.22218321580885
30
0
0
LINE
5
118
100
AcDbEntity
8
0
100
AcDbLine
10
-31.049340271618064
20
-138.22218321580883
30
0
11
-32.898452585991009
21
-138.22218321580885
31
0
0
LINE
5
119
100
AcDbEntity
8
0
100
AcDbLine
10
-32.898452585991009
20
-138.22218321580885
30
0
11
-32.898452585991009
21
-135.22218321580885
31
0
0
LINE
5
120
100
AcDbEntity
8
0
100
AcDbLine
10
-32.898452585991009
20
-135.22218321580885
30
0
11
-31.032363498665401
21
-135.22218321580885
31
0
0
SPLINE
5
121
100
AcDbEntity
8
0
100
AcDbSpline
70
0
71
3
72
10
73
6
74
0
42
0.000000001
43
0.0000000001
44
0.0000000001
40
-4.2742430774472622
40
-4.2742430774472622
40
-4.2742430774472622
40
-4.2742430774472622
40
-2.2840954108596732
40
-2.2840954108596732
40
0
40
0
40
0
40
0
10
-31.032363498665415
20
-135.22218321580883
30
0
10
-30.998608021526628
20
-129.55859610865565
30
0
10
-30.94109147180405
20
-121.76912536836915
30
0
10
-30.617504846873498
20
-107.41394066985518
30
0
10
-30.31229906321159
20
-99.802604177102381
30
0
10
-29.74624013116788
20
-92.210024611353077
30
0
0
LINE
5
122
100
AcDbEntity
8
0
100
AcDbLine
10
-29.74624013116788
20
-92.210024611353077
30
0
11
-31.33647761010284
21
-92.210024611353077
31
0
0
LINE
5
123
100
AcDbEntity
8
0
100
AcDbLine
10
-31.33647761010284
20
-92.210024611353077
30
0
11
-31.33647761010284
21
-89.210024611353077
31
0
0
LINE
5
124
100
AcDbEntity
8
0
100
AcDbLine
10
-31.33647761010284
20
-89.210024611353077
30
0
11
-29.508431728524389
21
-89.210024611353077
31
0
0
SPLINE
5
125
100
AcDbEntity
8
0
100
AcDbSpline
70
0
71
3
72
10
73
6
74
0
42
0.000000001
43
0.0000000001
44
0.0000000001
40
-4.3473714319047687
40
-4.3473714319047687
40
-4.3473714319047687
40
-4.3473714319047687
40
-2.020145519826742
40
-2.020145519826742
40
0
40
0
40
0
40
0
10
-29.50843172837358
20
-89.210024611365753
30
0
10
-28.86199195113435
20
-81.524204841608935
30
0
10
-27.897000232796838
20
-73.538074014565552
30
0
10
-25.150678914464621
20
-59.385672486163713
30
0
10
-23.357534041695338
20
-52.414184753332862
30
0
10
-20.768771503494964
20
-46.19786600690334
30
0
0
LINE
5
126
100
AcDbEntity
8
0
100
AcDbLine
10
-20.768771503494964
20
-46.19786600690334
30
0
11
-21.398005642440694
21
-46.197866006897286
31
0
0
LINE
5
127
100
AcDbEntity
8
0
100
AcDbLine
10
-21.398005642440694
20
-46.197866006897286
30
0
11
-21.398005642440694
21
-43.197866006897243
31
0
0
LINE
5
128
100
AcDbEntity
8
0
100
AcDbLine
10
-21.398005642440694
20
-43.197866006897243
30
0
11
-19.427040499597609
21
-43.197866006897243
31
0
0
SPLINE
5
129
100
AcDbEntity
8
0
100
AcDbSpline
70
0
71
3
72
14
73
10
74
0
42
0.000000001
43
0.0000000001
44
0.0000000001
40
-2.2328731558667547
40
-2.2328731558667547
40
-2.2328731558667547
40
-2.2328731558667547
40
-1.5108982979908343
40
-1.5108982979908343
40
-0.93200937205727519
40
-0.93200937205727519
40
-0.36275877827320269
40
-0.36275877827320269
40
0
40
0
40
0
40
0
10
-19.427040499597609
20
-43.197866006897257
30
0
10
-18.168332701496226
20
-40.57822965606136
30
0
10
-16.700741051550331
20
-38.03690148660769
30
0
10
-13.589507541770921
20
-33.834718241959706
30
0
10
-12.021590397059782
20
-32.077189950386391
30
0
10
-8.5517461820698131
20
-29.074098393960107
30
0
10
-6.7575602275542739
20
-27.911265782337715
30
0
10
-3.8912771537642947
20
-26.721481718088754
30
0
10
-2.7072924664379916
20
-26.399802425634867
30
0
10
-1.5000000000000002
20
-26.331981398278302
30
0
0
LINE
5
130
100
AcDbEntity
8
0
100
AcDbLine
10
-1.5000000000000004
20
-26.331981398278302
30
0
11
1.4999999999999991
21
-26.331981398278295
31
0
0
SPLINE
5
131
100
AcDbEntity
8
0
100
AcDbSpline
70
0
71
3
72
12
73
8
74
0
42
0.000000001
43
0.0000000001
44
0.0000000001
40
-4.107257619365825
40
-4.107257619365825
40
-4.107257619365825
40
-4.107257619365825
40
-3.1330334216953148
40
-3.1330334216953148
40
-2.0081581194172089
40
-2.0081581194172089
40
0
40
0
40
0
40
0
10
1.5000000000000002
20
-26.331981398278302
30
0
10
3.0080957869623912
20
-26.416700394269114
30
0
10
4.4839859270232321
20
-26.898218109376767
30
0
10
7.4016243282923817
20
-28.325375713036106
30
0
10
9.0111765658533116
20
-29.432402288112947
30
0
10
13.395986663075629
20
-33.348985250418146
30
0
10
16.527998938987814
20
-37.16434920004756
30
0
10
19.427040499597609
20
-43.197866006897257
30
0
0
LINE
5
132
100
AcDbEntity
8
0
100
AcDbLine
10
19.427040499597609
20
-43.197866006897257
30
0
11
21.398005642440694
21
-43.197866006897243
31
0
0
LINE
5
133
100
AcDbEntity
8
0
100
AcDbLine
10
21.398005642440694
20
-43.197866006897243
30
0
11
21.398005642440694
21
-46.197866006897286
31
0
0
LINE
5
134
100
AcDbEntity
8
0
100
AcDbLine
10
21.398005642440694
20
-46.197866006897286
30
0
11
20.768771503509534
21
-46.197866006897286
31
0
0
SPLINE
5
135
100
AcDbEntity
8
0
100
AcDbSpline
70
0
71
3
72
10
73
6
74
0
42
0.000000001
43
0.0000000001
44
0.0000000001
40
-4.3224540346668601
40
-4.3224540346668601
40
-4.3224540346668601
40
-4.3224540346668601
40
-2.3138871823601024
40
-2.3138871823601024
40
0
40
0
40
0
40
0
10
20.768771503494964
20
-46.19786600690334
30
0
10
23.357534041695338
20
-52.414184753332862
30
0
10
25.150678914464621
20
-59.385672486163713
30
0
10
27.897000232796838
20
-73.538074014565552
30
0
10
28.86199195113435
20
-81.524204841608935
30
0
10
29.50843172837358
20
-89.210024611365753
30
0
0
LINE
5
136
100
AcDbEntity
8
0
100
AcDbLine
10
29.508431728373587
20
-89.210024611365782
30
0
11
31.336477610102843
21
-89.210024611353077
31
0
0
LINE
5
137
100
AcDbEntity
8
0
100
AcDbLine
10
31.336477610102843
20
-89.210024611353077
30
0
11
31.336477610102843
21
-92.210024611353077
31
0
0
LINE
5
138
100
AcDbEntity
8
0
100
AcDbLine
10
31.336477610102843
20
-92.210024611353077
30
0
11
29.746240131167877
21
-92.210024611353077
31
0
0
SPLINE
5
139
100
AcDbEntity
8
0
100
AcDbSpline
70
0
71
3
72
10
73
6
74
0
42
0.000000001
43
0.0000000001
44
0.0000000001
40
-3.649173126242919
40
-3.649173126242919
40
-3.649173126242919
40
-3.649173126242919
40
-1.6991063097197212
40
-1.6991063097197212
40
0
40
0
40
0
40
0
10
29.74624013116788
20
-92.210024611353077
30
0
10
30.31229906321159
20
-99.802604177102381
30
0
10
30.617504846873498
20
-107.41394066985518
30
0
10
30.94109147180405
20
-121.76912536836915
30
0
10
30.998608021526628
20
-129.55859610865565
30
0
10
31.032363498665415
20
-135.22218321580883
30
0
0
LINE
5
140
100
AcDbEntity
8
0
100
AcDbLine
10
31.032363498665415
20
-135.22218321580883
30
0
11
32.898452585991016
21
-135.22218321580885
31
0
0
LINE
5
141
100
AcDbEntity
8
0
100
AcDbLine
10
32.898452585991016
20
-135.22218321580885
30
0
11
32.898452585991009
21
-138.22218321580885
31
0
0
LINE
5
142
100
AcDbEntity
8
0
100
AcDbLine
10
32.898452585991009
20
-138.22218321580885
30
0
11
31.049340271618053
21
-138.22218321580885
31
0
0
SPLINE
5
143
100
AcDbEntity
8
0
100
AcDbSpline
70
0
71
3
72
10
73
6
74
0
42
0.000000001
43
0.0000000001
44
0.0000000001
40
-4.2833685622588611
40
-4.2833685622588611
40
-4.2833685622588611
40
-4.2833685622588611
40
-2.3642537967188555
40
-2.3642537967188555
40
0
40
0
40
0
40
0
10
31.049340271618064
20
-138.22218321580885
30
0
10
31.070482500167266
20
-142.14123610411963
30
0
10
31.117174450620997
20
-151.46578432048241
30
0
10
31.092356408361368
20
-166.1215159472687
30
0
10
31.012736890051812
20
-173.35506469307654
30
0
10
30.855493586796694
20
-181.23434182025701
30
0
0
LINE
5
144
100
AcDbEntity
8
0
100
AcDbLine
10
30.855493586796694
20
-181.23434182025699
30
0
11
32.772579449926795
21
-181.23434182026469
31
0
0
LINE
5
145
100
AcDbEntity
8
0
100
AcDbLine
10
32.772579449926795
20
-181.23434182026469
30
0
11
32.772579449926795
21
-184.23434182026466
31
0
0
LINE
5
146
100
AcDbEntity
8
0
100
AcDbLine
10
32.772579449926795
20
-184.23434182026466
30
0
11
30.792439885643155
21
-184.23434182026466
31
0
0
SPLINE
5
147
100
AcDbEntity
8
0
100
AcDbSpline
70
0
71
3
72
10
73
6
74
0
42
0.000000001
43
0.0000000001
44
0.0000000001
40
-11.10767255535411
40
-11.10767255535411
40
-11.10767255535411
40
-11.10767255535411
40
-1.3743626726846643
40
-1.3743626726846643
40
0
40
0
40
0
40
0
10
30.792439885643091
20
-184.23434182026739
30
0
10
30.604878493614688
20
-192.73872637693461
30
0
10
30.335109098370975
20
-201.53559769255665
30
0
10
30.022897699269006
20
-210.94642246465438
30
0
10
29.637912135996338
20
-222.66983498812505
30
0
10
29.433930399299761
20
-227.24650042472041
30
0
0
LINE
5
148
100
AcDbEntity
8
0
100
AcDbLine
10
29.433930399299758
20
-227.24650042472038
30
0
11
31.64764554871374
21
-227.24650042472041
31
0
0
LINE
5
149
100
AcDbEntity
8
0
100
AcDbLine
10
31.64764554871374
20
-227.24650042472041
30
0
11
31.647645548713751
21
-230.24650042472041
31
0
0
LINE
5
150
100
AcDbEntity
8
0
100
AcDbLine
10
31.647645548713751
20
-230.24650042472041
30
0
11
29.284891641458863
21
-230.24650042472041
31
0
0
SPLINE
5
151
100
AcDbEntity
8
0
100
AcDbSpline
70
0
71
3
72
10
73
6
74
0
42
0.000000001
43
0.0000000001
44
0.0000000001
40
-2.0023509127070751
40
-2.0023509127070751
40
-2.0023509127070751
40
-2.0023509127070751
40
-0.96858858515706392
40
-0.96858858515706392
40
0
40
0
40
0
40
0
10
29.284891641457783
20
-230.24650042472032
30
0
10
29.20552643564648
20
-231.70176735233986
30
0
10
29.089119038568079
20
-233.43674180033216
30
0
10
28.718424849994332
20
-241.28305456939461
30
0
10
28.566375820360285
20
-245.13869604898053
30
0
10
28.314694877579409
20
-248.35750008942483
30
0
0
SPLINE
5
152
100
AcDbEntity
8
0
100
AcDbSpline
70
0
71
3
72
32
73
28
74
0
42
0.000000001
43
0.0000000001
44
0.0000000001
40
-15.391938313086625
40
-15.391938313086625
40
-15.391938313086625
40
-15.391938313086625
40
-15.190120054597305
40
-15.190120054597305
40
-14.763702411402777
40
-14.763702411402777
40
-14.423522330880351
40
-14.423522330880351
40
-14.17256852778665
40
-14.17256852778665
40
-13.97534083040577
40
-13.97534083040577
40
-13.664296464835134
40
-13.664296464835134
40
-13.100658190411785
40
-13.100658190411785
40
-12.260822850489379
40
-12.260822850489379
40
-9.5130459268481928
40
-9.5130459268481928
40
-4.4807190825129481
40
-4.4807190825129481
40
-2.4343452669952326
40
-2.4343452669952326
40
-1.2335324645581087
40
-1.2335324645581087
40
0
40
0
40
0
40
0
10
1.5000000000000002
20
-264.6848222109237
30
0
10
4.9940367428362444
20
-264.6848222109237
30
0
10
7.6076268702729744
20
-264.66297560918247
30
0
10
16.113707007079178
20
-264.00941109820906
30
0
10
20.094000986971608
20
-262.91774216309261
30
0
10
24.804168685678324
20
-261.21245365558048
30
0
10
26.601118992046761
20
-260.32339663544673
30
0
10
29.040559254248272
20
-258.53581415027759
30
0
10
29.935767907540548
20
-257.64441012135336
30
0
10
31.125544989451019
20
-255.6791460788925
30
0
10
31.631462621464102
20
-254.48162743492173
30
0
10
33.075010707579402
20
-247.37886853315092
30
0
10
33.190138935114739
20
-243.59959978650548
30
0
10
33.58150752753302
20
-227.29609230205571
30
0
10
33.871021818827771
20
-222.04792386803234
30
0
10
34.830045109124576
20
-195.89814502476258
30
0
10
35.085131857868554
20
-183.64631968118758
30
0
10
35.704136615050089
20
-127.41481208140982
30
0
10
34.030277868646891
20
-96.243177839336596
30
0
10
32.621414071772193
20
-74.226748362640933
30
0
10
31.301901315802191
20
-63.790042614957386
30
0
10
26.171137100682223
20
-48.400951821209972
30
0
10
23.685251342044204
20
-42.049383104577473
30
0
10
17.81555944881972
20
-33.02597507933389
30
0
10
15.249564593739748
20
-29.954514375466065
30
0
10
8.9592404466493463
20
-24.860873572192105
30
0
10
5.4471398155932782
20
-23.057909174336348
30
0
10
1.5000000000000002
20
-21.906049827342947
30
0
0
LINE
5
153
100
AcDbEntity
8
0
100
AcDbLine
10
1.4999999999999982
20
-21.906049827342944
30
0
11
1.4999999999999991
21
-23.968068666644839
31
0
0
LINE
5
154
100
AcDbEntity
8
0
100
AcDbLine
10
1.4999999999999991
20
-23.968068666644839
30
0
11
-1.4999999999999991
21
-23.968068666644839
31
0
0
LINE
5
155
100
AcDbEntity
8
0
100
AcDbLine
10
-1.4999999999999991
20
-23.968068666644839
30
0
11
-1.4999999999999991
21
-21.906049827342962
31
0
0
SPLINE
5
156
100
AcDbEntity
8
0
100
AcDbSpline
70
0
71
3
72
32
73
28
74
0
42
0.000000001
43
0.0000000001
44
0.0000000001
40
-19.432812502884342
40
-19.432812502884342
40
-19.432812502884342
40
-19.432812502884342
40
-18.919091287922342
40
-18.919091287922342
40
-18.435533917714441
40
-18.435533917714441
40
-17.516904099685025
40
-17.516904099685025
40
-15.549690377034139
40
-15.549690377034139
40
-11.71799067252668
40
-11.71799067252668
40
-8.9009893342500082
40
-8.9009893342500082
40
-6.9141010181171652
40
-6.9141010181171652
40
-5.6773337126098928
40
-5.6773337126098928
40
-4.9238652702478269
40
-4.9238652702478269
40
-3.624380782276293
40
-3.624380782276293
40
-2.5745999857988071
40
-2.5745999857988071
40
-1.4484028448627879
40
-1.4484028448627879
40
0
40
0
40
0
40
0
10
-1.5000000000000002
20
-21.906049827342947
30
0
10
-4.7322263222454621
20
-22.84928221201006
30
0
10
-7.7011631659549051
20
-24.237417228966677
30
0
10
-13.047790711065053
20
-27.9825155388199
30
0
10
-15.298941798946185
20
-30.174262534696016
30
0
10
-21.061213926203028
20
-37.301059564085932
30
0
10
-23.874601448476852
20
-42.922808726995605
30
0
10
-30.449642724596288
20
-59.541473044104329
30
0
10
-31.900400081884115
20
-69.98683964376275
30
0
10
-34.283516340893684
20
-93.938907740512292
30
0
10
-35.569507530113377
20
-129.24227840168217
30
0
10
-35.054956087055984
20
-193.00359321856206
30
0
10
-34.251434260806981
20
-211.8946649713198
30
0
10
-33.494903630810398
20
-231.01279308011658
30
0
10
-33.495612446464143
20
-231.67294566334377
30
0
10
-33.153478621805817
20
-244.50766867930929
30
0
10
-32.969194693091886
20
-247.88988113055711
30
0
10
-31.725157891025241
20
-254.02644127392617
30
0
10
-31.33434730867156
20
-255.03775159989019
30
0
10
-30.810652188686735
20
-256.26395558203984
30
0
10
-30.291650893010527
20
-257.18350626704483
30
0
10
-28.609839513292354
20
-258.89557909741774
30
0
10
-27.319544825163504
20
-259.96532882632766
30
0
10
-22.284243039072294
20
-262.27955742994118
30
0
10
-18.985797267649357
20
-263.23941526806198
30
0
10
-10.606481381140609
20
-264.64255761851962
30
0
10
-6.3280094828759603
20
-264.6848222109237
30
0
10
-1.5000000000000002
20
-264.6848222109237
30
0
0
LINE
5
157
100
AcDbEntity
8
0
100
AcDbLine
10
-1.499999999999998
20
-264.6848222109237
30
0
11
-1.4999999999999991
21
-262.69829599514816
31
0
0
LINE
5
158
100
AcDbEntity
8
0
100
AcDbLine
10
-1.4999999999999991
20
-262.69829599514816
30
0
11
1.4999999999999991
21
-262.69829599514816
31
0
0
LINE
5
159
100
AcDbEntity
8
0
100
AcDbLine
10
1.4999999999999991
20
-262.69829599514816
30
0
11
1.5000000000000002
21
-264.6848222109237
31
0
0
ENDSEC
0
SECTION
2
OBJECTS
0
DICTIONARY
5
C
100
AcDbDictionary
3
ACAD_GROUP
350
D
3
ACAD_MLINESTYLE
350
17
0
DICTIONARY
5
D
100
AcDbDictionary
0
DICTIONARY
5
1A
330
C
100
AcDbDictionary
0
DICTIONARY
5
17
100
AcDbDictionary
0
ENDSEC
0
EOF
