0
SECTION
2
HEADER
9
$INSUNITS
70
4
9
$ACADVER
1
AC1014
9
$HANDSEED
5
FFFF
0
ENDSEC
0
SECTION
2
TABLES
0
TABLE
2
VPORT
5
8
100
AcDbSymbolTable
0
ENDTAB
0
TABLE
2
LTYPE
5
5
100
AcDbSymbolTable
0
LTYPE
5
14
100
AcDbSymbolTableRecord
100
AcDbLinetypeTableRecord
2
BYBLOCK
70
0
0
LTYPE
5
15
100
AcDbSymbolTableRecord
100
AcDbLinetypeTableRecord
2
BYLAYER
70
0
0
ENDTAB
0
TABLE
2
LAYER
5
2
100
AcDbSymbolTable
70
2
0
LAYER
5
50
100
AcDbSymbolTableRecord
100
AcDbLayerTableRecord
2
0
70
0
6
CONTINUOUS
0
ENDTAB
0
TABLE
2
STYLE
5
3
100
AcDbSymbolTable
70
1
0
STYLE
5
11
100
AcDbSymbolTableRecord
100
AcDbTextStyleTableRecord
2
STANDARD
70
0
0
ENDTAB
0
TABLE
2
VIEW
5
6
100
AcDbSymbolTable
70
0
0
ENDTAB
0
TABLE
2
UCS
5
7
100
AcDbSymbolTable
70
0
0
ENDTAB
0
TABLE
2
APPID
5
9
100
AcDbSymbolTable
70
2
0
APPID
5
12
100
AcDbSymbolTableRecord
100
AcDbRegAppTableRecord
2
ACAD
70
0
0
ENDTAB
0
TABLE
2
DIMSTYLE
5
A
100
AcDbSymbolTable
70
1
0
ENDTAB
0
TABLE
2
BLOCK_RECORD
5
1
100
AcDbSymbolTable
70
1
0
BLOCK_RECORD
5
1F
100
AcDbSymbolTableRecord
100
AcDbBlockTableRecord
2
*MODEL_SPACE
0
BLOCK_RECORD
5
1B
100
AcDbSymbolTableRecord
100
AcDbBlockTableRecord
2
*PAPER_SPACE
0
ENDTAB
0
ENDSEC
0
SECTION
2
BLOCKS
0
BLOCK
5
20
100
AcDbEntity
100
AcDbBlockBegin
2
*MODEL_SPACE
0
ENDBLK
5
21
100
AcDbEntity
100
AcDbBlockEnd
0
BLOCK
5
1C
100
AcDbEntity
100
AcDbBlockBegin
2
*PAPER_SPACE
0
ENDBLK
5
1D
100
AcDbEntity
100
AcDbBlockEnd
0
ENDSEC
0
SECTION
2
ENTITIES
0
SPLINE
5
100
100
AcDbEntity
8
0
100
AcDbSpline
70
0
71
3
72
10
73
6
74
0
42
0.000000001
43
0.0000000001
44
0.0000000001
40
-1.7821383414214675
40
-1.7821383414214675
40
-1.7821383414214675
40
-1.7821383414214675
40
-1.0030276744279878
40
-1.0030276744279878
40
0
40
0
40
0
40
0
10
-26.447019008505922
20
-248.35750008942603
30
0
10
-26.815409402827445
20
-245.77811061931317
30
0
10
-27.116690916020541
20
-242.99945998539431
30
0
10
-27.671703053018852
20
-237.07493987564209
30
0
10
-27.93077626633886
20
-233.58301400764577
30
0
10
-28.145652345725377
20
-230.24650042472044
30
0
0
LINE
5
101
100
AcDbEntity
8
0
100
AcDbLine
10
-28.145652345725377
20
-230.24650042472044
30
0
11
-30.330133389500226
21
-230.24650042472044
31
0
0
LINE
5
102
100
AcDbEntity
8
0
100
AcDbLine
10
-30.330133389500226
20
-230.24650042472044
30
0
11
-30.330133389500219
21
-227.24650042472047
31
0
0
LINE
5
103
100
AcDbEntity
8
0
100
AcDbLine
10
-30.330133389500219
20
-227.24650042472047
30
0
11
-28.330133389500215
21
-227.24650042472047
31
0
0
SPLINE
5
104
100
AcDbEntity
8
0
100
AcDbSpline
70
0
71
3
72
10
73
6
74
0
42
0.000000001
43
0.0000000001
44
0.0000000001
40
-4.2028730559970011
40
-4.2028730559970011
40
-4.2028730559970011
40
-4.2028730559970011
40
-2.2288109643811644
40
-2.2288109643811644
40
0
40
0
40
0
40
0
10
-28.330133389500226
20
-227.24650042472047
30
0
10
-28.719421973920078
20
-220.61915561929337
30
0
10
-29.022161286593658
20
-213.49907379354676
30
0
10
-29.52065836157113
20
-199.4680261325598
30
0
10
-29.734372466077353
20
-191.66195459707396
30
0
10
-29.895943721284326
20
-184.23434182026466
30
0
0
LINE
5
105
100
AcDbEntity
8
0
100
AcDbLine
10
-29.895943721284326
20
-184.23434182026466
30
0
11
-31.958814896063462
21
-184.23434182026466
31
0
0
LINE
5
106
100
AcDbEntity
8
0
100
AcDbLine
10
-31.958814896063462
20
-184.23434182026466
30
0
11
-31.958814896063462
21
-181.23434182026469
31
0
0
LINE
5
107
100
AcDbEntity
8
0
100
AcDbLine
10
-31.958814896063462
20
-181.23434182026469
30
0
11
-29.958814896063458
21
-181.23434182026469
31
0
0
SPLINE
5
108
100
AcDbEntity
8
0
100
AcDbSpline
70
0
71
3
72
10
73
6
74
0
42
0.000000001
43
0.0000000001
44
0.0000000001
40
-4.3186388380695941
40
-4.3186388380695941
40
-4.3186388380695941
40
-4.3186388380695941
40
-2.0980446273536395
40
-2.0980446273536395
40
0
40
0
40
0
40
0
10
-29.958814896063465
20
-181.23434182026466
30
0
10
-30.105488011976192
20
-173.95913876605044
30
0
10
-30.215527451308368
20
-166.40641321303991
30
0
10
-30.312482848082091
20
-152.1379132972607
30
0
10
-30.307644943059678
20
-145.21522683299088
30
0
10
-30.229333208111257
20
-138.22218321580903
30
0
0
LINE
5
109
100
AcDbEntity
8
0
100
AcDbLine
10
-30.229333208111264
20
-138.22218321580903
30
0
11
-32.191310304413001
21
-138.22218321580885
31
0
0
LINE
5
110
100
AcDbEntity
8
0
100
AcDbLine
10
-32.191310304413001
20
-138.22218321580885
30
0
11
-32.191310304413001
21
-135.22218321580885
31
0
0
LINE
5
111
100
AcDbEntity
8
0
100
AcDbLine
10
-32.191310304413001
20
-135.22218321580885
30
0
11
-30.191310304413001
21
-135.22218321580885
31
0
0
SPLINE
5
112
100
AcDbEntity
8
0
100
AcDbSpline
70
0
71
3
72
10
73
6
74
0
42
0.000000001
43
0.0000000001
44
0.0000000001
40
-4.2689922530619038
40
-4.2689922530619038
40
-4.2689922530619038
40
-4.2689922530619038
40
-2.1884839591555578
40
-2.1884839591555578
40
0
40
0
40
0
40
0
10
-30.191310304413001
20
-135.22218321580885
30
0
10
-30.092930099242192
20
-128.27205524756599
30
0
10
-29.922819657749518
20
-121.32045942069097
30
0
10
-29.443428690299154
20
-107.42650290169222
30
0
10
-29.089646314552486
20
-99.487213896882096
30
0
10
-28.580960767573131
20
-92.210024611353063
30
0
0
LINE
5
113
100
AcDbEntity
8
0
100
AcDbLine
10
-28.580960767573128
20
-92.210024611353049
30
0
11
-30.35960051221997
21
-92.210024611353077
31
0
0
LINE
5
114
100
AcDbEntity
8
0
100
AcDbLine
10
-30.35960051221997
20
-92.210024611353077
30
0
11
-30.35960051221997
21
-89.210024611353077
31
0
0
LINE
5
115
100
AcDbEntity
8
0
100
AcDbLine
10
-30.35960051221997
20
-89.210024611353077
30
0
11
-28.35960051221997
21
-89.210024611353077
31
0
0
SPLINE
5
116
100
AcDbEntity
8
0
100
AcDbSpline
70
0
71
3
72
10
73
6
74
0
42
0.000000001
43
0.0000000001
44
0.0000000001
40
-4.3612336665093299
40
-4.3612336665093299
40
-4.3612336665093299
40
-4.3612336665093299
40
-2.0420349720473134
40
-2.0420349720473134
40
0
40
0
40
0
40
0
10
-28.359600512219973
20
-89.210024611353077
30
0
10
-27.767164026182662
20
-81.601422968998804
30
0
10
-26.893286260619689
20
-73.557645455298569
30
0
10
-24.108626601067389
20
-59.251409051938296
30
0
10
-22.253191518827084
20
-52.425121402579663
30
0
10
-19.504812302736919
20
-46.197866006897279
30
0
0
LINE
5
117
100
AcDbEntity
8
0
100
AcDbLine
10
-19.504812302736916
20
-46.197866006897272
30
0
11
-20.085027222019765
21
-46.19786600689725
31
0
0
LINE
5
118
100
AcDbEntity
8
0
100
AcDbLine
10
-20.085027222019765
20
-46.19786600689725
30
0
11
-20.085027222019765
21
-43.197866006897279
31
0
0
LINE
5
119
100
AcDbEntity
8
0
100
AcDbLine
10
-20.085027222019765
20
-43.197866006897279
30
0
11
-18.085027222019765
21
-43.197866006897279
31
0
0
SPLINE
5
120
100
AcDbEntity
8
0
100
AcDbSpline
70
0
71
3
72
10
73
6
74
0
42
0.000000001
43
0.0000000001
44
0.0000000001
40
-0.38900481796682429
40
-0.38900481796682429
40
-0.38900481796682429
40
-0.38900481796682429
40
-0.16832933323978802
40
-0.16832933323978802
40
0
40
0
40
0
40
0
10
-18.085027222019761
20
-43.197866006897257
30
0
10
-17.204196093673293
20
-41.461502037671345
30
0
10
-16.229046087948277
20
-39.754854109669743
30
0
10
-14.372441997358894
20
-36.935988017735021
30
0
10
-13.687374673472563
20
-36.030251562325049
30
0
10
-13.314960495800655
20
-35.610563111035049
30
0
0
SPLINE
5
121
100
AcDbEntity
8
0
100
AcDbSpline
70
0
71
3
72
12
73
8
74
0
42
0.000000001
43
0.0000000001
44
0.0000000001
40
-1.3709532043301336
40
-1.3709532043301336
40
-1.3709532043301336
40
-1.3709532043301336
40
-0.82754341343411209
40
-0.82754341343411209
40
-0.38178666341822454
40
-0.38178666341822454
40
0
40
0
40
0
40
0
10
-13.314960495786753
20
-35.610563111020454
30
0
10
-12.068395447694302
20
-34.307702724536064
30
0
10
-10.661282816276877
20
-32.992181373303978
30
0
10
-7.9673183078942351
20
-31.062225632974329
30
0
10
-6.6565304851709701
20
-30.327753143004781
30
0
10
-4.0222007387811356
20
-29.469148779084179
30
0
10
-2.7703405353892405
20
-29.28670015887829
30
0
10
-1.5000000000000002
20
-29.362872444393041
30
0
0
LINE
5
122
100
AcDbEntity
8
0
100
AcDbLine
10
-1.5000000000000002
20
-29.362872444393041
30
0
11
1.4999999999999991
21
-29.362872444393027
31
0
0
SPLINE
5
123
100
AcDbEntity
8
0
100
AcDbSpline
70
0
71
3
72
12
73
8
74
0
42
0.000000001
43
0.0000000001
44
0.0000000001
40
-2.1249100750129122
40
-2.1249100750129122
40
-2.1249100750129122
40
-2.1249100750129122
40
-1.6145838607235796
40
-1.6145838607235796
40
-1.0535161646669111
40
-1.0535161646669111
40
0
40
0
40
0
40
0
10
1.5000000000000002
20
-29.362872444393041
30
0
10
2.4413003221947887
20
-29.306430100863963
30
0
10
3.3775974137821096
20
-29.392167377078561
30
0
10
5.3102926605025225
20
-29.837012232742865
30
0
10
6.2758175140351913
20
-30.21584401216121
30
0
10
8.9263264201775794
20
-31.605068033983919
30
0
10
10.887223011790221
20
-33.073188104780272
30
0
10
13.314960495786753
20
-35.610563111020454
30
0
0
SPLINE
5
124
100
AcDbEntity
8
0
100
AcDbSpline
70
0
71
3
72
10
73
6
74
0
42
0.000000001
43
0.0000000001
44
0.0000000001
40
-1.0296483242263819
40
-1.0296483242263819
40
-1.0296483242263819
40
-1.0296483242263819
40
-0.5841011024866416
40
-0.5841011024866416
40
0
40
0
40
0
40
0
10
13.314960495800655
20
-35.610563111035049
30
0
10
13.687374673472563
20
-36.030251562325049
30
0
10
14.372441997358894
20
-36.935988017735021
30
0
10
16.229046087948277
20
-39.754854109669743
30
0
10
17.204196093673293
20
-41.461502037671345
30
0
10
18.085027222019761
20
-43.197866006897257
30
0
0
LINE
5
125
100
AcDbEntity
8
0
100
AcDbLine
10
18.085027222019765
20
-43.197866006897257
30
0
11
20.085027222019765
21
-43.197866006897279
31
0
0
LINE
5
126
100
AcDbEntity
8
0
100
AcDbLine
10
20.085027222019765
20
-43.197866006897279
30
0
11
20.085027222019765
21
-46.19786600689725
31
0
0
LINE
5
127
100
AcDbEntity
8
0
100
AcDbLine
10
20.085027222019765
20
-46.19786600689725
30
0
11
19.504812302736916
21
-46.19786600689725
31
0
0
SPLINE
5
128
100
AcDbEntity
8
0
100
AcDbSpline
70
0
71
3
72
10
73
6
74
0
42
0.000000001
43
0.0000000001
44
0.0000000001
40
-4.3053657036353936
40
-4.3053657036353936
40
-4.3053657036353936
40
-4.3053657036353936
40
-2.2894894616010326
40
-2.2894894616010326
40
0
40
0
40
0
40
0
10
19.504812302736919
20
-46.197866006897279
30
0
10
22.253191518827084
20
-52.425121402579663
30
0
10
24.108626601067389
20
-59.251409051938296
30
0
10
26.893286260619689
20
-73.557645455298569
30
0
10
27.767164026182662
20
-81.601422968998804
30
0
10
28.359600512219973
20
-89.210024611353077
30
0
0
LINE
5
129
100
AcDbEntity
8
0
100
AcDbLine
10
28.359600512219973
20
-89.210024611353077
30
0
11
30.359600512219966
21
-89.210024611353077
31
0
0
LINE
5
130
100
AcDbEntity
8
0
100
AcDbLine
10
30.359600512219966
20
-89.210024611353077
30
0
11
30.359600512219966
21
-92.210024611353077
31
0
0
LINE
5
131
100
AcDbEntity
8
0
100
AcDbLine
10
30.359600512219966
20
-92.210024611353077
30
0
11
28.580960767573131
21
-92.210024611353077
31
0
0
SPLINE
5
132
100
AcDbEntity
8
0
100
AcDbSpline
70
0
71
3
72
10
73
6
74
0
42
0.000000001
43
0.0000000001
44
0.0000000001
40
-4.2787161482372094
40
-4.2787161482372094
40
-4.2787161482372094
40
-4.2787161482372094
40
-2.0852472682040148
40
-2.0852472682040148
40
0
40
0
40
0
40
0
10
28.580960767573131
20
-92.210024611353063
30
0
10
29.0896463145525
20
-99.487213896882253
30
0
10
29.443428690299498
20
-107.42650290170134
30
0
10
29.92281965774934
20
-121.32045942068666
30
0
10
30.092930099242409
20
-128.27205524758409
30
0
10
30.191310304413001
20
-135.22218321580891
30
0
0
LINE
5
133
100
AcDbEntity
8
0
100
AcDbLine
10
30.191310304413001
20
-135.22218321580891
30
0
11
32.191310304413001
21
-135.22218321580885
31
0
0
LINE
5
134
100
AcDbEntity
8
0
100
AcDbLine
10
32.191310304413001
20
-135.22218321580885
30
0
11
32.191310304413001
21
-138.22218321580885
31
0
0
LINE
5
135
100
AcDbEntity
8
0
100
AcDbLine
10
32.191310304413001
20
-138.22218321580885
30
0
11
30.229333208111253
21
-138.22218321580897
31
0
0
SPLINE
5
136
100
AcDbEntity
8
0
100
AcDbSpline
70
0
71
3
72
10
73
6
74
0
42
0.000000001
43
0.0000000001
44
0.0000000001
40
-4.2455337638205606
40
-4.2455337638205606
40
-4.2455337638205606
40
-4.2455337638205606
40
-2.1830044258929369
40
-2.1830044258929369
40
0
40
0
40
0
40
0
10
30.229333208111257
20
-138.22218321580903
30
0
10
30.307644943059678
20
-145.21522683299088
30
0
10
30.312482848082091
20
-152.1379132972607
30
0
10
30.215527451308368
20
-166.40641321303991
30
0
10
30.105488011976192
20
-173.95913876605044
30
0
10
29.958814896063465
20
-181.23434182026466
30
0
0
LINE
5
137
100
AcDbEntity
8
0
100
AcDbLine
10
29.958814896063465
20
-181.23434182026469
30
0
11
31.958814896063465
21
-181.23434182026469
31
0
0
LINE
5
138
100
AcDbEntity
8
0
100
AcDbLine
10
31.958814896063465
20
-181.23434182026469
30
0
11
31.958814896063465
21
-184.23434182026466
31
0
0
LINE
5
139
100
AcDbEntity
8
0
100
AcDbLine
10
31.958814896063465
20
-184.23434182026466
30
0
11
29.895943721284333
21
-184.23434182026466
31
0
0
SPLINE
5
140
100
AcDbEntity
8
0
100
AcDbSpline
70
0
71
3
72
10
73
6
74
0
42
0.000000001
43
0.0000000001
44
0.0000000001
40
-4.2402770315080982
40
-4.2402770315080982
40
-4.2402770315080982
40
-4.2402770315080982
40
-1.9916304952169939
40
-1.9916304952169939
40
0
40
0
40
0
40
0
10
29.895943721284326
20
-184.23434182026466
30
0
10
29.734372466077353
20
-191.66195459707396
30
0
10
29.52065836157113
20
-199.4680261325598
30
0
10
29.022161286593658
20
-213.49907379354676
30
0
10
28.719421973920078
20
-220.61915561929337
30
0
10
28.330133389500226
20
-227.24650042472047
30
0
0
LINE
5
141
100
AcDbEntity
8
0
100
AcDbLine
10
28.330133389500219
20
-227.24650042472047
30
0
11
30.330133389500222
21
-227.24650042472047
31
0
0
LINE
5
142
100
AcDbEntity
8
0
100
AcDbLine
10
30.330133389500222
20
-227.24650042472047
30
0
11
30.330133389500222
21
-230.24650042472044
31
0
0
LINE
5
143
100
AcDbEntity
8
0
100
AcDbLine
10
30.330133389500222
20
-230.24650042472044
30
0
11
28.145652345725374
21
-230.24650042472044
31
0
0
SPLINE
5
144
100
AcDbEntity
8
0
100
AcDbSpline
70
0
71
3
72
10
73
6
74
0
42
0.000000001
43
0.0000000001
44
0.0000000001
40
-1.7879904372284392
40
-1.7879904372284392
40
-1.7879904372284392
40
-1.7879904372284392
40
-0.78166907122142693
40
-0.78166907122142693
40
0
40
0
40
0
40
0
10
28.145652345725377
20
-230.24650042472044
30
0
10
27.93077626633886
20
-233.58301400764577
30
0
10
27.671703053018852
20
-237.07493987564209
30
0
10
27.116690916020541
20
-242.99945998539431
30
0
10
26.815409402827445
20
-245.77811061931317
30
0
10
26.447019008505922
20
-248.35750008942603
30
0
0
LINE
5
145
100
AcDbEntity
8
0
100
AcDbLine
10
26.447019008505926
20
-248.35750008942603
30
0
11
28.847629546823423
21
-248.35750008942603
31
0
0
LINE
5
146
100
AcDbEntity
8
0
100
AcDbLine
10
28.847629546823423
20
-248.35750008942603
30
0
11
28.847629546823423
21
-251.35750008942603
31
0
0
LINE
5
147
100
AcDbEntity
8
0
100
AcDbLine
10
28.847629546823423
20
-251.35750008942603
30
0
11
25.785965575865948
21
-251.35750008942603
31
0
0
SPLINE
5
148
100
AcDbEntity
8
0
100
AcDbSpline
70
0
71
3
72
14
73
10
74
0
42
0.000000001
43
0.0000000001
44
0.0000000001
40
-7.8560432747484281
40
-7.8560432747484281
40
-7.8560432747484281
40
-7.8560432747484281
40
-6.1785645411277317
40
-6.1785645411277317
40
-5.0752508491429049
40
-5.0752508491429049
40
-3.7449525922450309
40
-3.7449525922450309
40
0
40
0
40
0
40
0
10
25.785965575865916
20
-251.35750008942594
30
0
10
25.504928517321936
20
-252.54101256291821
30
0
10
25.228371913313747
20
-253.45965163952965
30
0
10
24.522282434327941
20
-254.69793825626479
30
0
10
24.180308144094287
20
-255.1098799518962
30
0
10
23.211878682753792
20
-255.89184160529388
30
0
10
22.525630841689495
20
-256.24873442387627
30
0
10
18.972966823476757
20
-257.38611347325968
30
0
10
13.983175307483435
20
-257.8931957790341
30
0
10
1.5000000000000002
20
-257.8931957790341
30
0
0
LINE
5
149
100
AcDbEntity
8
0
100
AcDbLine
10
1.4999999999999987
20
-257.89319577903416
30
0
11
-1.4999999999999991
21
-257.8931957790341
31
0
0
SPLINE
5
150
100
AcDbEntity
8
0
100
AcDbSpline
70
0
71
3
72
16
73
12
74
0
42
0.000000001
43
0.0000000001
44
0.0000000001
40
-1.8515589917377619
40
-1.8515589917377619
40
-1.8515589917377619
40
-1.8515589917377619
40
-1.3636354846451961
40
-1.3636354846451961
40
-0.92105080479388624
40
-0.92105080479388624
40
-0.66396742996781155
40
-0.66396742996781155
40
-0.4178698463451786
40
-0.4178698463451786
40
0
40
0
40
0
40
0
10
-1.5000000000000002
20
-257.8931957790341
30
0
10
-5.1573397716091591
20
-257.8931957790341
30
0
10
-9.9653909121348221
20
-257.84966847434833
30
0
10
-17.24847752250232
20
-257.43664292713163
30
0
10
-19.54238816023468
20
-257.12582688089458
30
0
10
-22.077481025826827
20
-256.42189829408562
30
0
10
-22.785044056482334
20
-256.11556622444459
30
0
10
-23.877670089063493
20
-255.40514476356384
30
0
10
-24.280089105491353
20
-255.00233869281061
30
0
10
-25.146219951259315
20
-253.72801725530084
30
0
10
-25.464156017499352
20
-252.71271505071641
30
0
10
-25.785965575865916
20
-251.35750008942594
30
0
0
LINE
5
151
100
AcDbEntity
8
0
100
AcDbLine
10
-25.785965575865916
20
-251.35750008942597
30
0
11
-28.847629546823423
21
-251.35750008942603
31
0
0
LINE
5
152
100
AcDbEntity
8
0
100
AcDbLine
10
-28.847629546823423
20
-251.35750008942603
30
0
11
-28.847629546823423
21
-248.35750008942603
31
0
0
LINE
5
153
100
AcDbEntity
8
0
100
AcDbLine
10
-28.847629546823423
20
-248.35750008942603
30
0
11
-26.447019008505922
21
-248.35750008942603
31
0
0
LINE
5
154
100
AcDbEntity
8
0
100
AcDbLine
10
-1.4999999999999991
20
-262.3931957790341
30
0
11
-1.4999999999999991
21
-259.8931957790341
31
0
0
LINE
5
155
100
AcDbEntity
8
0
100
AcDbLine
10
-1.4999999999999991
20
-259.8931957790341
30
0
11
1.4999999999999991
21
-259.8931957790341
31
0
0
LINE
5
156
100
AcDbEntity
8
0
100
AcDbLine
10
1.4999999999999991
20
-259.8931957790341
30
0
11
1.4999999999999991
21
-262.3931957790341
31
0
0
SPLINE
5
157
100
AcDbEntity
8
0
100
AcDbSpline
70
0
71
3
72
30
73
26
74
0
42
0.000000001
43
0.0000000001
44
0.0000000001
40
-22.905685735643704
40
-22.905685735643704
40
-22.905685735643704
40
-22.905685735643704
40
-20.74900331370003
40
-20.74900331370003
40
-19.801458264635048
40
-19.801458264635048
40
-18.931406475460321
40
-18.931406475460321
40
-17.972751339734238
40
-17.972751339734238
40
-16.531192845509427
40
-16.531192845509427
40
-15.155886154397788
40
-15.155886154397788
40
-10.807022230027792
40
-10.807022230027792
40
-7.2385191220803762
40
-7.2385191220803762
40
-4.1713864548958925
40
-4.1713864548958925
40
-2.4704845252400078
40
-2.4704845252400078
40
-1.2351464511417145
40
-1.2351464511417145
40
0
40
0
40
0
40
0
10
1.5000000000000002
20
-262.3931957790341
30
0
10
12.531480291276589
20
-262.3931957790341
30
0
10
17.946052721751947
20
-262.05717883529007
30
0
10
23.440014400408636
20
-260.64512138586576
30
0
10
24.938028194406186
20
-260.05705879252736
30
0
10
27.425867058957486
20
-258.47450849128768
30
0
10
28.415387419427454
20
-257.53655698939139
30
0
10
30.111520881169881
20
-255.09857708022082
30
0
10
30.768545949208267
20
-253.56736157818409
30
0
10
31.985835964546276
20
-248.94770371040082
30
0
10
32.283073807335782
20
-245.65175678428244
30
0
10
32.583703032089765
20
-239.01026192939443
30
0
10
32.599448782530338
20
-235.64660635959416
30
0
10
33.175092710747037
20
-213.87420650870774
30
0
10
34.519966030922753
20
-190.37516210731093
30
0
10
35.015761130692518
20
-140.75447305532441
30
0
10
34.419688526747748
20
-113.66894153955585
30
0
10
32.364826674545014
20
-81.506327514080397
30
0
10
30.765354930136649
20
-67.439770268573653
30
0
10
25.775654791161422
20
-49.385910405446623
30
0
10
23.497439929231202
20
-43.668896674204376
30
0
10
18.288814463528187
20
-35.374073659912256
30
0
10
15.635908958119934
20
-32.256947114244234
30
0
10
9.116882492070788
20
-27.212350089819168
30
0
10
5.4758989685626602
20
-25.459795965120755
30
0
10
1.5000000000000002
20
-24.39059470026935
30
0
0
LINE
5
158
100
AcDbEntity
8
0
100
AcDbLine
10
1.5
20
-24.39059470026935
30
0
11
1.4999999999999991
21
-26.890594700269368
31
0
0
LINE
5
159
100
AcDbEntity
8
0
100
AcDbLine
10
1.4999999999999991
20
-26.890594700269368
30
0
11
-1.4999999999999991
21
-26.890594700269368
31
0
0
LINE
5
160
100
AcDbEntity
8
0
100
AcDbLine
10
-1.4999999999999991
20
-26.890594700269368
30
0
11
-1.4999999999999991
21
-24.390594700269368
31
0
0
SPLINE
5
161
100
AcDbEntity
8
0
100
AcDbSpline
70
0
71
3
72
32
73
28
74
0
42
0.000000001
43
0.0000000001
44
0.0000000001
40
-35.066775194908068
40
-35.066775194908068
40
-35.066775194908068
40
-35.066775194908068
40
-34.110066738481883
40
-34.110066738481883
40
-33.166901686223312
40
-33.166901686223312
40
-31.124733619024283
40
-31.124733619024283
40
-26.703003154492933
40
-26.703003154492933
40
-21.253061064946884
40
-21.253061064946884
40
-16.384037034787539
40
-16.384037034787539
40
-12.061757595217962
40
-12.061757595217962
40
-9.8374038447938972
40
-9.8374038447938972
40
-7.6568040519773053
40
-7.6568040519773053
40
-6.2863857625097275
40
-6.2863857625097275
40
-4.9330351525519571
40
-4.9330351525519571
40
-3.313790319275022
40
-3.313790319275022
40
0
40
0
40
0
40
0
10
-1.5000000000000002
20
-24.39059470026935
30
0
10
-3.9156643020621962
20
-25.040216671965226
30
0
10
-6.2322280939430623
20
-25.948695667016608
30
0
10
-10.591641853830341
20
-28.332695559169533
30
0
10
-12.574539940388949
20
-29.765186197515668
30
0
10
-18.319894742624903
20
-35.05337492044076
30
0
10
-21.235400782311334
20
-39.58144054632691
30
0
10
-28.315827703587715
20
-54.903573902245299
30
0
10
-30.752399966733272
20
-68.520738650311614
30
0
10
-33.992471875026794
20
-100.24903701714845
30
0
10
-34.586812118323813
20
-123.58599946131037
30
0
10
-34.953495502273014
20
-158.27237545617896
30
0
10
-34.746372337787733
20
-172.47332908904826
30
0
10
-33.81566892533715
20
-202.59749526221057
30
0
10
-32.960661375517248
20
-221.49846858455234
30
0
10
-32.592804106085225
20
-236.17881959707913
30
0
10
-32.573380835519387
20
-239.57693762947375
30
0
10
-32.250194371470052
20
-245.98399316949937
30
0
10
-31.951307656211135
20
-249.03752157483481
30
0
10
-30.852508082722817
20
-253.27356330205004
30
0
10
-30.292130780270572
20
-254.68639476112787
30
0
10
-28.77976333342874
20
-257.11363258841089
30
0
10
-27.843853951608459
20
-258.11217650576572
30
0
10
-25.29570848470658
20
-259.911285837457
30
0
10
-23.654458078744209
20
-260.58776233628231
30
0
10
-17.967167702680992
20
-262.05629696645087
30
0
10
-12.54596773091674
20
-262.3931957790341
30
0
10
-1.5000000000000002
20
-262.3931957790341
30
0
0
ENDSEC
0
SECTION
2
OBJECTS
0
DICTIONARY
5
C
100
AcDbDictionary
3
ACAD_GROUP
350
D
3
ACAD_MLINESTYLE
350
17
0
DICTIONARY
5
D
100
AcDbDictionary
0
DICTIONARY
5
1A
330
C
100
AcDbDictionary
0
DICTIONARY
5
17
100
AcDbDictionary
0
ENDSEC
0
EOF
