0
SECTION
2
HEADER
9
$INSUNITS
70
4
9
$ACADVER
1
AC1014
9
$HANDSEED
5
FFFF
0
ENDSEC
0
SECTION
2
TABLES
0
TABLE
2
VPORT
5
8
100
AcDbSymbolTable
0
ENDTAB
0
TABLE
2
LTYPE
5
5
100
AcDbSymbolTable
0
LTYPE
5
14
100
AcDbSymbolTableRecord
100
AcDbLinetypeTableRecord
2
BYBLOCK
70
0
0
LTYPE
5
15
100
AcDbSymbolTableRecord
100
AcDbLinetypeTableRecord
2
BYLAYER
70
0
0
ENDTAB
0
TABLE
2
LAYER
5
2
100
AcDbSymbolTable
70
2
0
LAYER
5
50
100
AcDbSymbolTableRecord
100
AcDbLayerTableRecord
2
0
70
0
6
CONTINUOUS
0
ENDTAB
0
TABLE
2
STYLE
5
3
100
AcDbSymbolTable
70
1
0
STYLE
5
11
100
AcDbSymbolTableRecord
100
AcDbTextStyleTableRecord
2
STANDARD
70
0
0
ENDTAB
0
TABLE
2
VIEW
5
6
100
AcDbSymbolTable
70
0
0
ENDTAB
0
TABLE
2
UCS
5
7
100
AcDbSymbolTable
70
0
0
ENDTAB
0
TABLE
2
APPID
5
9
100
AcDbSymbolTable
70
2
0
APPID
5
12
100
AcDbSymbolTableRecord
100
AcDbRegAppTableRecord
2
ACAD
70
0
0
ENDTAB
0
TABLE
2
DIMSTYLE
5
A
100
AcDbSymbolTable
70
1
0
ENDTAB
0
TABLE
2
BLOCK_RECORD
5
1
100
AcDbSymbolTable
70
1
0
BLOCK_RECORD
5
1F
100
AcDbSymbolTableRecord
100
AcDbBlockTableRecord
2
*MODEL_SPACE
0
BLOCK_RECORD
5
1B
100
AcDbSymbolTableRecord
100
AcDbBlockTableRecord
2
*PAPER_SPACE
0
ENDTAB
0
ENDSEC
0
SECTION
2
BLOCKS
0
BLOCK
5
20
100
AcDbEntity
100
AcDbBlockBegin
2
*MODEL_SPACE
0
ENDBLK
5
21
100
AcDbEntity
100
AcDbBlockEnd
0
BLOCK
5
1C
100
AcDbEntity
100
AcDbBlockBegin
2
*PAPER_SPACE
0
ENDBLK
5
1D
100
AcDbEntity
100
AcDbBlockEnd
0
ENDSEC
0
SECTION
2
ENTITIES
0
LINE
5
100
100
AcDbEntity
8
0
100
AcDbLine
10
-18.97903891728696
20
-92.210024611353077
30
0
11
-21.542000360515221
21
-92.210024611353077
31
0
0
LINE
5
101
100
AcDbEntity
8
0
100
AcDbLine
10
-21.542000360515221
20
-92.210024611353077
30
0
11
-21.542000360515221
21
-89.210024611353077
31
0
0
LINE
5
102
100
AcDbEntity
8
0
100
AcDbLine
10
-21.542000360515221
20
-89.210024611353077
30
0
11
-18.434057653874557
21
-89.210024611353077
31
0
0
SPLINE
5
103
100
AcDbEntity
8
0
100
AcDbSpline
70
0
71
3
72
14
73
10
74
0
42
0.000000001
43
0.0000000001
44
0.0000000001
40
-3.3361730613753715
40
-3.3361730613753715
40
-3.3361730613753715
40
-3.3361730613753715
40
-1.1932933670183332
40
-1.1932933670183332
40
-0.48955090844452831
40
-0.48955090844452831
40
-0.187124074291625
40
-0.187124074291625
40
0
40
0
40
0
40
0
10
-18.434057653874557
20
-89.210024611353049
30
0
10
-16.118935393025257
20
-77.113976991972621
30
0
10
-12.784376561980595
20
-67.256413573019842
30
0
10
-8.4929885059631616
20
-58.855052705749394
30
0
10
-7.122657316862294
20
-56.531459152139277
30
0
10
-4.8795621983696726
20
-54.047024511603311
30
0
10
-4.0952382811667896
20
-53.326543450046586
30
0
10
-2.6903906884166044
20
-52.496984513214031
30
0
10
-2.1126418246312673
20
-52.254139597529075
30
0
10
-1.5000000000000002
20
-52.136963628072877
30
0
0
LINE
5
104
100
AcDbEntity
8
0
100
AcDbLine
10
-1.5000000000000002
20
-52.136963628072877
30
0
11
1.4999999999999991
21
-52.136963628072877
31
0
0
SPLINE
5
105
100
AcDbEntity
8
0
100
AcDbSpline
70
0
71
3
72
16
73
12
74
0
42
0.000000001
43
0.0000000001
44
0.0000000001
40
-5.6097543155008056
40
-5.6097543155008056
40
-5.6097543155008056
40
-5.6097543155008056
40
-5.4177775356995692
40
-5.4177775356995692
40
-5.2056133404261615
40
-5.2056133404261615
40
-4.6970978376495713
40
-4.6970978376495713
40
-3.2975775596031593
40
-3.2975775596031593
40
0
40
0
40
0
40
0
10
1.5000000000000002
20
-52.136963628072877
30
0
10
1.8915011082593367
20
-52.211843468232466
30
0
10
2.2693606274335929
20
-52.338146532377891
30
0
10
3.0332640536974309
20
-52.685296868446756
30
0
10
3.414297605231456
20
-52.913931343215744
30
0
10
4.6319544197968501
20
-53.783113852439044
30
0
10
5.4086063711206878
20
-54.587066728861487
30
0
10
7.9142484930679693
20
-57.645657246832812
30
0
10
9.5041336638924623
20
-60.679806589319547
30
0
10
13.516962564851426
20
-69.528260738933568
30
0
10
16.367764687821232
20
-78.414059950807285
30
0
10
18.434057653874557
20
-89.210024611353049
30
0
0
LINE
5
106
100
AcDbEntity
8
0
100
AcDbLine
10
18.434057653874557
20
-89.210024611353049
30
0
11
21.542000360515221
21
-89.210024611353077
31
0
0
LINE
5
107
100
AcDbEntity
8
0
100
AcDbLine
10
21.542000360515221
20
-89.210024611353077
30
0
11
21.542000360515221
21
-92.210024611353077
31
0
0
LINE
5
108
100
AcDbEntity
8
0
100
AcDbLine
10
21.542000360515221
20
-92.210024611353077
30
0
11
18.979038917286957
21
-92.210024611353077
31
0
0
SPLINE
5
109
100
AcDbEntity
8
0
100
AcDbSpline
70
0
71
3
72
10
73
6
74
0
42
0.000000001
43
0.0000000001
44
0.0000000001
40
-4.2298269952908178
40
-4.2298269952908178
40
-4.2298269952908178
40
-4.2298269952908178
40
-2.0777652336019155
40
-2.0777652336019155
40
0
40
0
40
0
40
0
10
18.97903891729419
20
-92.210024611395127
30
0
10
20.218776131424121
20
-99.414264507865624
30
0
10
20.974753978376562
20
-106.63968691458436
30
0
10
21.823840216240889
20
-121.01661118135482
30
0
10
21.938844245365171
20
-128.29643074684671
30
0
10
21.896142118256499
20
-135.22218321580507
30
0
0
LINE
5
110
100
AcDbEntity
8
0
100
AcDbLine
10
21.896142118256499
20
-135.22218321580507
30
0
11
24.985056166025803
21
-135.22218321580885
31
0
0
LINE
5
111
100
AcDbEntity
8
0
100
AcDbLine
10
24.985056166025803
20
-135.22218321580885
30
0
11
24.985056166025803
21
-138.22218321580885
31
0
0
LINE
5
112
100
AcDbEntity
8
0
100
AcDbLine
10
24.985056166025803
20
-138.22218321580885
30
0
11
21.867827832953814
21
-138.22218321580885
31
0
0
SPLINE
5
113
100
AcDbEntity
8
0
100
AcDbSpline
70
0
71
3
72
10
73
6
74
0
42
0.000000001
43
0.0000000001
44
0.0000000001
40
-4.2813119602774927
40
-4.2813119602774927
40
-4.2813119602774927
40
-4.2813119602774927
40
-2.1886154132583377
40
-2.1886154132583377
40
0
40
0
40
0
40
0
10
21.867827832945551
20
-138.22218321580942
30
0
10
21.781271863699207
20
-145.06016765991967
30
0
10
21.539635667415368
20
-152.41574054175692
30
0
10
20.655284637411505
20
-166.71935867705176
30
0
10
19.978141927137568
20
-174.00860072602356
30
0
10
18.9725059499835
20
-181.23434182025878
30
0
0
LINE
5
114
100
AcDbEntity
8
0
100
AcDbLine
10
18.972505949983493
20
-181.23434182025875
30
0
11
22.449610116642216
21
-181.23434182026469
31
0
0
LINE
5
115
100
AcDbEntity
8
0
100
AcDbLine
10
22.449610116642216
20
-181.23434182026469
30
0
11
22.449610116642216
21
-184.23434182026466
31
0
0
LINE
5
116
100
AcDbEntity
8
0
100
AcDbLine
10
22.449610116642216
20
-184.23434182026466
30
0
11
18.535085209790694
21
-184.23434182026466
31
0
0
SPLINE
5
117
100
AcDbEntity
8
0
100
AcDbSpline
70
0
71
3
72
16
73
12
74
0
42
0.000000001
43
0.0000000001
44
0.0000000001
40
-3.5999924406592103
40
-3.5999924406592103
40
-3.5999924406592103
40
-3.5999924406592103
40
-1.8946494486982064
40
-1.8946494486982064
40
-0.93200132801999291
40
-0.93200132801999291
40
-0.498989700741512
40
-0.498989700741512
40
-0.23624703495452809
40
-0.23624703495452809
40
0
40
0
40
0
40
0
10
18.535085209777336
20
-184.23434182026261
30
0
10
17.158141167589761
20
-193.25859242404385
30
0
10
15.343103448265555
20
-201.45783743367571
30
0
10
12.0124035443457
20
-211.49159837031675
30
0
10
10.566060648040363
20
-214.98904325460256
30
0
10
8.0585918418442493
20
-218.89213562037739
30
0
10
7.1186018713942527
20
-220.10200795593789
30
0
10
5.3478282650016702
20
-221.59877695684986
30
0
10
4.6052806713818857
20
-222.07396337436936
30
0
10
3.0485307418783187
20
-222.66031034689576
30
0
10
2.2870425599018125
20
-222.78913365620951
30
0
10
1.5000000000000002
20
-222.76258761107738
30
0
0
LINE
5
118
100
AcDbEntity
8
0
100
AcDbLine
10
1.5000000000000002
20
-222.76258761107741
30
0
11
-1.4999999999999991
21
-222.76258761107738
31
0
0
SPLINE
5
119
100
AcDbEntity
8
0
100
AcDbSpline
70
0
71
3
72
16
73
12
74
0
42
0.000000001
43
0.0000000001
44
0.0000000001
40
-6.9324260533998103
40
-6.9324260533998103
40
-6.9324260533998103
40
-6.9324260533998103
40
-6.5180131390347498
40
-6.5180131390347498
40
-6.0949982207328084
40
-6.0949982207328084
40
-5.138007583974626
40
-5.138007583974626
40
-3.2436146482265542
40
-3.2436146482265542
40
0
40
0
40
0
40
0
10
-1.5000000000000002
20
-222.76258761107738
30
0
10
-1.9894078172472827
20
-222.77909477684778
30
0
10
-2.4733843538017291
20
-222.73566450960453
30
0
10
-3.4399373108387139
20
-222.52346203619771
30
0
10
-3.9080917278524643
20
-222.35522409202895
30
0
10
-5.3726458018837056
20
-221.63804223277933
30
0
10
-6.2615302890335922
20
-220.89004087447094
30
0
10
-8.5438520572143606
20
-218.41672570428031
30
0
10
-10.134962850472778
20
-215.87238548604375
30
0
10
-14.607106901724549
20
-204.79544349075255
30
0
10
-16.904229311201867
20
-194.92268635459703
30
0
10
-18.535085209777336
20
-184.23434182026261
30
0
0
LINE
5
120
100
AcDbEntity
8
0
100
AcDbLine
10
-18.535085209777339
20
-184.23434182026261
30
0
11
-22.449610116642212
21
-184.23434182026466
31
0
0
LINE
5
121
100
AcDbEntity
8
0
100
AcDbLine
10
-22.449610116642212
20
-184.23434182026466
30
0
11
-22.449610116642212
21
-181.23434182026469
31
0
0
LINE
5
122
100
AcDbEntity
8
0
100
AcDbLine
10
-22.449610116642212
20
-181.23434182026469
30
0
11
-18.972505949982978
21
-181.23434182026469
31
0
0
SPLINE
5
123
100
AcDbEntity
8
0
100
AcDbSpline
70
0
71
3
72
10
73
6
74
0
42
0.000000001
43
0.0000000001
44
0.0000000001
40
-4.197152699042543
40
-4.197152699042543
40
-4.197152699042543
40
-4.197152699042543
40
-2.0515596719163542
40
-2.0515596719163542
40
0
40
0
40
0
40
0
10
-18.9725059499835
20
-181.23434182025878
30
0
10
-19.978141927137568
20
-174.00860072602356
30
0
10
-20.655284637411505
20
-166.71935867705176
30
0
10
-21.539635667415368
20
-152.41574054175692
30
0
10
-21.781271863699207
20
-145.06016765991967
30
0
10
-21.867827832945551
20
-138.22218321580942
30
0
0
LINE
5
124
100
AcDbEntity
8
0
100
AcDbLine
10
-21.867827832945551
20
-138.22218321580942
30
0
11
-24.985056166025803
21
-138.22218321580885
31
0
0
LINE
5
125
100
AcDbEntity
8
0
100
AcDbLine
10
-24.985056166025803
20
-138.22218321580885
30
0
11
-24.985056166025803
21
-135.22218321580885
31
0
0
LINE
5
126
100
AcDbEntity
8
0
100
AcDbLine
10
-24.985056166025803
20
-135.22218321580885
30
0
11
-21.896142118256531
21
-135.22218321580885
31
0
0
SPLINE
5
127
100
AcDbEntity
8
0
100
AcDbSpline
70
0
71
3
72
10
73
6
74
0
42
0.000000001
43
0.0000000001
44
0.0000000001
40
-4.310367613430369
40
-4.310367613430369
40
-4.310367613430369
40
-4.310367613430369
40
-2.1930394150903028
40
-2.1930394150903028
40
0
40
0
40
0
40
0
10
-21.896142118256499
20
-135.22218321580507
30
0
10
-21.938844245365171
20
-128.29643074684671
30
0
10
-21.823840216240889
20
-121.01661118135482
30
0
10
-20.974753978376562
20
-106.63968691458436
30
0
10
-20.218776131424121
20
-99.414264507865624
30
0
10
-18.97903891729419
20
-92.210024611395127
30
0
0
LINE
5
128
100
AcDbEntity
8
0
100
AcDbLine
10
-1.4999999999999991
20
-43.197866006897257
30
0
11
-1.4999999999999991
21
-39.355103853073317
31
0
0
SPLINE
5
129
100
AcDbEntity
8
0
100
AcDbSpline
70
0
71
3
72
32
73
28
74
0
42
0.000000001
43
0.0000000001
44
0.0000000001
40
-10.736679020052852
40
-10.736679020052852
40
-10.736679020052852
40
-10.736679020052852
40
-9.6870065412071042
40
-9.6870065412071042
40
-8.5959586174743947
40
-8.5959586174743947
40
-6.0041903368418286
40
-6.0041903368418286
40
-4.673209299725265
40
-4.673209299725265
40
-4.0695045735414563
40
-4.0695045735414563
40
-3.3525345180526207
40
-3.3525345180526207
40
-2.6654854712308929
40
-2.6654854712308929
40
-2.2812267322111062
40
-2.2812267322111062
40
-1.8168030759552967
40
-1.8168030759552967
40
-1.4938639223511267
40
-1.4938639223511267
40
-1.1089275420102853
40
-1.1089275420102853
40
-0.30524620361770988
40
-0.30524620361770988
40
0
40
0
40
0
40
0
10
-1.5000000000000002
20
-39.355103853073324
30
0
10
-2.3588582457196536
20
-39.655889915474994
30
0
10
-4.0425649548648854
20
-40.266195982049581
30
0
10
-7.8620226598813687
20
-43.104509691634831
30
0
10
-9.7307780673466748
20
-45.195113535851767
30
0
10
-15.873107511822219
20
-55.519059066098002
30
0
10
-18.83128714593688
20
-66.409036990391542
30
0
10
-21.855608808268954
20
-80.703067827748555
30
0
10
-22.838112037888219
20
-86.170316085441527
30
0
10
-23.78150904538677
20
-92.255992261340339
30
0
10
-24.820678165781544
20
-99.294448442088324
30
0
10
-26.980814394128338
20
-125.90316965075186
30
0
10
-27.118591936776326
20
-135.08812864527656
30
0
10
-27.159556664443297
20
-155.47327520922369
30
0
10
-27.163650200578235
20
-168.60814519184572
30
0
10
-23.623615362926671
20
-203.81342604362115
30
0
10
-21.680671891807407
20
-217.64098049662459
30
0
10
-20.728880387632003
20
-224.09859202514963
30
0
10
-20.365206556754156
20
-226.04212429823355
30
0
10
-19.641687851981505
20
-228.37532603951561
30
0
10
-19.285024906035492
20
-229.15376914102626
30
0
10
-18.175294952977914
20
-230.69491142643847
30
0
10
-17.317770968284524
20
-231.48161892992167
30
0
10
-13.061766732376181
20
-234.19900035209986
30
0
10
-8.2857496171421392
20
-236.20415887625848
30
0
10
-3.8073909312257417
20
-237.63791021305624
30
0
10
-2.5130315056147383
20
-237.98571354917055
30
0
10
-1.5000000000000002
20
-238.08083277259854
30
0
0
LINE
5
130
100
AcDbEntity
8
0
100
AcDbLine
10
-1.5
20
-238.08083277259854
30
0
11
-1.4999999999999991
21
-230.24650042472044
31
0
0
LINE
5
131
100
AcDbEntity
8
0
100
AcDbLine
10
-1.4999999999999991
20
-230.24650042472044
30
0
11
-15.292180904212485
21
-230.24650042472041
31
0
0
LINE
5
132
100
AcDbEntity
8
0
100
AcDbLine
10
-15.292180904212485
20
-230.24650042472041
30
0
11
-15.292180904212476
21
-227.24650042472041
31
0
0
LINE
5
133
100
AcDbEntity
8
0
100
AcDbLine
10
-15.292180904212476
20
-227.24650042472041
30
0
11
-1.4999999999999991
21
-227.24650042472047
31
0
0
LINE
5
134
100
AcDbEntity
8
0
100
AcDbLine
10
-1.4999999999999991
20
-227.24650042472047
30
0
11
-1.4999999999999991
21
-224.29650042472053
31
0
0
LINE
5
135
100
AcDbEntity
8
0
100
AcDbLine
10
-1.4999999999999991
20
-224.29650042472053
30
0
11
1.4999999999999991
21
-224.29650042472053
31
0
0
LINE
5
136
100
AcDbEntity
8
0
100
AcDbLine
10
1.4999999999999991
20
-224.29650042472053
30
0
11
1.4999999999999991
21
-227.24650042472047
31
0
0
LINE
5
137
100
AcDbEntity
8
0
100
AcDbLine
10
1.4999999999999991
20
-227.24650042472047
30
0
11
15.292180904212476
21
-227.24650042472041
31
0
0
LINE
5
138
100
AcDbEntity
8
0
100
AcDbLine
10
15.292180904212476
20
-227.24650042472041
30
0
11
15.292180904212485
21
-230.24650042472041
31
0
0
LINE
5
139
100
AcDbEntity
8
0
100
AcDbLine
10
15.292180904212485
20
-230.24650042472041
30
0
11
1.4999999999999991
21
-230.24650042472044
31
0
0
LINE
5
140
100
AcDbEntity
8
0
100
AcDbLine
10
1.4999999999999991
20
-230.24650042472044
30
0
11
1.4999999999999991
21
-238.08083277259854
31
0
0
SPLINE
5
141
100
AcDbEntity
8
0
100
AcDbSpline
70
0
71
3
72
36
73
32
74
0
42
0.000000001
43
0.0000000001
44
0.0000000001
40
-8.6715528447509502
40
-8.6715528447509502
40
-8.6715528447509502
40
-8.6715528447509502
40
-8.1693327036966998
40
-8.1693327036966998
40
-7.6281160572732016
40
-7.6281160572732016
40
-7.2249910496410008
40
-7.2249910496410008
40
-6.780362022134292
40
-6.780362022134292
40
-6.1374290607171913
40
-6.1374290607171913
40
-5.4402607071224391
40
-5.4402607071224391
40
-3.8254647096043444
40
-3.8254647096043444
40
-2.9997505363723702
40
-2.9997505363723702
40
-2.4135575214607807
40
-2.4135575214607807
40
-1.9595351227711635
40
-1.9595351227711635
40
-1.5248776594722817
40
-1.5248776594722817
40
-1.0069868971906519
40
-1.0069868971906519
40
-0.58820175612167414
40
-0.58820175612167414
40
-0.31060600517057613
40
-0.31060600517057613
40
0
40
0
40
0
40
0
10
1.5000000000000002
20
-238.08083277259854
30
0
10
3.0634662446361096
20
-237.93403013692395
30
0
10
5.381493041035581
20
-237.1824034828237
30
0
10
9.8218881074871867
20
-235.4966560315882
30
0
10
12.554153748964252
20
-234.29906192531797
30
0
10
16.281860810822103
20
-232.21536033215304
30
0
10
17.251301282557922
20
-231.48996942816029
30
0
10
18.660301254289624
20
-230.12678114576775
30
0
10
19.165788967887949
20
-229.37734280962263
30
0
10
20.121734905540308
20
-227.15033657790082
30
0
10
20.518244093702265
20
-225.33091148129216
30
0
10
21.61489768834215
20
-218.23667990279637
30
0
10
22.440736026421291
20
-211.97639084510206
30
0
10
23.913280255528889
20
-200.53206854199448
30
0
10
25.735202097068669
20
-185.64859280418503
30
0
10
27.092313340303434
20
-160.30671986551118
30
0
10
27.180327234728018
20
-154.1947720372298
30
0
10
27.096402018661475
20
-134.78411310533454
30
0
10
26.974777267126715
20
-129.21883946067123
30
0
10
26.078699235710125
20
-114.2871764143171
30
0
10
25.509575788884224
20
-107.38509856483475
30
0
10
24.212779134518065
20
-95.098999956273218
30
0
10
23.740935382227718
20
-91.563190784210576
30
0
10
21.393193555447986
20
-78.18423571140292
30
0
10
19.856753252729852
20
-70.652613711731021
30
0
10
16.118807747593365
20
-57.94344982045358
30
0
10
14.078911156297211
20
-52.510663983834405
30
0
10
9.897101829855032
20
-45.469884405816231
30
0
10
8.1714105035017432
20
-43.446913078258014
30
0
10
4.3150129334147742
20
-40.368097520847606
30
0
10
2.477161024303824
20
-39.697321463834513
30
0
10
1.5000000000000002
20
-39.355103853073324
30
0
0
LINE
5
142
100
AcDbEntity
8
0
100
AcDbLine
10
1.5000000000000004
20
-39.355103853073324
30
0
11
1.4999999999999991
21
-43.197866006897257
31
0
0
LINE
5
143
100
AcDbEntity
8
0
100
AcDbLine
10
1.4999999999999991
20
-43.197866006897257
30
0
11
5.3475999625697801
21
-43.197866006897257
31
0
0
LINE
5
144
100
AcDbEntity
8
0
100
AcDbLine
10
5.3475999625697801
20
-43.197866006897257
30
0
11
5.3475999625697801
21
-46.197866006897272
31
0
0
LINE
5
145
100
AcDbEntity
8
0
100
AcDbLine
10
5.3475999625697801
20
-46.197866006897272
30
0
11
1.4999999999999991
21
-46.197866006897272
31
0
0
LINE
5
146
100
AcDbEntity
8
0
100
AcDbLine
10
1.4999999999999991
20
-46.197866006897272
30
0
11
1.4999999999999991
21
-49.14786600689726
31
0
0
LINE
5
147
100
AcDbEntity
8
0
100
AcDbLine
10
1.4999999999999991
20
-49.14786600689726
30
0
11
-1.4999999999999991
21
-49.14786600689726
31
0
0
LINE
5
148
100
AcDbEntity
8
0
100
AcDbLine
10
-1.4999999999999991
20
-49.14786600689726
30
0
11
-1.4999999999999991
21
-46.197866006897272
31
0
0
LINE
5
149
100
AcDbEntity
8
0
100
AcDbLine
10
-1.4999999999999991
20
-46.197866006897272
30
0
11
-5.3475999625697757
21
-46.197866006897272
31
0
0
LINE
5
150
100
AcDbEntity
8
0
100
AcDbLine
10
-5.3475999625697757
20
-46.197866006897272
30
0
11
-5.3475999625697757
21
-43.197866006897257
31
0
0
LINE
5
151
100
AcDbEntity
8
0
100
AcDbLine
10
-5.3475999625697757
20
-43.197866006897257
30
0
11
-1.4999999999999991
21
-43.197866006897257
31
0
0
ENDSEC
0
SECTION
2
OBJECTS
0
DICTIONARY
5
C
100
AcDbDictionary
3
ACAD_GROUP
350
D
3
ACAD_MLINESTYLE
350
17
0
DICTIONARY
5
D
100
AcDbDictionary
0
DICTIONARY
5
1A
330
C
100
AcDbDictionary
0
DICTIONARY
5
17
100
AcDbDictionary
0
ENDSEC
0
EOF
