0
SECTION
2
HEADER
9
$INSUNITS
70
4
9
$ACADVER
1
AC1014
9
$HANDSEED
5
FFFF
0
ENDSEC
0
SECTION
2
TABLES
0
TABLE
2
VPORT
5
8
100
AcDbSymbolTable
0
ENDTAB
0
TABLE
2
LTYPE
5
5
100
AcDbSymbolTable
0
LTYPE
5
14
100
AcDbSymbolTableRecord
100
AcDbLinetypeTableRecord
2
BYBLOCK
70
0
0
LTYPE
5
15
100
AcDbSymbolTableRecord
100
AcDbLinetypeTableRecord
2
BYLAYER
70
0
0
ENDTAB
0
TABLE
2
LAYER
5
2
100
AcDbSymbolTable
70
2
0
LAYER
5
50
100
AcDbSymbolTableRecord
100
AcDbLayerTableRecord
2
0
70
0
6
CONTINUOUS
0
ENDTAB
0
TABLE
2
STYLE
5
3
100
AcDbSymbolTable
70
1
0
STYLE
5
11
100
AcDbSymbolTableRecord
100
AcDbTextStyleTableRecord
2
STANDARD
70
0
0
ENDTAB
0
TABLE
2
VIEW
5
6
100
AcDbSymbolTable
70
0
0
ENDTAB
0
TABLE
2
UCS
5
7
100
AcDbSymbolTable
70
0
0
ENDTAB
0
TABLE
2
APPID
5
9
100
AcDbSymbolTable
70
2
0
APPID
5
12
100
AcDbSymbolTableRecord
100
AcDbRegAppTableRecord
2
ACAD
70
0
0
ENDTAB
0
TABLE
2
DIMSTYLE
5
A
100
AcDbSymbolTable
70
1
0
ENDTAB
0
TABLE
2
BLOCK_RECORD
5
1
100
AcDbSymbolTable
70
1
0
BLOCK_RECORD
5
1F
100
AcDbSymbolTableRecord
100
AcDbBlockTableRecord
2
*MODEL_SPACE
0
BLOCK_RECORD
5
1B
100
AcDbSymbolTableRecord
100
AcDbBlockTableRecord
2
*PAPER_SPACE
0
ENDTAB
0
ENDSEC
0
SECTION
2
BLOCKS
0
BLOCK
5
20
100
AcDbEntity
100
AcDbBlockBegin
2
*MODEL_SPACE
0
ENDBLK
5
21
100
AcDbEntity
100
AcDbBlockEnd
0
BLOCK
5
1C
100
AcDbEntity
100
AcDbBlockBegin
2
*PAPER_SPACE
0
ENDBLK
5
1D
100
AcDbEntity
100
AcDbBlockEnd
0
ENDSEC
0
SECTION
2
ENTITIES
0
SPLINE
5
100
100
AcDbEntity
8
0
100
AcDbSpline
70
0
71
3
72
10
73
6
74
0
42
0.000000001
43
0.0000000001
44
0.0000000001
40
-4.0073782416719794
40
-4.0073782416719794
40
-4.0073782416719794
40
-4.0073782416719794
40
-2.1150844347766991
40
-2.1150844347766991
40
0
40
0
40
0
40
0
10
-28.047292351965577
20
-227.24650042466703
30
0
10
-28.531810978691588
20
-220.59254198063292
30
0
10
-28.818453148535905
20
-213.19138690685088
30
0
10
-29.215064157456499
20
-199.3053363157436
30
0
10
-29.346177459463693
20
-191.28395804694094
30
0
10
-29.443025641171996
20
-184.2343418202646
30
0
0
LINE
5
101
100
AcDbEntity
8
0
100
AcDbLine
10
-29.443025641171999
20
-184.23434182026466
30
0
11
-31.48308680328935
21
-184.23434182026466
31
0
0
LINE
5
102
100
AcDbEntity
8
0
100
AcDbLine
10
-31.48308680328935
20
-184.23434182026466
30
0
11
-31.48308680328935
21
-181.23434182026469
31
0
0
LINE
5
103
100
AcDbEntity
8
0
100
AcDbLine
10
-31.48308680328935
20
-181.23434182026469
30
0
11
-29.483086803289709
21
-181.23434182026466
31
0
0
SPLINE
5
104
100
AcDbEntity
8
0
100
AcDbSpline
70
0
71
3
72
10
73
6
74
0
42
0.000000001
43
0.0000000001
44
0.0000000001
40
-4.1851422529624136
40
-4.1851422529624136
40
-4.1851422529624136
40
-4.1851422529624136
40
-2.0282627744694386
40
-2.0282627744694386
40
0
40
0
40
0
40
0
10
-29.483086803289712
20
-181.23434182026458
30
0
10
-29.569576203903015
20
-174.58364652893255
30
0
10
-29.689291360901152
20
-164.12428335023606
30
0
10
-29.800554266186605
20
-153.9873895310543
30
0
10
-29.895041772617589
20
-144.98305625077506
30
0
10
-29.901282102504105
20
-138.22218321580891
30
0
0
LINE
5
105
100
AcDbEntity
8
0
100
AcDbLine
10
-29.901282102504098
20
-138.22218321580891
30
0
11
-31.901282102504105
21
-138.22218321580888
31
0
0
LINE
5
106
100
AcDbEntity
8
0
100
AcDbLine
10
-31.901282102504105
20
-138.22218321580888
30
0
11
-31.901282102504105
21
-135.22218321580885
31
0
0
LINE
5
107
100
AcDbEntity
8
0
100
AcDbLine
10
-31.901282102504105
20
-135.22218321580885
30
0
11
-29.899345609424817
21
-135.22218321580877
31
0
0
SPLINE
5
108
100
AcDbEntity
8
0
100
AcDbSpline
70
0
71
3
72
10
73
6
74
0
42
0.000000001
43
0.0000000001
44
0.0000000001
40
-4.2899291367752994
40
-4.2899291367752994
40
-4.2899291367752994
40
-4.2899291367752994
40
-2.2608258787679527
40
-2.2608258787679527
40
0
40
0
40
0
40
0
10
-29.899345609424714
20
-135.22218321580877
30
0
10
-29.883599958232729
20
-128.37221857788728
30
0
10
-29.78674235471501
20
-121.70346376089419
30
0
10
-29.268637225371283
20
-107.30601489597872
30
0
10
-28.816549129919796
20
-99.714629731927573
30
0
10
-28.128437117969298
20
-92.210024611353106
30
0
0
LINE
5
109
100
AcDbEntity
8
0
100
AcDbLine
10
-28.128437117969298
20
-92.210024611353106
30
0
11
-29.839977930538936
21
-92.210024611353077
31
0
0
LINE
5
110
100
AcDbEntity
8
0
100
AcDbLine
10
-29.839977930538936
20
-92.210024611353077
30
0
11
-29.839977930538936
21
-89.210024611353077
31
0
0
LINE
5
111
100
AcDbEntity
8
0
100
AcDbLine
10
-29.839977930538936
20
-89.210024611353077
30
0
11
-29.18763973709892
21
-89.210024611353077
31
0
0
SPLINE
5
112
100
AcDbEntity
8
0
100
AcDbSpline
70
0
71
3
72
14
73
10
74
0
42
0.000000001
43
0.0000000001
44
0.0000000001
40
-1.9562530879983104
40
-1.9562530879983104
40
-1.9562530879983104
40
-1.9562530879983104
40
-1.0055206464451643
40
-1.0055206464451643
40
-0.32458040442574487
40
-0.32458040442574487
40
-0.089842092448473992
40
-0.089842092448473992
40
0
40
0
40
0
40
0
10
-29.18763973709892
20
-89.210024611353077
30
0
10
-27.837669377932897
20
-80.891062701211638
30
0
10
-25.934916563965338
20
-69.790264504043037
30
0
10
-22.799846055215088
20
-55.396631758953347
30
0
10
-21.707089520140485
20
-51.568661511417488
30
0
10
-20.361896674810097
20
-48.353631779668106
30
0
10
-19.944774032299303
20
-47.500795689066635
30
0
10
-19.297487871104856
20
-46.636637687507175
30
0
10
-19.082290256389854
20
-46.392795700742468
30
0
10
-18.841970995252854
20
-46.214102906604623
30
0
0
LINE
5
113
100
AcDbEntity
8
0
100
AcDbLine
10
-18.841970995252854
20
-46.214102906604623
30
0
11
-18.835358372847612
21
-46.197866006897257
31
0
0
LINE
5
114
100
AcDbEntity
8
0
100
AcDbLine
10
-18.835358372847612
20
-46.197866006897257
30
0
11
-19.519842044044577
21
-46.197866006897272
31
0
0
LINE
5
115
100
AcDbEntity
8
0
100
AcDbLine
10
-19.519842044044577
20
-46.197866006897272
30
0
11
-19.519842044044577
21
-43.197866006897257
31
0
0
LINE
5
116
100
AcDbEntity
8
0
100
AcDbLine
10
-19.519842044044577
20
-43.197866006897257
30
0
11
-18.819815459507758
21
-43.197866006897257
31
0
0
SPLINE
5
117
100
AcDbEntity
8
0
100
AcDbSpline
70
0
71
3
72
10
73
6
74
0
42
0.000000001
43
0.0000000001
44
0.0000000001
40
-0.94980769452847158
40
-0.94980769452847158
40
-0.94980769452847158
40
-0.94980769452847158
40
-0.453154427500017
40
-0.453154427500017
40
0
40
0
40
0
40
0
10
-18.819815459507758
20
-43.197866006897257
30
0
10
-17.935962831163867
20
-41.800236857202066
30
0
10
-16.97464282613954
20
-40.424254804868703
30
0
10
-15.002488818764697
20
-37.950431470353251
30
0
10
-13.981989831290797
20
-36.811898938608742
30
0
10
-12.883496972907253
20
-35.775092170101061
30
0
0
SPLINE
5
118
100
AcDbEntity
8
0
100
AcDbSpline
70
0
71
3
72
10
73
6
74
0
42
0.000000001
43
0.0000000001
44
0.0000000001
40
-0.051791184040581084
40
-0.051791184040581084
40
-0.051791184040581084
40
-0.051791184040581084
40
-0.024341432966272541
40
-0.024341432966272541
40
0
40
0
40
0
40
0
10
-12.883496972907269
20
-35.77509217010104
30
0
10
-12.819317621346112
20
-35.709895520580282
30
0
10
-12.753099252460871
20
-35.645203338125469
30
0
10
-12.626402773781598
20
-35.527967773840359
30
0
10
-12.564654255844028
20
-35.473518379791635
30
0
10
-12.501967266463524
20
-35.422003971724216
30
0
0
SPLINE
5
119
100
AcDbEntity
8
0
100
AcDbSpline
70
0
71
3
72
12
73
8
74
0
42
0.000000001
43
0.0000000001
44
0.0000000001
40
-0.53754046101361508
40
-0.53754046101361508
40
-0.53754046101361508
40
-0.53754046101361508
40
-0.33293713769299205
40
-0.33293713769299205
40
-0.13848630400183548
40
-0.13848630400183548
40
0
40
0
40
0
40
0
10
-12.501967266463524
20
-35.422003971724223
30
0
10
-11.076991497062345
20
-34.129358507424186
30
0
10
-9.5087856378980096
20
-32.998124046074594
30
0
10
-6.1251343285700237
20
-31.338891030789501
30
0
10
-4.6433721892084083
20
-30.93582176679282
30
0
10
-2.6878108748620759
20
-30.56709274720145
30
0
10
-1.9613675375740813
20
-30.496966628365925
30
0
10
-1.5000000000000002
20
-30.512262223462908
30
0
0
LINE
5
120
100
AcDbEntity
8
0
100
AcDbLine
10
-1.5
20
-30.512262223462908
30
0
11
1.4999999999999991
21
-30.512262223462905
31
0
0
SPLINE
5
121
100
AcDbEntity
8
0
100
AcDbSpline
70
0
71
3
72
10
73
6
74
0
42
0.000000001
43
0.0000000001
44
0.0000000001
40
-1.9277123468064068
40
-1.9277123468064068
40
-1.9277123468064068
40
-1.9277123468064068
40
-0.94360346457495292
40
-0.94360346457495292
40
0
40
0
40
0
40
0
10
1.5000000000000002
20
-30.512262223462908
30
0
10
2.288203578379671
20
-30.486131120151477
30
0
10
4.0772480509466744
20
-30.701441165107571
30
0
10
8.0127904439898785
20
-32.128082087186264
30
0
10
10.172333970920931
20
-33.308711958182855
30
0
10
12.501967266463524
20
-35.422003971724223
30
0
0
SPLINE
5
122
100
AcDbEntity
8
0
100
AcDbSpline
70
0
71
3
72
10
73
6
74
0
42
0.000000001
43
0.0000000001
44
0.0000000001
40
-0.051783432564829285
40
-0.051783432564829285
40
-0.051783432564829285
40
-0.051783432564829285
40
-0.027445642728750851
40
-0.027445642728750851
40
0
40
0
40
0
40
0
10
12.501967266463524
20
-35.422003971724216
30
0
10
12.564654255843884
20
-35.473518379791521
30
0
10
12.626402773781285
20
-35.527967773840075
30
0
10
12.753099252460508
20
-35.645203338125128
30
0
10
12.819317621345693
20
-35.709895520579884
30
0
10
12.883496972906659
20
-35.775092170100436
30
0
0
SPLINE
5
123
100
AcDbEntity
8
0
100
AcDbSpline
70
0
71
3
72
10
73
6
74
0
42
0.000000001
43
0.0000000001
44
0.0000000001
40
-0.94874081657074827
40
-0.94874081657074827
40
-0.94874081657074827
40
-0.94874081657074827
40
-0.49609539786611984
40
-0.49609539786611984
40
0
40
0
40
0
40
0
10
12.883496972906627
20
-35.775092170100471
30
0
10
13.981989831290724
20
-36.8118989386086
30
0
10
15.002488818765919
20
-37.950431470354879
30
0
10
16.97464282613895
20
-40.4242548048679
30
0
10
17.935962831163486
20
-41.800236857201455
30
0
10
18.819815459507758
20
-43.197866006897257
30
0
0
LINE
5
124
100
AcDbEntity
8
0
100
AcDbLine
10
18.819815459507758
20
-43.19786600689725
30
0
11
19.519842044044577
21
-43.197866006897257
31
0
0
LINE
5
125
100
AcDbEntity
8
0
100
AcDbLine
10
19.519842044044577
20
-43.197866006897257
30
0
11
19.519842044044577
21
-46.197866006897272
31
0
0
LINE
5
126
100
AcDbEntity
8
0
100
AcDbLine
10
19.519842044044577
20
-46.197866006897272
30
0
11
18.835358372847782
21
-46.19786600689725
31
0
0
LINE
5
127
100
AcDbEntity
8
0
100
AcDbLine
10
18.835358372847782
20
-46.19786600689725
30
0
11
18.841970995253128
21
-46.21410290660485
31
0
0
SPLINE
5
128
100
AcDbEntity
8
0
100
AcDbSpline
70
0
71
3
72
16
73
12
74
0
42
0.000000001
43
0.0000000001
44
0.0000000001
40
-4.1203013414349243
40
-4.1203013414349243
40
-4.1203013414349243
40
-4.1203013414349243
40
-4.0271572462050527
40
-4.0271572462050527
40
-3.9049113867268606
40
-3.9049113867268606
40
-3.5695123096973616
40
-3.5695123096973616
40
-2.6008860730397214
40
-2.6008860730397214
40
0
40
0
40
0
40
0
10
18.841970995253138
20
-46.214102906604836
30
0
10
19.049990498900296
20
-46.368778758078541
30
0
10
19.238026984195109
20
-46.571361720317732
30
0
10
19.609358324880425
20
-47.040856413594312
30
0
10
19.801155450850054
20
-47.344001310747672
30
0
10
20.42626403823213
20
-48.450025188844279
30
0
10
20.829677478009238
20
-49.438065942963817
30
0
10
22.062899091643576
20
-52.818641938574238
30
0
10
22.917858603929446
20
-56.147214578217032
30
0
10
25.666106173500268
20
-68.170126049399968
30
0
10
27.798931861153751
20
-80.652349366217933
30
0
10
29.18763973709892
20
-89.210024611353077
30
0
0
LINE
5
129
100
AcDbEntity
8
0
100
AcDbLine
10
29.18763973709892
20
-89.210024611353077
30
0
11
29.839977930538936
21
-89.210024611353077
31
0
0
LINE
5
130
100
AcDbEntity
8
0
100
AcDbLine
10
29.839977930538936
20
-89.210024611353077
30
0
11
29.839977930538936
21
-92.210024611353077
31
0
0
LINE
5
131
100
AcDbEntity
8
0
100
AcDbLine
10
29.839977930538936
20
-92.210024611353077
30
0
11
28.128437117969231
21
-92.210024611353077
31
0
0
SPLINE
5
132
100
AcDbEntity
8
0
100
AcDbSpline
70
0
71
3
72
10
73
6
74
0
42
0.000000001
43
0.0000000001
44
0.0000000001
40
-4.3446690656446156
40
-4.3446690656446156
40
-4.3446690656446156
40
-4.3446690656446156
40
-2.0549948204239494
40
-2.0549948204239494
40
0
40
0
40
0
40
0
10
28.128437117969327
20
-92.21002461135312
30
0
10
28.816549129919906
20
-99.714629731927459
30
0
10
29.268637225371414
20
-107.30601489597041
30
0
10
29.786742354715749
20
-121.70346376090319
30
0
10
29.883599958232999
20
-128.37221857788589
30
0
10
29.899345609424785
20
-135.22218321580877
30
0
0
LINE
5
133
100
AcDbEntity
8
0
100
AcDbLine
10
29.899345609424785
20
-135.22218321580877
30
0
11
31.901282102504108
21
-135.22218321580885
31
0
0
LINE
5
134
100
AcDbEntity
8
0
100
AcDbLine
10
31.901282102504108
20
-135.22218321580885
30
0
11
31.901282102504108
21
-138.22218321580888
31
0
0
LINE
5
135
100
AcDbEntity
8
0
100
AcDbLine
10
31.901282102504108
20
-138.22218321580888
30
0
11
29.901282102504116
21
-138.22218321580888
31
0
0
SPLINE
5
136
100
AcDbEntity
8
0
100
AcDbSpline
70
0
71
3
72
10
73
6
74
0
42
0.000000001
43
0.0000000001
44
0.0000000001
40
-3.871768407248025
40
-3.871768407248025
40
-3.871768407248025
40
-3.871768407248025
40
-1.9953772938287033
40
-1.9953772938287033
40
0
40
0
40
0
40
0
10
29.901282102504108
20
-138.22218321580888
30
0
10
29.895041772617468
20
-144.98305625076387
30
0
10
29.800554266188119
20
-153.98738953090901
30
0
10
29.689291360900405
20
-164.12428335030171
30
0
10
29.569576203903232
20
-174.58364652891896
30
0
10
29.483086803289709
20
-181.23434182026466
30
0
0
LINE
5
137
100
AcDbEntity
8
0
100
AcDbLine
10
29.483086803289709
20
-181.23434182026469
30
0
11
31.48308680328935
21
-181.23434182026469
31
0
0
LINE
5
138
100
AcDbEntity
8
0
100
AcDbLine
10
31.48308680328935
20
-181.23434182026469
30
0
11
31.48308680328935
21
-184.23434182026466
31
0
0
LINE
5
139
100
AcDbEntity
8
0
100
AcDbLine
10
31.48308680328935
20
-184.23434182026466
30
0
11
29.443025641171975
21
-184.23434182026466
31
0
0
SPLINE
5
140
100
AcDbEntity
8
0
100
AcDbSpline
70
0
71
3
72
10
73
6
74
0
42
0.000000001
43
0.0000000001
44
0.0000000001
40
-4.2385902579498058
40
-4.2385902579498058
40
-4.2385902579498058
40
-4.2385902579498058
40
-2.0014726864757253
40
-2.0014726864757253
40
0
40
0
40
0
40
0
10
29.443025641171971
20
-184.23434182026466
30
0
10
29.346177459465046
20
-191.28395804683396
30
0
10
29.215064157456808
20
-199.3053363157313
30
0
10
28.818453148535504
20
-213.19138690686094
30
0
10
28.5318109786914
20
-220.59254198063587
30
0
10
28.047292351965577
20
-227.24650042466698
30
0
0
LINE
5
141
100
AcDbEntity
8
0
100
AcDbLine
10
28.047292351965577
20
-227.24650042466698
30
0
11
29.810843435729439
21
-227.24650042472047
31
0
0
LINE
5
142
100
AcDbEntity
8
0
100
AcDbLine
10
29.810843435729439
20
-227.24650042472047
30
0
11
29.810843435729449
21
-230.24650042472044
31
0
0
LINE
5
143
100
AcDbEntity
8
0
100
AcDbLine
10
29.810843435729449
20
-230.24650042472044
30
0
11
29.188057476455583
21
-230.24650042472044
31
0
0
SPLINE
5
144
100
AcDbEntity
8
0
100
AcDbSpline
70
0
71
3
72
10
73
6
74
0
42
0.000000001
43
0.0000000001
44
0.0000000001
40
-1.3499206967427861
40
-1.3499206967427861
40
-1.3499206967427861
40
-1.3499206967427861
40
-0.80266286843926926
40
-0.80266286843926926
40
0
40
0
40
0
40
0
10
29.188057476455583
20
-230.24650042472041
30
0
10
29.188057476455583
20
-230.86435216988252
30
0
10
28.896090058220917
20
-233.62139464367397
30
0
10
27.134964273966219
20
-242.16866626016085
30
0
10
25.778172160149385
20
-245.87741245042258
30
0
10
24.774331991216087
20
-248.35750008942603
30
0
0
LINE
5
145
100
AcDbEntity
8
0
100
AcDbLine
10
24.774331991216087
20
-248.35750008942603
30
0
11
28.124281841908573
21
-248.35750008942603
31
0
0
LINE
5
146
100
AcDbEntity
8
0
100
AcDbLine
10
28.124281841908573
20
-248.35750008942603
30
0
11
28.124281841908573
21
-251.35750008942603
31
0
0
LINE
5
147
100
AcDbEntity
8
0
100
AcDbLine
10
28.124281841908573
20
-251.35750008942603
30
0
11
23.482076393301149
21
-251.35750008942603
31
0
0
SPLINE
5
148
100
AcDbEntity
8
0
100
AcDbSpline
70
0
71
3
72
14
73
10
74
0
42
0.000000001
43
0.0000000001
44
0.0000000001
40
-7.1997810471829871
40
-7.1997810471829871
40
-7.1997810471829871
40
-7.1997810471829871
40
-5.8780777619657503
40
-5.8780777619657503
40
-4.7264047667580318
40
-4.7264047667580318
40
-3.3544527051452766
40
-3.3544527051452766
40
0
40
0
40
0
40
0
10
23.482076393301146
20
-251.35750008942603
30
0
10
22.949652362017595
20
-252.50464151410347
30
0
10
22.521905209262023
20
-253.28633097234916
30
0
10
21.728471864014484
20
-254.39777266461215
30
0
10
21.336092614252465
20
-254.80848142199861
30
0
10
20.306762092392102
20
-255.53526219071816
30
0
10
19.628889673048814
20
-255.82402532018548
30
0
10
16.528794851873577
20
-256.56413607866835
30
0
10
12.681509017150923
20
-256.72317776247473
30
0
10
1.5000000000000002
20
-256.72317776247473
30
0
0
LINE
5
149
100
AcDbEntity
8
0
100
AcDbLine
10
1.4999999999999989
20
-256.72317776247479
30
0
11
-1.4999999999999991
21
-256.72317776247473
31
0
0
SPLINE
5
150
100
AcDbEntity
8
0
100
AcDbSpline
70
0
71
3
72
14
73
10
74
0
42
0.000000001
43
0.0000000001
44
0.0000000001
40
-2.3188496850707558
40
-2.3188496850707558
40
-2.3188496850707558
40
-2.3188496850707558
40
-1.293346505813878
40
-1.293346505813878
40
-0.86364842826186994
40
-0.86364842826186994
40
-0.49691132344579536
40
-0.49691132344579536
40
0
40
0
40
0
40
0
10
-1.5000000000000002
20
-256.72317776247473
30
0
10
-11.556218246993296
20
-256.72317776247473
30
0
10
-15.359381605181973
20
-256.59487902930675
30
0
10
-18.583476409505792
20
-256.10388413559639
30
0
10
-19.40763954632126
20
-255.90088278113222
30
0
10
-20.701635842975087
20
-255.30104255077137
30
0
10
-21.19413804901637
20
-254.94212610485516
30
0
10
-22.239883364651185
20
-253.79213081547061
30
0
10
-22.784750891767786
20
-252.85993221549757
30
0
10
-23.482076393301146
20
-251.35750008942603
30
0
0
LINE
5
151
100
AcDbEntity
8
0
100
AcDbLine
10
-23.482076393301146
20
-251.35750008942603
30
0
11
-28.124281841908576
21
-251.35750008942603
31
0
0
LINE
5
152
100
AcDbEntity
8
0
100
AcDbLine
10
-28.124281841908576
20
-251.35750008942603
30
0
11
-28.124281841908576
21
-248.35750008942603
31
0
0
LINE
5
153
100
AcDbEntity
8
0
100
AcDbLine
10
-28.124281841908576
20
-248.35750008942603
30
0
11
-24.774331991216094
21
-248.35750008942603
31
0
0
SPLINE
5
154
100
AcDbEntity
8
0
100
AcDbSpline
70
0
71
3
72
10
73
6
74
0
42
0.000000001
43
0.0000000001
44
0.0000000001
40
-0.37965171626317795
40
-0.37965171626317795
40
-0.37965171626317795
40
-0.37965171626317795
40
-0.083228726350580012
40
-0.083228726350580012
40
0
40
0
40
0
40
0
10
-24.774331991216087
20
-248.35750008942603
30
0
10
-27.753628834441582
20
-240.99684895941877
30
0
10
-28.697003328452393
20
-234.71438978945679
30
0
10
-29.129138363136867
20
-231.16792798807413
30
0
10
-29.188057476455583
20
-230.52392951255567
30
0
10
-29.188057476455583
20
-230.24650042472041
30
0
0
LINE
5
155
100
AcDbEntity
8
0
100
AcDbLine
10
-29.188057476455587
20
-230.24650042472041
30
0
11
-29.810843435729449
21
-230.24650042472044
31
0
0
LINE
5
156
100
AcDbEntity
8
0
100
AcDbLine
10
-29.810843435729449
20
-230.24650042472044
30
0
11
-29.810843435729439
21
-227.24650042472047
31
0
0
LINE
5
157
100
AcDbEntity
8
0
100
AcDbLine
10
-29.810843435729439
20
-227.24650042472047
30
0
11
-28.047292351965577
21
-227.24650042466703
31
0
0
LINE
5
158
100
AcDbEntity
8
0
100
AcDbLine
10
1.4999999999999991
20
-27.994003824027658
30
0
11
-1.4999999999999991
21
-27.994003824027658
31
0
0
LINE
5
159
100
AcDbEntity
8
0
100
AcDbLine
10
-1.4999999999999991
20
-27.994003824027658
30
0
11
-1.4999999999999991
21
-25.494003824027658
31
0
0
SPLINE
5
160
100
AcDbEntity
8
0
100
AcDbSpline
70
0
71
3
72
32
73
28
74
0
42
0.000000001
43
0.0000000001
44
0.0000000001
40
-11.404279996509386
40
-11.404279996509386
40
-11.404279996509386
40
-11.404279996509386
40
-11.246177860109107
40
-11.246177860109107
40
-11.087471028128427
40
-11.087471028128427
40
-10.748274413840152
40
-10.748274413840152
40
-9.9816528713323027
40
-9.9816528713323027
40
-9.6380773585630699
40
-9.6380773585630699
40
-9.1389584089859959
40
-9.1389584089859959
40
-8.0925062705982285
40
-8.0925062705982285
40
-6.7040368116214673
40
-6.7040368116214673
40
-5.3435699225954663
40
-5.3435699225954663
40
-4.4180599796024769
40
-4.4180599796024769
40
-3.4638292409514024
40
-3.4638292409514024
40
-2.2767189041135221
40
-2.2767189041135221
40
0
40
0
40
0
40
0
10
-1.5000000000000002
20
-25.494003824027658
30
0
10
-3.985284408083134
20
-26.168849001688717
30
0
10
-6.5302015440206951
20
-27.056399472723506
30
0
10
-11.150355518072883
20
-29.412747688161893
30
0
10
-12.91721049798878
20
-30.721311690890893
30
0
10
-17.856523053828489
20
-35.486861779768674
30
0
10
-21.511615791400679
20
-40.999812335227503
30
0
10
-29.855189890159505
20
-59.512614987998766
30
0
10
-31.424045229882015
20
-75.199029702508881
30
0
10
-33.047013403494951
20
-102.41659286701625
30
0
10
-33.841947444995313
20
-117.91463644707636
30
0
10
-34.710477876395721
20
-143.00450203621543
30
0
10
-34.617347129375048
20
-154.82924607417635
30
0
10
-33.314435947899241
20
-210.10792078361084
30
0
10
-32.474678644193055
20
-224.20769964035537
30
0
10
-31.45114411107976
20
-243.42372455142015
30
0
10
-31.32533361792995
20
-245.94681955033622
30
0
10
-30.896551608750723
20
-250.32602304633446
30
0
10
-30.607844046758391
20
-252.0811229914784
30
0
10
-29.78682336758019
20
-254.55456418919991
30
0
10
-29.339056209330316
20
-255.4920243306432
30
0
10
-28.040542580652755
20
-257.20623797382564
30
0
10
-27.186879962593697
20
-257.96673500281599
30
0
10
-24.655769643524536
20
-259.43844266365357
30
0
10
-22.810708976557823
20
-260.10244851372721
30
0
10
-15.610253642403134
20
-261.58017552097544
30
0
10
-9.0885830219020001
20
-261.8683996604866
30
0
10
-1.5000000000000002
20
-261.78304659499844
30
0
0
LINE
5
161
100
AcDbEntity
8
0
100
AcDbLine
10
-1.4999999999999993
20
-261.78304659499844
30
0
11
-1.4999999999999991
21
-259.28304659499844
31
0
0
LINE
5
162
100
AcDbEntity
8
0
100
AcDbLine
10
-1.4999999999999991
20
-259.28304659499844
30
0
11
1.4999999999999991
21
-259.28304659499844
31
0
0
LINE
5
163
100
AcDbEntity
8
0
100
AcDbLine
10
1.4999999999999991
20
-259.28304659499844
30
0
11
1.4999999999999991
21
-261.78304659499844
31
0
0
SPLINE
5
164
100
AcDbEntity
8
0
100
AcDbSpline
70
0
71
3
72
32
73
28
74
0
42
0.000000001
43
0.0000000001
44
0.0000000001
40
-80.788368612524309
40
-80.788368612524309
40
-80.788368612524309
40
-80.788368612524309
40
-66.085058198187596
40
-66.085058198187596
40
-60.028490063180065
40
-60.028490063180065
40
-54.30331237319227
40
-54.30331237319227
40
-47.988910745744697
40
-47.988910745744697
40
-36.54991886239501
40
-36.54991886239501
40
-34.366959238566416
40
-34.366959238566416
40
-28.249785000675743
40
-28.249785000675743
40
-21.092995606321637
40
-21.092995606321637
40
-12.634865088071869
40
-12.634865088071869
40
-6.7016347922394974
40
-6.7016347922394974
40
-3.24123311194323
40
-3.24123311194323
40
-1.7200656643754397
40
-1.7200656643754397
40
0
40
0
40
0
40
0
10
1.5000000000000002
20
-261.78304659499844
30
0
10
13.306781791924717
20
-261.91584411682589
30
0
10
19.550053774909713
20
-261.09166309517161
30
0
10
24.920211791114532
20
-259.29099850322137
30
0
10
26.124169114996217
20
-258.66805339647937
30
0
10
27.970127413783459
20
-257.2728890159778
30
0
10
28.692012450907104
20
-256.4696863800641
30
0
10
29.885058138531136
20
-254.41879192607018
30
0
10
30.295578051520053
20
-253.18558521554348
30
0
10
31.129386877598062
20
-249.19144014212461
30
0
10
31.335065215665754
20
-245.77624680251731
30
0
10
31.674570478678433
20
-239.31492416415188
30
0
10
32.192693770155834
20
-229.6187093280852
30
0
10
33.115837843588331
20
-211.36765200170132
30
0
10
33.517424042557529
20
-198.21245020162144
30
0
10
34.097794157601243
20
-177.33804029753662
30
0
10
34.497140580502148
20
-161.41514989800078
30
0
10
34.592990775489703
20
-138.57195985970404
30
0
10
34.389656440786077
20
-128.6557200021056
30
0
10
32.105090507892875
20
-85.079138765326775
30
0
10
31.214461532165583
20
-72.601403954533978
30
0
10
27.545116319793621
20
-55.572305732579665
30
0
10
25.033197779473948
20
-46.30377764442904
30
0
10
16.114691307697392
20
-33.563001615974088
30
0
10
13.89147529224276
20
-31.541130375063986
30
0
10
10.205006872598847
20
-28.83151802706881
30
0
10
7.0331930214084419
20
-26.996467129804934
30
0
10
1.5000000000000002
20
-25.494003824027658
30
0
0
LINE
5
165
100
AcDbEntity
8
0
100
AcDbLine
10
1.5
20
-25.494003824027658
30
0
11
1.4999999999999991
21
-27.994003824027658
31
0
0
ENDSEC
0
SECTION
2
OBJECTS
0
DICTIONARY
5
C
100
AcDbDictionary
3
ACAD_GROUP
350
D
3
ACAD_MLINESTYLE
350
17
0
DICTIONARY
5
D
100
AcDbDictionary
0
DICTIONARY
5
1A
330
C
100
AcDbDictionary
0
DICTIONARY
5
17
100
AcDbDictionary
0
ENDSEC
0
EOF
