0
SECTION
2
HEADER
9
$INSUNITS
70
4
9
$ACADVER
1
AC1014
9
$HANDSEED
5
FFFF
0
ENDSEC
0
SECTION
2
TABLES
0
TABLE
2
VPORT
5
8
100
AcDbSymbolTable
0
ENDTAB
0
TABLE
2
LTYPE
5
5
100
AcDbSymbolTable
0
LTYPE
5
14
100
AcDbSymbolTableRecord
100
AcDbLinetypeTableRecord
2
BYBLOCK
70
0
0
LTYPE
5
15
100
AcDbSymbolTableRecord
100
AcDbLinetypeTableRecord
2
BYLAYER
70
0
0
ENDTAB
0
TABLE
2
LAYER
5
2
100
AcDbSymbolTable
70
2
0
LAYER
5
50
100
AcDbSymbolTableRecord
100
AcDbLayerTableRecord
2
0
70
0
6
CONTINUOUS
0
ENDTAB
0
TABLE
2
STYLE
5
3
100
AcDbSymbolTable
70
1
0
STYLE
5
11
100
AcDbSymbolTableRecord
100
AcDbTextStyleTableRecord
2
STANDARD
70
0
0
ENDTAB
0
TABLE
2
VIEW
5
6
100
AcDbSymbolTable
70
0
0
ENDTAB
0
TABLE
2
UCS
5
7
100
AcDbSymbolTable
70
0
0
ENDTAB
0
TABLE
2
APPID
5
9
100
AcDbSymbolTable
70
2
0
APPID
5
12
100
AcDbSymbolTableRecord
100
AcDbRegAppTableRecord
2
ACAD
70
0
0
ENDTAB
0
TABLE
2
DIMSTYLE
5
A
100
AcDbSymbolTable
70
1
0
ENDTAB
0
TABLE
2
BLOCK_RECORD
5
1
100
AcDbSymbolTable
70
1
0
BLOCK_RECORD
5
1F
100
AcDbSymbolTableRecord
100
AcDbBlockTableRecord
2
*MODEL_SPACE
0
BLOCK_RECORD
5
1B
100
AcDbSymbolTableRecord
100
AcDbBlockTableRecord
2
*PAPER_SPACE
0
ENDTAB
0
ENDSEC
0
SECTION
2
BLOCKS
0
BLOCK
5
20
100
AcDbEntity
100
AcDbBlockBegin
2
*MODEL_SPACE
0
ENDBLK
5
21
100
AcDbEntity
100
AcDbBlockEnd
0
BLOCK
5
1C
100
AcDbEntity
100
AcDbBlockBegin
2
*PAPER_SPACE
0
ENDBLK
5
1D
100
AcDbEntity
100
AcDbBlockEnd
0
ENDSEC
0
SECTION
2
ENTITIES
0
LINE
5
100
100
AcDbEntity
8
0
100
AcDbLine
10
1.4500000000000002
20
13.377168137839897
30
0
11
5.3475999625697748
21
13.377168137839897
31
0
0
LINE
5
101
100
AcDbEntity
8
0
100
AcDbLine
10
5.3475999625697748
20
13.377168137839897
30
0
11
5.3475999625697748
21
16.377168137839895
31
0
0
LINE
5
102
100
AcDbEntity
8
0
100
AcDbLine
10
5.3475999625697748
20
16.377168137839895
30
0
11
11.109983706520872
21
16.377168137839895
31
0
0
LINE
5
103
100
AcDbEntity
8
0
100
AcDbLine
10
11.109983706520872
20
16.377168137839895
30
0
11
11.109983706520872
21
19.377168137839899
31
0
0
LINE
5
104
100
AcDbEntity
8
0
100
AcDbLine
10
11.109983706520872
20
19.377168137839899
30
0
11
13.538230564787742
21
19.377168137839899
31
0
0
LINE
5
105
100
AcDbEntity
8
0
100
AcDbLine
10
13.538230564787742
20
19.377168137839899
30
0
11
13.538230564787742
21
22.377168137839899
31
0
0
LINE
5
106
100
AcDbEntity
8
0
100
AcDbLine
10
13.538230564787742
20
22.377168137839899
30
0
11
15.300436067843691
21
22.377168137839899
31
0
0
LINE
5
107
100
AcDbEntity
8
0
100
AcDbLine
10
15.300436067843691
20
22.377168137839899
30
0
11
15.300436067843691
21
25.377168137839902
31
0
0
LINE
5
108
100
AcDbEntity
8
0
100
AcDbLine
10
15.300436067843691
20
25.377168137839902
30
0
11
16.806031415984396
21
25.377168137848805
31
0
0
LINE
5
109
100
AcDbEntity
8
0
100
AcDbLine
10
16.806031415984396
20
25.377168137848805
30
0
11
16.806031415984396
21
28.377168137839899
31
0
0
LINE
5
110
100
AcDbEntity
8
0
100
AcDbLine
10
16.806031415984396
20
28.377168137839899
30
0
11
17.938332216701376
21
28.377168137839909
31
0
0
LINE
5
111
100
AcDbEntity
8
0
100
AcDbLine
10
17.938332216701376
20
28.377168137839909
30
0
11
17.938332216701376
21
31.377168137839895
31
0
0
LINE
5
112
100
AcDbEntity
8
0
100
AcDbLine
10
17.938332216701376
20
31.377168137839895
30
0
11
18.819815459507758
21
31.377168137839895
31
0
0
LINE
5
113
100
AcDbEntity
8
0
100
AcDbLine
10
18.819815459507758
20
31.377168137839895
30
0
11
18.819815459507758
21
34.377168137839895
31
0
0
LINE
5
114
100
AcDbEntity
8
0
100
AcDbLine
10
18.819815459507758
20
34.377168137839895
30
0
11
19.519842044044577
21
34.377168137839895
31
0
0
LINE
5
115
100
AcDbEntity
8
0
100
AcDbLine
10
19.519842044044577
20
34.377168137839895
30
0
11
19.519842044044577
21
37.377168137839895
31
0
0
LINE
5
116
100
AcDbEntity
8
0
100
AcDbLine
10
19.519842044044577
20
37.377168137839895
30
0
11
20.085027222019765
21
37.377168137839895
31
0
0
LINE
5
117
100
AcDbEntity
8
0
100
AcDbLine
10
20.085027222019765
20
37.377168137839895
30
0
11
20.085027222019765
21
40.377168137839888
31
0
0
LINE
5
118
100
AcDbEntity
8
0
100
AcDbLine
10
20.085027222019765
20
40.377168137839888
30
0
11
20.541856944412785
21
40.377168137839888
31
0
0
LINE
5
119
100
AcDbEntity
8
0
100
AcDbLine
10
20.541856944412785
20
40.377168137839888
30
0
11
20.541856944412785
21
43.377168137839888
31
0
0
LINE
5
120
100
AcDbEntity
8
0
100
AcDbLine
10
20.541856944412785
20
43.377168137839888
30
0
11
20.906840535001741
21
43.377168137839881
31
0
0
LINE
5
121
100
AcDbEntity
8
0
100
AcDbLine
10
20.906840535001741
20
43.377168137839881
30
0
11
20.906840535001741
21
46.377168137839888
31
0
0
LINE
5
122
100
AcDbEntity
8
0
100
AcDbLine
10
20.906840535001741
20
46.377168137839888
30
0
11
21.190328697163991
21
46.377168137839071
31
0
0
LINE
5
123
100
AcDbEntity
8
0
100
AcDbLine
10
21.190328697163991
20
46.377168137839071
30
0
11
21.190328697163991
21
49.377168137839888
31
0
0
LINE
5
124
100
AcDbEntity
8
0
100
AcDbLine
10
21.190328697163991
20
49.377168137839888
30
0
11
21.398005642440694
21
49.377168137839874
31
0
0
LINE
5
125
100
AcDbEntity
8
0
100
AcDbLine
10
21.398005642440694
20
49.377168137839874
30
0
11
21.398005642440694
21
52.377168137839888
31
0
0
LINE
5
126
100
AcDbEntity
8
0
100
AcDbLine
10
21.398005642440694
20
52.377168137839888
30
0
11
21.529782464021704
21
52.377168137839888
31
0
0
SPLINE
5
127
100
AcDbEntity
8
0
100
AcDbSpline
70
0
71
3
72
8
73
4
74
0
42
0.000000001
43
0.0000000001
44
0.0000000001
40
0.9484540804028001
40
0.9484540804028001
40
0.9484540804028001
40
0.9484540804028001
40
1
40
1
40
1
40
1
10
21.529782464021704
20
52.377168137839888
30
0
10
21.565038365902225
20
53.51710895354578
30
0
10
21.58253263666948
20
54.638921241360393
30
0
10
21.58253263666948
20
55.737705337843039
30
0
0
LINE
5
128
100
AcDbEntity
8
0
100
AcDbLine
10
21.58253263666948
20
55.737705337843039
30
0
11
18.082532636669484
21
55.737705337843039
31
0
0
SPLINE
5
129
100
AcDbEntity
8
0
100
AcDbSpline
70
0
71
3
72
8
73
4
74
0
42
0.000000001
43
0.0000000001
44
0.0000000001
40
-1
40
-1
40
-1
40
-1
40
-0.94678557340696068
40
-0.94678557340696068
40
-0.94678557340696068
40
-0.94678557340696068
10
18.08253263666948
20
55.737705337843039
30
0
10
18.08253263666948
20
54.642000283659769
30
0
10
18.064485522906967
20
53.519535309097066
30
0
10
18.028053747059563
20
52.377168137839874
30
0
0
SPLINE
5
130
100
AcDbEntity
8
0
100
AcDbSpline
70
0
71
3
72
8
73
4
74
0
42
0.000000001
43
0.0000000001
44
0.0000000001
40
-0.94678557340696057
40
-0.94678557340696057
40
-0.94678557340696057
40
-0.94678557340696057
40
-0.9008259222341195
40
-0.9008259222341195
40
-0.9008259222341195
40
-0.9008259222341195
10
18.028053747059563
20
52.377168137839874
30
0
10
17.996588751253839
20
51.39054101313544
30
0
10
17.951410191823413
20
50.389068359077186
30
0
10
17.892300609478738
20
49.377168137839874
30
0
0
SPLINE
5
131
100
AcDbEntity
8
0
100
AcDbSpline
70
0
71
3
72
11
73
7
74
0
42
0.000000001
43
0.0000000001
44
0.0000000001
40
-0.90082592223411939
40
-0.90082592223411939
40
-0.90082592223411939
40
-0.90082592223411939
40
-0.85747673007659364
40
-0.85747673007659364
40
-0.85747673007659364
40
-0.85579838215218529
40
-0.85579838215218529
40
-0.85579838215218529
40
-0.85579838215218529
10
17.892300609478738
20
49.377168137839888
30
0
10
17.836548388171092
20
48.422742766557256
30
0
10
17.768402735212984
20
47.459040736847626
30
0
10
17.687681180878819
20
46.489769153371526
30
0
10
17.684555889577439
20
46.452241926926249
30
0
10
17.681411354728517
20
46.414708116620062
30
0
10
17.678247569190468
20
46.377168137839902
30
0
0
SPLINE
5
132
100
AcDbEntity
8
0
100
AcDbSpline
70
0
71
3
72
8
73
4
74
0
42
0.000000001
43
0.0000000001
44
0.0000000001
40
-0.85579838215218507
40
-0.85579838215218507
40
-0.85579838215218507
40
-0.85579838215218507
40
-0.81116870977167599
40
-0.81116870977167599
40
-0.81116870977167599
40
-0.81116870977167599
10
17.678247569190468
20
46.377168137839895
30
0
10
17.594117985573156
20
45.378926396801312
30
0
10
17.496376159160906
20
44.376322902024256
30
0
10
17.384887807232872
20
43.377168137839902
30
0
0
SPLINE
5
133
100
AcDbEntity
8
0
100
AcDbSpline
70
0
71
3
72
8
73
4
74
0
42
0.000000001
43
0.0000000001
44
0.0000000001
40
-0.81116870977158184
40
-0.81116870977158184
40
-0.81116870977158184
40
-0.81116870977158184
40
-0.76622631745688752
40
-0.76622631745688752
40
-0.76622631745688752
40
-0.76622631745688752
10
17.384887807232165
20
43.377168137833578
30
0
10
17.272618256872221
20
42.371012300250506
30
0
10
17.146408862372102
20
41.368353693068592
30
0
10
17.006122498430269
20
40.377168137839888
30
0
0
SPLINE
5
134
100
AcDbEntity
8
0
100
AcDbSpline
70
0
71
3
72
8
73
4
74
0
42
0.000000001
43
0.0000000001
44
0.0000000001
40
-0.7662263174568873
40
-0.7662263174568873
40
-0.7662263174568873
40
-0.7662263174568873
40
-0.72020947642839606
40
-0.72020947642839606
40
-0.72020947642839606
40
-0.72020947642839606
10
17.006122498430262
20
40.377168137839867
30
0
10
16.862482274234502
20
39.362286068249126
30
0
10
16.704083951745968
20
38.35943218619866
30
0
10
16.530780333801008
20
37.377168137840144
30
0
0
SPLINE
5
135
100
AcDbEntity
8
0
100
AcDbSpline
70
0
71
3
72
8
73
4
74
0
42
0.000000001
43
0.0000000001
44
0.0000000001
40
-0.72020947642839184
40
-0.72020947642839184
40
-0.72020947642839184
40
-0.72020947642839184
40
-0.672157732989074
40
-0.672157732989074
40
-0.672157732989074
40
-0.672157732989074
10
16.530780333800962
20
37.377168137839888
30
0
10
16.349813087886783
20
36.351467568516469
30
0
10
16.152593150742934
20
35.348218094539931
30
0
10
15.938952921415977
20
34.377168137839924
30
0
0
SPLINE
5
136
100
AcDbEntity
8
0
100
AcDbSpline
70
0
71
3
72
11
73
7
74
0
42
0.000000001
43
0.0000000001
44
0.0000000001
40
-0.67215773298907366
40
-0.67215773298907366
40
-0.67215773298907366
40
-0.67215773298907366
40
-0.6240179066221988
40
-0.6240179066221988
40
-0.6240179066221988
40
-0.62064343466959382
40
-0.62064343466959382
40
-0.62064343466959382
40
-0.62064343466959382
10
15.938952921415968
20
34.377168137839895
30
0
10
15.724921071400642
20
33.404338164081857
30
0
10
15.494408674445896
20
32.463825864698002
30
0
10
15.247247206227385
20
31.56543336900446
30
0
10
15.229921854118473
20
31.502458478815932
30
0
10
15.212515544933421
20
31.439703210602605
30
0
10
15.195028711608721
20
31.377168137839909
30
0
0
SPLINE
5
137
100
AcDbEntity
8
0
100
AcDbSpline
70
0
71
3
72
8
73
4
74
0
42
0.000000001
43
0.0000000001
44
0.0000000001
40
-0.62064343466950755
40
-0.62064343466950755
40
-0.62064343466950755
40
-0.62064343466950755
40
-0.56318643942548219
40
-0.56318643942548219
40
-0.56318643942548219
40
-0.56318643942548219
10
15.195028711607382
20
31.377168137835106
30
0
10
14.897281119307786
20
30.312386024136735
30
0
10
14.57618818349288
20
29.311442387422947
30
0
10
14.233887056401905
20
28.377168137839888
30
0
0
SPLINE
5
138
100
AcDbEntity
8
0
100
AcDbSpline
70
0
71
3
72
8
73
4
74
0
42
0.000000001
43
0.0000000001
44
0.0000000001
40
-0.56318643942548219
40
-0.56318643942548219
40
-0.56318643942548219
40
-0.56318643942548219
40
-0.49598592772402128
40
-0.49598592772402128
40
-0.49598592772402128
40
-0.49598592772402128
10
14.233887056401905
20
28.377168137839888
30
0
10
13.833538747222054
20
27.28446032437294
30
0
10
13.404179419897638
20
26.282950613307055
30
0
10
12.949228274143806
20
25.377168137844663
30
0
0
SPLINE
5
139
100
AcDbEntity
8
0
100
AcDbSpline
70
0
71
3
72
8
73
4
74
0
42
0.000000001
43
0.0000000001
44
0.0000000001
40
-0.49598592772390365
40
-0.49598592772390365
40
-0.49598592772390365
40
-0.49598592772390365
40
-0.49437043369467587
40
-0.49437043369467587
40
-0.49437043369467587
40
-0.49437043369467587
10
12.949228274141419
20
25.377168137839902
30
0
10
12.938291291059784
20
25.35539321166986
30
0
10
12.927339518028344
20
25.333673607907411
30
0
10
12.916373002550285
20
25.312009389476131
30
0
0
ARC
5
140
100
AcDbEntity
8
0
100
AcDbCircle
10
13.538230564787742
20
22.377168137839899
30
0
40
3.0000000000029461
210
0
220
0
230
1
100
AcDbArc
50
101.96334360145526
51
181.04838207962118
0
ARC
5
141
100
AcDbEntity
8
0
100
AcDbCircle
10
11.109983706520872
20
19.377168137839899
30
0
40
3.0000000000063465
210
0
220
0
230
1
100
AcDbArc
50
100.97711978428283
51
178.58291668102277
0
SPLINE
5
142
100
AcDbEntity
8
0
100
AcDbSpline
70
0
71
3
72
8
73
4
74
0
42
0.000000001
43
0.0000000001
44
0.0000000001
40
-0.28969377609533836
40
-0.28969377609533836
40
-0.28969377609533836
40
-0.28969377609533836
40
-0.28576226516225778
40
-0.28576226516225778
40
-0.28576226516225778
40
-0.28576226516225778
10
8.1109012245867582
20
19.451358882505147
30
0
10
8.0763593422641513
20
19.426435607487591
30
0
10
8.0417499374381833
20
19.40170627365174
30
0
10
8.0070732907437385
20
19.377168137839902
30
0
0
SPLINE
5
143
100
AcDbEntity
8
0
100
AcDbSpline
70
0
71
3
72
8
73
4
74
0
42
0.000000001
43
0.0000000001
44
0.0000000001
40
-0.28576226516225767
40
-0.28576226516225767
40
-0.28576226516225767
40
-0.28576226516225767
40
-0.27754229786131512
40
-0.27754229786131512
40
-0.27754229786131512
40
-0.27754229786131512
10
8.0070732907437385
20
19.377168137839899
30
0
10
7.9345716732265945
20
19.325864026664167
30
0
10
7.8617761141612892
20
19.275395719793949
30
0
10
7.7886891784656642
20
19.225738145598548
30
0
0
ARC
5
144
100
AcDbEntity
8
0
100
AcDbCircle
10
6.8475999625697748
20
16.377168137839895
30
0
40
3.0000000002296119
210
0
220
-0
230
1
100
AcDbArc
50
71.717865099849533
51
160.27566622674337
0
SPLINE
5
145
100
AcDbEntity
8
0
100
AcDbSpline
70
0
71
3
72
8
73
4
74
0
42
0.000000001
43
0.0000000001
44
0.0000000001
40
-0.14286578276226031
40
-0.14286578276226031
40
-0.14286578276226031
40
-0.14286578276226031
40
-0.074286463546728035
40
-0.074286463546728035
40
-0.074286463546728035
40
-0.074286463546728035
10
4.023618080211139
20
17.38965336217149
30
0
10
3.368940642496312
20
17.179164766097969
30
0
10
2.7128005610966821
20
17.01983750748818
30
0
10
2.064813760811087
20
16.911055888695444
30
0
0
ARC
5
146
100
AcDbEntity
8
0
100
AcDbCircle
10
0
20
14.73469559380726
30
0
40
3.0000000000001039
210
0
220
-0
230
1
100
AcDbArc
50
46.50658107611109
51
133.4934189238885
0
SPLINE
5
147
100
AcDbEntity
8
0
100
AcDbSpline
70
0
71
3
72
8
73
4
74
0
42
0.000000001
43
0.0000000001
44
0.0000000001
40
0.074286463546727549
40
0.074286463546727549
40
0.074286463546727549
40
0.074286463546727549
40
0.14286578276226108
40
0.14286578276226108
40
0.14286578276226108
40
0.14286578276226108
10
-2.0648137608110555
20
16.91105588869544
30
0
10
-2.7128005610966595
20
17.01983750748817
30
0
10
-3.3689406424963
20
17.179164766097959
30
0
10
-4.0236180802111408
20
17.389653362171494
30
0
0
ARC
5
148
100
AcDbEntity
8
0
100
AcDbCircle
10
-6.8475999625697748
20
16.377168137839895
30
0
40
3.0000000002299365
210
0
220
-0
230
1
100
AcDbArc
50
19.724333773251697
51
108.28213490015051
0
SPLINE
5
149
100
AcDbEntity
8
0
100
AcDbSpline
70
0
71
3
72
8
73
4
74
0
42
0.000000001
43
0.0000000001
44
0.0000000001
40
0.27754229786131335
40
0.27754229786131335
40
0.27754229786131335
40
0.27754229786131335
40
0.28576226516225511
40
0.28576226516225511
40
0.28576226516225511
40
0.28576226516225511
10
-7.7886891784656589
20
19.225738145598555
30
0
10
-7.8617761141612794
20
19.275395719793952
30
0
10
-7.9345716732265794
20
19.325864026664163
30
0
10
-8.0070732907437154
20
19.377168137839895
30
0
0
SPLINE
5
150
100
AcDbEntity
8
0
100
AcDbSpline
70
0
71
3
72
8
73
4
74
0
42
0.000000001
43
0.0000000001
44
0.0000000001
40
0.28576226516225511
40
0.28576226516225511
40
0.28576226516225511
40
0.28576226516225511
40
0.28969377609533631
40
0.28969377609533631
40
0.28969377609533631
40
0.28969377609533631
10
-8.0070732907437154
20
19.377168137839895
30
0
10
-8.0417499374381656
20
19.401706273651737
30
0
10
-8.0763593422641389
20
19.426435607487591
30
0
10
-8.1109012245867493
20
19.451358882505151
30
0
0
ARC
5
151
100
AcDbEntity
8
0
100
AcDbCircle
10
-11.109983706520872
20
19.377168137839895
30
0
40
3.000000000006354
210
0
220
-0
230
1
100
AcDbArc
50
1.417083318977258
51
79.022880215717194
0
ARC
5
152
100
AcDbEntity
8
0
100
AcDbCircle
10
-13.538230564787742
20
22.377168137839902
30
0
40
2.9999999999999991
210
-0
220
0
230
1
100
AcDbArc
50
-1.0483820796211918
51
78.036656398499517
0
SPLINE
5
153
100
AcDbEntity
8
0
100
AcDbSpline
70
0
71
3
72
8
73
4
74
0
42
0.000000001
43
0.0000000001
44
0.0000000001
40
0.49437043369467382
40
0.49437043369467382
40
0.49437043369467382
40
0.49437043369467382
40
0.49598592772390188
40
0.49598592772390188
40
0.49598592772390188
40
0.49598592772390188
10
-12.916373002550303
20
25.312009389476128
30
0
10
-12.927339518028361
20
25.333673607907411
30
0
10
-12.938291291059805
20
25.355393211669863
30
0
10
-12.949228274141436
20
25.377168137839906
30
0
0
SPLINE
5
154
100
AcDbEntity
8
0
100
AcDbSpline
70
0
71
3
72
8
73
4
74
0
42
0.000000001
43
0.0000000001
44
0.0000000001
40
0.49598592772401945
40
0.49598592772401945
40
0.49598592772401945
40
0.49598592772401945
40
0.5631864394254823
40
0.5631864394254823
40
0.5631864394254823
40
0.5631864394254823
10
-12.949228274143824
20
25.377168137844663
30
0
10
-13.404179419897666
20
26.28295061330709
30
0
10
-13.833538747222072
20
27.284460324372972
30
0
10
-14.233887056401908
20
28.377168137839913
30
0
0
SPLINE
5
155
100
AcDbEntity
8
0
100
AcDbSpline
70
0
71
3
72
8
73
4
74
0
42
0.000000001
43
0.0000000001
44
0.0000000001
40
0.5631864394254823
40
0.5631864394254823
40
0.5631864394254823
40
0.5631864394254823
40
0.62064343466950933
40
0.62064343466950933
40
0.62064343466950933
40
0.62064343466950933
10
-14.233887056401908
20
28.377168137839913
30
0
10
-14.576188183492871
20
29.311442387422964
30
0
10
-14.897281119307754
20
30.312386024136742
30
0
10
-15.195028711607335
20
31.377168137835106
30
0
0
SPLINE
5
156
100
AcDbEntity
8
0
100
AcDbSpline
70
0
71
3
72
11
73
7
74
0
42
0.000000001
43
0.0000000001
44
0.0000000001
40
0.6206434346695956
40
0.6206434346695956
40
0.6206434346695956
40
0.6206434346695956
40
0.62401790662215517
40
0.62401790662215517
40
0.62401790662215517
40
0.67215773298907655
40
0.67215773298907655
40
0.67215773298907655
40
0.67215773298907655
10
-15.195028711608673
20
31.377168137839909
30
0
10
-15.212515544933138
20
31.439703210601763
30
0
10
-15.229921854117958
20
31.502458478814248
30
0
10
-15.247247206226637
20
31.565433369001916
30
0
10
-15.494408674445401
20
32.463825864696219
30
0
10
-15.724921071400368
20
33.404338164080933
30
0
10
-15.93895292141589
20
34.377168137839888
30
0
0
SPLINE
5
157
100
AcDbEntity
8
0
100
AcDbSpline
70
0
71
3
72
8
73
4
74
0
42
0.000000001
43
0.0000000001
44
0.0000000001
40
0.67215773298907688
40
0.67215773298907688
40
0.67215773298907688
40
0.67215773298907688
40
0.7202094764283955
40
0.7202094764283955
40
0.7202094764283955
40
0.7202094764283955
10
-15.938952921415893
20
34.377168137839917
30
0
10
-16.152593150742842
20
35.348218094539916
30
0
10
-16.349813087886687
20
36.351467568516462
30
0
10
-16.53078033380087
20
37.377168137839895
30
0
0
SPLINE
5
158
100
AcDbEntity
8
0
100
AcDbSpline
70
0
71
3
72
8
73
4
74
0
42
0.000000001
43
0.0000000001
44
0.0000000001
40
0.72020947642839972
40
0.72020947642839972
40
0.72020947642839972
40
0.72020947642839972
40
0.76622631745689074
40
0.76622631745689074
40
0.76622631745689074
40
0.76622631745689074
10
-16.530780333800919
20
37.377168137840172
30
0
10
-16.704083951745872
20
38.359432186198667
30
0
10
-16.862482274234409
20
39.362286068249134
30
0
10
-17.006122498430162
20
40.377168137839881
30
0
0
SPLINE
5
159
100
AcDbEntity
8
0
100
AcDbSpline
70
0
71
3
72
8
73
4
74
0
42
0.000000001
43
0.0000000001
44
0.0000000001
40
0.76622631745689085
40
0.76622631745689085
40
0.76622631745689085
40
0.76622631745689085
40
0.81116870977158462
40
0.81116870977158462
40
0.81116870977158462
40
0.81116870977158462
10
-17.00612249843017
20
40.377168137839888
30
0
10
-17.146408862372002
20
41.368353693068585
30
0
10
-17.272618256872121
20
42.371012300250499
30
0
10
-17.384887807232062
20
43.377168137833557
30
0
0
SPLINE
5
160
100
AcDbEntity
8
0
100
AcDbSpline
70
0
71
3
72
8
73
4
74
0
42
0.000000001
43
0.0000000001
44
0.0000000001
40
0.81116870977167876
40
0.81116870977167876
40
0.81116870977167876
40
0.81116870977167876
40
0.85579838215218706
40
0.85579838215218706
40
0.85579838215218706
40
0.85579838215218706
10
-17.384887807232772
20
43.377168137839902
30
0
10
-17.496376159160818
20
44.376322902024242
30
0
10
-17.594117985573071
20
45.378926396801333
30
0
10
-17.67824756919039
20
46.377168137839895
30
0
0
SPLINE
5
161
100
AcDbEntity
8
0
100
AcDbSpline
70
0
71
3
72
11
73
7
74
0
42
0.000000001
43
0.0000000001
44
0.0000000001
40
0.85579838215218706
40
0.85579838215218706
40
0.85579838215218706
40
0.85579838215218706
40
0.8574767300764029
40
0.8574767300764029
40
0.8574767300764029
40
0.9008259222341205
40
0.9008259222341205
40
0.9008259222341205
40
0.9008259222341205
10
-17.67824756919039
20
46.377168137839895
30
0
10
-17.681411354728077
20
46.414708116615756
30
0
10
-17.684555889576639
20
46.452241926917644
30
0
10
-17.687681180877668
20
46.489769153358615
30
0
10
-17.768402735212316
20
47.459040736839071
30
0
10
-17.83654838817079
20
48.422742766553029
30
0
10
-17.892300609478696
20
49.377168137839895
30
0
0
SPLINE
5
162
100
AcDbEntity
8
0
100
AcDbSpline
70
0
71
3
72
8
73
4
74
0
42
0.000000001
43
0.0000000001
44
0.0000000001
40
0.90082592223412061
40
0.90082592223412061
40
0.90082592223412061
40
0.90082592223412061
40
0.9467855734069609
40
0.9467855734069609
40
0.9467855734069609
40
0.9467855734069609
10
-17.892300609478692
20
49.377168137839888
30
0
10
-17.951410191823381
20
50.389068359077186
30
0
10
-17.996588751253817
20
51.39054101313544
30
0
10
-18.028053747059552
20
52.377168137839888
30
0
0
SPLINE
5
163
100
AcDbEntity
8
0
100
AcDbSpline
70
0
71
3
72
8
73
4
74
0
42
0.000000001
43
0.0000000001
44
0.0000000001
40
0.94678557340696101
40
0.94678557340696101
40
0.94678557340696101
40
0.94678557340696101
40
1
40
1
40
1
40
1
10
-18.028053747059545
20
52.377168137839874
30
0
10
-18.064485522906963
20
53.519535309097073
30
0
10
-18.082532636669484
20
54.642000283659783
30
0
10
-18.08253263666948
20
55.737705337843039
30
0
0
LINE
5
164
100
AcDbEntity
8
0
100
AcDbLine
10
-18.08253263666948
20
55.737705337843039
30
0
11
-21.582532636669477
21
55.737705337843039
31
0
0
SPLINE
5
165
100
AcDbEntity
8
0
100
AcDbSpline
70
0
71
3
72
8
73
4
74
0
42
0.000000001
43
0.0000000001
44
0.0000000001
40
-1
40
-1
40
-1
40
-1
40
-0.94845408040280033
40
-0.94845408040280033
40
-0.94845408040280033
40
-0.94845408040280033
10
-21.58253263666948
20
55.737705337843039
30
0
10
-21.58253263666948
20
54.638921241360393
30
0
10
-21.565038365902225
20
53.517108953545787
30
0
10
-21.529782464021693
20
52.377168137839895
30
0
0
LINE
5
166
100
AcDbEntity
8
0
100
AcDbLine
10
-21.529782464021693
20
52.377168137839895
30
0
11
-21.398005642440694
21
52.377168137839888
31
0
0
LINE
5
167
100
AcDbEntity
8
0
100
AcDbLine
10
-21.398005642440694
20
52.377168137839888
30
0
11
-21.398005642440694
21
49.377168137839874
31
0
0
LINE
5
168
100
AcDbEntity
8
0
100
AcDbLine
10
-21.398005642440694
20
49.377168137839874
30
0
11
-21.190328697163991
21
49.377168137839888
31
0
0
LINE
5
169
100
AcDbEntity
8
0
100
AcDbLine
10
-21.190328697163991
20
49.377168137839888
30
0
11
-21.190328697163991
21
46.377168137839071
31
0
0
LINE
5
170
100
AcDbEntity
8
0
100
AcDbLine
10
-21.190328697163991
20
46.377168137839071
30
0
11
-20.906840535001741
21
46.377168137839888
31
0
0
LINE
5
171
100
AcDbEntity
8
0
100
AcDbLine
10
-20.906840535001741
20
46.377168137839888
30
0
11
-20.906840535001741
21
43.377168137839881
31
0
0
LINE
5
172
100
AcDbEntity
8
0
100
AcDbLine
10
-20.906840535001741
20
43.377168137839881
30
0
11
-20.541856944412785
21
43.377168137839888
31
0
0
LINE
5
173
100
AcDbEntity
8
0
100
AcDbLine
10
-20.541856944412785
20
43.377168137839888
30
0
11
-20.541856944412785
21
40.377168137839888
31
0
0
LINE
5
174
100
AcDbEntity
8
0
100
AcDbLine
10
-20.541856944412785
20
40.377168137839888
30
0
11
-20.085027222019765
21
40.377168137839888
31
0
0
LINE
5
175
100
AcDbEntity
8
0
100
AcDbLine
10
-20.085027222019765
20
40.377168137839888
30
0
11
-20.085027222019765
21
37.377168137839895
31
0
0
LINE
5
176
100
AcDbEntity
8
0
100
AcDbLine
10
-20.085027222019765
20
37.377168137839895
30
0
11
-19.519842044044577
21
37.377168137839895
31
0
0
LINE
5
177
100
AcDbEntity
8
0
100
AcDbLine
10
-19.519842044044577
20
37.377168137839895
30
0
11
-19.519842044044577
21
34.377168137839895
31
0
0
LINE
5
178
100
AcDbEntity
8
0
100
AcDbLine
10
-19.519842044044577
20
34.377168137839895
30
0
11
-18.819815459507758
21
34.377168137839895
31
0
0
LINE
5
179
100
AcDbEntity
8
0
100
AcDbLine
10
-18.819815459507758
20
34.377168137839895
30
0
11
-18.819815459507758
21
31.377168137839895
31
0
0
LINE
5
180
100
AcDbEntity
8
0
100
AcDbLine
10
-18.819815459507758
20
31.377168137839895
30
0
11
-17.938332216701376
21
31.377168137839895
31
0
0
LINE
5
181
100
AcDbEntity
8
0
100
AcDbLine
10
-17.938332216701376
20
31.377168137839895
30
0
11
-17.938332216701376
21
28.377168137839909
31
0
0
LINE
5
182
100
AcDbEntity
8
0
100
AcDbLine
10
-17.938332216701376
20
28.377168137839909
30
0
11
-16.806031415984396
21
28.377168137839899
31
0
0
LINE
5
183
100
AcDbEntity
8
0
100
AcDbLine
10
-16.806031415984396
20
28.377168137839899
30
0
11
-16.806031415984396
21
25.377168137848805
31
0
0
LINE
5
184
100
AcDbEntity
8
0
100
AcDbLine
10
-16.806031415984396
20
25.377168137848805
30
0
11
-15.300436067843691
21
25.377168137839902
31
0
0
LINE
5
185
100
AcDbEntity
8
0
100
AcDbLine
10
-15.300436067843691
20
25.377168137839902
30
0
11
-15.300436067843691
21
22.377168137839902
31
0
0
LINE
5
186
100
AcDbEntity
8
0
100
AcDbLine
10
-15.300436067843691
20
22.377168137839902
30
0
11
-13.538230564787742
21
22.377168137839902
31
0
0
LINE
5
187
100
AcDbEntity
8
0
100
AcDbLine
10
-13.538230564787742
20
22.377168137839902
30
0
11
-13.538230564787742
21
19.377168137839895
31
0
0
LINE
5
188
100
AcDbEntity
8
0
100
AcDbLine
10
-13.538230564787742
20
19.377168137839895
30
0
11
-11.109983706520872
21
19.377168137839895
31
0
0
LINE
5
189
100
AcDbEntity
8
0
100
AcDbLine
10
-11.109983706520872
20
19.377168137839895
30
0
11
-11.109983706520872
21
16.377168137839895
31
0
0
LINE
5
190
100
AcDbEntity
8
0
100
AcDbLine
10
-11.109983706520872
20
16.377168137839895
30
0
11
-5.3475999625697748
21
16.377168137839895
31
0
0
LINE
5
191
100
AcDbEntity
8
0
100
AcDbLine
10
-5.3475999625697748
20
16.377168137839895
30
0
11
-5.3475999625697748
21
13.377168137839897
31
0
0
LINE
5
192
100
AcDbEntity
8
0
100
AcDbLine
10
-5.3475999625697748
20
13.377168137839897
30
0
11
-1.4500000000000002
21
13.377168137839897
31
0
0
LINE
5
193
100
AcDbEntity
8
0
100
AcDbLine
10
-1.4500000000000002
20
13.377168137839897
30
0
11
-1.4500000000000002
21
14.734695593807263
31
0
0
LINE
5
194
100
AcDbEntity
8
0
100
AcDbLine
10
-1.4500000000000002
20
14.734695593807263
30
0
11
1.4500000000000002
21
14.73469559380726
31
0
0
LINE
5
195
100
AcDbEntity
8
0
100
AcDbLine
10
1.4500000000000002
20
14.73469559380726
30
0
11
1.4500000000000002
21
13.377168137839897
31
0
0
ENDSEC
0
SECTION
2
OBJECTS
0
DICTIONARY
5
C
100
AcDbDictionary
3
ACAD_GROUP
350
D
3
ACAD_MLINESTYLE
350
17
0
DICTIONARY
5
D
100
AcDbDictionary
0
DICTIONARY
5
1A
330
C
100
AcDbDictionary
0
DICTIONARY
5
17
100
AcDbDictionary
0
ENDSEC
0
EOF
