0
SECTION
2
HEADER
9
$INSUNITS
70
4
9
$ACADVER
1
AC1014
9
$HANDSEED
5
FFFF
0
ENDSEC
0
SECTION
2
TABLES
0
TABLE
2
VPORT
5
8
100
AcDbSymbolTable
0
ENDTAB
0
TABLE
2
LTYPE
5
5
100
AcDbSymbolTable
0
LTYPE
5
14
100
AcDbSymbolTableRecord
100
AcDbLinetypeTableRecord
2
BYBLOCK
70
0
0
LTYPE
5
15
100
AcDbSymbolTableRecord
100
AcDbLinetypeTableRecord
2
BYLAYER
70
0
0
ENDTAB
0
TABLE
2
LAYER
5
2
100
AcDbSymbolTable
70
2
0
LAYER
5
50
100
AcDbSymbolTableRecord
100
AcDbLayerTableRecord
2
0
70
0
6
CONTINUOUS
0
ENDTAB
0
TABLE
2
STYLE
5
3
100
AcDbSymbolTable
70
1
0
STYLE
5
11
100
AcDbSymbolTableRecord
100
AcDbTextStyleTableRecord
2
STANDARD
70
0
0
ENDTAB
0
TABLE
2
VIEW
5
6
100
AcDbSymbolTable
70
0
0
ENDTAB
0
TABLE
2
UCS
5
7
100
AcDbSymbolTable
70
0
0
ENDTAB
0
TABLE
2
APPID
5
9
100
AcDbSymbolTable
70
2
0
APPID
5
12
100
AcDbSymbolTableRecord
100
AcDbRegAppTableRecord
2
ACAD
70
0
0
ENDTAB
0
TABLE
2
DIMSTYLE
5
A
100
AcDbSymbolTable
70
1
0
ENDTAB
0
TABLE
2
BLOCK_RECORD
5
1
100
AcDbSymbolTable
70
1
0
BLOCK_RECORD
5
1F
100
AcDbSymbolTableRecord
100
AcDbBlockTableRecord
2
*MODEL_SPACE
0
BLOCK_RECORD
5
1B
100
AcDbSymbolTableRecord
100
AcDbBlockTableRecord
2
*PAPER_SPACE
0
ENDTAB
0
ENDSEC
0
SECTION
2
BLOCKS
0
BLOCK
5
20
100
AcDbEntity
100
AcDbBlockBegin
2
*MODEL_SPACE
0
ENDBLK
5
21
100
AcDbEntity
100
AcDbBlockEnd
0
BLOCK
5
1C
100
AcDbEntity
100
AcDbBlockBegin
2
*PAPER_SPACE
0
ENDBLK
5
1D
100
AcDbEntity
100
AcDbBlockEnd
0
ENDSEC
0
SECTION
2
ENTITIES
0
ARC
5
100
100
AcDbEntity
8
0
100
AcDbCircle
10
-10.591532751986541
20
7.3771681388232402
30
0
40
3.0000000000146336
210
0
220
-0
230
1
100
AcDbArc
50
25.68597622880467
51
116.0642233265324
0
SPLINE
5
101
100
AcDbEntity
8
0
100
AcDbSpline
70
0
71
3
72
8
73
4
74
0
42
0.000000001
43
0.0000000001
44
0.0000000001
40
0.21062458382995014
40
0.21062458382995014
40
0.21062458382995014
40
0.21062458382995014
40
0.22345898339721279
40
0.22345898339721279
40
0.22345898339721279
40
0.22345898339721279
10
-11.909667763220602
20
10.072074462287329
30
0
10
-12.113501902762383
20
10.169825949142961
30
0
10
-12.315246931144589
20
10.271487738418552
30
0
10
-12.514960816249872
20
10.377168137839892
30
0
0
SPLINE
5
102
100
AcDbEntity
8
0
100
AcDbSpline
70
0
71
3
72
8
73
4
74
0
42
0.000000001
43
0.0000000001
44
0.0000000001
40
0.22345898339721279
40
0.22345898339721279
40
0.22345898339721279
40
0.22345898339721279
40
0.23871450475156181
40
0.23871450475156181
40
0.23871450475156181
40
0.23871450475156181
10
-12.514960816249872
20
10.377168137839892
30
0
10
-12.752349361231364
20
10.502784422548741
30
0
10
-12.986868159571646
20
10.634078491340622
30
0
10
-13.218614562610407
20
10.771232236355175
30
0
0
ARC
5
103
100
AcDbEntity
8
0
100
AcDbCircle
10
-16.192620865126468
20
10.377168137839892
30
0
40
3.0000000001906528
210
0
220
-0
230
1
100
AcDbArc
50
7.5478822263827183
51
92.41206732869675
0
ARC
5
104
100
AcDbEntity
8
0
100
AcDbCircle
10
-19.318877936087514
20
13.377168137839899
30
0
40
3.00000000045784
210
-0
220
0
230
1
100
AcDbArc
50
-0.05076473093845154
51
75.025894361293666
0
ARC
5
105
100
AcDbEntity
8
0
100
AcDbCircle
10
-21.542000360515221
20
16.377168138009939
30
0
40
3.0000000000006
210
-0
220
0
230
1
100
AcDbArc
50
-1.9459841446138459
51
78.987608500451188
0
LINE
5
106
100
AcDbEntity
8
0
100
AcDbLine
10
-20.968936490981616
20
19.321925819286751
30
0
11
-20.999610896082608
21
19.377168137839892
31
0
0
SPLINE
5
107
100
AcDbEntity
8
0
100
AcDbSpline
70
0
71
3
72
8
73
4
74
0
42
0.000000001
43
0.0000000001
44
0.0000000001
40
0.43734599104564587
40
0.43734599104564587
40
0.43734599104564587
40
0.43734599104564587
40
0.48615691794374644
40
0.48615691794374644
40
0.48615691794374644
40
0.48615691794374644
10
-20.999610896082778
20
19.377168137840201
30
0
10
-21.529506265025063
20
20.333430160442635
30
0
10
-22.029639285742828
20
21.337724785889726
30
0
10
-22.497202021950542
20
22.377168137839899
30
0
0
SPLINE
5
108
100
AcDbEntity
8
0
100
AcDbSpline
70
0
71
3
72
11
73
7
74
0
42
0.000000001
43
0.0000000001
44
0.0000000001
40
0.48615691794374649
40
0.48615691794374649
40
0.48615691794374649
40
0.48615691794374649
40
0.51318948900381556
40
0.51318948900381556
40
0.51318948900381556
40
0.53187070331553754
40
0.53187070331553754
40
0.53187070331553754
40
0.53187070331553754
10
-22.49720202195055
20
22.377168137839902
30
0
10
-22.756148608192639
20
22.952834859620658
30
0
10
-23.005105271240581
20
23.539282361594772
30
0
10
-23.243595033318094
20
24.134322088872679
30
0
10
-23.408406524856264
20
24.545532130439433
30
0
10
-23.568158605941395
20
24.960043429537464
30
0
10
-23.722898523688535
20
25.377168137839909
30
0
0
SPLINE
5
109
100
AcDbEntity
8
0
100
AcDbSpline
70
0
71
3
72
8
73
4
74
0
42
0.000000001
43
0.0000000001
44
0.0000000001
40
0.53187070331553765
40
0.53187070331553765
40
0.53187070331553765
40
0.53187070331553765
40
0.57613585079729923
40
0.57613585079729923
40
0.57613585079729923
40
0.57613585079729923
10
-23.722898523688531
20
25.377168137839909
30
0
10
-24.089554843031475
20
26.365545361247101
30
0
10
-24.428070206764289
20
27.368595656430514
30
0
10
-24.739073173430384
20
28.377168137839902
30
0
0
SPLINE
5
110
100
AcDbEntity
8
0
100
AcDbSpline
70
0
71
3
72
8
73
4
74
0
42
0.000000001
43
0.0000000001
44
0.0000000001
40
0.57613585079731378
40
0.57613585079731378
40
0.57613585079731378
40
0.57613585079731378
40
0.61991719993298233
40
0.61991719993298233
40
0.61991719993298233
40
0.61991719993298233
10
-24.739073173430693
20
28.377168137840883
30
0
10
-25.046677016193147
20
29.374717371250899
30
0
10
-25.32736657188261
20
30.377668740468849
30
0
10
-25.581750013880811
20
31.377168137839906
30
0
0
SPLINE
5
111
100
AcDbEntity
8
0
100
AcDbSpline
70
0
71
3
72
8
73
4
74
0
42
0.000000001
43
0.0000000001
44
0.0000000001
40
0.61991719993298244
40
0.61991719993298244
40
0.61991719993298244
40
0.61991719993298244
40
0.66400583569050686
40
0.66400583569050686
40
0.66400583569050686
40
0.66400583569050686
10
-25.581750013880811
20
31.377168137839917
30
0
10
-25.83791888803427
20
32.383682686626535
30
0
10
-26.067411085015962
20
33.38669663704858
30
0
10
-26.27084767399241
20
34.377168137839902
30
0
0
SPLINE
5
112
100
AcDbEntity
8
0
100
AcDbSpline
70
0
71
3
72
11
73
7
74
0
42
0.000000001
43
0.0000000001
44
0.0000000001
40
0.6640058356905113
40
0.6640058356905113
40
0.6640058356905113
40
0.6640058356905113
40
0.67113010609470902
40
0.67113010609470902
40
0.67113010609470902
40
0.70915244075089068
40
0.70915244075089068
40
0.70915244075089068
40
0.70915244075089068
10
-26.270847673992478
20
34.377168137840201
30
0
10
-26.303720935890325
20
34.537218152499236
30
0
10
-26.335913853597962
20
34.696940668266841
30
0
10
-26.367429047597337
20
34.856297534789931
30
0
10
-26.535626095858277
20
35.706787446729727
30
0
10
-26.68489927406025
20
36.546491298580143
30
0
10
-26.8174907575664
20
37.377168137839895
30
0
0
SPLINE
5
113
100
AcDbEntity
8
0
100
AcDbSpline
70
0
71
3
72
8
73
4
74
0
42
0.000000001
43
0.0000000001
44
0.0000000001
40
0.7091524407509423
40
0.7091524407509423
40
0.7091524407509423
40
0.7091524407509423
40
0.75549026009647124
40
0.75549026009647124
40
0.75549026009647124
40
0.75549026009647124
10
-26.817490757566944
20
37.377168137843277
30
0
10
-26.979079998864695
20
38.389514004034694
30
0
10
-27.115893091813717
20
39.388452683056556
30
0
10
-27.231988484663042
20
40.377168137839888
30
0
0
SPLINE
5
114
100
AcDbEntity
8
0
100
AcDbSpline
70
0
71
3
72
8
73
4
74
0
42
0.000000001
43
0.0000000001
44
0.0000000001
40
0.75549026009647124
40
0.75549026009647124
40
0.75549026009647124
40
0.75549026009647124
40
0.8028035130931821
40
0.8028035130931821
40
0.8028035130931821
40
0.8028035130931821
10
-27.231988484663042
20
40.377168137839888
30
0
10
-27.350527742038832
20
41.386696534182867
30
0
10
-27.447467883483682
20
42.385566768449294
30
0
10
-27.527129087211858
20
43.377168137839902
30
0
0
SPLINE
5
115
100
AcDbEntity
8
0
100
AcDbSpline
70
0
71
3
72
8
73
4
74
0
42
0.000000001
43
0.0000000001
44
0.0000000001
40
0.80280351309401476
40
0.80280351309401476
40
0.80280351309401476
40
0.80280351309401476
40
0.8508183474163501
40
0.8508183474163501
40
0.8508183474163501
40
0.8508183474163501
10
-27.527129087216068
20
43.377168137892248
30
0
10
-27.607971541637092
20
44.383473400149065
30
0
10
-27.671018819922978
20
45.382292627506722
30
0
10
-27.720786148565789
20
46.377168137839881
30
0
0
SPLINE
5
116
100
AcDbEntity
8
0
100
AcDbSpline
70
0
71
3
72
11
73
7
74
0
42
0.000000001
43
0.0000000001
44
0.0000000001
40
0.85081834741635154
40
0.85081834741635154
40
0.85081834741635154
40
0.85081834741635154
40
0.86090488788811259
40
0.86090488788811259
40
0.86090488788811259
40
0.89909488845235741
40
0.89909488845235741
40
0.89909488845235741
40
0.89909488845235741
10
-27.720786148565786
20
46.377168137839966
30
0
10
-27.731240837863631
20
46.586162967062393
30
0
10
-27.741109483423418
20
46.794983760183101
30
0
10
-27.750433943386739
20
47.003663356051568
30
0
10
-27.785738528963666
20
47.793773097471338
30
0
10
-27.813853357586645
20
48.584382775202279
30
0
10
-27.836065094507887
20
49.37716813783971
30
0
0
SPLINE
5
117
100
AcDbEntity
8
0
100
AcDbSpline
70
0
71
3
72
8
73
4
74
0
42
0.000000001
43
0.0000000001
44
0.0000000001
40
0.89909488845236041
40
0.89909488845236041
40
0.89909488845236041
40
0.89909488845236041
40
0.94704830132178075
40
0.94704830132178075
40
0.94704830132178075
40
0.94704830132178075
10
-27.836065094507902
20
49.377168137839888
30
0
10
-27.863955342619828
20
50.372631956894629
30
0
10
-27.882538386511165
20
51.371526104456464
30
0
10
-27.894361497132465
20
52.37716813783873
30
0
0
SPLINE
5
118
100
AcDbEntity
8
0
100
AcDbSpline
70
0
71
3
72
8
73
4
74
0
42
0.000000001
43
0.0000000001
44
0.0000000001
40
0.94704830132179885
40
0.94704830132179885
40
0.94704830132179885
40
0.94704830132179885
40
1
40
1
40
1
40
1
10
-27.894361497132479
20
52.377168137839874
30
0
10
-27.907416955620128
20
53.487630370732369
30
0
10
-27.912229834331235
20
54.606320493601913
30
0
10
-27.912229834331235
20
55.737705337843039
30
0
0
LINE
5
119
100
AcDbEntity
8
0
100
AcDbLine
10
-27.912229834331242
20
55.737705337843039
30
0
11
-31.412229834331239
21
55.737705337843039
31
0
0
SPLINE
5
120
100
AcDbEntity
8
0
100
AcDbSpline
70
0
71
3
72
8
73
4
74
0
42
0.000000001
43
0.0000000001
44
0.0000000001
40
-1
40
-1
40
-1
40
-1
40
-0.94774169081034987
40
-0.94774169081034987
40
-0.94774169081034987
40
-0.94774169081034987
10
-31.412229834331239
20
55.737705337843039
30
0
10
-31.412229834331242
20
54.608554859810695
30
0
10
-31.406848334214089
20
53.49010046914627
30
0
10
-31.393556919305379
20
52.377168137839888
30
0
0
LINE
5
121
100
AcDbEntity
8
0
100
AcDbLine
10
-31.393556919305375
20
52.377168137839888
30
0
11
-31.336477610102847
21
52.377168137839888
31
0
0
LINE
5
122
100
AcDbEntity
8
0
100
AcDbLine
10
-31.336477610102847
20
52.377168137839888
30
0
11
-31.336477610102847
21
49.377168137839888
31
0
0
LINE
5
123
100
AcDbEntity
8
0
100
AcDbLine
10
-31.336477610102847
20
49.377168137839888
30
0
11
-31.22604728251892
21
49.377168137839888
31
0
0
LINE
5
124
100
AcDbEntity
8
0
100
AcDbLine
10
-31.22604728251892
20
49.377168137839888
30
0
11
-31.22604728251892
21
46.377168137839888
31
0
0
LINE
5
125
100
AcDbEntity
8
0
100
AcDbLine
10
-31.22604728251892
20
46.377168137839888
30
0
11
-31.03937125847089
21
46.377168137839888
31
0
0
LINE
5
126
100
AcDbEntity
8
0
100
AcDbLine
10
-31.03937125847089
20
46.377168137839888
30
0
11
-31.03937125847089
21
43.377168137839888
31
0
0
LINE
5
127
100
AcDbEntity
8
0
100
AcDbLine
10
-31.03937125847089
20
43.377168137839888
30
0
11
-30.755744344524963
21
43.377168137839888
31
0
0
LINE
5
128
100
AcDbEntity
8
0
100
AcDbLine
10
-30.755744344524963
20
43.377168137839888
30
0
11
-30.755744344524963
21
40.377168137839888
31
0
0
LINE
5
129
100
AcDbEntity
8
0
100
AcDbLine
10
-30.755744344524963
20
40.377168137839888
30
0
11
-30.359600512219966
21
40.377168137839888
31
0
0
LINE
5
130
100
AcDbEntity
8
0
100
AcDbLine
10
-30.359600512219966
20
40.377168137839888
30
0
11
-30.359600512219966
21
37.377168137839895
31
0
0
LINE
5
131
100
AcDbEntity
8
0
100
AcDbLine
10
-30.359600512219966
20
37.377168137839895
30
0
11
-29.839977930538932
21
37.377168137839895
31
0
0
LINE
5
132
100
AcDbEntity
8
0
100
AcDbLine
10
-29.839977930538932
20
37.377168137839895
30
0
11
-29.839977930538932
21
34.377168137814699
31
0
0
LINE
5
133
100
AcDbEntity
8
0
100
AcDbLine
10
-29.839977930538932
20
34.377168137814699
30
0
11
-29.18763973709892
21
34.377168137839895
31
0
0
LINE
5
134
100
AcDbEntity
8
0
100
AcDbLine
10
-29.18763973709892
20
34.377168137839895
30
0
11
-29.18763973709892
21
31.377168137753671
31
0
0
LINE
5
135
100
AcDbEntity
8
0
100
AcDbLine
10
-29.18763973709892
20
31.377168137753671
30
0
11
-28.392909849850788
21
31.377168137839895
31
0
0
LINE
5
136
100
AcDbEntity
8
0
100
AcDbLine
10
-28.392909849850788
20
31.377168137839895
30
0
11
-28.392909849850788
21
28.377168137839703
31
0
0
LINE
5
137
100
AcDbEntity
8
0
100
AcDbLine
10
-28.392909849850788
20
28.377168137839703
30
0
11
-27.440628271448453
21
28.377168137839899
31
0
0
LINE
5
138
100
AcDbEntity
8
0
100
AcDbLine
10
-27.440628271448453
20
28.377168137839899
30
0
11
-27.440628271448453
21
25.377168137839902
31
0
0
LINE
5
139
100
AcDbEntity
8
0
100
AcDbLine
10
-27.440628271448453
20
25.377168137839902
30
0
11
-26.306483797671206
21
25.377168137839902
31
0
0
LINE
5
140
100
AcDbEntity
8
0
100
AcDbLine
10
-26.306483797671206
20
25.377168137839902
30
0
11
-26.306483797671206
21
22.377168137839902
31
0
0
LINE
5
141
100
AcDbEntity
8
0
100
AcDbLine
10
-26.306483797671206
20
22.377168137839902
30
0
11
-24.949825039999052
21
22.377168137839902
31
0
0
LINE
5
142
100
AcDbEntity
8
0
100
AcDbLine
10
-24.949825039999052
20
22.377168137839902
30
0
11
-24.949825039999052
21
19.377168137839895
31
0
0
LINE
5
143
100
AcDbEntity
8
0
100
AcDbLine
10
-24.949825039999052
20
19.377168137839895
30
0
11
-23.305402324390364
21
19.377168137839895
31
0
0
LINE
5
144
100
AcDbEntity
8
0
100
AcDbLine
10
-23.305402324390364
20
19.377168137839895
30
0
11
-23.305402324390364
21
16.377168137839895
31
0
0
LINE
5
145
100
AcDbEntity
8
0
100
AcDbLine
10
-23.305402324390364
20
16.377168137839895
30
0
11
-21.542000360515221
21
16.377168138009939
31
0
0
LINE
5
146
100
AcDbEntity
8
0
100
AcDbLine
10
-21.542000360515221
20
16.377168138009939
30
0
11
-21.542000360515221
21
13.377168137839899
31
0
0
LINE
5
147
100
AcDbEntity
8
0
100
AcDbLine
10
-21.542000360515221
20
13.377168137839899
30
0
11
-19.318877936087514
21
13.377168137839899
31
0
0
LINE
5
148
100
AcDbEntity
8
0
100
AcDbLine
10
-19.318877936087514
20
13.377168137839899
30
0
11
-19.318877936087514
21
10.377168137839892
31
0
0
LINE
5
149
100
AcDbEntity
8
0
100
AcDbLine
10
-19.318877936087514
20
10.377168137839892
30
0
11
-16.192620865126468
21
10.377168137839892
31
0
0
LINE
5
150
100
AcDbEntity
8
0
100
AcDbLine
10
-16.192620865126468
20
10.377168137839892
30
0
11
-16.192620865126468
21
7.3771681378398934
31
0
0
LINE
5
151
100
AcDbEntity
8
0
100
AcDbLine
10
-16.192620865126468
20
7.3771681378398934
30
0
11
-10.591532751986541
21
7.3771681388232402
31
0
0
LINE
5
152
100
AcDbEntity
8
0
100
AcDbLine
10
-10.591532751986541
20
7.3771681388232402
30
0
11
-10.591532751986541
21
4.3771681378398952
31
0
0
LINE
5
153
100
AcDbEntity
8
0
100
AcDbLine
10
-10.591532751986541
20
4.3771681378398952
30
0
11
-1.4999999999999991
21
4.3771681378398961
31
0
0
LINE
5
154
100
AcDbEntity
8
0
100
AcDbLine
10
-1.4999999999999991
20
4.3771681378398961
30
0
11
-1.4999999999999991
21
5.8771681378398988
31
0
0
LINE
5
155
100
AcDbEntity
8
0
100
AcDbLine
10
-1.4999999999999991
20
5.8771681378398988
30
0
11
1.4500000000000002
21
5.8771681378398988
31
0
0
LINE
5
156
100
AcDbEntity
8
0
100
AcDbLine
10
1.4500000000000002
20
5.8771681378398988
30
0
11
1.4500000000000002
21
4.3771681378398961
31
0
0
LINE
5
157
100
AcDbEntity
8
0
100
AcDbLine
10
1.4500000000000002
20
4.3771681378398961
30
0
11
10.591532751986538
21
4.3771681378398961
31
0
0
LINE
5
158
100
AcDbEntity
8
0
100
AcDbLine
10
10.591532751986538
20
4.3771681378398961
30
0
11
10.591532751986538
21
7.3771681388232366
31
0
0
LINE
5
159
100
AcDbEntity
8
0
100
AcDbLine
10
10.591532751986538
20
7.3771681388232366
30
0
11
16.192620865126468
21
7.3771681378398952
31
0
0
LINE
5
160
100
AcDbEntity
8
0
100
AcDbLine
10
16.192620865126468
20
7.3771681378398952
30
0
11
16.192620865126468
21
10.377168137839895
31
0
0
LINE
5
161
100
AcDbEntity
8
0
100
AcDbLine
10
16.192620865126468
20
10.377168137839895
30
0
11
19.318877936087514
21
10.377168137839895
31
0
0
LINE
5
162
100
AcDbEntity
8
0
100
AcDbLine
10
19.318877936087514
20
10.377168137839895
30
0
11
19.318877936087514
21
13.377168137839897
31
0
0
LINE
5
163
100
AcDbEntity
8
0
100
AcDbLine
10
19.318877936087514
20
13.377168137839897
30
0
11
21.542000360515221
21
13.377168137839897
31
0
0
LINE
5
164
100
AcDbEntity
8
0
100
AcDbLine
10
21.542000360515221
20
13.377168137839897
30
0
11
21.542000360515221
21
16.377168138009939
31
0
0
LINE
5
165
100
AcDbEntity
8
0
100
AcDbLine
10
21.542000360515221
20
16.377168138009939
30
0
11
23.305402324390364
21
16.377168137839895
31
0
0
LINE
5
166
100
AcDbEntity
8
0
100
AcDbLine
10
23.305402324390364
20
16.377168137839895
30
0
11
23.305402324390364
21
19.377168137839899
31
0
0
LINE
5
167
100
AcDbEntity
8
0
100
AcDbLine
10
23.305402324390364
20
19.377168137839899
30
0
11
24.949825039999052
21
19.377168137839899
31
0
0
LINE
5
168
100
AcDbEntity
8
0
100
AcDbLine
10
24.949825039999052
20
19.377168137839899
30
0
11
24.949825039999052
21
22.377168137839899
31
0
0
LINE
5
169
100
AcDbEntity
8
0
100
AcDbLine
10
24.949825039999052
20
22.377168137839899
30
0
11
26.306483797671206
21
22.377168137839902
31
0
0
LINE
5
170
100
AcDbEntity
8
0
100
AcDbLine
10
26.306483797671206
20
22.377168137839902
30
0
11
26.306483797671206
21
25.377168137839902
31
0
0
LINE
5
171
100
AcDbEntity
8
0
100
AcDbLine
10
26.306483797671206
20
25.377168137839902
30
0
11
27.440628271448453
21
25.377168137839902
31
0
0
LINE
5
172
100
AcDbEntity
8
0
100
AcDbLine
10
27.440628271448453
20
25.377168137839902
30
0
11
27.440628271448453
21
28.377168137839899
31
0
0
LINE
5
173
100
AcDbEntity
8
0
100
AcDbLine
10
27.440628271448453
20
28.377168137839899
30
0
11
28.392909849850788
21
28.377168137839703
31
0
0
LINE
5
174
100
AcDbEntity
8
0
100
AcDbLine
10
28.392909849850788
20
28.377168137839703
30
0
11
28.392909849850788
21
31.377168137839895
31
0
0
LINE
5
175
100
AcDbEntity
8
0
100
AcDbLine
10
28.392909849850788
20
31.377168137839895
30
0
11
29.18763973709892
21
31.377168137753671
31
0
0
LINE
5
176
100
AcDbEntity
8
0
100
AcDbLine
10
29.18763973709892
20
31.377168137753671
30
0
11
29.18763973709892
21
34.377168137839895
31
0
0
LINE
5
177
100
AcDbEntity
8
0
100
AcDbLine
10
29.18763973709892
20
34.377168137839895
30
0
11
29.839977930538936
21
34.377168137814699
31
0
0
LINE
5
178
100
AcDbEntity
8
0
100
AcDbLine
10
29.839977930538936
20
34.377168137814699
30
0
11
29.839977930538936
21
37.377168137839895
31
0
0
LINE
5
179
100
AcDbEntity
8
0
100
AcDbLine
10
29.839977930538936
20
37.377168137839895
30
0
11
30.35960051221997
21
37.377168137839895
31
0
0
LINE
5
180
100
AcDbEntity
8
0
100
AcDbLine
10
30.35960051221997
20
37.377168137839895
30
0
11
30.35960051221997
21
40.377168137839888
31
0
0
LINE
5
181
100
AcDbEntity
8
0
100
AcDbLine
10
30.35960051221997
20
40.377168137839888
30
0
11
30.755744344524963
21
40.377168137839888
31
0
0
LINE
5
182
100
AcDbEntity
8
0
100
AcDbLine
10
30.755744344524963
20
40.377168137839888
30
0
11
30.755744344524963
21
43.377168137839888
31
0
0
LINE
5
183
100
AcDbEntity
8
0
100
AcDbLine
10
30.755744344524963
20
43.377168137839888
30
0
11
31.03937125847089
21
43.377168137839888
31
0
0
LINE
5
184
100
AcDbEntity
8
0
100
AcDbLine
10
31.03937125847089
20
43.377168137839888
30
0
11
31.03937125847089
21
46.377168137839888
31
0
0
LINE
5
185
100
AcDbEntity
8
0
100
AcDbLine
10
31.03937125847089
20
46.377168137839888
30
0
11
31.22604728251892
21
46.377168137839888
31
0
0
LINE
5
186
100
AcDbEntity
8
0
100
AcDbLine
10
31.22604728251892
20
46.377168137839888
30
0
11
31.22604728251892
21
49.377168137839888
31
0
0
LINE
5
187
100
AcDbEntity
8
0
100
AcDbLine
10
31.22604728251892
20
49.377168137839888
30
0
11
31.336477610102843
21
49.377168137839888
31
0
0
LINE
5
188
100
AcDbEntity
8
0
100
AcDbLine
10
31.336477610102843
20
49.377168137839888
30
0
11
31.336477610102843
21
52.377168137839888
31
0
0
LINE
5
189
100
AcDbEntity
8
0
100
AcDbLine
10
31.336477610102843
20
52.377168137839888
30
0
11
31.393556919486819
21
52.377168137839888
31
0
0
LINE
5
190
100
AcDbEntity
8
0
100
AcDbLine
10
31.393556919486819
20
52.377168137839888
30
0
11
31.393556919486819
21
55.377168130602357
31
0
0
LINE
5
191
100
AcDbEntity
8
0
100
AcDbLine
10
31.393556919486819
20
55.377168130602357
30
0
11
31.412043528221613
21
55.377168130602357
31
0
0
SPLINE
5
192
100
AcDbEntity
8
0
100
AcDbSpline
70
0
71
3
72
8
73
4
74
0
42
0.000000001
43
0.0000000001
44
0.0000000001
40
0.9944324600078005
40
0.9944324600078005
40
0.9944324600078005
40
0.9944324600078005
40
1
40
1
40
1
40
1
10
31.412043528221613
20
55.37716813060235
30
0
10
31.412168751474997
20
55.497229964670893
30
0
10
31.412229834331239
20
55.617406948148833
30
0
10
31.412229834331239
20
55.737705337843039
30
0
0
LINE
5
193
100
AcDbEntity
8
0
100
AcDbLine
10
31.412229834331239
20
55.737705337843039
30
0
11
27.912229834331235
21
55.737705337843039
31
0
0
SPLINE
5
194
100
AcDbEntity
8
0
100
AcDbSpline
70
0
71
3
72
8
73
4
74
0
42
0.000000001
43
0.0000000001
44
0.0000000001
40
-1
40
-1
40
-1
40
-1
40
-0.94704830132179818
40
-0.94704830132179818
40
-0.94704830132179818
40
-0.94704830132179818
10
27.912229834331235
20
55.737705337843039
30
0
10
27.912229834331235
20
54.606320493601892
30
0
10
27.907416955620139
20
53.487630370732361
30
0
10
27.894361497132493
20
52.377168137839888
30
0
0
SPLINE
5
195
100
AcDbEntity
8
0
100
AcDbSpline
70
0
71
3
72
8
73
4
74
0
42
0.000000001
43
0.0000000001
44
0.0000000001
40
-0.94704830132178008
40
-0.94704830132178008
40
-0.94704830132178008
40
-0.94704830132178008
40
-0.89909488845235896
40
-0.89909488845235896
40
-0.89909488845235896
40
-0.89909488845235896
10
27.894361497132483
20
52.377168137838758
30
0
10
27.882538386511179
20
51.371526104456478
30
0
10
27.863955342619846
20
50.372631956894651
30
0
10
27.836065094507919
20
49.377168137839895
30
0
0
SPLINE
5
196
100
AcDbEntity
8
0
100
AcDbSpline
70
0
71
3
72
11
73
7
74
0
42
0.000000001
43
0.0000000001
44
0.0000000001
40
-0.8990948884523563
40
-0.8990948884523563
40
-0.8990948884523563
40
-0.8990948884523563
40
-0.86090488788795616
40
-0.86090488788795616
40
-0.86090488788795616
40
-0.85081834741635143
40
-0.85081834741635143
40
-0.85081834741635143
40
-0.85081834741635143
10
27.836065094507909
20
49.377168137839725
30
0
10
27.813853357586574
20
48.58438277519906
30
0
10
27.785738528963453
20
47.7937730974649
30
0
10
27.750433943386305
20
47.003663356041876
30
0
10
27.741109483423109
20
46.794983760176628
30
0
10
27.73124083786346
20
46.586162967059153
30
0
10
27.720786148565782
20
46.377168137839959
30
0
0
SPLINE
5
197
100
AcDbEntity
8
0
100
AcDbSpline
70
0
71
3
72
8
73
4
74
0
42
0.000000001
43
0.0000000001
44
0.0000000001
40
-0.85081834741634998
40
-0.85081834741634998
40
-0.85081834741634998
40
-0.85081834741634998
40
-0.80280351309401576
40
-0.80280351309401576
40
-0.80280351309401576
40
-0.80280351309401576
10
27.720786148565782
20
46.377168137839881
30
0
10
27.671018819922956
20
45.382292627506715
30
0
10
27.60797154163707
20
44.383473400149072
30
0
10
27.527129087216057
20
43.377168137892269
30
0
0
SPLINE
5
198
100
AcDbEntity
8
0
100
AcDbSpline
70
0
71
3
72
8
73
4
74
0
42
0.000000001
43
0.0000000001
44
0.0000000001
40
-0.8028035130931831
40
-0.8028035130931831
40
-0.8028035130931831
40
-0.8028035130931831
40
-0.75549026009647269
40
-0.75549026009647269
40
-0.75549026009647269
40
-0.75549026009647269
10
27.52712908721184
20
43.377168137839902
30
0
10
27.447467883483668
20
42.385566768449294
30
0
10
27.350527742038821
20
41.38669653418286
30
0
10
27.231988484663034
20
40.377168137839888
30
0
0
SPLINE
5
199
100
AcDbEntity
8
0
100
AcDbSpline
70
0
71
3
72
8
73
4
74
0
42
0.000000001
43
0.0000000001
44
0.0000000001
40
-0.75549026009647258
40
-0.75549026009647258
40
-0.75549026009647258
40
-0.75549026009647258
40
-0.70915244075094341
40
-0.70915244075094341
40
-0.70915244075094341
40
-0.70915244075094341
10
27.231988484663038
20
40.377168137839909
30
0
10
27.11589309181371
20
39.388452683056549
30
0
10
26.979079998864698
20
38.389514004034694
30
0
10
26.817490757566951
20
37.377168137843292
30
0
0
SPLINE
5
200
100
AcDbEntity
8
0
100
AcDbSpline
70
0
71
3
72
11
73
7
74
0
42
0.000000001
43
0.0000000001
44
0.0000000001
40
-0.70915244075089179
40
-0.70915244075089179
40
-0.70915244075089179
40
-0.70915244075089179
40
-0.67113010609460833
40
-0.67113010609460833
40
-0.67113010609460833
40
-0.66400583569051075
40
-0.66400583569051075
40
-0.66400583569051075
40
-0.66400583569051075
10
26.817490757566411
20
37.377168137839902
30
0
10
26.684899274059909
20
36.546491298577948
30
0
10
26.535626095857484
20
35.706787446725279
30
0
10
26.367429047596001
20
34.856297534783181
30
0
10
26.335913853597045
20
34.696940668262329
30
0
10
26.303720935889849
20
34.537218152496962
30
0
10
26.270847673992463
20
34.377168137840179
30
0
0
SPLINE
5
201
100
AcDbEntity
8
0
100
AcDbSpline
70
0
71
3
72
8
73
4
74
0
42
0.000000001
43
0.0000000001
44
0.0000000001
40
-0.66400583569050653
40
-0.66400583569050653
40
-0.66400583569050653
40
-0.66400583569050653
40
-0.61991719993298156
40
-0.61991719993298156
40
-0.61991719993298156
40
-0.61991719993298156
10
26.27084767399241
20
34.377168137839888
30
0
10
26.067411085015948
20
33.386696637048594
30
0
10
25.837918888034256
20
32.383682686626535
30
0
10
25.581750013880793
20
31.377168137839888
30
0
0
SPLINE
5
202
100
AcDbEntity
8
0
100
AcDbSpline
70
0
71
3
72
8
73
4
74
0
42
0.000000001
43
0.0000000001
44
0.0000000001
40
-0.61991719993298156
40
-0.61991719993298156
40
-0.61991719993298156
40
-0.61991719993298156
40
-0.57613585079731378
40
-0.57613585079731378
40
-0.57613585079731378
40
-0.57613585079731378
10
25.581750013880793
20
31.377168137839888
30
0
10
25.327366571882596
20
30.377668740468859
30
0
10
25.046677016193144
20
29.374717371250906
30
0
10
24.739073173430693
20
28.377168137840904
30
0
0
SPLINE
5
203
100
AcDbEntity
8
0
100
AcDbSpline
70
0
71
3
72
8
73
4
74
0
42
0.000000001
43
0.0000000001
44
0.0000000001
40
-0.57613585079729912
40
-0.57613585079729912
40
-0.57613585079729912
40
-0.57613585079729912
40
-0.53187070331553798
40
-0.53187070331553798
40
-0.53187070331553798
40
-0.53187070331553798
10
24.739073173430384
20
28.377168137839909
30
0
10
24.428070206764279
20
27.3685956564305
30
0
10
24.089554843031475
20
26.365545361247086
30
0
10
23.722898523688542
20
25.377168137839906
30
0
0
SPLINE
5
204
100
AcDbEntity
8
0
100
AcDbSpline
70
0
71
3
72
11
73
7
74
0
42
0.000000001
43
0.0000000001
44
0.0000000001
40
-0.53187070331553798
40
-0.53187070331553798
40
-0.53187070331553798
40
-0.53187070331553798
40
-0.51318948900372519
40
-0.51318948900372519
40
-0.51318948900372519
40
-0.48615691794374694
40
-0.48615691794374694
40
-0.48615691794374694
40
-0.48615691794374694
10
23.722898523688542
20
25.377168137839906
30
0
10
23.568158605940649
20
24.960043429535435
30
0
10
23.408406524854723
20
24.545532130435404
30
0
10
23.2435950333157
20
24.134322088866686
30
0
10
23.005105271238921
20
23.539282361590832
30
0
10
22.756148608191783
20
22.952834859618719
30
0
10
22.497202021950564
20
22.377168137839902
30
0
0
SPLINE
5
205
100
AcDbEntity
8
0
100
AcDbSpline
70
0
71
3
72
8
73
4
74
0
42
0.000000001
43
0.0000000001
44
0.0000000001
40
-0.48615691794374688
40
-0.48615691794374688
40
-0.48615691794374688
40
-0.48615691794374688
40
-0.43734599104564631
40
-0.43734599104564631
40
-0.43734599104564631
40
-0.43734599104564631
10
22.497202021950557
20
22.377168137839899
30
0
10
22.029639285742842
20
21.337724785889716
30
0
10
21.529506265025084
20
20.333430160442632
30
0
10
20.999610896082793
20
19.377168137840201
30
0
0
LINE
5
206
100
AcDbEntity
8
0
100
AcDbLine
10
20.999610896082793
20
19.377168137840197
30
0
11
20.968936490981793
21
19.32192581928707
31
0
0
ARC
5
207
100
AcDbEntity
8
0
100
AcDbCircle
10
21.542000360515221
20
16.377168138009939
30
0
40
3.0000000000008828
210
0
220
0
230
1
100
AcDbArc
50
101.01239149954432
51
181.94598414461385
0
ARC
5
208
100
AcDbEntity
8
0
100
AcDbCircle
10
19.318877936087514
20
13.377168137839897
30
0
40
3.0000000004578391
210
0
220
0
230
1
100
AcDbArc
50
104.97410563870642
51
180.05076473682564
0
ARC
5
209
100
AcDbEntity
8
0
100
AcDbCircle
10
16.192620865126468
20
10.377168137839895
30
0
40
3.0000000000000027
210
0
220
-0
230
1
100
AcDbArc
50
87.587932671049884
51
172.45211777075525
0
SPLINE
5
210
100
AcDbEntity
8
0
100
AcDbSpline
70
0
71
3
72
8
73
4
74
0
42
0.000000001
43
0.0000000001
44
0.0000000001
40
-0.23871450475614087
40
-0.23871450475614087
40
-0.23871450475614087
40
-0.23871450475614087
40
-0.22345898339721237
40
-0.22345898339721237
40
-0.22345898339721237
40
-0.22345898339721237
10
13.218614562819088
20
10.771232236478687
30
0
10
12.986868159712426
20
10.634078491419448
30
0
10
12.752349361302606
20
10.502784422586451
30
0
10
12.514960816249856
20
10.377168137839895
30
0
0
SPLINE
5
211
100
AcDbEntity
8
0
100
AcDbSpline
70
0
71
3
72
8
73
4
74
0
42
0.000000001
43
0.0000000001
44
0.0000000001
40
-0.22345898339721235
40
-0.22345898339721235
40
-0.22345898339721235
40
-0.22345898339721235
40
-0.21062458382994978
40
-0.21062458382994978
40
-0.21062458382994978
40
-0.21062458382994978
10
12.514960816249854
20
10.377168137839895
30
0
10
12.315246931144577
20
10.271487738418557
30
0
10
12.113501902762371
20
10.169825949142968
30
0
10
11.90966776322059
20
10.072074462287334
30
0
0
ARC
5
212
100
AcDbEntity
8
0
100
AcDbCircle
10
10.591532751986538
20
7.3771681388232366
30
0
40
3.0000000000146292
210
0
220
-0
230
1
100
AcDbArc
50
63.935776673467693
51
154.31402377119528
0
SPLINE
5
213
100
AcDbEntity
8
0
100
AcDbSpline
70
0
71
3
72
8
73
4
74
0
42
0.000000001
43
0.0000000001
44
0.0000000001
40
-0.13165649472149174
40
-0.13165649472149174
40
-0.13165649472149174
40
-0.13165649472149174
40
-0.034276680039137981
40
-0.034276680039137981
40
-0.034276680039137981
40
-0.034276680039137981
10
7.8879833405139923
20
8.6774837081425567
30
0
10
6.1230223082978865
20
8.2597100632860965
30
0
10
4.2207873560146414
20
8.0221103965920442
30
0
10
2.1907483027023869
20
7.9267100074498416
30
0
0
ARC
5
214
100
AcDbEntity
8
0
100
AcDbCircle
10
0
20
5.8771681378398988
30
0
40
3.0000000001796021
210
0
220
-0
230
1
100
AcDbArc
50
43.092690921996628
51
136.90730907713819
0
SPLINE
5
215
100
AcDbEntity
8
0
100
AcDbSpline
70
0
71
3
72
8
73
4
74
0
42
0.000000001
43
0.0000000001
44
0.0000000001
40
0.034276680038024407
40
0.034276680038024407
40
0.034276680038024407
40
0.034276680038024407
40
0.13165649472149168
40
0.13165649472149168
40
0.13165649472149168
40
0.13165649472149168
10
-2.1907483026327457
20
7.9267100074465677
30
0
10
-4.2207873559711375
20
8.022110396586605
30
0
10
-6.1230223082777036
20
8.259710063281311
30
0
10
-7.8879833405139932
20
8.6774837081425442
30
0
0
ENDSEC
0
SECTION
2
OBJECTS
0
DICTIONARY
5
C
100
AcDbDictionary
3
ACAD_GROUP
350
D
3
ACAD_MLINESTYLE
350
17
0
DICTIONARY
5
D
100
AcDbDictionary
0
DICTIONARY
5
1A
330
C
100
AcDbDictionary
0
DICTIONARY
5
17
100
AcDbDictionary
0
ENDSEC
0
EOF
