0
SECTION
2
HEADER
9
$INSUNITS
70
4
9
$ACADVER
1
AC1014
9
$HANDSEED
5
FFFF
0
ENDSEC
0
SECTION
2
TABLES
0
TABLE
2
VPORT
5
8
100
AcDbSymbolTable
0
ENDTAB
0
TABLE
2
LTYPE
5
5
100
AcDbSymbolTable
0
LTYPE
5
14
100
AcDbSymbolTableRecord
100
AcDbLinetypeTableRecord
2
BYBLOCK
70
0
0
LTYPE
5
15
100
AcDbSymbolTableRecord
100
AcDbLinetypeTableRecord
2
BYLAYER
70
0
0
ENDTAB
0
TABLE
2
LAYER
5
2
100
AcDbSymbolTable
70
2
0
LAYER
5
50
100
AcDbSymbolTableRecord
100
AcDbLayerTableRecord
2
0
70
0
6
CONTINUOUS
0
ENDTAB
0
TABLE
2
STYLE
5
3
100
AcDbSymbolTable
70
1
0
STYLE
5
11
100
AcDbSymbolTableRecord
100
AcDbTextStyleTableRecord
2
STANDARD
70
0
0
ENDTAB
0
TABLE
2
VIEW
5
6
100
AcDbSymbolTable
70
0
0
ENDTAB
0
TABLE
2
UCS
5
7
100
AcDbSymbolTable
70
0
0
ENDTAB
0
TABLE
2
APPID
5
9
100
AcDbSymbolTable
70
2
0
APPID
5
12
100
AcDbSymbolTableRecord
100
AcDbRegAppTableRecord
2
ACAD
70
0
0
ENDTAB
0
TABLE
2
DIMSTYLE
5
A
100
AcDbSymbolTable
70
1
0
ENDTAB
0
TABLE
2
BLOCK_RECORD
5
1
100
AcDbSymbolTable
70
1
0
BLOCK_RECORD
5
1F
100
AcDbSymbolTableRecord
100
AcDbBlockTableRecord
2
*MODEL_SPACE
0
BLOCK_RECORD
5
1B
100
AcDbSymbolTableRecord
100
AcDbBlockTableRecord
2
*PAPER_SPACE
0
ENDTAB
0
ENDSEC
0
SECTION
2
BLOCKS
0
BLOCK
5
20
100
AcDbEntity
100
AcDbBlockBegin
2
*MODEL_SPACE
0
ENDBLK
5
21
100
AcDbEntity
100
AcDbBlockEnd
0
BLOCK
5
1C
100
AcDbEntity
100
AcDbBlockBegin
2
*PAPER_SPACE
0
ENDBLK
5
1D
100
AcDbEntity
100
AcDbBlockEnd
0
ENDSEC
0
SECTION
2
ENTITIES
0
ARC
5
100
100
AcDbEntity
8
0
100
AcDbCircle
10
-13.314252736218702
20
7.377168137839738
30
1.7763568394002505e-14
40
3.0000000000000098
210
7.6516582466316208e-31
220
-4.7439239606319976e-32
230
1
100
AcDbArc
50
27.416037153217029
51
118.40755156634037
0
SPLINE
5
101
100
AcDbEntity
8
0
100
AcDbSpline
70
0
71
3
72
8
73
4
74
0
42
0.000000001
43
0.0000000001
44
0.0000000001
40
0.21251537549828886
40
0.21251537549828886
40
0.21251537549828886
40
0.21251537549828886
40
0.22657323995481024
40
0.22657323995481024
40
0.22657323995481024
40
0.22657323995481024
10
-14.741473163280471
20
10.015925772140765
30
0
10
-15.011610818742069
20
10.130678367219627
30
0
10
-15.277347412646002
20
10.25110249666322
30
0
10
-15.538706582615784
20
10.37716813783036
30
0
0
SPLINE
5
102
100
AcDbEntity
8
0
100
AcDbSpline
70
0
71
3
72
8
73
4
74
0
42
0.000000001
43
0.0000000001
44
0.0000000001
40
0.22657323995515893
40
0.22657323995515893
40
0.22657323995515893
40
0.22657323995515893
40
0.24356222140611572
40
0.24356222140611572
40
0.24356222140611572
40
0.24356222140611572
10
-15.538706582635234
20
10.377168137839741
30
0
10
-15.854560111055802
20
10.529518933795998
30
0
10
-16.164020493965637
20
10.690109051757998
30
0
10
-16.467129451699343
20
10.858885501854097
30
0
0
ARC
5
103
100
AcDbEntity
8
0
100
AcDbCircle
10
-19.428201619446739
20
10.377168137839735
30
-1.7763568394002505e-14
40
3.0000000002335341
210
-5.8443564403521105e-15
220
-9.5077992676837988e-16
230
1
100
AcDbArc
50
9.2401250878100889
51
90.00052630784856
0
LINE
5
104
100
AcDbEntity
8
0
100
AcDbLine
10
-19.428229176861251
20
13.377168138092879
30
-1.7763568394002501e-14
11
-19.696731418169687
21
13.377168137839741
31
-1.7763568394002501e-14
0
ARC
5
105
100
AcDbEntity
8
0
100
AcDbCircle
10
-22.696731418169684
20
13.377168137839742
30
0
40
2.999999999999996
210
5.9211894646675089e-15
220
-4.1853453582559355e-30
230
1
100
AcDbArc
50
0
51
76.301046591326269
0
ARC
5
106
100
AcDbEntity
8
0
100
AcDbCircle
10
-24.985056166025604
20
16.377168137839742
30
0
40
3.0000000009352386
210
4.656778343972175e-31
220
-8.0243256736981768e-31
230
1
100
AcDbArc
50
-1.6300873802225018
51
79.392841542710528
0
SPLINE
5
107
100
AcDbEntity
8
0
100
AcDbSpline
70
0
71
3
72
8
73
4
74
0
42
0.000000001
43
0.0000000001
44
0.0000000001
40
0.44127461831721126
40
0.44127461831721126
40
0.44127461831721126
40
0.44127461831721126
40
0.44234910969698704
40
0.44234910969698704
40
0.44234910969698704
40
0.44234910969698704
10
-24.43283369847958
20
19.325905215293414
30
0
10
-24.442283626984644
20
19.34299880473711
30
0
10
-24.451706647402776
20
19.360086398119662
30
0
10
-24.461102879056746
20
19.377168137839742
30
0
0
SPLINE
5
108
100
AcDbEntity
8
0
100
AcDbSpline
70
0
71
3
72
8
73
4
74
0
42
0.000000001
43
0.0000000001
44
0.0000000001
40
0.4423491096969871
40
0.4423491096969871
40
0.4423491096969871
40
0.4423491096969871
40
0.50592260210935514
40
0.50592260210935514
40
0.50592260210935514
40
0.50592260210935514
10
-24.461102879056739
20
19.377168137839735
30
0
10
-25.017041505463379
20
20.387828503221748
30
0
10
-25.479202567743183
20
21.377997359345777
30
0
10
-25.872300047421358
20
22.377168137839742
30
1.7763568394002505e-14
0
SPLINE
5
109
100
AcDbEntity
8
0
100
AcDbSpline
70
0
71
3
72
8
73
4
74
0
42
0.000000001
43
0.0000000001
44
0.0000000001
40
0.50592260210935514
40
0.50592260210935514
40
0.50592260210935514
40
0.50592260210935514
40
0.56840187070769688
40
0.56840187070769688
40
0.56840187070769688
40
0.56840187070769688
10
-25.872300047421358
20
22.377168137839742
30
1.7763568394002505e-14
10
-26.258631552678814
20
23.359141238203716
30
1.7763568394002505e-14
10
-26.578256453113156
20
24.349809046481177
30
0
10
-26.854634441383762
20
25.377168137839753
30
0
0
SPLINE
5
110
100
AcDbEntity
8
0
100
AcDbSpline
70
0
71
3
72
11
73
7
74
0
42
0.000000001
43
0.0000000001
44
0.0000000001
40
0.56840187070769699
40
0.56840187070769699
40
0.56840187070769699
40
0.56840187070769699
40
0.5701546387864268
40
0.5701546387864268
40
0.5701546387864268
40
0.6262162838644062
40
0.6262162838644062
40
0.6262162838644062
40
0.6262162838644062
10
-26.854634441383766
20
25.37716813783976
30
0
10
-26.862387837452122
20
25.405989253405341
30
0
10
-26.870107198020008
20
25.434839245163936
30
0
10
-26.877793041037478
20
25.463718731232206
30
0
10
-27.123621915147609
20
26.387418516526786
30
0
10
-27.337530978780439
20
27.354595193298469
30
0
10
-27.528692914448186
20
28.377168137839742
30
0
0
SPLINE
5
111
100
AcDbEntity
8
0
100
AcDbSpline
70
0
71
3
72
8
73
4
74
0
42
0.000000001
43
0.0000000001
44
0.0000000001
40
0.6262162838644062
40
0.6262162838644062
40
0.6262162838644062
40
0.6262162838644062
40
0.67824991658191724
40
0.67824991658191724
40
0.67824991658191724
40
0.67824991658191724
10
-27.528692914448186
20
28.377168137839742
30
0
10
-27.706119922454604
20
29.326269523450431
30
0
10
-27.863951121816683
20
30.323092742977487
30
0
10
-28.00952068790712
20
31.377168137839128
30
0
0
SPLINE
5
112
100
AcDbEntity
8
0
100
AcDbSpline
70
0
71
3
72
11
73
7
74
0
42
0.000000001
43
0.0000000001
44
0.0000000001
40
0.67824991658192735
40
0.67824991658192735
40
0.67824991658192735
40
0.67824991658192735
40
0.70363698952061204
40
0.70363698952061204
40
0.70363698952061204
40
0.72524319848046837
40
0.72524319848046837
40
0.72524319848046837
40
0.72524319848046837
10
-28.009520687907198
20
31.377168137839746
30
0
10
-28.080543697429778
20
31.891448758558742
30
0
10
-28.148647900550557
20
32.419357907564439
30
0
10
-28.214685095515403
20
32.962002447958703
30
0
10
-28.270887456338144
20
33.423831637916955
30
0
10
-28.325692531509393
20
33.895807136509696
30
1.7763568394002505e-14
10
-28.379008528535621
20
34.377168137839746
30
1.7763568394002505e-14
0
SPLINE
5
113
100
AcDbEntity
8
0
100
AcDbSpline
70
0
71
3
72
8
73
4
74
0
42
0.000000001
43
0.0000000001
44
0.0000000001
40
0.72524319848046848
40
0.72524319848046848
40
0.72524319848046848
40
0.72524319848046848
40
0.76852952930437834
40
0.76852952930437834
40
0.76852952930437834
40
0.76852952930437834
10
-28.379008528535621
20
34.377168137839753
30
1.7763568394002505e-14
10
-28.485822911834976
20
35.341536833339021
30
1.7763568394002505e-14
10
-28.5866605891167
20
36.343576077476975
30
1.7763568394002505e-14
10
-28.680783445816989
20
37.377168137839732
30
1.7763568394002505e-14
0
SPLINE
5
114
100
AcDbEntity
8
0
100
AcDbSpline
70
0
71
3
72
8
73
4
74
0
42
0.000000001
43
0.0000000001
44
0.0000000001
40
0.76852952930469376
40
0.76852952930469376
40
0.76852952930469376
40
0.76852952930469376
40
0.80930772224907954
40
0.80930772224907954
40
0.80930772224907954
40
0.80930772224907954
10
-28.680783445819053
20
37.377168137862341
30
1.7763568394002505e-14
10
-28.769452546154938
20
38.350870820927263
30
1.7763568394002505e-14
10
-28.852162434746557
20
39.352575728434488
30
0
10
-28.928296011829097
20
40.377168137793539
30
0
0
SPLINE
5
115
100
AcDbEntity
8
0
100
AcDbSpline
70
0
71
3
72
8
73
4
74
0
42
0.000000001
43
0.0000000001
44
0.0000000001
40
0.80930772224969239
40
0.80930772224969239
40
0.80930772224969239
40
0.80930772224969239
40
0.8483323710350702
40
0.8483323710350702
40
0.8483323710350702
40
0.8483323710350702
10
-28.928296011832536
20
40.377168137839746
30
0
10
-29.001155692261854
20
41.357701016723318
30
0
10
-29.067992489640432
20
42.359195303348315
30
0
10
-29.128265539488201
20
43.377168137839739
30
0
0
SPLINE
5
116
100
AcDbEntity
8
0
100
AcDbSpline
70
0
71
3
72
8
73
4
74
0
42
0.000000001
43
0.0000000001
44
0.0000000001
40
0.84833237103564119
40
0.84833237103564119
40
0.84833237103564119
40
0.84833237103564119
40
0.88612752086748636
40
0.88612752086748636
40
0.88612752086748636
40
0.88612752086748636
10
-29.128265539490851
20
43.377168137884411
30
0
10
-29.186639644594013
20
44.363069023654482
30
0
10
-29.238857077876649
20
45.3644264776146
30
0
10
-29.284426502117114
20
46.377168137838353
30
0
0
SPLINE
5
117
100
AcDbEntity
8
0
100
AcDbSpline
70
0
71
3
72
8
73
4
74
0
42
0.000000001
43
0.0000000001
44
0.0000000001
40
0.88612752086750357
40
0.88612752086750357
40
0.88612752086750357
40
0.88612752086750357
40
0.92308823270183082
40
0.92308823270183082
40
0.92308823270183082
40
0.92308823270183082
10
-29.284426502117178
20
46.377168137839739
30
0
10
-29.328989848612736
20
47.367550576662872
30
0
10
-29.367195493918278
20
48.368820091789722
30
1.7763568394002505e-14
10
-29.398583930716043
20
49.37716813783971
30
1.7763568394002505e-14
0
SPLINE
5
118
100
AcDbEntity
8
0
100
AcDbSpline
70
0
71
3
72
11
73
7
74
0
42
0.000000001
43
0.0000000001
44
0.0000000001
40
0.92308823270183094
40
0.92308823270183094
40
0.92308823270183094
40
0.92308823270183094
40
0.95539679469746353
40
0.95539679469746353
40
0.95539679469746353
40
0.95953491968417792
40
0.95953491968417792
40
0.95953491968417792
40
0.95953491968417792
10
-29.398583930716047
20
49.377168137839725
30
1.7763568394002505e-14
10
-29.426021585617622
20
50.258598005992987
30
1.7763568394002505e-14
10
-29.448250158674881
20
51.145436634473015
30
1.7763568394002505e-14
10
-29.464962730489873
20
52.035140175967527
30
1.7763568394002505e-14
10
-29.467103299637742
20
52.14909462730845
30
1.7763568394002505e-14
10
-29.469146697155054
20
52.263104349312698
30
1.7763568394002505e-14
10
-29.471092528645002
20
52.377168137839732
30
1.7763568394002505e-14
0
SPLINE
5
119
100
AcDbEntity
8
0
100
AcDbSpline
70
0
71
3
72
8
73
4
74
0
42
0.000000001
43
0.0000000001
44
0.0000000001
40
0.95953491968417792
40
0.95953491968417792
40
0.95953491968417792
40
0.95953491968417792
40
0.99567406057757379
40
0.99567406057757379
40
0.99567406057757379
40
0.99567406057757379
10
-29.471092528645002
20
52.377168137839732
30
1.7763568394002505e-14
10
-29.488085896074917
20
53.37331188353312
30
1.7763568394002505e-14
10
-29.497637993505595
20
54.373579232542781
30
1.7763568394002505e-14
10
-29.499486123366147
20
55.377168137839732
30
0
0
SPLINE
5
120
100
AcDbEntity
8
0
100
AcDbSpline
70
0
71
3
72
8
73
4
74
0
42
0.000000001
43
0.0000000001
44
0.0000000001
40
0.99567406057758578
40
0.99567406057758578
40
0.99567406057758578
40
0.99567406057758578
40
1
40
1
40
1
40
1
10
-29.499486123366157
20
55.377168137840727
30
0
10
-29.499707348819332
20
55.497300069646414
30
0
10
-29.499818186831753
20
55.617479594863497
30
0
10
-29.499818186831753
20
55.737705337842883
30
0
0
LINE
5
121
100
AcDbEntity
8
0
100
AcDbLine
10
-29.499818186831753
20
55.737705337842883
30
0
11
-32.99981818683176
21
55.737705337842883
31
6.6594521706911699e-45
0
SPLINE
5
122
100
AcDbEntity
8
0
100
AcDbSpline
70
0
71
3
72
8
73
4
74
0
42
0.000000001
43
0.0000000001
44
0.0000000001
40
-1
40
-1
40
-1
40
-1
40
-0.99575045687165731
40
-0.99575045687165731
40
-0.99575045687165731
40
-0.99575045687165731
10
-32.99981818683176
20
55.737705337842883
30
-1.7763568394002505e-14
10
-32.99981818683176
20
55.61750363136661
30
-1.7763568394002505e-14
10
-32.99970492949457
20
55.497322976105139
30
-1.7763568394002505e-14
10
-32.999479466681557
20
55.377168137839746
30
-1.7763568394002505e-14
0
LINE
5
123
100
AcDbEntity
8
0
100
AcDbLine
10
-32.999479466681549
20
55.377168137839746
30
-1.7763568394002505e-14
11
-32.971003169241989
21
55.377168137839732
31
-1.7763568394002505e-14
0
LINE
5
124
100
AcDbEntity
8
0
100
AcDbLine
10
-32.971003169241989
20
55.377168137839732
30
-1.7763568394002505e-14
11
-32.971003169241989
21
52.377168137839732
31
-1.7763568394002505e-14
0
LINE
5
125
100
AcDbEntity
8
0
100
AcDbLine
10
-32.971003169241989
20
52.377168137839732
30
-1.7763568394002505e-14
11
-32.89845258599081
21
52.377168137839732
31
-1.3804203974770597e-46
0
LINE
5
126
100
AcDbEntity
8
0
100
AcDbLine
10
-32.89845258599081
20
52.377168137839732
30
-1.3804203974770597e-46
11
-32.89845258599081
21
49.377168137839732
31
0
0
LINE
5
127
100
AcDbEntity
8
0
100
AcDbLine
10
-32.89845258599081
20
49.377168137839732
30
0
11
-32.783619831677107
21
49.377168137839732
31
-2.1849235285166666e-46
0
LINE
5
128
100
AcDbEntity
8
0
100
AcDbLine
10
-32.783619831677107
20
49.377168137839732
30
-2.1849235285166666e-46
11
-32.783619831677107
21
46.377168137839739
31
0
0
LINE
5
129
100
AcDbEntity
8
0
100
AcDbLine
10
-32.783619831677107
20
46.377168137839739
30
0
11
-32.627456742841645
21
46.377168137839739
31
-2.9713160597918161e-46
0
LINE
5
130
100
AcDbEntity
8
0
100
AcDbLine
10
-32.627456742841645
20
46.377168137839739
30
-2.9713160597918161e-46
11
-32.627456742841645
21
43.377168137839732
31
0
0
LINE
5
131
100
AcDbEntity
8
0
100
AcDbLine
10
-32.627456742841645
20
43.377168137839732
30
0
11
-32.430056936266027
21
43.377168137839739
31
-1.7763568394002505e-14
0
LINE
5
132
100
AcDbEntity
8
0
100
AcDbLine
10
-32.430056936266027
20
43.377168137839739
30
-1.7763568394002505e-14
11
-32.430056936266027
21
40.377168137839739
31
-1.7763568394002505e-14
0
LINE
5
133
100
AcDbEntity
8
0
100
AcDbLine
10
-32.430056936266027
20
40.377168137839739
30
-1.7763568394002505e-14
11
-32.191310304412802
21
40.377168137839739
31
-1.7763568394002505e-14
0
LINE
5
134
100
AcDbEntity
8
0
100
AcDbLine
10
-32.191310304412802
20
40.377168137839739
30
-1.7763568394002505e-14
11
-32.191310304412802
21
37.377168137840059
31
-1.7763568394002505e-14
0
LINE
5
135
100
AcDbEntity
8
0
100
AcDbLine
10
-32.191310304412802
20
37.377168137840059
30
-1.7763568394002505e-14
11
-31.901282102503906
21
37.377168137839746
31
1.0924888652146489e-30
0
LINE
5
136
100
AcDbEntity
8
0
100
AcDbLine
10
-31.901282102503906
20
37.377168137839746
30
1.0924888652146489e-30
11
-31.901282102503906
21
34.377168137839867
31
0
0
LINE
5
137
100
AcDbEntity
8
0
100
AcDbLine
10
-31.901282102503906
20
34.377168137839867
30
0
11
-31.541879327690957
21
34.377168137839746
31
-4.6192696236550516e-31
0
LINE
5
138
100
AcDbEntity
8
0
100
AcDbLine
10
-31.541879327690957
20
34.377168137839746
30
-4.6192696236550516e-31
11
-31.541879327690957
21
31.377168137839746
31
0
0
LINE
5
139
100
AcDbEntity
8
0
100
AcDbLine
10
-31.541879327690957
20
31.377168137839746
30
0
11
-31.085059389782664
21
31.377168137839746
31
-8.6919157917668018e-46
0
LINE
5
140
100
AcDbEntity
8
0
100
AcDbLine
10
-31.085059389782664
20
31.377168137839746
30
-8.6919157917668018e-46
11
-31.085059389782664
21
28.377168137839746
31
0
0
LINE
5
141
100
AcDbEntity
8
0
100
AcDbLine
10
-31.085059389782664
20
28.377168137839746
30
0
11
-30.468991589641487
21
28.377168137839746
31
-1.7763568394002505e-14
0
LINE
5
142
100
AcDbEntity
8
0
100
AcDbLine
10
-30.468991589641487
20
28.377168137839746
30
-1.7763568394002505e-14
11
-30.468991589641487
21
25.37716813783976
31
-1.7763568394002505e-14
0
LINE
5
143
100
AcDbEntity
8
0
100
AcDbLine
10
-30.468991589641487
20
25.37716813783976
30
-1.7763568394002505e-14
11
-29.598617032011148
21
25.37716813783975
31
-1.7763568394002508e-14
0
LINE
5
144
100
AcDbEntity
8
0
100
AcDbLine
10
-29.598617032011148
20
25.37716813783975
30
-1.7763568394002508e-14
11
-29.598617032011148
21
22.377168137839753
31
0
0
LINE
5
145
100
AcDbEntity
8
0
100
AcDbLine
10
-29.598617032011148
20
22.377168137839753
30
0
11
-28.387320128961854
21
22.377168137839753
31
1.7763568394002505e-14
0
LINE
5
146
100
AcDbEntity
8
0
100
AcDbLine
10
-28.387320128961854
20
22.377168137839753
30
1.7763568394002505e-14
11
-28.387320128961854
21
19.377168137839742
31
1.7763568394002505e-14
0
LINE
5
147
100
AcDbEntity
8
0
100
AcDbLine
10
-28.387320128961854
20
19.377168137839742
30
1.7763568394002505e-14
11
-26.767605989898748
21
19.377168137839739
31
1.7763568394002505e-14
0
LINE
5
148
100
AcDbEntity
8
0
100
AcDbLine
10
-26.767605989898748
20
19.377168137839739
30
1.7763568394002505e-14
11
-26.767605989898748
21
16.377168137839742
31
0
0
LINE
5
149
100
AcDbEntity
8
0
100
AcDbLine
10
-26.767605989898748
20
16.377168137839742
30
0
11
-24.985056166025604
21
16.377168137839742
31
0
0
LINE
5
150
100
AcDbEntity
8
0
100
AcDbLine
10
-24.985056166025604
20
16.377168137839742
30
0
11
-24.985056166025604
21
13.377168137839742
31
0
0
LINE
5
151
100
AcDbEntity
8
0
100
AcDbLine
10
-24.985056166025604
20
13.377168137839742
30
0
11
-22.696731418169684
21
13.377168137839742
31
0
0
LINE
5
152
100
AcDbEntity
8
0
100
AcDbLine
10
-22.696731418169684
20
13.377168137839742
30
0
11
-22.681729265875255
21
13.360259448201376
31
0
0
LINE
5
153
100
AcDbEntity
8
0
100
AcDbLine
10
-22.681729265875255
20
13.360259448201376
30
0
11
-22.681729265874914
21
10.377168137839735
31
0
0
LINE
5
154
100
AcDbEntity
8
0
100
AcDbLine
10
-22.681729265874914
20
10.377168137839735
30
0
11
-19.428201619446739
21
10.377168137839735
31
-1.7763568394002505e-14
0
LINE
5
155
100
AcDbEntity
8
0
100
AcDbLine
10
-19.428201619446739
20
10.377168137839735
30
-1.7763568394002505e-14
11
-19.428201619446739
21
7.377168137839738
31
-1.7763568394002505e-14
0
LINE
5
156
100
AcDbEntity
8
0
100
AcDbLine
10
-19.428201619446739
20
7.377168137839738
30
-1.7763568394002505e-14
11
-13.314252736218702
21
7.377168137839738
31
1.7763568394002505e-14
0
LINE
5
157
100
AcDbEntity
8
0
100
AcDbLine
10
-13.314252736218702
20
7.377168137839738
30
1.7763568394002505e-14
11
-13.314252736218702
21
4.3771681378397398
31
1.7763568394002505e-14
0
LINE
5
158
100
AcDbEntity
8
0
100
AcDbLine
10
-13.314252736218702
20
4.3771681378397398
30
1.7763568394002505e-14
11
-1.4499999999997959
21
4.3771681378397407
31
1.4007718550879492e-46
0
LINE
5
159
100
AcDbEntity
8
0
100
AcDbLine
10
-1.4499999999997959
20
4.3771681378397407
30
1.4007718550879492e-46
11
-1.4499999999997968
21
5.8771681378397407
31
0
0
LINE
5
160
100
AcDbEntity
8
0
100
AcDbLine
10
-1.4499999999997968
20
5.8771681378397407
30
0
11
1.4500000000002036
21
5.8771681378397425
31
2.2368036153840279e-31
0
LINE
5
161
100
AcDbEntity
8
0
100
AcDbLine
10
1.4500000000002036
20
5.8771681378397425
30
2.2368036153840279e-31
11
1.4500000000002036
21
4.3771681378397398
31
0
0
LINE
5
162
100
AcDbEntity
8
0
100
AcDbLine
10
1.4500000000002036
20
4.3771681378397398
30
0
11
13.31425273621911
21
4.3771681378397407
31
-1.9721522630525747e-30
0
LINE
5
163
100
AcDbEntity
8
0
100
AcDbLine
10
13.31425273621911
20
4.3771681378397407
30
-1.9721522630525747e-30
11
13.31425273621911
21
7.3771681378397407
31
0
0
LINE
5
164
100
AcDbEntity
8
0
100
AcDbLine
10
13.31425273621911
20
7.3771681378397407
30
0
11
19.428201619447151
21
7.3771681378397407
31
-1.1633014331973647e-44
0
LINE
5
165
100
AcDbEntity
8
0
100
AcDbLine
10
19.428201619447151
20
7.3771681378397407
30
-1.1633014331973647e-44
11
19.428201619447151
21
10.377168137839741
31
1.7763568394002505e-14
0
LINE
5
166
100
AcDbEntity
8
0
100
AcDbLine
10
19.428201619447151
20
10.377168137839741
30
1.7763568394002505e-14
11
22.681729265875319
21
10.377168137839741
31
1.6523709154203578e-44
0
LINE
5
167
100
AcDbEntity
8
0
100
AcDbLine
10
22.681729265875319
20
10.377168137839741
30
1.6523709154203578e-44
11
22.681729265875319
21
13.360259448200992
31
0
0
LINE
5
168
100
AcDbEntity
8
0
100
AcDbLine
10
22.681729265875319
20
13.360259448200992
30
0
11
22.696731418164454
21
13.377168137839742
31
0
0
LINE
5
169
100
AcDbEntity
8
0
100
AcDbLine
10
22.696731418164454
20
13.377168137839742
30
0
11
24.985056166026006
21
13.377168137839741
31
-4.3539969169693994e-45
0
LINE
5
170
100
AcDbEntity
8
0
100
AcDbLine
10
24.985056166026006
20
13.377168137839741
30
-4.3539969169693994e-45
11
24.985056166026006
21
16.377168137839742
31
0
0
LINE
5
171
100
AcDbEntity
8
0
100
AcDbLine
10
24.985056166026006
20
16.377168137839742
30
0
11
26.767605989899153
21
16.377168137839742
31
-1.0317534742125613e-30
0
LINE
5
172
100
AcDbEntity
8
0
100
AcDbLine
10
26.767605989899153
20
16.377168137839742
30
-1.0317534742125613e-30
11
26.767605989899153
21
19.377168137839742
31
0
0
LINE
5
173
100
AcDbEntity
8
0
100
AcDbLine
10
26.767605989899153
20
19.377168137839742
30
0
11
28.387320128962259
21
19.377168137839742
31
-1.9721522630525554e-30
0
LINE
5
174
100
AcDbEntity
8
0
100
AcDbLine
10
28.387320128962259
20
19.377168137839742
30
-1.9721522630525554e-30
11
28.387320128962259
21
22.377168137839742
31
0
0
LINE
5
175
100
AcDbEntity
8
0
100
AcDbLine
10
28.387320128962259
20
22.377168137839742
30
0
11
29.598617032011553
21
22.377168137839742
31
-2.304735368675173e-45
0
LINE
5
176
100
AcDbEntity
8
0
100
AcDbLine
10
29.598617032011553
20
22.377168137839742
30
-2.304735368675173e-45
11
29.598617032011553
21
25.37716813783975
31
0
0
LINE
5
177
100
AcDbEntity
8
0
100
AcDbLine
10
29.598617032011553
20
25.37716813783975
30
0
11
30.468991589641892
21
25.37716813783976
31
-1.7763568394002505e-14
0
LINE
5
178
100
AcDbEntity
8
0
100
AcDbLine
10
30.468991589641892
20
25.37716813783976
30
-1.7763568394002505e-14
11
30.468991589641892
21
28.377168137839746
31
0
0
LINE
5
179
100
AcDbEntity
8
0
100
AcDbLine
10
30.468991589641892
20
28.377168137839746
30
0
11
31.085059389783069
21
28.377168137839746
31
1.3558546808485902e-30
0
LINE
5
180
100
AcDbEntity
8
0
100
AcDbLine
10
31.085059389783069
20
28.377168137839746
30
1.3558546808485902e-30
11
31.085059389783069
21
31.377168137839746
31
0
0
LINE
5
181
100
AcDbEntity
8
0
100
AcDbLine
10
31.085059389783069
20
31.377168137839746
30
0
11
31.541879327691362
21
31.377168137839746
31
-8.6919157917668018e-46
0
LINE
5
182
100
AcDbEntity
8
0
100
AcDbLine
10
31.541879327691362
20
31.377168137839746
30
-8.6919157917668018e-46
11
31.541879327691362
21
34.377168137839746
31
0
0
LINE
5
183
100
AcDbEntity
8
0
100
AcDbLine
10
31.541879327691362
20
34.377168137839746
30
0
11
31.901282102504311
21
34.377168137839867
31
1.7763568394002505e-14
0
LINE
5
184
100
AcDbEntity
8
0
100
AcDbLine
10
31.901282102504311
20
34.377168137839867
30
1.7763568394002505e-14
11
31.901282102504311
21
37.377168137839746
31
1.7763568394002505e-14
0
LINE
5
185
100
AcDbEntity
8
0
100
AcDbLine
10
31.901282102504311
20
37.377168137839746
30
1.7763568394002505e-14
11
32.191310304413207
21
37.377168137840059
31
1.7763568394002505e-14
0
LINE
5
186
100
AcDbEntity
8
0
100
AcDbLine
10
32.191310304413207
20
37.377168137840059
30
1.7763568394002505e-14
11
32.191310304413207
21
40.377168137839739
31
1.7763568394002505e-14
0
LINE
5
187
100
AcDbEntity
8
0
100
AcDbLine
10
32.191310304413207
20
40.377168137839739
30
1.7763568394002505e-14
11
32.430056936266432
21
40.377168137839739
31
-4.5426336449719562e-46
0
LINE
5
188
100
AcDbEntity
8
0
100
AcDbLine
10
32.430056936266432
20
40.377168137839739
30
-4.5426336449719562e-46
11
32.430056936266432
21
43.377168137839739
31
0
0
LINE
5
189
100
AcDbEntity
8
0
100
AcDbLine
10
32.430056936266432
20
43.377168137839739
30
0
11
32.62745674284205
21
43.377168137839732
31
-2.1799039159112371e-33
0
LINE
5
190
100
AcDbEntity
8
0
100
AcDbLine
10
32.62745674284205
20
43.377168137839732
30
-2.1799039159112371e-33
11
32.62745674284205
21
46.377168137839739
31
0
0
LINE
5
191
100
AcDbEntity
8
0
100
AcDbLine
10
32.62745674284205
20
46.377168137839739
30
0
11
32.783619831677512
21
46.377168137839739
31
-2.9713160597918161e-46
0
LINE
5
192
100
AcDbEntity
8
0
100
AcDbLine
10
32.783619831677512
20
46.377168137839739
30
-2.9713160597918161e-46
11
32.783619831677512
21
49.377168137839732
31
0
0
LINE
5
193
100
AcDbEntity
8
0
100
AcDbLine
10
32.783619831677512
20
49.377168137839732
30
0
11
32.898452585991215
21
49.377168137839732
31
-2.1849235285166666e-46
0
LINE
5
194
100
AcDbEntity
8
0
100
AcDbLine
10
32.898452585991215
20
49.377168137839732
30
-2.1849235285166666e-46
11
32.898452585991215
21
52.377168137839732
31
0
0
LINE
5
195
100
AcDbEntity
8
0
100
AcDbLine
10
32.898452585991215
20
52.377168137839732
30
0
11
32.971003169242394
21
52.377168137839732
31
1.7763568394002505e-14
0
LINE
5
196
100
AcDbEntity
8
0
100
AcDbLine
10
32.971003169242394
20
52.377168137839732
30
1.7763568394002505e-14
11
32.971003169242394
21
55.377168137839732
31
1.7763568394002505e-14
0
LINE
5
197
100
AcDbEntity
8
0
100
AcDbLine
10
32.971003169242394
20
55.377168137839732
30
1.7763568394002505e-14
11
32.999479466681962
21
55.377168137839732
31
-5.4181868799189627e-47
0
SPLINE
5
198
100
AcDbEntity
8
0
100
AcDbSpline
70
0
71
3
72
8
73
4
74
0
42
0.000000001
43
0.0000000001
44
0.0000000001
40
0.99575045687165731
40
0.99575045687165731
40
0.99575045687165731
40
0.99575045687165731
40
1
40
1
40
1
40
1
10
32.999479466681954
20
55.377168137839746
30
0
10
32.999704929494975
20
55.497322976105139
30
0
10
32.999818186832158
20
55.61750363136661
30
0
10
32.999818186832158
20
55.737705337842883
30
0
0
LINE
5
199
100
AcDbEntity
8
0
100
AcDbLine
10
32.999818186832151
20
55.737705337842883
30
0
11
29.499818186832158
21
55.737705337842883
31
6.6594521706911699e-45
0
SPLINE
5
200
100
AcDbEntity
8
0
100
AcDbSpline
70
0
71
3
72
8
73
4
74
0
42
0.000000001
43
0.0000000001
44
0.0000000001
40
-1
40
-1
40
-1
40
-1
40
-0.99567406057758578
40
-0.99567406057758578
40
-0.99567406057758578
40
-0.99567406057758578
10
29.499818186832162
20
55.737705337842883
30
-1.7763568394002505e-14
10
29.499818186832162
20
55.617479594863497
30
-1.7763568394002505e-14
10
29.499707348819733
20
55.497300069646414
30
-1.7763568394002505e-14
10
29.499486123366559
20
55.377168137840727
30
-1.7763568394002505e-14
0
SPLINE
5
201
100
AcDbEntity
8
0
100
AcDbSpline
70
0
71
3
72
8
73
4
74
0
42
0.000000001
43
0.0000000001
44
0.0000000001
40
-0.99567406057757379
40
-0.99567406057757379
40
-0.99567406057757379
40
-0.99567406057757379
40
-0.95953491968417792
40
-0.95953491968417792
40
-0.95953491968417792
40
-0.95953491968417792
10
29.499486123366555
20
55.377168137839732
30
-1.7763568394002505e-14
10
29.497637993506004
20
54.373579232542781
30
0
10
29.488085896075326
20
53.37331188353312
30
0
10
29.4710925286454
20
52.377168137839732
30
0
0
SPLINE
5
202
100
AcDbEntity
8
0
100
AcDbSpline
70
0
71
3
72
11
73
7
74
0
42
0.000000001
43
0.0000000001
44
0.0000000001
40
-0.95953491968417792
40
-0.95953491968417792
40
-0.95953491968417792
40
-0.95953491968417792
40
-0.95539679469746353
40
-0.95539679469746353
40
-0.95539679469746353
40
-0.92308823270183094
40
-0.92308823270183094
40
-0.92308823270183094
40
-0.92308823270183094
10
29.4710925286454
20
52.377168137839732
30
0
10
29.469146697155452
20
52.263104349312698
30
0
10
29.46710329963814
20
52.14909462730845
30
0
10
29.464962730490271
20
52.035140175967527
30
0
10
29.448250158675279
20
51.145436634473015
30
0
10
29.426021585618024
20
50.258598005992987
30
0
10
29.398583930716452
20
49.377168137839725
30
0
0
SPLINE
5
203
100
AcDbEntity
8
0
100
AcDbSpline
70
0
71
3
72
8
73
4
74
0
42
0.000000001
43
0.0000000001
44
0.0000000001
40
-0.92308823270183082
40
-0.92308823270183082
40
-0.92308823270183082
40
-0.92308823270183082
40
-0.88612752086750357
40
-0.88612752086750357
40
-0.88612752086750357
40
-0.88612752086750357
10
29.398583930716452
20
49.37716813783971
30
0
10
29.367195493918686
20
48.368820091789722
30
0
10
29.328989848613141
20
47.367550576662872
30
0
10
29.284426502117583
20
46.377168137839739
30
-1.7763568394002505e-14
0
SPLINE
5
204
100
AcDbEntity
8
0
100
AcDbSpline
70
0
71
3
72
8
73
4
74
0
42
0.000000001
43
0.0000000001
44
0.0000000001
40
-0.88612752086748636
40
-0.88612752086748636
40
-0.88612752086748636
40
-0.88612752086748636
40
-0.84833237103564119
40
-0.84833237103564119
40
-0.84833237103564119
40
-0.84833237103564119
10
29.284426502117519
20
46.377168137838353
30
-1.7763568394002505e-14
10
29.238857077877057
20
45.3644264776146
30
-1.7763568394002505e-14
10
29.186639644594422
20
44.363069023654482
30
-1.7763568394002505e-14
10
29.128265539491252
20
43.377168137884411
30
-1.7763568394002505e-14
0
SPLINE
5
205
100
AcDbEntity
8
0
100
AcDbSpline
70
0
71
3
72
8
73
4
74
0
42
0.000000001
43
0.0000000001
44
0.0000000001
40
-0.8483323710350702
40
-0.8483323710350702
40
-0.8483323710350702
40
-0.8483323710350702
40
-0.80930772224969239
40
-0.80930772224969239
40
-0.80930772224969239
40
-0.80930772224969239
10
29.128265539488606
20
43.377168137839739
30
-1.7763568394002505e-14
10
29.067992489640829
20
42.359195303348315
30
-1.7763568394002505e-14
10
29.001155692262252
20
41.357701016723318
30
-1.7763568394002505e-14
10
28.928296011832938
20
40.377168137839746
30
-1.7763568394002505e-14
0
SPLINE
5
206
100
AcDbEntity
8
0
100
AcDbSpline
70
0
71
3
72
8
73
4
74
0
42
0.000000001
43
0.0000000001
44
0.0000000001
40
-0.80930772224907954
40
-0.80930772224907954
40
-0.80930772224907954
40
-0.80930772224907954
40
-0.76852952930469343
40
-0.76852952930469343
40
-0.76852952930469343
40
-0.76852952930469343
10
28.928296011829499
20
40.377168137793539
30
-1.7763568394002505e-14
10
28.852162434746962
20
39.352575728434488
30
-1.7763568394002505e-14
10
28.769452546155343
20
38.350870820927256
30
0
10
28.680783445819461
20
37.377168137862313
30
0
0
SPLINE
5
207
100
AcDbEntity
8
0
100
AcDbSpline
70
0
71
3
72
8
73
4
74
0
42
0.000000001
43
0.0000000001
44
0.0000000001
40
-0.76852952930437823
40
-0.76852952930437823
40
-0.76852952930437823
40
-0.76852952930437823
40
-0.72524319848046848
40
-0.72524319848046848
40
-0.72524319848046848
40
-0.72524319848046848
10
28.680783445817397
20
37.377168137839725
30
0
10
28.586660589117109
20
36.343576077476961
30
0
10
28.485822911835385
20
35.341536833339006
30
0
10
28.379008528536033
20
34.377168137839753
30
0
0
SPLINE
5
208
100
AcDbEntity
8
0
100
AcDbSpline
70
0
71
3
72
11
73
7
74
0
42
0.000000001
43
0.0000000001
44
0.0000000001
40
-0.72524319848046837
40
-0.72524319848046837
40
-0.72524319848046837
40
-0.72524319848046837
40
-0.70363698952061204
40
-0.70363698952061204
40
-0.70363698952061204
40
-0.67824991658192735
40
-0.67824991658192735
40
-0.67824991658192735
40
-0.67824991658192735
10
28.379008528536037
20
34.377168137839746
30
0
10
28.325692531509802
20
33.895807136509696
30
0
10
28.270887456338553
20
33.423831637916955
30
0
10
28.214685095515811
20
32.962002447958703
30
0
10
28.148647900550969
20
32.419357907564439
30
0
10
28.080543697430191
20
31.891448758558742
30
0
10
28.009520687907603
20
31.377168137839746
30
0
0
SPLINE
5
209
100
AcDbEntity
8
0
100
AcDbSpline
70
0
71
3
72
8
73
4
74
0
42
0.000000001
43
0.0000000001
44
0.0000000001
40
-0.67824991658191724
40
-0.67824991658191724
40
-0.67824991658191724
40
-0.67824991658191724
40
-0.6262162838644062
40
-0.6262162838644062
40
-0.6262162838644062
40
-0.6262162838644062
10
28.009520687907528
20
31.377168137839128
30
0
10
27.863951121817095
20
30.323092742977487
30
0
10
27.706119922455017
20
29.326269523450431
30
0
10
27.528692914448584
20
28.377168137839742
30
0
0
SPLINE
5
210
100
AcDbEntity
8
0
100
AcDbSpline
70
0
71
3
72
11
73
7
74
0
42
0.000000001
43
0.0000000001
44
0.0000000001
40
-0.6262162838644062
40
-0.6262162838644062
40
-0.6262162838644062
40
-0.6262162838644062
40
-0.5701546387864268
40
-0.5701546387864268
40
-0.5701546387864268
40
-0.56840187070769699
40
-0.56840187070769699
40
-0.56840187070769699
40
-0.56840187070769699
10
27.528692914448584
20
28.377168137839742
30
0
10
27.33753097878084
20
27.354595193298469
30
-1.7763568394002505e-14
10
27.123621915148014
20
26.387418516526786
30
-1.7763568394002505e-14
10
26.877793041037879
20
25.463718731232206
30
-1.7763568394002505e-14
10
26.87010719802041
20
25.434839245163936
30
-1.7763568394002505e-14
10
26.862387837452523
20
25.405989253405341
30
-1.7763568394002505e-14
10
26.854634441384167
20
25.37716813783976
30
-1.7763568394002505e-14
0
SPLINE
5
211
100
AcDbEntity
8
0
100
AcDbSpline
70
0
71
3
72
8
73
4
74
0
42
0.000000001
43
0.0000000001
44
0.0000000001
40
-0.56840187070769688
40
-0.56840187070769688
40
-0.56840187070769688
40
-0.56840187070769688
40
-0.50592260210935514
40
-0.50592260210935514
40
-0.50592260210935514
40
-0.50592260210935514
10
26.854634441384164
20
25.377168137839753
30
-1.7763568394002505e-14
10
26.578256453113553
20
24.349809046481177
30
-1.7763568394002505e-14
10
26.258631552679216
20
23.359141238203716
30
0
10
25.87230004742176
20
22.377168137839742
30
0
0
SPLINE
5
212
100
AcDbEntity
8
0
100
AcDbSpline
70
0
71
3
72
8
73
4
74
0
42
0.000000001
43
0.0000000001
44
0.0000000001
40
-0.50592260210935514
40
-0.50592260210935514
40
-0.50592260210935514
40
-0.50592260210935514
40
-0.44234910969698721
40
-0.44234910969698721
40
-0.44234910969698721
40
-0.44234910969698721
10
25.87230004742176
20
22.377168137839742
30
0
10
25.479202567743581
20
21.37799735934578
30
0
10
25.01704150546378
20
20.387828503221751
30
0
10
24.461102879057151
20
19.377168137839746
30
0
0
SPLINE
5
213
100
AcDbEntity
8
0
100
AcDbSpline
70
0
71
3
72
8
73
4
74
0
42
0.000000001
43
0.0000000001
44
0.0000000001
40
-0.44234910969698715
40
-0.44234910969698715
40
-0.44234910969698715
40
-0.44234910969698715
40
-0.44127461830402254
40
-0.44127461830402254
40
-0.44127461830402254
40
-0.44127461830402254
10
24.461102879057158
20
19.377168137839742
30
0
10
24.451706647287853
20
19.360086397909996
30
0
10
24.442283626753731
20
19.342998804317631
30
0
10
24.432833698132015
20
19.325905214663972
30
0
0
ARC
5
214
100
AcDbEntity
8
0
100
AcDbCircle
10
24.985056166026006
20
16.377168137839742
30
0
40
3.0000000003808056
210
9.4499575597141457e-31
220
1.7697335330890402e-31
230
1
100
AcDbArc
50
100.60715846603121
51
181.63008737641383
0
ARC
5
215
100
AcDbEntity
8
0
100
AcDbCircle
10
22.696731418164454
20
13.377168137839742
30
0
40
2.9999999999986637
210
-7.3227431359116082e-33
220
-1.0109120566308769e-30
230
1
100
AcDbArc
50
103.69895339035411
51
180.23003141302621
0
ARC
5
216
100
AcDbEntity
8
0
100
AcDbCircle
10
19.428201619447151
20
10.377168137839741
30
1.7763568394002505e-14
40
3.000000000000008
210
5.3005299248206422e-16
220
5.8974171042626817e-15
230
1
100
AcDbArc
50
84.86412184787801
51
170.75987490866135
0
SPLINE
5
217
100
AcDbEntity
8
0
100
AcDbSpline
70
0
71
3
72
8
73
4
74
0
42
0.000000001
43
0.0000000001
44
0.0000000001
40
-0.24356222141097633
40
-0.24356222141097633
40
-0.24356222141097633
40
-0.24356222141097633
40
-0.22657323995515888
40
-0.22657323995515888
40
-0.22657323995515888
40
-0.22657323995515888
10
16.467129451959913
20
10.858885501998955
30
-1.7763568394002505e-14
10
16.16402049414312
20
10.690109051849888
30
-1.7763568394002505e-14
10
15.854560111146574
20
10.529518933839583
30
-1.7763568394002505e-14
10
15.538706582635637
20
10.377168137839735
30
-1.7763568394002505e-14
0
SPLINE
5
218
100
AcDbEntity
8
0
100
AcDbSpline
70
0
71
3
72
8
73
4
74
0
42
0.000000001
43
0.0000000001
44
0.0000000001
40
-0.22657323995481018
40
-0.22657323995481018
40
-0.22657323995481018
40
-0.22657323995481018
40
-0.21251537549828875
40
-0.21251537549828875
40
-0.21251537549828875
40
-0.21251537549828875
10
15.538706582616189
20
10.377168137830354
30
-1.7763568394002505e-14
10
15.277347412646407
20
10.25110249666322
30
-1.7763568394002505e-14
10
15.011610818742476
20
10.130678367219625
30
-1.7763568394002505e-14
10
14.741473163280876
20
10.015925772140763
30
-1.7763568394002505e-14
0
ARC
5
219
100
AcDbEntity
8
0
100
AcDbCircle
10
13.31425273621911
20
7.3771681378397407
30
0
40
3.0000000000007194
210
2.8169475188241103e-15
220
5.2081946346755611e-15
230
1
100
AcDbArc
50
61.592448433648784
51
152.58396284678304
0
SPLINE
5
220
100
AcDbEntity
8
0
100
AcDbSpline
70
0
71
3
72
8
73
4
74
0
42
0.000000001
43
0.0000000001
44
0.0000000001
40
-0.14653659732263211
40
-0.14653659732263211
40
-0.14653659732263211
40
-0.14653659732263211
40
-0.028811550145368792
40
-0.028811550145368792
40
-0.028811550145368792
40
-0.028811550145368792
10
10.651193116452456
20
8.758512939678976
30
0
10
8.0573378234788109
20
8.2062156234251926
30
0
10
5.1998910210799378
20
7.9724894772274499
30
-1.7763568394002505e-14
10
2.2136698200291298
20
7.9019313161486506
30
-1.7763568394002505e-14
0
ARC
5
221
100
AcDbEntity
8
0
100
AcDbCircle
10
2.0343120732366646e-13
20
5.8771681378397407
30
0
40
3.0000000000570815
210
4.3691861387029551e-15
220
3.9963354664643907e-15
230
1
100
AcDbArc
50
42.448020315722808
51
137.55197968399037
0
SPLINE
5
222
100
AcDbEntity
8
0
100
AcDbSpline
70
0
71
3
72
8
73
4
74
0
42
0.000000001
43
0.0000000001
44
0.0000000001
40
0.028811550145068594
40
0.028811550145068594
40
0.028811550145068594
40
0.028811550145068594
40
0.146536597322632
40
0.146536597322632
40
0.146536597322632
40
0.146536597322632
10
-2.2136698200058786
20
7.9019313161481115
30
0
10
-5.1998910210649569
20
7.9724894772262589
30
0
10
-8.0573378234717872
20
8.206215623423784
30
-1.7763568394002505e-14
10
-10.65119311645204
20
8.758512939678976
30
-1.7763568394002505e-14
0
ENDSEC
0
SECTION
2
OBJECTS
0
DICTIONARY
5
C
100
AcDbDictionary
3
ACAD_GROUP
350
D
3
ACAD_MLINESTYLE
350
17
0
DICTIONARY
5
D
100
AcDbDictionary
0
DICTIONARY
5
1A
330
C
100
AcDbDictionary
0
DICTIONARY
5
17
100
AcDbDictionary
0
ENDSEC
0
EOF
