0
SECTION
2
HEADER
9
$INSUNITS
70
4
9
$ACADVER
1
AC1014
9
$HANDSEED
5
FFFF
0
ENDSEC
0
SECTION
2
TABLES
0
TABLE
2
VPORT
5
8
100
AcDbSymbolTable
0
ENDTAB
0
TABLE
2
LTYPE
5
5
100
AcDbSymbolTable
0
LTYPE
5
14
100
AcDbSymbolTableRecord
100
AcDbLinetypeTableRecord
2
BYBLOCK
70
0
0
LTYPE
5
15
100
AcDbSymbolTableRecord
100
AcDbLinetypeTableRecord
2
BYLAYER
70
0
0
ENDTAB
0
TABLE
2
LAYER
5
2
100
AcDbSymbolTable
70
2
0
LAYER
5
50
100
AcDbSymbolTableRecord
100
AcDbLayerTableRecord
2
0
70
0
6
CONTINUOUS
0
ENDTAB
0
TABLE
2
STYLE
5
3
100
AcDbSymbolTable
70
1
0
STYLE
5
11
100
AcDbSymbolTableRecord
100
AcDbTextStyleTableRecord
2
STANDARD
70
0
0
ENDTAB
0
TABLE
2
VIEW
5
6
100
AcDbSymbolTable
70
0
0
ENDTAB
0
TABLE
2
UCS
5
7
100
AcDbSymbolTable
70
0
0
ENDTAB
0
TABLE
2
APPID
5
9
100
AcDbSymbolTable
70
2
0
APPID
5
12
100
AcDbSymbolTableRecord
100
AcDbRegAppTableRecord
2
ACAD
70
0
0
ENDTAB
0
TABLE
2
DIMSTYLE
5
A
100
AcDbSymbolTable
70
1
0
ENDTAB
0
TABLE
2
BLOCK_RECORD
5
1
100
AcDbSymbolTable
70
1
0
BLOCK_RECORD
5
1F
100
AcDbSymbolTableRecord
100
AcDbBlockTableRecord
2
*MODEL_SPACE
0
BLOCK_RECORD
5
1B
100
AcDbSymbolTableRecord
100
AcDbBlockTableRecord
2
*PAPER_SPACE
0
ENDTAB
0
ENDSEC
0
SECTION
2
BLOCKS
0
BLOCK
5
20
100
AcDbEntity
100
AcDbBlockBegin
2
*MODEL_SPACE
0
ENDBLK
5
21
100
AcDbEntity
100
AcDbBlockEnd
0
BLOCK
5
1C
100
AcDbEntity
100
AcDbBlockBegin
2
*PAPER_SPACE
0
ENDBLK
5
1D
100
AcDbEntity
100
AcDbBlockEnd
0
ENDSEC
0
SECTION
2
ENTITIES
0
LINE
5
100
100
AcDbEntity
8
0
100
AcDbLine
10
-26.043579030306134
20
19.377168137839899
30
0
11
-24.328196747172942
21
19.377168137839895
31
0
0
LINE
5
101
100
AcDbEntity
8
0
100
AcDbLine
10
-24.328196747172942
20
19.377168137839895
30
0
11
-24.328196747172942
21
16.377168137839895
31
0
0
LINE
5
102
100
AcDbEntity
8
0
100
AcDbLine
10
-24.328196747172942
20
16.377168137839895
30
0
11
-22.449610116642212
21
16.377168137839895
31
0
0
LINE
5
103
100
AcDbEntity
8
0
100
AcDbLine
10
-22.449610116642212
20
16.377168137839895
30
0
11
-22.449610116642212
21
13.377168137839899
31
0
0
LINE
5
104
100
AcDbEntity
8
0
100
AcDbLine
10
-22.449610116642212
20
13.377168137839899
30
0
11
-20.022978329606431
21
13.377168137839899
31
0
0
LINE
5
105
100
AcDbEntity
8
0
100
AcDbLine
10
-20.022978329606431
20
13.377168137839899
30
0
11
-20.022978329606431
21
10.377168137839892
31
0
0
LINE
5
106
100
AcDbEntity
8
0
100
AcDbLine
10
-20.022978329606431
20
10.377168137839892
30
0
11
-16.583762258681528
21
10.377168137839892
31
0
0
LINE
5
107
100
AcDbEntity
8
0
100
AcDbLine
10
-16.583762258681528
20
10.377168137839892
30
0
11
-16.583762258681528
21
7.3771681378398934
31
0
0
LINE
5
108
100
AcDbEntity
8
0
100
AcDbLine
10
-16.583762258681528
20
7.3771681378398934
30
0
11
-10.54113602509787
21
7.3771681378398934
31
0
0
LINE
5
109
100
AcDbEntity
8
0
100
AcDbLine
10
-10.54113602509787
20
7.3771681378398934
30
0
11
-10.54113602509787
21
4.3771681378398952
31
0
0
LINE
5
110
100
AcDbEntity
8
0
100
AcDbLine
10
-10.54113602509787
20
4.3771681378398952
30
0
11
-1.4500000000000002
21
4.3771681378398952
31
0
0
LINE
5
111
100
AcDbEntity
8
0
100
AcDbLine
10
-1.4500000000000002
20
4.3771681378398952
30
0
11
-1.4500000000000002
21
5.8771681378398988
31
0
0
LINE
5
112
100
AcDbEntity
8
0
100
AcDbLine
10
-1.4500000000000002
20
5.8771681378398988
30
0
11
1.4500000000000002
21
5.877168137839897
31
0
0
LINE
5
113
100
AcDbEntity
8
0
100
AcDbLine
10
1.4500000000000002
20
5.877168137839897
30
0
11
1.4500000000000002
21
4.3771681378398952
31
0
0
LINE
5
114
100
AcDbEntity
8
0
100
AcDbLine
10
1.4500000000000002
20
4.3771681378398952
30
0
11
10.54113602509787
21
4.3771681378398952
31
0
0
LINE
5
115
100
AcDbEntity
8
0
100
AcDbLine
10
10.54113602509787
20
4.3771681378398952
30
0
11
10.54113602509787
21
7.3771681378398979
31
0
0
LINE
5
116
100
AcDbEntity
8
0
100
AcDbLine
10
10.54113602509787
20
7.3771681378398979
30
0
11
16.583762258681528
21
7.3771681378398979
31
0
0
LINE
5
117
100
AcDbEntity
8
0
100
AcDbLine
10
16.583762258681528
20
7.3771681378398979
30
0
11
16.583762258681528
21
10.377168137839895
31
0
0
LINE
5
118
100
AcDbEntity
8
0
100
AcDbLine
10
16.583762258681528
20
10.377168137839895
30
0
11
20.022978329606428
21
10.377168137839895
31
0
0
LINE
5
119
100
AcDbEntity
8
0
100
AcDbLine
10
20.022978329606428
20
10.377168137839895
30
0
11
20.022978329606428
21
13.377168137839897
31
0
0
LINE
5
120
100
AcDbEntity
8
0
100
AcDbLine
10
20.022978329606428
20
13.377168137839897
30
0
11
22.449610116642212
21
13.377168137839897
31
0
0
LINE
5
121
100
AcDbEntity
8
0
100
AcDbLine
10
22.449610116642212
20
13.377168137839897
30
0
11
22.449610116642212
21
16.377168137839895
31
0
0
LINE
5
122
100
AcDbEntity
8
0
100
AcDbLine
10
22.449610116642212
20
16.377168137839895
30
0
11
24.328196747172942
21
16.377168137839895
31
0
0
LINE
5
123
100
AcDbEntity
8
0
100
AcDbLine
10
24.328196747172942
20
16.377168137839895
30
0
11
24.328196747172942
21
19.377168137839899
31
0
0
LINE
5
124
100
AcDbEntity
8
0
100
AcDbLine
10
24.328196747172942
20
19.377168137839899
30
0
11
26.043579030306226
21
19.377168137839899
31
0
0
LINE
5
125
100
AcDbEntity
8
0
100
AcDbLine
10
26.043579030306226
20
19.377168137839899
30
0
11
26.043579030306226
21
22.377168137839899
31
0
0
LINE
5
126
100
AcDbEntity
8
0
100
AcDbLine
10
26.043579030306226
20
22.377168137839899
30
0
11
27.521797087297482
21
22.377168137839899
31
0
0
LINE
5
127
100
AcDbEntity
8
0
100
AcDbLine
10
27.521797087297482
20
22.377168137839899
30
0
11
27.521797087297482
21
25.377168137839902
31
0
0
LINE
5
128
100
AcDbEntity
8
0
100
AcDbLine
10
27.521797087297482
20
25.377168137839902
30
0
11
28.79494897270845
21
25.377168137839902
31
0
0
LINE
5
129
100
AcDbEntity
8
0
100
AcDbLine
10
28.79494897270845
20
25.377168137839902
30
0
11
28.79494897270845
21
28.377168137839899
31
0
0
LINE
5
130
100
AcDbEntity
8
0
100
AcDbLine
10
28.79494897270845
20
28.377168137839899
30
0
11
29.891526610775387
21
28.377168137839899
31
0
0
LINE
5
131
100
AcDbEntity
8
0
100
AcDbLine
10
29.891526610775387
20
28.377168137839899
30
0
11
29.891526610775387
21
31.377168137839895
31
0
0
LINE
5
132
100
AcDbEntity
8
0
100
AcDbLine
10
29.891526610775387
20
31.377168137839895
30
0
11
30.798420178276334
21
31.377168137839895
31
0
0
LINE
5
133
100
AcDbEntity
8
0
100
AcDbLine
10
30.798420178276334
20
31.377168137839895
30
0
11
30.798420178276334
21
34.377168137839895
31
0
0
LINE
5
134
100
AcDbEntity
8
0
100
AcDbLine
10
30.798420178276334
20
34.377168137839895
30
0
11
31.48308680328935
21
34.377168137981485
31
0
0
LINE
5
135
100
AcDbEntity
8
0
100
AcDbLine
10
31.48308680328935
20
34.377168137981485
30
0
11
31.48308680328935
21
37.377168137839895
31
0
0
LINE
5
136
100
AcDbEntity
8
0
100
AcDbLine
10
31.48308680328935
20
37.377168137839895
30
0
11
31.958814896063462
21
37.377168137839895
31
0
0
LINE
5
137
100
AcDbEntity
8
0
100
AcDbLine
10
31.958814896063462
20
37.377168137839895
30
0
11
31.958814896063462
21
40.377168137839888
31
0
0
LINE
5
138
100
AcDbEntity
8
0
100
AcDbLine
10
31.958814896063462
20
40.377168137839888
30
0
11
32.283963820327642
21
40.377168137839888
31
0
0
LINE
5
139
100
AcDbEntity
8
0
100
AcDbLine
10
32.283963820327642
20
40.377168137839888
30
0
11
32.283963820327642
21
43.377168137839888
31
0
0
LINE
5
140
100
AcDbEntity
8
0
100
AcDbLine
10
32.283963820327642
20
43.377168137839888
30
0
11
32.50782218202842
21
43.377168137839888
31
0
0
LINE
5
141
100
AcDbEntity
8
0
100
AcDbLine
10
32.50782218202842
20
43.377168137839888
30
0
11
32.50782218202842
21
46.377168137839888
31
0
0
LINE
5
142
100
AcDbEntity
8
0
100
AcDbLine
10
32.50782218202842
20
46.377168137839888
30
0
11
32.663741939753571
21
46.377168137839888
31
0
0
LINE
5
143
100
AcDbEntity
8
0
100
AcDbLine
10
32.663741939753571
20
46.377168137839888
30
0
11
32.663741939753571
21
49.377168137839888
31
0
0
LINE
5
144
100
AcDbEntity
8
0
100
AcDbLine
10
32.663741939753571
20
49.377168137839888
30
0
11
32.772579449926795
21
49.377168137839888
31
0
0
LINE
5
145
100
AcDbEntity
8
0
100
AcDbLine
10
32.772579449926795
20
49.377168137839888
30
0
11
32.772579449926795
21
52.377168137839888
31
0
0
LINE
5
146
100
AcDbEntity
8
0
100
AcDbLine
10
32.772579449926795
20
52.377168137839888
30
0
11
32.847552818951222
21
52.377168137839888
31
0
0
LINE
5
147
100
AcDbEntity
8
0
100
AcDbLine
10
32.847552818951222
20
52.377168137839888
30
0
11
32.847552818951222
21
55.377168137839881
31
0
0
LINE
5
148
100
AcDbEntity
8
0
100
AcDbLine
10
32.847552818951222
20
55.377168137839881
30
0
11
32.897224957666907
21
55.377168137839881
31
0
0
SPLINE
5
149
100
AcDbEntity
8
0
100
AcDbSpline
70
0
71
3
72
8
73
4
74
0
42
0.000000001
43
0.0000000001
44
0.0000000001
40
0.950636329732649
40
0.950636329732649
40
0.950636329732649
40
0.950636329732649
40
1
40
1
40
1
40
1
10
32.897224957666921
20
55.37716813784111
30
0
10
32.928593290958389
20
57.784158640752977
30
0
10
32.94430678510156
20
60.429237271404794
30
0
10
32.94430678510156
20
63.326570872234086
30
0
0
LINE
5
150
100
AcDbEntity
8
0
100
AcDbLine
10
32.94430678510156
20
63.326570872234086
30
0
11
29.444306785101567
21
63.326570872234086
31
0
0
SPLINE
5
151
100
AcDbEntity
8
0
100
AcDbSpline
70
0
71
3
72
8
73
4
74
0
42
0.000000001
43
0.0000000001
44
0.0000000001
40
-1
40
-1
40
-1
40
-1
40
-0.9503268135406101
40
-0.9503268135406101
40
-0.9503268135406101
40
-0.9503268135406101
10
29.44430678510156
20
63.326570872234086
30
0
10
29.44430678510156
20
60.423792012258339
30
0
10
29.42845405427731
20
57.777610365514882
30
0
10
29.396935224245158
20
55.377168137839888
30
0
0
SPLINE
5
152
100
AcDbEntity
8
0
100
AcDbSpline
70
0
71
3
72
11
73
7
74
0
42
0.000000001
43
0.0000000001
44
0.0000000001
40
-0.95032681354060999
40
-0.95032681354060999
40
-0.95032681354060999
40
-0.95032681354060999
40
-0.94078026495825273
40
-0.94078026495825273
40
-0.94078026495825273
40
-0.92867128811153632
40
-0.92867128811153632
40
-0.92867128811153632
40
-0.92867128811153632
10
29.396935224245158
20
55.377168137839881
30
0
10
29.390877709847384
20
54.915833965843966
30
0
10
29.384241553912105
20
54.463576401457217
30
0
10
29.377028081263713
20
54.020318369471774
30
0
10
29.367878410832535
20
53.458083630903282
30
0
10
29.357799723523993
20
52.910536662507667
30
0
10
29.346797551756399
20
52.377168137839888
30
0
0
SPLINE
5
153
100
AcDbEntity
8
0
100
AcDbSpline
70
0
71
3
72
8
73
4
74
0
42
0.000000001
43
0.0000000001
44
0.0000000001
40
-0.92867128811153621
40
-0.92867128811153621
40
-0.92867128811153621
40
-0.92867128811153621
40
-0.9047410518821859
40
-0.9047410518821859
40
-0.9047410518821859
40
-0.9047410518821859
10
29.346797551756403
20
52.377168137839888
30
0
10
29.325054627249465
20
51.323104284702595
30
0
10
29.299705013991577
20
50.324414653619428
30
0
10
29.270791412547684
20
49.377168137842915
30
0
0
SPLINE
5
154
100
AcDbEntity
8
0
100
AcDbSpline
70
0
71
3
72
8
73
4
74
0
42
0.000000001
43
0.0000000001
44
0.0000000001
40
-0.90474105188216047
40
-0.90474105188216047
40
-0.90474105188216047
40
-0.90474105188216047
40
-0.87788848208923331
40
-0.87788848208923331
40
-0.87788848208923331
40
-0.87788848208923331
10
29.270791412547588
20
49.377168137839888
30
0
10
29.238346914578742
20
48.314244941753941
30
0
10
29.201414818130242
20
47.316096384075962
30
0
10
29.160055455549823
20
46.377168137839888
30
0
0
SPLINE
5
155
100
AcDbEntity
8
0
100
AcDbSpline
70
0
71
3
72
8
73
4
74
0
42
0.000000001
43
0.0000000001
44
0.0000000001
40
-0.87788848208923298
40
-0.87788848208923298
40
-0.87788848208923298
40
-0.87788848208923298
40
-0.84714933820943927
40
-0.84714933820943927
40
-0.84714933820943927
40
-0.84714933820943927
10
29.160055455549813
20
46.377168137839845
30
0
10
29.112709841817505
20
45.302341755247056
30
0
10
29.059562632439302
20
44.30511908807874
30
0
10
29.000704331455339
20
43.377168137839902
30
0
0
SPLINE
5
156
100
AcDbEntity
8
0
100
AcDbSpline
70
0
71
3
72
11
73
7
74
0
42
0.000000001
43
0.0000000001
44
0.0000000001
40
-0.84714933820926086
40
-0.84714933820926086
40
-0.84714933820926086
40
-0.84714933820926086
40
-0.81258172125340677
40
-0.81258172125340677
40
-0.81258172125340677
40
-0.81099980359825974
40
-0.81099980359825974
40
-0.81099980359825974
40
-0.81099980359825974
10
29.000704331454319
20
43.377168137823745
30
0
10
28.934515396230729
20
42.33364353196329
30
0
10
28.861104178494497
20
41.377720376812448
30
0
10
28.780599384895513
20
40.497549658651209
30
0
10
28.776915244490905
20
40.457270411158376
30
0
10
28.773217702729106
20
40.417143719837597
30
0
10
28.769506698925504
20
40.377168137877426
30
0
0
SPLINE
5
157
100
AcDbEntity
8
0
100
AcDbSpline
70
0
71
3
72
8
73
4
74
0
42
0.000000001
43
0.0000000001
44
0.0000000001
40
-0.8109998035977648
40
-0.8109998035977648
40
-0.8109998035977648
40
-0.8109998035977648
40
-0.7672594456235734
40
-0.7672594456235734
40
-0.7672594456235734
40
-0.7672594456235734
10
28.769506698922022
20
40.377168137839902
30
0
10
28.66689665832633
20
39.27183483590008
30
0
10
28.553994426310911
20
38.282029808703996
30
0
10
28.429517158359626
20
37.37716813784111
30
0
0
SPLINE
5
158
100
AcDbEntity
8
0
100
AcDbSpline
70
0
71
3
72
8
73
4
74
0
42
0.000000001
43
0.0000000001
44
0.0000000001
40
-0.76725944562355397
40
-0.76725944562355397
40
-0.76725944562355397
40
-0.76725944562355397
40
-0.71366151540283196
40
-0.71366151540283196
40
-0.71366151540283196
40
-0.71366151540283196
10
28.429517158359467
20
37.377168137839902
30
0
10
28.276986995582654
20
36.268381768900547
30
0
10
28.107076674818707
20
35.28713962195819
30
0
10
27.91742587501593
20
34.377168137839895
30
0
0
SPLINE
5
159
100
AcDbEntity
8
0
100
AcDbSpline
70
0
71
3
72
8
73
4
74
0
42
0.000000001
43
0.0000000001
44
0.0000000001
40
-0.71366151540283185
40
-0.71366151540283185
40
-0.71366151540283185
40
-0.71366151540283185
40
-0.6507655068405066
40
-0.6507655068405066
40
-0.6507655068405066
40
-0.6507655068405066
10
27.91742587501593
20
34.377168137839888
30
0
10
27.694874775017748
20
33.309336338722247
30
0
10
27.445140021838029
20
32.339647901597871
30
0
10
27.164407478552612
20
31.377168137839902
30
0
0
SPLINE
5
160
100
AcDbEntity
8
0
100
AcDbSpline
70
0
71
3
72
11
73
7
74
0
42
0.000000001
43
0.0000000001
44
0.0000000001
40
-0.6507655068405066
40
-0.6507655068405066
40
-0.6507655068405066
40
-0.6507655068405066
40
-0.64344834790296923
40
-0.64344834790296923
40
-0.64344834790296923
40
-0.58599411665308443
40
-0.58599411665308443
40
-0.58599411665308443
40
-0.58599411665308443
10
27.164407478552612
20
31.377168137839902
30
0
10
27.131747780662199
20
31.265195731854845
30
0
10
27.098668546476258
20
31.153320890893276
30
0
10
27.065163770421265
20
31.041400433163417
30
0
10
26.802084730062617
20
30.16260253976025
30
0
10
26.510908480030587
20
29.278500633559869
30
0
10
26.186801722378441
20
28.377168137840286
30
0
0
SPLINE
5
161
100
AcDbEntity
8
0
100
AcDbSpline
70
0
71
3
72
8
73
4
74
0
42
0.000000001
43
0.0000000001
44
0.0000000001
40
-0.58599411665307621
40
-0.58599411665307621
40
-0.58599411665307621
40
-0.58599411665307621
40
-0.5238557751800933
40
-0.5238557751800933
40
-0.5238557751800933
40
-0.5238557751800933
10
26.186801722378306
20
28.377168137839902
30
0
10
25.836271292459241
20
27.402352094159347
30
0
10
25.447221977824981
20
26.40738139331647
30
0
10
25.013539341318204
20
25.377168137839966
30
0
0
SPLINE
5
162
100
AcDbEntity
8
0
100
AcDbSpline
70
0
71
3
72
11
73
7
74
0
42
0.000000001
43
0.0000000001
44
0.0000000001
40
-0.52385577518009185
40
-0.52385577518009185
40
-0.52385577518009185
40
-0.52385577518009185
40
-0.5196224831205799
40
-0.5196224831205799
40
-0.5196224831205799
40
-0.46481161465191406
40
-0.46481161465191406
40
-0.46481161465191406
40
-0.46481161465191406
10
25.013539341318172
20
25.377168137839888
30
0
10
24.983993891311744
20
25.30698291096336
30
0
10
24.95424128585702
20
25.236634113756459
30
0
10
24.924279591596306
20
25.166116975493473
30
0
10
24.536348293652335
20
24.253091005212308
30
0
10
24.112892471316592
20
23.316308013325447
30
0
10
23.649308810495143
20
22.377168137839902
30
0
0
SPLINE
5
163
100
AcDbEntity
8
0
100
AcDbSpline
70
0
71
3
72
8
73
4
74
0
42
0.000000001
43
0.0000000001
44
0.0000000001
40
-0.46481161465191401
40
-0.46481161465191401
40
-0.46481161465191401
40
-0.46481161465191401
40
-0.46309341466665488
40
-0.46309341466665488
40
-0.46309341466665488
40
-0.46309341466665488
10
23.649308810495143
20
22.377168137839899
30
0
10
23.634776483943067
20
22.347728171546759
30
0
10
23.620204724390707
20
22.318285889180906
30
0
10
23.605593390033022
20
22.288841949973389
30
0
0
ARC
5
164
100
AcDbEntity
8
0
100
AcDbCircle
10
24.328196747172942
20
19.377168137839899
30
0
40
3.0000000000023119
210
0
220
0
230
1
100
AcDbArc
50
103.93776342561553
51
184.09819646204568
0
ARC
5
165
100
AcDbEntity
8
0
100
AcDbCircle
10
22.449610116642212
20
16.377168137839895
30
0
40
3.0000000000000018
210
0
220
0
230
1
100
AcDbArc
50
111.79257377784849
51
181.05435353984899
0
ARC
5
166
100
AcDbEntity
8
0
100
AcDbCircle
10
20.022978329606428
20
13.377168137839897
30
0
40
3.0000000000004197
210
0
220
0
230
1
100
AcDbArc
50
101.00843031343577
51
180.61788540574426
0
ARC
5
167
100
AcDbEntity
8
0
100
AcDbCircle
10
16.583762258681528
20
10.377168137839895
30
0
40
3.0000000000000071
210
0
220
-0
230
1
100
AcDbArc
50
81.577963272624828
51
170.32543585768013
0
SPLINE
5
168
100
AcDbEntity
8
0
100
AcDbSpline
70
0
71
3
72
11
73
7
74
0
42
0.000000001
43
0.0000000001
44
0.0000000001
40
-0.20058651517975468
40
-0.20058651517975468
40
-0.20058651517975468
40
-0.20058651517975468
40
-0.1959329173007518
40
-0.1959329173007518
40
-0.1959329173007518
40
-0.18258110570161581
40
-0.18258110570161581
40
-0.18258110570161581
40
-0.18258110570161581
10
13.626427745564458
20
10.881323448757701
30
0
10
13.544554048583917
20
10.835962547865838
30
0
10
13.462201440868116
20
10.791107738993491
30
0
10
13.379365867146589
20
10.746764277417409
30
0
10
13.141699226669012
20
10.619536794508157
30
0
10
12.899789985717458
20
10.496323509764613
30
0
10
12.6535826117832
20
10.377168137839901
30
0
0
SPLINE
5
169
100
AcDbEntity
8
0
100
AcDbSpline
70
0
71
3
72
8
73
4
74
0
42
0.000000001
43
0.0000000001
44
0.0000000001
40
-0.18258110570161576
40
-0.18258110570161576
40
-0.18258110570161576
40
-0.18258110570161576
40
-0.16957558974386294
40
-0.16957558974386294
40
-0.16957558974386294
40
-0.16957558974386294
10
12.653582611783198
20
10.377168137839902
30
0
10
12.413760928647285
20
10.261103206911796
30
0
10
12.169861175947787
20
10.148888424600496
30
0
10
11.921832030988268
20
10.040564191635662
30
0
0
ARC
5
170
100
AcDbEntity
8
0
100
AcDbCircle
10
10.54113602509787
20
7.3771681378398979
30
0
40
3.000000000009424
210
0
220
-0
230
1
100
AcDbArc
50
62.597920822583987
51
153.74156641233412
0
SPLINE
5
171
100
AcDbEntity
8
0
100
AcDbSpline
70
0
71
3
72
8
73
4
74
0
42
0.000000001
43
0.0000000001
44
0.0000000001
40
-0.10403273348774866
40
-0.10403273348774866
40
-0.10403273348774866
40
-0.10403273348774866
40
-0.026710003727021127
40
-0.026710003727021127
40
-0.026710003727021127
40
-0.026710003727021127
10
7.850713136178066
20
8.7044302366319002
30
0
10
6.1208825684831663
20
8.2996428378063509
30
0
10
4.2359456159908282
20
8.0395736955119617
30
0
10
2.1851165810980779
20
7.9327132064610417
30
0
0
ARC
5
172
100
AcDbEntity
8
0
100
AcDbCircle
10
0
20
5.877168137839897
30
0
40
3.0000000003537437
210
0
220
-0
230
1
100
AcDbArc
50
43.249897670121243
51
136.75010232831477
0
SPLINE
5
173
100
AcDbEntity
8
0
100
AcDbSpline
70
0
71
3
72
8
73
4
74
0
42
0.000000001
43
0.0000000001
44
0.0000000001
40
0.026710003725431006
40
0.026710003725431006
40
0.026710003725431006
40
0.026710003725431006
40
0.10403273348748206
40
0.10403273348748206
40
0.10403273348748206
40
0.10403273348748206
10
-2.1851165809715529
20
7.9327132064544497
30
0
10
-4.2359456159062301
20
8.0395736955008967
30
0
10
-6.1208825684345936
20
8.299642837796231
30
0
10
-7.8507131361601719
20
8.7044302366277133
30
0
0
ARC
5
174
100
AcDbEntity
8
0
100
AcDbCircle
10
-10.54113602509787
20
7.3771681378398934
30
0
40
3.0000000000330864
210
0
220
-0
230
1
100
AcDbArc
50
26.258433587146399
51
117.40207917763819
0
SPLINE
5
175
100
AcDbEntity
8
0
100
AcDbSpline
70
0
71
3
72
8
73
4
74
0
42
0.000000001
43
0.0000000001
44
0.0000000001
40
0.16957558974415904
40
0.16957558974415904
40
0.16957558974415904
40
0.16957558974415904
40
0.18258110570161579
40
0.18258110570161579
40
0.18258110570161579
40
0.18258110570161579
10
-11.921832031005209
20
10.040564191643062
30
0
10
-12.169861175958889
20
10.148888424605607
30
0
10
-12.413760928652744
20
10.261103206914438
30
0
10
-12.653582611783198
20
10.377168137839901
30
0
0
SPLINE
5
176
100
AcDbEntity
8
0
100
AcDbSpline
70
0
71
3
72
11
73
7
74
0
42
0.000000001
43
0.0000000001
44
0.0000000001
40
0.18258110570161581
40
0.18258110570161581
40
0.18258110570161581
40
0.18258110570161581
40
0.1959329173007518
40
0.1959329173007518
40
0.1959329173007518
40
0.20058651517975457
40
0.20058651517975457
40
0.20058651517975457
40
0.20058651517975457
10
-12.6535826117832
20
10.377168137839901
30
0
10
-12.899789985717458
20
10.496323509764613
30
0
10
-13.141699226669012
20
10.619536794508157
30
0
10
-13.379365867146589
20
10.746764277417409
30
0
10
-13.462201440868116
20
10.791107738993489
30
0
10
-13.544554048583915
20
10.835962547865837
30
0
10
-13.626427745564452
20
10.881323448757696
30
0
0
ARC
5
177
100
AcDbEntity
8
0
100
AcDbCircle
10
-16.583762258681528
20
10.377168137839892
30
0
40
3.0000000000000044
210
0
220
-0
230
1
100
AcDbArc
50
9.674564142319845
51
98.422036727375158
0
ARC
5
178
100
AcDbEntity
8
0
100
AcDbCircle
10
-20.022978329606431
20
13.377168137839899
30
0
40
3.0000000000004192
210
-0
220
0
230
1
100
AcDbArc
50
-0.61788540574424666
51
78.991569686564205
0
ARC
5
179
100
AcDbEntity
8
0
100
AcDbCircle
10
-22.449610116642212
20
16.377168137839895
30
0
40
3.0000000000000027
210
-0
220
0
230
1
100
AcDbArc
50
-1.0543535398493593
51
68.207426222151554
0
ARC
5
180
100
AcDbEntity
8
0
100
AcDbCircle
10
-24.328196747172942
20
19.377168137839895
30
0
40
3.0000000000023026
210
-0
220
0
230
1
100
AcDbArc
50
-4.0981964620456832
51
76.062236574384386
0
SPLINE
5
181
100
AcDbEntity
8
0
100
AcDbSpline
70
0
71
3
72
8
73
4
74
0
42
0.000000001
43
0.0000000001
44
0.0000000001
40
0.46309341466665482
40
0.46309341466665482
40
0.46309341466665482
40
0.46309341466665482
40
0.46481161465191401
40
0.46481161465191401
40
0.46481161465191401
40
0.46481161465191401
10
-23.605593390033015
20
22.288841949973381
30
0
10
-23.620204724390703
20
22.318285889180896
30
0
10
-23.634776483943064
20
22.347728171546748
30
0
10
-23.649308810495143
20
22.377168137839899
30
0
0
SPLINE
5
182
100
AcDbEntity
8
0
100
AcDbSpline
70
0
71
3
72
11
73
7
74
0
42
0.000000001
43
0.0000000001
44
0.0000000001
40
0.46481161465191401
40
0.46481161465191401
40
0.46481161465191401
40
0.46481161465191401
40
0.5196224831205799
40
0.5196224831205799
40
0.5196224831205799
40
0.52385577518009185
40
0.52385577518009185
40
0.52385577518009185
40
0.52385577518009185
10
-23.649308810495143
20
22.377168137839899
30
0
10
-24.112892471316592
20
23.316308013325447
30
0
10
-24.536348293652335
20
24.253091005212308
30
0
10
-24.924279591596306
20
25.166116975493473
30
0
10
-24.95424128585702
20
25.236634113756459
30
0
10
-24.983993891311744
20
25.30698291096336
30
0
10
-25.013539341318172
20
25.377168137839888
30
0
0
SPLINE
5
183
100
AcDbEntity
8
0
100
AcDbSpline
70
0
71
3
72
8
73
4
74
0
42
0.000000001
43
0.0000000001
44
0.0000000001
40
0.5238557751800933
40
0.5238557751800933
40
0.5238557751800933
40
0.5238557751800933
40
0.58599411665307644
40
0.58599411665307644
40
0.58599411665307644
40
0.58599411665307644
10
-25.013539341318204
20
25.377168137839966
30
0
10
-25.447221977824981
20
26.407381393316474
30
0
10
-25.836271292459241
20
27.402352094159355
30
0
10
-26.186801722378309
20
28.377168137839909
30
0
0
SPLINE
5
184
100
AcDbEntity
8
0
100
AcDbSpline
70
0
71
3
72
11
73
7
74
0
42
0.000000001
43
0.0000000001
44
0.0000000001
40
0.58599411665308443
40
0.58599411665308443
40
0.58599411665308443
40
0.58599411665308443
40
0.64344834790296923
40
0.64344834790296923
40
0.64344834790296923
40
0.6507655068405066
40
0.6507655068405066
40
0.6507655068405066
40
0.6507655068405066
10
-26.186801722378441
20
28.377168137840286
30
0
10
-26.510908480030587
20
29.278500633559869
30
0
10
-26.802084730062617
20
30.16260253976025
30
0
10
-27.065163770421265
20
31.041400433163417
30
0
10
-27.098668546476258
20
31.153320890893276
30
0
10
-27.131747780662199
20
31.265195731854845
30
0
10
-27.164407478552612
20
31.377168137839902
30
0
0
SPLINE
5
185
100
AcDbEntity
8
0
100
AcDbSpline
70
0
71
3
72
8
73
4
74
0
42
0.000000001
43
0.0000000001
44
0.0000000001
40
0.6507655068405066
40
0.6507655068405066
40
0.6507655068405066
40
0.6507655068405066
40
0.71366151540283185
40
0.71366151540283185
40
0.71366151540283185
40
0.71366151540283185
10
-27.164407478552612
20
31.377168137839902
30
0
10
-27.445140021838029
20
32.339647901597871
30
0
10
-27.694874775017748
20
33.309336338722247
30
0
10
-27.91742587501593
20
34.377168137839888
30
0
0
SPLINE
5
186
100
AcDbEntity
8
0
100
AcDbSpline
70
0
71
3
72
8
73
4
74
0
42
0.000000001
43
0.0000000001
44
0.0000000001
40
0.71366151540283196
40
0.71366151540283196
40
0.71366151540283196
40
0.71366151540283196
40
0.76725944562355397
40
0.76725944562355397
40
0.76725944562355397
40
0.76725944562355397
10
-27.91742587501593
20
34.377168137839895
30
0
10
-28.107076674818707
20
35.28713962195819
30
0
10
-28.276986995582654
20
36.268381768900547
30
0
10
-28.429517158359467
20
37.377168137839902
30
0
0
SPLINE
5
187
100
AcDbEntity
8
0
100
AcDbSpline
70
0
71
3
72
8
73
4
74
0
42
0.000000001
43
0.0000000001
44
0.0000000001
40
0.7672594456235734
40
0.7672594456235734
40
0.7672594456235734
40
0.7672594456235734
40
0.8109998035977648
40
0.8109998035977648
40
0.8109998035977648
40
0.8109998035977648
10
-28.429517158359626
20
37.37716813784111
30
0
10
-28.553994426310911
20
38.282029808703996
30
0
10
-28.66689665832633
20
39.27183483590008
30
0
10
-28.769506698922022
20
40.377168137839902
30
0
0
SPLINE
5
188
100
AcDbEntity
8
0
100
AcDbSpline
70
0
71
3
72
11
73
7
74
0
42
0.000000001
43
0.0000000001
44
0.0000000001
40
0.81099980359825974
40
0.81099980359825974
40
0.81099980359825974
40
0.81099980359825974
40
0.81258172125340677
40
0.81258172125340677
40
0.81258172125340677
40
0.84714933820926086
40
0.84714933820926086
40
0.84714933820926086
40
0.84714933820926086
10
-28.769506698925504
20
40.377168137877426
30
0
10
-28.773217702729106
20
40.417143719837597
30
0
10
-28.776915244490905
20
40.457270411158376
30
0
10
-28.780599384895513
20
40.497549658651209
30
0
10
-28.861104178494497
20
41.377720376812448
30
0
10
-28.934515396230729
20
42.33364353196329
30
0
10
-29.000704331454319
20
43.377168137823745
30
0
0
SPLINE
5
189
100
AcDbEntity
8
0
100
AcDbSpline
70
0
71
3
72
8
73
4
74
0
42
0.000000001
43
0.0000000001
44
0.0000000001
40
0.84714933820943927
40
0.84714933820943927
40
0.84714933820943927
40
0.84714933820943927
40
0.87788848208923298
40
0.87788848208923298
40
0.87788848208923298
40
0.87788848208923298
10
-29.000704331455339
20
43.377168137839902
30
0
10
-29.059562632439302
20
44.30511908807874
30
0
10
-29.112709841817505
20
45.302341755247056
30
0
10
-29.160055455549813
20
46.377168137839845
30
0
0
SPLINE
5
190
100
AcDbEntity
8
0
100
AcDbSpline
70
0
71
3
72
8
73
4
74
0
42
0.000000001
43
0.0000000001
44
0.0000000001
40
0.87788848208923331
40
0.87788848208923331
40
0.87788848208923331
40
0.87788848208923331
40
0.90474105188216047
40
0.90474105188216047
40
0.90474105188216047
40
0.90474105188216047
10
-29.160055455549823
20
46.377168137839888
30
0
10
-29.201414818130242
20
47.316096384075962
30
0
10
-29.238346914578742
20
48.314244941753941
30
0
10
-29.270791412547588
20
49.377168137839888
30
0
0
SPLINE
5
191
100
AcDbEntity
8
0
100
AcDbSpline
70
0
71
3
72
8
73
4
74
0
42
0.000000001
43
0.0000000001
44
0.0000000001
40
0.9047410518821859
40
0.9047410518821859
40
0.9047410518821859
40
0.9047410518821859
40
0.92867128811153621
40
0.92867128811153621
40
0.92867128811153621
40
0.92867128811153621
10
-29.270791412547684
20
49.377168137842915
30
0
10
-29.299705013991577
20
50.324414653619428
30
0
10
-29.325054627249465
20
51.323104284702595
30
0
10
-29.346797551756403
20
52.377168137839888
30
0
0
SPLINE
5
192
100
AcDbEntity
8
0
100
AcDbSpline
70
0
71
3
72
11
73
7
74
0
42
0.000000001
43
0.0000000001
44
0.0000000001
40
0.92867128811153632
40
0.92867128811153632
40
0.92867128811153632
40
0.92867128811153632
40
0.94078026495825273
40
0.94078026495825273
40
0.94078026495825273
40
0.95032681354060999
40
0.95032681354060999
40
0.95032681354060999
40
0.95032681354060999
10
-29.346797551756399
20
52.377168137839888
30
0
10
-29.357799723523993
20
52.910536662507667
30
0
10
-29.367878410832535
20
53.458083630903282
30
0
10
-29.377028081263713
20
54.020318369471774
30
0
10
-29.384241553912105
20
54.463576401457217
30
0
10
-29.390877709847384
20
54.915833965843966
30
0
10
-29.396935224245158
20
55.377168137839881
30
0
0
SPLINE
5
193
100
AcDbEntity
8
0
100
AcDbSpline
70
0
71
3
72
8
73
4
74
0
42
0.000000001
43
0.0000000001
44
0.0000000001
40
0.9503268135406101
40
0.9503268135406101
40
0.9503268135406101
40
0.9503268135406101
40
1
40
1
40
1
40
1
10
-29.396935224245158
20
55.377168137839888
30
0
10
-29.42845405427731
20
57.777610365514882
30
0
10
-29.44430678510156
20
60.423792012258339
30
0
10
-29.44430678510156
20
63.326570872234086
30
0
0
LINE
5
194
100
AcDbEntity
8
0
100
AcDbLine
10
-29.444306785101556
20
63.326570872234086
30
0
11
-32.94430678510156
21
63.326570872234086
31
0
0
SPLINE
5
195
100
AcDbEntity
8
0
100
AcDbSpline
70
0
71
3
72
8
73
4
74
0
42
0.000000001
43
0.0000000001
44
0.0000000001
40
-1
40
-1
40
-1
40
-1
40
-0.950636329732649
40
-0.950636329732649
40
-0.950636329732649
40
-0.950636329732649
10
-32.94430678510156
20
63.326570872234086
30
0
10
-32.94430678510156
20
60.429237271404794
30
0
10
-32.928593290958389
20
57.784158640752977
30
0
10
-32.897224957666921
20
55.37716813784111
30
0
0
LINE
5
196
100
AcDbEntity
8
0
100
AcDbLine
10
-32.897224957666921
20
55.37716813784111
30
0
11
-32.847552818951222
21
55.377168137839881
31
0
0
LINE
5
197
100
AcDbEntity
8
0
100
AcDbLine
10
-32.847552818951222
20
55.377168137839881
30
0
11
-32.847552818951222
21
52.377168137839888
31
0
0
SPLINE
5
198
100
AcDbEntity
8
0
100
AcDbSpline
70
0
71
3
72
11
73
7
74
0
42
0.000000001
43
0.0000000001
44
0.0000000001
40
-0.92921640872242139
40
-0.92921640872242139
40
-0.92921640872242139
40
-0.92921640872242139
40
-0.92800426576916717
40
-0.92800426576916717
40
-0.92800426576916717
40
-0.90564385992824281
40
-0.90564385992824281
40
-0.90564385992824281
40
-0.90564385992824281
10
-32.847552818951165
20
52.377168137839895
30
0
10
-32.846449222050879
20
52.323071804381456
30
0
10
-32.845336201161892
20
52.269115323355294
30
0
10
-32.844213757152673
20
52.215298485006436
30
0
10
-32.823508028086152
20
51.222539055662459
30
0
10
-32.799641571651676
20
50.277687343749086
30
0
10
-32.772579449926774
20
49.377168137839888
30
0
0
LINE
5
199
100
AcDbEntity
8
0
100
AcDbLine
10
-32.772579449926774
20
49.377168137839888
30
0
11
-32.663741939753578
21
49.377168137839888
31
0
0
LINE
5
200
100
AcDbEntity
8
0
100
AcDbLine
10
-32.663741939753578
20
49.377168137839888
30
0
11
-32.663741939753578
21
46.377168137839888
31
0
0
LINE
5
201
100
AcDbEntity
8
0
100
AcDbLine
10
-32.663741939753578
20
46.377168137839888
30
0
11
-32.50782218202842
21
46.377168137839888
31
0
0
LINE
5
202
100
AcDbEntity
8
0
100
AcDbLine
10
-32.50782218202842
20
46.377168137839888
30
0
11
-32.50782218202842
21
43.377168137839888
31
0
0
LINE
5
203
100
AcDbEntity
8
0
100
AcDbLine
10
-32.50782218202842
20
43.377168137839888
30
0
11
-32.283963820327642
21
43.377168137839888
31
0
0
LINE
5
204
100
AcDbEntity
8
0
100
AcDbLine
10
-32.283963820327642
20
43.377168137839888
30
0
11
-32.283963820327642
21
40.377168137839888
31
0
0
LINE
5
205
100
AcDbEntity
8
0
100
AcDbLine
10
-32.283963820327642
20
40.377168137839888
30
0
11
-31.958814896063465
21
40.377168137839888
31
0
0
LINE
5
206
100
AcDbEntity
8
0
100
AcDbLine
10
-31.958814896063465
20
40.377168137839888
30
0
11
-31.958814896063465
21
37.377168137839895
31
0
0
LINE
5
207
100
AcDbEntity
8
0
100
AcDbLine
10
-31.958814896063465
20
37.377168137839895
30
0
11
-31.48308680328935
21
37.377168137839895
31
0
0
LINE
5
208
100
AcDbEntity
8
0
100
AcDbLine
10
-31.48308680328935
20
37.377168137839895
30
0
11
-31.48308680328935
21
34.377168137981485
31
0
0
LINE
5
209
100
AcDbEntity
8
0
100
AcDbLine
10
-31.48308680328935
20
34.377168137981485
30
0
11
-30.798420178276331
21
34.377168137839895
31
0
0
LINE
5
210
100
AcDbEntity
8
0
100
AcDbLine
10
-30.798420178276331
20
34.377168137839895
30
0
11
-30.798420178276331
21
31.377168137839895
31
0
0
LINE
5
211
100
AcDbEntity
8
0
100
AcDbLine
10
-30.798420178276331
20
31.377168137839895
30
0
11
-29.891526610775387
21
31.377168137839895
31
0
0
LINE
5
212
100
AcDbEntity
8
0
100
AcDbLine
10
-29.891526610775387
20
31.377168137839895
30
0
11
-29.891526610775394
21
28.377168137839895
31
0
0
LINE
5
213
100
AcDbEntity
8
0
100
AcDbLine
10
-29.891526610775394
20
28.377168137839895
30
0
11
-28.79494897270845
21
28.377168137839899
31
0
0
LINE
5
214
100
AcDbEntity
8
0
100
AcDbLine
10
-28.79494897270845
20
28.377168137839899
30
0
11
-28.794948972708376
21
25.377168137839902
31
0
0
LINE
5
215
100
AcDbEntity
8
0
100
AcDbLine
10
-28.794948972708376
20
25.377168137839902
30
0
11
-27.521797087297482
21
25.377168137839902
31
0
0
LINE
5
216
100
AcDbEntity
8
0
100
AcDbLine
10
-27.521797087297482
20
25.377168137839902
30
0
11
-27.521797087232894
21
22.377168137839902
31
0
0
LINE
5
217
100
AcDbEntity
8
0
100
AcDbLine
10
-27.521797087232894
20
22.377168137839902
30
0
11
-26.043579030306219
21
22.377168137839902
31
0
0
LINE
5
218
100
AcDbEntity
8
0
100
AcDbLine
10
-26.043579030306219
20
22.377168137839902
30
0
11
-26.043579030306134
21
19.377168137839899
31
0
0
ENDSEC
0
SECTION
2
OBJECTS
0
DICTIONARY
5
C
100
AcDbDictionary
3
ACAD_GROUP
350
D
3
ACAD_MLINESTYLE
350
17
0
DICTIONARY
5
D
100
AcDbDictionary
0
DICTIONARY
5
1A
330
C
100
AcDbDictionary
0
DICTIONARY
5
17
100
AcDbDictionary
0
ENDSEC
0
EOF
