0
SECTION
2
HEADER
9
$INSUNITS
70
4
9
$ACADVER
1
AC1014
9
$HANDSEED
5
FFFF
0
ENDSEC
0
SECTION
2
TABLES
0
TABLE
2
VPORT
5
8
100
AcDbSymbolTable
0
ENDTAB
0
TABLE
2
LTYPE
5
5
100
AcDbSymbolTable
0
LTYPE
5
14
100
AcDbSymbolTableRecord
100
AcDbLinetypeTableRecord
2
BYBLOCK
70
0
0
LTYPE
5
15
100
AcDbSymbolTableRecord
100
AcDbLinetypeTableRecord
2
BYLAYER
70
0
0
ENDTAB
0
TABLE
2
LAYER
5
2
100
AcDbSymbolTable
70
2
0
LAYER
5
50
100
AcDbSymbolTableRecord
100
AcDbLayerTableRecord
2
0
70
0
6
CONTINUOUS
0
ENDTAB
0
TABLE
2
STYLE
5
3
100
AcDbSymbolTable
70
1
0
STYLE
5
11
100
AcDbSymbolTableRecord
100
AcDbTextStyleTableRecord
2
STANDARD
70
0
0
ENDTAB
0
TABLE
2
VIEW
5
6
100
AcDbSymbolTable
70
0
0
ENDTAB
0
TABLE
2
UCS
5
7
100
AcDbSymbolTable
70
0
0
ENDTAB
0
TABLE
2
APPID
5
9
100
AcDbSymbolTable
70
2
0
APPID
5
12
100
AcDbSymbolTableRecord
100
AcDbRegAppTableRecord
2
ACAD
70
0
0
ENDTAB
0
TABLE
2
DIMSTYLE
5
A
100
AcDbSymbolTable
70
1
0
ENDTAB
0
TABLE
2
BLOCK_RECORD
5
1
100
AcDbSymbolTable
70
1
0
BLOCK_RECORD
5
1F
100
AcDbSymbolTableRecord
100
AcDbBlockTableRecord
2
*MODEL_SPACE
0
BLOCK_RECORD
5
1B
100
AcDbSymbolTableRecord
100
AcDbBlockTableRecord
2
*PAPER_SPACE
0
ENDTAB
0
ENDSEC
0
SECTION
2
BLOCKS
0
BLOCK
5
20
100
AcDbEntity
100
AcDbBlockBegin
2
*MODEL_SPACE
0
ENDBLK
5
21
100
AcDbEntity
100
AcDbBlockEnd
0
BLOCK
5
1C
100
AcDbEntity
100
AcDbBlockBegin
2
*PAPER_SPACE
0
ENDBLK
5
1D
100
AcDbEntity
100
AcDbBlockEnd
0
ENDSEC
0
SECTION
2
ENTITIES
0
ARC
5
100
100
AcDbEntity
8
0
100
AcDbCircle
10
-24.350963580742388
20
22.377168137840215
30
0
40
2.9999999999999987
210
1.1934210435733786e-31
220
1.5771080587805403e-30
230
1
100
AcDbArc
50
-0.30541912424071915
51
76.198762800824653
0
SPLINE
5
101
100
AcDbEntity
8
0
100
AcDbSpline
70
0
71
3
72
8
73
4
74
0
42
0.000000001
43
0.0000000001
44
0.0000000001
40
0.43458119730450501
40
0.43458119730450501
40
0.43458119730450501
40
0.43458119730450501
40
0.43635540602093836
40
0.43635540602093836
40
0.43635540602093836
40
0.43635540602093836
10
-23.635300298485902
20
25.290555524788559
30
0
10
-23.648208631093777
20
25.319290350513235
30
0
10
-23.661092888158997
20
25.348160964556861
30
0
10
-23.673953418741913
20
25.377168137840201
30
0
0
SPLINE
5
102
100
AcDbEntity
8
0
100
AcDbSpline
70
0
71
3
72
11
73
7
74
0
42
0.000000001
43
0.0000000001
44
0.0000000001
40
0.43635540602093853
40
0.43635540602093853
40
0.43635540602093853
40
0.43635540602093853
40
0.45894216861030601
40
0.45894216861030601
40
0.45894216861030601
40
0.48983599531574168
40
0.48983599531574168
40
0.48983599531574168
40
0.48983599531574168
10
-23.67395341874191
20
25.377168137840201
30
0
10
-23.837675842354699
20
25.746447203076997
30
0
10
-23.997552951061508
20
26.137858216617538
30
0
10
-24.154304936942811
20
26.552991766007594
30
0
10
-24.36870789391326
20
27.120805054154793
30
-3.5527136788005009e-14
10
-24.576047783821373
20
27.730718425600568
30
-3.5527136788005009e-14
10
-24.776076129847837
20
28.377168137840229
30
-3.5527136788005009e-14
0
SPLINE
5
103
100
AcDbEntity
8
0
100
AcDbSpline
70
0
71
3
72
8
73
4
74
0
42
0.000000001
43
0.0000000001
44
0.0000000001
40
0.48983599531574185
40
0.48983599531574185
40
0.48983599531574185
40
0.48983599531574185
40
0.53427670444683772
40
0.53427670444683772
40
0.53427670444683772
40
0.53427670444683772
10
-24.776076129847841
20
28.377168137840233
30
-3.5527136788005009e-14
10
-25.063816513339155
20
29.30708478116977
30
0
10
-25.336427290107576
20
30.312605219847182
30
0
10
-25.593168831543757
20
31.377168137839334
30
0
0
SPLINE
5
104
100
AcDbEntity
8
0
100
AcDbSpline
70
0
71
3
72
8
73
4
74
0
42
0.000000001
43
0.0000000001
44
0.0000000001
40
0.53427670444684994
40
0.53427670444684994
40
0.53427670444684994
40
0.53427670444684994
40
0.57420013054229047
40
0.57420013054229047
40
0.57420013054229047
40
0.57420013054229047
10
-25.593168831543977
20
31.377168137840215
30
0
10
-25.823813259942277
20
32.333520991144916
30
0
10
-26.04165062233416
20
33.337523331897238
30
0
10
-26.246144684935011
20
34.377168137840187
30
0
0
SPLINE
5
105
100
AcDbEntity
8
0
100
AcDbSpline
70
0
71
3
72
8
73
4
74
0
42
0.000000001
43
0.0000000001
44
0.0000000001
40
0.57420013054229058
40
0.57420013054229058
40
0.57420013054229058
40
0.57420013054229058
40
0.61153014017373508
40
0.61153014017373508
40
0.61153014017373508
40
0.61153014017373508
10
-26.246144684935011
20
34.377168137840201
30
0
10
-26.437354860840617
20
35.349277859244204
30
0
10
-26.616898986576558
20
36.352549796411679
30
0
10
-26.784338687861666
20
37.377168137840158
30
0
0
SPLINE
5
106
100
AcDbEntity
8
0
100
AcDbSpline
70
0
71
3
72
11
73
7
74
0
42
0.000000001
43
0.0000000001
44
0.0000000001
40
0.61153014017373553
40
0.61153014017373553
40
0.61153014017373553
40
0.61153014017373553
40
0.63122251537667418
40
0.63122251537667418
40
0.63122251537667418
40
0.64736990275130624
40
0.64736990275130624
40
0.64736990275130624
40
0.64736990275130624
10
-26.78433868786167
20
37.377168137840194
30
0
10
-26.872666696724462
20
37.917676137126286
30
0
10
-26.957626301823439
20
38.464124386504295
30
0
10
-27.039153150711467
20
39.015071944938491
30
3.5527136788005009e-14
10
-27.106003675184091
20
39.46683886271574
30
3.5527136788005009e-14
10
-27.170396078529784
20
39.920917654864382
30
3.5527136788005009e-14
10
-27.232379519750467
20
40.377168137839384
30
3.5527136788005009e-14
0
SPLINE
5
107
100
AcDbEntity
8
0
100
AcDbSpline
70
0
71
3
72
8
73
4
74
0
42
0.000000001
43
0.0000000001
44
0.0000000001
40
0.6473699027513159
40
0.6473699027513159
40
0.6473699027513159
40
0.6473699027513159
40
0.68241624961391267
40
0.68241624961391267
40
0.68241624961391267
40
0.68241624961391267
10
-27.23237951975058
20
40.377168137840215
30
3.5527136788005009e-14
10
-27.366908600546033
20
41.367415805254815
30
3.5527136788005009e-14
10
-27.490089900137598
20
42.367893551459055
30
3.5527136788005009e-14
10
-27.60242602089205
20
43.377168137803508
30
3.5527136788005009e-14
0
SPLINE
5
108
100
AcDbEntity
8
0
100
AcDbSpline
70
0
71
3
72
8
73
4
74
0
42
0.000000001
43
0.0000000001
44
0.0000000001
40
0.68241624961433722
40
0.68241624961433722
40
0.68241624961433722
40
0.68241624961433722
40
0.7168612221566969
40
0.7168612221566969
40
0.7168612221566969
40
0.7168612221566969
10
-27.602426020896136
20
43.377168137840194
30
3.5527136788005009e-14
10
-27.712834521104842
20
44.369124176814566
30
3.5527136788005009e-14
10
-27.812766842712975
20
45.369577749099705
30
3.5527136788005009e-14
10
-27.902700156447548
20
46.377168137807814
30
3.5527136788005009e-14
0
SPLINE
5
109
100
AcDbEntity
8
0
100
AcDbSpline
70
0
71
3
72
8
73
4
74
0
42
0.000000001
43
0.0000000001
44
0.0000000001
40
0.71686122215706594
40
0.71686122215706594
40
0.71686122215706594
40
0.71686122215706594
40
0.75082437963790261
40
0.75082437963790261
40
0.75082437963790261
40
0.75082437963790261
10
-27.902700156450443
20
46.377168137840208
30
3.5527136788005009e-14
10
-27.991375486162994
20
47.370664387715053
30
0
10
-28.070329583103749
20
48.371099191351867
30
0
10
-28.140019872846018
20
49.377168137840151
30
0
0
SPLINE
5
110
100
AcDbEntity
8
0
100
AcDbSpline
70
0
71
3
72
11
73
7
74
0
42
0.000000001
43
0.0000000001
44
0.0000000001
40
0.75082437963790327
40
0.75082437963790327
40
0.75082437963790327
40
0.75082437963790327
40
0.76624266200733615
40
0.76624266200733615
40
0.76624266200733615
40
0.78437641477337139
40
0.78437641477337139
40
0.78437641477337139
40
0.78437641477337139
10
-28.140019872846018
20
49.377168137840208
30
0
10
-28.171657230658237
20
49.833894080027015
30
0
10
-28.201385415046978
20
50.291781159915161
30
0
10
-28.229247222117767
20
50.750707338619577
30
0
10
-28.26201605517781
20
51.290459670499679
30
0
10
-28.29237642601764
20
51.832404045207674
30
0
10
-28.320511686556085
20
52.377168137833472
30
0
0
SPLINE
5
111
100
AcDbEntity
8
0
100
AcDbSpline
70
0
71
3
72
8
73
4
74
0
42
0.000000001
43
0.0000000001
44
0.0000000001
40
0.784376414773446
40
0.784376414773446
40
0.784376414773446
40
0.784376414773446
40
0.81731239940867506
40
0.81731239940867506
40
0.81731239940867506
40
0.81731239940867506
10
-28.320511686556451
20
52.377168137840215
30
0
10
-28.371613216435993
20
53.366612629338675
30
0
10
-28.415374384514109
20
54.365359019121371
30
0
10
-28.452893777505103
20
55.377168137830573
30
0
0
SPLINE
5
112
100
AcDbEntity
8
0
100
AcDbSpline
70
0
71
3
72
8
73
4
74
0
42
0.000000001
43
0.0000000001
44
0.0000000001
40
0.81731239940877953
40
0.81731239940877953
40
0.81731239940877953
40
0.81731239940877953
40
0.84942202364336539
40
0.84942202364336539
40
0.84942202364336539
40
0.84942202364336539
10
-28.452893777505448
20
55.377168137840187
30
0
10
-28.489471812860756
20
56.363591071865109
30
0
10
-28.5201173548786
20
57.362429472843608
30
0
10
-28.545848357336034
20
58.377168137840208
30
0
0
SPLINE
5
113
100
AcDbEntity
8
0
100
AcDbSpline
70
0
71
3
72
8
73
4
74
0
42
0.000000001
43
0.0000000001
44
0.0000000001
40
0.84942202364336539
40
0.84942202364336539
40
0.84942202364336539
40
0.84942202364336539
40
0.88055864770624659
40
0.88055864770624659
40
0.88055864770624659
40
0.88055864770624659
10
-28.545848357336034
20
58.377168137840208
30
0
10
-28.570799647467133
20
59.361157738691297
30
0
10
-28.591129730464097
20
60.360098569990654
30
0
10
-28.607766796482164
20
61.377168137830608
30
0
0
SPLINE
5
114
100
AcDbEntity
8
0
100
AcDbSpline
70
0
71
3
72
8
73
4
74
0
42
0.000000001
43
0.0000000001
44
0.0000000001
40
0.88055864770634451
40
0.88055864770634451
40
0.88055864770634451
40
0.88055864770634451
40
0.91062597549322
40
0.91062597549322
40
0.91062597549322
40
0.91062597549322
10
-28.607766796482331
20
61.377168137840201
30
0
10
-28.623832511132896
20
62.359309426393011
30
0
10
-28.636454505072649
20
63.358355675264846
30
0
10
-28.646468586996924
20
64.377168137838382
30
0
0
SPLINE
5
115
100
AcDbEntity
8
0
100
AcDbSpline
70
0
71
3
72
11
73
7
74
0
42
0.000000001
43
0.0000000001
44
0.0000000001
40
0.91062597549323787
40
0.91062597549323787
40
0.91062597549323787
40
0.91062597549323787
40
0.96014339841480523
40
0.96014339841480523
40
0.96014339841480523
40
1
40
1
40
1
40
1
10
-28.646468586996946
20
64.377168137840201
30
0
10
-28.662960625575494
20
66.055034822389359
30
3.5527136788005009e-14
10
-28.672379408761152
20
67.786512010986499
30
3.5527136788005009e-14
10
-28.678458267507665
20
69.584380147146661
30
3.5527136788005009e-14
10
-28.6833511443348
20
71.031485222044296
30
3.5527136788005009e-14
10
-28.685555876460139
20
72.520193442664095
30
0
10
-28.685555876460139
20
74.051994058033358
30
0
0
LINE
5
116
100
AcDbEntity
8
0
100
AcDbLine
10
-28.685555876460143
20
74.051994058033358
30
2.2634041270793854e-30
11
-32.185555876460143
21
74.051994058033358
31
-3.0907404462137755e-31
0
SPLINE
5
117
100
AcDbEntity
8
0
100
AcDbSpline
70
0
71
3
72
8
73
4
74
0
42
0.000000001
43
0.0000000001
44
0.0000000001
40
-1
40
-1
40
-1
40
-1
40
-0.91094057029338216
40
-0.91094057029338216
40
-0.91094057029338216
40
-0.91094057029338216
10
-32.185555876460143
20
74.051994058033358
30
0
10
-32.185555876460143
20
70.621419591157817
30
0
10
-32.17838373596463
20
67.417990036874571
30
0
10
-32.14734354586875
20
64.377168137840201
30
0
0
LINE
5
118
100
AcDbEntity
8
0
100
AcDbLine
10
-32.14734354586875
20
64.377168137840201
30
0
11
-32.10754634573361
21
64.377168137840187
31
1.594115552213076e-46
0
LINE
5
119
100
AcDbEntity
8
0
100
AcDbLine
10
-32.10754634573361
20
64.377168137840187
30
1.594115552213076e-46
11
-32.10754634573361
21
61.377168137840187
31
0
0
LINE
5
120
100
AcDbEntity
8
0
100
AcDbLine
10
-32.10754634573361
20
61.377168137840187
30
0
11
-32.045612075237983
21
61.377168137840187
31
2.4808374327030991e-46
0
LINE
5
121
100
AcDbEntity
8
0
100
AcDbLine
10
-32.045612075237983
20
61.377168137840187
30
2.4808374327030991e-46
11
-32.045612075237983
21
58.377168137840194
31
0
0
LINE
5
122
100
AcDbEntity
8
0
100
AcDbLine
10
-32.045612075237983
20
58.377168137840194
30
0
11
-31.954304752664584
21
58.377168137840194
31
3.6574035975125431e-46
0
LINE
5
123
100
AcDbEntity
8
0
100
AcDbLine
10
-31.954304752664584
20
58.377168137840194
30
3.6574035975125431e-46
11
-31.954304752664584
21
55.377168137840194
31
0
0
LINE
5
124
100
AcDbEntity
8
0
100
AcDbLine
10
-31.954304752664584
20
55.377168137840194
30
0
11
-31.824268030894949
21
55.377168137840194
31
-1.9721522630524626e-30
0
LINE
5
125
100
AcDbEntity
8
0
100
AcDbLine
10
-31.824268030894949
20
55.377168137840194
30
-1.9721522630524626e-30
11
-31.824268030894949
21
52.377168137840201
31
0
0
LINE
5
126
100
AcDbEntity
8
0
100
AcDbLine
10
-31.824268030894949
20
52.377168137840201
30
0
11
-31.647645548714237
21
52.377168137840194
31
-1.2335204179273016e-30
0
LINE
5
127
100
AcDbEntity
8
0
100
AcDbLine
10
-31.647645548714237
20
52.377168137840194
30
-1.2335204179273016e-30
11
-31.647645548714237
21
49.377168137840201
31
0
0
LINE
5
128
100
AcDbEntity
8
0
100
AcDbLine
10
-31.647645548714237
20
49.377168137840201
30
0
11
-31.416681493456217
21
49.377168137840201
31
9.2514898344289256e-46
0
LINE
5
129
100
AcDbEntity
8
0
100
AcDbLine
10
-31.416681493456217
20
49.377168137840201
30
9.2514898344289256e-46
11
-31.416681493456217
21
46.377168137840201
31
0
0
LINE
5
130
100
AcDbEntity
8
0
100
AcDbLine
10
-31.416681493456217
20
46.377168137840201
30
0
11
-31.12404187611881
21
46.377168137840201
31
1.1721964449938771e-45
0
LINE
5
131
100
AcDbEntity
8
0
100
AcDbLine
10
-31.12404187611881
20
46.377168137840201
30
1.1721964449938771e-45
11
-31.12404187611881
21
43.377168137840201
31
0
0
LINE
5
132
100
AcDbEntity
8
0
100
AcDbLine
10
-31.12404187611881
20
43.377168137840201
30
0
11
-30.764096683801778
21
43.377168137840201
31
3.2047474274604284e-30
0
LINE
5
133
100
AcDbEntity
8
0
100
AcDbLine
10
-30.764096683801778
20
43.377168137840201
30
3.2047474274604284e-30
11
-30.764096683801778
21
40.377168137846795
31
0
0
LINE
5
134
100
AcDbEntity
8
0
100
AcDbLine
10
-30.764096683801778
20
40.377168137846795
30
0
11
-30.330133389500716
21
40.377168137840201
31
3.5527136788005009e-14
0
LINE
5
135
100
AcDbEntity
8
0
100
AcDbLine
10
-30.330133389500716
20
40.377168137840201
30
3.5527136788005009e-14
11
-30.330133389500716
21
37.377168138316094
31
3.5527136788005009e-14
0
LINE
5
136
100
AcDbEntity
8
0
100
AcDbLine
10
-30.330133389500716
20
37.377168138316094
30
3.5527136788005009e-14
11
-29.810843435729943
21
37.377168137840201
31
-2.4757960567002881e-32
0
LINE
5
137
100
AcDbEntity
8
0
100
AcDbLine
10
-29.810843435729943
20
37.377168137840201
30
-2.4757960567002881e-32
11
-29.810843435729943
21
34.377168137840208
31
0
0
LINE
5
138
100
AcDbEntity
8
0
100
AcDbLine
10
-29.810843435729943
20
34.377168137840208
30
0
11
-29.188057476456066
21
34.377168137840208
31
1.3245771749786523e-30
0
LINE
5
139
100
AcDbEntity
8
0
100
AcDbLine
10
-29.188057476456066
20
34.377168137840208
30
1.3245771749786523e-30
11
-29.188057476456066
21
31.377168137840208
31
0
0
LINE
5
140
100
AcDbEntity
8
0
100
AcDbLine
10
-29.188057476456066
20
31.377168137840208
30
0
11
-28.428964633875268
21
31.377168137840208
31
3.0406201989649863e-45
0
LINE
5
141
100
AcDbEntity
8
0
100
AcDbLine
10
-28.428964633875268
20
31.377168137840208
30
3.0406201989649863e-45
11
-28.428964633875268
21
28.377168137840208
31
0
0
LINE
5
142
100
AcDbEntity
8
0
100
AcDbLine
10
-28.428964633875268
20
28.377168137840208
30
0
11
-27.453317029416368
21
28.377168137840208
31
3.9080513565424167e-45
0
LINE
5
143
100
AcDbEntity
8
0
100
AcDbLine
10
-27.453317029416368
20
28.377168137840208
30
3.9080513565424167e-45
11
-27.453317029416368
21
25.377168137840211
31
0
0
LINE
5
144
100
AcDbEntity
8
0
100
AcDbLine
10
-27.453317029416368
20
25.377168137840211
30
0
11
-26.090927516976372
21
25.377168137840211
31
5.4571836776898254e-45
0
LINE
5
145
100
AcDbEntity
8
0
100
AcDbLine
10
-26.090927516976372
20
25.377168137840211
30
5.4571836776898254e-45
11
-26.090927516976372
21
22.377168137840215
31
0
0
LINE
5
146
100
AcDbEntity
8
0
100
AcDbLine
10
-26.090927516976372
20
22.377168137840215
30
0
11
-24.350963580742388
21
22.377168137840215
31
0
0
LINE
5
147
100
AcDbEntity
8
0
100
AcDbLine
10
-24.350963580742388
20
22.377168137840215
30
0
11
-24.350963580742388
21
19.377168137840208
31
0
0
LINE
5
148
100
AcDbEntity
8
0
100
AcDbLine
10
-24.350963580742388
20
19.377168137840208
30
0
11
-21.660350769871496
21
19.377168137840208
31
1.0777511262671638e-44
0
LINE
5
149
100
AcDbEntity
8
0
100
AcDbLine
10
-21.660350769871496
20
19.377168137840208
30
1.0777511262671638e-44
11
-21.660350769871496
21
16.377168137840208
31
0
0
LINE
5
150
100
AcDbEntity
8
0
100
AcDbLine
10
-21.660350769871496
20
16.377168137840208
30
0
11
-15.292180904212973
21
16.377168137840208
31
2.5508323669776108e-44
0
LINE
5
151
100
AcDbEntity
8
0
100
AcDbLine
10
-15.292180904212973
20
16.377168137840208
30
2.5508323669776108e-44
11
-15.292180904212971
21
13.37716813784021
31
0
0
LINE
5
152
100
AcDbEntity
8
0
100
AcDbLine
10
-15.292180904212971
20
13.37716813784021
30
0
11
-1.4500000000004909
21
13.377168137840208
31
3.5527136788005009e-14
0
LINE
5
153
100
AcDbEntity
8
0
100
AcDbLine
10
-1.4500000000004909
20
13.377168137840208
30
3.5527136788005009e-14
11
-1.4500000000004918
21
14.454484721588779
31
0
0
LINE
5
154
100
AcDbEntity
8
0
100
AcDbLine
10
-1.4500000000004918
20
14.454484721588779
30
0
11
1.4499999999995086
21
14.454484721588779
31
-9.8607613152618663e-31
0
LINE
5
155
100
AcDbEntity
8
0
100
AcDbLine
10
1.4499999999995086
20
14.454484721588779
30
-9.8607613152618663e-31
11
1.4499999999995086
21
13.377168137840208
31
3.5527136788005009e-14
0
LINE
5
156
100
AcDbEntity
8
0
100
AcDbLine
10
1.4499999999995086
20
13.377168137840208
30
3.5527136788005009e-14
11
15.292180904211989
21
13.377168137840208
31
3.5527136788005009e-14
0
LINE
5
157
100
AcDbEntity
8
0
100
AcDbLine
10
15.292180904211989
20
13.377168137840208
30
3.5527136788005009e-14
11
15.292180904211989
21
16.377168137840208
31
0
0
LINE
5
158
100
AcDbEntity
8
0
100
AcDbLine
10
15.292180904211989
20
16.377168137840208
30
0
11
21.660350769870512
21
16.377168137840208
31
2.5508323669776108e-44
0
LINE
5
159
100
AcDbEntity
8
0
100
AcDbLine
10
21.660350769870512
20
16.377168137840208
30
2.5508323669776108e-44
11
21.660350769870508
21
19.377168137840208
31
3.5527136788005009e-14
0
LINE
5
160
100
AcDbEntity
8
0
100
AcDbLine
10
21.660350769870508
20
19.377168137840208
30
3.5527136788005009e-14
11
24.350963580741404
21
19.377168137840208
31
3.5527136788005009e-14
0
LINE
5
161
100
AcDbEntity
8
0
100
AcDbLine
10
24.350963580741404
20
19.377168137840208
30
3.5527136788005009e-14
11
24.350963580741404
21
22.377168137840208
31
3.5527136788005009e-14
0
LINE
5
162
100
AcDbEntity
8
0
100
AcDbLine
10
24.350963580741404
20
22.377168137840208
30
3.5527136788005009e-14
11
26.09092751697538
21
22.377168137840208
31
3.5527136788005009e-14
0
LINE
5
163
100
AcDbEntity
8
0
100
AcDbLine
10
26.09092751697538
20
22.377168137840208
30
3.5527136788005009e-14
11
26.09092751697538
21
25.377168137840211
31
0
0
LINE
5
164
100
AcDbEntity
8
0
100
AcDbLine
10
26.09092751697538
20
25.377168137840211
30
0
11
27.453317029415377
21
25.377168137840211
31
5.4571836776898254e-45
0
LINE
5
165
100
AcDbEntity
8
0
100
AcDbLine
10
27.453317029415377
20
25.377168137840211
30
5.4571836776898254e-45
11
27.453317029415377
21
28.377168137840208
31
0
0
LINE
5
166
100
AcDbEntity
8
0
100
AcDbLine
10
27.453317029415377
20
28.377168137840208
30
0
11
28.42896463387428
21
28.377168137840208
31
3.9080513565424335e-45
0
LINE
5
167
100
AcDbEntity
8
0
100
AcDbLine
10
28.42896463387428
20
28.377168137840208
30
3.9080513565424335e-45
11
28.42896463387428
21
31.377168137840208
31
0
0
LINE
5
168
100
AcDbEntity
8
0
100
AcDbLine
10
28.42896463387428
20
31.377168137840208
30
0
11
29.188057476455086
21
31.377168137840208
31
3.0406201989650037e-45
0
LINE
5
169
100
AcDbEntity
8
0
100
AcDbLine
10
29.188057476455086
20
31.377168137840208
30
3.0406201989650037e-45
11
29.188057476455086
21
34.377168137840208
31
0
0
LINE
5
170
100
AcDbEntity
8
0
100
AcDbLine
10
29.188057476455086
20
34.377168137840208
30
0
11
29.810843435728952
21
34.377168137840208
31
-3.5527136788005009e-14
0
LINE
5
171
100
AcDbEntity
8
0
100
AcDbLine
10
29.810843435728952
20
34.377168137840208
30
-3.5527136788005009e-14
11
29.810843435728952
21
37.377168137840201
31
-3.5527136788005009e-14
0
LINE
5
172
100
AcDbEntity
8
0
100
AcDbLine
10
29.810843435728952
20
37.377168137840201
30
-3.5527136788005009e-14
11
30.330133389499728
21
37.377168138316094
31
-3.5527136788005009e-14
0
LINE
5
173
100
AcDbEntity
8
0
100
AcDbLine
10
30.330133389499728
20
37.377168138316094
30
-3.5527136788005009e-14
11
30.330133389499728
21
40.377168137840201
31
-3.5527136788005009e-14
0
LINE
5
174
100
AcDbEntity
8
0
100
AcDbLine
10
30.330133389499728
20
40.377168137840201
30
-3.5527136788005009e-14
11
30.764096683800798
21
40.377168137846795
31
-5.3018987245229136e-32
0
LINE
5
175
100
AcDbEntity
8
0
100
AcDbLine
10
30.764096683800798
20
40.377168137846795
30
-5.3018987245229136e-32
11
30.764096683800798
21
43.377168137840201
31
0
0
LINE
5
176
100
AcDbEntity
8
0
100
AcDbLine
10
30.764096683800798
20
43.377168137840201
30
0
11
31.124041876117822
21
43.377168137840201
31
9.8607613152619977e-31
0
LINE
5
177
100
AcDbEntity
8
0
100
AcDbLine
10
31.124041876117822
20
43.377168137840201
30
9.8607613152619977e-31
11
31.124041876117822
21
46.377168137840201
31
0
0
LINE
5
178
100
AcDbEntity
8
0
100
AcDbLine
10
31.124041876117822
20
46.377168137840201
30
0
11
31.416681493455233
21
46.377168137840201
31
1.1721964449938771e-45
0
LINE
5
179
100
AcDbEntity
8
0
100
AcDbLine
10
31.416681493455233
20
46.377168137840201
30
1.1721964449938771e-45
11
31.416681493455233
21
49.377168137840201
31
0
0
LINE
5
180
100
AcDbEntity
8
0
100
AcDbLine
10
31.416681493455233
20
49.377168137840201
30
0
11
31.647645548713253
21
49.377168137840201
31
9.2514898344289256e-46
0
LINE
5
181
100
AcDbEntity
8
0
100
AcDbLine
10
31.647645548713253
20
49.377168137840201
30
9.2514898344289256e-46
11
31.647645548713253
21
52.377168137840194
31
0
0
LINE
5
182
100
AcDbEntity
8
0
100
AcDbLine
10
31.647645548713253
20
52.377168137840194
30
0
11
31.824268030893968
21
52.377168137840201
31
-2.2793758006350149e-30
0
LINE
5
183
100
AcDbEntity
8
0
100
AcDbLine
10
31.824268030893968
20
52.377168137840201
30
-2.2793758006350149e-30
11
31.824268030893968
21
55.377168137840194
31
0
0
LINE
5
184
100
AcDbEntity
8
0
100
AcDbLine
10
31.824268030893968
20
55.377168137840194
30
0
11
31.954304752663592
21
55.377168137840194
31
1.2942249226281566e-30
0
LINE
5
185
100
AcDbEntity
8
0
100
AcDbLine
10
31.954304752663592
20
55.377168137840194
30
1.2942249226281566e-30
11
31.954304752663592
21
58.377168137840194
31
0
0
LINE
5
186
100
AcDbEntity
8
0
100
AcDbLine
10
31.954304752663592
20
58.377168137840194
30
0
11
32.045612075237003
21
58.377168137840194
31
3.6574035975127205e-46
0
LINE
5
187
100
AcDbEntity
8
0
100
AcDbLine
10
32.045612075237003
20
58.377168137840194
30
3.6574035975127205e-46
11
32.045612075237003
21
61.377168137840187
31
0
0
LINE
5
188
100
AcDbEntity
8
0
100
AcDbLine
10
32.045612075237003
20
61.377168137840187
30
0
11
32.107546345732622
21
61.377168137840187
31
2.4808374327032773e-46
0
LINE
5
189
100
AcDbEntity
8
0
100
AcDbLine
10
32.107546345732622
20
61.377168137840187
30
2.4808374327032773e-46
11
32.107546345732622
21
64.377168137840187
31
0
0
LINE
5
190
100
AcDbEntity
8
0
100
AcDbLine
10
32.107546345732622
20
64.377168137840187
30
0
11
32.147343545867734
21
64.377168137840187
31
-3.5527136788005009e-14
0
SPLINE
5
191
100
AcDbEntity
8
0
100
AcDbSpline
70
0
71
3
72
8
73
4
74
0
42
0.000000001
43
0.0000000001
44
0.0000000001
40
0.91094057029338305
40
0.91094057029338305
40
0.91094057029338305
40
0.91094057029338305
40
1
40
1
40
1
40
1
10
32.147343545867734
20
64.377168137840187
30
-3.5527136788005009e-14
10
32.178383735963614
20
67.417990036874571
30
0
10
32.185555876459155
20
70.621419591157846
30
0
10
32.185555876459155
20
74.051994058033358
30
0
0
LINE
5
192
100
AcDbEntity
8
0
100
AcDbLine
10
32.185555876459148
20
74.051994058033358
30
-1.220905072370055e-30
11
28.685555876459151
21
74.051994058033358
31
-1.4019590357611215e-44
0
SPLINE
5
193
100
AcDbEntity
8
0
100
AcDbSpline
70
0
71
3
72
11
73
7
74
0
42
0.000000001
43
0.0000000001
44
0.0000000001
40
-1
40
-1
40
-1
40
-1
40
-0.96014339841444052
40
-0.96014339841444052
40
-0.96014339841444052
40
-0.91062597549323931
40
-0.91062597549323931
40
-0.91062597549323931
40
-0.91062597549323931
10
28.685555876459151
20
74.051994058033358
30
0
10
28.685555876459151
20
72.520193442650069
30
0
10
28.683351144333781
20
71.031485222017011
30
0
10
28.678458267506546
20
69.584380147106899
30
0
10
28.672379408760015
20
67.786512010960962
30
0
10
28.662960625574378
20
66.055034822376996
30
0
10
28.646468586995944
20
64.377168137840201
30
-3.5527136788005009e-14
0
SPLINE
5
194
100
AcDbEntity
8
0
100
AcDbSpline
70
0
71
3
72
8
73
4
74
0
42
0.000000001
43
0.0000000001
44
0.0000000001
40
-0.91062597549322133
40
-0.91062597549322133
40
-0.91062597549322133
40
-0.91062597549322133
40
-0.88055864770634606
40
-0.88055864770634606
40
-0.88055864770634606
40
-0.88055864770634606
10
28.646468586995919
20
64.377168137838368
30
-3.5527136788005009e-14
10
28.636454505071654
20
63.358355675264839
30
-3.5527136788005009e-14
10
28.623832511131901
20
62.359309426392997
30
-3.5527136788005009e-14
10
28.607766796481332
20
61.377168137840179
30
-3.5527136788005009e-14
0
SPLINE
5
195
100
AcDbEntity
8
0
100
AcDbSpline
70
0
71
3
72
8
73
4
74
0
42
0.000000001
43
0.0000000001
44
0.0000000001
40
-0.88055864770624814
40
-0.88055864770624814
40
-0.88055864770624814
40
-0.88055864770624814
40
-0.84942202364336716
40
-0.84942202364336716
40
-0.84942202364336716
40
-0.84942202364336716
10
28.607766796481172
20
61.377168137830573
30
-3.5527136788005009e-14
10
28.591129730463113
20
60.360098569990626
30
-3.5527136788005009e-14
10
28.570799647466153
20
59.361157738691269
30
-3.5527136788005009e-14
10
28.545848357335061
20
58.377168137840172
30
-3.5527136788005009e-14
0
SPLINE
5
196
100
AcDbEntity
8
0
100
AcDbSpline
70
0
71
3
72
8
73
4
74
0
42
0.000000001
43
0.0000000001
44
0.0000000001
40
-0.84942202364336716
40
-0.84942202364336716
40
-0.84942202364336716
40
-0.84942202364336716
40
-0.81731239940878164
40
-0.81731239940878164
40
-0.81731239940878164
40
-0.81731239940878164
10
28.545848357335061
20
58.377168137840172
30
-3.5527136788005009e-14
10
28.520117354877641
20
57.362429472843587
30
0
10
28.489471812859808
20
56.363591071865088
30
0
10
28.452893777504503
20
55.377168137840187
30
0
0
SPLINE
5
197
100
AcDbEntity
8
0
100
AcDbSpline
70
0
71
3
72
8
73
4
74
0
42
0.000000001
43
0.0000000001
44
0.0000000001
40
-0.81731239940867717
40
-0.81731239940867717
40
-0.81731239940867717
40
-0.81731239940867717
40
-0.78437641477344733
40
-0.78437641477344733
40
-0.78437641477344733
40
-0.78437641477344733
10
28.452893777504151
20
55.37716813783058
30
0
10
28.415374384513157
20
54.365359019121357
30
0
10
28.371613216435048
20
53.366612629338647
30
0
10
28.320511686555506
20
52.377168137840179
30
0
0
SPLINE
5
198
100
AcDbEntity
8
0
100
AcDbSpline
70
0
71
3
72
11
73
7
74
0
42
0.000000001
43
0.0000000001
44
0.0000000001
40
-0.78437641477337261
40
-0.78437641477337261
40
-0.78437641477337261
40
-0.78437641477337261
40
-0.76624266200637214
40
-0.76624266200637214
40
-0.76624266200637214
40
-0.75082437963790227
40
-0.75082437963790227
40
-0.75082437963790227
40
-0.75082437963790227
10
28.320511686555157
20
52.377168137833443
30
0
10
28.292376426015217
20
51.832404045178663
30
0
10
28.262016055173657
20
51.290459670441976
30
0
10
28.229247222111617
20
50.750707338533388
30
0
10
28.201385415042353
20
50.291781159857855
30
0
10
28.171657230655363
20
49.833894079998444
30
0
10
28.140019872845127
20
49.377168137840208
30
0
0
SPLINE
5
199
100
AcDbEntity
8
0
100
AcDbSpline
70
0
71
3
72
8
73
4
74
0
42
0.000000001
43
0.0000000001
44
0.0000000001
40
-0.75082437963790172
40
-0.75082437963790172
40
-0.75082437963790172
40
-0.75082437963790172
40
-0.71686122215706294
40
-0.71686122215706294
40
-0.71686122215706294
40
-0.71686122215706294
10
28.140019872845123
20
49.377168137840144
30
0
10
28.070329583102875
20
48.371099191351917
30
0
10
27.991375486162113
20
47.370664387715074
30
0
10
27.902700156449537
20
46.377168137840172
30
0
0
SPLINE
5
200
100
AcDbEntity
8
0
100
AcDbSpline
70
0
71
3
72
8
73
4
74
0
42
0.000000001
43
0.0000000001
44
0.0000000001
40
-0.71686122215669368
40
-0.71686122215669368
40
-0.71686122215669368
40
-0.71686122215669368
40
-0.68241624961433556
40
-0.68241624961433556
40
-0.68241624961433556
40
-0.68241624961433556
10
27.902700156446652
20
46.377168137807772
30
0
10
27.812766842712069
20
45.369577749099712
30
0
10
27.712834521103915
20
44.369124176814587
30
0
10
27.602426020895177
20
43.377168137840208
30
0
0
SPLINE
5
201
100
AcDbEntity
8
0
100
AcDbSpline
70
0
71
3
72
8
73
4
74
0
42
0.000000001
43
0.0000000001
44
0.0000000001
40
-0.68241624961391101
40
-0.68241624961391101
40
-0.68241624961391101
40
-0.68241624961391101
40
-0.64736990275131534
40
-0.64736990275131534
40
-0.64736990275131534
40
-0.64736990275131534
10
27.602426020891087
20
43.37716813780353
30
0
10
27.49008990013661
20
42.367893551459076
30
0
10
27.36690860054501
20
41.367415805254815
30
0
10
27.232379519749514
20
40.377168137840222
30
0
0
SPLINE
5
202
100
AcDbEntity
8
0
100
AcDbSpline
70
0
71
3
72
11
73
7
74
0
42
0.000000001
43
0.0000000001
44
0.0000000001
40
-0.64736990275130568
40
-0.64736990275130568
40
-0.64736990275130568
40
-0.64736990275130568
40
-0.63122251537626994
40
-0.63122251537626994
40
-0.63122251537626994
40
-0.6115301401737363
40
-0.6115301401737363
40
-0.6115301401737363
40
-0.6115301401737363
10
27.232379519749404
20
40.377168137839384
30
0
10
27.170396078527148
20
39.920917654852971
30
0
10
27.106003675179764
20
39.466838862693024
30
0
10
27.039153150705332
20
39.015071944904605
30
0
10
26.957626301818802
20
38.464124386481885
30
-3.5527136788005009e-14
10
26.872666696721481
20
37.917676137115201
30
-3.5527136788005009e-14
10
26.78433868786048
20
37.377168137840194
30
-3.5527136788005009e-14
0
SPLINE
5
203
100
AcDbEntity
8
0
100
AcDbSpline
70
0
71
3
72
8
73
4
74
0
42
0.000000001
43
0.0000000001
44
0.0000000001
40
-0.61153014017373586
40
-0.61153014017373586
40
-0.61153014017373586
40
-0.61153014017373586
40
-0.57420013054229346
40
-0.57420013054229346
40
-0.57420013054229346
40
-0.57420013054229346
10
26.784338687860483
20
37.377168137840165
30
-3.5527136788005009e-14
10
26.616898986575336
20
36.352549796411679
30
-3.5527136788005009e-14
10
26.437354860839388
20
35.349277859244204
30
-3.5527136788005009e-14
10
26.246144684933785
20
34.377168137840222
30
-3.5527136788005009e-14
0
SPLINE
5
204
100
AcDbEntity
8
0
100
AcDbSpline
70
0
71
3
72
8
73
4
74
0
42
0.000000001
43
0.0000000001
44
0.0000000001
40
-0.57420013054229335
40
-0.57420013054229335
40
-0.57420013054229335
40
-0.57420013054229335
40
-0.53427670444685404
40
-0.53427670444685404
40
-0.53427670444685404
40
-0.53427670444685404
10
26.246144684933785
20
34.377168137840215
30
-3.5527136788005009e-14
10
26.041650622332916
20
33.337523331897231
30
-3.5527136788005009e-14
10
25.823813259941044
20
32.333520991144901
30
-3.5527136788005009e-14
10
25.593168831542759
20
31.377168137840208
30
-3.5527136788005009e-14
0
SPLINE
5
205
100
AcDbEntity
8
0
100
AcDbSpline
70
0
71
3
72
8
73
4
74
0
42
0.000000001
43
0.0000000001
44
0.0000000001
40
-0.53427670444684172
40
-0.53427670444684172
40
-0.53427670444684172
40
-0.53427670444684172
40
-0.48983599531574545
40
-0.48983599531574545
40
-0.48983599531574545
40
-0.48983599531574545
10
25.593168831542556
20
31.377168137839327
30
-3.5527136788005009e-14
10
25.336427290106375
20
30.312605219847136
30
-3.5527136788005009e-14
10
25.063816513337983
20
29.307084781169721
30
-3.5527136788005009e-14
10
24.776076129846707
20
28.377168137840204
30
0
0
SPLINE
5
206
100
AcDbEntity
8
0
100
AcDbSpline
70
0
71
3
72
11
73
7
74
0
42
0.000000001
43
0.0000000001
44
0.0000000001
40
-0.4898359953157454
40
-0.4898359953157454
40
-0.4898359953157454
40
-0.4898359953157454
40
-0.45894216861042847
40
-0.45894216861042847
40
-0.45894216861042847
40
-0.43635540602093764
40
-0.43635540602093764
40
-0.43635540602093764
40
-0.43635540602093764
10
24.776076129846707
20
28.377168137840208
30
0
10
24.576047783821046
20
27.730718425603062
30
0
10
24.368707893913793
20
27.12080505415954
30
0
10
24.154304936944261
20
26.552991766014252
30
0
10
23.997552951062168
20
26.137858216621737
30
0
10
23.837675842354535
20
25.746447203078986
30
0
10
23.673953418740869
20
25.377168137840197
30
0
0
SPLINE
5
207
100
AcDbEntity
8
0
100
AcDbSpline
70
0
71
3
72
8
73
4
74
0
42
0.000000001
43
0.0000000001
44
0.0000000001
40
-0.43635540602093748
40
-0.43635540602093748
40
-0.43635540602093748
40
-0.43635540602093748
40
-0.43458119730450445
40
-0.43458119730450445
40
-0.43458119730450445
40
-0.43458119730450445
10
23.673953418740872
20
25.377168137840197
30
0
10
23.661092888157963
20
25.348160964556861
30
0
10
23.64820863109275
20
25.319290350513242
30
0
10
23.635300298484879
20
25.29055552478858
30
0
0
ARC
5
208
100
AcDbEntity
8
0
100
AcDbCircle
10
24.350963580741404
20
22.377168137840208
30
3.5527136788005009e-14
40
3.0000000000000044
210
-2.8250519247644486e-15
220
1.1500479134729209e-14
230
1
100
AcDbArc
50
103.80123719917538
51
180.30541912423953
0
ARC
5
209
100
AcDbEntity
8
0
100
AcDbCircle
10
21.660350769870508
20
19.377168137840208
30
3.5527136788005009e-14
40
3.0000000000000075
210
-3.5625658762113973e-31
220
1.2848819486365194e-30
230
1
100
AcDbArc
50
95.918566165078332
51
170.9171963826839
0
SPLINE
5
210
100
AcDbEntity
8
0
100
AcDbSpline
70
0
71
3
72
11
73
7
74
0
42
0.000000001
43
0.0000000001
44
0.0000000001
40
-0.2640646579919439
40
-0.2640646579919439
40
-0.2640646579919439
40
-0.2640646579919439
40
-0.25
40
-0.25
40
-0.25
40
-0.24191808035177251
40
-0.24191808035177251
40
-0.24191808035177251
40
-0.24191808035177251
10
18.697967077437905
20
19.850753250369454
30
0
10
18.502452656188495
20
19.748337772553061
30
0
10
18.299390023864529
20
19.647497955159455
30
0
10
18.088121727772059
20
19.547720350816139
30
0
10
17.966721449555891
20
19.490385534608219
30
0
10
17.842739356630691
20
19.433525046431978
30
0
10
17.716195353117307
20
19.377168137840208
30
0
0
SPLINE
5
211
100
AcDbEntity
8
0
100
AcDbSpline
70
0
71
3
72
8
73
4
74
0
42
0.000000001
43
0.0000000001
44
0.0000000001
40
-0.24191808035177181
40
-0.24191808035177181
40
-0.24191808035177181
40
-0.24191808035177181
40
-0.22277530594240846
40
-0.22277530594240846
40
-0.22277530594240846
40
-0.22277530594240846
10
17.716195353117275
20
19.377168137840194
30
0
10
17.416464173205625
20
19.243681585815644
30
0
10
17.102360084332815
20
19.113020231343143
30
0
10
16.774147579423609
20
18.985572779294952
30
0
0
ARC
5
212
100
AcDbEntity
8
0
100
AcDbCircle
10
15.292180904211989
20
16.377168137840208
30
0
40
3.0000000000000742
210
-3.4294474110677159e-31
220
1.9484426215246368e-31
230
1
100
AcDbArc
50
60.396901207704794
51
153.09908103179458
0
SPLINE
5
213
100
AcDbEntity
8
0
100
AcDbSpline
70
0
71
3
72
8
73
4
74
0
42
0.000000001
43
0.0000000001
44
0.0000000001
40
-0.15271931792218851
40
-0.15271931792218851
40
-0.15271931792218851
40
-0.15271931792218851
40
-0.023177060151427484
40
-0.023177060151427484
40
-0.023177060151427484
40
-0.023177060151427484
10
12.616810085569751
20
17.734515176278634
30
0
10
9.7209109668807496
20
17.066474925911077
30
0
10
6.2232511531034893
20
16.610757541543684
30
3.5527136788005009e-14
10
2.2057966554341175
20
16.48782215432858
30
0
0
ARC
5
214
100
AcDbEntity
8
0
100
AcDbCircle
10
-4.9150412319777745e-13
20
14.454484721588779
30
0
40
3.0000000000845652
210
6.0995461155762042e-31
220
5.6226558367966724e-31
230
1
100
AcDbArc
50
42.670340352153438
51
137.3296596474263
0
SPLINE
5
215
100
AcDbEntity
8
0
100
AcDbSpline
70
0
71
3
72
8
73
4
74
0
42
0.000000001
43
0.0000000001
44
0.0000000001
40
0.023177060151066655
40
0.023177060151066655
40
0.023177060151066655
40
0.023177060151066655
40
0.15271931792218749
40
0.15271931792218749
40
0.15271931792218749
40
0.15271931792218749
10
-2.2057966554015183
20
16.487822154327553
30
0
10
-6.2232511530849388
20
16.610757541541158
30
0
10
-9.7209109668736673
20
17.066474925909251
30
3.5527136788005009e-14
10
-12.616810085570751
20
17.734515176278673
30
3.5527136788005009e-14
0
ARC
5
216
100
AcDbEntity
8
0
100
AcDbCircle
10
-15.292180904212973
20
16.377168137840208
30
2.5508323669776108e-44
40
3.0000000000000031
210
-1.056091833694877e-14
220
-5.3580726559329639e-15
230
1
100
AcDbArc
50
26.900918968206163
51
119.60309879229413
0
SPLINE
5
217
100
AcDbEntity
8
0
100
AcDbSpline
70
0
71
3
72
8
73
4
74
0
42
0.000000001
43
0.0000000001
44
0.0000000001
40
0.22277530594240705
40
0.22277530594240705
40
0.22277530594240705
40
0.22277530594240705
40
0.24191808035177112
40
0.24191808035177112
40
0.24191808035177112
40
0.24191808035177112
10
-16.774147579424582
20
18.985572779294959
30
0
10
-17.102360084333796
20
19.113020231343146
30
0
10
-17.416464173206602
20
19.243681585815647
30
0
10
-17.716195353118252
20
19.377168137840201
30
0
0
SPLINE
5
218
100
AcDbEntity
8
0
100
AcDbSpline
70
0
71
3
72
11
73
7
74
0
42
0.000000001
43
0.0000000001
44
0.0000000001
40
0.24191808035177181
40
0.24191808035177181
40
0.24191808035177181
40
0.24191808035177181
40
0.25
40
0.25
40
0.25
40
0.26406465799194445
40
0.26406465799194445
40
0.26406465799194445
40
0.26406465799194445
10
-17.716195353118284
20
19.377168137840211
30
0
10
-17.842739356631668
20
19.433525046431981
30
0
10
-17.966721449556875
20
19.490385534608226
30
0
10
-18.088121727773046
20
19.547720350816146
30
0
10
-18.299390023865513
20
19.647497955159462
30
0
10
-18.502452656189476
20
19.748337772553064
30
0
10
-18.697967077438879
20
19.850753250369451
30
0
0
ARC
5
219
100
AcDbEntity
8
0
100
AcDbCircle
10
-21.660350769871496
20
19.377168137840208
30
1.0777511262671638e-44
40
3.0000000000000075
210
3.1132731714087915e-32
220
-1.9474239010202812e-31
230
1
100
AcDbArc
50
9.0828036173160438
51
84.081433834921739
0
ENDSEC
0
SECTION
2
OBJECTS
0
DICTIONARY
5
C
100
AcDbDictionary
3
ACAD_GROUP
350
D
3
ACAD_MLINESTYLE
350
17
0
DICTIONARY
5
D
100
AcDbDictionary
0
DICTIONARY
5
1A
330
C
100
AcDbDictionary
0
DICTIONARY
5
17
100
AcDbDictionary
0
ENDSEC
0
EOF
