0
SECTION
2
HEADER
9
$INSUNITS
70
4
9
$ACADVER
1
AC1014
9
$HANDSEED
5
FFFF
0
ENDSEC
0
SECTION
2
TABLES
0
TABLE
2
VPORT
5
8
100
AcDbSymbolTable
0
ENDTAB
0
TABLE
2
LTYPE
5
5
100
AcDbSymbolTable
0
LTYPE
5
14
100
AcDbSymbolTableRecord
100
AcDbLinetypeTableRecord
2
BYBLOCK
70
0
0
LTYPE
5
15
100
AcDbSymbolTableRecord
100
AcDbLinetypeTableRecord
2
BYLAYER
70
0
0
ENDTAB
0
TABLE
2
LAYER
5
2
100
AcDbSymbolTable
70
2
0
LAYER
5
50
100
AcDbSymbolTableRecord
100
AcDbLayerTableRecord
2
0
70
0
6
CONTINUOUS
0
ENDTAB
0
TABLE
2
STYLE
5
3
100
AcDbSymbolTable
70
1
0
STYLE
5
11
100
AcDbSymbolTableRecord
100
AcDbTextStyleTableRecord
2
STANDARD
70
0
0
ENDTAB
0
TABLE
2
VIEW
5
6
100
AcDbSymbolTable
70
0
0
ENDTAB
0
TABLE
2
UCS
5
7
100
AcDbSymbolTable
70
0
0
ENDTAB
0
TABLE
2
APPID
5
9
100
AcDbSymbolTable
70
2
0
APPID
5
12
100
AcDbSymbolTableRecord
100
AcDbRegAppTableRecord
2
ACAD
70
0
0
ENDTAB
0
TABLE
2
DIMSTYLE
5
A
100
AcDbSymbolTable
70
1
0
ENDTAB
0
TABLE
2
BLOCK_RECORD
5
1
100
AcDbSymbolTable
70
1
0
BLOCK_RECORD
5
1F
100
AcDbSymbolTableRecord
100
AcDbBlockTableRecord
2
*MODEL_SPACE
0
BLOCK_RECORD
5
1B
100
AcDbSymbolTableRecord
100
AcDbBlockTableRecord
2
*PAPER_SPACE
0
ENDTAB
0
ENDSEC
0
SECTION
2
BLOCKS
0
BLOCK
5
20
100
AcDbEntity
100
AcDbBlockBegin
2
*MODEL_SPACE
0
ENDBLK
5
21
100
AcDbEntity
100
AcDbBlockEnd
0
BLOCK
5
1C
100
AcDbEntity
100
AcDbBlockBegin
2
*PAPER_SPACE
0
ENDBLK
5
1D
100
AcDbEntity
100
AcDbBlockEnd
0
ENDSEC
0
SECTION
2
ENTITIES
0
ARC
5
100
100
AcDbEntity
8
0
100
AcDbCircle
10
9.7754807768145707e-14
20
24.722611452968589
30
0
40
3.0000000000017852
210
5.7458980656907731e-32
220
1.1967555839852714e-31
230
1
100
AcDbArc
50
42.551860154521023
51
137.44813984544561
0
SPLINE
5
101
100
AcDbEntity
8
0
100
AcDbSpline
70
0
71
3
72
8
73
4
74
0
42
0.000000001
43
0.0000000001
44
0.0000000001
40
0.024577060265674425
40
0.024577060265674425
40
0.024577060265674425
40
0.024577060265674425
40
0.095142542277018502
40
0.095142542277018502
40
0.095142542277018502
40
0.095142542277018502
10
-2.2099966128471724
20
26.751383241813826
30
0
10
-4.2554981189526648
20
26.805337496255397
30
0
10
-6.1037491706978697
20
26.93193049675028
30
0
10
-7.7771949029162961
20
27.103496626736291
30
0
0
ARC
5
102
100
AcDbEntity
8
0
100
AcDbCircle
10
-10.230720926504606
20
25.377168137839973
30
0
40
3.0000000000000182
210
-8.5114565903722563e-32
220
1.2096817249694836e-31
230
1
100
AcDbArc
50
35.130649725256767
51
129.34062223422558
0
SPLINE
5
103
100
AcDbEntity
8
0
100
AcDbSpline
70
0
71
3
72
11
73
7
74
0
42
0.000000001
43
0.0000000001
44
0.0000000001
40
0.16287214450736895
40
0.16287214450736895
40
0.16287214450736895
40
0.16287214450736895
40
0.18612453788492275
40
0.18612453788492275
40
0.18612453788492275
40
0.22974447318425059
40
0.22974447318425059
40
0.22974447318425059
40
0.22974447318425059
10
-12.132509005620509
20
27.697340998239113
30
0
10
-12.580175911156068
20
27.773923932104971
30
0
10
-13.011201573159937
20
27.852506841487944
30
0
10
-13.426389052134734
20
27.932099883194553
30
0
10
-14.205253002864826
20
28.081411107770275
30
0
10
-14.932202020418286
20
28.230496804568965
30
0
10
-15.609526649367842
20
28.377168137839952
30
0
0
SPLINE
5
104
100
AcDbEntity
8
0
100
AcDbSpline
70
0
71
3
72
11
73
7
74
0
42
0.000000001
43
0.0000000001
44
0.0000000001
40
0.22974447318425065
40
0.22974447318425065
40
0.22974447318425065
40
0.22974447318425065
40
0.32331094039772168
40
0.32331094039772168
40
0.32331094039772168
40
0.34331506856589022
40
0.34331506856589022
40
0.34331506856589022
40
0.34331506856589022
10
-15.609526649367842
20
28.377168137839949
30
0
10
-17.062414468952973
20
28.691783884091812
30
0
10
-18.286970909710476
20
28.995290678298524
30
0
10
-19.305803047549212
20
29.266085284026083
30
0
10
-19.52362519338995
20
29.32398006365759
30
0
10
-19.730074670164854
20
29.380852238996585
30
0
10
-19.925542075969517
20
29.437280693267368
30
0
0
ARC
5
105
100
AcDbEntity
8
0
100
AcDbCircle
10
-22.731992034516377
20
28.377168137839973
30
0
40
3.0000000000004121
210
1.7422528127305181e-32
220
-4.6122888640767661e-32
230
1
100
AcDbArc
50
20.693630644196784
51
83.988904437269312
0
ARC
5
106
100
AcDbEntity
8
0
100
AcDbCircle
10
-25.417783522974027
20
31.377168137839973
30
0
40
3.0000000004906697
210
-8.2817878608491763e-32
220
4.5536986191255899e-34
230
1
100
AcDbArc
50
-0.31503473301499529
51
70.151889379574271
0
SPLINE
5
107
100
AcDbEntity
8
0
100
AcDbSpline
70
0
71
3
72
8
73
4
74
0
42
0.000000001
43
0.0000000001
44
0.0000000001
40
0.60044605586545319
40
0.60044605586545319
40
0.60044605586545319
40
0.60044605586545319
40
0.60427703008876843
40
0.60427703008876843
40
0.60427703008876843
40
0.60427703008876843
10
-24.399199979666186
20
34.198956146930385
30
0
10
-24.418838058428296
20
34.257600055761003
30
0
10
-24.438463122411875
20
34.317002783329983
30
0
10
-24.458071924486859
20
34.377168137839448
30
0
0
SPLINE
5
108
100
AcDbEntity
8
0
100
AcDbSpline
70
0
71
3
72
8
73
4
74
0
42
0.000000001
43
0.0000000001
44
0.0000000001
40
0.60427703008877964
40
0.60427703008877964
40
0.60427703008877964
40
0.60427703008877964
40
0.65813066962317146
40
0.65813066962317146
40
0.65813066962317146
40
0.65813066962317146
10
-24.458071924487026
20
34.377168137839959
30
0
10
-24.733721223357293
20
35.222938201885661
30
0
10
-25.006156986191129
20
36.219411926552631
30
0
10
-25.266358992093174
20
37.377168137839966
30
0
0
SPLINE
5
109
100
AcDbEntity
8
0
100
AcDbSpline
70
0
71
3
72
11
73
7
74
0
42
0.000000001
43
0.0000000001
44
0.0000000001
40
0.65813066962317157
40
0.65813066962317157
40
0.65813066962317157
40
0.65813066962317157
40
0.66015972649431864
40
0.66015972649431864
40
0.66015972649431864
40
0.70014212605160353
40
0.70014212605160353
40
0.70014212605160353
40
0.70014212605160353
10
-25.266358992093174
20
37.377168137839966
30
0
10
-25.276162687303497
20
37.420789204418497
30
0
10
-25.285949015779167
20
37.464639223571858
30
0
10
-25.295717495067581
20
37.508718761115695
30
0
10
-25.488204579845824
20
38.377302440281753
30
0
10
-25.67491182006917
20
39.333541717686472
30
0
10
-25.854502878844805
20
40.37716813783998
30
0
0
SPLINE
5
110
100
AcDbEntity
8
0
100
AcDbSpline
70
0
71
3
72
8
73
4
74
0
42
0.000000001
43
0.0000000001
44
0.0000000001
40
0.70014212605160353
40
0.70014212605160353
40
0.70014212605160353
40
0.70014212605160353
40
0.73579368913029375
40
0.73579368913029375
40
0.73579368913029375
40
0.73579368913029375
10
-25.854502878844805
20
40.37716813783998
30
0
10
-26.014640890349959
20
41.307750433066708
30
0
10
-26.169120856111263
20
42.307813875553308
30
0
10
-26.316995350518688
20
43.37716813783998
30
0
0
SPLINE
5
111
100
AcDbEntity
8
0
100
AcDbSpline
70
0
71
3
72
8
73
4
74
0
42
0.000000001
43
0.0000000001
44
0.0000000001
40
0.73579368913029375
40
0.73579368913029375
40
0.73579368913029375
40
0.73579368913029375
40
0.76732722919701157
40
0.76732722919701157
40
0.76732722919701157
40
0.76732722919701157
10
-26.316995350518688
20
43.37716813783998
30
0
10
-26.447789231391461
20
44.323003959986231
30
0
10
-26.573415473820976
20
45.323047859797249
30
0
10
-26.693218494962572
20
46.377168137838069
30
0
0
SPLINE
5
112
100
AcDbEntity
8
0
100
AcDbSpline
70
0
71
3
72
8
73
4
74
0
42
0.000000001
43
0.0000000001
44
0.0000000001
40
0.76732722919703034
40
0.76732722919703034
40
0.76732722919703034
40
0.76732722919703034
40
0.79591336384377998
40
0.79591336384377998
40
0.79591336384377998
40
0.79591336384377998
10
-26.693218494962796
20
46.377168137839959
30
0
10
-26.801823659057757
20
47.332760949119354
30
0
10
-26.90564330788456
20
48.332793653864954
30
0
10
-27.004189041394447
20
49.377168137839973
30
0
0
SPLINE
5
113
100
AcDbEntity
8
0
100
AcDbSpline
70
0
71
3
72
8
73
4
74
0
42
0.000000001
43
0.0000000001
44
0.0000000001
40
0.79591336384378009
40
0.79591336384378009
40
0.79591336384378009
40
0.79591336384378009
40
0.82225500810899665
40
0.82225500810899665
40
0.82225500810899665
40
0.82225500810899665
10
-27.004189041394451
20
49.377168137839988
30
0
10
-27.09499728420343
20
50.339541731769273
30
0
10
-27.181327280019147
20
51.33956732190579
30
0
10
-27.262796875171293
20
52.377168137750012
30
0
0
SPLINE
5
114
100
AcDbEntity
8
0
100
AcDbSpline
70
0
71
3
72
8
73
4
74
0
42
0.000000001
43
0.0000000001
44
0.0000000001
40
0.82225500810975793
40
0.82225500810975793
40
0.82225500810975793
40
0.82225500810975793
40
0.84681345951876419
40
0.84681345951876419
40
0.84681345951876419
40
0.84681345951876419
10
-27.262796875178353
20
52.377168137839966
30
0
10
-27.338751400784432
20
53.344528753652291
30
0
10
-27.41048130040237
20
54.34454949072267
30
0
10
-27.47767689462475
20
55.377168137839618
30
0
0
SPLINE
5
115
100
AcDbEntity
8
0
100
AcDbSpline
70
0
71
3
72
8
73
4
74
0
42
0.000000001
43
0.0000000001
44
0.0000000001
40
0.84681345951876685
40
0.84681345951876685
40
0.84681345951876685
40
0.84681345951876685
40
0.86991080094134843
40
0.86991080094134843
40
0.86991080094134843
40
0.86991080094134843
10
-27.477676894624771
20
55.377168137839952
30
0
10
-27.54087467350746
20
56.348350931680066
30
0
10
-27.600061635825384
20
57.348368183322677
30
0
10
-27.65498015220593
20
58.377168137839959
30
3.5527136788005009e-14
0
SPLINE
5
116
100
AcDbEntity
8
0
100
AcDbSpline
70
0
71
3
72
8
73
4
74
0
42
0.000000001
43
0.0000000001
44
0.0000000001
40
0.86991080094134843
40
0.86991080094134843
40
0.86991080094134843
40
0.86991080094134843
40
0.8917824589099681
40
0.8917824589099681
40
0.8917824589099681
40
0.8917824589099681
10
-27.65498015220593
20
58.377168137839959
30
3.5527136788005009e-14
10
-27.706984362753072
20
59.351373796909208
30
3.5527136788005009e-14
10
-27.755161126098695
20
60.351388445288869
30
3.5527136788005009e-14
10
-27.799291688994387
20
61.377168137839966
30
3.5527136788005009e-14
0
SPLINE
5
117
100
AcDbEntity
8
0
100
AcDbSpline
70
0
71
3
72
8
73
4
74
0
42
0.000000001
43
0.0000000001
44
0.0000000001
40
0.89178245891005614
40
0.89178245891005614
40
0.89178245891005614
40
0.89178245891005614
40
0.91260670720741133
40
0.91260670720741133
40
0.91260670720741133
40
0.91260670720741133
10
-27.799291688994924
20
61.377168137852365
30
3.5527136788005009e-14
10
-27.841308887716664
20
62.353824367879412
30
3.5527136788005009e-14
10
-27.879658142835861
20
63.353837010943181
30
3.5527136788005009e-14
10
-27.914150647655859
20
64.377168137839945
30
3.5527136788005009e-14
0
SPLINE
5
118
100
AcDbEntity
8
0
100
AcDbSpline
70
0
71
3
72
11
73
7
74
0
42
0.000000001
43
0.0000000001
44
0.0000000001
40
0.91260670720741144
40
0.91260670720741144
40
0.91260670720741144
40
0.91260670720741144
40
0.95571378861588219
40
0.95571378861588219
40
0.95571378861588219
40
0.98848074372539985
40
0.98848074372539985
40
0.98848074372539985
40
0.98848074372539985
10
-27.914150647655859
20
64.377168137839945
30
3.5527136788005009e-14
10
-27.985551602543968
20
66.495507180145921
30
3.5527136788005009e-14
10
-28.040426087630795
20
68.713767707894661
30
3.5527136788005009e-14
10
-28.077099332608423
20
71.031613278018696
30
3.5527136788005009e-14
10
-28.104975740211056
20
72.793475581508446
30
3.5527136788005009e-14
10
-28.122683048934533
20
74.612581276771579
30
3.5527136788005009e-14
10
-28.129990749403184
20
76.488849521552126
30
3.5527136788005009e-14
0
LINE
5
119
100
AcDbEntity
8
0
100
AcDbLine
10
-28.129990749403184
20
76.488849521552126
30
3.5527136788005009e-14
11
-28.13778036103146
21
78.488849521552126
31
3.5527136788005009e-14
0
LINE
5
120
100
AcDbEntity
8
0
100
AcDbLine
10
-28.13778036103146
20
78.488849521552126
30
3.5527136788005009e-14
11
-31.633845632681581
21
78.488849521552126
31
3.5527136788005009e-14
0
SPLINE
5
121
100
AcDbEntity
8
0
100
AcDbSpline
70
0
71
3
72
8
73
4
74
0
42
0.000000001
43
0.0000000001
44
0.0000000001
40
-1
40
-1
40
-1
40
-1
40
-0.91340058680388569
40
-0.91340058680388569
40
-0.91340058680388569
40
-0.91340058680388569
10
-31.633845632681577
20
78.488849521552126
30
3.5527136788005009e-14
10
-31.63384563268157
20
73.390406912246817
30
3.5527136788005009e-14
10
-31.559041527104817
20
68.685496323948442
30
3.5527136788005009e-14
10
-31.416853158451623
20
64.377168137840741
30
3.5527136788005009e-14
0
SPLINE
5
122
100
AcDbEntity
8
0
100
AcDbSpline
70
0
71
3
72
8
73
4
74
0
42
0.000000001
43
0.0000000001
44
0.0000000001
40
-0.91340058680388037
40
-0.91340058680388037
40
-0.91340058680388037
40
-0.91340058680388037
40
-0.89285097957761617
40
-0.89285097957761617
40
-0.89285097957761617
40
-0.89285097957761617
10
-31.416853158451605
20
64.377168137839945
30
3.5527136788005009e-14
10
-31.383112570379144
20
63.354823427190951
30
3.5527136788005009e-14
10
-31.345577647623347
20
62.354809840972685
30
3.5527136788005009e-14
10
-31.304347532809622
20
61.377168137839959
30
3.5527136788005009e-14
0
SPLINE
5
123
100
AcDbEntity
8
0
100
AcDbSpline
70
0
71
3
72
11
73
7
74
0
42
0.000000001
43
0.0000000001
44
0.0000000001
40
-0.89285097957761617
40
-0.89285097957761617
40
-0.89285097957761617
40
-0.89285097957761617
40
-0.87298270721259086
40
-0.87298270721259086
40
-0.87298270721259086
40
-0.87131453086046018
40
-0.87131453086046018
40
-0.87131453086046018
40
-0.87131453086046018
10
-31.304347532809622
20
61.377168137839959
30
3.5527136788005009e-14
10
-31.264484427800319
20
60.431940746416998
30
3.5527136788005009e-14
10
-31.221167101356588
20
59.507626324298798
30
3.5527136788005009e-14
10
-31.174485158047123
20
58.604261708937145
30
3.5527136788005009e-14
10
-31.170565657022088
20
58.528413569702316
30
3.5527136788005009e-14
10
-31.166623629449354
20
58.452715738673817
30
3.5527136788005009e-14
10
-31.162659142066534
20
58.377168137844194
30
3.5527136788005009e-14
0
SPLINE
5
124
100
AcDbEntity
8
0
100
AcDbSpline
70
0
71
3
72
8
73
4
74
0
42
0.000000001
43
0.0000000001
44
0.0000000001
40
-0.87131453086042887
40
-0.87131453086042887
40
-0.87131453086042887
40
-0.87131453086042887
40
-0.84862094223021145
40
-0.84862094223021145
40
-0.84862094223021145
40
-0.84862094223021145
10
-31.162659142066317
20
58.377168137839959
30
3.5527136788005009e-14
10
-31.108726926997797
20
57.34943136826103
30
0
10
-31.050638204941883
20
56.349496831615582
30
0
10
-30.988560993345896
20
55.377168137839973
30
0
0
SPLINE
5
125
100
AcDbEntity
8
0
100
AcDbSpline
70
0
71
3
72
8
73
4
74
0
42
0.000000001
43
0.0000000001
44
0.0000000001
40
-0.84862094223021134
40
-0.84862094223021134
40
-0.84862094223021134
40
-0.84862094223021134
40
-0.82455899633125063
40
-0.82455899633125063
40
-0.82455899633125063
40
-0.82455899633125063
10
-30.988560993345885
20
55.377168137839945
30
0
10
-30.922740706774174
20
54.346210857047275
30
0
10
-30.85243644096218
20
53.34628889052459
30
0
10
-30.777848475680788
20
52.37716813784013
30
0
0
LINE
5
126
100
AcDbEntity
8
0
100
AcDbLine
10
-30.777848475680788
20
52.37716813784013
30
0
11
-30.524449744667798
21
52.377168137839966
31
-9.1907608185578426e-48
0
LINE
5
127
100
AcDbEntity
8
0
100
AcDbLine
10
-30.524449744667798
20
52.377168137839966
30
-9.1907608185578426e-48
11
-30.524449744667798
21
49.377168137839966
31
0
0
LINE
5
128
100
AcDbEntity
8
0
100
AcDbLine
10
-30.524449744667798
20
49.377168137839966
30
0
11
-30.22011559542829
21
49.377168137839966
31
-1.1038186195322151e-47
0
LINE
5
129
100
AcDbEntity
8
0
100
AcDbLine
10
-30.22011559542829
20
49.377168137839966
30
-1.1038186195322151e-47
11
-30.22011559542829
21
46.377168137934852
31
0
0
LINE
5
130
100
AcDbEntity
8
0
100
AcDbLine
10
-30.22011559542829
20
46.377168137934852
30
0
11
-29.853094801669428
21
46.377168137839966
31
1.5045493817045517e-32
0
LINE
5
131
100
AcDbEntity
8
0
100
AcDbLine
10
-29.853094801669428
20
46.377168137839966
30
1.5045493817045517e-32
11
-29.853094801669428
21
43.377168137839973
31
0
0
LINE
5
132
100
AcDbEntity
8
0
100
AcDbLine
10
-29.853094801669428
20
43.377168137839973
30
0
11
-29.405530713596768
21
43.377168137839973
31
-1.6233129771439548e-47
0
LINE
5
133
100
AcDbEntity
8
0
100
AcDbLine
10
-29.405530713596768
20
43.377168137839973
30
-1.6233129771439548e-47
11
-29.405530713596768
21
40.377168137839959
31
0
0
LINE
5
134
100
AcDbEntity
8
0
100
AcDbLine
10
-29.405530713596768
20
40.377168137839959
30
0
11
-28.847629546823327
21
40.377168137839973
31
-7.8760334610737884e-33
0
LINE
5
135
100
AcDbEntity
8
0
100
AcDbLine
10
-28.847629546823327
20
40.377168137839973
30
-7.8760334610737884e-33
11
-28.847629546823327
21
37.377168137839973
31
0
0
LINE
5
136
100
AcDbEntity
8
0
100
AcDbLine
10
-28.847629546823327
20
37.377168137839973
30
0
11
-28.124281841908481
21
37.377168137839966
31
-2.6235789413580906e-47
0
LINE
5
137
100
AcDbEntity
8
0
100
AcDbLine
10
-28.124281841908481
20
37.377168137839966
30
-2.6235789413580906e-47
11
-28.124281841908481
21
34.377168137839973
31
0
0
LINE
5
138
100
AcDbEntity
8
0
100
AcDbLine
10
-28.124281841908481
20
34.377168137839973
30
0
11
-27.078020634831759
21
34.377168137839973
31
-3.7947847921485034e-47
0
LINE
5
139
100
AcDbEntity
8
0
100
AcDbLine
10
-27.078020634831759
20
34.377168137839973
30
-3.7947847921485034e-47
11
-27.078020634831759
21
31.377168137839973
31
0
0
LINE
5
140
100
AcDbEntity
8
0
100
AcDbLine
10
-27.078020634831759
20
31.377168137839973
30
0
11
-25.417783522974027
21
31.377168137839973
31
0
0
LINE
5
141
100
AcDbEntity
8
0
100
AcDbLine
10
-25.417783522974027
20
31.377168137839973
30
0
11
-25.417783522974027
21
28.377168137839973
31
0
0
LINE
5
142
100
AcDbEntity
8
0
100
AcDbLine
10
-25.417783522974027
20
28.377168137839973
30
0
11
-22.731992034516377
21
28.377168137839973
31
0
0
LINE
5
143
100
AcDbEntity
8
0
100
AcDbLine
10
-22.731992034516377
20
28.377168137839973
30
0
11
-22.731992034516377
21
25.377168137839973
31
0
0
LINE
5
144
100
AcDbEntity
8
0
100
AcDbLine
10
-22.731992034516377
20
25.377168137839973
30
0
11
-10.230720926504606
21
25.377168137839973
31
0
0
LINE
5
145
100
AcDbEntity
8
0
100
AcDbLine
10
-10.230720926504606
20
25.377168137839973
30
0
11
-10.251217496342955
21
22.377168137839973
31
0
0
LINE
5
146
100
AcDbEntity
8
0
100
AcDbLine
10
-10.251217496342955
20
22.377168137839973
30
0
11
-1.4499999999999025
21
22.377168137839973
31
9.8607613152626108e-31
0
LINE
5
147
100
AcDbEntity
8
0
100
AcDbLine
10
-1.4499999999999025
20
22.377168137839973
30
9.8607613152626108e-31
11
-1.4499999999999025
21
24.722611452968589
31
0
0
LINE
5
148
100
AcDbEntity
8
0
100
AcDbLine
10
-1.4499999999999025
20
24.722611452968589
30
0
11
1.4500000000000979
21
24.722611452968589
31
-1.0518287233432429e-46
0
LINE
5
149
100
AcDbEntity
8
0
100
AcDbLine
10
1.4500000000000979
20
24.722611452968589
30
-1.0518287233432429e-46
11
1.4500000000000979
21
22.377168137839973
31
0
0
LINE
5
150
100
AcDbEntity
8
0
100
AcDbLine
10
1.4500000000000979
20
22.377168137839973
30
0
11
10.25121749634315
21
22.377168137839977
31
2.3379927956443449e-30
0
LINE
5
151
100
AcDbEntity
8
0
100
AcDbLine
10
10.25121749634315
20
22.377168137839977
30
2.3379927956443449e-30
11
10.230720926504802
21
25.377168137839966
31
0
0
LINE
5
152
100
AcDbEntity
8
0
100
AcDbLine
10
10.230720926504802
20
25.377168137839966
30
0
11
22.731992034516573
21
25.377168137839966
31
-4.5342055274854431e-46
0
LINE
5
153
100
AcDbEntity
8
0
100
AcDbLine
10
22.731992034516573
20
25.377168137839966
30
-4.5342055274854431e-46
11
22.731992034516573
21
28.377168137839973
31
0
0
LINE
5
154
100
AcDbEntity
8
0
100
AcDbLine
10
22.731992034516573
20
28.377168137839973
30
0
11
25.417783522974222
21
28.377168137839973
31
-9.7413539050708862e-47
0
LINE
5
155
100
AcDbEntity
8
0
100
AcDbLine
10
25.417783522974222
20
28.377168137839973
30
-9.7413539050708862e-47
11
25.417783522974222
21
31.377168137839973
31
-3.5527136788005009e-14
0
LINE
5
156
100
AcDbEntity
8
0
100
AcDbLine
10
25.417783522974222
20
31.377168137839973
30
-3.5527136788005009e-14
11
27.078020634831958
21
31.377168137839973
31
-3.5527136788005009e-14
0
LINE
5
157
100
AcDbEntity
8
0
100
AcDbLine
10
27.078020634831958
20
31.377168137839973
30
-3.5527136788005009e-14
11
27.078020634831958
21
34.377168137839973
31
-3.5527136788005009e-14
0
LINE
5
158
100
AcDbEntity
8
0
100
AcDbLine
10
27.078020634831958
20
34.377168137839973
30
-3.5527136788005009e-14
11
28.124281841908676
21
34.377168137839973
31
-3.5527136788005009e-14
0
LINE
5
159
100
AcDbEntity
8
0
100
AcDbLine
10
28.124281841908676
20
34.377168137839973
30
-3.5527136788005009e-14
11
28.124281841908676
21
37.377168137839966
31
-3.5527136788005009e-14
0
LINE
5
160
100
AcDbEntity
8
0
100
AcDbLine
10
28.124281841908676
20
37.377168137839966
30
-3.5527136788005009e-14
11
28.847629546823519
21
37.377168137839966
31
-3.5527136788005009e-14
0
LINE
5
161
100
AcDbEntity
8
0
100
AcDbLine
10
28.847629546823519
20
37.377168137839966
30
-3.5527136788005009e-14
11
28.847629546823519
21
40.377168137839959
31
-3.5527136788005009e-14
0
LINE
5
162
100
AcDbEntity
8
0
100
AcDbLine
10
28.847629546823519
20
40.377168137839959
30
-3.5527136788005009e-14
11
29.405530713596963
21
40.377168137839959
31
-3.5527136788005009e-14
0
LINE
5
163
100
AcDbEntity
8
0
100
AcDbLine
10
29.405530713596963
20
40.377168137839959
30
-3.5527136788005009e-14
11
29.405530713596963
21
43.377168137839973
31
-3.5527136788005009e-14
0
LINE
5
164
100
AcDbEntity
8
0
100
AcDbLine
10
29.405530713596963
20
43.377168137839973
30
-3.5527136788005009e-14
11
29.85309480166962
21
43.377168137839973
31
-3.5527136788005009e-14
0
LINE
5
165
100
AcDbEntity
8
0
100
AcDbLine
10
29.85309480166962
20
43.377168137839973
30
-3.5527136788005009e-14
11
29.85309480166962
21
46.377168137839966
31
-3.5527136788005009e-14
0
LINE
5
166
100
AcDbEntity
8
0
100
AcDbLine
10
29.85309480166962
20
46.377168137839966
30
-3.5527136788005009e-14
11
30.220115595428485
21
46.377168137934852
31
-3.5527136788005009e-14
0
LINE
5
167
100
AcDbEntity
8
0
100
AcDbLine
10
30.220115595428485
20
46.377168137934852
30
-3.5527136788005009e-14
11
30.220115595428485
21
49.377168137839966
31
-3.5527136788005009e-14
0
LINE
5
168
100
AcDbEntity
8
0
100
AcDbLine
10
30.220115595428485
20
49.377168137839966
30
-3.5527136788005009e-14
11
30.52444974466799
21
49.377168137839966
31
-3.5527136788005009e-14
0
LINE
5
169
100
AcDbEntity
8
0
100
AcDbLine
10
30.52444974466799
20
49.377168137839966
30
-3.5527136788005009e-14
11
30.52444974466799
21
52.377168137839966
31
-3.5527136788005009e-14
0
LINE
5
170
100
AcDbEntity
8
0
100
AcDbLine
10
30.52444974466799
20
52.377168137839966
30
-3.5527136788005009e-14
11
30.988560993346503
21
52.377168137839966
31
-3.5527136788005009e-14
0
LINE
5
171
100
AcDbEntity
8
0
100
AcDbLine
10
30.988560993346503
20
52.377168137839966
30
-3.5527136788005009e-14
11
30.988560993346503
21
55.377168137839959
31
-3.5527136788005009e-14
0
LINE
5
172
100
AcDbEntity
8
0
100
AcDbLine
10
30.988560993346503
20
55.377168137839959
30
-3.5527136788005009e-14
11
31.162659142068435
21
55.377168137839959
31
-3.5527136788005009e-14
0
LINE
5
173
100
AcDbEntity
8
0
100
AcDbLine
10
31.162659142068435
20
55.377168137839959
30
-3.5527136788005009e-14
11
31.162659142068435
21
58.377168137876573
31
-3.5527136788005009e-14
0
LINE
5
174
100
AcDbEntity
8
0
100
AcDbLine
10
31.162659142068435
20
58.377168137876573
30
-3.5527136788005009e-14
11
31.304347532823726
21
58.377168137839959
31
1.534783955213083e-33
0
LINE
5
175
100
AcDbEntity
8
0
100
AcDbLine
10
31.304347532823726
20
58.377168137839959
30
1.534783955213083e-33
11
31.304347532823726
21
61.377168138169786
31
0
0
LINE
5
176
100
AcDbEntity
8
0
100
AcDbLine
10
31.304347532823726
20
61.377168138169786
30
0
11
31.416853158451797
21
61.377168137839959
31
-2.9224974528785814e-33
0
LINE
5
177
100
AcDbEntity
8
0
100
AcDbLine
10
31.416853158451797
20
61.377168137839959
30
-2.9224974528785814e-33
11
31.416853158451797
21
64.377168137839959
31
0
0
LINE
5
178
100
AcDbEntity
8
0
100
AcDbLine
10
31.416853158451797
20
64.377168137839959
30
0
11
31.503297777456226
21
64.377168137839959
31
1.72313683524845e-34
0
LINE
5
179
100
AcDbEntity
8
0
100
AcDbLine
10
31.503297777456226
20
64.377168137839959
30
1.72313683524845e-34
11
31.503297777456226
21
67.377168137839959
31
0
0
SPLINE
5
180
100
AcDbEntity
8
0
100
AcDbSpline
70
0
71
3
72
8
73
4
74
0
42
0.000000001
43
0.0000000001
44
0.0000000001
40
0.93308925232348583
40
0.93308925232348583
40
0.93308925232348583
40
0.93308925232348583
40
1
40
1
40
1
40
1
10
31.503297777456361
20
67.377168137844833
30
0
10
31.589188863287138
20
70.845192052257218
30
0
10
31.633845632681773
20
74.549554849868102
30
0
10
31.633845632681773
20
78.488849521552126
30
0
0
LINE
5
181
100
AcDbEntity
8
0
100
AcDbLine
10
31.633845632681773
20
78.488849521552126
30
0
11
28.133845632681769
21
78.488849521552126
31
1.2694484592073635e-46
0
SPLINE
5
182
100
AcDbEntity
8
0
100
AcDbSpline
70
0
71
3
72
11
73
7
74
0
42
0.000000001
43
0.0000000001
44
0.0000000001
40
-1
40
-1
40
-1
40
-1
40
-0.95571378861588219
40
-0.95571378861588219
40
-0.95571378861588219
40
-0.91260670720741144
40
-0.91260670720741144
40
-0.91260670720741144
40
-0.91260670720741144
10
28.133845632681769
20
78.488849521552126
30
0
10
28.133845632681769
20
75.898665226704708
30
0
10
28.114775719553752
20
73.412860059761698
30
0
10
28.077099332608618
20
71.031613278018696
30
0
10
28.040426087630991
20
68.713767707894661
30
0
10
27.985551602544163
20
66.495507180145921
30
0
10
27.914150647656054
20
64.377168137839945
30
0
0
SPLINE
5
183
100
AcDbEntity
8
0
100
AcDbSpline
70
0
71
3
72
8
73
4
74
0
42
0.000000001
43
0.0000000001
44
0.0000000001
40
-0.91260670720741133
40
-0.91260670720741133
40
-0.91260670720741133
40
-0.91260670720741133
40
-0.89178245891005614
40
-0.89178245891005614
40
-0.89178245891005614
40
-0.89178245891005614
10
27.914150647656054
20
64.377168137839945
30
0
10
27.879658142836057
20
63.353837010943181
30
0
10
27.841308887716856
20
62.353824367879412
30
0
10
27.799291688995119
20
61.377168137852365
30
0
0
SPLINE
5
184
100
AcDbEntity
8
0
100
AcDbSpline
70
0
71
3
72
8
73
4
74
0
42
0.000000001
43
0.0000000001
44
0.0000000001
40
-0.8917824589099681
40
-0.8917824589099681
40
-0.8917824589099681
40
-0.8917824589099681
40
-0.86991080094134843
40
-0.86991080094134843
40
-0.86991080094134843
40
-0.86991080094134843
10
27.799291688994579
20
61.377168137839966
30
0
10
27.755161126098891
20
60.351388445288869
30
0
10
27.706984362753268
20
59.351373796909208
30
0
10
27.654980152206122
20
58.377168137839959
30
0
0
SPLINE
5
185
100
AcDbEntity
8
0
100
AcDbSpline
70
0
71
3
72
8
73
4
74
0
42
0.000000001
43
0.0000000001
44
0.0000000001
40
-0.86991080094134843
40
-0.86991080094134843
40
-0.86991080094134843
40
-0.86991080094134843
40
-0.84681345951876685
40
-0.84681345951876685
40
-0.84681345951876685
40
-0.84681345951876685
10
27.654980152206122
20
58.377168137839959
30
0
10
27.600061635825579
20
57.348368183322677
30
-3.5527136788005009e-14
10
27.540874673507652
20
56.348350931680066
30
-3.5527136788005009e-14
10
27.477676894624963
20
55.377168137839952
30
-3.5527136788005009e-14
0
SPLINE
5
186
100
AcDbEntity
8
0
100
AcDbSpline
70
0
71
3
72
8
73
4
74
0
42
0.000000001
43
0.0000000001
44
0.0000000001
40
-0.84681345951876419
40
-0.84681345951876419
40
-0.84681345951876419
40
-0.84681345951876419
40
-0.82225500810975793
40
-0.82225500810975793
40
-0.82225500810975793
40
-0.82225500810975793
10
27.477676894624949
20
55.377168137839618
30
-3.5527136788005009e-14
10
27.410481300402566
20
54.34454949072267
30
-3.5527136788005009e-14
10
27.338751400784631
20
53.344528753652291
30
-3.5527136788005009e-14
10
27.262796875178552
20
52.377168137839966
30
-3.5527136788005009e-14
0
SPLINE
5
187
100
AcDbEntity
8
0
100
AcDbSpline
70
0
71
3
72
8
73
4
74
0
42
0.000000001
43
0.0000000001
44
0.0000000001
40
-0.82225500810899665
40
-0.82225500810899665
40
-0.82225500810899665
40
-0.82225500810899665
40
-0.79591336384378009
40
-0.79591336384378009
40
-0.79591336384378009
40
-0.79591336384378009
10
27.262796875171489
20
52.377168137750012
30
-3.5527136788005009e-14
10
27.181327280019339
20
51.33956732190579
30
-3.5527136788005009e-14
10
27.094997284203622
20
50.339541731769273
30
-3.5527136788005009e-14
10
27.004189041394646
20
49.377168137839988
30
-3.5527136788005009e-14
0
SPLINE
5
188
100
AcDbEntity
8
0
100
AcDbSpline
70
0
71
3
72
8
73
4
74
0
42
0.000000001
43
0.0000000001
44
0.0000000001
40
-0.79591336384377998
40
-0.79591336384377998
40
-0.79591336384377998
40
-0.79591336384377998
40
-0.76732722919703034
40
-0.76732722919703034
40
-0.76732722919703034
40
-0.76732722919703034
10
27.004189041394643
20
49.377168137839973
30
-3.5527136788005009e-14
10
26.905643307884755
20
48.332793653864954
30
-3.5527136788005009e-14
10
26.801823659057952
20
47.332760949119354
30
-3.5527136788005009e-14
10
26.693218494962991
20
46.377168137839959
30
-3.5527136788005009e-14
0
SPLINE
5
189
100
AcDbEntity
8
0
100
AcDbSpline
70
0
71
3
72
8
73
4
74
0
42
0.000000001
43
0.0000000001
44
0.0000000001
40
-0.76732722919701157
40
-0.76732722919701157
40
-0.76732722919701157
40
-0.76732722919701157
40
-0.73579368913029364
40
-0.73579368913029364
40
-0.73579368913029364
40
-0.73579368913029364
10
26.693218494962771
20
46.377168137838069
30
-3.5527136788005009e-14
10
26.573415473821168
20
45.323047859797228
30
-3.5527136788005009e-14
10
26.447789231391646
20
44.323003959986202
30
-3.5527136788005009e-14
10
26.31699535051888
20
43.377168137839952
30
-3.5527136788005009e-14
0
SPLINE
5
190
100
AcDbEntity
8
0
100
AcDbSpline
70
0
71
3
72
8
73
4
74
0
42
0.000000001
43
0.0000000001
44
0.0000000001
40
-0.73579368913029353
40
-0.73579368913029353
40
-0.73579368913029353
40
-0.73579368913029353
40
-0.70014212605160353
40
-0.70014212605160353
40
-0.70014212605160353
40
-0.70014212605160353
10
26.316995350518887
20
43.377168137839959
30
-3.5527136788005009e-14
10
26.169120856111459
20
42.307813875553293
30
-3.5527136788005009e-14
10
26.014640890350154
20
41.307750433066708
30
-3.5527136788005009e-14
10
25.854502878845
20
40.37716813783998
30
-3.5527136788005009e-14
0
SPLINE
5
191
100
AcDbEntity
8
0
100
AcDbSpline
70
0
71
3
72
11
73
7
74
0
42
0.000000001
43
0.0000000001
44
0.0000000001
40
-0.70014212605160353
40
-0.70014212605160353
40
-0.70014212605160353
40
-0.70014212605160353
40
-0.66015972649431864
40
-0.66015972649431864
40
-0.66015972649431864
40
-0.65813066962317157
40
-0.65813066962317157
40
-0.65813066962317157
40
-0.65813066962317157
10
25.854502878845
20
40.37716813783998
30
-3.5527136788005009e-14
10
25.674911820069365
20
39.333541717686472
30
-3.5527136788005009e-14
10
25.48820457984602
20
38.377302440281753
30
-3.5527136788005009e-14
10
25.295717495067777
20
37.508718761115695
30
-3.5527136788005009e-14
10
25.285949015779362
20
37.464639223571858
30
-3.5527136788005009e-14
10
25.276162687303692
20
37.420789204418497
30
-3.5527136788005009e-14
10
25.26635899209337
20
37.377168137839966
30
-3.5527136788005009e-14
0
SPLINE
5
192
100
AcDbEntity
8
0
100
AcDbSpline
70
0
71
3
72
8
73
4
74
0
42
0.000000001
43
0.0000000001
44
0.0000000001
40
-0.65813066962317146
40
-0.65813066962317146
40
-0.65813066962317146
40
-0.65813066962317146
40
-0.60427703008877987
40
-0.60427703008877987
40
-0.60427703008877987
40
-0.60427703008877987
10
25.26635899209337
20
37.377168137839966
30
-3.5527136788005009e-14
10
25.006156986191328
20
36.219411926552645
30
-3.5527136788005009e-14
10
24.733721223357485
20
35.222938201885675
30
-3.5527136788005009e-14
10
24.458071924487225
20
34.37716813783998
30
-3.5527136788005009e-14
0
SPLINE
5
193
100
AcDbEntity
8
0
100
AcDbSpline
70
0
71
3
72
8
73
4
74
0
42
0.000000001
43
0.0000000001
44
0.0000000001
40
-0.60427703008876876
40
-0.60427703008876876
40
-0.60427703008876876
40
-0.60427703008876876
40
-0.60044605586545319
40
-0.60044605586545319
40
-0.60044605586545319
40
-0.60044605586545319
10
24.458071924487058
20
34.377168137839455
30
-3.5527136788005009e-14
10
24.438463122412081
20
34.317002783329997
30
-3.5527136788005009e-14
10
24.418838058428499
20
34.257600055761003
30
-3.5527136788005009e-14
10
24.399199979666378
20
34.198956146930385
30
-3.5527136788005009e-14
0
ARC
5
194
100
AcDbEntity
8
0
100
AcDbCircle
10
25.417783522974222
20
31.377168137839973
30
-3.5527136788005009e-14
40
3.000000000490668
210
-3.4781222544199679e-32
220
-1.2555011498212992e-32
230
1
100
AcDbArc
50
109.84811062042598
51
180.31503473301501
0
ARC
5
195
100
AcDbEntity
8
0
100
AcDbCircle
10
22.731992034516573
20
28.377168137839973
30
0
40
3.0000000000006404
210
-1.2401464098724768e-15
220
1.1777265199866146e-14
230
1
100
AcDbArc
50
96.011095562730688
51
159.3063693557973
0
SPLINE
5
196
100
AcDbEntity
8
0
100
AcDbSpline
70
0
71
3
72
11
73
7
74
0
42
0.000000001
43
0.0000000001
44
0.0000000001
40
-0.34331506856590704
40
-0.34331506856590704
40
-0.34331506856590704
40
-0.34331506856590704
40
-0.32331094039772168
40
-0.32331094039772168
40
-0.32331094039772168
40
-0.22974447318425267
40
-0.22974447318425267
40
-0.22974447318425267
40
-0.22974447318425267
10
19.925542075970203
20
29.43728069326751
30
0
10
19.730074670165397
20
29.380852238996681
30
0
10
19.523625193390327
20
29.32398006365764
30
0
10
19.305803047549407
20
29.266085284026083
30
0
10
18.286970909710693
20
28.995290678298527
30
0
10
17.062414468953218
20
28.691783884091823
30
0
10
15.609526649368128
20
28.37716813783997
30
0
0
SPLINE
5
197
100
AcDbEntity
8
0
100
AcDbSpline
70
0
71
3
72
11
73
7
74
0
42
0.000000001
43
0.0000000001
44
0.0000000001
40
-0.22974447318425256
40
-0.22974447318425256
40
-0.22974447318425256
40
-0.22974447318425256
40
-0.18612453788492275
40
-0.18612453788492275
40
-0.18612453788492275
40
-0.16287214450736914
40
-0.16287214450736914
40
-0.16287214450736914
40
-0.16287214450736914
10
15.609526649368121
20
28.377168137839966
30
0
10
14.932202020418543
20
28.230496804568972
30
0
10
14.205253002865055
20
28.081411107770279
30
0
10
13.42638905213493
20
27.932099883194553
30
0
10
13.011201573160136
20
27.852506841487944
30
0
10
12.580175911156275
20
27.773923932104974
30
0
10
12.132509005620719
20
27.69734099823912
30
0
0
ARC
5
198
100
AcDbEntity
8
0
100
AcDbCircle
10
10.230720926504802
20
25.377168137839966
30
0
40
3.0000000000000315
210
-3.050489438206133e-31
220
2.5004104427164909e-31
230
1
100
AcDbArc
50
50.659377765774607
51
144.86935027474308
0
SPLINE
5
199
100
AcDbEntity
8
0
100
AcDbSpline
70
0
71
3
72
8
73
4
74
0
42
0.000000001
43
0.0000000001
44
0.0000000001
40
-0.095142542277018488
40
-0.095142542277018488
40
-0.095142542277018488
40
-0.095142542277018488
40
-0.024577060265687622
40
-0.024577060265687622
40
-0.024577060265687622
40
-0.024577060265687622
10
7.7771949029164889
20
27.103496626736288
30
0
10
6.1037491706983786
20
26.931930496750315
30
0
10
4.2554981189535512
20
26.805337496255447
30
0
10
2.2099966128485162
20
26.751383241813862
30
0
0
ENDSEC
0
SECTION
2
OBJECTS
0
DICTIONARY
5
C
100
AcDbDictionary
3
ACAD_GROUP
350
D
3
ACAD_MLINESTYLE
350
17
0
DICTIONARY
5
D
100
AcDbDictionary
0
DICTIONARY
5
1A
330
C
100
AcDbDictionary
0
DICTIONARY
5
17
100
AcDbDictionary
0
ENDSEC
0
EOF
