0
SECTION
2
HEADER
9
$INSUNITS
70
4
9
$ACADVER
1
AC1014
9
$HANDSEED
5
FFFF
0
ENDSEC
0
SECTION
2
TABLES
0
TABLE
2
VPORT
5
8
100
AcDbSymbolTable
0
ENDTAB
0
TABLE
2
LTYPE
5
5
100
AcDbSymbolTable
0
LTYPE
5
14
100
AcDbSymbolTableRecord
100
AcDbLinetypeTableRecord
2
BYBLOCK
70
0
0
LTYPE
5
15
100
AcDbSymbolTableRecord
100
AcDbLinetypeTableRecord
2
BYLAYER
70
0
0
ENDTAB
0
TABLE
2
LAYER
5
2
100
AcDbSymbolTable
70
2
0
LAYER
5
50
100
AcDbSymbolTableRecord
100
AcDbLayerTableRecord
2
0
70
0
6
CONTINUOUS
0
ENDTAB
0
TABLE
2
STYLE
5
3
100
AcDbSymbolTable
70
1
0
STYLE
5
11
100
AcDbSymbolTableRecord
100
AcDbTextStyleTableRecord
2
STANDARD
70
0
0
ENDTAB
0
TABLE
2
VIEW
5
6
100
AcDbSymbolTable
70
0
0
ENDTAB
0
TABLE
2
UCS
5
7
100
AcDbSymbolTable
70
0
0
ENDTAB
0
TABLE
2
APPID
5
9
100
AcDbSymbolTable
70
2
0
APPID
5
12
100
AcDbSymbolTableRecord
100
AcDbRegAppTableRecord
2
ACAD
70
0
0
ENDTAB
0
TABLE
2
DIMSTYLE
5
A
100
AcDbSymbolTable
70
1
0
ENDTAB
0
TABLE
2
BLOCK_RECORD
5
1
100
AcDbSymbolTable
70
1
0
BLOCK_RECORD
5
1F
100
AcDbSymbolTableRecord
100
AcDbBlockTableRecord
2
*MODEL_SPACE
0
BLOCK_RECORD
5
1B
100
AcDbSymbolTableRecord
100
AcDbBlockTableRecord
2
*PAPER_SPACE
0
ENDTAB
0
ENDSEC
0
SECTION
2
BLOCKS
0
BLOCK
5
20
100
AcDbEntity
100
AcDbBlockBegin
2
*MODEL_SPACE
0
ENDBLK
5
21
100
AcDbEntity
100
AcDbBlockEnd
0
BLOCK
5
1C
100
AcDbEntity
100
AcDbBlockBegin
2
*PAPER_SPACE
0
ENDBLK
5
1D
100
AcDbEntity
100
AcDbBlockEnd
0
ENDSEC
0
SECTION
2
ENTITIES
0
SPLINE
5
100
100
AcDbEntity
8
0
100
AcDbSpline
70
4
71
5
72
16
73
10
74
0
42
0.000000001
43
0.0000000001
44
0.0000000001
40
0
40
0
40
0
40
0
40
0
40
0
40
0.028571428571428571
40
0.057142857142857141
40
0.085714285714285715
40
0.11428571428571428
40
0.12771160949663621
40
0.12771160949663621
40
0.12771160949663621
40
0.12771160949663621
40
0.12771160949663621
40
0.12771160949663621
41
1
41
1
41
1
41
1
41
1
41
1
41
1
41
1
41
1
41
1
10
-1.3142925975585307
20
63.326570872234086
30
0
10
-1.3204509746580846
20
62.871651022688951
30
0
10
-1.309238174917339
20
61.953561451925914
30
0
10
-1.2218309858690239
20
60.551678396873605
30
0
10
-0.96391848533882474
20
58.632929783295239
30
0
10
-0.46613600693261814
20
56.417346190102478
30
0
10
0.058175968829848101
20
54.654563203021375
30
0
10
0.49813690844206554
20
53.382648887880251
30
0
10
0.78259500810990323
20
52.621058399870037
30
0
10
0.87580647471573769
20
52.377168137840179
30
0
0
SPLINE
5
101
100
AcDbEntity
8
0
100
AcDbSpline
70
4
71
5
72
13
73
7
74
0
42
0.000000001
43
0.0000000001
44
0.0000000001
40
0.12771160949663929
40
0.12771160949663929
40
0.12771160949663929
40
0.12771160949663929
40
0.12771160949663929
40
0.12771160949663929
40
0.14285714285714285
40
0.16056057086496131
40
0.16056057086496131
40
0.16056057086496131
40
0.16056057086496131
40
0.16056057086496131
40
0.16056057086496131
41
1
41
1
41
1
41
1
41
1
41
1
41
1
10
0.87580647471584439
20
52.377168137839888
30
0
10
0.98095680956366238
20
52.102039512013121
30
0
10
1.215294155317411
20
51.504152890606406
30
0
10
1.4629933391940975
20
50.904098754786922
30
0
10
1.7234276812798681
20
50.302746361849771
30
0
10
1.9957785647998414
20
49.701213973937811
30
0
10
2.1458766610089151
20
49.377168137839924
30
0
0
SPLINE
5
102
100
AcDbEntity
8
0
100
AcDbSpline
70
4
71
5
72
13
73
7
74
0
42
0.000000001
43
0.0000000001
44
0.0000000001
40
0.16056057086496156
40
0.16056057086496156
40
0.16056057086496156
40
0.16056057086496156
40
0.16056057086496156
40
0.16056057086496156
40
0.17142857142857143
40
0.19354025456115798
40
0.19354025456115798
40
0.19354025456115798
40
0.19354025456115798
40
0.19354025456115798
40
0.19354025456115798
41
1
41
1
41
1
41
1
41
1
41
1
41
1
10
2.1458766610089257
20
49.377168137839902
30
0
10
2.2380207470851681
20
49.178238849806434
30
0
10
2.5214337698071718
20
48.574735163265501
30
0
10
2.8160615719418072
20
47.972129925155244
30
0
10
3.1209283727975117
20
47.371740118768535
30
0
10
3.4349036054568254
20
46.775072645185332
30
0
10
3.6491531908595114
20
46.377168137839888
30
0
0
SPLINE
5
103
100
AcDbEntity
8
0
100
AcDbSpline
70
4
71
5
72
13
73
7
74
0
42
0.000000001
43
0.0000000001
44
0.0000000001
40
0.19354025456124449
40
0.19354025456124449
40
0.19354025456124449
40
0.19354025456124449
40
0.19354025456124449
40
0.19354025456124449
40
0.20000000000000001
40
0.22763931371480506
40
0.22763931371480506
40
0.22763931371480506
40
0.22763931371480506
40
0.22763931371480506
40
0.22763931371480506
41
1
41
1
41
1
41
1
41
1
41
1
41
1
10
3.6491531908637018
20
46.377168137832101
30
0
10
3.7117444361235896
20
46.260923625328338
30
0
10
4.0438300517777082
20
45.648267551584425
30
0
10
4.3845654803308491
20
45.041023217991068
30
0
10
4.7326388558838186
20
44.440913033461136
30
0
10
5.0866940265990879
20
43.84968359530334
30
0
10
5.3769090850005448
20
43.377168137839902
30
0
0
SPLINE
5
104
100
AcDbEntity
8
0
100
AcDbSpline
70
4
71
5
72
14
73
8
74
0
42
0.000000001
43
0.0000000001
44
0.0000000001
40
0.22763931371480511
40
0.22763931371480511
40
0.22763931371480511
40
0.22763931371480511
40
0.22763931371480511
40
0.22763931371480511
40
0.22857142857142859
40
0.25714285714285717
40
0.26434743521003023
40
0.26434743521003023
40
0.26434743521003023
40
0.26434743521003023
40
0.26434743521003023
40
0.26434743521003023
41
1
41
1
41
1
41
1
41
1
41
1
41
1
41
1
10
5.3769090850005474
20
43.377168137839888
30
0
10
5.3866963673601287
20
43.36123291302097
30
0
10
5.696602349815441
20
42.857088599317834
30
0
10
6.0867344555598812
20
42.239391666935795
30
0
10
6.4812142015989078
20
41.635231298948234
30
0
10
6.8784736578251149
20
41.04651667422096
30
0
10
7.2670544779131987
20
40.488815841420909
30
0
10
7.3453544355833351
20
40.377168137839909
30
0
0
SPLINE
5
105
100
AcDbEntity
8
0
100
AcDbSpline
70
4
71
5
72
13
73
7
74
0
42
0.000000001
43
0.0000000001
44
0.0000000001
40
0.26434743521007975
40
0.26434743521007975
40
0.26434743521007975
40
0.26434743521007975
40
0.26434743521007975
40
0.26434743521007975
40
0.28571428571428575
40
0.30615566946045381
40
0.30615566946045381
40
0.30615566946045381
40
0.30615566946045381
40
0.30615566946045381
40
0.30615566946045381
41
1
41
1
41
1
41
1
41
1
41
1
41
1
10
7.3453544355860281
20
40.377168137836065
30
0
10
7.5775711559025796
20
40.046050927458062
30
0
10
8.0327638329577233
20
39.40955450916811
30
0
10
8.4885924772003882
20
38.796424628200988
30
0
10
8.9434117417217003
20
38.208350263458158
30
0
10
9.3962168182857635
20
37.645984197574762
30
0
10
9.6170588010454665
20
37.377168137839881
30
0
0
SPLINE
5
106
100
AcDbEntity
8
0
100
AcDbSpline
70
4
71
5
72
13
73
7
74
0
42
0.000000001
43
0.0000000001
44
0.0000000001
40
0.30615566946062045
40
0.30615566946062045
40
0.30615566946062045
40
0.30615566946062045
40
0.30615566946062045
40
0.30615566946062045
40
0.31428571428571433
40
0.33931088199053777
40
0.33931088199053777
40
0.33931088199053777
40
0.33931088199053777
40
0.33931088199053777
40
0.33931088199053777
41
1
41
1
41
1
41
1
41
1
41
1
41
1
10
9.6170588010544691
20
37.377168137828924
30
0
10
9.7048931297571635
20
37.270253329981941
30
0
10
10.062737034674438
20
36.83820567764694
30
0
10
10.419066348821564
20
36.422314967931229
30
0
10
10.773678344441249
20
36.022433960549151
30
0
10
11.126753537022246
20
35.637811539353883
30
0
10
11.392554394530197
20
35.355713734163608
30
0
0
SPLINE
5
107
100
AcDbEntity
8
0
100
AcDbSpline
70
4
71
5
72
13
73
7
74
0
42
0.000000001
43
0.0000000001
44
0.0000000001
40
0
40
0
40
0
40
0
40
0
40
0
40
0.040000000000000001
40
0.0791007544595628
40
0.0791007544595628
40
0.0791007544595628
40
0.0791007544595628
40
0.0791007544595628
40
0.0791007544595628
41
1
41
1
41
1
41
1
41
1
41
1
41
1
10
11.392554394530194
20
35.355713734163608
30
0
10
11.381802551512575
20
35.330777838293052
30
0
10
11.400937212230959
20
35.244430771476829
30
0
10
11.499964461823811
20
35.084837425719201
30
0
10
11.679058249099675
20
34.851839610077263
30
0
10
11.937695320569151
20
34.545976942651144
30
0
10
12.08479081035896
20
34.377168137839881
30
0
0
SPLINE
5
108
100
AcDbEntity
8
0
100
AcDbSpline
70
4
71
5
72
15
73
9
74
0
42
0.000000001
43
0.0000000001
44
0.0000000001
40
0.079100754459563188
40
0.079100754459563188
40
0.079100754459563188
40
0.079100754459563188
40
0.079100754459563188
40
0.079100754459563188
40
0.080000000000000002
40
0.12
40
0.16
40
0.17313329444301959
40
0.17313329444301959
40
0.17313329444301959
40
0.17313329444301959
40
0.17313329444301959
40
0.17313329444301959
41
1
41
1
41
1
41
1
41
1
41
1
41
1
41
1
41
1
10
12.084790810358966
20
34.377168137839881
30
0
10
12.088173736469729
20
34.373285845362119
30
0
10
12.242498086448547
20
34.196288684019592
30
0
10
12.589398066914283
20
33.808071385573861
30
0
10
13.087360413540017
20
33.270195077157382
30
0
10
13.691551191532126
20
32.635471577166243
30
0
10
14.385534830668913
20
31.920311244014759
30
0
10
14.810615023932145
20
31.486073851417054
30
0
10
14.917435573709438
20
31.377168137839906
30
0
0
SPLINE
5
109
100
AcDbEntity
8
0
100
AcDbSpline
70
4
71
5
72
13
73
7
74
0
42
0.000000001
43
0.0000000001
44
0.0000000001
40
0.17313329444301964
40
0.17313329444301964
40
0.17313329444301964
40
0.17313329444301964
40
0.17313329444301964
40
0.17313329444301964
40
0.20000000000000001
40
0.2373471601344449
40
0.2373471601344449
40
0.2373471601344449
40
0.2373471601344449
40
0.2373471601344449
40
0.2373471601344449
41
1
41
1
41
1
41
1
41
1
41
1
41
1
10
14.91743557370944
20
31.377168137839906
30
0
10
15.135957763305722
20
31.154380340547718
30
0
10
15.675757241508359
20
30.606168860451834
30
0
10
16.255914413710823
20
30.021842958971231
30
0
10
16.872573850772376
20
29.405215344323317
30
0
10
17.521363272329381
20
28.760630702459338
30
0
10
17.908681146108879
20
28.377168137840137
30
0
0
SPLINE
5
110
100
AcDbEntity
8
0
100
AcDbSpline
70
4
71
5
72
14
73
8
74
0
42
0.000000001
43
0.0000000001
44
0.0000000001
40
0.23734716013444954
40
0.23734716013444954
40
0.23734716013444954
40
0.23734716013444954
40
0.23734716013444954
40
0.23734716013444954
40
0.24000000000000002
40
0.28000000000000003
40
0.29269415206709443
40
0.29269415206709443
40
0.29269415206709443
40
0.29269415206709443
40
0.29269415206709443
40
0.29269415206709443
41
1
41
1
41
1
41
1
41
1
41
1
41
1
41
1
10
17.908681146109121
20
28.377168137839902
30
0
10
17.936193071848688
20
28.349930062047626
30
0
10
18.379344254130686
20
27.911296254734918
30
0
10
18.971165067290187
20
27.327723093999808
30
0
10
19.582522598070486
20
26.727705293215216
30
0
10
20.21040788894959
20
26.114260912708005
30
0
10
20.820578333487578
20
25.520680091599139
30
0
10
20.968252136872493
20
25.377168137841704
30
0
0
SPLINE
5
111
100
AcDbEntity
8
0
100
AcDbSpline
70
4
71
5
72
13
73
7
74
0
42
0.000000001
43
0.0000000001
44
0.0000000001
40
0.29269415206712673
40
0.29269415206712673
40
0.29269415206712673
40
0.29269415206712673
40
0.29269415206712673
40
0.29269415206712673
40
0.32000000000000001
40
0.3446765210178514
40
0.3446765210178514
40
0.3446765210178514
40
0.3446765210178514
40
0.3446765210178514
40
0.3446765210178514
41
1
41
1
41
1
41
1
41
1
41
1
41
1
10
20.968252136874366
20
25.377168137839881
30
0
10
21.2859069434014
20
25.068465708159032
30
0
10
21.896638471498335
20
24.476233547407237
30
0
10
22.517502524063261
20
23.87665995650131
30
0
10
23.146025813092272
20
23.272264840596037
30
0
10
23.779840891837502
20
22.665490934425559
30
0
10
24.081666502923362
20
22.377168137839906
30
0
0
SPLINE
5
112
100
AcDbEntity
8
0
100
AcDbSpline
70
4
71
5
72
13
73
7
74
0
42
0.000000001
43
0.0000000001
44
0.0000000001
40
0.34467652101785146
40
0.34467652101785146
40
0.34467652101785146
40
0.34467652101785146
40
0.34467652101785146
40
0.34467652101785146
40
0.35999999999999999
40
0.39620197454137768
40
0.39620197454137768
40
0.39620197454137768
40
0.39620197454137768
40
0.39620197454137768
40
0.39620197454137768
41
1
41
1
41
1
41
1
41
1
41
1
41
1
10
24.081666502923365
20
22.377168137839902
30
0
10
24.269092372412931
20
22.198127165639715
30
0
10
24.900543672912441
20
21.595733916997606
30
0
10
25.53546346179397
20
20.992802557323557
30
0
10
26.171669708897522
20
20.39161232980863
30
0
10
26.807174886352257
20
19.794280678600437
30
0
10
27.252722444962668
20
19.377168137839888
30
0
0
SPLINE
5
113
100
AcDbEntity
8
0
100
AcDbSpline
70
4
71
5
72
14
73
8
74
0
42
0.000000001
43
0.0000000001
44
0.0000000001
40
0.39620197454137768
40
0.39620197454137768
40
0.39620197454137768
40
0.39620197454137768
40
0.39620197454137768
40
0.39620197454137768
40
0.39999999999999997
40
0.43999999999999995
40
0.44959458569371846
40
0.44959458569371846
40
0.44959458569371846
40
0.44959458569371846
40
0.44959458569371846
40
0.44959458569371846
41
1
41
1
41
1
41
1
41
1
41
1
41
1
41
1
10
27.252722444962668
20
19.377168137839888
30
0
10
27.299465778498117
20
19.333407981964733
30
0
10
27.838378062874241
20
18.829101947957888
30
0
10
28.493517503232795
20
18.21904029504736
30
0
10
29.144830011858367
20
17.616478113505664
30
0
10
29.790669963171467
20
17.023283704769842
30
0
10
30.38481766562856
20
16.48160425806298
30
0
10
30.499539364731781
20
16.377168137839899
30
0
0
SPLINE
5
114
100
AcDbEntity
8
0
100
AcDbSpline
70
4
71
5
72
13
73
7
74
0
42
0.000000001
43
0.0000000001
44
0.0000000001
40
0.44959458569372379
40
0.44959458569372379
40
0.44959458569372379
40
0.44959458569372379
40
0.44959458569372379
40
0.44959458569372379
40
0.47999999999999993
40
0.50740658529546234
40
0.50740658529546234
40
0.50740658529546234
40
0.50740658529546234
40
0.50740658529546234
40
0.50740658529546234
41
1
41
1
41
1
41
1
41
1
41
1
41
1
10
30.499539364732104
20
16.377168137839604
30
0
10
30.863094488684677
20
16.046208198005854
30
0
10
31.55010279153452
20
15.423754260131069
30
0
10
32.228225513305233
20
14.815264949769576
30
0
10
32.8961784210926
20
14.222379725223922
30
0
10
33.553071131340936
20
13.646344453331942
30
0
10
33.861916596813664
20
13.37716813783992
30
0
0
SPLINE
5
115
100
AcDbEntity
8
0
100
AcDbSpline
70
4
71
5
72
14
73
8
74
0
42
0.000000001
43
0.0000000001
44
0.0000000001
40
0.50740658529551985
40
0.50740658529551985
40
0.50740658529551985
40
0.50740658529551985
40
0.50740658529551985
40
0.50740658529551985
40
0.51999999999999991
40
0.55999999999999994
40
0.57336262752774969
40
0.57336262752774969
40
0.57336262752774969
40
0.57336262752774969
40
0.57336262752774969
40
0.57336262752774969
41
1
41
1
41
1
41
1
41
1
41
1
41
1
41
1
10
33.861916596816897
20
13.377168137837092
30
0
10
34.003832088453869
20
13.253480749092025
30
0
10
34.594247899938246
20
12.740369733640824
30
0
10
35.32266772497011
20
12.11515019726891
30
0
10
36.035250130059111
20
11.514008240629902
30
0
10
36.731426080603136
20
10.937952116199501
30
0
10
37.283781040919109
20
10.488629575081498
30
0
10
37.421412006781424
20
10.37716813783992
30
0
0
SPLINE
5
116
100
AcDbEntity
8
0
100
AcDbSpline
70
4
71
5
72
14
73
8
74
0
42
0.000000001
43
0.0000000001
44
0.0000000001
40
0.57336262752774969
40
0.57336262752774969
40
0.57336262752774969
40
0.57336262752774969
40
0.57336262752774969
40
0.57336262752774969
40
0.59999999999999998
40
0.64000000000000001
40
0.6547907483812454
40
0.6547907483812454
40
0.6547907483812454
40
0.6547907483812454
40
0.6547907483812454
40
0.6547907483812454
41
1
41
1
41
1
41
1
41
1
41
1
41
1
41
1
10
37.421412006781424
20
10.37716813783992
30
0
10
37.695768774847934
20
10.154978316718994
30
0
10
38.375301857406299
20
9.6096168766191763
30
0
10
39.184721905072443
20
8.9755022508077449
30
0
10
39.968364951795131
20
8.3813519372501215
30
0
10
40.726342960336098
20
7.826987575967232
30
0
10
41.224789527195057
20
7.4717677877724107
30
0
10
41.358502238460986
20
7.3771681378398952
30
0
0
SPLINE
5
117
100
AcDbEntity
8
0
100
AcDbSpline
70
4
71
5
72
15
73
9
74
0
42
0.000000001
43
0.0000000001
44
0.0000000001
40
0.6547907483812454
40
0.6547907483812454
40
0.6547907483812454
40
0.6547907483812454
40
0.6547907483812454
40
0.6547907483812454
40
0.68000000000000005
40
0.72000000000000008
40
0.76000000000000012
40
0.7732475095363498
40
0.7732475095363498
40
0.7732475095363498
40
0.7732475095363498
40
0.7732475095363498
40
0.7732475095363498
41
1
41
1
41
1
41
1
41
1
41
1
41
1
41
1
41
1
10
41.358502238460986
20
7.3771681378398952
30
0
10
41.586401280216229
20
7.2159331335842127
30
0
10
42.169578936945591
20
6.8085707575135714
30
0
10
43.084093642657265
20
6.1915704373436808
30
0
10
44.065972615301654
20
5.5683681453946967
30
0
10
44.993612389697795
20
5.0213196344607915
30
0
10
45.689025447911547
20
4.6347786512372604
30
0
10
46.074490819646385
20
4.4278160285284907
30
0
10
46.169666154659417
20
4.3771681378398632
30
0
0
SPLINE
5
118
100
AcDbEntity
8
0
100
AcDbSpline
70
4
71
5
72
17
73
11
74
0
42
0.000000001
43
0.0000000001
44
0.0000000001
40
0.7732475095363498
40
0.7732475095363498
40
0.7732475095363498
40
0.7732475095363498
40
0.7732475095363498
40
0.7732475095363498
40
0.80000000000000016
40
0.84000000000000019
40
0.88000000000000023
40
0.92000000000000026
40
0.9600000000000003
40
1
40
1
40
1
40
1
40
1
40
1
41
1
41
1
41
1
41
1
41
1
41
1
41
1
41
1
41
1
41
1
41
1
10
46.169666154659417
20
4.3771681378398632
30
0
10
46.361866600737557
20
4.2748879916030411
30
0
10
46.834065046309959
20
4.0282536262216864
30
0
10
47.559400302390188
20
3.6672657922729393
30
0
10
48.488729727605445
20
3.2402181984513185
30
0
10
49.546256389436479
20
2.8063208173494658
30
0
10
50.525624875734906
20
2.4571685905209169
30
0
10
51.184129992179535
20
2.2644721680099149
30
0
10
51.607674944853052
20
2.1673901649729514
30
0
10
51.858853636488249
20
2.123692876688239
30
0
10
51.976647202035593
20
2.1071005726605767
30
0
0
SPLINE
5
119
100
AcDbEntity
8
0
100
AcDbSpline
70
4
71
5
72
13
73
7
74
0
42
0.000000001
43
0.0000000001
44
0.0000000001
40
0.96718318790004021
40
0.96718318790004021
40
0.96718318790004021
40
0.96718318790004021
40
0.96718318790004021
40
0.96718318790004021
40
0.97142857142857164
40
1
40
1
40
1
40
1
40
1
40
1
41
1
41
1
41
1
41
1
41
1
41
1
41
1
10
51.976647202035586
20
2.1071005726605767
30
0
10
52.017439485567451
20
2.0977513858948442
30
0
10
52.333117529109131
20
2.0271861898713217
30
0
10
52.65154663091954
20
1.96978709158997
30
0
10
52.97283961039048
20
1.9255128329963933
30
0
10
53.296991403144382
20
1.8943543096869959
30
0
10
53.581376801757308
20
1.8771681378398963
30
0
0
LINE
5
120
100
AcDbEntity
8
0
100
AcDbLine
10
53.581376801757301
20
1.8771681378398963
30
0
11
257.25744451197806
21
1.8771681378398952
31
0
0
LINE
5
121
100
AcDbEntity
8
0
100
AcDbLine
10
257.25744451197806
20
1.8771681378398952
30
0
11
259.33600328728767
21
2.5665438093473281
31
0
0
SPLINE
5
122
100
AcDbEntity
8
0
100
AcDbSpline
70
0
71
3
72
8
73
4
74
0
42
0.000000001
43
0.0000000001
44
0.0000000001
40
-1
40
-1
40
-1
40
-1
40
-0.96762927345716587
40
-0.96762927345716587
40
-0.96762927345716587
40
-0.96762927345716587
10
259.33600328728767
20
2.5665438093473285
30
0
10
259.38895724673358
20
3.1710391703607121
30
0
10
259.44276845319973
20
3.7745894775640689
30
0
10
259.49745695822588
20
4.3771681378398881
30
0
0
SPLINE
5
123
100
AcDbEntity
8
0
100
AcDbSpline
70
0
71
3
72
8
73
4
74
0
42
0.000000001
43
0.0000000001
44
0.0000000001
40
-0.96762927345716576
40
-0.96762927345716576
40
-0.96762927345716576
40
-0.96762927345716576
40
-0.91376220541478848
40
-0.91376220541478848
40
-0.91376220541478848
40
-0.91376220541478848
10
259.49745695822583
20
4.3771681378398952
30
0
10
259.58846231201312
20
5.3798995918593482
30
0
10
259.68189701081792
20
6.3799404389068259
30
0
10
259.77785345217848
20
7.3771681378398934
30
0
0
SPLINE
5
124
100
AcDbEntity
8
0
100
AcDbSpline
70
0
71
3
72
8
73
4
74
0
42
0.000000001
43
0.0000000001
44
0.0000000001
40
-0.91376220541478259
40
-0.91376220541478259
40
-0.91376220541478259
40
-0.91376220541478259
40
-0.85958945543971377
40
-0.85958945543971377
40
-0.85958945543971377
40
-0.85958945543971377
10
259.77785345217859
20
7.3771681378402221
30
0
10
259.87435442197767
20
8.3800548507389969
30
0
10
259.97340583603693
20
9.3800963971298579
30
0
10
260.07510167383566
20
10.377168137839899
30
0
0
SPLINE
5
125
100
AcDbEntity
8
0
100
AcDbSpline
70
0
71
3
72
8
73
4
74
0
42
0.000000001
43
0.0000000001
44
0.0000000001
40
-0.85958945543965404
40
-0.85958945543965404
40
-0.85958945543965404
40
-0.85958945543965404
40
-0.80509201457487689
40
-0.80509201457487689
40
-0.80509201457487689
40
-0.80509201457487689
10
260.07510167383606
20
10.377168137843199
30
0
10
260.17740703786467
20
11.380215947900705
30
0
10
260.28238861997283
20
12.38025824581686
30
0
10
260.39014209962022
20
13.377168137839895
30
0
0
SPLINE
5
126
100
AcDbEntity
8
0
100
AcDbSpline
70
0
71
3
72
8
73
4
74
0
42
0.000000001
43
0.0000000001
44
0.0000000001
40
-0.80509201457486057
40
-0.80509201457486057
40
-0.80509201457486057
40
-0.80509201457486057
40
-0.75024988209222088
40
-0.75024988209222088
40
-0.75024988209222088
40
-0.75024988209222088
10
260.39014209962028
20
13.377168137840787
30
0
10
260.49857711074208
20
14.380383399035139
30
0
10
260.60981919431788
20
15.380426504631171
30
0
10
260.72396585680724
20
16.377168137839892
30
0
0
SPLINE
5
127
100
AcDbEntity
8
0
100
AcDbSpline
70
0
71
3
72
8
73
4
74
0
42
0.000000001
43
0.0000000001
44
0.0000000001
40
-0.75024988209221422
40
-0.75024988209221422
40
-0.75024988209221422
40
-0.75024988209221422
40
-0.69504196727136369
40
-0.69504196727136369
40
-0.69504196727136369
40
-0.69504196727136369
10
260.7239658568073
20
16.377168137840261
30
0
10
260.83887384696953
20
17.38055777083823
30
0
10
260.95672529078377
20
18.380601744708287
30
0
10
261.07761965877722
20
19.377168137839892
30
0
0
SPLINE
5
128
100
AcDbEntity
8
0
100
AcDbSpline
70
0
71
3
72
11
73
7
74
0
42
0.000000001
43
0.0000000001
44
0.0000000001
40
-0.69504196727136336
40
-0.69504196727136336
40
-0.69504196727136336
40
-0.69504196727136336
40
-0.64991787477113794
40
-0.64991787477113794
40
-0.64991787477113794
40
-0.6394452416104871
40
-0.6394452416104871
40
-0.6394452416104871
40
-0.6394452416104871
10
261.07761965877728
20
19.377168137839917
30
0
10
261.17643245874979
20
20.191709934106107
30
0
10
261.27727810905014
20
21.003928504183406
30
0
10
261.38021092418376
20
21.813751814101238
30
0
10
261.40410010518133
20
22.001699803297278
30
0
10
261.4281172235593
20
22.189505030761325
30
0
10
261.45226179395911
20
22.377168137815943
30
0
0
SPLINE
5
129
100
AcDbEntity
8
0
100
AcDbSpline
70
0
71
3
72
8
73
4
74
0
42
0.000000001
43
0.0000000001
44
0.0000000001
40
-0.63944524161004157
40
-0.63944524161004157
40
-0.63944524161004157
40
-0.63944524161004157
40
-0.58341454554213745
40
-0.58341454554213745
40
-0.58341454554213745
40
-0.58341454554213745
10
261.45226179396229
20
22.377168137839899
30
0
10
261.58144010709668
20
23.381203546436385
30
0
10
261.71426669032252
20
24.381170807418549
30
0
10
261.85066721212672
20
25.377168137839892
30
0
0
SPLINE
5
130
100
AcDbEntity
8
0
100
AcDbSpline
70
0
71
3
72
8
73
4
74
0
42
0.000000001
43
0.0000000001
44
0.0000000001
40
-0.58341454554213001
40
-0.58341454554213001
40
-0.58341454554213001
40
-0.58341454554213001
40
-0.52693362694646129
40
-0.52693362694646129
40
-0.52693362694646129
40
-0.52693362694646129
10
261.85066721212684
20
25.377168137840293
30
0
10
261.98816375079366
20
26.381168589179591
30
0
10
262.12929189401245
20
27.381135054601316
30
0
10
262.2739755040094
20
28.377168137839902
30
0
0
SPLINE
5
131
100
AcDbEntity
8
0
100
AcDbSpline
70
0
71
3
72
8
73
4
74
0
42
0.000000001
43
0.0000000001
44
0.0000000001
40
-0.52693362694630408
40
-0.52693362694630408
40
-0.52693362694630408
40
-0.52693362694630408
40
-0.47000309723407885
40
-0.47000309723407885
40
-0.47000309723407885
40
-0.47000309723407885
10
262.27397550401054
20
28.377168137848212
30
0
10
262.4198108544723
20
29.381130050111107
30
0
10
262.56925850294272
20
30.3810957082915
30
0
10
262.72224047887244
20
31.377168137839888
30
0
0
SPLINE
5
132
100
AcDbEntity
8
0
100
AcDbSpline
70
0
71
3
72
8
73
4
74
0
42
0.000000001
43
0.0000000001
44
0.0000000001
40
-0.47000309723330508
40
-0.47000309723330508
40
-0.47000309723330508
40
-0.47000309723330508
40
-0.41262405936441165
40
-0.41262405936441165
40
-0.41262405936441165
40
-0.41262405936441165
10
262.72224047887875
20
31.37716813788051
30
0
10
262.87642767219148
20
32.381087791256547
30
0
10
263.03420510035926
20
33.381052631363474
30
0
10
263.19549293548215
20
34.377168137839888
30
0
0
SPLINE
5
133
100
AcDbEntity
8
0
100
AcDbSpline
70
0
71
3
72
8
73
4
74
0
42
0.000000001
43
0.0000000001
44
0.0000000001
40
-0.41262405936256363
40
-0.41262405936256363
40
-0.41262405936256363
40
-0.41262405936256363
40
-0.3547981371490016
40
-0.3547981371490016
40
-0.3547981371490016
40
-0.3547981371490016
10
263.19549293549767
20
34.377168137936131
30
0
10
263.35803692637347
20
35.381041676646021
30
0
10
263.52414621724154
20
36.381005688814099
30
0
10
263.69373910047011
20
37.377168137839895
30
0
0
SPLINE
5
134
100
AcDbEntity
8
0
100
AcDbSpline
70
0
71
3
72
8
73
4
74
0
42
0.000000001
43
0.0000000001
44
0.0000000001
40
-0.3547981371463394
40
-0.3547981371463394
40
-0.3547981371463394
40
-0.3547981371463394
40
-0.29652750473975054
40
-0.29652750473975054
40
-0.29652750473975054
40
-0.29652750473975054
10
263.69373910049347
20
37.377168137977478
30
0
10
263.86463623760983
20
38.380991573253297
30
0
10
264.0390707542461
20
39.380954748713449
30
0
10
264.21695904311861
20
40.377168137839888
30
0
0
SPLINE
5
135
100
AcDbEntity
8
0
100
AcDbSpline
70
0
71
3
72
8
73
4
74
0
42
0.000000001
43
0.0000000001
44
0.0000000001
40
-0.29652750473975031
40
-0.29652750473975031
40
-0.29652750473975031
40
-0.29652750473975031
40
-0.23781491611565933
40
-0.23781491611565933
40
-0.23781491611565933
40
-0.23781491611565933
10
264.21695904311861
20
40.377168137839888
30
0
10
264.39619653367373
20
41.380937351969408
30
0
10
264.57894038572437
20
42.380899683213286
30
0
10
264.76510507515223
20
43.377168137839888
30
0
0
SPLINE
5
136
100
AcDbEntity
8
0
100
AcDbSpline
70
0
71
3
72
8
73
4
74
0
42
0.000000001
43
0.0000000001
44
0.0000000001
40
-0.23781491611565922
40
-0.23781491611565922
40
-0.23781491611565922
40
-0.23781491611565922
40
-0.17866373435950286
40
-0.17866373435950286
40
-0.17866373435950286
40
-0.17866373435950286
10
264.76510507515218
20
43.377168137839881
30
0
10
264.95266044681921
20
44.380878889120979
30
0
10
265.14368795524479
20
45.380840369866746
30
0
10
265.33810014531758
20
46.377168137839895
30
0
0
SPLINE
5
137
100
AcDbEntity
8
0
100
AcDbSpline
70
0
71
3
72
8
73
4
74
0
42
0.000000001
43
0.0000000001
44
0.0000000001
40
-0.1786637343595027
40
-0.1786637343595027
40
-0.1786637343595027
40
-0.1786637343595027
40
-0.11907796049304291
40
-0.11907796049304291
40
-0.11907796049304291
40
-0.11907796049304291
10
265.33810014531764
20
46.377168137839902
30
0
10
265.5339407092867
20
47.380816067040293
30
0
10
265.73321587308067
20
48.380776692513678
30
0
10
265.9358362397557
20
49.377168137839895
30
0
0
SPLINE
5
138
100
AcDbEntity
8
0
100
AcDbSpline
70
0
71
3
72
8
73
4
74
0
42
0.000000001
43
0.0000000001
44
0.0000000001
40
-0.11907796049304266
40
-0.11907796049304266
40
-0.11907796049304266
40
-0.11907796049304266
40
-0.059062261616744445
40
-0.059062261616744445
40
-0.059062261616744445
40
-0.059062261616744445
10
265.93583623975564
20
49.377168137839895
30
0
10
266.13991855879766
20
50.380748775722289
30
0
10
266.34739452768076
20
51.380708542742724
30
0
10
266.55817280040742
20
52.377168137839888
30
0
0
SPLINE
5
139
100
AcDbEntity
8
0
100
AcDbSpline
70
0
71
3
72
8
73
4
74
0
42
0.000000001
43
0.0000000001
44
0.0000000001
40
-0.059062261616744258
40
-0.059062261616744258
40
-0.059062261616744258
40
-0.059062261616744258
40
0
40
0
40
0
40
0
10
266.55817280040742
20
52.377168137839874
30
0
10
266.76560255162246
20
53.357797513121312
30
0
10
266.97623051625123
20
54.335037043819803
30
0
10
267.18996963299554
20
55.30900176733784
30
0
0
LINE
5
140
100
AcDbEntity
8
0
100
AcDbLine
10
267.1899696329956
20
55.309001767337833
30
0
11
273.13014983892867
21
82.377168137839874
31
0
0
LINE
5
141
100
AcDbEntity
8
0
100
AcDbLine
10
273.13014983892867
20
82.377168137839874
30
0
11
269.31867369293809
21
82.377168137839874
31
0
0
LINE
5
142
100
AcDbEntity
8
0
100
AcDbLine
10
269.31867369293809
20
82.377168137839874
30
0
11
269.31867369293809
21
79.377168137840144
31
0
0
LINE
5
143
100
AcDbEntity
8
0
100
AcDbLine
10
269.31867369293809
20
79.377168137840144
30
0
11
268.69969761291372
21
79.377168137839874
31
0
0
LINE
5
144
100
AcDbEntity
8
0
100
AcDbLine
10
268.69969761291372
20
79.377168137839874
30
0
11
268.69969761291372
21
76.377168137839874
31
0
0
LINE
5
145
100
AcDbEntity
8
0
100
AcDbLine
10
268.69969761291372
20
76.377168137839874
30
0
11
268.07261931767846
21
76.377168137839874
31
0
0
LINE
5
146
100
AcDbEntity
8
0
100
AcDbLine
10
268.07261931767846
20
76.377168137839874
30
0
11
268.07261931767846
21
73.377168137839874
31
0
0
LINE
5
147
100
AcDbEntity
8
0
100
AcDbLine
10
268.07261931767846
20
73.377168137839874
30
0
11
267.43680474740023
21
73.377168137839874
31
0
0
LINE
5
148
100
AcDbEntity
8
0
100
AcDbLine
10
267.43680474740023
20
73.377168137839874
30
0
11
267.43680474740023
21
70.377168137839874
31
0
0
LINE
5
149
100
AcDbEntity
8
0
100
AcDbLine
10
267.43680474740023
20
70.377168137839874
30
0
11
266.79159982174735
21
70.377168137839874
31
0
0
LINE
5
150
100
AcDbEntity
8
0
100
AcDbLine
10
266.79159982174735
20
70.377168137839874
30
0
11
266.79159982174735
21
67.377168137839874
31
0
0
LINE
5
151
100
AcDbEntity
8
0
100
AcDbLine
10
266.79159982174735
20
67.377168137839874
30
0
11
266.13636350356967
21
67.377168137839874
31
0
0
LINE
5
152
100
AcDbEntity
8
0
100
AcDbLine
10
266.13636350356967
20
67.377168137839874
30
0
11
266.13636350356967
21
64.377168137839874
31
0
0
LINE
5
153
100
AcDbEntity
8
0
100
AcDbLine
10
266.13636350356967
20
64.377168137839874
30
0
11
265.47052304793766
21
64.377168137839874
31
0
0
LINE
5
154
100
AcDbEntity
8
0
100
AcDbLine
10
265.47052304793766
20
64.377168137839874
30
0
11
265.47052304793766
21
61.377168138070893
31
0
0
LINE
5
155
100
AcDbEntity
8
0
100
AcDbLine
10
265.47052304793766
20
61.377168138070893
30
0
11
264.79365821059645
21
61.377168137839881
31
0
0
LINE
5
156
100
AcDbEntity
8
0
100
AcDbLine
10
264.79365821059645
20
61.377168137839881
30
0
11
264.79365821059645
21
58.377168137839881
31
0
0
LINE
5
157
100
AcDbEntity
8
0
100
AcDbLine
10
264.79365821059645
20
58.377168137839881
30
0
11
264.10562192387687
21
58.377168137839881
31
0
0
LINE
5
158
100
AcDbEntity
8
0
100
AcDbLine
10
264.10562192387687
20
58.377168137839881
30
0
11
264.10562192387687
21
55.737705337843039
31
0
0
LINE
5
159
100
AcDbEntity
8
0
100
AcDbLine
10
264.10562192387687
20
55.737705337843039
30
0
11
264.18889510449935
21
55.737705337843039
31
0
0
SPLINE
5
160
100
AcDbEntity
8
0
100
AcDbSpline
70
4
71
5
72
12
73
6
74
0
42
0.000000001
43
0.0000000001
44
0.0000000001
40
-0.84786824933896332
40
-0.84786824933896332
40
-0.84786824933896332
40
-0.84786824933896332
40
-0.84786824933896332
40
-0.84786824933896332
40
-0.84547578023421388
40
-0.84547578023421388
40
-0.84547578023421388
40
-0.84547578023421388
40
-0.84547578023421388
40
-0.84547578023421388
41
1
41
1
41
1
41
1
41
1
41
1
10
264.18889510449935
20
55.737705337843039
30
0
10
264.17220803349278
20
55.665388775521535
30
0
10
264.15553708584355
20
55.593176638923936
30
0
10
264.13888235488542
20
55.521069062633011
30
0
10
264.12224393544443
20
55.449066182933777
30
0
10
264.10562192387692
20
55.377168137843562
30
0
0
LINE
5
161
100
AcDbEntity
8
0
100
AcDbLine
10
264.10562192387692
20
55.377168137843562
30
0
11
263.40675385517795
21
55.377168137839881
31
0
0
LINE
5
162
100
AcDbEntity
8
0
100
AcDbLine
10
263.40675385517795
20
55.377168137839881
30
0
11
263.40675385517795
21
52.377168137840044
31
0
0
LINE
5
163
100
AcDbEntity
8
0
100
AcDbLine
10
263.40675385517795
20
52.377168137840044
30
0
11
262.69829599514816
21
52.377168137839888
31
0
0
LINE
5
164
100
AcDbEntity
8
0
100
AcDbLine
10
262.69829599514816
20
52.377168137839888
30
0
11
262.69829599514816
21
49.377168137839888
31
0
0
LINE
5
165
100
AcDbEntity
8
0
100
AcDbLine
10
262.69829599514816
20
49.377168137839888
30
0
11
261.9830705959439
21
49.377168137839888
31
0
0
LINE
5
166
100
AcDbEntity
8
0
100
AcDbLine
10
261.9830705959439
20
49.377168137839888
30
0
11
261.9830705959439
21
46.377168137839888
31
0
0
LINE
5
167
100
AcDbEntity
8
0
100
AcDbLine
10
261.9830705959439
20
46.377168137839888
30
0
11
261.26688623901208
21
46.377168137839888
31
0
0
LINE
5
168
100
AcDbEntity
8
0
100
AcDbLine
10
261.26688623901208
20
46.377168137839888
30
0
11
261.26688623901208
21
43.377168137839888
31
0
0
LINE
5
169
100
AcDbEntity
8
0
100
AcDbLine
10
261.26688623901208
20
43.377168137839888
30
0
11
260.56223689650881
21
43.377168137839888
31
0
0
LINE
5
170
100
AcDbEntity
8
0
100
AcDbLine
10
260.56223689650881
20
43.377168137839888
30
0
11
260.56223689650881
21
40.377168137839888
31
0
0
LINE
5
171
100
AcDbEntity
8
0
100
AcDbLine
10
260.56223689650881
20
40.377168137839888
30
0
11
259.8931957790341
21
40.377168137839888
31
0
0
LINE
5
172
100
AcDbEntity
8
0
100
AcDbLine
10
259.8931957790341
20
40.377168137839888
30
0
11
259.8931957790341
21
37.377168137839895
31
0
0
LINE
5
173
100
AcDbEntity
8
0
100
AcDbLine
10
259.8931957790341
20
37.377168137839895
30
0
11
259.28304659499844
21
37.377168137839895
31
0
0
LINE
5
174
100
AcDbEntity
8
0
100
AcDbLine
10
259.28304659499844
20
37.377168137839895
30
0
11
259.28304659499844
21
34.377168137839895
31
0
0
LINE
5
175
100
AcDbEntity
8
0
100
AcDbLine
10
259.28304659499844
20
34.377168137839895
30
0
11
258.51004113506792
21
34.377168137839895
31
0
0
LINE
5
176
100
AcDbEntity
8
0
100
AcDbLine
10
258.51004113506792
20
34.377168137839895
30
0
11
258.51004113506792
21
31.377168137839895
31
0
0
LINE
5
177
100
AcDbEntity
8
0
100
AcDbLine
10
258.51004113506792
20
31.377168137839895
30
0
11
255.84766282422868
21
31.377168137839895
31
0
0
LINE
5
178
100
AcDbEntity
8
0
100
AcDbLine
10
255.84766282422868
20
31.377168137839895
30
0
11
255.84766282422868
21
28.377168137839899
31
0
0
LINE
5
179
100
AcDbEntity
8
0
100
AcDbLine
10
255.84766282422868
20
28.377168137839899
30
0
11
251.30750008942599
21
28.377168137839899
31
0
0
LINE
5
180
100
AcDbEntity
8
0
100
AcDbLine
10
251.30750008942599
20
28.377168137839899
30
0
11
251.30750008942599
21
24.722611452968465
31
0
0
LINE
5
181
100
AcDbEntity
8
0
100
AcDbLine
10
251.30750008942599
20
24.722611452968465
30
0
11
248.40750008942598
21
24.722611452968465
31
0
0
LINE
5
182
100
AcDbEntity
8
0
100
AcDbLine
10
248.40750008942598
20
24.722611452968465
30
0
11
248.40750008942598
21
25.377168137839902
31
0
0
LINE
5
183
100
AcDbEntity
8
0
100
AcDbLine
10
248.40750008942598
20
25.377168137839902
30
0
11
245.43641780492356
21
25.377168137839902
31
0
0
LINE
5
184
100
AcDbEntity
8
0
100
AcDbLine
10
245.43641780492356
20
25.377168137839902
30
0
11
245.43641780492356
21
22.377168137839902
31
0
0
LINE
5
185
100
AcDbEntity
8
0
100
AcDbLine
10
245.43641780492356
20
22.377168137839902
30
0
11
239.44728513360707
21
22.377168137839902
31
0
0
LINE
5
186
100
AcDbEntity
8
0
100
AcDbLine
10
239.44728513360707
20
22.377168137839902
30
0
11
239.44728513360707
21
19.377168137839895
31
0
0
LINE
5
187
100
AcDbEntity
8
0
100
AcDbLine
10
239.44728513360707
20
19.377168137839895
30
0
11
233.09714336821992
21
19.377168137839895
31
0
0
LINE
5
188
100
AcDbEntity
8
0
100
AcDbLine
10
233.09714336821992
20
19.377168137839895
30
0
11
233.09714336821992
21
16.377168137839895
31
0
0
LINE
5
189
100
AcDbEntity
8
0
100
AcDbLine
10
233.09714336821992
20
16.377168137839895
30
0
11
230.19650042472057
21
16.377168137839895
31
0
0
LINE
5
190
100
AcDbEntity
8
0
100
AcDbLine
10
230.19650042472057
20
16.377168137839895
30
0
11
230.19650042472057
21
14.454484721588559
31
0
0
LINE
5
191
100
AcDbEntity
8
0
100
AcDbLine
10
230.19650042472057
20
14.454484721588559
30
0
11
227.29650042472059
21
14.454484721588559
31
0
0
LINE
5
192
100
AcDbEntity
8
0
100
AcDbLine
10
227.29650042472059
20
14.454484721588559
30
0
11
227.29650042472059
21
16.377168137839895
31
0
0
LINE
5
193
100
AcDbEntity
8
0
100
AcDbLine
10
227.29650042472059
20
16.377168137839895
30
0
11
224.29650042472053
21
16.377168137839895
31
0
0
LINE
5
194
100
AcDbEntity
8
0
100
AcDbLine
10
224.29650042472053
20
16.377168137839895
30
0
11
224.29650042472053
21
13.377168137839899
31
0
0
LINE
5
195
100
AcDbEntity
8
0
100
AcDbLine
10
224.29650042472053
20
13.377168137839899
30
0
11
217.96594113392166
21
13.377168137839899
31
0
0
LINE
5
196
100
AcDbEntity
8
0
100
AcDbLine
10
217.96594113392166
20
13.377168137839899
30
0
11
217.96594113392166
21
10.377168137839892
31
0
0
LINE
5
197
100
AcDbEntity
8
0
100
AcDbLine
10
217.96594113392166
20
10.377168137839892
30
0
11
207.94972463381029
21
10.377168137839892
31
0
0
LINE
5
198
100
AcDbEntity
8
0
100
AcDbLine
10
207.94972463381029
20
10.377168137839892
30
0
11
207.94972463381029
21
7.3771681378398934
31
0
0
LINE
5
199
100
AcDbEntity
8
0
100
AcDbLine
10
207.94972463381029
20
7.3771681378398934
30
0
11
197.34699654598828
21
7.3771681378398934
31
0
0
LINE
5
200
100
AcDbEntity
8
0
100
AcDbLine
10
197.34699654598828
20
7.3771681378398934
30
0
11
197.34699654598828
21
4.3771681378398952
31
0
0
LINE
5
201
100
AcDbEntity
8
0
100
AcDbLine
10
197.34699654598828
20
4.3771681378398952
30
0
11
194.34699654598825
21
4.3771681378398952
31
0
0
LINE
5
202
100
AcDbEntity
8
0
100
AcDbLine
10
194.34699654598825
20
4.3771681378398952
30
0
11
194.34699654598825
21
7.3771681378398934
31
0
0
LINE
5
203
100
AcDbEntity
8
0
100
AcDbLine
10
194.34699654598825
20
7.3771681378398934
30
0
11
184.2343418202646
21
7.3771681378398934
31
0
0
LINE
5
204
100
AcDbEntity
8
0
100
AcDbLine
10
184.2343418202646
20
7.3771681378398934
30
0
11
184.2343418202646
21
5.8771681378398988
31
0
0
LINE
5
205
100
AcDbEntity
8
0
100
AcDbLine
10
184.2343418202646
20
5.8771681378398988
30
0
11
181.23434182026466
21
5.8771681378398988
31
0
0
LINE
5
206
100
AcDbEntity
8
0
100
AcDbLine
10
181.23434182026466
20
5.8771681378398988
30
0
11
181.23434182026466
21
7.3771681378398934
31
0
0
LINE
5
207
100
AcDbEntity
8
0
100
AcDbLine
10
181.23434182026466
20
7.3771681378398934
30
0
11
138.22218321580888
21
7.3771681378398934
31
0
0
LINE
5
208
100
AcDbEntity
8
0
100
AcDbLine
10
138.22218321580888
20
7.3771681378398934
30
0
11
138.22218321580888
21
5.8771681378398988
31
0
0
LINE
5
209
100
AcDbEntity
8
0
100
AcDbLine
10
138.22218321580888
20
5.8771681378398988
30
0
11
135.22218321580885
21
5.8771681378398988
31
0
0
LINE
5
210
100
AcDbEntity
8
0
100
AcDbLine
10
135.22218321580885
20
5.8771681378398988
30
0
11
135.22218321580885
21
7.3771681378398934
31
0
0
LINE
5
211
100
AcDbEntity
8
0
100
AcDbLine
10
135.22218321580885
20
7.3771681378398934
30
0
11
92.210024611353077
21
7.3771681378398934
31
0
0
LINE
5
212
100
AcDbEntity
8
0
100
AcDbLine
10
92.210024611353077
20
7.3771681378398934
30
0
11
92.210024611353077
21
5.8771681378398988
31
0
0
LINE
5
213
100
AcDbEntity
8
0
100
AcDbLine
10
92.210024611353077
20
5.8771681378398988
30
0
11
89.210024611353077
21
5.8771681378398988
31
0
0
LINE
5
214
100
AcDbEntity
8
0
100
AcDbLine
10
89.210024611353077
20
5.8771681378398988
30
0
11
89.210024611353077
21
7.3771681378398934
31
0
0
LINE
5
215
100
AcDbEntity
8
0
100
AcDbLine
10
89.210024611353077
20
7.3771681378398934
30
0
11
67.269010890863058
21
7.3771681378398934
31
0
0
LINE
5
216
100
AcDbEntity
8
0
100
AcDbLine
10
67.269010890863058
20
7.3771681378398934
30
0
11
67.269010890863058
21
4.3771681378398952
31
0
0
LINE
5
217
100
AcDbEntity
8
0
100
AcDbLine
10
67.269010890863058
20
4.3771681378398952
30
0
11
64.269010890863058
21
4.3771681378398952
31
0
0
LINE
5
218
100
AcDbEntity
8
0
100
AcDbLine
10
64.269010890863058
20
4.3771681378398952
30
0
11
64.269010890863058
21
7.3771681378398934
31
0
0
LINE
5
219
100
AcDbEntity
8
0
100
AcDbLine
10
64.269010890863058
20
7.3771681378398934
30
0
11
59.044831184434514
21
7.3771681378398934
31
0
0
LINE
5
220
100
AcDbEntity
8
0
100
AcDbLine
10
59.044831184434514
20
7.3771681378398934
30
0
11
59.044831184434514
21
10.377168137839892
31
0
0
LINE
5
221
100
AcDbEntity
8
0
100
AcDbLine
10
59.044831184434514
20
10.377168137839892
30
0
11
52.561522073248312
21
10.377168137839892
31
0
0
LINE
5
222
100
AcDbEntity
8
0
100
AcDbLine
10
52.561522073248312
20
10.377168137839892
30
0
11
52.561522073248312
21
13.377168137839899
31
0
0
LINE
5
223
100
AcDbEntity
8
0
100
AcDbLine
10
52.561522073248312
20
13.377168137839899
30
0
11
49.14786600689726
21
13.377168137839899
31
0
0
LINE
5
224
100
AcDbEntity
8
0
100
AcDbLine
10
49.14786600689726
20
13.377168137839899
30
0
11
49.14786600689726
21
16.377168137839895
31
0
0
LINE
5
225
100
AcDbEntity
8
0
100
AcDbLine
10
49.14786600689726
20
16.377168137839895
30
0
11
46.14786600689726
21
16.377168137839895
31
0
0
LINE
5
226
100
AcDbEntity
8
0
100
AcDbLine
10
46.14786600689726
20
16.377168137839895
30
0
11
46.14786600689726
21
14.734695593773601
31
0
0
LINE
5
227
100
AcDbEntity
8
0
100
AcDbLine
10
46.14786600689726
20
14.734695593773601
30
0
11
43.247866006897269
21
14.734695593773601
31
0
0
LINE
5
228
100
AcDbEntity
8
0
100
AcDbLine
10
43.247866006897269
20
14.734695593773601
30
0
11
43.247866006897269
21
16.377168137839895
31
0
0
LINE
5
229
100
AcDbEntity
8
0
100
AcDbLine
10
43.247866006897269
20
16.377168137839895
30
0
11
42.174754372529932
21
16.377168137839895
31
0
0
LINE
5
230
100
AcDbEntity
8
0
100
AcDbLine
10
42.174754372529932
20
16.377168137839895
30
0
11
42.174754372529932
21
19.377168137839895
31
0
0
LINE
5
231
100
AcDbEntity
8
0
100
AcDbLine
10
42.174754372529932
20
19.377168137839895
30
0
11
38.606160046026012
21
19.377168137839895
31
0
0
LINE
5
232
100
AcDbEntity
8
0
100
AcDbLine
10
38.606160046026012
20
19.377168137839895
30
0
11
38.606160046026012
21
22.377168137839902
31
0
0
LINE
5
233
100
AcDbEntity
8
0
100
AcDbLine
10
38.606160046026012
20
22.377168137839902
30
0
11
35.682481322891419
21
22.377168137839902
31
0
0
LINE
5
234
100
AcDbEntity
8
0
100
AcDbLine
10
35.682481322891419
20
22.377168137839902
30
0
11
35.682481322891419
21
25.377168137839902
31
0
0
LINE
5
235
100
AcDbEntity
8
0
100
AcDbLine
10
35.682481322891419
20
25.377168137839902
30
0
11
33.164047634743739
21
25.377168137839902
31
0
0
LINE
5
236
100
AcDbEntity
8
0
100
AcDbLine
10
33.164047634743739
20
25.377168137839902
30
0
11
33.164047634743739
21
28.377168137839899
31
0
0
LINE
5
237
100
AcDbEntity
8
0
100
AcDbLine
10
33.164047634743739
20
28.377168137839899
30
0
11
31.065160424479288
21
28.377168137839899
31
0
0
LINE
5
238
100
AcDbEntity
8
0
100
AcDbLine
10
31.065160424479288
20
28.377168137839899
30
0
11
31.065160424479288
21
31.377168137839895
31
0
0
LINE
5
239
100
AcDbEntity
8
0
100
AcDbLine
10
31.065160424479288
20
31.377168137839895
30
0
11
29.361274329553737
21
31.377168137839895
31
0
0
LINE
5
240
100
AcDbEntity
8
0
100
AcDbLine
10
29.361274329553737
20
31.377168137839895
30
0
11
29.361274329553737
21
34.377168137839895
31
0
0
LINE
5
241
100
AcDbEntity
8
0
100
AcDbLine
10
29.361274329553737
20
34.377168137839895
30
0
11
27.994003824027658
21
34.377168137839959
31
0
0
LINE
5
242
100
AcDbEntity
8
0
100
AcDbLine
10
27.994003824027658
20
34.377168137839959
30
0
11
27.994003824027658
21
37.377168137839895
31
0
0
LINE
5
243
100
AcDbEntity
8
0
100
AcDbLine
10
27.994003824027658
20
37.377168137839895
30
0
11
26.89059470026935
21
37.377168137839895
31
0
0
LINE
5
244
100
AcDbEntity
8
0
100
AcDbLine
10
26.89059470026935
20
37.377168137839895
30
0
11
26.89059470026935
21
40.377168137839888
31
0
0
LINE
5
245
100
AcDbEntity
8
0
100
AcDbLine
10
26.89059470026935
20
40.377168137839888
30
0
11
25.980952673655011
21
40.377168137839888
31
0
0
LINE
5
246
100
AcDbEntity
8
0
100
AcDbLine
10
25.980952673655011
20
40.377168137839888
30
0
11
25.980952673655011
21
43.377168137839888
31
0
0
LINE
5
247
100
AcDbEntity
8
0
100
AcDbLine
10
25.980952673655011
20
43.377168137839888
30
0
11
25.211659623065898
21
43.377168137839888
31
0
0
LINE
5
248
100
AcDbEntity
8
0
100
AcDbLine
10
25.211659623065898
20
43.377168137839888
30
0
11
25.211659623065898
21
46.377168137839888
31
0
0
LINE
5
249
100
AcDbEntity
8
0
100
AcDbLine
10
25.211659623065898
20
46.377168137839888
30
0
11
24.5478893531401
21
46.377168137839888
31
0
0
LINE
5
250
100
AcDbEntity
8
0
100
AcDbLine
10
24.5478893531401
20
46.377168137839888
30
0
11
24.5478893531401
21
49.377168137839888
31
0
0
LINE
5
251
100
AcDbEntity
8
0
100
AcDbLine
10
24.5478893531401
20
49.377168137839888
30
0
11
23.968068666644857
21
49.377168137839888
31
0
0
LINE
5
252
100
AcDbEntity
8
0
100
AcDbLine
10
23.968068666644857
20
49.377168137839888
30
0
11
23.968068666644857
21
52.377168137839888
31
0
0
LINE
5
253
100
AcDbEntity
8
0
100
AcDbLine
10
23.968068666644857
20
52.377168137839888
30
0
11
23.459309412600916
21
52.377168137839888
31
0
0
LINE
5
254
100
AcDbEntity
8
0
100
AcDbLine
10
23.459309412600916
20
52.377168137839888
30
0
11
23.459309412600916
21
55.377168137839881
31
0
0
LINE
5
255
100
AcDbEntity
8
0
100
AcDbLine
10
23.459309412600916
20
55.377168137839881
30
0
11
23.014021112992786
21
55.377168137839881
31
0
0
SPLINE
5
256
100
AcDbEntity
8
0
100
AcDbSpline
70
4
71
5
72
12
73
6
74
0
42
0.000000001
43
0.0000000001
44
0.0000000001
40
-0.0030000633279939856
40
-0.0030000633279939856
40
-0.0030000633279939856
40
-0.0030000633279939856
40
-0.0030000633279939856
40
-0.0030000633279939856
40
0
40
0
40
0
40
0
40
0
40
0
41
1
41
1
41
1
41
1
41
1
41
1
10
23.014021112992793
20
55.377168137839874
30
0
10
23.007219018290638
20
55.426307149831672
30
0
10
23.000433542126572
20
55.475468145300162
30
0
10
22.993664684175773
20
55.524651123942704
30
0
10
22.986912444262199
20
55.573856085617166
30
0
10
22.980176822314782
20
55.623083030348674
30
0
0
SPLINE
5
257
100
AcDbEntity
8
0
100
AcDbSpline
70
4
71
5
72
17
73
11
74
0
42
0.000000001
43
0.0000000001
44
0.0000000001
40
-0.81819167223391598
40
-0.81819167223391598
40
-0.81819167223391598
40
-0.81819167223391598
40
-0.81819167223391598
40
-0.81819167223391598
40
-0.79999999999999993
40
-0.69999999999999996
40
-0.59999999999999998
40
-0.5
40
-0.40000000000000002
40
-0.33701572134762764
40
-0.33701572134762764
40
-0.33701572134762764
40
-0.33701572134762764
40
-0.33701572134762764
40
-0.33701572134762764
41
1
41
1
41
1
41
1
41
1
41
1
41
1
41
1
41
1
41
1
41
1
10
22.980176822314718
20
55.623083030348674
30
0
10
22.837158903052899
20
55.626314743252578
30
0
10
21.910071928804349
20
55.649176511437872
30
0
10
20.223942984929781
20
55.713861786914755
30
0
10
17.835522124352391
20
55.87069523026527
30
0
10
14.841527180465398
20
56.205444023846425
30
0
10
11.750153487358899
20
56.774072966279888
30
0
10
9.4987315417097751
20
57.372627358434713
30
0
10
7.9593367065799665
20
57.887666531930122
30
0
10
7.0398112500067267
20
58.237467098986819
30
0
10
6.6895664615152874
20
58.377168137839845
30
0
0
SPLINE
5
258
100
AcDbEntity
8
0
100
AcDbSpline
70
4
71
5
72
14
73
8
74
0
42
0.000000001
43
0.0000000001
44
0.0000000001
40
-0.33701572134762392
40
-0.33701572134762392
40
-0.33701572134762392
40
-0.33701572134762392
40
-0.33701572134762392
40
-0.33701572134762392
40
-0.30000000000000004
40
-0.20000000000000001
40
-0.11499094990876965
40
-0.11499094990876965
40
-0.11499094990876965
40
-0.11499094990876965
40
-0.11499094990876965
40
-0.11499094990876965
41
1
41
1
41
1
41
1
41
1
41
1
41
1
41
1
10
6.6895664615151844
20
58.377168137839902
30
0
10
6.4837283734771933
20
58.459270129587679
30
0
10
5.7283278955421721
20
58.76895737168347
30
0
10
4.5431196975994137
20
59.305251584137281
30
0
10
3.4192531760259772
20
59.895942204779836
30
0
10
2.3536591129185234
20
60.538307520747558
30
0
10
1.5046937281811701
20
61.108139695890799
30
0
10
1.1227238023909847
20
61.377168137839888
30
0
0
SPLINE
5
259
100
AcDbEntity
8
0
100
AcDbSpline
70
4
71
5
72
13
73
7
74
0
42
0.000000001
43
0.0000000001
44
0.0000000001
40
-0.11499094990876926
40
-0.11499094990876926
40
-0.11499094990876926
40
-0.11499094990876926
40
-0.11499094990876926
40
-0.11499094990876926
40
-0.10000000000000001
40
0
40
0
40
0
40
0
40
0
40
0
41
1
41
1
41
1
41
1
41
1
41
1
41
1
10
1.1227238023909762
20
61.377168137839895
30
0
10
1.0553651856550894
20
61.42461005011824
30
0
10
0.54061442799141701
20
61.790239473669729
30
0
10
0.040681463026261931
20
62.169008979917351
30
0
10
-0.44469326110955493
20
62.560688404147015
30
0
10
-0.91564470880245508
20
62.96515806300021
30
0
10
-1.3142925975585307
20
63.326570872234086
30
0
0
ENDSEC
0
SECTION
2
OBJECTS
0
DICTIONARY
5
C
100
AcDbDictionary
3
ACAD_GROUP
350
D
3
ACAD_MLINESTYLE
350
17
0
DICTIONARY
5
D
100
AcDbDictionary
0
DICTIONARY
5
1A
330
C
100
AcDbDictionary
0
DICTIONARY
5
17
100
AcDbDictionary
0
ENDSEC
0
EOF
